<svg width="46" height="75" viewBox="0 0 46 75" fill="none" xmlns="http://www.w3.org/2000/svg">
<mask id="mask0_1756:56798" style="mask-type:alpha" maskUnits="userSpaceOnUse" x="3" y="0" width="43" height="75">
<rect x="3" width="43" height="75" fill="white"/>
</mask>
<g mask="url(#mask0_1756:56798)">
<path fill-rule="evenodd" clip-rule="evenodd" d="M-31.964 9.37535C-31.964 9.02016 -31.8229 8.67949 -31.5717 8.42828C-31.3205 8.17713 -30.9798 8.03602 -30.6246 8.03602H14.9128C15.268 8.03602 15.6087 8.17713 15.86 8.42828C16.1112 8.67949 16.2521 9.02016 16.2521 9.37535V38.8407C16.2521 39.1959 16.1112 39.5366 15.86 39.7878C15.6087 40.039 15.268 40.1801 14.9128 40.1801H-3.83793C-4.90323 40.181 -5.92451 40.605 -6.67732 41.3587L-21.2493 55.9307V44.1981C-21.2493 43.1325 -21.6726 42.1104 -22.4261 41.3569C-23.1797 40.6034 -24.2017 40.1801 -25.2673 40.1801H-30.6246C-30.9798 40.1801 -31.3205 40.039 -31.5717 39.7878C-31.8229 39.5366 -31.964 39.1959 -31.964 38.8407V9.37535ZM-30.6246 0C-33.1112 0 -35.4958 0.987734 -37.254 2.74596C-39.0122 4.50419 -40 6.88885 -40 9.37535V38.8407C-40 44.0159 -35.7998 48.2161 -30.6246 48.2161H-29.2853V56.4825C-29.2848 58.0259 -28.8267 59.5346 -27.969 60.8176C-27.1112 62.1007 -25.8923 63.1009 -24.4664 63.6913C-23.0404 64.2817 -21.4714 64.4365 -19.9576 64.1354C-18.4438 63.8344 -17.0532 63.0918 -15.9616 62.0005L-2.17179 48.2161H14.9128C17.3991 48.2161 19.7837 47.2284 21.542 45.4701C23.3002 43.7119 24.2881 41.3272 24.2881 38.8407V9.37535C24.2881 6.88885 23.3002 4.50419 21.542 2.74596C19.7837 0.987734 17.3991 0 14.9128 0H-30.6246ZM37.6815 20.09C37.6815 19.7348 37.5406 19.3942 37.2893 19.143C37.0381 18.8918 36.6973 18.7507 36.3422 18.7507H33.6635C32.5979 18.7507 31.5757 18.3274 30.8225 17.5739C30.0687 16.8203 29.6455 15.7983 29.6455 14.7327C29.6455 13.6671 30.0687 12.645 30.8225 11.8915C31.5757 11.138 32.5979 10.7147 33.6635 10.7147H36.3422C41.5173 10.7147 45.7175 14.9148 45.7175 20.09V49.5554C45.7175 52.0418 44.7296 54.4263 42.9713 56.1846C41.2131 57.9429 38.8285 58.9308 36.3422 58.9308H35.0028V67.1972C35.0023 68.7406 34.5442 70.2492 33.6865 71.5323C32.8288 72.8154 31.61 73.8156 30.1839 74.406C28.7578 74.9964 27.1891 75.1512 25.6751 74.8501C24.1612 74.5491 22.7709 73.8065 21.6791 72.7152L9.39471 60.4308C8.99993 60.0628 8.68331 59.6192 8.46371 59.1263C8.24412 58.6335 8.12599 58.1015 8.1165 57.562C8.10697 57.0225 8.20624 56.4868 8.40832 55.9864C8.6104 55.486 8.91116 55.0317 9.29271 54.6503C9.67426 54.2683 10.1287 53.9677 10.629 53.7658C11.1294 53.5638 11.6653 53.4641 12.2047 53.4738C12.7443 53.4834 13.2763 53.6013 13.769 53.8209C14.2619 54.0406 14.7054 54.3572 15.0735 54.7521L26.9668 66.6454V54.9128C26.9668 53.8472 27.39 52.825 28.1438 52.0718C28.8971 51.318 29.9192 50.8948 30.9848 50.8948H36.3422C36.6973 50.8948 37.0381 50.7539 37.2893 50.5026C37.5406 50.2514 37.6815 49.9106 37.6815 49.5554V20.09Z" fill="#5761B2"/>
</g>
</svg>
