<svg width="192" height="75" viewBox="0 0 192 75" fill="none" xmlns="http://www.w3.org/2000/svg">
<path d="M20.3395 46.6714C17.0284 39.3659 19.4461 31.1143 26.4362 27.9608C34.1097 24.492 41.0999 28.5915 44.411 35.9496L44.7264 36.6854L23.5981 46.3034C26.3311 51.6643 32.0599 54.5551 38.0515 51.8746C41.2575 50.403 43.6226 47.8802 44.7264 44.6216L46.9338 45.7779C45.6198 49.5095 43.0971 52.4528 38.8924 54.3448C31.5869 57.5509 23.8609 54.45 20.3395 46.6714ZM27.4874 30.3259C21.5484 33.0589 20.9177 39.6287 22.7046 44.0961L41.0473 35.7394C39.0501 31.4822 33.7943 27.4352 27.4874 30.3259Z" fill="#CCCCCC"/>
<path d="M52.3477 20.7077C52.3477 19.4464 53.4514 18.4478 54.6603 18.4478C55.9216 18.4478 56.9728 19.4464 56.9728 20.7077C56.9728 21.9691 55.9216 23.0203 54.6603 23.0203C53.4514 22.9677 52.3477 21.9691 52.3477 20.7077ZM53.1886 55.0806V27.33H56.1844V55.0806H53.1886Z" fill="#CCCCCC"/>
<path d="M65.4872 62.1233L67.2216 59.7056C69.6393 62.5963 72.2672 63.5949 76.4718 63.5949C81.4648 63.5949 85.8796 61.0721 85.8796 54.8178V50.4029C83.935 53.2936 80.3611 55.6061 76.209 55.6061C68.8509 55.6061 63.8579 50.0349 63.8579 41.1527C63.8579 32.3755 68.8509 26.6467 76.209 26.6467C80.1508 26.6467 83.6196 28.6439 85.8796 31.7974V27.33H88.928V54.8178C88.928 63.2796 83.1992 66.2754 76.4718 66.2754C71.7416 66.3279 68.7983 65.487 65.4872 62.1233ZM85.8796 47.9326V34.4253C84.2503 31.7448 80.5713 29.3797 76.7346 29.3797C70.5853 29.3797 67.0114 34.4778 67.0114 41.2052C67.0114 47.9326 70.5853 52.9782 76.7346 52.9782C80.6238 52.9782 84.3029 50.6131 85.8796 47.9326Z" fill="#CCCCCC"/>
<path d="M97.8102 46.6714C94.4991 39.3659 96.9168 31.1143 103.907 27.9608C111.58 24.492 118.571 28.5915 121.882 35.9496L122.197 36.6854L101.069 46.3034C103.802 51.6643 109.531 54.5551 115.522 51.8746C118.728 50.403 121.093 47.8802 122.197 44.6216L124.404 45.7779C123.091 49.5095 120.568 52.4528 116.363 54.3448C109.058 57.5509 101.332 54.45 97.8102 46.6714ZM104.958 30.3259C99.0191 33.0589 98.3884 39.6287 100.175 44.0961L118.518 35.7394C116.521 31.4822 111.265 27.4352 104.958 30.3259Z" fill="#CCCCCC"/>
<path d="M149.475 55.0806V36.3174C149.475 30.9565 146.794 29.3798 142.747 29.3798C139.173 29.3798 135.494 31.6398 133.76 34.1625V55.1332H130.711V27.3826H133.707V31.5872C135.704 29.1696 139.699 26.6993 143.693 26.6993C149.317 26.6993 152.418 29.4323 152.418 35.7393V55.1332H149.475V55.0806Z" fill="#CCCCCC"/>
<path d="M166.03 8.46167V19.5514H176.699V22.3895H166.03V33.5843H162.982V22.3895H152.312V19.5514H162.982V8.46167H166.03Z" fill="#CCCCCC"/>
<path d="M191.731 75H0V0H191.731V75ZM2.31254 72.6349H189.366V2.31255H2.31254V72.6349Z" fill="#CCCCCC"/>
</svg>
