<svg width="42" height="75" viewBox="0 0 42 75" fill="none" xmlns="http://www.w3.org/2000/svg">
<mask id="mask0_1756:56807" style="mask-type:alpha" maskUnits="userSpaceOnUse" x="3" y="0" width="39" height="75">
<rect x="3" width="39" height="75" fill="white"/>
</mask>
<g mask="url(#mask0_1756:56807)">
<path fill-rule="evenodd" clip-rule="evenodd" d="M2.69818 10.2291C-1.07418 10.2291 -4.69206 11.6656 -7.35952 14.2226C-10.027 16.7797 -11.5256 20.2477 -11.5256 23.864C-11.5256 27.4801 -10.027 30.9482 -7.35952 33.5052C-4.69206 36.0622 -1.07417 37.4988 2.69819 37.4988C6.47055 37.4988 10.0884 36.0622 12.756 33.5052C15.4234 30.9482 16.922 27.4801 16.922 23.864C16.922 20.2477 15.4234 16.7797 12.756 14.2226C10.0884 11.6656 6.47054 10.2291 2.69818 10.2291ZM-22.1934 23.864C-22.1939 19.909 -21.1689 16.0159 -19.2105 12.5348C-17.2521 9.05383 -14.4218 6.09404 -10.9741 3.92167C-7.52637 1.74929 -3.56938 0.432503 0.540862 0.0897898C4.65118 -0.252991 8.7859 0.389008 12.5731 1.95797C16.3603 3.527 19.6814 5.97378 22.2374 9.07837C24.7935 12.1829 26.5045 15.8478 27.2164 19.7434C27.9284 23.6391 27.619 27.6433 26.3161 31.3959C25.0133 35.1485 22.7578 38.5319 19.7525 41.2416C25.4197 43.8771 30.3401 47.7841 34.0964 52.631C37.8531 57.478 40.3344 63.1221 41.3301 69.084C41.5519 70.4236 41.2092 71.7932 40.3771 72.8908C39.5457 73.9884 38.2933 74.724 36.8958 74.9368C35.4983 75.1495 34.0696 74.8209 32.9246 74.0232C31.7796 73.2263 31.0118 72.0257 30.7902 70.6861C29.714 64.2872 26.2958 58.4645 21.1482 54.2617C16.0006 50.0589 9.45982 47.7508 2.69819 47.7508C-4.06344 47.7508 -10.6041 50.0589 -15.7518 54.2617C-20.8994 58.4645 -24.3176 64.2872 -25.3938 70.6861C-25.5039 71.3494 -25.7494 71.9855 -26.1161 72.5581C-26.4828 73.1308 -26.9634 73.6285 -27.5307 74.0225C-28.098 74.4173 -28.7408 74.7002 -29.4223 74.8563C-30.1038 75.0131 -30.8108 75.039 -31.5029 74.9333C-32.1949 74.8277 -32.8585 74.5925 -33.4557 74.2407C-34.0529 73.8896 -34.572 73.4287 -34.9835 72.8847C-35.3949 72.3414 -35.6906 71.7251 -35.8536 71.0713C-36.0166 70.4182 -36.0438 69.7405 -35.9336 69.0772C-34.9355 63.1174 -32.4532 57.4766 -28.697 52.6319C-24.9408 47.7875 -20.0215 43.8827 -14.3561 41.2484C-16.8344 39.0194 -18.8088 36.3262 -20.1569 33.3359C-21.505 30.3455 -22.1982 27.1216 -22.1934 23.864Z" fill="#5761B2"/>
</g>
</svg>
