<svg width="133" height="36" viewBox="0 0 133 36" fill="none" xmlns="http://www.w3.org/2000/svg">
<path fill-rule="evenodd" clip-rule="evenodd" d="M39.1169 26.7012V10.3376H41.2208L51.2208 23.5064V10.3376H53.2208V26.7012H51.1169L41.1169 13.4025V26.7012H39.1169ZM69.5065 26.0519C68.1819 26.5454 66.7533 26.8051 65.2468 26.8051C59.3247 26.8051 56.3637 23.974 56.3637 18.2857C56.3637 12.909 59.2208 10.2077 64.9351 10.2077C66.5715 10.2077 68.104 10.4415 69.5065 10.8831V12.7012C68.104 12.1558 66.6494 11.896 65.1689 11.896C60.7014 11.896 58.4676 14.0259 58.4676 18.2337C58.4676 22.7792 60.6754 25.0389 65.065 25.0389C65.7663 25.0389 66.5455 24.935 67.4027 24.7532V19.2727H69.5065V26.0519ZM72.8832 20.3896V10.3376H74.9871V20.3896C74.9871 23.5324 76.5455 25.1168 79.6884 25.1168C82.8052 25.1168 84.3897 23.5324 84.3897 20.3896V10.3376H86.4936V20.3896C86.4936 24.6753 84.2338 26.8311 79.6884 26.8311C75.1429 26.8311 72.8832 24.6753 72.8832 20.3896ZM92.3637 10.3376V24.987H100.935V26.7012H90.2598V10.3376H92.3637ZM103.974 26.7012H101.766L109.896 8.18176L118.026 26.7012H115.688L113.584 21.5584H108.182L108.753 19.8441H112.883L109.818 12.4415L103.974 26.7012ZM120.286 26.7012V10.3376H127.273C130.39 10.3376 131.948 11.6363 131.948 14.2597C131.948 16.3896 130.416 17.974 127.377 18.987L132.987 26.7012H130.208L125.013 19.3506V17.974C128.13 17.4805 129.714 16.2857 129.714 14.3636C129.714 12.8571 128.857 12.1038 127.117 12.1038H122.442V26.7012H120.286Z" fill="#989898"/>
<path fill-rule="evenodd" clip-rule="evenodd" d="M0 5.97403L16.7532 0L33.9481 5.87013L31.1688 28.026L16.7532 36L2.57143 28.1299L0 5.97403Z" fill="#989898"/>
<path fill-rule="evenodd" clip-rule="evenodd" d="M33.9481 5.87013L16.7533 0V36L31.1689 28.026L33.9481 5.87013Z" fill="#989898"/>
<path fill-rule="evenodd" clip-rule="evenodd" d="M16.7792 4.20776L6.33765 27.4285L10.2338 27.3506L12.3376 22.1039H21.6623L23.948 27.4026L27.6623 27.4805L16.7792 4.20776ZM16.8052 11.6623L20.3376 19.0389H13.7143L16.8052 11.6623Z" fill="white"/>
</svg>
