<svg width="123" height="40" viewBox="0 0 123 40" fill="none" xmlns="http://www.w3.org/2000/svg">
<path d="M40.0011 19.9984C40 31.0452 31.045 40 19.9995 40C9.02825 39.9989 0.000536358 30.9707 0 19.9995C0 8.95397 8.95504 0 19.9995 0C31.0439 0 39.9989 8.95504 39.9989 20.0016" fill="#989898"/>
<path d="M20.344 12.2171L25.5199 24.9915L17.7024 18.8457L20.344 12.2171ZM29.5383 27.9335L21.5766 8.77448C21.3497 8.2223 20.9061 7.92971 20.3429 7.92971C19.7857 7.91416 19.2759 8.25394 19.0758 8.77448L10.3377 29.7906H13.3268L16.785 21.1263L27.1078 29.4656C27.5234 29.8008 27.823 29.9526 28.2118 29.9526C28.9917 29.9526 29.6734 29.3682 29.6734 28.5245C29.6734 28.3872 29.6241 28.1692 29.5372 27.9348L29.5383 27.9335Z" fill="white"/>
<path d="M67.4164 25.9844C67.2096 25.9844 66.9873 25.9319 66.832 25.723L60.2024 17.005V25.8973H58.6893V14.9467C58.6893 14.4997 59.0503 14.1623 59.4627 14.1623C59.703 14.1623 59.9095 14.2326 60.0637 14.4415L66.6757 23.1417V14.2851H68.1874V25.218C68.1874 25.2207 68.1874 25.2231 68.1874 25.2258C68.1874 25.6428 67.8444 25.9858 67.4276 25.9858C67.4231 25.9858 67.4185 25.9855 67.4142 25.9855L67.4164 25.9844ZM76.1612 26.0906C74.6505 26.0906 73.0693 25.7777 71.5933 25.2191L71.9542 23.9642C73.3107 24.411 74.7881 24.7127 76.1612 24.7127C78.0676 24.7127 79.0642 24.0334 79.0642 23.0747C79.0642 22.2031 78.291 21.7673 75.6294 20.5114C72.9677 19.2553 71.9196 18.4553 71.9196 16.8854C71.9196 14.9153 73.4303 14.1143 76.2818 14.1143C77.4664 14.1143 79.2988 14.3599 80.3359 14.6729L80.0956 15.9623C78.8572 15.6668 77.5897 15.5094 76.3167 15.493C74.3075 15.493 73.4828 15.8762 73.4828 16.8363C73.4828 17.7771 74.0841 18.1772 76.9 19.4867C79.8722 20.8644 80.6263 21.5616 80.6263 22.9921C80.6263 25.067 78.6676 26.0963 76.1612 26.0963V26.0906ZM84.0322 14.2661H85.5968V25.8782H84.0322V14.2661ZM96.0332 20.4846H92.1513V24.4258H96.0332C97.3554 24.4258 98.1631 23.5877 98.1631 22.4198C98.1631 21.3216 97.3218 20.4846 96.0332 20.4846ZM95.2767 15.463H92.1513V19.1772H95.2767C96.5304 19.1772 97.4412 18.3749 97.4412 17.2587C97.4412 16.1602 96.6511 15.463 95.2767 15.463ZM96.0501 25.7498H91.3792C90.9322 25.7498 90.5892 25.4011 90.5892 24.9654V14.922C90.594 14.4914 90.9488 14.1395 91.3792 14.1376H95.2432C97.6123 14.1376 99.0202 15.3053 99.0202 17.1367C99.0202 18.1423 98.4358 19.0542 97.5428 19.5951C98.866 19.9973 99.7588 21.0947 99.7588 22.4198C99.7588 24.2681 98.2312 25.7498 96.049 25.7498H96.0501ZM104.318 25.6213C103.889 25.6213 103.536 25.2547 103.536 24.8369V13.9979H105.1V24.1978H111.338V25.6101L104.318 25.6213ZM118.617 25.6849C115.421 25.6849 113.499 24.5006 113.499 22.1093C113.499 20.9762 114.136 19.8946 115.372 19.3894C114.367 18.7616 113.86 17.872 113.86 16.8953C113.86 14.7333 115.528 13.704 118.665 13.704C119.928 13.7096 121.191 13.8437 122.427 14.1062L122.254 15.397C120.949 15.1881 119.729 15.0661 118.545 15.0661C116.518 15.0661 115.436 15.6249 115.436 16.9658C115.436 18.0294 116.433 18.8654 117.756 18.8654H120.435C120.439 18.8654 120.442 18.8654 120.446 18.8654C120.807 18.8654 121.105 19.163 121.105 19.5245C121.105 19.5256 121.105 19.527 121.105 19.528C121.105 19.9113 120.814 20.2073 120.434 20.2073H117.549C116.037 20.2073 115.076 20.9561 115.076 22.1071C115.076 23.7977 116.638 24.3038 118.596 24.3038C119.661 24.3038 121.104 24.1654 122.284 23.8859L122.507 25.1576C121.247 25.4974 119.948 25.6736 118.642 25.6817L118.617 25.6849ZM50.1411 16.5646L52.8789 23.4233L48.7444 20.1159L50.1411 16.5646ZM55.0042 25.0034L50.7938 14.7164C50.6731 14.4203 50.4329 14.2629 50.1411 14.2629C49.845 14.2575 49.576 14.4396 49.4706 14.7164L44.8671 26.3084L46.4314 26L48.2606 21.3484L53.7191 25.8257C53.9393 26.0046 54.0967 26.0872 54.3035 26.0872C54.3075 26.0874 54.3118 26.0874 54.3158 26.0874C54.7326 26.0874 55.0756 25.7444 55.0756 25.3274C55.0756 25.325 55.0756 25.3223 55.0756 25.3196C55.0686 25.211 55.0445 25.1043 55.0042 25.0034Z" fill="#989898"/>
</svg>
