<svg width="91" height="38" viewBox="0 0 91 38" fill="none" xmlns="http://www.w3.org/2000/svg">
<path fill-rule="evenodd" clip-rule="evenodd" d="M30.9356 7.7587L18.939 0.63749C17.5071 -0.212497 15.7422 -0.212497 14.3104 0.63749L2.31378 7.7587C0.882335 8.60868 9.15527e-05 10.1792 9.15527e-05 11.8792V26.1216C9.15527e-05 27.8211 0.882335 29.3925 2.3142 30.2425L14.3108 37.3624C15.0267 37.7877 15.8252 37.9996 16.6249 37.9996C17.4242 37.9996 18.2227 37.7877 18.9386 37.3624L30.9352 30.2425C32.367 29.3925 33.2497 27.8211 33.2497 26.1216V11.8792C33.2497 10.1792 32.367 8.60868 30.9356 7.7587Z" fill="#FEFEFE"/>
<path fill-rule="evenodd" clip-rule="evenodd" d="M14.73 36.6335L2.73345 29.5135C1.56005 28.8169 0.831135 27.5174 0.831135 26.1215V11.8795C0.831135 10.4837 1.56005 9.18421 2.73303 8.48796L14.73 1.36676C15.3052 1.02534 15.9604 0.844785 16.6248 0.844785C17.2888 0.844785 17.944 1.02534 18.5196 1.36676L30.5162 8.48796C31.5048 9.07487 32.1717 10.0912 32.3594 11.231C31.9614 10.3819 31.0641 10.1511 30.0185 10.7619L18.6691 17.7721C17.254 18.5994 16.2105 19.5277 16.2097 21.234V35.2188C16.2088 36.2405 16.6215 36.9024 17.2553 37.0943C17.0471 37.1303 16.8372 37.1554 16.6248 37.1554C15.9604 37.1554 15.3052 36.9749 14.73 36.6335ZM30.9355 7.75863L18.9389 0.637839C18.223 0.212636 17.4237 0.000244141 16.6248 0.000244141C15.8255 0.000244141 15.0262 0.212636 14.3103 0.637839L2.31369 7.75863C0.882243 8.60861 0 10.1796 0 11.8795V26.1215C0 27.8211 0.882244 29.3924 2.31411 30.2424L14.3107 37.3628C15.027 37.7876 15.8255 38 16.6248 38C17.4241 38 18.2226 37.7876 18.9385 37.3628L30.9355 30.2424C32.3674 29.3924 33.2496 27.8211 33.2496 26.1215V11.8795C33.2496 10.1796 32.3674 8.60861 30.9355 7.75863Z" fill="#989898"/>
<path fill-rule="evenodd" clip-rule="evenodd" d="M27.7908 27.4983L24.8034 29.2863C24.7243 29.3323 24.666 29.3843 24.6656 29.4794V30.2611C24.6656 30.3566 24.7297 30.3964 24.8089 30.3499L27.8423 28.5062C27.9215 28.4601 27.9336 28.3718 27.934 28.2767V27.5871C27.934 27.492 27.8699 27.4522 27.7908 27.4983Z" fill="white"/>
<path fill-rule="evenodd" clip-rule="evenodd" d="M21.4295 20.9184C21.5263 20.8694 21.6059 20.9297 21.6071 21.0562L21.6172 22.0897C22.0499 21.9175 22.4257 21.8714 22.7663 21.9502C22.84 21.9699 22.8727 22.0704 22.8425 22.1898L22.6151 23.1055C22.5975 23.1747 22.5585 23.2446 22.5116 23.2882C22.4919 23.3075 22.4718 23.3225 22.4517 23.3326C22.4211 23.3481 22.3909 23.3531 22.362 23.3473C22.2066 23.3121 21.8371 23.2312 21.2557 23.5257C20.6457 23.8345 20.4325 24.3644 20.4367 24.7578C20.4417 25.2274 20.6826 25.3698 21.5146 25.384C22.623 25.4025 23.1018 25.8867 23.1136 27.0032C23.1249 28.0995 22.5397 29.2766 21.6444 29.998L21.6641 31.021C21.6654 31.1442 21.5854 31.2854 21.4886 31.3344L20.8828 31.6833C20.7856 31.7323 20.706 31.672 20.7048 31.5489L20.6943 30.5426C20.1753 30.7584 19.6495 30.8103 19.3136 30.6754C19.2503 30.6507 19.2231 30.5573 19.2482 30.4509L19.4677 29.5259C19.4853 29.453 19.5239 29.3801 19.5762 29.3336C19.5947 29.3156 19.6139 29.3018 19.6332 29.2921C19.668 29.2745 19.7019 29.2708 19.7308 29.2817C20.0928 29.4036 20.5557 29.3466 21.001 29.1212C21.5665 28.8351 21.9448 28.2582 21.9389 27.6852C21.9335 27.1653 21.652 26.9491 20.9675 26.9441C20.0961 26.9466 19.2838 26.7749 19.2704 25.4921C19.2595 24.436 19.8087 23.3372 20.678 22.6422L20.6671 21.6096C20.6658 21.4827 20.7433 21.3432 20.843 21.2929L21.4295 20.9184Z" fill="#FEFEFE"/>
<path fill-rule="evenodd" clip-rule="evenodd" d="M41.2762 20.0701H43.92C44.2932 20.0818 44.6426 20.1422 44.9589 20.2486C45.2601 20.3491 45.5249 20.4945 45.7465 20.68C45.963 20.8619 46.1294 21.0789 46.2534 21.3415C46.3748 21.6008 46.4339 21.9083 46.4276 22.2665C46.4276 22.6046 46.361 22.9058 46.2291 23.1621C46.0929 23.4269 45.914 23.6439 45.684 23.8249C45.444 24.013 45.1621 24.1625 44.8466 24.2693C44.5249 24.3778 44.1793 24.4365 43.8299 24.4419H41.2762V20.0701ZM45.8177 16.1746C45.6799 16.4087 45.5047 16.6006 45.2823 16.7606C45.0515 16.9261 44.7825 17.0556 44.4813 17.144C44.1688 17.2365 43.845 17.2864 43.5304 17.2922H41.2762V13.5639H43.4634C43.8148 13.5702 44.1621 13.6137 44.4964 13.6942C44.8039 13.7675 45.077 13.8827 45.3074 14.0352C45.5232 14.178 45.6907 14.3569 45.8202 14.5814C45.9438 14.7967 46.0066 15.0728 46.0066 15.4017C46.0066 15.705 45.9446 15.9576 45.8177 16.1746ZM48.7648 19.5527C48.4657 19.1916 48.105 18.8791 47.6928 18.624C47.6421 18.593 47.591 18.5628 47.539 18.5331C47.8679 18.3136 48.1603 18.0551 48.4095 17.764C48.676 17.4527 48.8875 17.0979 49.0396 16.7104C49.1925 16.3204 49.2742 15.8868 49.283 15.4176C49.2914 14.604 49.1209 13.8881 48.7757 13.2891C48.4363 12.7001 47.9751 12.2091 47.4054 11.8283C46.8528 11.4601 46.2165 11.1848 45.5135 11.0097C44.8328 10.8405 44.1269 10.7508 43.4085 10.7433H38.6064C38.2713 10.7433 37.9994 11.0018 37.9994 11.3206V26.6744C37.9994 26.9932 38.2713 27.2516 38.6064 27.2516H43.7809C44.5257 27.2441 45.2593 27.1318 45.9609 26.9186C46.6735 26.7016 47.3136 26.384 47.8637 25.9739C48.4267 25.5546 48.8817 25.0272 49.2159 24.4067C49.5557 23.7775 49.7237 23.0482 49.7153 22.2451C49.7153 21.7257 49.6311 21.2326 49.4656 20.7797C49.3002 20.3273 49.0643 19.9147 48.7648 19.5527Z" fill="#989898"/>
<path fill-rule="evenodd" clip-rule="evenodd" d="M58.6035 20.4243H55.9525L57.2885 16.3076L58.6035 20.4243ZM58.7362 11.1457C58.6562 10.9061 58.4225 10.7435 58.1577 10.7435H56.4389C56.1754 10.7435 55.9425 10.9048 55.8616 11.1432L50.649 26.4974C50.5895 26.6729 50.6218 26.8648 50.7362 27.0143C50.8505 27.1635 51.0327 27.2515 51.2267 27.2515H53.2786C53.5442 27.2515 53.7792 27.0868 53.8579 26.8455L55.023 23.2755H59.5159L60.6603 26.843C60.7383 27.086 60.9741 27.2515 61.241 27.2515H63.2815C63.4751 27.2515 63.6569 27.1639 63.7712 27.0152C63.8856 26.8669 63.9183 26.6754 63.8596 26.4999L58.7362 11.1457Z" fill="#989898"/>
<path fill-rule="evenodd" clip-rule="evenodd" d="M76.1896 20.1462C75.9152 19.7943 75.5914 19.4763 75.2256 19.1998C74.8742 18.9334 74.4909 18.6921 74.0866 18.481C73.6899 18.274 73.2705 18.088 72.8399 17.9272C72.426 17.7738 72.0067 17.6331 71.5877 17.5074C71.2325 17.4039 70.8521 17.2824 70.4571 17.1467C70.0905 17.0215 69.7462 16.8627 69.4332 16.6746C69.1501 16.5045 68.9146 16.2955 68.7328 16.0529C68.5753 15.8426 68.4957 15.5816 68.4907 15.2645C68.4907 14.9499 68.5523 14.6872 68.6796 14.4602C68.8128 14.2235 68.9863 14.0295 69.21 13.8683C69.4416 13.7007 69.7122 13.5725 70.0139 13.4875C70.7193 13.2876 71.5107 13.3174 72.0825 13.5298C72.3921 13.6446 72.6619 13.8071 72.883 14.0115C73.1076 14.2193 73.2911 14.4736 73.4289 14.7668C73.5738 15.0756 73.6735 15.4275 73.7251 15.812C73.7632 16.0998 74.0212 16.316 74.3271 16.316H76.4338C76.5972 16.316 76.7534 16.254 76.8674 16.143C76.9818 16.0324 77.0442 15.8824 77.0408 15.7274C77.0241 14.9407 76.8418 14.2143 76.4987 13.5691C76.1594 12.9328 75.7015 12.3823 75.1385 11.9328C74.583 11.4901 73.9383 11.1423 73.2224 10.8981C71.8638 10.4361 70.354 10.4113 68.9117 10.8382C68.218 11.0439 67.5879 11.3501 67.0391 11.7473C66.4795 12.1519 66.0203 12.6555 65.6743 13.2424C65.3174 13.8473 65.1364 14.5381 65.1364 15.2964C65.1364 16.0596 65.3203 16.7391 65.6827 17.3164C66.0266 17.8639 66.4757 18.3452 67.0173 18.7461C67.5389 19.1328 68.1233 19.4625 68.7538 19.7264C69.3591 19.9799 69.9623 20.1994 70.548 20.3799C70.9326 20.4976 71.3335 20.6284 71.7507 20.7733C72.1298 20.9053 72.4817 21.0716 72.7959 21.2676C73.0841 21.4473 73.3129 21.6614 73.4938 21.9211C73.6534 22.1507 73.7309 22.436 73.7309 22.7942C73.7309 23.1125 73.6648 23.3727 73.5286 23.5893C73.3799 23.826 73.1939 24.0161 72.9605 24.1707C72.7176 24.3308 72.4348 24.4514 72.1181 24.5285C71.359 24.7145 70.5333 24.6852 69.8823 24.4853C69.5334 24.3785 69.2225 24.2189 68.9586 24.0107C68.6955 23.8033 68.4769 23.5453 68.308 23.2445C68.1363 22.9387 68.0207 22.5767 67.9641 22.17C67.9243 21.883 67.6667 21.6685 67.3625 21.6685H65.2667C65.1025 21.6685 64.9454 21.7314 64.8314 21.8432C64.7171 21.9551 64.6551 22.1063 64.6597 22.2621C64.6848 23.0845 64.8938 23.8327 65.2813 24.4858C65.6596 25.1238 66.159 25.6713 66.7652 26.1141C67.3604 26.5498 68.0437 26.8878 68.7952 27.1187C69.5396 27.347 70.3113 27.4626 71.0888 27.4626C71.7842 27.4626 72.4888 27.3683 73.1826 27.1828C73.8889 26.9938 74.5332 26.7064 75.097 26.3294C75.6751 25.9428 76.1531 25.4526 76.5172 24.8716C76.8942 24.2704 77.0852 23.5637 77.0852 22.7728C77.0852 22.2546 77.0048 21.7703 76.8464 21.3342C76.6898 20.904 76.469 20.5044 76.1896 20.1462Z" fill="#989898"/>
<path fill-rule="evenodd" clip-rule="evenodd" d="M89.6419 10.7435H87.701C87.3659 10.7435 87.094 11.0016 87.094 11.3204V17.3449H81.6875V11.3204C81.6875 11.0016 81.416 10.7435 81.0809 10.7435H79.1509C78.8158 10.7435 78.5439 11.0016 78.5439 11.3204V26.6746C78.5439 26.9934 78.8158 27.2515 79.1509 27.2515H81.0809C81.416 27.2515 81.6875 26.9934 81.6875 26.6746V20.1545H87.094V26.6746C87.094 26.9934 87.3659 27.2515 87.701 27.2515H89.6419C89.977 27.2515 90.2489 26.9934 90.2489 26.6746V11.3204C90.2489 11.0016 89.977 10.7435 89.6419 10.7435Z" fill="#989898"/>
<path fill-rule="evenodd" clip-rule="evenodd" d="M39.8556 29.9131H39.1213V31.8778H38.7287V29.9131H37.9994V29.6035H39.8556V29.9131Z" fill="#989898"/>
<path fill-rule="evenodd" clip-rule="evenodd" d="M42.1164 31.8778H41.7323V30.8628H40.9192V31.8778H40.5363V29.6035H40.9192V30.5549H41.7323V29.6035H42.1164V31.8778Z" fill="#989898"/>
<path fill-rule="evenodd" clip-rule="evenodd" d="M44.3742 30.8579H43.3902V31.5717H44.5418V31.8775H42.9943V29.6036H44.5301V29.9128H43.3902V30.5546H44.3742V30.8579Z" fill="#989898"/>
<path fill-rule="evenodd" clip-rule="evenodd" d="M48.1782 30.847V31.5717H48.6084C48.6708 31.5709 48.7278 31.5617 48.7793 31.5445C48.8309 31.5273 48.8749 31.5034 48.9126 31.4733C48.9494 31.4431 48.9788 31.4062 49.0001 31.3623C49.0215 31.3187 49.0324 31.2701 49.0324 31.2156C49.0324 31.1582 49.0232 31.1071 49.0043 31.0619C48.9855 31.0162 48.9586 30.9781 48.9239 30.9467C48.8887 30.9157 48.846 30.8914 48.7957 30.8742C48.7454 30.857 48.6889 30.8482 48.6264 30.847H48.1782ZM48.1782 30.5609H48.5561C48.6151 30.56 48.67 30.5525 48.7211 30.5382C48.7718 30.5244 48.8158 30.5035 48.8531 30.4758C48.8904 30.4486 48.9201 30.4147 48.9419 30.3745C48.9637 30.3342 48.9746 30.2882 48.9746 30.2366C48.9746 30.1792 48.9645 30.1302 48.9436 30.0892C48.9226 30.049 48.8933 30.0154 48.8556 29.9895C48.8179 29.9639 48.7735 29.9446 48.722 29.9325C48.6704 29.9203 48.6139 29.9141 48.5527 29.9128H48.1782V30.5609ZM47.7823 31.8779V29.6036H48.546C48.6612 29.6049 48.7685 29.6175 48.8686 29.6413C48.9691 29.6652 49.0567 29.7025 49.1317 29.7524C49.2066 29.8022 49.2653 29.8659 49.308 29.9434C49.3508 30.0209 49.3717 30.113 49.3704 30.2194C49.3696 30.3317 49.3365 30.4277 49.272 30.5072C49.2075 30.5873 49.1203 30.6488 49.011 30.6924C49.0776 30.71 49.1371 30.7356 49.189 30.7682C49.241 30.8009 49.2846 30.8403 49.3198 30.886C49.3545 30.932 49.3818 30.9827 49.4002 31.038C49.4186 31.0942 49.4283 31.1532 49.4283 31.2156C49.4283 31.3237 49.4073 31.4192 49.3654 31.5013C49.3239 31.5835 49.2661 31.6522 49.1924 31.7075C49.1183 31.7627 49.0307 31.8046 48.9297 31.8331C48.8284 31.862 48.719 31.8771 48.6017 31.8779H47.7823Z" fill="#989898"/>
<path fill-rule="evenodd" clip-rule="evenodd" d="M51.4147 30.5941C51.4139 30.5087 51.4055 30.4236 51.39 30.3394C51.3749 30.2552 51.349 30.1798 51.3129 30.1141C51.2765 30.0474 51.2287 29.9942 51.1692 29.9528C51.1093 29.9117 51.0348 29.8912 50.9451 29.8912C50.8563 29.8912 50.7826 29.9117 50.7239 29.9528C50.6657 29.9942 50.6188 30.0479 50.5844 30.1145C50.5497 30.1811 50.5258 30.2561 50.512 30.3403C50.4986 30.4241 50.491 30.5087 50.4898 30.5941V30.8874C50.491 30.9728 50.499 31.0575 50.5128 31.1417C50.5275 31.2254 50.5513 31.3008 50.5861 31.3679C50.6205 31.4349 50.6674 31.4894 50.7256 31.5313C50.7843 31.5727 50.858 31.5937 50.9468 31.5937C51.0364 31.5937 51.111 31.5727 51.1709 31.5313C51.2304 31.4894 51.2782 31.4353 51.3146 31.3687C51.3506 31.3017 51.3762 31.2267 51.3909 31.1421C51.4055 31.0579 51.4139 30.9728 51.4147 30.8874V30.5941ZM51.8106 30.8874C51.8106 31.0218 51.7926 31.1509 51.7561 31.274C51.7201 31.3976 51.6661 31.5061 51.5944 31.6008C51.5228 31.6946 51.4332 31.7696 51.3251 31.8253C51.2174 31.8811 51.0913 31.9087 50.9468 31.9087C50.8031 31.9087 50.6783 31.8806 50.5723 31.8245C50.4659 31.7684 50.3775 31.693 50.3067 31.5991C50.2363 31.5049 50.1831 31.3964 50.1475 31.2732C50.1119 31.1505 50.0943 31.0218 50.0943 30.8874V30.5971C50.0943 30.5074 50.1018 30.4203 50.1182 30.3348C50.1337 30.2494 50.1576 30.1689 50.1886 30.0931C50.22 30.0177 50.2589 29.9482 50.305 29.8841C50.3515 29.82 50.4064 29.7651 50.4692 29.7194C50.5325 29.6733 50.6037 29.6373 50.6829 29.6113C50.7625 29.5858 50.8496 29.5724 50.9451 29.5724C51.0897 29.5724 51.2157 29.6005 51.3238 29.657C51.4315 29.7131 51.5216 29.7886 51.594 29.8824C51.6661 29.9771 51.7201 30.086 51.7561 30.21C51.7926 30.3336 51.8106 30.4626 51.8106 30.5971V30.8874Z" fill="#989898"/>
<path fill-rule="evenodd" clip-rule="evenodd" d="M54.1503 29.6036L54.1536 31.1268C54.1524 31.2433 54.1327 31.3501 54.0946 31.446C54.056 31.5424 54.0024 31.6249 53.9333 31.6936C53.8646 31.7623 53.7812 31.8155 53.6828 31.8528C53.5852 31.8901 53.4754 31.9089 53.3539 31.9089C53.2354 31.9089 53.1281 31.8901 53.0318 31.8528C52.9354 31.8155 52.8529 31.7627 52.7838 31.6945C52.7147 31.6262 52.661 31.5437 52.6229 31.4473C52.5844 31.3514 52.5647 31.2441 52.5638 31.1268L52.5672 29.6036H52.9547L52.9576 31.1268C52.9589 31.1964 52.9681 31.2605 52.9857 31.3187C53.0033 31.3773 53.0284 31.4272 53.0615 31.4691C53.0942 31.5114 53.1348 31.5445 53.1838 31.568C53.2324 31.5914 53.289 31.6031 53.3539 31.6031C53.4193 31.6031 53.4775 31.5914 53.5278 31.568C53.578 31.5445 53.6204 31.5114 53.6543 31.4691C53.6882 31.4272 53.7138 31.3773 53.7318 31.3187C53.749 31.2605 53.7582 31.1964 53.7594 31.1268L53.7628 29.6036H54.1503Z" fill="#989898"/>
<path fill-rule="evenodd" clip-rule="evenodd" d="M55.4013 30.6878H55.7641C55.8298 30.6878 55.8902 30.679 55.945 30.6614C55.9995 30.6434 56.0468 30.6183 56.0871 30.5856C56.1269 30.5525 56.1578 30.5127 56.1796 30.4649C56.2014 30.418 56.2127 30.3631 56.2127 30.302C56.2127 30.2383 56.2023 30.1822 56.1813 30.1336C56.1604 30.0841 56.1306 30.0431 56.0917 30.0096C56.0531 29.9765 56.0058 29.9513 55.9496 29.9342C55.8939 29.917 55.8315 29.9078 55.7624 29.9069H55.4013V30.6878ZM55.8018 30.9907H55.4013V31.8775H55.0071V29.6036H55.7624C55.8851 29.6049 55.9982 29.6196 56.1017 29.6485C56.2052 29.6769 56.2948 29.7197 56.3702 29.7762C56.4461 29.8332 56.5043 29.904 56.5458 29.9895C56.5877 30.0749 56.6082 30.1746 56.6082 30.2894C56.6082 30.3665 56.5977 30.4364 56.5764 30.4993C56.555 30.5625 56.5252 30.6195 56.4867 30.6706C56.4486 30.7213 56.4025 30.7661 56.3489 30.8047C56.2953 30.8436 56.2362 30.8763 56.1717 30.9031L56.6773 31.8591V31.8775H56.2571L55.8018 30.9907Z" fill="#989898"/>
<path fill-rule="evenodd" clip-rule="evenodd" d="M58.9531 31.8778H58.5556L57.7772 30.3132L57.7755 31.8778H57.3763V29.6035H57.7755L58.551 31.1644L58.5543 29.6035H58.9531V31.8778Z" fill="#989898"/>
<path fill-rule="evenodd" clip-rule="evenodd" d="M61.2126 30.8579H60.2285V31.5717H61.3801V31.8775H59.8326V29.6036H61.3684V29.9128H60.2285V30.5546H61.2126V30.8579Z" fill="#989898"/>
<path fill-rule="evenodd" clip-rule="evenodd" d="M62.3814 31.0311H63.6968V30.7299H62.3814V31.0311Z" fill="#989898"/>
<path fill-rule="evenodd" clip-rule="evenodd" d="M65.1347 31.0296H65.6831L65.4125 30.1382L65.1347 31.0296ZM65.7819 31.3501H65.0346L64.8704 31.8779H64.4628L65.2399 29.6036H65.5863L66.3487 31.8779H65.9428L65.7819 31.3501Z" fill="#989898"/>
<path fill-rule="evenodd" clip-rule="evenodd" d="M68.6323 31.5937C68.5921 31.6393 68.5444 31.6816 68.4895 31.7202C68.4346 31.7587 68.3735 31.7918 68.3056 31.8199C68.2377 31.848 68.164 31.8697 68.0848 31.8857C68.0052 31.9012 67.9206 31.9087 67.831 31.9087C67.6873 31.9087 67.5603 31.8823 67.4497 31.8291C67.3391 31.7763 67.2457 31.7038 67.1699 31.6117C67.0937 31.5191 67.0359 31.4106 66.9956 31.2858C66.9558 31.1609 66.9353 31.0265 66.9341 30.8828V30.6021C66.9341 30.458 66.9537 30.3239 66.9931 30.1991C67.0325 30.0738 67.0891 29.9653 67.1632 29.8723C67.2373 29.7793 67.3278 29.7064 67.4351 29.6532C67.5423 29.5992 67.6651 29.5724 67.8029 29.5724C67.9265 29.5724 68.0371 29.5887 68.1347 29.6206C68.2323 29.6532 68.3161 29.6997 68.386 29.7609C68.456 29.8216 68.5117 29.8958 68.5528 29.9833C68.5938 30.0705 68.6198 30.1685 68.6307 30.277H68.2432C68.2335 30.2154 68.218 30.1601 68.1971 30.1115C68.1761 30.0625 68.1485 30.0206 68.1133 29.9863C68.0781 29.9519 68.0358 29.926 67.986 29.9075C67.9361 29.8891 67.8775 29.8803 67.8096 29.8803C67.7262 29.8803 67.655 29.8996 67.5951 29.9385C67.5356 29.9779 67.4862 30.0303 67.4468 30.0965C67.4074 30.1626 67.3781 30.2393 67.3593 30.326C67.3408 30.4132 67.3308 30.5041 67.3299 30.5987V30.8828C67.3308 30.9774 67.3412 31.0683 67.3601 31.1546C67.3794 31.2409 67.4095 31.3176 67.4506 31.3834C67.4916 31.4496 67.5444 31.5023 67.6089 31.5421C67.6739 31.5815 67.7514 31.6021 67.8423 31.6029C67.8796 31.6029 67.9181 31.6008 67.9575 31.5962C67.9969 31.5912 68.0346 31.5836 68.0697 31.5736C68.1053 31.5627 68.138 31.5497 68.1678 31.5338C68.1971 31.517 68.2214 31.4973 68.2398 31.473L68.2432 31.0185H67.8113V30.7269H68.629L68.6323 31.5937Z" fill="#989898"/>
<path fill-rule="evenodd" clip-rule="evenodd" d="M69.9457 31.0296H70.4941L70.2234 30.1382L69.9457 31.0296ZM70.5929 31.3501H69.8456L69.6813 31.8779H69.2737L70.0508 29.6036H70.3973L71.1597 31.8779H70.7538L70.5929 31.3501Z" fill="#989898"/>
<path fill-rule="evenodd" clip-rule="evenodd" d="M71.8913 29.6036H73.3139V29.9145H72.7966V31.5688H73.3139V31.8779H71.8913V31.5688H72.3973V29.9145H71.8913V29.6036Z" fill="#989898"/>
<path fill-rule="evenodd" clip-rule="evenodd" d="M75.7914 31.8778H75.3939L74.6155 30.3132L74.6138 31.8778H74.2146V29.6035H74.6138L75.3892 31.1644L75.3926 29.6035H75.7914V31.8778Z" fill="#989898"/>
<path fill-rule="evenodd" clip-rule="evenodd" d="M80.2967 31.292C80.2967 31.238 80.285 31.1903 80.2616 31.1492C80.2377 31.1077 80.2046 31.0721 80.161 31.0403C80.1179 31.0093 80.0668 30.982 80.0069 30.9586C79.9474 30.9351 79.8824 30.9138 79.8121 30.8937C79.7182 30.8677 79.6252 30.8354 79.5339 30.7969C79.4422 30.7583 79.3609 30.711 79.2892 30.6557C79.2172 30.6 79.1594 30.5346 79.115 30.4601C79.0706 30.3859 79.0484 30.3 79.0484 30.202C79.0484 30.104 79.0706 30.0164 79.115 29.9385C79.1594 29.861 79.2189 29.7957 79.293 29.7412C79.3676 29.6872 79.4543 29.6453 79.5527 29.616C79.6512 29.587 79.7543 29.5724 79.8615 29.5724C79.9767 29.5724 80.0839 29.5896 80.1845 29.6231C80.2846 29.657 80.3722 29.7048 80.4471 29.7655C80.5221 29.8263 80.5816 29.8991 80.6252 29.9838C80.6692 30.0688 80.6914 30.1631 80.6926 30.2661H80.2984C80.293 30.2087 80.28 30.1564 80.2599 30.109C80.2394 30.0617 80.2109 30.0206 80.1744 29.9863C80.1376 29.9519 80.0932 29.9255 80.0404 29.9067C79.988 29.8878 79.9273 29.8786 79.8581 29.8786C79.7991 29.8786 79.7442 29.8862 79.6939 29.9004C79.6437 29.9146 79.6001 29.9364 79.5632 29.9645C79.5268 29.9926 79.4979 30.0265 79.4773 30.0659C79.4564 30.1057 79.4459 30.1505 79.4459 30.2003C79.4459 30.2536 79.4602 30.2996 79.4887 30.3386C79.5171 30.3775 79.5544 30.4119 79.6001 30.4408C79.6462 30.4701 79.6994 30.4953 79.7589 30.5166C79.8188 30.538 79.8808 30.5573 79.9453 30.5749C80.045 30.6033 80.1401 30.6377 80.231 30.6792C80.3219 30.7202 80.4019 30.7697 80.471 30.8275C80.5397 30.8853 80.5946 30.9523 80.6352 31.0281C80.6755 31.104 80.696 31.1911 80.696 31.2891C80.696 31.3901 80.6734 31.4789 80.6285 31.556C80.5837 31.6331 80.5234 31.698 80.448 31.7495C80.3722 31.8015 80.2846 31.8408 80.1853 31.8676C80.0856 31.894 79.9813 31.9074 79.8728 31.9074C79.7995 31.9074 79.727 31.9007 79.6545 31.8869C79.5821 31.8739 79.513 31.8534 79.4468 31.8262C79.3806 31.7994 79.319 31.7658 79.262 31.7256C79.205 31.6854 79.1556 31.6389 79.1133 31.5865C79.0714 31.5338 79.0379 31.4751 79.014 31.4098C78.9897 31.3448 78.9772 31.2732 78.9763 31.1953H79.3718C79.3776 31.264 79.3931 31.3235 79.4195 31.3746C79.4459 31.4257 79.4807 31.4684 79.5247 31.5019C79.5687 31.5359 79.6198 31.5618 79.6784 31.579C79.7371 31.5958 79.8016 31.6046 79.8728 31.6046C79.9323 31.6046 79.9876 31.5974 80.0387 31.5845C80.0902 31.5706 80.1355 31.5505 80.1736 31.5241C80.2117 31.4973 80.2419 31.4646 80.2641 31.4253C80.2859 31.3863 80.2967 31.3419 80.2967 31.292Z" fill="#989898"/>
<path fill-rule="evenodd" clip-rule="evenodd" d="M83.0094 31.8778H82.6253V30.8628H81.8122V31.8778H81.4293V29.6035H81.8122V30.5549H82.6253V29.6035H83.0094V31.8778Z" fill="#989898"/>
<path fill-rule="evenodd" clip-rule="evenodd" d="M85.2672 30.8579H84.2831V31.5717H85.4348V31.8775H83.8873V29.6036H85.423V29.9128H84.2831V30.5546H85.2672V30.8579Z" fill="#989898"/>
<path fill-rule="evenodd" clip-rule="evenodd" d="M86.7036 31.5718H87.8435V31.8777H86.3094V29.6038H86.7036V31.5718Z" fill="#989898"/>
<path fill-rule="evenodd" clip-rule="evenodd" d="M89.1091 31.5718H90.249V31.8777H88.7149V29.6038H89.1091V31.5718Z" fill="#989898"/>
</svg>
