<svg width="154" height="50" viewBox="0 0 154 50" fill="none" xmlns="http://www.w3.org/2000/svg">
<path d="M4.60329 49.8094C4.57096 49.7071 3.4876 42.765 2.19578 34.3825C0.097005 20.7637 -0.131396 19.0986 0.0496625 18.7377C0.161109 18.5155 2.84761 14.2086 6.01966 9.16685L11.787 0L26.2429 0.000188808L40.6988 0.000386199L46.6043 9.39857C49.8523 14.5676 52.5329 18.9357 52.5611 19.1056C52.5893 19.2754 51.546 26.2784 50.2426 34.6677L47.8728 49.921L43.5742 49.9605L39.2757 50V49.6331C39.2757 49.4314 39.3755 48.0743 39.4975 46.6174C39.6195 45.1605 39.7479 43.7174 39.7829 43.4105L39.8463 42.8524H37.7634C35.7063 42.8524 35.6804 42.8563 35.6804 43.1855C35.6804 43.3687 35.5754 44.8252 35.4471 46.4222C35.3188 48.0192 35.1827 49.4764 35.1447 49.6606L35.0755 49.9954H26.2429H17.4103L17.3411 49.6606C17.3031 49.4764 17.167 48.0192 17.0387 46.4222C16.9104 44.8252 16.8054 43.3687 16.8054 43.1855C16.8054 42.8566 16.7795 42.8524 14.7224 42.8524H12.6394L12.7029 43.4105C12.7379 43.7174 12.8663 45.1605 12.9883 46.6174C13.1103 48.0743 13.2101 49.4303 13.2101 49.6308V49.9954H8.93609C5.64804 49.9954 4.64849 49.9525 4.60329 49.8094V49.8094ZM41.7682 28.6036L42.966 19.1167L40.5602 14.3175L38.1543 9.51831H34.3707C32.2898 9.51831 30.5884 9.56853 30.5898 9.62992C30.5915 9.6913 30.6912 10.3777 30.8118 11.1553C30.9325 11.9328 31.0324 12.6862 31.0339 12.8294C31.0361 13.072 30.7094 13.0898 26.2429 13.0898C21.7764 13.0898 21.4494 13.072 21.4519 12.8294C21.4536 12.6862 21.5533 11.9328 21.6739 11.1553C21.7946 10.3777 21.8945 9.6913 21.896 9.62992C21.8977 9.56853 20.196 9.51831 18.1151 9.51831H14.3315L11.9256 14.3175L9.51975 19.1167L10.7176 28.6036L11.9155 38.0904H26.2429H40.5703L41.7682 28.6036ZM18.3783 31.7868C18.251 31.5937 18.0484 30.9743 17.9281 30.4103C17.8078 29.8463 17.7082 28.628 17.7068 27.7029C17.7051 26.6907 17.7991 25.6062 17.9426 24.9795C18.0872 24.3482 18.3232 23.7798 18.5418 23.5364L18.9026 23.1347L19.2634 23.5364C19.4821 23.7798 19.718 24.3482 19.8626 24.9795C20.0061 25.6062 20.1 26.6907 20.0984 27.7029C20.0967 28.628 19.9974 29.8463 19.8771 30.4103C19.7568 30.9743 19.5542 31.5937 19.4269 31.7868C19.2995 31.9799 19.0636 32.1379 18.9026 32.1379C18.7416 32.1379 18.5057 31.9799 18.3783 31.7868ZM33.602 31.4582C33.4357 31.2481 33.1864 30.5711 33.0482 29.9538C32.8543 29.0881 32.8134 28.3673 32.8694 26.8015C32.9223 25.3231 33.0204 24.5528 33.2305 23.966C33.3893 23.5229 33.6347 23.0879 33.7759 22.9995C33.9597 22.8843 34.107 22.8842 34.2947 22.9993C34.4389 23.0877 34.6839 23.5226 34.8392 23.9658C35.0405 24.5407 35.1425 25.3534 35.1949 26.8016C35.2517 28.3695 35.2111 29.0869 35.017 29.9539C34.8788 30.5712 34.6295 31.2481 34.4631 31.4583C34.2968 31.6683 34.103 31.8403 34.0326 31.8403C33.9622 31.8403 33.7684 31.6683 33.602 31.4582ZM64.6671 34.458C64.2551 34.3566 63.6147 34.1183 63.244 33.9284C62.8732 33.7384 62.3463 33.414 62.0731 33.2074C61.7999 33.0007 61.3087 32.4604 60.9817 32.0066C60.6546 31.5529 60.2464 30.7219 60.0746 30.1599C59.8315 29.3649 59.7765 28.8669 59.8268 27.9155C59.8777 26.952 59.9879 26.489 60.3464 25.7322C60.5966 25.2039 61.1203 24.4211 61.5101 23.9927C61.9979 23.4566 62.5746 23.0391 63.3603 22.6534C64.481 22.1032 64.5332 22.093 66.2322 22.093C67.7832 22.093 68.0489 22.1332 68.7935 22.4801C69.2504 22.693 69.8739 23.085 70.1791 23.3512C70.4843 23.6174 70.734 23.9316 70.734 24.0494C70.734 24.1672 70.4215 24.5955 70.0394 25.0012C69.6574 25.407 69.2283 25.7389 69.0859 25.7389C68.9435 25.7389 68.6538 25.6036 68.4421 25.4381C68.2303 25.2727 67.7746 25.0383 67.4293 24.9173C67.084 24.7962 66.565 24.6972 66.276 24.6972C65.9869 24.6972 65.4936 24.7737 65.1797 24.8671C64.8658 24.9605 64.3673 25.2348 64.0719 25.4767C63.7765 25.7186 63.3867 26.1946 63.2056 26.5346C62.9516 27.0115 62.8756 27.4102 62.8729 28.2804C62.8701 29.2793 62.9213 29.4915 63.3228 30.1366C63.6038 30.5882 64.055 31.0363 64.5095 31.3155C65.1312 31.6973 65.3928 31.7659 66.2282 31.7659C67.0639 31.7659 67.3442 31.6924 68.0728 31.2822C68.5453 31.0162 69.0248 30.7986 69.1384 30.7986C69.2519 30.7986 69.6574 31.1305 70.0394 31.5363C70.4215 31.942 70.734 32.3641 70.734 32.4743C70.734 32.5846 70.515 32.8841 70.2472 33.1401C69.9794 33.396 69.4204 33.774 69.005 33.98C68.5896 34.1861 67.9492 34.4235 67.5819 34.5076C67.2146 34.5916 66.577 34.6564 66.1651 34.6514C65.7531 34.6463 65.079 34.5594 64.6671 34.458ZM76.5799 34.4387C76.1288 34.313 75.4774 34.0459 75.1325 33.8451C74.7876 33.6443 74.2855 33.2962 74.0168 33.0716C73.7481 32.8469 73.2783 32.279 72.9728 31.8096C72.6674 31.3401 72.2986 30.5198 72.1534 29.9868C71.9578 29.269 71.9106 28.7084 71.9716 27.8248C72.0331 26.9328 72.1666 26.3928 72.5007 25.6835C72.7465 25.1618 73.2079 24.4477 73.5261 24.0966C73.8442 23.7455 74.4472 23.2399 74.8659 22.9731C75.2846 22.7062 76.0194 22.3746 76.499 22.2361C77.1275 22.0546 77.737 22.0017 78.6829 22.0467C79.8247 22.1009 80.1409 22.1807 81.1201 22.6614C81.8896 23.0392 82.4693 23.46 82.954 23.9927C83.3438 24.4211 83.8623 25.1929 84.1062 25.7077C84.4475 26.4282 84.5677 26.9298 84.6277 27.885C84.6904 28.8839 84.6435 29.3295 84.3872 30.1676C84.1929 30.8032 83.816 31.5496 83.4203 32.0827C83.0636 32.5632 82.5069 33.1372 82.1832 33.3583C81.8595 33.5793 81.2007 33.9387 80.7192 34.1569C80.0619 34.4547 79.5391 34.5677 78.6219 34.6104C77.8168 34.6479 77.1205 34.5893 76.5799 34.4387ZM79.4603 31.6279C79.7694 31.5183 80.2654 31.2445 80.5625 31.0194C80.8633 30.7915 81.2607 30.2728 81.4595 29.8487C81.6926 29.3514 81.8169 28.8145 81.8179 28.3012C81.8185 27.8688 81.7267 27.2948 81.6134 27.0254C81.5001 26.7561 81.1799 26.2783 80.9018 25.9637C80.6238 25.6491 80.0929 25.2583 79.7221 25.0953C79.2994 24.9094 78.7363 24.8018 78.2119 24.8067C77.6801 24.8117 77.1622 24.9237 76.7888 25.1148C76.466 25.28 75.9861 25.6387 75.7225 25.9119C75.4589 26.1851 75.1387 26.6576 75.011 26.9618C74.8832 27.2661 74.7793 27.8688 74.7801 28.3012C74.7813 28.8145 74.9054 29.3514 75.1385 29.8487C75.3373 30.2728 75.7347 30.7915 76.0356 31.0194C76.3326 31.2445 76.8286 31.5183 77.1378 31.6279C77.4469 31.7375 77.9695 31.8272 78.299 31.8272C78.6286 31.8272 79.1512 31.7375 79.4603 31.6279ZM117.885 34.5064C117.576 34.4341 116.908 34.1668 116.401 33.9123C115.893 33.6578 115.169 33.1335 114.79 32.7471C114.411 32.3608 113.919 31.6729 113.695 31.2185C113.471 30.7642 113.22 30.0987 113.137 29.7398C113.054 29.3809 112.984 28.7497 112.982 28.3372C112.98 27.9247 113.082 27.1881 113.209 26.7003C113.336 26.2125 113.656 25.4543 113.921 25.0154C114.185 24.5765 114.705 23.9477 115.075 23.6181C115.446 23.2884 116.188 22.8104 116.723 22.5559C117.631 22.1242 117.808 22.093 119.352 22.093C120.962 22.093 121.04 22.1085 122.137 22.6475C122.869 23.0069 123.516 23.4663 123.974 23.9535C124.364 24.3669 124.897 25.1554 125.159 25.7057C125.606 26.6417 125.636 26.8118 125.636 28.3431C125.636 29.877 125.606 30.0436 125.156 30.9881C124.864 31.6002 124.364 32.3053 123.882 32.783C123.446 33.2158 122.711 33.7475 122.249 33.9646C121.787 34.1817 121.113 34.4271 120.751 34.5099C120.39 34.5927 119.723 34.6553 119.27 34.6491C118.817 34.6429 118.193 34.5787 117.885 34.5064ZM120.849 31.488C121.264 31.2959 121.797 30.9115 122.033 30.6338C122.268 30.3561 122.552 29.9134 122.663 29.65C122.774 29.3867 122.864 28.784 122.862 28.3107C122.86 27.7919 122.748 27.2139 122.58 26.855C122.428 26.5276 122.075 26.0455 121.797 25.7837C121.519 25.5218 121.023 25.1949 120.693 25.0573C120.363 24.9196 119.754 24.8062 119.34 24.8052C118.911 24.8041 118.297 24.9303 117.917 25.0976C117.549 25.2593 117.037 25.6302 116.779 25.9217C116.521 26.2132 116.192 26.7606 116.047 27.1382C115.856 27.6348 115.806 28.0528 115.868 28.649C115.919 29.136 116.112 29.7405 116.339 30.1262C116.551 30.4853 116.935 30.9284 117.193 31.1109C117.451 31.2934 117.906 31.5292 118.204 31.6349C118.502 31.7407 119.049 31.8295 119.42 31.8323C119.822 31.8351 120.398 31.6966 120.849 31.488ZM131.739 34.4817C131.656 34.3794 130.401 31.7264 128.95 28.5862C127.498 25.446 126.311 22.7974 126.311 22.7006C126.311 22.6038 126.391 22.4442 126.49 22.346C126.599 22.2377 127.129 22.1674 127.835 22.1674C128.88 22.1674 129.022 22.2018 129.212 22.5022C129.329 22.6864 130.054 24.256 130.823 25.9903C131.592 27.7245 132.241 29.1233 132.266 29.0987C132.291 29.074 133.005 27.5212 133.852 25.6478L135.393 22.2418H136.732C138.048 22.2418 138.071 22.2478 138.114 22.6147C138.142 22.8511 137.221 25.0025 135.599 28.4903C134.192 31.5168 132.94 34.1448 132.818 34.3304C132.691 34.5228 132.444 34.6677 132.243 34.6677C132.049 34.6677 131.822 34.584 131.739 34.4817ZM87.4454 34.1882C87.2445 33.9031 87.2122 33.0891 87.2122 28.3003C87.2122 24.7541 87.2683 22.6389 87.3673 22.4553C87.5137 22.1836 87.7134 22.1675 90.9251 22.1689C94.1744 22.17 94.3616 22.186 95.0768 22.5176C95.4888 22.7085 96.0691 23.1329 96.3664 23.4605C96.6637 23.7882 97.027 24.3683 97.1736 24.7497C97.3703 25.2614 97.4185 25.6807 97.3575 26.349C97.2996 26.9832 97.1461 27.4617 96.8453 27.9449C96.6091 28.3245 96.1355 28.8372 95.7929 29.0844C95.4503 29.3315 95.1659 29.5932 95.1609 29.6661C95.1558 29.7389 95.6236 30.6643 96.2003 31.7224C96.7771 32.7806 97.249 33.7734 97.249 33.9286C97.249 34.0838 97.1186 34.2801 96.9592 34.3648C96.7998 34.4496 96.1971 34.5189 95.6198 34.5189C94.9641 34.5189 94.5247 34.4512 94.449 34.3385C94.3824 34.2393 93.8147 33.2181 93.1876 32.0691L92.0473 29.9801L91.0529 29.9361L90.0585 29.8921V32.0269C90.0585 33.489 90.0018 34.2181 89.8787 34.3403C89.7744 34.4439 89.2747 34.5189 88.6888 34.5189C87.8147 34.5189 87.6472 34.4744 87.4454 34.1882V34.1882ZM93.8065 27.2999C94.0472 27.1763 94.3134 26.9463 94.3983 26.7889C94.4831 26.6314 94.5525 26.2942 94.5525 26.0396C94.5525 25.7499 94.4186 25.4435 94.1948 25.2212C93.998 25.0257 93.6104 24.8243 93.3334 24.7736C93.0564 24.7228 92.2337 24.7017 91.5051 24.7265L90.1803 24.7717L90.1875 26.0738C90.1915 26.7899 90.1978 27.4094 90.2015 27.4503C90.2055 27.4912 90.9195 27.5247 91.7887 27.5247C92.9053 27.5247 93.4974 27.4587 93.8065 27.2999L93.8065 27.2999ZM100.507 34.3582C100.265 34.2178 100.245 33.7708 100.245 28.354C100.245 23.4315 100.279 22.4731 100.462 22.323C100.618 22.1938 101.478 22.1579 103.57 22.1931L106.462 22.2418L107.472 22.717C108.066 22.9969 108.793 23.502 109.24 23.9461C109.694 24.3966 110.189 25.1027 110.47 25.7005C110.856 26.518 110.953 26.9369 111.004 27.9893C111.05 28.9422 110.998 29.4853 110.806 30.0753C110.663 30.514 110.348 31.186 110.106 31.5685C109.864 31.951 109.373 32.5322 109.015 32.86C108.657 33.1878 108.09 33.5951 107.755 33.765C107.419 33.9349 106.758 34.174 106.285 34.2964C105.695 34.449 104.693 34.5175 103.097 34.5144C101.796 34.5121 100.654 34.4429 100.507 34.3582V34.3582ZM105.723 31.6217C106.129 31.5015 106.675 31.2096 106.935 30.973C107.195 30.7363 107.558 30.2514 107.74 29.8953C107.973 29.4425 108.074 28.9779 108.077 28.3491C108.079 27.8251 107.974 27.2021 107.825 26.855C107.684 26.5276 107.388 26.0672 107.165 25.8318C106.943 25.5964 106.492 25.2798 106.162 25.1282C105.735 24.9315 105.209 24.8516 104.327 24.8493L103.091 24.8459V28.343V31.8401H104.038C104.558 31.8401 105.317 31.7418 105.723 31.6216V31.6217ZM136.909 34.3582C136.765 34.2747 136.647 34.0887 136.647 33.9448C136.647 33.8009 137.832 31.1423 139.281 28.0369C140.73 24.9314 141.988 22.3035 142.077 22.197C142.166 22.0905 142.445 22.0236 142.696 22.0482C143.143 22.0921 143.208 22.2127 145.808 27.8223C147.268 30.9734 148.467 33.6889 148.472 33.8567C148.477 34.0245 148.4 34.2421 148.301 34.3403C148.198 34.4434 147.701 34.5189 147.126 34.5189C146.361 34.5189 146.075 34.4574 145.889 34.2534C145.756 34.1074 145.477 33.6052 145.268 33.1373L144.89 32.2867H142.592H140.293L139.931 33.0573C139.731 33.4812 139.445 33.9834 139.295 34.1734C139.061 34.4694 138.889 34.5182 138.097 34.5144C137.588 34.5121 137.053 34.4416 136.909 34.3582ZM143.689 29.7941C143.689 29.7327 143.439 29.1208 143.132 28.4343L142.573 27.186L142.007 28.4131C141.695 29.088 141.441 29.6999 141.441 29.7729C141.441 29.8459 141.946 29.9057 142.564 29.9057C143.182 29.9057 143.688 29.8555 143.689 29.7941ZM149.38 23.6555C149.38 22.8619 149.347 22.7627 149.08 22.7627C148.878 22.7627 148.781 22.6635 148.781 22.4576C148.781 22.1807 148.859 22.1567 149.63 22.1972C150.167 22.2254 150.504 22.314 150.545 22.4377C150.581 22.5454 150.468 22.6704 150.295 22.7154C150.019 22.787 149.979 22.9079 149.979 23.6729C149.979 24.4492 149.945 24.5484 149.68 24.5484C149.413 24.5484 149.38 24.4492 149.38 23.6555ZM150.728 24.4917C150.728 24.4491 150.799 24.0594 150.885 23.6257C150.971 23.1919 151.074 22.6864 151.112 22.5022C151.151 22.3181 151.248 22.1674 151.327 22.1674C151.406 22.1674 151.617 22.4514 151.795 22.7985L152.119 23.4296L152.427 22.7985C152.596 22.4514 152.816 22.1674 152.914 22.1674C153.018 22.1674 153.164 22.567 153.259 23.1097C153.35 23.6279 153.425 24.1637 153.425 24.3002C153.425 24.4492 153.305 24.5484 153.125 24.5484C152.928 24.5484 152.825 24.4492 152.825 24.2596C152.825 24.1007 152.765 23.9338 152.692 23.8886C152.618 23.8434 152.516 23.9734 152.464 24.1774C152.413 24.3815 152.267 24.5484 152.141 24.5484C152.014 24.5484 151.833 24.3308 151.737 24.0648L151.563 23.5811L151.482 24.0276C151.424 24.3457 151.304 24.4877 151.064 24.5216C150.879 24.5477 150.728 24.5343 150.728 24.4917V24.4917ZM60.0981 19.1194C60.0981 19.08 60.3737 18.4606 60.7105 17.7429L61.3229 16.4381L61.9089 17.6869C62.2312 18.3737 62.4949 18.9931 62.4949 19.0634C62.4949 19.1337 62.401 19.1912 62.2863 19.1912C62.1715 19.1912 62.0388 19.0907 61.9914 18.9679C61.935 18.822 61.7016 18.7447 61.3173 18.7447C60.9329 18.7447 60.6995 18.822 60.6431 18.9679C60.5957 19.0907 60.4537 19.1912 60.3275 19.1912C60.2013 19.1912 60.0981 19.1589 60.0981 19.1194ZM61.5373 18.0629C61.4873 17.9334 61.4442 17.7493 61.4416 17.6537C61.4387 17.558 61.3378 17.6098 61.2169 17.7687C61.0959 17.9275 60.9969 18.1117 60.9969 18.1779C60.9969 18.2441 61.139 18.2983 61.3126 18.2983C61.5388 18.2983 61.6024 18.2316 61.5373 18.0629ZM63.244 17.9262V16.6613H63.8948C64.3352 16.6613 64.6259 16.7494 64.7936 16.9335C64.93 17.0832 65.0416 17.3175 65.0416 17.4543C65.0416 17.5911 64.9068 17.837 64.742 18.0006C64.5772 18.1643 64.2738 18.2983 64.0679 18.2983C63.7516 18.2983 63.6934 18.3677 63.6934 18.7447C63.6934 19.0423 63.6185 19.1912 63.4687 19.1912C63.2865 19.1912 63.244 18.9514 63.244 17.9262ZM64.2968 17.7008C64.4622 17.6129 64.5453 17.4573 64.4957 17.3287C64.4487 17.2072 64.249 17.1078 64.0518 17.1078C63.8041 17.1078 63.6934 17.192 63.6934 17.3806C63.6934 17.5306 63.7383 17.6981 63.7932 17.7526C63.8481 17.8072 63.92 17.8518 63.9529 17.8518C63.9858 17.8518 64.1405 17.7838 64.2968 17.7008ZM65.3412 19.111C65.3412 19.0669 65.5865 18.4977 65.8863 17.8461C66.1862 17.1945 66.482 16.6613 66.5438 16.6613C66.6056 16.6613 66.8995 17.1705 67.1971 17.7929C67.4946 18.4152 67.738 18.9844 67.738 19.0578C67.738 19.1311 67.6348 19.1912 67.5086 19.1912C67.3824 19.1912 67.2404 19.0907 67.193 18.9679C67.1373 18.8239 66.9055 18.7447 66.5396 18.7447C66.1736 18.7447 65.9418 18.8239 65.8862 18.9679C65.8388 19.0907 65.6967 19.1912 65.5706 19.1912C65.4444 19.1912 65.3412 19.155 65.3412 19.111ZM66.8369 18.1867C66.8358 18.1253 66.7682 17.9746 66.6871 17.8518C66.556 17.6534 66.5232 17.6534 66.3921 17.8518C66.3109 17.9746 66.2435 18.1253 66.2423 18.1867C66.2411 18.2481 66.3748 18.2983 66.5396 18.2983C66.7044 18.2983 66.8382 18.2481 66.8369 18.1867ZM68.7049 18.8259C68.4412 18.5639 68.3372 18.2978 68.3372 17.8845C68.3372 17.4771 68.4359 17.2187 68.6743 17.002C68.8596 16.8335 69.1541 16.6527 69.3286 16.6002C69.5031 16.5478 69.8288 16.574 70.0523 16.6585C70.2759 16.7429 70.4311 16.8946 70.3972 16.9955C70.3597 17.1073 70.1284 17.1613 69.8062 17.1338C69.4658 17.1046 69.1894 17.1753 69.0317 17.332C68.8969 17.4659 68.7866 17.7046 68.7866 17.8625C68.7866 18.0203 68.9214 18.2834 69.0862 18.4471C69.251 18.6108 69.4577 18.7447 69.5455 18.7447C69.6333 18.7447 69.8284 18.6792 69.9791 18.599C70.1763 18.4942 70.3024 18.5122 70.4284 18.6631C70.567 18.829 70.5411 18.906 70.3042 19.032C70.1395 19.1195 69.795 19.1912 69.5387 19.1912C69.2436 19.1912 68.9377 19.0572 68.7049 18.8259ZM71.3332 17.9262C71.3332 16.9259 71.3783 16.6613 71.5485 16.6613C71.6818 16.6613 71.7815 16.8454 71.8106 17.145C71.8535 17.5865 71.9064 17.6326 72.4193 17.6748C72.972 17.7202 72.9811 17.7124 72.9811 17.1912C72.9811 16.7605 73.0372 16.6613 73.2807 16.6613C73.557 16.6613 73.5803 16.7605 73.5803 17.9372C73.5803 19.0718 73.5513 19.2075 73.3181 19.1636C73.1455 19.1311 73.0399 18.9496 73.009 18.6319C72.9648 18.1775 72.9279 18.1495 72.3724 18.1495C71.7983 18.1495 71.7827 18.1632 71.7827 18.6703C71.7827 19.0341 71.7149 19.1912 71.5579 19.1912C71.3758 19.1912 71.3332 18.9514 71.3332 17.9262ZM74.6289 17.9262V16.6613H75.4653C76.0673 16.6613 76.2844 16.7135 76.2402 16.8473C76.2063 16.9497 75.9311 17.0541 75.6285 17.0796C75.1998 17.1156 75.0783 17.1895 75.0783 17.4144C75.0783 17.6359 75.1828 17.703 75.5277 17.703C75.8273 17.703 75.9771 17.7774 75.9771 17.9262C75.9771 18.0751 75.8273 18.1495 75.5277 18.1495C75.1782 18.1495 75.0783 18.2156 75.0783 18.4471C75.0783 18.6951 75.1782 18.7447 75.6775 18.7447C76.1103 18.7447 76.2767 18.8067 76.2767 18.9679C76.2767 19.1393 76.0853 19.1912 75.4528 19.1912H74.6289V17.9262Z" fill="#989898"/>
</svg>
