<svg width="160" height="41" viewBox="0 0 160 41" fill="none" xmlns="http://www.w3.org/2000/svg">
<path d="M74.7683 11.9528C73.9202 11.9263 73.2311 12.5889 73.2046 13.4105C73.2046 13.437 73.2046 13.49 73.2046 13.5165V21.0433C69.5737 18.128 64.2466 18.711 61.3313 22.342C60.1386 23.8526 59.4761 25.7078 59.4761 27.6425C59.3966 32.3071 63.107 36.15 67.7715 36.2295C72.436 36.309 76.2789 32.5986 76.3584 27.9341C76.3584 27.8281 76.3584 27.7486 76.3584 27.6425V13.5165C76.3584 13.0924 76.1994 12.6949 75.9079 12.4033C75.5898 12.1118 75.1923 11.9528 74.7683 11.9528ZM72.7805 29.6833C72.2505 30.9554 71.2434 31.9625 69.9712 32.5191C68.6461 33.0756 67.1619 33.0756 65.8368 32.5191C64.5646 31.989 63.584 30.9554 63.054 29.7098C62.4974 28.4111 62.4974 26.927 63.054 25.6018C63.584 24.3297 64.5911 23.3226 65.8368 22.7925C67.1619 22.2359 68.6461 22.2359 69.9712 22.7925C71.2434 23.3491 72.2505 24.3562 72.7805 25.6283C73.3371 26.9005 73.3371 28.3846 72.7805 29.6833Z" fill="#989898"/>
<path d="M92.3927 21.6794C89.1064 18.393 83.7528 18.393 80.4664 21.6794C78.8762 23.2696 78.0016 25.4163 78.0016 27.6425C77.9221 32.3071 81.6325 36.15 86.2971 36.2295C90.9616 36.309 94.8045 32.5986 94.884 27.9341C94.884 27.8281 94.884 27.7485 94.884 27.6425C94.884 26.5294 94.672 25.4428 94.2479 24.4092C93.8239 23.3756 93.1878 22.448 92.3927 21.6794ZM91.3061 29.6568C91.0411 30.2928 90.6435 30.8494 90.1665 31.3264C89.6894 31.8035 89.1064 32.201 88.4968 32.4661C87.1716 33.0226 85.6875 33.0226 84.3623 32.4661C83.0902 31.936 82.0831 30.9024 81.553 29.6568C80.9965 28.3581 80.9965 26.8739 81.553 25.5488C82.0831 24.2767 83.0902 23.2961 84.3623 22.7395C85.6875 22.1829 87.1716 22.1829 88.4968 22.7395C89.1329 23.0045 89.6894 23.4021 90.1665 23.8791C90.6435 24.3562 91.0411 24.9392 91.3061 25.5488C91.8627 26.9004 91.8627 28.3846 91.3061 29.6568Z" fill="#989898"/>
<path d="M127.297 20.7519C127.297 20.5398 127.244 20.3278 127.165 20.1423C127.085 19.9568 126.953 19.7978 126.82 19.6387C126.688 19.5062 126.502 19.3737 126.316 19.2942C126.131 19.2147 125.919 19.1617 125.707 19.1617C125.415 19.1617 125.124 19.2412 124.859 19.4002L115.848 25.2574V13.5431C115.848 13.119 115.689 12.7215 115.397 12.4299C115.106 12.1384 114.708 11.9529 114.284 11.9529C113.41 11.9529 112.72 12.642 112.694 13.5166C112.694 13.5166 112.694 13.5166 112.694 13.5431V34.4804C112.694 34.9044 112.853 35.302 113.145 35.5935C113.436 35.9115 113.834 36.0706 114.258 36.0706C114.682 36.0706 115.079 35.9115 115.371 35.5935C115.662 35.302 115.848 34.9044 115.821 34.4804V29.0473L117.65 27.8546L124.62 35.673C124.912 35.938 125.283 36.0971 125.68 36.0706C125.892 36.0706 126.104 36.0441 126.29 35.938C126.475 35.8585 126.635 35.7525 126.794 35.5935C126.926 35.4345 127.059 35.2755 127.138 35.0899C127.218 34.9044 127.271 34.6924 127.271 34.4804C127.271 34.0828 127.112 33.6853 126.847 33.3938L120.38 26.1055L126.688 21.9975C127.112 21.7325 127.324 21.2554 127.297 20.7519Z" fill="#989898"/>
<path d="M101.139 23.879C101.616 23.402 102.199 23.0044 102.835 22.7394C103.497 22.4744 104.187 22.3153 104.902 22.3153C105.538 22.3153 106.148 22.4213 106.731 22.6334C107.314 22.8719 107.87 23.1899 108.347 23.614C108.639 23.8525 109.01 23.9585 109.381 23.9585C109.805 23.985 110.229 23.826 110.521 23.508C110.812 23.2164 110.971 22.7924 110.971 22.3683C110.971 21.9178 110.786 21.4672 110.415 21.1757C108.904 19.8241 106.943 19.082 104.902 19.135C100.238 19.135 96.4477 22.9249 96.4477 27.5894C96.4477 32.2539 100.211 36.0174 104.849 36.0439C106.89 36.0439 108.851 35.3283 110.388 34.0031C110.706 33.7116 110.892 33.2875 110.892 32.837C110.918 31.9889 110.256 31.2998 109.434 31.2733C109.408 31.2733 109.355 31.2733 109.328 31.2733C108.957 31.2733 108.613 31.3793 108.321 31.5914C107.844 32.0154 107.314 32.3334 106.731 32.572C106.148 32.784 105.512 32.89 104.902 32.89C104.187 32.89 103.497 32.7575 102.835 32.466C102.199 32.2009 101.642 31.8034 101.139 31.3263C99.0715 29.2591 99.0715 25.9197 101.112 23.8525C101.139 23.9055 101.139 23.9055 101.139 23.879Z" fill="#989898"/>
<path d="M158.597 20.2482C158.279 19.9567 157.934 19.7447 157.537 19.6121C157.086 19.4531 156.609 19.3471 156.132 19.2941C155.655 19.2411 155.178 19.2146 154.701 19.2146C153.747 19.2146 152.766 19.3736 151.865 19.7182C150.964 20.0362 150.143 20.5132 149.401 21.0963V20.7783C149.374 19.9037 148.632 19.2411 147.757 19.2676C146.936 19.2941 146.273 19.9567 146.247 20.7783V34.5333C146.273 35.4079 147.015 36.0705 147.89 36.044C148.711 36.0175 149.374 35.3549 149.401 34.5333V27.669C149.401 26.9535 149.533 26.2644 149.825 25.6018C150.09 24.9657 150.461 24.4092 150.964 23.9321C151.441 23.4551 152.024 23.0575 152.634 22.7925C153.296 22.5275 153.986 22.3684 154.701 22.3684C155.417 22.3684 156.106 22.501 156.768 22.7395C156.98 22.8455 157.192 22.8985 157.431 22.8985C157.643 22.8985 157.855 22.872 158.041 22.766C158.226 22.6865 158.385 22.5805 158.544 22.4215C158.677 22.2889 158.809 22.1034 158.889 21.9179C158.968 21.7324 159.021 21.5204 159.021 21.3083C159.048 20.9108 158.889 20.5397 158.597 20.2482Z" fill="#989898"/>
<path d="M143.967 24.4092C142.616 21.2818 139.541 19.2411 136.149 19.2146C131.485 19.2146 127.721 22.978 127.695 27.6425C127.695 32.3071 131.485 36.097 136.149 36.097C138.163 36.097 140.125 35.3814 141.662 34.0563C141.688 34.0297 141.715 34.0033 141.715 34.0033C141.847 33.8972 141.98 33.7647 142.059 33.6057C142.563 32.8636 142.377 31.883 141.662 31.3795C141.052 30.9819 140.257 31.0614 139.727 31.565C139.674 31.618 139.515 31.7505 139.515 31.777L139.488 31.8035C139.038 32.1745 138.534 32.4926 137.978 32.6781C137.395 32.8901 136.785 32.9961 136.149 32.9696C135.566 32.9696 135.009 32.8901 134.453 32.7046C133.923 32.5191 133.419 32.2806 132.969 31.936C132.518 31.618 132.121 31.2204 131.803 30.7699C131.458 30.3193 131.22 29.7893 131.061 29.2592H142.987C143.411 29.2592 143.808 29.1002 144.1 28.8087C144.418 28.5171 144.577 28.1196 144.55 27.6955C144.577 26.5559 144.365 25.4428 143.967 24.4092ZM131.061 26.1054C131.22 25.5488 131.458 25.0453 131.803 24.5947C132.121 24.1442 132.518 23.7466 132.969 23.4286C133.419 23.1105 133.923 22.8455 134.453 22.66C134.983 22.4745 135.566 22.395 136.123 22.395C136.679 22.395 137.262 22.4745 137.792 22.66C138.852 23.0045 139.78 23.6936 140.443 24.5947C140.787 25.0453 141.026 25.5753 141.211 26.1054H131.061Z" fill="#989898"/>
<path d="M153.217 33.7913C152.607 33.7913 152.13 34.2948 152.13 34.9044C152.13 35.514 152.634 35.991 153.244 35.991C153.853 35.991 154.33 35.4875 154.33 34.9044C154.33 34.2683 153.827 33.7913 153.217 33.7913ZM153.217 35.7525C152.74 35.779 152.342 35.4079 152.316 34.9309C152.289 34.4538 152.66 34.0563 153.138 34.0298C153.615 34.0033 154.012 34.3743 154.039 34.8514C154.039 34.8779 154.039 34.8779 154.039 34.9044C154.065 35.3549 153.694 35.7525 153.244 35.7525C153.244 35.7525 153.244 35.7525 153.217 35.7525Z" fill="#989898"/>
<path d="M153.482 34.9044C153.615 34.8779 153.694 34.7718 153.694 34.6393C153.694 34.5333 153.668 34.4538 153.588 34.4008C153.482 34.3478 153.349 34.3213 153.217 34.3213C153.084 34.3213 152.925 34.3213 152.793 34.3478V35.4344H153.031V35.0104H153.137C153.27 35.0104 153.349 35.0634 153.376 35.1694C153.402 35.2489 153.429 35.3549 153.456 35.4344H153.721C153.668 35.3549 153.641 35.2489 153.641 35.1694C153.668 35.0634 153.588 34.9574 153.482 34.9044ZM153.164 34.8248H153.031V34.5068C153.084 34.5068 153.137 34.5068 153.164 34.5068C153.323 34.5068 153.403 34.5863 153.403 34.6658C153.429 34.7718 153.296 34.8513 153.164 34.8248Z" fill="#989898"/>
<path d="M56.5872 15.5042C56.4282 15.3717 54.9971 14.285 51.9227 14.285C51.1276 14.285 50.306 14.3645 49.511 14.4971C48.9279 10.4421 45.562 8.48089 45.4295 8.37488L44.6079 7.89783L44.0779 8.66641C43.4153 9.70003 42.9117 10.8662 42.6202 12.0588C42.0636 14.3645 42.4082 16.5378 43.5743 18.393C42.1696 19.1881 39.8904 19.3736 39.4133 19.4001H1.77916C0.798548 19.4001 0.00345909 20.1952 0.00345909 21.1758C-0.0495468 24.4622 0.507015 27.7485 1.64664 30.8494C2.94529 34.2417 4.88 36.7595 7.37128 38.2967C10.1806 40.0194 14.7656 41 19.9337 41C22.2659 41 24.5982 40.788 26.9039 40.3639C30.1108 39.7809 33.1852 38.6677 36.021 37.0511C38.3532 35.6994 40.447 33.9767 42.2227 31.9625C45.2175 28.5966 46.9932 24.8332 48.2918 21.4938C48.4773 21.4938 48.6364 21.4938 48.8219 21.4938C52.0817 21.4938 54.096 20.1952 55.2091 19.0821C55.9512 18.393 56.5077 17.5449 56.9053 16.5908L57.1438 15.9017L56.5872 15.5042Z" fill="#989898"/>
<path d="M5.27753 18.3136H10.3131C10.5516 18.3136 10.7636 18.1281 10.7636 17.863V13.3575C10.7636 13.119 10.5781 12.907 10.3131 12.907H5.27753C5.039 12.907 4.82698 13.0925 4.82698 13.3575V17.863C4.85348 18.1281 5.039 18.3136 5.27753 18.3136Z" fill="#989898"/>
<path d="M12.2213 18.3136H17.2569C17.4954 18.3136 17.7075 18.1281 17.7075 17.863V13.3575C17.7075 13.119 17.5219 12.907 17.2569 12.907H12.2213C11.9828 12.907 11.7708 13.0925 11.7708 13.3575V17.863C11.7973 18.1281 11.9828 18.3136 12.2213 18.3136Z" fill="#989898"/>
<path d="M19.2976 18.3136H24.3332C24.5717 18.3136 24.7837 18.1281 24.7837 17.863V13.3575C24.7837 13.119 24.5982 12.907 24.3332 12.907H19.2976C19.0591 12.907 18.847 13.0925 18.847 13.3575V17.863C18.847 18.1281 19.0326 18.3136 19.2976 18.3136Z" fill="#989898"/>
<path d="M26.2679 18.3136H31.3035C31.542 18.3136 31.754 18.1281 31.754 17.863V13.3575C31.754 13.119 31.5685 12.907 31.3035 12.907H26.2679C26.0294 12.907 25.8174 13.0925 25.8174 13.3575V17.863C25.8174 18.1281 26.0294 18.3136 26.2679 18.3136Z" fill="#989898"/>
<path d="M12.2213 11.8733H17.2569C17.4954 11.8733 17.7075 11.6613 17.7075 11.4227V6.91723C17.7075 6.6787 17.5219 6.46667 17.2569 6.46667H12.2213C11.9828 6.46667 11.7708 6.6522 11.7708 6.91723V11.4227C11.7973 11.6613 11.9828 11.8733 12.2213 11.8733Z" fill="#989898"/>
<path d="M19.2976 11.8733H24.3332C24.5717 11.8733 24.7837 11.6613 24.7837 11.4227V6.91723C24.7837 6.6787 24.5982 6.46667 24.3332 6.46667H19.2976C19.0591 6.46667 18.847 6.6522 18.847 6.91723V11.4227C18.847 11.6613 19.0326 11.8733 19.2976 11.8733Z" fill="#989898"/>
<path d="M26.2679 11.8733H31.3035C31.542 11.8733 31.754 11.6613 31.754 11.4227V6.91723C31.754 6.6787 31.542 6.46667 31.3035 6.46667H26.2679C26.0294 6.46667 25.8174 6.6522 25.8174 6.91723V11.4227C25.8174 11.6613 26.0294 11.8733 26.2679 11.8733Z" fill="#989898"/>
<path d="M26.2679 5.4066H31.3035C31.542 5.4066 31.754 5.22108 31.754 4.95605V0.450553C31.754 0.212027 31.542 0 31.3035 0H26.2679C26.0294 0 25.8174 0.185524 25.8174 0.450553V4.95605C25.8174 5.19458 26.0294 5.4066 26.2679 5.4066Z" fill="#989898"/>
<path d="M33.2912 18.3136H38.3267C38.5653 18.3136 38.7773 18.1281 38.7773 17.863V13.3575C38.7773 13.119 38.5918 12.907 38.3267 12.907H33.2912C33.0527 12.907 32.8406 13.0925 32.8406 13.3575V17.863C32.8671 18.1281 33.0527 18.3136 33.2912 18.3136Z" fill="#989898"/>
</svg>
