<svg width="114" height="39" viewBox="0 0 114 39" fill="none" xmlns="http://www.w3.org/2000/svg">
<path d="M19.142 10.4266C17.4167 10.4266 15.7301 10.9383 14.2955 11.8968C12.8609 12.8553 11.7428 14.2178 11.0826 15.8118C10.4223 17.4058 10.2496 19.1598 10.5862 20.8519C10.9228 22.5441 11.7536 24.0985 12.9736 25.3185C14.1936 26.5385 15.748 27.3693 17.4401 27.7059C19.1323 28.0425 20.8863 27.8698 22.4803 27.2095C24.0743 26.5492 25.4367 25.4311 26.3953 23.9966C27.3538 22.562 27.8654 20.8754 27.8654 19.1501C27.8627 16.8373 26.9427 14.6201 25.3074 12.9847C23.672 11.3494 21.4548 10.4294 19.142 10.4266Z" fill="#989898"/>
<path d="M31.6673 11.2C33.8619 11.2 35.641 9.42092 35.641 7.22629C35.641 5.03166 33.8619 3.25256 31.6673 3.25256C29.4726 3.25256 27.6935 5.03166 27.6935 7.22629C27.6935 9.42092 29.4726 11.2 31.6673 11.2Z" fill="#989898"/>
<path d="M36.5602 11.2208L36.3936 10.8562L36.1332 11.1583C35.4817 11.8975 34.6579 12.4645 33.7349 12.8092L33.4745 12.903L33.5786 13.1634C34.982 16.5383 35.1596 20.298 34.0807 23.7902C33.0018 27.2824 30.7344 30.2867 27.6719 32.2818C24.6095 34.277 20.9452 35.1372 17.3148 34.7131C13.6844 34.289 10.3171 32.6074 7.79696 29.96C5.27685 27.3127 3.763 23.8666 3.51808 20.2198C3.27315 16.5729 4.31261 12.9554 6.45609 9.99485C8.59958 7.03429 11.7118 4.9175 15.2529 4.01176C18.7939 3.10602 22.5404 3.46847 25.8421 5.03622L26.0869 5.1534L26.1937 4.893C26.5828 3.98788 27.1892 3.19273 27.9592 2.57803L28.2717 2.31763L27.9149 2.13274C25.2047 0.724131 22.1938 -0.00759217 19.1394 5.93964e-05C15.0039 0.000653234 10.9799 1.34047 7.66953 3.81898C4.35914 6.2975 1.94042 9.78141 0.775359 13.7493C-0.3897 17.7172 -0.238441 21.9558 1.2065 25.8305C2.65144 29.7053 5.31235 33.008 8.791 35.2442C12.2696 37.4804 16.3789 38.53 20.5039 38.2358C24.6288 37.9416 28.5476 36.3195 31.6737 33.6122C34.7997 30.9049 36.965 27.2581 37.8454 23.2174C38.7258 19.1768 38.274 14.9597 36.5576 11.1973L36.5602 11.2208Z" fill="#989898"/>
<path d="M52.1687 10.8173H48.1325V27.483H52.1687V10.8173Z" fill="#989898"/>
<path d="M95.726 10.8173H91.6898V27.483H95.726V10.8173Z" fill="#989898"/>
<path d="M82.3701 10.4266C79.5317 10.4266 77.3391 12.1375 76.8366 12.6088L76.5762 10.8172H73.217V27.4829H77.2532V17.3924C77.2532 15.4237 79.9405 13.7936 81.9066 13.7936C83.8726 13.7936 85.3491 15.6737 85.3491 17.9132V27.4829H89.3853V18.3116C89.3723 13.9421 87.487 10.4266 82.3701 10.4266Z" fill="#989898"/>
<path d="M106.322 24.4545C103.288 24.4545 101.283 22.0796 101.283 19.1501C101.283 16.2206 103.288 13.8457 106.322 13.8457C108.91 13.8457 110.488 16.3534 110.488 16.3534L113.413 14.3978C112.566 13.0958 111.59 12.3145 110.256 11.5073C109.106 10.8092 107.787 10.4358 106.442 10.4266C101.392 10.4266 97.5359 14.2181 97.5124 19.1501C97.5359 24.0821 101.392 27.8735 106.442 27.8735C107.782 27.8616 109.095 27.4883 110.241 26.7929C111.574 25.9882 112.551 25.2044 113.397 23.9024L110.473 21.9468C110.473 21.9468 108.91 24.4545 106.322 24.4545Z" fill="#989898"/>
<path d="M62.6941 10.4265C61.549 10.4081 60.4118 10.6188 59.3493 11.0461C58.2867 11.4735 57.3204 12.1089 56.5069 12.9151C55.6935 13.7212 55.0494 14.6819 54.6125 15.7405C54.1756 16.7992 53.9547 17.9344 53.9629 19.0797C53.9629 23.806 57.4991 27.8734 62.754 27.8734C67.5116 27.8734 71.4098 24.2278 71.4098 19.1812C71.4098 13.4029 66.8762 10.4265 62.6941 10.4265ZM62.7436 13.8534C65.2461 13.8534 67.6157 15.8845 67.6157 19.1578C67.6157 22.3607 65.2565 24.4492 62.7332 24.4492C59.9599 24.4492 57.7856 22.2201 57.7856 19.1317C57.7856 16.1111 59.9443 13.8534 62.7566 13.8534H62.7436Z" fill="#989898"/>
</svg>
