<svg width="100" height="54" viewBox="0 0 100 54" fill="none" xmlns="http://www.w3.org/2000/svg">
<path fill-rule="evenodd" clip-rule="evenodd" d="M65.0422 39.5563C65.027 39.927 64.1532 40.4219 63.8683 40.6036C62.5518 41.4371 60.6596 41.9894 59.4266 40.7545C58.2321 39.5618 58.5683 37.3334 59.8568 36.5439C60.5045 36.1522 61.344 35.9687 62.2247 35.8944C62.9284 35.8348 64.3674 35.7086 65.027 35.7834L65.0422 39.5563ZM56.1394 28.0481L56.6555 30.0797C57.5229 29.8696 58.0449 29.5618 59.3522 29.304C60.371 29.1072 61.4793 28.9944 62.5688 29.1357C63.6678 29.2751 64.2816 29.688 64.6582 30.5022C64.849 30.9132 64.9522 31.3985 65.0059 31.9054L64.9944 33.549C64.9215 33.5852 61.7087 33.7898 61.2481 33.8472C58.0408 34.2582 54.8128 36.0013 55.3155 40.0302C55.627 42.538 56.9784 43.6788 59.511 43.9866C60.9004 44.1531 61.8178 43.9944 62.9665 43.5068C63.4518 43.3022 63.9032 43.0655 64.3119 42.8054C64.8605 42.4655 65.3403 41.9742 65.4509 41.9127L65.7894 43.6352H68.3926C68.4403 43.1077 68.4022 36.6646 68.4022 35.9476V32.0944C68.4022 30.8504 68.3087 29.8678 67.7238 28.9449C65.9614 26.1371 62.1293 26.2705 58.9623 27.0352C58.255 27.2054 56.5733 27.6678 56.1394 28.0481Z" fill="#989898"/>
<path fill-rule="evenodd" clip-rule="evenodd" d="M96.3205 39.78C96.0971 39.9085 95.8599 40.1337 95.6039 40.3213C94.87 40.8507 93.9581 41.3397 92.9911 41.4603C90.1241 41.814 89.4494 38.8571 90.3709 37.3337C91.3572 35.7052 94.4783 35.7952 96.3301 35.7874L96.3205 39.78ZM87.4351 28.0598C87.4539 28.3773 87.8457 29.853 87.9741 30.0841C88.4576 29.9864 89.5182 29.5374 90.6824 29.3098C92.37 28.9773 95.1416 28.6965 95.9535 30.5163C96.2842 31.2594 96.5232 33.3163 96.2902 33.5511C96.1448 33.658 94.7361 33.6676 94.4131 33.6887C92.5517 33.8071 91.0108 33.9488 89.3962 34.7993C87.6833 35.6956 86.2576 37.2727 86.6113 40.0534C86.9324 42.5782 88.2838 43.6832 90.8085 43.9984C92.6645 44.2296 94.1246 43.7497 95.6117 42.8172C96.2576 42.408 96.531 42.0566 96.7526 41.9112L97.0796 43.641L99.6961 43.6447V32.1062C99.6961 30.8066 99.5948 29.9007 99.0021 28.9296C97.2971 26.1355 93.3599 26.3227 90.2654 27.0452C89.5411 27.2135 87.8879 27.6741 87.4351 28.0598Z" fill="#989898"/>
<path fill-rule="evenodd" clip-rule="evenodd" d="M75.6596 43.6721H79.832C79.9697 43.6399 80.2637 42.967 80.344 42.8046C80.5008 42.4817 80.627 42.1872 80.7742 41.8643C81.055 41.2546 81.3132 40.5721 81.5577 39.9202C82.5651 37.2234 83.3793 34.2798 84.0729 31.4647C84.2431 30.773 85.0458 27.4262 85.0458 26.9464L81.9265 26.9445C81.2463 26.9367 81.5215 26.8509 81.3398 28.2381C81.1504 29.6794 80.8486 31.1207 80.5008 32.4776C80.2467 33.4679 78.4788 39.7693 78.127 40.1743L77.2362 36.7991C76.9018 35.6771 76.5958 34.5954 76.2444 33.4927L74.7059 28.5996C74.5297 28.0473 74.3614 27.4587 74.1591 26.9537L70.4742 26.9445C70.4894 27.2711 72.8958 34.7922 73.0582 35.3216C73.4976 36.7551 73.9261 38.0702 74.3596 39.4766C74.782 40.8647 75.277 42.2959 75.6596 43.6721Z" fill="#989898"/>
<path fill-rule="evenodd" clip-rule="evenodd" d="M49.1514 26.5937L49.155 41.0739C49.155 43.7666 48.2761 46.8345 45.5757 47.7175C45.7321 48.0441 46.8959 49.2391 47.206 49.6996C48.1211 49.5391 49.4647 48.7001 49.9716 48.2203C50.7454 47.49 51.2216 46.9203 51.7927 45.7505C52.9376 43.4189 52.7564 40.9478 52.7564 38.1515C52.7564 32.4363 52.7849 26.7161 52.7541 21.001C52.3339 20.9267 49.8605 20.9744 49.1514 20.9762V26.5937Z" fill="#989898"/>
<path fill-rule="evenodd" clip-rule="evenodd" d="M19.662 29.0904L18.5267 27.4427C18.1556 26.9 17.7909 26.2977 17.4446 25.6977C16.8083 24.5908 16.0455 23.1881 15.6959 21.7927C15.0556 19.2395 16.6322 17.6546 18.0258 15.9803C18.2358 15.7262 18.4826 15.4872 18.7102 15.2486C20.1666 13.7138 22.1638 11.8752 23.7175 10.3615C25.2982 8.81697 26.2501 7.10826 26.4336 4.60642C26.5331 3.30092 26.2826 0.504587 25.3597 0C25.6326 1.96101 25.6978 3.29129 24.9047 5.26193C23.9854 7.54771 22.4886 8.91652 20.7514 10.2674C19.3331 11.3743 17.0088 13.3661 15.7858 14.5202C14.9927 15.2716 13.6528 16.6151 13.0982 17.928C12.2785 19.8684 13.0909 21.1372 13.9703 22.4922C14.3886 23.1404 14.8147 23.6908 15.262 24.2697C15.784 24.9463 16.2464 25.411 16.6652 25.9404C17.1047 26.5005 17.6473 27.0165 18.129 27.5477C18.4271 27.8784 19.3657 28.8817 19.662 29.0904Z" fill="#989898"/>
<path fill-rule="evenodd" clip-rule="evenodd" d="M36.495 45.9094C37.051 46.8057 36.5023 47.1864 35.7418 47.542C32.3647 49.1222 20.9423 49.4186 17.3757 49.4704C13.7386 49.5236 10.0748 49.3805 6.56198 48.7649C5.99226 48.6653 3.49042 48.2681 3.37345 47.603C3.2973 47.1842 3.73859 46.8708 3.96794 46.7296C4.77666 46.2268 6.25602 45.8809 7.27437 45.6956C7.56886 45.6419 8.27987 45.5653 8.4996 45.4754C6.79868 45.2254 1.40694 46.1369 0.227578 47.8131C-0.516 48.8681 0.73033 49.3575 1.55969 49.6286C4.66749 50.6438 11.1354 50.8502 14.5473 50.8998C19.6464 50.9686 31.9193 50.9172 36.4143 47.8264C36.6785 47.6488 37.1927 47.2722 37.2459 46.9071C37.3111 46.4525 36.7721 46.0259 36.495 45.9094Z" fill="#989898"/>
<path fill-rule="evenodd" clip-rule="evenodd" d="M21.779 31.1676C22.3221 30.9823 23.9217 29.6709 24.3519 29.2314C24.9175 28.6447 25.8808 27.5589 25.9629 26.3034C26.0359 25.164 25.2519 23.6809 24.7703 22.9548C23.2529 20.6534 22.0409 19.3365 24.0955 16.7869C24.7818 15.9365 25.5272 15.2713 26.3969 14.5525C27.4386 13.6906 29.1455 12.5131 30.3666 11.7465L31.7584 10.8521C31.0221 10.9498 29.0707 11.7314 28.3006 12.0181C27.2666 12.408 26.074 13.0002 25.1717 13.5204C22.0717 15.3131 19.0212 18.1172 20.2694 21.9952C21.112 24.6195 23.5698 26.1906 23.3941 28.1571C23.2854 29.3612 22.129 30.5654 21.779 31.1676Z" fill="#989898"/>
<path fill-rule="evenodd" clip-rule="evenodd" d="M28.2534 43.9944C27.3016 43.6329 26.5846 43.2141 25.7323 42.7077C25.2374 42.4136 25.4287 42.4366 24.7956 42.593C22.2172 43.2297 18.0355 43.2375 15.3273 43.1549C14.6314 43.1343 12.6722 43.0728 12.2768 42.4173C12.0245 42.0044 12.3667 41.7026 12.5002 41.4673C10.7268 41.8246 8.91856 43.2985 11.3878 44.5274C14.1649 45.9054 20.0025 45.921 23.041 45.3797C23.9071 45.2251 27.8387 44.3288 28.2534 43.9944Z" fill="#989898"/>
<path fill-rule="evenodd" clip-rule="evenodd" d="M29.0747 38.2003C28.3389 38.0168 27.6816 37.5581 27.2307 37.1645C26.8389 36.8283 26.9724 36.9104 26.1298 37.0517C23.0926 37.5581 14.0559 38.4411 11.4683 37.3746C11.1316 37.237 10.7454 37.0288 10.7206 36.6333C10.694 36.165 11.0917 35.9127 11.2577 35.6567C9.17609 35.9145 7.17884 37.9196 9.96554 38.8769C13.1077 39.9531 19.8853 39.9893 23.2284 39.5691C24.3293 39.4274 28.232 38.6687 29.0747 38.2003Z" fill="#989898"/>
<path fill-rule="evenodd" clip-rule="evenodd" d="M31.164 31.3844C30.7682 31.3996 30.2388 31.5239 29.8393 31.5867C29.3769 31.6555 28.9351 31.7244 28.4728 31.7858C25.6897 32.1757 22.6049 32.489 19.8205 32.6514C17.6471 32.7794 9.4457 33.051 8.2223 31.9078C8.13239 31.3959 8.71909 31.073 9.08056 30.8757C10.4874 30.123 11.9819 29.8689 13.3677 29.4349C11.4544 29.2551 6.64203 30.6312 4.90258 31.7189C3.02184 32.8922 6.15625 33.3588 7.3301 33.523C14.1952 34.4789 20.6136 33.9666 27.4026 33.0014C28.5113 32.8445 28.7462 32.9078 29.5012 32.4299C30.0209 32.0973 30.7035 31.7491 31.164 31.3844Z" fill="#989898"/>
<path fill-rule="evenodd" clip-rule="evenodd" d="M7.43866 52.055C9.35563 52.8601 13.5299 53.3509 15.6955 53.527C18.7419 53.777 22.085 53.716 25.1299 53.5023C29.0708 53.2229 33.746 52.772 37.213 51.0096C38.0368 50.589 39.524 49.5857 39.6671 48.6206C39.4185 48.7334 39.2047 48.9587 38.9735 49.1156C32.857 53.3261 18.8776 52.9247 11.6607 52.4105L7.43866 52.055Z" fill="#989898"/>
<path fill-rule="evenodd" clip-rule="evenodd" d="M32.5492 29.7352C34.0479 29.2673 35.7529 29.5788 36.7029 30.4232C37.7272 31.337 37.7405 33.0723 36.9988 34.4164C36.0107 36.2072 33.9332 37.8067 32.2112 38.8847C31.9171 39.0723 31.6323 39.2118 31.3759 39.4008C32.4846 39.2843 35.1162 38.0953 36.1181 37.4778C37.3947 36.6888 38.8203 35.5361 39.4093 34.0434C40.2483 31.9255 39.0268 30.3067 37.7254 29.5425C36.9781 29.1044 36.074 28.843 35.0226 28.8866C34.2181 28.9191 32.9126 29.2384 32.5492 29.7352Z" fill="#989898"/>
</svg>
