<svg width="180" height="31" viewBox="0 0 180 31" fill="none" xmlns="http://www.w3.org/2000/svg">
<path d="M28.6918 6.7597C28.5121 6.1844 28.0806 5.71698 27.5412 5.42933L16.5747 0.179779C16.2871 0.0359558 15.9635 0 15.6758 0C15.3882 0 15.0646 0 14.7769 0.0719117L3.8104 5.35742C3.27106 5.60911 2.87554 6.07654 2.73172 6.68778L0.0350339 18.5173C-0.0728336 19.1285 0.0709897 19.7397 0.430548 20.2431L8.01723 29.6276C8.4487 30.0591 9.05995 30.3467 9.6712 30.3827H21.7524C22.3996 30.4546 23.0108 30.1669 23.4063 29.6276L30.993 20.2431C31.3526 19.7397 31.4964 19.1285 31.4245 18.5173L28.6918 6.7597Z" fill="#989898"/>
<path d="M27.0019 18.0498C26.966 18.0498 26.93 18.0498 26.93 18.0138C26.93 17.9779 26.8581 17.9779 26.7862 17.9779C26.6424 17.9419 26.4985 17.9419 26.3547 17.9419C26.2828 17.9419 26.2109 17.9419 26.139 17.906H26.103C25.7075 17.87 25.276 17.7981 24.8805 17.6902C24.7726 17.6543 24.6648 17.5464 24.6288 17.4385C24.6648 17.4385 24.6288 17.4385 24.6288 17.4385L24.3412 17.3666C24.485 16.3239 24.4131 15.2452 24.1974 14.2025C23.9457 13.1598 23.5142 12.153 22.9389 11.2541L23.1546 11.0384V11.0024C23.1546 10.8946 23.1906 10.7507 23.2625 10.6788C23.5861 10.3912 23.9097 10.1754 24.2693 9.95971C24.3412 9.92376 24.4131 9.8878 24.485 9.85185C24.6288 9.77993 24.7367 9.70802 24.8805 9.63611C24.9165 9.60015 24.9524 9.60015 24.9884 9.5642C25.0243 9.52824 24.9884 9.52824 24.9884 9.49229C25.312 9.2406 25.3839 8.80913 25.1322 8.48552C25.0243 8.3417 24.8086 8.23383 24.6288 8.23383C24.449 8.23383 24.2693 8.30574 24.1254 8.41361L24.0895 8.44957C24.0535 8.48552 24.0176 8.52148 23.9816 8.52148C23.8738 8.62935 23.7659 8.73721 23.694 8.84508C23.658 8.91699 23.5861 8.95295 23.5501 8.98891C23.2985 9.27655 22.9749 9.5642 22.6513 9.77993C22.5793 9.81589 22.5074 9.85185 22.4355 9.85185C22.3996 9.85185 22.3277 9.85184 22.2917 9.81589H22.2557L21.9681 9.99567C21.6804 9.70802 21.3568 9.42037 21.0692 9.13273C19.7388 8.09001 18.0849 7.4428 16.3949 7.26303L16.359 6.97538V7.01133C16.2511 6.93942 16.2152 6.83156 16.1792 6.72369C16.1792 6.32817 16.1792 5.93266 16.2511 5.50119V5.46523C16.2511 5.39332 16.2871 5.32141 16.2871 5.2495C16.323 5.10568 16.323 4.96185 16.359 4.81803V4.60229C16.3949 4.24274 16.1073 3.88318 15.7477 3.84722C15.532 3.81127 15.3163 3.91913 15.1365 4.09891C14.9927 4.24274 14.9208 4.42251 14.9208 4.60229V4.78207C14.9208 4.9259 14.9567 5.06972 14.9927 5.21354C15.0286 5.28545 15.0286 5.35737 15.0286 5.42928V5.46523C15.1005 5.86075 15.1005 6.25626 15.1005 6.68773C15.0646 6.7956 15.0286 6.90347 14.9208 6.97538V7.04729L14.8848 7.33494C14.4893 7.37089 14.0938 7.4428 13.6623 7.51472C11.9724 7.87427 10.4263 8.77317 9.23973 10.0316L9.02399 9.8878H8.98804C8.95208 9.8878 8.91613 9.92376 8.84422 9.92376C8.7723 9.92376 8.70039 9.8878 8.62848 9.85185C8.30488 9.60015 7.98128 9.31251 7.72958 9.02486C7.69363 8.95295 7.62172 8.91699 7.58576 8.88104C7.47789 8.77317 7.40598 8.6653 7.29811 8.55744C7.26216 8.52148 7.2262 8.52148 7.19025 8.48552C7.15429 8.44957 7.15429 8.44957 7.15429 8.44957C7.01047 8.3417 6.83069 8.26979 6.65091 8.26979C6.43517 8.26979 6.2554 8.3417 6.14753 8.52148C5.93179 8.84508 6.00371 9.27655 6.29135 9.52824C6.32731 9.52824 6.32731 9.5642 6.32731 9.5642C6.32731 9.5642 6.39922 9.63611 6.43517 9.63611C6.54304 9.70802 6.68687 9.77993 6.83069 9.85185C6.9026 9.8878 6.97451 9.92376 7.04642 9.95971C7.40598 10.1754 7.76554 10.3912 8.05319 10.6788C8.1251 10.7507 8.19701 10.8946 8.16105 11.0024V10.9665L8.37679 11.1822C8.34083 11.2541 8.30488 11.2901 8.26892 11.362C7.15429 13.1238 6.68687 15.2093 7.01047 17.2587L6.72282 17.3307C6.72282 17.3666 6.68687 17.3666 6.68687 17.3666C6.65091 17.4745 6.54304 17.5464 6.43517 17.6183C6.03966 17.7262 5.64415 17.7981 5.21268 17.834C5.14076 17.834 5.06885 17.834 4.99694 17.87C4.85312 17.87 4.7093 17.906 4.56547 17.906C4.52952 17.906 4.49356 17.9419 4.42165 17.9419C4.38569 17.9419 4.38569 17.9419 4.34974 17.9779C3.95422 18.0498 3.70253 18.4093 3.77444 18.8048C3.84636 19.1284 4.16996 19.3442 4.49356 19.3082C4.56547 19.3082 4.60143 19.3082 4.67334 19.2723C4.7093 19.2723 4.7093 19.2723 4.7093 19.2363C4.7093 19.2004 4.81716 19.2363 4.85312 19.2363C4.99694 19.2004 5.14076 19.1284 5.24863 19.0925C5.32054 19.0565 5.39246 19.0206 5.46437 19.0206H5.50032C5.89584 18.8768 6.2554 18.7689 6.68687 18.697H6.72282C6.83069 18.697 6.93856 18.7329 7.01047 18.8048C7.04642 18.8048 7.04642 18.8408 7.04642 18.8408L7.37003 18.8048C7.90936 20.4588 8.91613 21.933 10.3184 23.0117C10.642 23.2634 10.9297 23.4791 11.2892 23.6589L11.1094 23.9106C11.1094 23.9465 11.1454 23.9465 11.1454 23.9465C11.2173 24.0544 11.2173 24.1982 11.1813 24.3061C11.0375 24.6656 10.8218 25.0252 10.6061 25.3488V25.3848C10.5701 25.4567 10.5341 25.4926 10.4622 25.5645C10.3903 25.6365 10.3184 25.7803 10.2105 25.9241C10.1746 25.9601 10.1746 25.996 10.1386 26.032C10.1386 26.032 10.1386 26.0679 10.1027 26.0679C9.92289 26.4275 10.0667 26.859 10.3903 27.0387C10.4622 27.0747 10.5701 27.1106 10.642 27.1106C10.9297 27.1106 11.1813 26.9309 11.3252 26.6792C11.3252 26.6792 11.3252 26.6432 11.3611 26.6432C11.3611 26.6073 11.3971 26.5713 11.433 26.5354C11.469 26.3915 11.5409 26.2837 11.5769 26.1398L11.6488 25.9241C11.7566 25.5286 11.9364 25.169 12.1162 24.8095C12.1881 24.7016 12.296 24.6297 12.4038 24.5937C12.4398 24.5937 12.4398 24.5937 12.4398 24.5578L12.5836 24.2701C13.5904 24.6656 14.6331 24.8454 15.7118 24.8454C16.359 24.8454 17.0062 24.7735 17.6534 24.5937C18.0489 24.5218 18.4444 24.378 18.804 24.2701L18.9478 24.5218C18.9838 24.5218 18.9838 24.5218 18.9838 24.5578C19.0916 24.5937 19.1995 24.6656 19.2714 24.7735C19.4512 25.1331 19.631 25.4926 19.7388 25.8881V25.9241L19.8107 26.1398C19.8467 26.2837 19.8827 26.4275 19.9546 26.5354C19.9905 26.5713 19.9905 26.6073 20.0265 26.6432C20.0265 26.6432 20.0265 26.6792 20.0624 26.6792C20.2063 26.9309 20.4579 27.1106 20.7456 27.1106C20.8535 27.1106 20.9254 27.0747 21.0332 27.0387C21.1771 26.9668 21.3209 26.823 21.3568 26.6432C21.3928 26.4634 21.3928 26.2837 21.3209 26.1039C21.3209 26.0679 21.2849 26.0679 21.2849 26.0679C21.2849 26.032 21.249 25.996 21.213 25.9601C21.1411 25.8162 21.0692 25.7084 20.9613 25.6005C20.9254 25.5286 20.8894 25.4926 20.8175 25.4207V25.3488C20.5658 25.0252 20.386 24.6656 20.2422 24.3061C20.2063 24.1982 20.2063 24.0544 20.2782 23.9465C20.2782 23.9106 20.3141 23.9106 20.3141 23.9106L20.2063 23.6229C22.04 22.5083 23.4423 20.7824 24.0895 18.7329L24.3771 18.7689C24.4131 18.7689 24.4131 18.7329 24.4131 18.7329C24.485 18.661 24.5929 18.6251 24.7007 18.6251H24.7367C25.1322 18.697 25.5277 18.8048 25.8873 18.9487H25.9232C25.9951 18.9846 26.0671 19.0206 26.139 19.0206C26.2828 19.0925 26.3907 19.1644 26.5345 19.2004C26.5704 19.2004 26.6064 19.2363 26.6783 19.2363C26.7143 19.2363 26.7143 19.2363 26.7502 19.2723C26.8221 19.3082 26.8581 19.3082 26.93 19.3082C27.2536 19.3082 27.5412 19.0925 27.6491 18.8048C27.6132 18.4093 27.3255 18.1217 27.0019 18.0498ZM16.6107 16.9351L15.6399 17.4026L14.6691 16.9351L14.4174 15.8924L15.1005 15.0295H16.1792L16.8624 15.8924L16.6107 16.9351ZM22.4715 14.598C22.6513 15.3531 22.6872 16.1082 22.6153 16.8632L19.1995 15.8924C18.8759 15.8205 18.6961 15.4969 18.768 15.1733C18.804 15.0654 18.8399 14.9935 18.9118 14.9216L21.6085 12.4766C22.004 13.1238 22.2917 13.8429 22.4715 14.598ZM20.5299 11.1463L17.5815 13.2317C17.3298 13.3755 16.9702 13.3396 16.7905 13.0879C16.7185 13.016 16.6826 12.944 16.6826 12.8362L16.4669 9.20464C18.0489 9.38442 19.4512 10.0676 20.5299 11.1463ZM14.0219 9.31251L14.741 9.16868L14.5612 12.7643C14.5612 13.0879 14.2735 13.3396 13.9499 13.3396C13.8421 13.3396 13.7702 13.3036 13.6623 13.2676L10.678 11.1463C11.6128 10.2474 12.7634 9.60015 14.0219 9.31251ZM9.63524 12.4766L12.296 14.8497C12.5477 15.0654 12.5836 15.425 12.3679 15.6767C12.296 15.7846 12.2241 15.8205 12.0802 15.8565L8.59252 16.8632C8.48466 15.3531 8.84422 13.807 9.63524 12.4766ZM9.02399 18.5532L12.5836 17.9419C12.8713 17.9419 13.1589 18.1217 13.1949 18.4093C13.2308 18.5172 13.2308 18.661 13.1589 18.7689L11.7926 22.0768C10.5341 21.2498 9.52738 19.9914 9.02399 18.5532ZM17.186 23.0117C16.6826 23.1195 16.1792 23.1915 15.6399 23.1915C14.8848 23.1915 14.0938 23.0476 13.3747 22.8319L15.1365 19.6318C15.3163 19.4161 15.6039 19.3442 15.8556 19.488C15.9635 19.5599 16.0354 19.6318 16.1432 19.7397L17.8691 22.8679C17.6534 22.9038 17.4377 22.9398 17.186 23.0117ZM21.5726 19.8835C21.0332 20.7465 20.2782 21.5015 19.4152 22.0409L18.013 18.661C17.941 18.3734 18.0849 18.0857 18.3366 17.9779C18.4444 17.9419 18.5523 17.906 18.6602 17.906L22.2557 18.5172C22.076 19.0206 21.8602 19.488 21.5726 19.8835Z" fill="white"/>
<path d="M174.205 22.4724C174.708 22.5083 175.248 22.4364 175.715 22.2567C176.003 22.1128 176.183 21.7892 176.147 21.4656C176.111 21.1061 175.895 20.7825 175.571 20.6746C175.032 20.351 174.421 20.0633 173.81 19.8836C173.198 19.6678 172.659 19.4161 172.156 19.1645C171.688 18.9487 171.293 18.6611 170.897 18.3015C170.538 17.942 170.286 17.5464 170.106 17.079C169.89 16.5397 169.818 15.9644 169.818 15.3891C169.783 14.2025 170.322 13.052 171.257 12.3328C172.228 11.5778 173.522 11.2182 175.176 11.2182C175.967 11.2182 176.794 11.2901 177.585 11.4699C178.196 11.5778 178.807 11.7216 179.419 11.9373L178.736 14.9936C178.232 14.8138 177.765 14.7059 177.261 14.5621C176.686 14.4183 176.075 14.3823 175.499 14.3823C174.277 14.3823 173.666 14.7059 173.666 15.3891C173.666 15.5329 173.702 15.6767 173.738 15.8206C173.81 15.9644 173.917 16.0723 174.061 16.1801C174.205 16.288 174.421 16.3959 174.673 16.5397C174.924 16.6835 175.284 16.8273 175.715 16.9711C176.434 17.2228 177.153 17.5464 177.801 17.906C178.304 18.1577 178.736 18.4813 179.095 18.9128C179.419 19.2364 179.634 19.6319 179.778 20.0993C179.922 20.6027 179.994 21.1061 179.994 21.6094C180.066 22.8319 179.491 24.0185 178.448 24.7017C177.441 25.3848 176.003 25.7444 174.133 25.7444C173.09 25.7803 172.084 25.6725 171.077 25.4208C170.502 25.2769 169.962 25.0972 169.423 24.9174L170.07 21.7533C170.717 22.005 171.401 22.2207 172.084 22.3645C172.803 22.4005 173.486 22.4724 174.205 22.4724ZM154.393 18.5172C154.357 17.4386 154.573 16.3599 154.933 15.3531C155.256 14.4902 155.76 13.7351 156.407 13.052C157.018 12.4407 157.701 11.9733 158.492 11.6856C159.283 11.362 160.11 11.2182 160.937 11.2182C162.879 11.2182 164.425 11.8295 165.54 13.016C166.654 14.2025 167.23 15.9644 167.23 18.2656C167.23 18.4813 167.23 18.733 167.194 19.0206C167.194 19.3083 167.158 19.524 167.158 19.7397H158.385C158.456 20.4948 158.852 21.2139 159.499 21.6454C160.29 22.1488 161.225 22.4005 162.16 22.3645C162.843 22.3645 163.562 22.2926 164.245 22.1847C164.821 22.0769 165.396 21.8971 165.935 21.6454L166.475 24.8095C166.223 24.9533 165.935 25.0253 165.648 25.1331C165.252 25.241 164.857 25.3489 164.461 25.3848C164.03 25.4567 163.598 25.5286 163.095 25.6005C162.627 25.6365 162.124 25.6725 161.621 25.6725C160.506 25.7084 159.427 25.5286 158.385 25.1331C157.522 24.8095 156.767 24.3061 156.119 23.6589C155.508 23.0117 155.077 22.2207 154.789 21.3937C154.537 20.4229 154.393 19.4521 154.393 18.5172ZM163.49 17.0431C163.49 16.7195 163.418 16.3959 163.31 16.0723C163.239 15.7487 163.059 15.497 162.879 15.2453C162.663 14.9936 162.412 14.7778 162.124 14.634C161.764 14.4542 161.405 14.3823 161.009 14.3823C160.614 14.3823 160.254 14.4542 159.895 14.634C159.607 14.7778 159.319 14.9576 159.104 15.2093C158.888 15.461 158.708 15.7487 158.6 16.0723C158.492 16.3959 158.42 16.7195 158.385 17.0431H163.49ZM143.858 8.12601L147.742 7.51477V11.5418H152.416V14.7778H147.742V19.5959C147.706 20.2791 147.849 20.9622 148.173 21.5375C148.461 22.005 149.036 22.2567 149.935 22.2567C150.366 22.2567 150.798 22.2207 151.193 22.1488C151.625 22.0769 152.02 21.969 152.416 21.8252L152.955 24.8455C152.452 25.0612 151.912 25.205 151.373 25.3489C150.69 25.4927 149.971 25.5646 149.252 25.5646C148.353 25.6005 147.454 25.4567 146.627 25.1331C145.98 24.8814 145.404 24.45 144.973 23.9466C144.542 23.4072 144.254 22.76 144.074 22.0769C143.894 21.2858 143.822 20.4589 143.858 19.6678V8.12601ZM128.146 18.5172C128.11 17.4386 128.325 16.3599 128.685 15.3531C129.009 14.4902 129.512 13.7351 130.159 13.052C130.77 12.4407 131.454 11.9733 132.245 11.6856C133.036 11.362 133.863 11.2182 134.69 11.2182C136.631 11.2182 138.177 11.8295 139.292 13.016C140.407 14.2025 140.982 15.9644 140.982 18.2656C140.982 18.4813 140.982 18.733 140.946 19.0206C140.91 19.3083 140.91 19.524 140.91 19.7397H132.101C132.173 20.4948 132.568 21.2139 133.215 21.6454C134.006 22.1488 134.941 22.4005 135.876 22.3645C136.559 22.3645 137.278 22.2926 137.962 22.1847C138.537 22.0769 139.112 21.8971 139.688 21.6454L140.227 24.8095C139.975 24.9533 139.688 25.0253 139.4 25.1331C139.004 25.241 138.609 25.3489 138.213 25.3848C137.782 25.4567 137.35 25.5286 136.847 25.6005C136.38 25.6365 135.876 25.6725 135.373 25.6725C134.258 25.7084 133.179 25.5286 132.137 25.1331C131.274 24.8095 130.519 24.3061 129.872 23.6589C129.26 23.0117 128.829 22.2207 128.541 21.3937C128.254 20.4229 128.11 19.4521 128.146 18.5172ZM137.243 17.0431C137.243 16.7195 137.171 16.3959 137.063 16.0723C136.991 15.7487 136.811 15.497 136.631 15.2453C136.416 14.9936 136.164 14.7778 135.876 14.634C135.517 14.4542 135.157 14.3823 134.762 14.3823C134.366 14.3823 134.006 14.4542 133.647 14.634C133.359 14.7778 133.108 14.9576 132.892 15.2093C132.676 15.461 132.496 15.7487 132.388 16.0723C132.281 16.3959 132.209 16.7195 132.173 17.0431H137.243ZM113.404 12.0092C114.231 11.7935 115.094 11.6137 115.957 11.4699C117.035 11.2901 118.15 11.2182 119.229 11.2182C120.199 11.1823 121.17 11.362 122.105 11.6856C122.824 11.9373 123.471 12.3688 123.939 12.9441C124.406 13.5194 124.73 14.2025 124.91 14.9217C125.125 15.7487 125.197 16.6116 125.197 17.4745V25.205H121.35V17.9779C121.35 16.7195 121.17 15.8565 120.847 15.3172C120.523 14.8138 119.912 14.5262 119.013 14.5262C118.725 14.5262 118.438 14.5262 118.114 14.5621C117.79 14.5621 117.539 14.5981 117.287 14.634V25.205H113.404V12.0092ZM110.671 14.9936C110.312 14.9217 109.916 14.8138 109.449 14.7419C108.945 14.634 108.442 14.5981 107.938 14.5981C107.651 14.5981 107.363 14.634 107.04 14.67C106.788 14.7059 106.536 14.7419 106.285 14.8138V25.2769H102.401V12.2609C103.192 11.9733 104.019 11.7576 104.846 11.5778C105.889 11.3261 106.968 11.2182 108.01 11.2542C108.262 11.2542 108.514 11.2901 108.765 11.2901C109.053 11.2901 109.341 11.3261 109.664 11.398C109.952 11.434 110.24 11.4699 110.563 11.5418C110.815 11.5778 111.067 11.6497 111.318 11.7576L110.671 14.9936ZM86.5448 18.5172C86.5088 17.4386 86.7246 16.3599 87.0841 15.3531C87.4077 14.4902 87.9111 13.7351 88.5583 13.052C89.1695 12.4407 89.8527 11.9733 90.6437 11.6856C91.4348 11.362 92.2617 11.2182 93.0887 11.2182C95.0303 11.2182 96.5765 11.8295 97.6911 13.016C98.8057 14.2025 99.381 15.9644 99.381 18.2296C99.381 18.4453 99.381 18.697 99.3451 18.9847C99.3091 19.2723 99.3091 19.4881 99.3091 19.7038H90.4999C90.5718 20.4589 90.9673 21.178 91.6145 21.6094C92.4056 22.1128 93.3404 22.3645 94.2753 22.3286C94.9584 22.3286 95.6776 22.2567 96.3607 22.1488C96.936 22.0409 97.5113 21.8611 98.0506 21.6454L98.59 24.8095C98.3383 24.9533 98.0506 25.0253 97.763 25.1331C97.3675 25.241 96.972 25.3489 96.5765 25.3848C96.145 25.4567 95.7135 25.5286 95.2101 25.6005C94.7427 25.6365 94.2393 25.6725 93.7359 25.6725C92.6213 25.7084 91.5426 25.5286 90.4999 25.1331C89.637 24.8095 88.8819 24.3061 88.2347 23.6589C87.6235 23.0117 87.192 22.2207 86.9043 21.3937C86.6886 20.4229 86.5448 19.4881 86.5448 18.5172ZM95.6776 17.0431C95.6776 16.7195 95.6056 16.3959 95.4978 16.0723C95.4259 15.7487 95.2461 15.497 95.0663 15.2453C94.8506 14.9936 94.5989 14.7778 94.3112 14.634C93.9517 14.4542 93.5921 14.3823 93.1966 14.3823C92.8011 14.3823 92.4415 14.4542 92.082 14.634C91.7943 14.7778 91.5067 14.9576 91.2909 15.2093C91.0752 15.461 90.8954 15.7487 90.7876 16.0723C90.6797 16.3959 90.6078 16.7195 90.5718 17.0431H95.6776ZM80.2525 18.3015C80.2525 15.7846 79.3176 14.5621 77.4839 14.5621C77.0884 14.5621 76.6929 14.5981 76.2974 14.7059C75.9738 14.7778 75.6502 14.9217 75.3625 15.1014V22.1488C75.5423 22.1847 75.794 22.2207 76.0816 22.2567C76.3693 22.2926 76.6929 22.2926 77.0524 22.2926C77.9873 22.3645 78.8862 21.969 79.4615 21.2139C80.0008 20.351 80.2885 19.3442 80.2525 18.3015ZM84.2076 18.4453C84.2076 19.4521 84.0638 20.4589 83.7043 21.4297C83.4166 22.2926 82.9492 23.0477 82.3379 23.6949C81.6907 24.3421 80.9357 24.8455 80.1087 25.1691C79.1379 25.5286 78.1311 25.6725 77.0884 25.6725C76.621 25.6725 76.1176 25.6365 75.6142 25.6005C75.1108 25.5646 74.6074 25.4927 74.1041 25.4567C73.6366 25.3848 73.1692 25.3129 72.7018 25.205C72.2344 25.1331 71.8388 25.0253 71.5152 24.8814V5.64506L75.3985 5.03381V11.8654C75.8299 11.6856 76.2974 11.5418 76.7648 11.434C77.2682 11.3261 77.7715 11.2901 78.2749 11.2901C79.1738 11.2901 80.0368 11.434 80.8638 11.8295C81.5829 12.1531 82.2301 12.6564 82.7335 13.2677C83.2728 13.9509 83.6683 14.7059 83.884 15.5329C84.0998 16.4318 84.2076 17.4386 84.2076 18.4453ZM67.8118 24.7736C66.9848 24.9893 66.1219 25.1691 65.2589 25.2769C64.1802 25.4567 63.0656 25.5286 61.9869 25.5286C60.9802 25.5646 60.0094 25.3848 59.0745 25.0612C58.3554 24.7736 57.7442 24.3421 57.2408 23.7668C56.7733 23.1556 56.4497 22.4724 56.27 21.7173C56.0542 20.8903 55.9823 19.9914 55.9823 19.1285V11.5418H59.8655V18.697C59.8655 19.9555 60.0453 20.8544 60.3689 21.3937C60.6925 21.9331 61.3038 22.2207 62.2027 22.2207C62.4903 22.2207 62.778 22.2207 63.1016 22.1847C63.4252 22.1488 63.6769 22.1488 63.9286 22.0769V11.5418H67.8118V24.7736ZM45.1596 16.5037C45.5551 16.0723 45.9147 15.6408 46.3462 15.2093C46.7417 14.7419 47.1372 14.3104 47.5327 13.8789C47.9282 13.4115 48.2878 13.016 48.6114 12.6205C48.935 12.225 49.2586 11.8654 49.5103 11.5778H54.1126C53.1778 12.6205 52.2789 13.6632 51.4159 14.634C50.517 15.6048 49.5822 16.6116 48.5395 17.6184C49.1148 18.1577 49.6541 18.697 50.1575 19.3083C50.6968 19.9555 51.2361 20.6027 51.7755 21.3218C52.2789 22.005 52.7822 22.7241 53.2137 23.4072C53.6452 24.0904 54.0047 24.7376 54.2924 25.3129H49.8339C49.5462 24.8455 49.2226 24.378 48.8631 23.8387C48.5035 23.2994 48.108 22.76 47.7484 22.1847C47.3529 21.6454 46.9214 21.1061 46.454 20.6027C46.0585 20.1353 45.627 19.7038 45.1596 19.3442V25.3489H41.2764V5.64506L45.1596 5.03381V16.5037Z" fill="#989898"/>
</svg>
