<svg width="142" height="35" viewBox="0 0 142 35" fill="none" xmlns="http://www.w3.org/2000/svg">
<path d="M53.2635 17.4553C53.2635 13.1227 52.0281 10.8984 49.5573 10.7766C48.5742 10.7302 47.6143 10.8868 46.6805 11.2493C45.9352 11.5161 45.4335 11.78 45.1696 12.0468V22.3882C46.7501 23.38 48.1537 23.8411 49.3775 23.7686C51.9672 23.5975 53.2635 21.495 53.2635 17.4553ZM56.3114 17.6351C56.3114 19.8362 55.7952 21.6632 54.757 23.1161C53.5999 24.7604 51.9962 25.6072 49.9459 25.6536C48.4002 25.7029 46.8081 25.2186 45.1696 24.2036V33.6025L42.519 32.6571V11.7945C42.954 11.2609 43.5137 10.8027 44.1923 10.4141C45.7699 9.4948 47.6868 9.0221 49.943 8.9989L49.9807 9.0366C52.0426 9.0105 53.6318 9.8573 54.7483 11.5741C55.7894 13.1488 56.3114 15.1672 56.3114 17.6351Z" fill="#989898"/>
<path d="M72.5107 23.8034C72.5107 26.7556 72.2149 28.8001 71.6233 29.9369C71.0288 31.0737 69.8978 31.9814 68.2274 32.6571C66.8731 33.1907 65.4086 33.4807 63.8368 33.53L63.3989 31.8596C64.9968 31.6421 66.122 31.4246 66.7745 31.2071C68.0592 30.7721 68.9408 30.1051 69.4251 29.2119C69.8137 28.484 70.0051 27.0949 70.0051 25.0388V24.3486C68.1926 25.1722 66.2931 25.5811 64.3066 25.5811C63.0016 25.5811 61.8503 25.1722 60.8585 24.3486C59.7449 23.4525 59.1881 22.3157 59.1881 20.9382V9.9066L61.8387 8.9989V20.103C61.8387 21.2891 62.2215 22.2026 62.9871 22.8435C63.7527 23.4844 64.7445 23.7918 65.9596 23.7686C67.1747 23.7425 68.4768 23.2727 69.8601 22.3534V9.3991H72.5107V23.8034Z" fill="#989898"/>
<path d="M82.8579 25.5085C82.5418 25.5346 82.2518 25.5462 81.985 25.5462C80.4857 25.5462 79.317 25.1895 78.4818 24.4732C77.6495 23.7569 77.2319 22.768 77.2319 21.5065V11.0665H75.4165V9.399H77.2319V4.9707L79.8796 4.0282V9.399H82.8579V11.0665H79.8796V21.434C79.8796 22.4287 80.1464 23.1334 80.68 23.5452C81.1382 23.8845 81.8661 24.0788 82.8579 24.1281V25.5085Z" fill="#989898"/>
<path d="M98.9066 25.2909H96.256V15.0597C96.256 14.0186 96.0124 13.1225 95.5281 12.3743C94.9684 11.5275 94.1912 11.1041 93.1936 11.1041C91.9785 11.1041 90.4589 11.745 88.6348 13.0268V25.2909H85.9842V0.835199L88.6348 0V11.1389C90.3284 9.90639 92.1786 9.28869 94.1883 9.28869C95.5919 9.28869 96.7287 9.76139 97.5987 10.7039C98.4716 11.6464 98.9066 12.8209 98.9066 14.2245V25.2909Z" fill="#989898"/>
<path d="M112.995 17.0377C112.995 15.3731 112.679 13.9985 112.049 12.911C111.301 11.5857 110.138 10.8868 108.566 10.8143C105.661 10.9825 104.211 13.0647 104.211 17.0551C104.211 18.885 104.512 20.4133 105.121 21.64C105.898 23.2031 107.064 23.9745 108.619 23.9484C111.536 23.9252 112.995 21.6226 112.995 17.0377ZM115.898 17.0551C115.898 19.4244 115.292 21.3964 114.082 22.9711C112.751 24.7343 110.913 25.6188 108.566 25.6188C106.241 25.6188 104.428 24.7343 103.12 22.9711C101.934 21.3964 101.343 19.4244 101.343 17.0551C101.343 14.8279 101.983 12.9545 103.265 11.4291C104.62 9.8109 106.4 8.9989 108.601 8.9989C110.802 8.9989 112.595 9.8109 113.975 11.4291C115.257 12.9545 115.898 14.8279 115.898 17.0551Z" fill="#989898"/>
<path d="M131.094 25.2911H128.443V14.4799C128.443 13.2938 128.086 12.3687 127.373 11.7017C126.66 11.0376 125.708 10.7157 124.522 10.7418C123.264 10.765 122.066 11.1768 120.929 11.9743V25.2911H118.279V11.6466C119.804 10.5359 121.208 9.8109 122.489 9.4716C123.699 9.1555 124.766 8.9989 125.685 8.9989C126.314 8.9989 126.906 9.0598 127.463 9.1816C128.504 9.4223 129.351 9.8689 130.003 10.5243C130.731 11.2493 131.094 12.1193 131.094 13.1372V25.2911Z" fill="#989898"/>
<path d="M16.3397 0.933135C14.9759 0.939472 13.6736 1.05578 12.5277 1.25855C9.15187 1.85494 8.53896 3.10323 8.53896 5.4053V8.44563H16.5163V9.45907H8.53896H5.54512C3.22668 9.45907 1.19658 10.8526 0.561588 13.5035C-0.170864 16.5422 -0.203352 18.4383 0.561588 21.6111C1.12865 23.9728 2.48287 25.6556 4.80131 25.6556H7.54412V22.0109C7.54412 19.3778 9.8223 17.0552 12.5277 17.0552H20.4957C22.7138 17.0552 24.4844 15.229 24.4844 13.0015V5.4053C24.4844 3.24339 22.6606 1.61937 20.4957 1.25855C19.1253 1.03043 17.7034 0.926798 16.3397 0.933135ZM12.0256 3.37841C12.8496 3.37841 13.5225 4.06232 13.5225 4.90323C13.5225 5.74116 12.8496 6.41874 12.0256 6.41874C11.1986 6.41874 10.5287 5.74116 10.5287 4.90323C10.5287 4.06232 11.1986 3.37841 12.0256 3.37841Z" fill="#989898"/>
<path d="M25.4793 9.45911V13.0015C25.4793 15.7479 23.1509 18.0594 20.4958 18.0594H12.5277C10.3451 18.0594 8.53903 19.9274 8.53903 22.1132V29.7094C8.53903 31.8713 10.419 33.1429 12.5277 33.7631C15.0529 34.5056 17.4744 34.6398 20.4958 33.7631C22.5041 33.1817 24.4845 32.0114 24.4845 29.7094V26.669H16.5164V25.6556H24.4845H28.4732C30.7916 25.6556 31.6556 24.0384 32.4619 21.6111C33.2947 19.1122 33.2593 16.7092 32.4619 13.5036C31.8889 11.1956 30.7946 9.45911 28.4732 9.45911H25.4793ZM20.9979 28.6959C21.8248 28.6959 22.4948 29.3735 22.4948 30.2114C22.4948 31.0523 21.8248 31.7363 20.9979 31.7363C20.1739 31.7363 19.501 31.0523 19.501 30.2114C19.501 29.3735 20.1739 28.6959 20.9979 28.6959Z" fill="#989898"/>
<path d="M136.255 7.03571H136.72V4.12109H137.821V3.77368H135.154V4.12109H136.255V7.03571ZM138.233 7.03571H138.63V4.37375L139.492 7.03538H139.934L140.832 4.38277V7.03571H141.265V3.77368H140.692L139.711 6.56829L138.874 3.77368H138.233V7.03571Z" fill="#989898"/>
</svg>
