<svg width="143" height="60" viewBox="0 0 143 60" fill="none" xmlns="http://www.w3.org/2000/svg">
<g clip-path="url(#clip0)">
<path d="M52.5155 20.7215C51.8969 20.5359 51.2784 20.2885 50.5979 20.1029C50.7217 19.6699 50.7835 19.2369 50.9072 18.804C52.3299 11.8143 51.4021 6.12354 48.1856 4.26787C45.0928 2.47406 40.0206 4.32972 34.9485 8.78333C34.4536 9.21632 33.9588 9.64931 33.4639 10.1442C33.1546 9.83488 32.8454 9.5256 32.4742 9.21632C27.1546 4.45344 21.7732 2.47406 18.5567 4.32973C15.4639 6.12354 14.5361 11.4431 15.8351 18.0617C15.9588 18.7421 16.0825 19.3607 16.268 20.0411C15.5258 20.2266 14.7835 20.4741 14.1031 20.7215C7.85567 22.8864 3.83505 26.3503 3.83505 29.8761C3.83505 33.5256 8.16495 37.2369 14.6598 39.4637C15.2165 39.6493 15.7113 39.8349 16.268 39.9586C16.0825 40.639 15.9588 41.3813 15.7732 42.0617C14.5361 48.6184 15.5258 53.7524 18.5567 55.5462C21.7113 57.4019 27.0928 55.4844 32.2887 50.9689C32.7217 50.5978 33.0928 50.2266 33.5258 49.8555C34.0206 50.3503 34.5773 50.8452 35.134 51.34C40.1443 55.6699 45.1546 57.4019 48.2474 55.6699C51.4021 53.8143 52.4536 48.2473 51.0928 41.505C50.9691 41.0101 50.8454 40.4534 50.7217 39.8967L51.8351 39.5256C58.6392 37.2988 63.0309 33.6493 63.0309 29.938C63.0309 26.4122 58.8866 22.9483 52.5155 20.7215Z" fill="#989898"/>
<path d="M51.0309 37.1752C50.7216 37.2989 50.3505 37.3608 50.0412 37.4845C49.2371 34.8866 48.1856 32.4123 47.0722 30C48.1856 27.5876 49.1752 25.1134 49.9794 22.5773C50.5979 22.7629 51.1546 22.9484 51.7113 23.134C57.2165 24.9897 60.5567 27.835 60.5567 29.9381C60.4948 32.2268 56.9072 35.1959 51.0309 37.1752ZM48.6185 42C49.1752 44.5979 49.299 47.1958 48.9278 49.7938C48.5567 51.7113 47.8763 52.9484 47.0103 53.4433C45.1546 54.4948 41.134 53.134 36.866 49.4226C36.3711 48.9897 35.8763 48.5567 35.3814 48.0618C37.1753 46.0824 38.8454 43.9794 40.3299 41.7525C43.0515 41.5051 45.7113 41.134 48.3711 40.5154C48.3711 41.0721 48.4948 41.5051 48.6185 42ZM24 53.3195C22.2062 53.9381 20.7217 54 19.8557 53.5051C18 52.4536 17.1959 48.2474 18.2474 42.6804C18.3711 42 18.4949 41.3814 18.6804 40.701C21.3402 41.2577 24 41.6288 26.6598 41.8762C28.2062 44.1031 29.9381 46.2062 31.732 48.1855C31.3608 48.5567 30.9897 48.866 30.6186 49.2371C28.701 50.9072 26.4124 52.3299 24 53.3195ZM15.4639 37.1752C12.9278 36.3711 10.6392 35.134 8.53609 33.5257C7.05156 32.2886 6.3093 30.9897 6.3093 30C6.3093 27.835 9.52579 25.1134 14.9072 23.1958C15.5876 22.9484 16.2681 22.7629 16.9485 22.5773C17.7526 25.1134 18.6804 27.6495 19.8557 30.0618C18.7423 32.5361 17.7526 35.0721 16.9485 37.6701C16.3918 37.4845 15.8969 37.2989 15.4639 37.1752ZM18.3093 17.6288C17.1959 11.9381 17.9382 7.67008 19.7938 6.55668C21.7732 5.38142 26.1649 7.05152 30.8041 11.134C31.1134 11.3814 31.4227 11.6907 31.6701 11.9381C29.8763 13.9175 28.1443 16.0206 26.5979 18.1855C23.9382 18.433 21.2784 18.8041 18.6804 19.4226C18.5567 18.8659 18.433 18.2474 18.3093 17.6288ZM43.8557 23.9381C43.299 22.9484 42.6804 21.9587 42.0619 20.969C43.9794 21.2165 45.7732 21.5257 47.4433 21.8969C46.8866 23.6288 46.268 25.3608 45.5258 26.969C45.0309 25.9794 44.4742 24.9896 43.8557 23.9381ZM33.4639 13.7938C34.701 15.1546 35.8763 16.5154 36.9278 18C34.5773 17.8763 32.2887 17.8763 29.9381 18C31.0515 16.5773 32.2268 15.1546 33.4639 13.7938ZM22.9485 24C22.3918 24.9897 21.8351 26.0412 21.2784 27.0927C20.5979 25.4226 19.9175 23.6907 19.4227 21.9587C21.2165 21.5876 23.0103 21.2783 24.8041 21.0309C24.1141 21.9741 23.4939 22.9664 22.9485 24ZM24.8041 39.0927C22.9485 38.9072 21.1546 38.5979 19.3608 38.2268C19.9175 36.433 20.5361 34.701 21.2784 32.969C21.8351 34.0206 22.3918 35.0103 22.9485 36.0618C23.567 37.1134 24.1856 38.1031 24.8041 39.0927ZM33.5258 46.268C32.2887 44.9072 31.0515 43.4845 29.9381 42C31.0515 42.0618 32.2268 42.0618 33.4021 42.0618C34.6392 42.0618 35.8144 42.0618 36.9897 42C35.8763 43.4845 34.7629 44.9072 33.5258 46.268ZM45.5876 32.9072C46.3299 34.6391 47.0103 36.3711 47.567 38.1031C45.7113 38.5361 43.9175 38.8453 42.0619 39.0309C42.6804 38.0412 43.299 37.0515 43.8557 36C44.4742 35.0103 45.0309 33.9587 45.5876 32.9072ZM41.6907 34.7628C40.7629 36.3092 39.835 37.8556 38.8454 39.3402C37.1134 39.4639 35.2577 39.5257 33.4021 39.5257C31.5464 39.5257 29.7526 39.4639 28.0206 39.3402C26.9691 37.8556 26.0412 36.3092 25.1134 34.7628C24.1856 33.2165 23.3814 31.6082 22.5773 30C23.3814 28.3917 24.1856 26.7835 25.1134 25.2371C26.0412 23.6907 26.9691 22.1443 27.9588 20.6598C31.5464 20.4123 35.134 20.4123 38.7835 20.6598C39.7732 22.1443 40.7629 23.6907 41.6289 25.2371C42.5567 26.7835 43.3608 28.3917 44.1649 30C43.4227 31.6082 42.5567 33.2165 41.6907 34.7628ZM46.8866 6.49482C48.866 7.67007 49.6701 12.2474 48.3711 18.3093C48.3093 18.6804 48.1856 19.1134 48.1237 19.4845C45.5258 18.8659 42.866 18.4948 40.2062 18.2474C38.6598 16.0824 36.9897 13.9793 35.1959 12C35.6289 11.567 36.1237 11.134 36.5567 10.7629C40.9484 6.9278 45.0309 5.44327 46.8866 6.49482Z" fill="white"/>
<path d="M33.402 24.7423C36.3092 24.7423 38.7216 27.0928 38.7216 30.0619C38.7216 32.9691 36.3711 35.3815 33.402 35.3815C30.4948 35.3815 28.0824 33.031 28.0824 30.0619C28.1443 27.0928 30.4948 24.7423 33.402 24.7423ZM80.969 30.1238H75.4639V38.165H72.9896V18.0619H80.4123C84.3092 18.0619 87.0927 19.9176 87.0927 23.7526V24.433C87.0927 27.1547 85.6701 28.8866 83.5051 29.6289L88.268 38.165H85.4845L80.969 30.1238ZM80.2886 27.897C82.8247 27.897 84.6185 26.7217 84.6185 24.433V23.8145C84.6185 21.464 82.8247 20.2887 80.2886 20.2887H75.4639V27.897H80.2886ZM92.6597 32.4124C92.6597 34.7011 94.0824 36.4949 96.5566 36.4949C98.5979 36.4949 99.835 35.4433 100.021 33.897H102.371C102.124 36.5568 99.835 38.4743 96.6185 38.4743C92.7835 38.4743 90.3711 36.0001 90.3711 31.8557V30.9279C90.3711 26.8454 92.7216 24.3093 96.5566 24.3093C100.268 24.3093 102.433 26.7217 102.433 30.6186V32.165H92.6597V32.4124ZM92.6597 30.0619V30.1856H100.021V29.8763C100.021 27.897 98.969 26.2269 96.4948 26.2269C94.5154 26.1031 92.7835 27.6495 92.6597 29.6289V30.0619ZM116.227 29.8763V38.2269H113.876V36.8042C112.763 37.9176 111.216 38.5361 109.608 38.4743C107.134 38.4743 105.278 37.0516 105.278 34.5155C105.278 31.5464 107.629 30.433 110.66 30.433C111.711 30.433 112.763 30.4949 113.814 30.6186V29.5671C113.814 27.5877 112.948 26.2887 110.969 26.2887C109.361 26.2269 108 27.4021 107.938 29.0104V29.2578H105.588C105.588 26.7835 107.505 24.3712 110.907 24.3712C114.495 24.2475 116.227 26.3506 116.227 29.8763ZM107.629 34.3918C107.629 35.7526 108.619 36.4949 110.289 36.4949C111.711 36.433 113.01 35.8145 113.938 34.7629V32.5361C112.948 32.4124 111.897 32.3506 110.907 32.3506C108.866 32.2887 107.629 32.9691 107.629 34.3918ZM131.938 29.5671H129.773C129.711 27.7114 128.165 26.2269 126.309 26.2269H126.186C123.649 26.2269 122.227 28.0207 122.227 30.8042V31.9176C122.227 34.7011 123.649 36.4949 126.186 36.4949C127.979 36.6186 129.588 35.2578 129.711 33.464V33.4021H131.938C131.629 36.5568 129.278 38.4743 126.186 38.4743C122.35 38.4743 119.876 36.1238 119.876 31.8557V30.9279C119.876 26.6598 122.35 24.3093 126.186 24.3093C129.402 24.2475 131.753 26.2887 131.938 29.5671ZM142.392 38.1032C141.526 38.4124 140.66 38.5361 139.732 38.4743C137.381 38.4743 135.835 37.1135 135.835 34.2062V26.4743H133.361V24.4949H135.835V19.732H138.186V24.4949H142.206V26.4743H138.186L138.124 33.7733C138.124 35.6908 138.99 36.3093 140.412 36.3093C141.031 36.3093 141.711 36.1856 142.268 35.9382L142.392 38.1032Z" fill="#989898"/>
</g>
<defs>
<clipPath id="clip0">
<rect width="142.454" height="60" fill="white"/>
</clipPath>
</defs>
</svg>