<svg width="130" height="34" viewBox="0 0 130 34" fill="none" xmlns="http://www.w3.org/2000/svg">
<path d="M42.7281 23.1814C42.3303 22.9666 42.0244 22.5068 42.0244 21.894C42.0244 21.0678 42.6669 20.398 43.5267 20.398C43.8313 20.398 44.108 20.4876 44.3209 20.6103C45.8847 21.6523 47.508 22.1732 48.9759 22.1732C50.5681 22.1732 51.4866 21.4987 51.4866 20.4256V20.3649C51.4866 19.1093 49.7728 18.6812 47.8727 18.0999C45.4855 17.4256 42.8213 16.4467 42.8213 13.3533V13.2913C42.8213 10.2285 45.3628 8.36116 48.5784 8.36116C50.2938 8.36116 52.0996 8.85182 53.6615 9.6774C54.1836 9.95389 54.5491 10.4441 54.5491 11.0855C54.5491 11.9438 53.8765 12.5884 53.0192 12.5884C52.7113 12.5884 52.5278 12.5269 52.2854 12.4037C50.9664 11.7291 49.6196 11.2997 48.4869 11.2997C47.0466 11.2997 46.2196 11.975 46.2196 12.8943V12.9539C46.2196 14.1486 47.965 14.6373 49.8643 15.251C52.2223 15.9864 54.8865 17.0576 54.8865 19.9666V20.0287C54.8865 23.4275 52.2515 25.1099 48.8838 25.1099C46.8334 25.1099 44.5978 24.469 42.7281 23.1814Z" fill="#989898"/>
<path d="M69.2414 16.7518V16.6898C69.2414 13.5677 67.1279 11.5157 64.6181 11.5157C62.1071 11.5157 59.9023 13.598 59.9023 16.6898V16.7518C59.9023 19.8447 62.1071 21.929 64.6181 21.929C67.1596 21.929 69.2414 19.937 69.2414 16.7518ZM56.288 10.2281C56.288 9.18883 57.0832 8.36078 58.1265 8.36078C59.1669 8.36078 59.9939 9.18883 59.9939 10.2281V11.3321C61.1883 9.64865 62.8721 8.30073 65.5062 8.30073C69.3028 8.30073 73.0086 11.3004 73.0086 16.6898V16.7518C73.0086 22.1115 69.3337 25.1423 65.5062 25.1423C62.8117 25.1423 61.1271 23.7935 59.9939 22.2961V28.0193C59.9939 29.0643 59.1669 29.8607 58.1265 29.8607C57.1166 29.8607 56.288 29.0643 56.288 28.0193V10.2281Z" fill="#989898"/>
<path d="M74.4122 10.2303C74.4122 9.19109 75.2061 8.36297 76.2477 8.36297C77.2914 8.36297 78.1171 9.19109 78.1171 10.2303V11.1212C78.302 9.73355 80.5658 8.36297 82.1896 8.36297C83.3525 8.36297 84.0272 9.12793 84.0272 10.1992C84.0272 11.1783 83.3836 11.8225 82.5565 11.9752C79.9229 12.4348 78.1171 14.7392 78.1171 17.9275V23.2698C78.1171 24.2814 77.2914 25.1078 76.2477 25.1078C75.2379 25.1078 74.4122 24.3111 74.4122 23.2698V10.2303Z" fill="#989898"/>
<path d="M85.4287 10.2378C85.4287 9.19687 86.2275 8.36876 87.267 8.36876C88.3079 8.36876 89.1349 9.19687 89.1349 10.2378V23.2728C89.1349 24.3126 88.3079 25.1078 87.267 25.1078C86.2557 25.1078 85.4287 24.3126 85.4287 23.2728V10.2378Z" fill="#989898"/>
<path d="M91.0029 10.2448C91.0029 9.20392 91.7996 8.37778 92.8391 8.37778C93.8814 8.37778 94.7078 9.20392 94.7078 10.2448V11.0051C95.7508 9.50412 97.2489 8.36839 99.7598 8.36839C103.404 8.36839 105.518 10.8193 105.518 14.5548V23.2705C105.518 24.3111 104.721 25.1083 103.68 25.1083C102.639 25.1083 101.813 24.3111 101.813 23.2705V15.6882C101.813 13.1784 100.557 11.738 98.3519 11.738C96.2088 11.738 94.7078 13.2385 94.7078 15.7514V23.2705C94.7078 24.3111 93.8814 25.1083 92.8391 25.1083C91.8293 25.1083 91.0029 24.3111 91.0029 23.2705V10.2448Z" fill="#989898"/>
<path d="M115.312 21.8948C112.768 21.8948 110.688 19.9037 110.688 16.7185V16.6584C110.688 13.5355 112.799 11.4835 115.312 11.4835C117.824 11.4835 120.028 13.5664 120.028 16.6584V16.7185C120.028 19.8122 117.824 21.8948 115.312 21.8948ZM121.801 8.32857C120.762 8.32857 119.935 9.15718 119.935 10.1967V11.2988C118.739 9.61531 117.057 8.26817 114.425 8.26817C110.625 8.26817 106.921 11.2679 106.921 16.6584V16.7185C106.921 22.0781 110.595 25.1081 114.425 25.1081C117.103 25.1081 118.784 23.7754 119.918 22.2854C119.732 25.1972 117.949 26.7345 114.823 26.7345C112.956 26.7345 111.332 26.2736 109.86 25.4453C109.677 25.3557 109.466 25.295 109.189 25.295C108.332 25.295 107.625 26.0002 107.625 26.8244C107.625 27.5292 108.024 28.0497 108.669 28.2947C110.626 29.2444 112.645 29.7345 114.913 29.7345C117.824 29.7345 120.09 29.0307 121.56 27.5601C122.905 26.2116 123.64 24.193 123.64 21.4661V10.1967C123.64 9.15718 122.844 8.32857 121.801 8.32857Z" fill="#989898"/>
<path d="M89.1498 3.90662C89.1498 4.93699 88.3129 5.77478 87.2811 5.77478C86.2487 5.77478 85.4139 4.93699 85.4139 3.90662C85.4139 2.87343 86.2487 2.03931 87.2811 2.03931C88.3129 2.03931 89.1498 2.87343 89.1498 3.90662Z" fill="#989898"/>
<path d="M30.2964 24.001C26.1886 29.4742 17.4136 27.6267 11.7877 27.8924C11.7877 27.8924 10.7917 27.9478 9.78861 28.113C9.78861 28.113 10.1679 27.9512 10.6517 27.7844C14.603 26.4179 16.4703 26.1434 18.8713 24.9101C23.3824 22.5993 27.872 17.5657 28.7855 12.3368C27.0685 17.3659 21.8461 21.6942 17.091 23.4519C13.8363 24.6529 7.95052 25.8217 7.94967 25.8222C7.95242 25.8264 7.7151 25.699 7.71178 25.6963C3.70897 23.7488 3.59348 15.0793 10.8634 12.2847C14.0508 11.0586 17.0996 11.732 20.5453 10.9119C24.2204 10.0381 28.4768 7.28341 30.2069 3.68195C32.1464 9.43468 34.4762 18.4349 30.2964 24.001ZM30.3678 1.89932C29.8788 3.06116 29.282 4.10811 28.594 5.04455C25.5656 1.93651 21.3387 4.19617e-05 16.6666 4.19617e-05C7.47608 4.19617e-05 0 7.47697 0 16.6658C0 21.4828 2.05613 25.8272 5.33425 28.8724L5.69922 29.1958C5.08974 28.6987 4.99602 27.8037 5.49 27.1936C5.98701 26.5833 6.8829 26.4888 7.49267 26.983C8.10407 27.4784 8.19722 28.3757 7.70219 28.9868C7.20898 29.5982 6.31146 29.6906 5.70088 29.1971L5.94925 29.4171C8.84892 31.8586 12.5868 33.3334 16.6666 33.3334C25.4512 33.3334 32.6646 26.4971 33.2821 17.8685C33.7394 13.6437 32.4915 8.27913 30.3678 1.89932Z" fill="#989898"/>
<path d="M127.979 9.4958H127.397V10.2665H127.979C128.168 10.2665 128.374 10.1144 128.374 9.89028C128.374 9.64795 128.168 9.4958 127.979 9.4958ZM128.338 11.4039L127.773 10.5439H127.397V11.4039H127.093V9.22679H127.979C128.347 9.22679 128.688 9.48726 128.688 9.89028C128.688 10.3737 128.257 10.5353 128.132 10.5353L128.715 11.4039H128.338ZM127.818 8.69831C126.922 8.69831 126.205 9.415 126.205 10.3115C126.205 11.198 126.922 11.9241 127.818 11.9241C128.705 11.9241 129.431 11.198 129.431 10.3115C129.431 9.415 128.705 8.69831 127.818 8.69831ZM127.818 12.2111C126.77 12.2111 125.919 11.3595 125.919 10.3115C125.919 9.25347 126.77 8.41138 127.818 8.41138C128.876 8.41138 129.718 9.25347 129.718 10.3115C129.718 11.3595 128.876 12.2111 127.818 12.2111Z" fill="#989898"/>
</svg>
