<?xml version="1.0" encoding="UTF-8" standalone="no"?><!DOCTYPE svg PUBLIC "-//W3C//DTD SVG 1.1//EN" "http://www.w3.org/Graphics/SVG/1.1/DTD/svg11.dtd"><svg width="100%" height="100%" viewBox="0 0 106 35" version="1.1" xmlns="http://www.w3.org/2000/svg" xmlns:xlink="http://www.w3.org/1999/xlink" xml:space="preserve" xmlns:serif="http://www.serif.com/" style="fill-rule:evenodd;clip-rule:evenodd;stroke-linejoin:round;stroke-miterlimit:2;"><path d="M72.066,34.203c-0.33,0.225 -0.676,0.403 -1.038,0.533c-0.363,0.129 -0.754,0.194 -1.171,0.194c-0.36,0 -0.701,-0.04 -1.024,-0.121c-0.323,-0.084 -0.622,-0.2 -0.897,-0.351c-0.274,-0.15 -0.521,-0.33 -0.74,-0.541c-0.22,-0.21 -0.407,-0.443 -0.563,-0.697c-0.152,-0.257 -0.27,-0.532 -0.352,-0.827c-0.082,-0.294 -0.123,-0.599 -0.123,-0.913c0,-0.315 0.041,-0.619 0.123,-0.914c0.085,-0.294 0.206,-0.568 0.361,-0.822c0.156,-0.257 0.343,-0.491 0.563,-0.702c0.222,-0.21 0.471,-0.391 0.745,-0.541c0.274,-0.15 0.57,-0.265 0.887,-0.346c0.32,-0.084 0.657,-0.126 1.011,-0.126c0.433,0 0.835,0.065 1.207,0.195c0.372,0.127 0.709,0.313 1.011,0.559l0,0.826l-0.019,0c-0.128,-0.138 -0.276,-0.265 -0.443,-0.38c-0.168,-0.116 -0.348,-0.214 -0.54,-0.295c-0.192,-0.084 -0.392,-0.149 -0.599,-0.195c-0.204,-0.046 -0.41,-0.069 -0.617,-0.069c-0.421,0 -0.813,0.072 -1.175,0.216c-0.36,0.142 -0.673,0.338 -0.938,0.589c-0.262,0.251 -0.468,0.549 -0.617,0.892c-0.149,0.344 -0.224,0.714 -0.224,1.113c0,0.257 0.035,0.505 0.105,0.744c0.07,0.237 0.169,0.461 0.297,0.672c0.128,0.207 0.282,0.396 0.462,0.567c0.183,0.17 0.384,0.317 0.604,0.441c0.219,0.122 0.455,0.217 0.708,0.286c0.257,0.066 0.522,0.1 0.796,0.1c0.189,0 0.386,-0.022 0.59,-0.065c0.204,-0.044 0.404,-0.104 0.599,-0.182c0.195,-0.078 0.378,-0.172 0.549,-0.282c0.17,-0.112 0.318,-0.238 0.443,-0.376l0.019,0l0,0.818Z" style="fill:#546065;fill-rule:nonzero;"/><path d="M74.491,34.822l0,-6.685l0.718,0l0,6.074l2.259,0l0,0.611l-2.977,0Z" style="fill:#546065;fill-rule:nonzero;"/><path d="M86.292,31.48c0,0.314 -0.042,0.619 -0.128,0.913c-0.085,0.294 -0.207,0.57 -0.365,0.827c-0.156,0.254 -0.345,0.486 -0.568,0.697c-0.219,0.211 -0.466,0.391 -0.74,0.541c-0.272,0.15 -0.566,0.267 -0.883,0.351c-0.314,0.081 -0.645,0.121 -0.992,0.121c-0.354,0 -0.691,-0.04 -1.011,-0.121c-0.32,-0.084 -0.617,-0.201 -0.891,-0.351c-0.272,-0.15 -0.519,-0.33 -0.741,-0.541c-0.223,-0.211 -0.412,-0.443 -0.567,-0.697c-0.156,-0.257 -0.276,-0.532 -0.361,-0.827c-0.086,-0.294 -0.128,-0.599 -0.128,-0.913c0,-0.315 0.042,-0.62 0.128,-0.914c0.085,-0.294 0.205,-0.569 0.361,-0.822c0.158,-0.257 0.349,-0.491 0.571,-0.702c0.223,-0.211 0.47,-0.391 0.741,-0.541c0.275,-0.15 0.57,-0.266 0.887,-0.346c0.32,-0.084 0.654,-0.126 1.002,-0.126c0.347,0 0.678,0.042 0.992,0.126c0.317,0.08 0.611,0.196 0.883,0.346c0.274,0.15 0.522,0.33 0.745,0.541c0.222,0.211 0.413,0.445 0.571,0.702c0.159,0.253 0.281,0.528 0.366,0.822c0.086,0.292 0.128,0.596 0.128,0.914Zm-0.727,0c-0,-0.387 -0.077,-0.751 -0.233,-1.091c-0.155,-0.344 -0.367,-0.644 -0.636,-0.901c-0.268,-0.257 -0.582,-0.46 -0.942,-0.61c-0.356,-0.151 -0.739,-0.226 -1.147,-0.226c-0.421,0 -0.813,0.073 -1.175,0.217c-0.36,0.144 -0.673,0.343 -0.938,0.597c-0.262,0.254 -0.468,0.555 -0.617,0.901c-0.149,0.343 -0.224,0.714 -0.224,1.113c-0,0.256 0.035,0.505 0.105,0.744c0.07,0.24 0.169,0.465 0.297,0.676c0.128,0.207 0.282,0.398 0.462,0.571c0.18,0.173 0.38,0.322 0.599,0.446c0.22,0.124 0.456,0.221 0.709,0.29c0.253,0.066 0.517,0.1 0.791,0.1c0.418,0 0.806,-0.071 1.166,-0.212c0.36,-0.145 0.671,-0.342 0.933,-0.593c0.265,-0.252 0.472,-0.549 0.622,-0.892c0.152,-0.347 0.228,-0.723 0.228,-1.13Z" style="fill:#546065;fill-rule:nonzero;"/><path d="M90.711,34.999l-0.224,0l-2.876,-6.862l0.796,0l2.208,5.433l0.023,0l2.218,-5.433l0.768,0l-2.913,6.862Z" style="fill:#546065;fill-rule:nonzero;"/><path d="M95.576,34.822l-0,-6.685l3.494,0l-0,0.61l-2.776,0l-0,2.243l2.698,0l-0,0.593l-2.698,0l-0,2.628l2.776,0l-0,0.611l-3.494,0Z" style="fill:#546065;fill-rule:nonzero;"/><path d="M104.733,34.822l-2.223,-3.053l-0.187,0l0,3.053l-0.718,0l0,-6.685l1.308,0c0.399,0 0.743,0.042 1.033,0.125c0.293,0.084 0.534,0.204 0.723,0.36c0.189,0.156 0.329,0.348 0.42,0.576c0.092,0.225 0.137,0.48 0.137,0.766c0,0.251 -0.042,0.481 -0.128,0.688c-0.082,0.208 -0.205,0.389 -0.37,0.542c-0.162,0.15 -0.363,0.272 -0.604,0.367c-0.24,0.093 -0.519,0.151 -0.836,0.174l2.277,3.087l-0.832,0Zm-0.243,-4.832c-0,-0.208 -0.033,-0.39 -0.1,-0.546c-0.064,-0.158 -0.168,-0.291 -0.311,-0.398c-0.144,-0.107 -0.328,-0.188 -0.554,-0.242c-0.222,-0.055 -0.492,-0.083 -0.809,-0.083l-0.393,0l-0,2.511l0.58,0c0.26,0 0.487,-0.028 0.682,-0.086c0.198,-0.058 0.364,-0.14 0.498,-0.247c0.134,-0.107 0.235,-0.237 0.302,-0.39c0.07,-0.153 0.105,-0.326 0.105,-0.519Z" style="fill:#546065;fill-rule:nonzero;"/><path d="M3.012,28.03c0.416,0 0.757,0.063 1.022,0.189c0.272,0.12 0.512,0.262 0.72,0.426c0.127,0.095 0.221,0.108 0.284,0.038c0.07,-0.075 0.117,-0.249 0.142,-0.521l0.218,0c-0.012,0.234 -0.022,0.518 -0.028,0.853c-0.006,0.334 -0.01,0.776 -0.01,1.326l-0.217,0c-0.045,-0.272 -0.086,-0.486 -0.124,-0.644c-0.037,-0.165 -0.085,-0.303 -0.142,-0.417c-0.05,-0.114 -0.12,-0.227 -0.208,-0.341c-0.196,-0.259 -0.442,-0.445 -0.739,-0.559c-0.296,-0.12 -0.609,-0.18 -0.937,-0.18c-0.31,0 -0.591,0.079 -0.843,0.237c-0.246,0.152 -0.461,0.373 -0.644,0.663c-0.177,0.29 -0.316,0.641 -0.417,1.051c-0.095,0.411 -0.142,0.872 -0.142,1.383c0,0.53 0.054,1.001 0.161,1.411c0.107,0.404 0.256,0.745 0.445,1.023c0.196,0.278 0.423,0.489 0.682,0.634c0.265,0.139 0.549,0.209 0.852,0.209c0.285,0 0.581,-0.057 0.891,-0.171c0.309,-0.113 0.552,-0.297 0.729,-0.549c0.139,-0.183 0.234,-0.382 0.284,-0.597c0.057,-0.214 0.107,-0.514 0.152,-0.899l0.217,0c0,0.574 0.004,1.038 0.01,1.392c0.006,0.347 0.016,0.641 0.028,0.881l-0.218,0c-0.025,-0.272 -0.069,-0.442 -0.132,-0.512c-0.057,-0.069 -0.155,-0.06 -0.294,0.029c-0.233,0.164 -0.483,0.309 -0.748,0.435c-0.259,0.12 -0.593,0.18 -1.004,0.18c-0.6,0 -1.127,-0.136 -1.581,-0.407c-0.449,-0.272 -0.799,-0.663 -1.052,-1.174c-0.246,-0.512 -0.369,-1.127 -0.369,-1.847c0,-0.707 0.129,-1.326 0.388,-1.856c0.259,-0.531 0.613,-0.944 1.061,-1.241c0.455,-0.297 0.975,-0.445 1.563,-0.445Z" style="fill:#546065;fill-rule:nonzero;"/><path d="M11.355,34.867l0,-0.189c0.215,-0.013 0.376,-0.038 0.483,-0.076c0.114,-0.038 0.19,-0.114 0.228,-0.227c0.038,-0.114 0.056,-0.285 0.056,-0.512l0.001,-4.697c0,-0.234 -0.019,-0.404 -0.057,-0.512c-0.038,-0.113 -0.114,-0.189 -0.228,-0.227c-0.107,-0.044 -0.268,-0.069 -0.483,-0.076l0,-0.189c0.146,0.006 0.329,0.012 0.55,0.019c0.221,0.006 0.439,0.009 0.653,0.009c0.246,0 0.477,-0.003 0.691,-0.009c0.215,-0.006 0.389,-0.013 0.521,-0.019l0,0.189c-0.214,0.007 -0.378,0.032 -0.492,0.076c-0.107,0.038 -0.18,0.114 -0.218,0.227c-0.038,0.108 -0.057,0.278 -0.057,0.512l0,4.697c0,0.227 0.019,0.398 0.057,0.512c0.038,0.113 0.111,0.189 0.218,0.227c0.114,0.038 0.278,0.063 0.492,0.076l0,0.189c-0.132,-0.013 -0.306,-0.019 -0.521,-0.019c-0.214,-0.006 -0.445,-0.009 -0.691,-0.009c-0.215,0 -0.432,0.003 -0.653,0.009c-0.221,0 -0.404,0.006 -0.55,0.019Zm-3.958,0l0,-0.189c0.214,-0.013 0.375,-0.038 0.483,-0.076c0.113,-0.038 0.189,-0.114 0.227,-0.227c0.038,-0.114 0.057,-0.285 0.057,-0.512l0,-4.697c0,-0.234 -0.019,-0.404 -0.057,-0.512c-0.038,-0.113 -0.114,-0.189 -0.227,-0.227c-0.108,-0.044 -0.269,-0.069 -0.483,-0.076l0,-0.189c0.132,0.006 0.306,0.012 0.521,0.019c0.214,0.006 0.445,0.009 0.691,0.009c0.221,0 0.439,-0.003 0.653,-0.009c0.221,-0.006 0.404,-0.013 0.55,-0.019l0,0.189c-0.215,0.007 -0.379,0.032 -0.493,0.076c-0.107,0.038 -0.18,0.114 -0.218,0.227c-0.037,0.108 -0.056,0.278 -0.056,0.512l0,4.697c0,0.227 0.019,0.398 0.056,0.512c0.038,0.113 0.111,0.189 0.218,0.227c0.114,0.038 0.278,0.063 0.493,0.076l0,0.189c-0.146,-0.013 -0.329,-0.019 -0.55,-0.019c-0.214,-0.006 -0.432,-0.009 -0.653,-0.009c-0.246,0 -0.477,0.003 -0.691,0.009c-0.215,0 -0.389,0.006 -0.521,0.019Zm1.316,-3.277l0,-0.189l3.741,0l0,0.189l-3.741,0Z" style="fill:#546065;fill-rule:nonzero;"/><path d="M15.563,28.162c0.133,0.006 0.307,0.012 0.521,0.019c0.215,0.006 0.427,0.009 0.635,0.009c0.297,0 0.581,-0.003 0.852,-0.009c0.272,-0.006 0.464,-0.01 0.578,-0.01c0.764,0 1.335,0.158 1.714,0.474c0.379,0.316 0.568,0.707 0.568,1.174c0,0.19 -0.038,0.392 -0.113,0.606c-0.076,0.215 -0.209,0.417 -0.398,0.606c-0.183,0.19 -0.436,0.348 -0.758,0.474c-0.322,0.12 -0.729,0.18 -1.222,0.18l-0.909,0l0,-0.189l0.815,0c0.448,0 0.789,-0.07 1.023,-0.209c0.24,-0.145 0.401,-0.334 0.483,-0.568c0.088,-0.24 0.132,-0.505 0.132,-0.796c0,-0.498 -0.12,-0.883 -0.36,-1.155c-0.233,-0.278 -0.637,-0.417 -1.212,-0.417c-0.29,0 -0.48,0.054 -0.568,0.161c-0.089,0.108 -0.133,0.325 -0.133,0.654l0,4.697c0,0.227 0.019,0.398 0.057,0.512c0.038,0.113 0.111,0.189 0.218,0.227c0.114,0.038 0.278,0.063 0.492,0.076l0,0.189c-0.145,-0.013 -0.328,-0.019 -0.549,-0.019c-0.215,-0.006 -0.432,-0.009 -0.653,-0.009c-0.247,0 -0.477,0.003 -0.692,0.009c-0.214,0 -0.388,0.006 -0.521,0.019l0,-0.189c0.215,-0.013 0.376,-0.038 0.483,-0.076c0.114,-0.038 0.19,-0.114 0.228,-0.227c0.038,-0.114 0.056,-0.285 0.056,-0.512l0,-4.697c0,-0.234 -0.018,-0.404 -0.056,-0.512c-0.038,-0.113 -0.114,-0.189 -0.228,-0.227c-0.107,-0.044 -0.268,-0.069 -0.483,-0.076l0,-0.189Zm1.506,3.362c0.341,0.013 0.609,0.028 0.805,0.047c0.196,0.013 0.354,0.025 0.474,0.038c0.126,0.013 0.246,0.029 0.36,0.047c0.423,0.07 0.726,0.199 0.909,0.389c0.189,0.183 0.328,0.47 0.416,0.862l0.237,0.966c0.063,0.277 0.127,0.479 0.19,0.606c0.069,0.12 0.173,0.176 0.312,0.17c0.108,-0.006 0.196,-0.041 0.265,-0.104c0.076,-0.063 0.155,-0.148 0.237,-0.256l0.142,0.104c-0.132,0.196 -0.271,0.348 -0.416,0.455c-0.139,0.101 -0.338,0.152 -0.597,0.152c-0.234,0 -0.439,-0.07 -0.616,-0.209c-0.177,-0.139 -0.309,-0.41 -0.398,-0.814l-0.208,-0.947c-0.057,-0.272 -0.123,-0.505 -0.199,-0.701c-0.069,-0.202 -0.17,-0.36 -0.303,-0.474c-0.126,-0.113 -0.315,-0.17 -0.568,-0.17l-1.023,0l-0.019,-0.161Z" style="fill:#546065;fill-rule:nonzero;"/><path d="M25.109,28.162l0,0.189c-0.214,0.007 -0.379,0.032 -0.492,0.076c-0.108,0.038 -0.18,0.114 -0.218,0.227c-0.038,0.108 -0.057,0.278 -0.057,0.512l0,4.697c0,0.227 0.019,0.398 0.057,0.512c0.038,0.113 0.11,0.189 0.218,0.227c0.113,0.038 0.278,0.063 0.492,0.076l0,0.189c-0.145,-0.013 -0.328,-0.019 -0.549,-0.019c-0.215,-0.006 -0.433,-0.009 -0.654,-0.009c-0.246,0 -0.476,0.003 -0.691,0.009c-0.215,0 -0.388,0.006 -0.521,0.019l0,-0.189c0.215,-0.013 0.376,-0.038 0.483,-0.076c0.114,-0.038 0.19,-0.114 0.228,-0.227c0.037,-0.114 0.056,-0.285 0.056,-0.512l0,-4.697c0,-0.234 -0.019,-0.404 -0.056,-0.512c-0.038,-0.113 -0.114,-0.189 -0.228,-0.227c-0.107,-0.044 -0.268,-0.069 -0.483,-0.076l0,-0.189c0.133,0.006 0.306,0.012 0.521,0.019c0.215,0.006 0.445,0.009 0.691,0.009c0.221,0 0.439,-0.003 0.654,-0.009c0.221,-0.006 0.404,-0.013 0.549,-0.019Z" style="fill:#546065;fill-rule:nonzero;"/><path d="M28.929,28.058c0.316,0 0.556,0.038 0.72,0.113c0.164,0.07 0.309,0.149 0.436,0.237c0.075,0.044 0.136,0.079 0.18,0.104c0.05,0.019 0.098,0.029 0.142,0.029c0.101,0 0.17,-0.139 0.208,-0.417l0.218,0c-0.006,0.107 -0.016,0.237 -0.028,0.388c-0.007,0.145 -0.013,0.341 -0.019,0.587l-0,0.957l-0.218,0c-0.019,-0.303 -0.085,-0.594 -0.199,-0.871c-0.114,-0.278 -0.281,-0.505 -0.502,-0.682c-0.215,-0.177 -0.499,-0.265 -0.852,-0.265c-0.335,0 -0.613,0.101 -0.834,0.303c-0.215,0.202 -0.322,0.467 -0.322,0.795c-0,0.284 0.073,0.524 0.218,0.72c0.145,0.189 0.338,0.363 0.578,0.521c0.246,0.151 0.511,0.315 0.795,0.492c0.328,0.202 0.619,0.404 0.871,0.606c0.259,0.196 0.461,0.414 0.607,0.654c0.151,0.24 0.227,0.53 0.227,0.871c-0,0.404 -0.092,0.739 -0.275,1.004c-0.183,0.265 -0.426,0.464 -0.729,0.597c-0.303,0.132 -0.638,0.199 -1.004,0.199c-0.335,0 -0.6,-0.038 -0.795,-0.114c-0.196,-0.076 -0.363,-0.155 -0.502,-0.237c-0.139,-0.088 -0.247,-0.132 -0.322,-0.132c-0.101,0 -0.171,0.138 -0.209,0.416l-0.218,0c0.013,-0.132 0.019,-0.287 0.019,-0.464c0.007,-0.183 0.01,-0.42 0.01,-0.71c0.006,-0.291 0.009,-0.657 0.009,-1.099l0.218,0c0.025,0.379 0.095,0.733 0.209,1.061c0.119,0.328 0.299,0.593 0.539,0.796c0.247,0.195 0.572,0.293 0.976,0.293c0.309,0 0.59,-0.098 0.843,-0.293c0.259,-0.203 0.388,-0.525 0.388,-0.966c-0,-0.386 -0.136,-0.704 -0.407,-0.957c-0.272,-0.253 -0.628,-0.511 -1.07,-0.777c-0.297,-0.183 -0.575,-0.369 -0.834,-0.558c-0.259,-0.19 -0.467,-0.408 -0.625,-0.654c-0.151,-0.252 -0.227,-0.555 -0.227,-0.909c-0,-0.373 0.082,-0.679 0.246,-0.919c0.171,-0.246 0.391,-0.426 0.663,-0.539c0.271,-0.12 0.562,-0.18 0.871,-0.18Z" style="fill:#546065;fill-rule:nonzero;"/><path d="M35.603,28.114l2.311,5.957c0.095,0.24 0.202,0.401 0.322,0.483c0.12,0.076 0.231,0.117 0.332,0.123l0,0.19c-0.127,-0.013 -0.281,-0.019 -0.464,-0.019c-0.183,-0.006 -0.367,-0.01 -0.55,-0.01c-0.246,0 -0.476,0.004 -0.691,0.01c-0.215,0 -0.388,0.006 -0.521,0.019l0,-0.19c0.322,-0.012 0.527,-0.066 0.616,-0.161c0.088,-0.101 0.069,-0.312 -0.057,-0.634l-1.762,-4.707l0.152,-0.123l-1.648,4.281c-0.133,0.341 -0.196,0.609 -0.189,0.805c0.006,0.189 0.078,0.325 0.217,0.407c0.139,0.082 0.341,0.126 0.607,0.132l0,0.19c-0.177,-0.013 -0.364,-0.019 -0.559,-0.019c-0.19,-0.006 -0.366,-0.01 -0.531,-0.01c-0.157,0 -0.293,0.004 -0.407,0.01c-0.107,0 -0.208,0.006 -0.303,0.019l0,-0.19c0.126,-0.031 0.256,-0.104 0.388,-0.217c0.133,-0.12 0.253,-0.322 0.36,-0.607l2.226,-5.739l0.151,0Zm1.156,4.025l-0,0.19l-2.822,0l0.094,-0.19l2.728,0Z" style="fill:#546065;fill-rule:nonzero;"/><path d="M45.669,28.162l-0,0.189c-0.215,0.007 -0.379,0.038 -0.492,0.095c-0.108,0.057 -0.18,0.148 -0.218,0.275c-0.038,0.126 -0.057,0.306 -0.057,0.54l-0,5.653l-0.218,0l-3.977,-6.146l-0.001,5.001c-0,0.227 0.019,0.407 0.057,0.539c0.044,0.127 0.127,0.218 0.247,0.275c0.126,0.05 0.312,0.082 0.558,0.095l-0,0.189c-0.113,-0.013 -0.262,-0.019 -0.445,-0.019c-0.183,-0.006 -0.357,-0.009 -0.521,-0.009c-0.158,0 -0.319,0.003 -0.483,0.009c-0.158,0 -0.29,0.006 -0.397,0.019l-0,-0.189c0.214,-0.013 0.375,-0.045 0.483,-0.095c0.113,-0.057 0.189,-0.148 0.227,-0.275c0.038,-0.132 0.057,-0.312 0.057,-0.539l-0,-4.603c-0,-0.234 -0.019,-0.404 -0.057,-0.512c-0.038,-0.113 -0.114,-0.189 -0.227,-0.227c-0.108,-0.044 -0.269,-0.069 -0.483,-0.076l-0,-0.189c0.107,0.006 0.239,0.013 0.397,0.019c0.164,0.006 0.325,0.009 0.483,0.009c0.139,0 0.272,-0.003 0.398,-0.009c0.126,-0.006 0.24,-0.013 0.341,-0.019l3.343,5.152l-0,-4.053c-0,-0.234 -0.022,-0.414 -0.066,-0.54c-0.038,-0.127 -0.12,-0.218 -0.246,-0.275c-0.12,-0.057 -0.303,-0.088 -0.55,-0.095l-0,-0.189c0.114,0.006 0.262,0.013 0.445,0.019c0.19,0.006 0.363,0.009 0.521,0.009c0.164,0 0.325,-0.003 0.483,-0.009c0.164,-0.006 0.297,-0.013 0.398,-0.019Z" style="fill:#546065;fill-rule:nonzero;"/><path d="M53.337,28.162l-0.001,0.189c-0.214,0.007 -0.378,0.038 -0.492,0.095c-0.107,0.057 -0.18,0.148 -0.218,0.275c-0.038,0.126 -0.057,0.306 -0.057,0.54l0,5.653l-0.218,0l-3.977,-6.146l0,5.001c0,0.227 0.019,0.407 0.057,0.539c0.044,0.127 0.126,0.218 0.246,0.275c0.126,0.05 0.312,0.082 0.559,0.095l0,0.189c-0.114,-0.013 -0.262,-0.019 -0.445,-0.019c-0.184,-0.006 -0.357,-0.009 -0.521,-0.009c-0.158,0 -0.319,0.003 -0.483,0.009c-0.158,0 -0.291,0.006 -0.398,0.019l0,-0.189c0.215,-0.013 0.376,-0.045 0.483,-0.095c0.114,-0.057 0.189,-0.148 0.227,-0.275c0.038,-0.132 0.057,-0.312 0.057,-0.539l0,-4.603c0,-0.234 -0.019,-0.404 -0.057,-0.512c-0.038,-0.113 -0.113,-0.189 -0.227,-0.227c-0.107,-0.044 -0.268,-0.069 -0.483,-0.076l0,-0.189c0.107,0.006 0.24,0.013 0.398,0.019c0.164,0.006 0.325,0.009 0.483,0.009c0.139,0 0.271,-0.003 0.397,-0.009c0.127,-0.006 0.24,-0.013 0.341,-0.019l3.343,5.152l0.001,-4.053c0,-0.234 -0.023,-0.414 -0.067,-0.54c-0.038,-0.127 -0.12,-0.218 -0.246,-0.275c-0.12,-0.057 -0.303,-0.088 -0.549,-0.095l0,-0.189c0.113,0.006 0.262,0.013 0.445,0.019c0.189,0.006 0.363,0.009 0.521,0.009c0.164,0 0.325,-0.003 0.483,-0.009c0.164,-0.006 0.297,-0.013 0.398,-0.019Z" style="fill:#546065;fill-rule:nonzero;"/><path d="M59.782,28.162c-0.025,0.221 -0.044,0.436 -0.057,0.644c-0.006,0.208 -0.009,0.366 -0.009,0.473c-0,0.114 0.003,0.225 0.009,0.332c0.006,0.101 0.013,0.186 0.019,0.256l-0.218,0c-0.038,-0.373 -0.091,-0.666 -0.161,-0.881c-0.069,-0.221 -0.189,-0.376 -0.36,-0.464c-0.164,-0.095 -0.413,-0.142 -0.748,-0.142l-0.786,0c-0.214,0 -0.379,0.019 -0.492,0.056c-0.108,0.032 -0.18,0.105 -0.218,0.218c-0.038,0.108 -0.057,0.278 -0.057,0.512l-0,4.697c-0,0.227 0.019,0.398 0.057,0.512c0.038,0.113 0.11,0.189 0.218,0.227c0.113,0.031 0.278,0.047 0.492,0.047l0.692,0c0.397,0 0.697,-0.053 0.899,-0.161c0.209,-0.107 0.357,-0.281 0.445,-0.521c0.095,-0.246 0.165,-0.577 0.209,-0.994l0.218,0c-0.019,0.17 -0.029,0.398 -0.029,0.682c-0,0.12 0.003,0.293 0.01,0.521c0.012,0.221 0.031,0.451 0.056,0.691c-0.322,-0.013 -0.685,-0.019 -1.089,-0.019c-0.404,-0.006 -0.764,-0.009 -1.079,-0.009l-0.758,0c-0.309,0 -0.641,0.003 -0.994,0.009c-0.354,0 -0.685,0.006 -0.995,0.019l-0,-0.189c0.215,-0.013 0.376,-0.038 0.483,-0.076c0.114,-0.038 0.19,-0.114 0.228,-0.227c0.037,-0.114 0.056,-0.285 0.056,-0.512l-0,-4.697c-0,-0.234 -0.019,-0.404 -0.056,-0.512c-0.038,-0.113 -0.114,-0.189 -0.228,-0.227c-0.107,-0.044 -0.268,-0.069 -0.483,-0.076l-0,-0.189c0.31,0.006 0.641,0.012 0.995,0.019c0.353,0.006 0.685,0.009 0.994,0.009l1.743,0c0.372,-0.006 0.704,-0.015 0.994,-0.028Zm-1.629,3.239l0,0.189l-1.733,0l0,-0.189l1.733,0Zm0.275,-1.25c-0.025,0.36 -0.038,0.634 -0.038,0.824c0.006,0.189 0.009,0.363 0.009,0.52c0,0.158 0.004,0.332 0.01,0.521c0.006,0.19 0.022,0.465 0.047,0.824l-0.218,0c-0.025,-0.202 -0.056,-0.397 -0.094,-0.587c-0.032,-0.196 -0.108,-0.353 -0.228,-0.473c-0.113,-0.127 -0.309,-0.19 -0.587,-0.19l0,-0.189c0.278,0 0.471,-0.073 0.578,-0.218c0.114,-0.145 0.186,-0.316 0.218,-0.511c0.031,-0.196 0.06,-0.37 0.085,-0.521l0.218,0Z" style="fill:#546065;fill-rule:nonzero;"/><path d="M52.209,4.818c0.706,-0 1.284,0.105 1.733,0.317c0.461,0.201 0.867,0.439 1.221,0.714c0.214,0.158 0.374,0.18 0.481,0.063c0.118,-0.127 0.198,-0.418 0.241,-0.872l0.369,0c-0.021,0.391 -0.037,0.867 -0.048,1.427c-0.011,0.561 -0.016,1.301 -0.016,2.221l-0.369,0c-0.075,-0.454 -0.145,-0.814 -0.209,-1.078c-0.064,-0.275 -0.144,-0.508 -0.241,-0.698c-0.085,-0.191 -0.203,-0.381 -0.353,-0.572c-0.332,-0.433 -0.749,-0.745 -1.252,-0.935c-0.503,-0.201 -1.033,-0.302 -1.59,-0.302c-0.524,0 -1,0.132 -1.428,0.397c-0.418,0.254 -0.782,0.624 -1.092,1.11c-0.3,0.487 -0.535,1.074 -0.706,1.761c-0.161,0.687 -0.241,1.459 -0.241,2.316c0,0.888 0.091,1.676 0.273,2.364c0.182,0.676 0.433,1.248 0.754,1.713c0.332,0.465 0.717,0.819 1.156,1.063c0.45,0.232 0.931,0.349 1.445,0.349c0.482,0 0.985,-0.095 1.509,-0.286c0.525,-0.19 0.937,-0.497 1.236,-0.92c0.236,-0.307 0.396,-0.64 0.482,-0.999c0.096,-0.36 0.182,-0.862 0.257,-1.507l0.369,0c0,0.962 0.005,1.739 0.016,2.332c0.011,0.581 0.027,1.073 0.048,1.475l-0.369,0c-0.043,-0.455 -0.118,-0.74 -0.225,-0.857c-0.096,-0.116 -0.262,-0.1 -0.497,0.048c-0.396,0.275 -0.819,0.518 -1.269,0.73c-0.438,0.2 -1.006,0.301 -1.701,0.301c-1.017,0 -1.911,-0.227 -2.682,-0.682c-0.759,-0.455 -1.353,-1.111 -1.782,-1.967c-0.417,-0.857 -0.626,-1.888 -0.626,-3.094c0,-1.184 0.22,-2.22 0.659,-3.109c0.438,-0.888 1.038,-1.581 1.798,-2.078c0.77,-0.497 1.653,-0.745 2.649,-0.745Z" style="fill:#546065;fill-rule:nonzero;"/><path d="M52.349,0c-2.062,0 -4.081,0.59 -5.818,1.701c-1.737,1.11 -3.12,2.695 -3.986,4.566l0.631,0.293c0.811,-1.751 2.105,-3.233 3.73,-4.272c1.625,-1.039 3.514,-1.591 5.443,-1.591c2.681,0 5.252,1.065 7.147,2.96c1.895,1.896 2.96,4.467 2.96,7.147c-0,2.681 -1.065,5.251 -2.96,7.147c-1.895,1.895 -4.466,2.96 -7.147,2.96c-1.93,0 -3.82,-0.552 -5.446,-1.592c-1.626,-1.04 -2.92,-2.524 -3.729,-4.276l-0.633,0.292c0.866,1.873 2.249,3.459 3.987,4.571c1.738,1.111 3.758,1.702 5.821,1.702c2.866,0 5.614,-1.138 7.64,-3.164c2.026,-2.026 3.164,-4.775 3.164,-7.64c-0,-2.865 -1.138,-5.613 -3.164,-7.64c-2.026,-2.026 -4.774,-3.164 -7.64,-3.164Zm-9.938,15.043c0.008,0.016 0.015,0.033 0.022,0.049c-0.007,-0.016 -0.014,-0.033 -0.021,-0.049l-0.001,-0Z" style="fill:#546065;fill-rule:nonzero;"/></svg>