<?xml version="1.0" encoding="UTF-8" standalone="no"?><!DOCTYPE svg PUBLIC "-//W3C//DTD SVG 1.1//EN" "http://www.w3.org/Graphics/SVG/1.1/DTD/svg11.dtd"><svg width="100%" height="100%" viewBox="0 0 116 18" version="1.1" xmlns="http://www.w3.org/2000/svg" xmlns:xlink="http://www.w3.org/1999/xlink" xml:space="preserve" xmlns:serif="http://www.serif.com/" style="fill-rule:evenodd;clip-rule:evenodd;stroke-linejoin:round;stroke-miterlimit:2;"><path d="M5.349,0l-2.635,8.869c-1.435,4.86 -2.674,8.965 -2.713,9.101c-0.005,0.011 0.014,0.02 0.021,0.03l14.15,0c3.533,-0.283 4.965,-0.935 6.573,-2.393c1.435,-1.297 2.182,-3.195 1.809,-4.55c-0.295,-1.104 -1.22,-1.84 -3.048,-2.44c-0.315,-0.097 -0.157,-0.213 0.767,-0.581c2.241,-0.891 3.657,-2.537 3.814,-4.415c0.079,-1.162 -0.393,-2.033 -1.494,-2.788c-1.121,-0.736 -2.262,-0.833 -9.93,-0.833l-7.314,0Zm22.73,0l-0.531,1.704c-0.275,0.93 -0.551,1.743 -0.61,1.84c-0.039,0.077 2.792,0.135 6.292,0.135l6.391,0l0.393,-1.297c0.236,-0.736 0.472,-1.549 0.531,-1.84l0.137,-0.542l-12.603,0Zm14.746,0l-0.393,1.317c-2.314,7.707 -4.914,16.504 -4.927,16.683l17.886,0l0.53,-1.773l0.59,-1.995l-5.486,-0.058c-5.112,-0.039 -5.486,-0.077 -5.388,-0.387c0.059,-0.174 0.983,-3.311 2.065,-6.971c1.101,-3.64 1.986,-6.661 1.986,-6.719c-0,-0.058 -1.554,-0.097 -3.441,-0.097l-3.422,0Zm20.076,0l-0.315,0.93c-0.59,1.839 -5.033,16.846 -5.033,17.059c-0,0.004 0.022,0.007 0.025,0.011l17.867,0l0.531,-1.831l0.61,-2.033l-5.486,0c-3.028,0 -5.486,-0.059 -5.486,-0.117c-0,-0.077 3.166,-10.785 4.051,-13.67c0.098,-0.329 -0.158,-0.349 -3.343,-0.349l-3.421,0Zm29.789,0l-3.363,1.801l-3.362,1.781l5.073,0.059c2.773,0.019 5.053,0.096 5.053,0.154c-0,0.116 -3.834,13.013 -4.129,13.884l-0.109,0.321l6.905,0l2.131,-7.098l2.143,-7.223l3.638,-0.038l3.618,-0.059l0.55,-1.781l0.531,-1.801l-18.679,0Zm-4.206,0.029c-0.582,-0.005 -1.398,-0 -2.303,0.01l-3.323,0.058l-0.55,1.839c-0.315,1.007 -0.57,1.937 -0.57,2.072c-0,0.174 7.255,-3.563 7.648,-3.93c0.03,-0.03 -0.319,-0.044 -0.902,-0.049Zm24.435,0.135l-0,0.248l0.461,-0l-0,1.035l0.381,-0l-0,-1.035l0.461,-0l-0,-0.248l-1.303,-0Zm1.533,-0l-0,1.283l0.359,-0l-0,-0.859l0.273,0.558l0.264,-0l0.273,-0.558l-0,0.859l0.379,-0l-0,-1.283l-0.442,-0l-0.332,0.643l-0.332,-0.643l-0.442,-0Zm-103.165,3.418l2.34,0.02c2.536,-0 3.146,0.174 3.342,0.929c0.158,0.659 -0.393,1.704 -1.16,2.15c-0.826,0.503 -5.446,0.716 -5.446,0.251c-0,-0.155 0.216,-0.968 0.472,-1.82l0.452,-1.53Zm71.193,1.479c-0.634,0.003 -1.037,0.012 -1.057,0.032c-0.039,0.039 -0.885,2.769 -1.848,6.06c-0.983,3.292 -1.868,6.216 -1.966,6.526l-0.109,0.321l6.992,-0l0.883,-2.935c0.511,-1.743 1.396,-4.686 1.947,-6.545l1.022,-3.389l-3.421,-0.058c-0.944,-0.01 -1.809,-0.014 -2.443,-0.012Zm-56.564,2.104l-0.413,1.413c-0.236,0.755 -0.452,1.511 -0.492,1.646c-0.059,0.174 1.141,0.232 5.604,0.232l5.683,-0l0.413,-1.394c0.235,-0.774 0.452,-1.529 0.491,-1.646c0.059,-0.193 -1.14,-0.251 -5.604,-0.251l-5.682,-0Zm-16.654,3.253l2.693,0.077c3.245,0.097 3.717,0.291 3.717,1.53c-0,0.639 -0.118,0.91 -0.61,1.355c-0.334,0.31 -0.924,0.639 -1.317,0.756c-1.043,0.271 -5.545,0.251 -5.545,-0.039c-0,-0.116 0.236,-0.988 0.531,-1.956l0.531,-1.723Zm14.491,3.911l-0.197,0.736c-0.118,0.387 -0.334,1.162 -0.511,1.685c-0.157,0.542 -0.432,1.215 -0.295,1.22l0.82,0.03l11.8,-0l0.141,-0.514c0.118,-0.407 0.334,-1.162 0.511,-1.705c0.158,-0.522 0.295,-1.084 0.295,-1.2c-0,-0.194 -1.396,-0.252 -6.292,-0.252l-6.272,-0Z" style="fill:#546065;fill-rule:nonzero;"/></svg>