<?xml version="1.0" encoding="UTF-8" standalone="no"?><!DOCTYPE svg PUBLIC "-//W3C//DTD SVG 1.1//EN" "http://www.w3.org/Graphics/SVG/1.1/DTD/svg11.dtd"><svg width="100%" height="100%" viewBox="0 0 32 32" version="1.1" xmlns="http://www.w3.org/2000/svg" xmlns:xlink="http://www.w3.org/1999/xlink" xml:space="preserve" xmlns:serif="http://www.serif.com/" style="fill-rule:evenodd;clip-rule:evenodd;stroke-linejoin:round;stroke-miterlimit:2;"><rect id="Artboard1" x="0" y="0" width="32" height="32" style="fill:none;"/><clipPath id="_clip1"><rect id="Artboard11" serif:id="Artboard1" x="0" y="0" width="32" height="32"/></clipPath><g clip-path="url(#_clip1)"><rect id="proficiency" x="0" y="0" width="32" height="32" style="fill:none;"/><g><g><path d="M32,6l-1.5,-0l-0,-4.5l-4.5,-0l-0,-1.5l6,-0l-0,6Z" style="fill:#5f67aa;"/><path d="M23,1.5l-0,-1.5l-21,-0c-1.104,-0 -2,0.896 -2,2l-0,28c-0,1.104 0.896,2 2,2l28,-0c1.104,-0 2,-0.896 2,-2l-0,-21l-1.5,-0l-0,21c-0,0.276 -0.224,0.5 -0.5,0.5l-28,-0c-0.276,-0 -0.5,-0.224 -0.5,-0.5l-0,-28c-0,-0.276 0.224,-0.5 0.5,-0.5l21,-0Z" style="fill:#5f67aa;"/></g><path d="M21.52,10l-11.04,0c-0.265,0 -0.48,0.215 -0.48,0.48l0,11.04c0,0.266 0.215,0.48 0.48,0.48l11.04,-0c0.266,-0 0.48,-0.214 0.48,-0.48l0,-11.04c0,-0.266 -0.214,-0.48 -0.48,-0.48Zm-7.14,8.565l0,1.155c0,0.066 -0.054,0.12 -0.12,0.12l-0.72,0c-0.066,0 -0.12,-0.054 -0.12,-0.12l0,-1.155c-0.625,-0.204 -1.08,-0.792 -1.08,-1.485c0,-0.693 0.455,-1.282 1.08,-1.485l0,-3.315c0,-0.066 0.054,-0.12 0.12,-0.12l0.72,-0c0.066,-0 0.12,0.054 0.12,0.12l0,3.315c0.626,0.204 1.08,0.792 1.08,1.485c0,0.693 -0.454,1.283 -1.08,1.485Zm4.194,-2.159c0.003,0 0.005,-0.001 0.006,-0.001l0,3.315c0,0.066 -0.054,0.12 -0.12,0.12l-0.72,0c-0.066,0 -0.12,-0.054 -0.12,-0.12l0,-3.315c0.003,0 0.005,0.002 0.006,0.002c-0.63,-0.201 -1.086,-0.791 -1.086,-1.487c0,-0.696 0.456,-1.285 1.086,-1.486c-0.003,-0 -0.004,0.001 -0.006,0.001l0,-1.155c0,-0.066 0.054,-0.12 0.12,-0.12l0.72,0c0.066,0 0.12,0.054 0.12,0.12l0,1.155c-0.003,0 -0.004,-0.001 -0.006,-0.001c0.63,0.201 1.086,0.79 1.086,1.486c0,0.696 -0.456,1.286 -1.086,1.487Zm-1.014,-1.487c0,0.296 0.244,0.54 0.54,0.54c0.296,0 0.54,-0.244 0.54,-0.54c0,-0.296 -0.244,-0.54 -0.54,-0.54c-0.296,0 -0.54,0.244 -0.54,0.54Zm-3.189,1.898l-0.022,-0.037c-0,-0.001 -0.002,-0.001 -0.002,-0.003l-0.013,-0.018c-0.002,-0.001 -0.003,-0.003 -0.003,-0.004c-0.015,-0.019 -0.03,-0.038 -0.048,-0.054l-0.003,-0.003c-0.006,-0.006 -0.012,-0.012 -0.018,-0.017c-0.012,-0.011 -0.026,-0.022 -0.039,-0.031l-0.002,-0l-0.018,-0.014c-0.001,-0.001 -0.004,-0.003 -0.006,-0.004c-0.018,-0.012 -0.037,-0.024 -0.058,-0.033c-0.003,-0.002 -0.008,-0.003 -0.011,-0.006c-0.006,-0.003 -0.01,-0.005 -0.016,-0.008c-0.005,-0.001 -0.011,-0.004 -0.015,-0.006c-0.008,-0.003 -0.015,-0.006 -0.023,-0.007c-0.006,-0.002 -0.013,-0.005 -0.019,-0.006l-0.014,-0.005l-0.021,-0.004c-0.003,-0.001 -0.007,-0.001 -0.01,-0.003c-0.011,-0.002 -0.021,-0.004 -0.032,-0.006c-0.003,0 -0.006,0 -0.009,-0.001c-0.009,-0.002 -0.016,-0.002 -0.025,-0.003c-0.003,-0 -0.006,-0 -0.011,-0.002c-0.012,0 -0.022,-0.002 -0.034,-0.002c-0.012,0 -0.023,0 -0.035,0.002c-0.003,0 -0.006,0 -0.01,0.002c-0.009,-0 -0.018,0.001 -0.026,0.003c-0.003,-0 -0.006,-0 -0.009,0.001c-0.01,0.002 -0.021,0.003 -0.031,0.006c-0.003,0.002 -0.008,0.002 -0.011,0.003l-0.021,0.005l-0.013,0.004c-0.006,0.002 -0.014,0.005 -0.02,0.006c-0.007,0.003 -0.015,0.006 -0.022,0.008c-0.005,0.001 -0.011,0.004 -0.015,0.006c-0.006,0.003 -0.011,0.004 -0.017,0.007c-0.003,0.002 -0.007,0.003 -0.01,0.006c-0.02,0.011 -0.039,0.021 -0.059,0.033c-0.001,0.002 -0.004,0.003 -0.006,0.004l-0.018,0.014l-0.001,-0c-0.014,0.01 -0.027,0.021 -0.039,0.031c-0.006,0.006 -0.012,0.011 -0.018,0.017l-0.003,0.003c-0.017,0.017 -0.033,0.035 -0.048,0.054c-0.002,0.002 -0.003,0.003 -0.003,0.005l-0.014,0.018c0,0.001 -0.001,0.001 -0.001,0.003l-0.023,0.036c-0.001,0.003 -0.003,0.004 -0.004,0.007c-0.041,0.077 -0.065,0.163 -0.065,0.255c0,0.091 0.024,0.18 0.065,0.255c0.001,0.003 0.003,0.005 0.004,0.008l0.023,0.036c-0,0.001 0.001,0.001 0.001,0.003l0.014,0.018c0.001,0.001 0.003,0.003 0.003,0.004c0.015,0.019 0.03,0.038 0.048,0.054l0.003,0.003c0.006,0.006 0.012,0.012 0.018,0.017c0.012,0.012 0.025,0.022 0.039,0.031l0.001,0l0.018,0.014c0.002,0.001 0.005,0.003 0.006,0.004c0.018,0.012 0.038,0.024 0.059,0.033c0.003,0.002 0.007,0.003 0.01,0.006c0.006,0.003 0.011,0.005 0.017,0.008c0.004,0.001 0.01,0.004 0.015,0.006c0.007,0.003 0.015,0.006 0.022,0.007c0.006,0.002 0.014,0.005 0.02,0.006l0.013,0.005l0.021,0.004c0.003,0.002 0.008,0.002 0.011,0.003c0.01,0.002 0.021,0.005 0.031,0.006c0.003,-0 0.006,-0 0.009,0.002c0.009,0.001 0.017,0.001 0.026,0.003c0.003,-0 0.006,-0 0.01,0.001c0.012,0 0.023,0.002 0.035,0.002c0.012,-0 0.022,-0 0.034,-0.002c0.003,0 0.006,0 0.011,-0.002c0.009,0 0.018,-0.001 0.025,-0.003c0.003,0 0.006,0 0.009,-0.001c0.011,-0.002 0.021,-0.003 0.032,-0.006c0.003,-0.002 0.007,-0.002 0.01,-0.003l0.021,-0.005l0.014,-0.004c0.006,-0.002 0.013,-0.005 0.019,-0.006c0.008,-0.003 0.015,-0.006 0.023,-0.008c0.004,-0.001 0.01,-0.004 0.015,-0.006c0.006,-0.003 0.01,-0.004 0.016,-0.007c0.003,-0.002 0.008,-0.003 0.011,-0.006c0.019,-0.011 0.039,-0.021 0.058,-0.033c0.002,-0.002 0.005,-0.003 0.006,-0.004l0.018,-0.014l0.002,0c0.013,-0.01 0.027,-0.021 0.039,-0.031c0.006,-0.006 0.012,-0.011 0.018,-0.017l0.003,-0.003c0.016,-0.016 0.033,-0.036 0.048,-0.054c0.001,-0.002 0.003,-0.003 0.003,-0.005l0.013,-0.018c0,-0.001 0.002,-0.001 0.002,-0.003l0.022,-0.036c0.002,-0.003 0.003,-0.004 0.005,-0.007c0.04,-0.076 0.064,-0.163 0.064,-0.255c0,-0.091 -0.024,-0.18 -0.064,-0.255c-0.002,-0.003 -0.003,-0.006 -0.005,-0.008Z" style="fill:#5f67aa;fill-rule:nonzero;"/></g></g></svg>