<?xml version="1.0" encoding="UTF-8" standalone="no"?><!DOCTYPE svg PUBLIC "-//W3C//DTD SVG 1.1//EN" "http://www.w3.org/Graphics/SVG/1.1/DTD/svg11.dtd"><svg width="100%" height="100%" viewBox="0 0 32 32" version="1.1" xmlns="http://www.w3.org/2000/svg" xmlns:xlink="http://www.w3.org/1999/xlink" xml:space="preserve" xmlns:serif="http://www.serif.com/" style="fill-rule:evenodd;clip-rule:evenodd;stroke-linejoin:round;stroke-miterlimit:2;"><rect id="excellence" x="0" y="0" width="32" height="32" style="fill:none;"/><g><path d="M6,0l0,1.5l-4.5,0l0,4.5l-1.5,0l0,-6l6,0Z" style="fill:#5f67aa;"/><path d="M1.5,9l-1.5,0l0,21c0,1.104 0.896,2 2,2l28,0c1.104,0 2,-0.896 2,-2l0,-28c0,-1.104 -0.896,-2 -2,-2l-21,0l0,1.5l21,0c0.276,0 0.5,0.224 0.5,0.5l0,28c0,0.276 -0.224,0.5 -0.5,0.5l-28,0c-0.276,0 -0.5,-0.224 -0.5,-0.5l0,-21Z" style="fill:#5f67aa;"/></g><path d="M19.175,15.943c0.419,-0.614 0.643,-1.336 0.643,-2.074c0,-0.989 -0.402,-1.938 -1.118,-2.638c-0.716,-0.7 -1.687,-1.093 -2.7,-1.093c-0.755,-0 -1.493,0.219 -2.121,0.629c-0.628,0.41 -1.118,0.993 -1.407,1.674c-0.289,0.682 -0.364,1.433 -0.217,2.156c0.147,0.724 0.511,1.389 1.045,1.911c0.534,0.522 1.214,0.877 1.955,1.021c0.741,0.144 1.508,0.07 2.206,-0.212c0.698,-0.282 1.294,-0.761 1.714,-1.374Zm2.252,0.424c0.377,-0.781 0.573,-1.634 0.573,-2.498c0.001,-0.988 -0.254,-1.96 -0.74,-2.827c-0.487,-0.866 -1.19,-1.598 -2.043,-2.128c-0.854,-0.53 -1.831,-0.84 -2.84,-0.902c-1.009,-0.063 -2.018,0.126 -2.933,0.547c-0.915,0.421 -1.706,1.061 -2.3,1.861c-0.594,0.799 -0.971,1.733 -1.097,2.714c-0.126,0.98 0.003,1.976 0.377,2.895c0.373,0.918 0.978,1.729 1.758,2.358l-0,5.078c-0.001,0.091 0.023,0.181 0.068,0.26c0.046,0.079 0.111,0.146 0.191,0.193c0.079,0.049 0.169,0.077 0.262,0.081c0.093,0.005 0.186,-0.014 0.27,-0.054l3.027,-1.486l3.027,1.486c0.078,0.033 0.161,0.051 0.246,0.053c0.144,0 0.283,-0.056 0.385,-0.156c0.103,-0.1 0.16,-0.236 0.16,-0.377l0,-5.078c0.682,-0.549 1.232,-1.238 1.609,-2.02Zm-1.345,-5.163c0.539,0.789 0.827,1.717 0.827,2.665c-0.002,1.272 -0.52,2.492 -1.44,3.391c-0.92,0.899 -2.168,1.405 -3.469,1.407c-0.971,0 -1.92,-0.281 -2.727,-0.808c-0.808,-0.528 -1.437,-1.277 -1.808,-2.154c-0.372,-0.876 -0.469,-1.841 -0.28,-2.772c0.19,-0.93 0.657,-1.785 1.344,-2.456c0.686,-0.671 1.561,-1.128 2.513,-1.313c0.953,-0.185 1.94,-0.09 2.837,0.273c0.897,0.363 1.663,0.978 2.203,1.767Zm-1.42,1.502l-0.706,-0.706l-2.584,2.588l-1.416,-1.412l-0.706,0.706l2.122,2.118l3.29,-3.294Z" style="fill:#5f67aa;"/></svg>