<?xml version="1.0" encoding="UTF-8" standalone="no"?><!DOCTYPE svg PUBLIC "-//W3C//DTD SVG 1.1//EN" "http://www.w3.org/Graphics/SVG/1.1/DTD/svg11.dtd"><svg width="100%" height="100%" viewBox="0 0 48 48" version="1.1" xmlns="http://www.w3.org/2000/svg" xmlns:xlink="http://www.w3.org/1999/xlink" xml:space="preserve" xmlns:serif="http://www.serif.com/" style="fill-rule:evenodd;clip-rule:evenodd;stroke-linejoin:round;stroke-miterlimit:2;"><path d="M43,0l-29,0l0,2l29,0c1.656,0 3,1.344 3,3l0,38c0,1.656 -1.344,3 -3,3l-38,0c-1.656,0 -3,-1.344 -3,-3l0,-29l-2,0l0,29c0,2.76 2.24,5 5,5l38,0c2.76,0 5,-2.24 5,-5l0,-38c0,-2.76 -2.24,-5 -5,-5Zm-33,0l-10,0l0,10l2,0l0,-8l8,0l0,-2Z" style="fill:#5d65a8;"/><g><path d="M36.138,34.364l-1.775,1.775c-0.485,0.481 -1.279,0.481 -1.763,0l-14.851,-14.826c-0.407,0.118 -0.827,0.181 -1.25,0.188c-2.742,-0.003 -4.997,-2.259 -4.997,-5.001c0,-0.553 0.092,-1.102 0.271,-1.625l3.176,3.175l3.1,-3.1l-3.175,-3.175c0.523,-0.18 1.072,-0.272 1.625,-0.272c2.742,0 4.998,2.255 5,4.997c-0.007,0.423 -0.07,0.844 -0.187,1.25l14.826,14.851c0.481,0.485 0.481,1.278 -0,1.763m-24.277,-1.763c-0.481,0.485 -0.481,1.278 -0,1.763l1.775,1.775c0.485,0.481 1.278,0.481 1.763,0l6.838,-6.826l-3.538,-3.537m15.301,-14.276l-5.001,2.5l0,2.5l-2.712,2.713l2.5,2.5l2.713,-2.712l2.5,-0l2.5,-5.001l-2.5,-2.5Z" style="fill:#5d65a8;fill-rule:nonzero;"/></g></svg>