<?xml version="1.0" encoding="UTF-8" standalone="no"?><!DOCTYPE svg PUBLIC "-//W3C//DTD SVG 1.1//EN" "http://www.w3.org/Graphics/SVG/1.1/DTD/svg11.dtd"><svg width="100%" height="100%" viewBox="0 0 48 48" version="1.1" xmlns="http://www.w3.org/2000/svg" xmlns:xlink="http://www.w3.org/1999/xlink" xml:space="preserve" xmlns:serif="http://www.serif.com/" style="fill-rule:evenodd;clip-rule:evenodd;stroke-linejoin:round;stroke-miterlimit:2;"><path d="M5,48l29,0l0,-2l-29,0c-1.656,0 -3,-1.344 -3,-3l0,-38c0,-1.656 1.344,-3 3,-3l38,0c1.656,0 3,1.344 3,3l0,29l2,0l0,-29c0,-2.76 -2.24,-5 -5,-5l-38,0c-2.76,0 -5,2.24 -5,5l0,38c0,2.76 2.24,5 5,5Zm33,0l10,0l0,-10l-2,0l0,8l-8,0l0,2Z" style="fill:#5d65a8;"/><g><path d="M22.191,36.5l-9.882,0c-0.173,-0 -0.334,-0.09 -0.425,-0.237c-0.091,-0.148 -0.1,-0.332 -0.022,-0.487c1.793,-3.585 9.716,-19.431 11.691,-23.382c0.084,-0.169 0.258,-0.276 0.447,-0.276c0.189,0 0.363,0.107 0.447,0.276c1.975,3.951 9.898,19.797 11.691,23.382c0.078,0.155 0.069,0.339 -0.022,0.487c-0.091,0.147 -0.252,0.237 -0.425,0.237l-9.882,0l0.005,-6.076c0.267,-0.147 0.513,-0.33 0.732,-0.541c1.395,-1.398 1.395,-3.694 -0.002,-5.091c-0.281,-0.281 -0.608,-0.514 -0.965,-0.689l-0,3.234l-3.157,-0l-0.001,-3.234c-0.357,0.175 -0.684,0.408 -0.965,0.689c-1.397,1.397 -1.397,3.693 -0.002,5.091c0.219,0.212 0.464,0.394 0.732,0.541l0.005,6.076Z" style="fill:#5d65a8;"/></g></svg>