<?xml version="1.0" encoding="UTF-8" standalone="no"?><!DOCTYPE svg PUBLIC "-//W3C//DTD SVG 1.1//EN" "http://www.w3.org/Graphics/SVG/1.1/DTD/svg11.dtd"><svg width="100%" height="100%" viewBox="0 0 48 48" version="1.1" xmlns="http://www.w3.org/2000/svg" xmlns:xlink="http://www.w3.org/1999/xlink" xml:space="preserve" xmlns:serif="http://www.serif.com/" style="fill-rule:evenodd;clip-rule:evenodd;stroke-linejoin:round;stroke-miterlimit:2;"><path d="M48,43l0,-29l-2,0l0,29c0,1.656 -1.344,3 -3,3l-38,0c-1.656,0 -3,-1.344 -3,-3l0,-38c0,-1.656 1.344,-3 3,-3l29,0l0,-2l-29,0c-2.76,0 -5,2.24 -5,5l0,38c0,2.76 2.24,5 5,5l38,0c2.76,0 5,-2.24 5,-5Zm0,-33l0,-10l-10,0l0,2l8,0l0,8l2,0Z" style="fill:#5d65a8;"/><g><path d="M24,16.687c-0.216,-0 -0.43,0.009 -0.641,0.028c-0.679,0.059 -1.178,0.561 -1.332,1.152l-0.265,1.011c-0.016,0.06 -0.072,0.145 -0.194,0.205c-0.211,0.104 -0.415,0.223 -0.61,0.353c-0.112,0.075 -0.213,0.082 -0.273,0.065l-1.009,-0.277c-0.589,-0.161 -1.272,0.019 -1.663,0.576c-0.246,0.35 -0.462,0.721 -0.644,1.113c-0.288,0.617 -0.102,1.3 0.332,1.729l0.745,0.736c0.046,0.044 0.09,0.135 0.08,0.269c-0.007,0.117 -0.011,0.235 -0.011,0.353c0,0.118 0.004,0.236 0.011,0.353c0.01,0.134 -0.034,0.225 -0.08,0.269l-0.745,0.736c-0.434,0.429 -0.62,1.112 -0.332,1.729c0.182,0.392 0.398,0.763 0.644,1.113c0.391,0.557 1.074,0.737 1.663,0.576l1.009,-0.277c0.06,-0.017 0.161,-0.01 0.273,0.065c0.195,0.131 0.399,0.249 0.61,0.353c0.122,0.06 0.178,0.145 0.194,0.205l0.265,1.011c0.154,0.591 0.653,1.093 1.332,1.152c0.211,0.019 0.425,0.028 0.641,0.028c0.216,0 0.43,-0.009 0.641,-0.028c0.679,-0.059 1.178,-0.561 1.332,-1.152l0.265,-1.011c0.016,-0.06 0.072,-0.145 0.194,-0.205c0.211,-0.104 0.415,-0.222 0.61,-0.353c0.112,-0.075 0.213,-0.082 0.273,-0.065l1.009,0.277c0.589,0.161 1.272,-0.019 1.663,-0.576c0.246,-0.35 0.462,-0.721 0.644,-1.113c0.288,-0.617 0.102,-1.3 -0.332,-1.729l-0.745,-0.736c-0.045,-0.044 -0.09,-0.135 -0.08,-0.269c0.007,-0.117 0.011,-0.235 0.011,-0.353c-0,-0.118 -0.004,-0.236 -0.011,-0.353c-0.01,-0.134 0.035,-0.225 0.08,-0.269l0.745,-0.736c0.434,-0.429 0.62,-1.112 0.332,-1.729c-0.182,-0.392 -0.398,-0.763 -0.644,-1.113c-0.391,-0.557 -1.074,-0.737 -1.663,-0.576l-1.009,0.277c-0.06,0.017 -0.161,0.01 -0.273,-0.065c-0.195,-0.13 -0.399,-0.249 -0.61,-0.353c-0.122,-0.06 -0.178,-0.145 -0.194,-0.205l-0.265,-1.011c-0.154,-0.591 -0.653,-1.093 -1.332,-1.152c-0.211,-0.019 -0.425,-0.028 -0.641,-0.028Zm2.742,7.313c0,1.515 -1.227,2.742 -2.742,2.742c-1.515,0 -2.742,-1.227 -2.742,-2.742c-0,-1.515 1.227,-2.742 2.742,-2.742c1.515,-0 2.742,1.227 2.742,2.742Z" style="fill:#5d65a8;"/><g><path d="M39.513,18.761l-2.821,5.239l-4.239,-4.174l7.06,-1.065Z" style="fill:#5d65a8;"/><path d="M8.487,29.239l2.821,-5.239l4.239,4.174l-7.06,1.065Z" style="fill:#5d65a8;"/></g><path d="M10.649,20.7l2.191,0c1.422,-4.818 5.881,-8.335 11.16,-8.335c5.224,0 9.644,3.443 11.114,8.184l2.021,-0.627c-1.738,-5.603 -6.961,-9.672 -13.135,-9.672c-6.456,-0 -11.873,4.45 -13.351,10.45Z" style="fill:#5d65a8;"/><path d="M37.351,27.3l-2.191,0c-1.422,4.818 -5.881,8.335 -11.16,8.335c-5.224,-0 -9.644,-3.443 -11.114,-8.184l-2.021,0.627c1.738,5.603 6.961,9.672 13.135,9.672c6.456,0 11.873,-4.45 13.351,-10.45Z" style="fill:#5d65a8;"/></g></svg>