<?xml version="1.0" encoding="UTF-8" standalone="no"?><!DOCTYPE svg PUBLIC "-//W3C//DTD SVG 1.1//EN" "http://www.w3.org/Graphics/SVG/1.1/DTD/svg11.dtd"><svg width="100%" height="100%" viewBox="0 0 48 48" version="1.1" xmlns="http://www.w3.org/2000/svg" xmlns:xlink="http://www.w3.org/1999/xlink" xml:space="preserve" xmlns:serif="http://www.serif.com/" style="fill-rule:evenodd;clip-rule:evenodd;stroke-linejoin:round;stroke-miterlimit:2;"><path d="M48,43l0,-29l-2,0l0,29c0,1.656 -1.344,3 -3,3l-38,0c-1.656,0 -3,-1.344 -3,-3l0,-38c0,-1.656 1.344,-3 3,-3l29,0l0,-2l-29,0c-2.76,0 -5,2.24 -5,5l0,38c0,2.76 2.24,5 5,5l38,0c2.76,0 5,-2.24 5,-5Zm0,-33l0,-10l-10,0l0,2l8,0l0,8l2,0Z" style="fill:#5d65a8;"/><g><g><path d="M30.329,11.508c-0.197,0 -0.392,0.009 -0.584,0.025c-0.619,0.055 -1.074,0.513 -1.215,1.051l-0.241,0.922c-0.015,0.055 -0.066,0.132 -0.177,0.187c-0.193,0.095 -0.379,0.203 -0.556,0.321c-0.103,0.069 -0.194,0.075 -0.249,0.059l-0.919,-0.251c-0.537,-0.148 -1.16,0.016 -1.517,0.524c-0.223,0.319 -0.421,0.658 -0.587,1.015c-0.262,0.562 -0.092,1.185 0.303,1.576l0.679,0.671c0.042,0.04 0.082,0.123 0.073,0.245c-0.006,0.107 -0.01,0.214 -0.01,0.322c0,0.108 0.004,0.215 0.01,0.322c0.009,0.122 -0.031,0.205 -0.073,0.245l-0.679,0.671c-0.395,0.391 -0.565,1.014 -0.303,1.576c0.166,0.357 0.364,0.696 0.587,1.015c0.357,0.508 0.98,0.672 1.517,0.524l0.919,-0.251c0.055,-0.016 0.146,-0.009 0.249,0.059c0.177,0.119 0.363,0.227 0.556,0.322c0.111,0.055 0.162,0.131 0.177,0.186l0.241,0.922c0.141,0.538 0.596,0.996 1.215,1.051c0.192,0.016 0.387,0.025 0.584,0.025c0.197,-0 0.392,-0.009 0.584,-0.025c0.619,-0.055 1.074,-0.513 1.215,-1.051l0.241,-0.922c0.015,-0.055 0.066,-0.131 0.177,-0.186c0.193,-0.095 0.379,-0.203 0.556,-0.322c0.103,-0.068 0.195,-0.075 0.25,-0.059l0.919,0.251c0.536,0.148 1.16,-0.016 1.516,-0.524c0.224,-0.319 0.421,-0.658 0.587,-1.015c0.263,-0.562 0.093,-1.185 -0.302,-1.576l-0.68,-0.671c-0.04,-0.04 -0.081,-0.123 -0.073,-0.245c0.007,-0.107 0.01,-0.214 0.01,-0.322c0,-0.108 -0.003,-0.215 -0.01,-0.322c-0.008,-0.122 0.033,-0.205 0.073,-0.245l0.68,-0.671c0.395,-0.391 0.565,-1.014 0.302,-1.576c-0.166,-0.357 -0.363,-0.696 -0.587,-1.015c-0.356,-0.508 -0.98,-0.672 -1.516,-0.524l-0.919,0.251c-0.055,0.016 -0.147,0.01 -0.25,-0.059c-0.177,-0.118 -0.363,-0.226 -0.556,-0.321c-0.111,-0.055 -0.162,-0.132 -0.177,-0.187l-0.241,-0.922c-0.141,-0.538 -0.596,-0.996 -1.215,-1.051c-0.192,-0.016 -0.387,-0.025 -0.584,-0.025Zm2.5,6.667c0,1.381 -1.119,2.5 -2.5,2.5c-1.381,0 -2.5,-1.119 -2.5,-2.5c0,-1.381 1.119,-2.5 2.5,-2.5c1.381,0 2.5,1.119 2.5,2.5Z" style="fill:#5d65a8;"/><path d="M35.811,31.265c-0.464,-0.475 -1.046,-0.713 -1.723,-0.713l-8.315,0l-2.47,-0.867l0.391,-1.117l2.079,0.796l3.326,0c0.416,0 0.748,-0.166 1.022,-0.439c0.273,-0.273 0.404,-0.606 0.404,-0.974c-0,-0.642 -0.309,-1.081 -0.927,-1.33l-8.635,-3.196l-2.317,0l-0,10.691l8.315,2.376l9.538,-3.564c0.013,-0.63 -0.225,-1.188 -0.688,-1.663m-19.54,-7.84l-4.771,0l0,13.067l4.771,-0l-0,-13.067Z" style="fill:#5d65a8;fill-rule:nonzero;"/></g></g></svg>