<?xml version="1.0" encoding="UTF-8" standalone="no"?><!DOCTYPE svg PUBLIC "-//W3C//DTD SVG 1.1//EN" "http://www.w3.org/Graphics/SVG/1.1/DTD/svg11.dtd"><svg width="100%" height="100%" viewBox="0 0 48 48" version="1.1" xmlns="http://www.w3.org/2000/svg" xmlns:xlink="http://www.w3.org/1999/xlink" xml:space="preserve" xmlns:serif="http://www.serif.com/" style="fill-rule:evenodd;clip-rule:evenodd;stroke-linejoin:round;stroke-miterlimit:2;"><path d="M5,48l29,0l0,-2l-29,0c-1.656,0 -3,-1.344 -3,-3l0,-38c0,-1.656 1.344,-3 3,-3l38,0c1.656,0 3,1.344 3,3l0,29l2,0l0,-29c0,-2.76 -2.24,-5 -5,-5l-38,0c-2.76,0 -5,2.24 -5,5l0,38c0,2.76 2.24,5 5,5Zm33,0l10,0l0,-10l-2,0l0,8l-8,0l0,2Z" style="fill:#5d65a8;"/><path d="M24,11.5l9.337,2.075c0.519,0.115 0.89,0.578 0.89,1.109l0,11.349c0,2.277 -1.141,4.409 -3.036,5.673l-7.191,4.794l-7.191,-4.794c-1.895,-1.263 -3.036,-3.395 -3.037,-5.672l0,-11.35c0,-0.531 0.372,-0.994 0.89,-1.109l9.338,-2.075Zm5.059,8.207l-5.625,5.624l-3.213,-3.214l-1.608,1.607l4.822,4.822l7.232,-7.233l-1.608,-1.606Z" style="fill:#5d65a8;fill-rule:nonzero;"/></svg>