<?xml version="1.0" encoding="UTF-8" standalone="no"?><!DOCTYPE svg PUBLIC "-//W3C//DTD SVG 1.1//EN" "http://www.w3.org/Graphics/SVG/1.1/DTD/svg11.dtd"><svg width="100%" height="100%" viewBox="0 0 32 32" version="1.1" xmlns="http://www.w3.org/2000/svg" xmlns:xlink="http://www.w3.org/1999/xlink" xml:space="preserve" xmlns:serif="http://www.serif.com/" style="fill-rule:evenodd;clip-rule:evenodd;stroke-linejoin:round;stroke-miterlimit:2;"><rect id="space" x="0" y="0" width="32" height="32" style="fill:none;"/><clipPath id="_clip1"><rect x="0" y="0" width="32" height="32"/></clipPath><g clip-path="url(#_clip1)"><path d="M10.706,9.529c-0.387,0 -0.706,0.319 -0.706,0.706l-0,11.059c-0,0.258 0.212,0.471 0.471,0.471c0.258,-0 0.47,-0.213 0.47,-0.471l0,-3.294l3.399,0c0.513,-2.248 2.771,-3.686 5.025,-3.2l-0.777,-1.035l2.612,-3.483c0.061,-0.081 0.094,-0.18 0.094,-0.282c0,-0.258 -0.212,-0.471 -0.47,-0.471l-10.118,0Zm7.765,12.942c-1.937,-0 -3.53,-1.594 -3.53,-3.53c0,-1.936 1.593,-3.529 3.53,-3.529c1.936,-0 3.529,1.593 3.529,3.529c-0,1.936 -1.593,3.53 -3.529,3.53Zm-0.118,-5.883c-0.194,0 -0.353,0.16 -0.353,0.353l-0,2.118c-0,0.195 0.158,0.353 0.353,0.353l1.647,-0c0.194,-0 0.353,-0.16 0.353,-0.353c-0,-0.194 -0.159,-0.353 -0.353,-0.353l-1.294,-0l-0,-1.765c-0,-0.193 -0.159,-0.353 -0.353,-0.353Z" style="fill:#5f67aa;fill-rule:nonzero;"/><g><path d="M26,32l0,-1.5l4.5,0l0,-4.5l1.5,0l0,6l-6,0Z" style="fill:#5f67aa;"/><path d="M30.5,23l1.5,0l-0,-21c-0,-1.104 -0.896,-2 -2,-2l-28,0c-1.104,0 -2,0.896 -2,2l-0,28c-0,1.104 0.896,2 2,2l21,0l-0,-1.5l-21,0c-0.276,0 -0.5,-0.224 -0.5,-0.5l-0,-28c-0,-0.276 0.224,-0.5 0.5,-0.5l28,0c0.276,0 0.5,0.224 0.5,0.5l-0,21Z" style="fill:#5f67aa;"/></g></g></svg>