<?xml version="1.0" encoding="UTF-8" standalone="no"?><!DOCTYPE svg PUBLIC "-//W3C//DTD SVG 1.1//EN" "http://www.w3.org/Graphics/SVG/1.1/DTD/svg11.dtd"><svg width="100%" height="100%" viewBox="0 0 32 32" version="1.1" xmlns="http://www.w3.org/2000/svg" xmlns:xlink="http://www.w3.org/1999/xlink" xml:space="preserve" xmlns:serif="http://www.serif.com/" style="fill-rule:evenodd;clip-rule:evenodd;stroke-linejoin:round;stroke-miterlimit:2;"><rect id="Artboard1" x="0" y="0" width="32" height="32" style="fill:none;"/><clipPath id="_clip1"><rect id="Artboard11" serif:id="Artboard1" x="0" y="0" width="32" height="32"/></clipPath><g clip-path="url(#_clip1)"><rect id="proficiency" x="0" y="0" width="32" height="32" style="fill:none;"/><g><g><path d="M6,0l0,1.5l-4.5,-0l0,4.5l-1.5,-0l0,-6l6,0Z" style="fill:#5f67aa;"/><path d="M1.5,9l-1.5,-0l0,21c0,1.104 0.896,2 2,2l28,0c1.104,0 2,-0.896 2,-2l0,-28c0,-1.104 -0.896,-2 -2,-2l-21,0l0,1.5l21,0c0.276,0 0.5,0.224 0.5,0.5l0,28c0,0.276 -0.224,0.5 -0.5,0.5l-28,-0c-0.276,-0 -0.5,-0.224 -0.5,-0.5l0,-21Z" style="fill:#5f67aa;"/></g></g><path d="M16.189,9.381l-4.951,0c-0.679,0 -1.238,0.559 -1.238,1.238l0,9.902c0,0.679 0.559,1.238 1.238,1.238l4.332,-0c-0.254,-0.155 -0.495,-0.347 -0.706,-0.557c-0.825,-0.759 -1.295,-1.831 -1.295,-2.952c-0,-1.012 0.383,-1.988 1.073,-2.73c1.355,-1.497 3.608,-1.726 5.26,-0.569l0,-1.857l-3.713,-3.713m-0.619,4.332l-0,-3.404l3.404,3.404l-3.404,0m4.524,6.127c0.823,-1.306 0.427,-3.032 -0.867,-3.849c-1.305,-0.823 -3.038,-0.421 -3.849,0.866c-0.829,1.306 -0.427,3.026 0.866,3.85c0.904,0.575 2.055,0.575 2.965,0.012l1.931,1.9l0.86,-0.86l-1.906,-1.919m-2.358,0.062c-0.849,0 -1.547,-0.698 -1.547,-1.547c-0,-0.849 0.698,-1.547 1.547,-1.547c0.849,-0 1.547,0.698 1.547,1.547c0,0.849 -0.698,1.547 -1.547,1.547Z" style="fill:#5f67aa;fill-rule:nonzero;"/></g></svg>