<?xml version="1.0" encoding="UTF-8" standalone="no"?><!DOCTYPE svg PUBLIC "-//W3C//DTD SVG 1.1//EN" "http://www.w3.org/Graphics/SVG/1.1/DTD/svg11.dtd"><svg width="100%" height="100%" viewBox="0 0 32 32" version="1.1" xmlns="http://www.w3.org/2000/svg" xmlns:xlink="http://www.w3.org/1999/xlink" xml:space="preserve" xmlns:serif="http://www.serif.com/" style="fill-rule:evenodd;clip-rule:evenodd;stroke-linejoin:round;stroke-miterlimit:2;"><rect id="passion" x="0" y="0" width="32" height="32" style="fill:none;"/><g id="passion1" serif:id="passion"><path d="M18.7,10.75c-1.044,0 -2.046,0.463 -2.7,1.196c-0.654,-0.733 -1.656,-1.196 -2.7,-1.196c-1.848,0 -3.3,1.385 -3.3,3.147c0,2.163 2.04,3.925 5.13,6.603l0.87,0.75l0.87,-0.755c3.09,-2.673 5.13,-4.435 5.13,-6.598c0,-1.762 -1.452,-3.147 -3.3,-3.147Z" style="fill:#5f67aa;fill-rule:nonzero;"/><path d="M6,0l0,1.5l-4.5,-0l0,4.5l-1.5,0l0,-6l6,0Z" style="fill:#5f67aa;"/><path d="M1.5,9l-1.5,0l0,21c0,1.104 0.896,2 2,2l28,0c1.104,0 2,-0.896 2,-2l0,-28c0,-1.104 -0.896,-2 -2,-2l-21,0l0,1.5l21,0c0.276,0 0.5,0.224 0.5,0.5l0,28c0,0.276 -0.224,0.5 -0.5,0.5l-28,0c-0.276,0 -0.5,-0.224 -0.5,-0.5l0,-21Z" style="fill:#5f67aa;"/></g></svg>