<?xml version="1.0" encoding="UTF-8" standalone="no"?><!DOCTYPE svg PUBLIC "-//W3C//DTD SVG 1.1//EN" "http://www.w3.org/Graphics/SVG/1.1/DTD/svg11.dtd"><svg width="100%" height="100%" viewBox="0 0 32 32" version="1.1" xmlns="http://www.w3.org/2000/svg" xmlns:xlink="http://www.w3.org/1999/xlink" xml:space="preserve" xmlns:serif="http://www.serif.com/" style="fill-rule:evenodd;clip-rule:evenodd;stroke-linejoin:round;stroke-miterlimit:2;"><rect id="proficiency" x="0" y="0" width="32" height="32" style="fill:none;"/><clipPath id="_clip1"><rect x="0" y="0" width="32" height="32"/></clipPath><g clip-path="url(#_clip1)"><g><path d="M26,32l0,-1.5l4.5,0l0,-4.5l1.5,0l0,6l-6,0Z" style="fill:#5f67aa;"/><path d="M30.5,23l1.5,0l0,-21c0,-1.104 -0.896,-2 -2,-2l-28,0c-1.104,0 -2,0.896 -2,2l0,28c0,1.104 0.896,2 2,2l21,0l0,-1.5l-21,0c-0.276,0 -0.5,-0.224 -0.5,-0.5l0,-28c0,-0.276 0.224,-0.5 0.5,-0.5l28,0c0.276,0 0.5,0.224 0.5,0.5l0,21Z" style="fill:#5f67aa;"/></g><g><g><path d="M21.614,20.069c-0.26,-0.266 -0.586,-0.399 -0.965,-0.399l-4.657,-0l-1.384,-0.486l0.219,-0.625l1.165,0.445l1.863,0c0.233,0 0.419,-0.093 0.572,-0.245c0.153,-0.153 0.227,-0.34 0.227,-0.546c-0,-0.36 -0.173,-0.605 -0.52,-0.745l-4.836,-1.79l-1.298,-0l0,5.988l4.657,1.331l5.343,-1.996c0.007,-0.353 -0.126,-0.666 -0.386,-0.932" style="fill:#5f67aa;fill-rule:nonzero;"/><rect x="10" y="15.08" width="1" height="7.319" style="fill:#5f67aa;"/></g><path d="M21.176,12.954c0.015,-0.112 0.022,-0.228 0.022,-0.352c0,-0.12 -0.007,-0.24 -0.026,-0.352l0.761,-0.593c0.068,-0.055 0.087,-0.151 0.045,-0.228l-0.72,-1.245c-0.043,-0.077 -0.137,-0.112 -0.221,-0.083l-0.896,0.36c-0.187,-0.142 -0.386,-0.262 -0.607,-0.352l-0.135,-0.952c-0.014,-0.089 -0.091,-0.154 -0.18,-0.154l-1.44,0c-0.09,0 -0.161,0.064 -0.176,0.154l-0.135,0.952c-0.221,0.09 -0.423,0.214 -0.607,0.352l-0.896,-0.36c-0.083,-0.029 -0.176,0 -0.221,0.083l-0.716,1.245c-0.045,0.078 -0.03,0.176 0.045,0.228l0.761,0.593c-0.019,0.112 -0.034,0.236 -0.034,0.352c-0,0.116 0.007,0.24 0.026,0.352l-0.761,0.593c-0.067,0.055 -0.086,0.152 -0.045,0.228l0.72,1.245c0.045,0.083 0.139,0.109 0.221,0.083l0.896,-0.36c0.188,0.142 0.386,0.262 0.608,0.352l0.134,0.952c0.019,0.09 0.09,0.154 0.18,0.154l1.44,0c0.09,0 0.165,-0.064 0.176,-0.154l0.135,-0.952c0.221,-0.09 0.424,-0.21 0.608,-0.352l0.896,0.36c0.082,0.03 0.176,-0 0.221,-0.083l0.72,-1.245c0.044,-0.082 0.026,-0.176 -0.045,-0.228l-0.754,-0.593Zm-2.677,0.998c-0.742,-0 -1.349,-0.608 -1.349,-1.35c-0,-0.742 0.607,-1.35 1.349,-1.35c0.743,0 1.35,0.608 1.35,1.35c-0,0.742 -0.607,1.35 -1.35,1.35Z" style="fill:#5f67aa;fill-rule:nonzero;"/></g></g></svg>