<?xml version="1.0" encoding="UTF-8" standalone="no"?><!DOCTYPE svg PUBLIC "-//W3C//DTD SVG 1.1//EN" "http://www.w3.org/Graphics/SVG/1.1/DTD/svg11.dtd"><svg width="100%" height="100%" viewBox="0 0 32 32" version="1.1" xmlns="http://www.w3.org/2000/svg" xmlns:xlink="http://www.w3.org/1999/xlink" xml:space="preserve" xmlns:serif="http://www.serif.com/" style="fill-rule:evenodd;clip-rule:evenodd;stroke-linejoin:round;stroke-miterlimit:2;"><rect id="Artboard1" x="0" y="0" width="32" height="32" style="fill:none;"/><g id="Artboard11" serif:id="Artboard1"><rect id="proficiency" x="0" y="0" width="32" height="32" style="fill:none;"/><g><g><path d="M26,32l0,-1.5l4.5,0l0,-4.5l1.5,0l0,6l-6,0Z" style="fill:#5f67aa;"/><path d="M30.5,23l1.5,0l0,-21c0,-1.104 -0.896,-2 -2,-2l-28,0c-1.104,0 -2,0.896 -2,2l0,28c0,1.104 0.896,2 2,2l21,0l0,-1.5l-21,0c-0.276,0 -0.5,-0.224 -0.5,-0.5l0,-28c0,-0.276 0.224,-0.5 0.5,-0.5l28,0c0.276,0 0.5,0.224 0.5,0.5l0,21Z" style="fill:#5f67aa;"/></g><path d="M20.548,10c-1.741,0 -3.409,0.692 -4.64,1.923l-0.344,0.343c-0.236,0.235 -0.462,0.481 -0.678,0.734l-2.403,0c-0.224,0 -0.444,0.058 -0.64,0.167c-0.195,0.109 -0.36,0.267 -0.477,0.458l-1.283,2.08c-0.044,0.074 -0.072,0.155 -0.08,0.241c-0.009,0.085 0.003,0.172 0.033,0.253c0.03,0.08 0.078,0.152 0.141,0.211c0.062,0.058 0.138,0.102 0.22,0.127l2.326,0.716c0.028,0.038 0.06,0.075 0.093,0.109l1.822,1.821c0.034,0.034 0.07,0.065 0.109,0.093l0.715,2.327c0.025,0.081 0.069,0.157 0.128,0.219c0.059,0.063 0.131,0.111 0.211,0.141c0.081,0.031 0.167,0.042 0.253,0.034c0.085,-0.009 0.167,-0.036 0.241,-0.081l2.08,-1.28c0.191,-0.118 0.348,-0.282 0.458,-0.477c0.109,-0.196 0.166,-0.416 0.166,-0.64l0,-2.406c0.254,-0.216 0.499,-0.442 0.735,-0.678l0.343,-0.344c1.231,-1.23 1.922,-2.899 1.923,-4.639l0,-0.139c0,-0.348 -0.138,-0.682 -0.385,-0.928c-0.246,-0.247 -0.58,-0.385 -0.928,-0.385l-0.139,0Zm-2.673,7.968c-0.066,0.045 -0.132,0.089 -0.199,0.131l-1.762,1.141l0.263,0.857l1.634,-0.9c0.027,-0.016 0.064,-1.229 0.064,-1.229Zm-5.116,-1.881l1.142,-1.763c0.043,-0.067 0.087,-0.133 0.132,-0.199c-0,-0 -1.214,0.038 -1.23,0.064l-0.9,1.634l0.856,0.264Zm6.241,-2.337c0,0.199 -0.078,0.39 -0.22,0.53c-0.14,0.141 -0.331,0.22 -0.53,0.22c-0.199,0 -0.39,-0.079 -0.53,-0.22c-0.141,-0.14 -0.22,-0.331 -0.22,-0.53c0,-0.199 0.079,-0.39 0.22,-0.53c0.14,-0.141 0.331,-0.22 0.53,-0.22c0.199,0 0.39,0.079 0.53,0.22c0.142,0.14 0.22,0.331 0.22,0.53Zm-6.329,7.169c0.11,-0.103 0.199,-0.227 0.261,-0.365c0.061,-0.138 0.094,-0.286 0.096,-0.438c0.003,-0.151 -0.024,-0.301 -0.081,-0.441c-0.056,-0.14 -0.14,-0.268 -0.248,-0.374c-0.106,-0.107 -0.234,-0.191 -0.374,-0.248c-0.14,-0.057 -0.29,-0.084 -0.441,-0.081c-0.15,0.002 -0.3,0.036 -0.438,0.096c-0.138,0.062 -0.262,0.151 -0.365,0.261c-0.55,0.548 -0.785,1.749 -0.862,2.252c-0.005,0.027 -0.003,0.055 0.006,0.082c0.008,0.025 0.022,0.049 0.042,0.069c0.019,0.02 0.043,0.034 0.069,0.042c0.027,0.009 0.054,0.01 0.081,0.006c0.503,-0.077 1.705,-0.312 2.254,-0.861Z" style="fill:#5d65a8;"/></g></g></svg>