<svg width="250" height="384" viewBox="0 0 250 384" fill="none" xmlns="http://www.w3.org/2000/svg">
<path fill-rule="evenodd" clip-rule="evenodd" d="M58.5 76C69.8218 76 79 85.1782 79 96.5V186H143.5C154.822 186 164 195.178 164 206.5C164 217.822 154.822 227 143.5 227H58.5C47.1782 227 38 217.822 38 206.5V96.5C38 85.1782 47.1782 76 58.5 76Z" fill="#5F67AA"/>
<path fill-rule="evenodd" clip-rule="evenodd" d="M0 375.077C18.3008 380.873 37.7866 384 58 384C164.004 384 250 298.004 250 192C250 85.9959 164.004 0 58 0C37.7866 0 18.3008 3.12686 0 8.92307V52.5514C17.8598 45.1097 37.4523 41 58 41C141.36 41 209 108.64 209 192C209 275.36 141.36 343 58 343C37.4523 343 17.8598 338.89 0 331.449V375.077Z" fill="#5F67AA"/>
</svg>
