<?xml version="1.0" encoding="UTF-8" standalone="no"?>
<!DOCTYPE svg PUBLIC "-//W3C//DTD SVG 1.1//EN" "http://www.w3.org/Graphics/SVG/1.1/DTD/svg11.dtd">
<svg width="100%" height="100%" viewBox="0 0 6466 1505" version="1.1" xmlns="http://www.w3.org/2000/svg" xmlns:xlink="http://www.w3.org/1999/xlink" xml:space="preserve" xmlns:serif="http://www.serif.com/" style="fill-rule:evenodd;clip-rule:evenodd;stroke-linecap:round;stroke-linejoin:round;stroke-miterlimit:1.5;">
    <g transform="matrix(1,0,0,1,2.08333,-327.917)">
        <g id="mapa" transform="matrix(0.99734,0,0,0.99734,737.149,82.6596)">
            <g opacity="0.1">
                <g transform="matrix(0.5,0,0,0.5,0,0)">
                    <path d="M5614.7,2697.08L5588.32,2796L5580.9,2823.82L5517.52,2815.36L5516.32,2796L5513.3,2747.78L5527.76,2675.48L5628.28,2675.48L5623,2683.9L5614.7,2697.08ZM5527.76,2675.48L5530.2,2663.28L5610.48,2570.34L5623,2555.3L5652.72,2519.64L5686.52,2583.02L5628.28,2675.48L5527.76,2675.48Z" style="fill:rgb(59,147,173);"/>
                </g>
                <g transform="matrix(0.5,0,0,0.5,0,0)">
                    <path d="M7017.3,2109.84L6937.04,2139.42L6924.36,2194.34L6852.54,2240.8L6860.98,2316.86L6924.36,2346.42L6991.96,2312.64L7013.08,2215.46L7017.3,2109.84Z" style="fill:rgb(59,147,173);"/>
                </g>
                <g transform="matrix(0.5,0,0,0.5,0,0)">
                    <path d="M5454.54,660.126C5482.72,660.09 5510.52,660.028 5537.84,659.944L5513.3,673.44L5510.74,677.55L5492.18,707.236L5441.48,681.888L5442.88,679.546L5454.54,660.126ZM5696.02,632.828L5686.52,635.418L5656.74,632.582L5597.8,626.966L5588.2,632.24L5563.56,645.798L5537.84,659.944C5510.52,660.028 5482.72,660.09 5454.54,660.126L5462.52,646.81L5463.14,645.798L5471.48,631.902L5482.56,613.414L5483.6,613.447L5483.94,613.458L5484.63,613.48L5485.04,613.493L5485.67,613.513L5486.1,613.527L5486.7,613.547L5487.14,613.562L5487.74,613.581L5488.18,613.596L5488.78,613.616L5489.21,613.631L5489.84,613.652L5490.24,613.666L5490.92,613.689L5491.27,613.701L5492.29,613.737L5493.31,613.773L5493.64,613.784L5494.34,613.809L5494.73,613.823L5495.36,613.846L5495.78,613.861L5496.38,613.883L5496.81,613.899L5497.4,613.921L5497.83,613.937L5498.43,613.959L5498.85,613.975L5499.47,613.998L5499.87,614.013L5500.53,614.038L5500.88,614.051L5501.77,614.086L5501.89,614.09L5502.9,614.13L5503.21,614.142L5503.9,614.169L5504.29,614.185L5504.91,614.209L5505.32,614.226L5505.92,614.25L5506.34,614.267L5506.92,614.29L5507.35,614.308L5507.94,614.332L5508.35,614.349L5508.95,614.374L5509.35,614.391L5510,614.418L5510.35,614.432L5511.19,614.468L5511.34,614.475L5512.34,614.517L5512.64,614.53L5513.33,614.56L5513.71,614.576L5514.32,614.603L5514.73,614.621L5515.31,614.647L5515.73,614.665L5516.3,614.691L5516.72,614.709L5517.3,614.735L5517.71,614.754L5518.3,614.781L5518.69,614.798L5519.33,614.827L5519.68,614.843L5520.47,614.88L5520.65,614.889L5521.63,614.934L5521.91,614.948L5522.61,614.98L5522.98,614.998L5523.58,615.027L5523.98,615.046L5524.56,615.073L5524.97,615.093L5525.53,615.12L5525.94,615.141L5526.51,615.168L5526.92,615.188L5527.5,615.217L5527.89,615.236L5528.5,615.267L5528.85,615.284L5529.61,615.322L5529.81,615.332L5530.77,615.381L5531.04,615.394L5531.73,615.43L5532.09,615.449L5532.69,615.479L5533.08,615.5L5533.65,615.529L5534.05,615.55L5534.61,615.579L5535.01,615.601L5535.57,615.63L5535.97,615.651L5536.54,615.682L5536.92,615.702L5537.52,615.735L5537.87,615.753L5538.59,615.793L5538.82,615.805L5539.76,615.856L5540,615.87L5540.7,615.908L5541.05,615.928L5541.64,615.961L5542.02,615.982L5542.58,616.014L5542.98,616.036L5543.52,616.067L5543.92,616.09L5544.47,616.121L5544.86,616.143L5545.42,616.175L5545.8,616.197L5546.38,616.231L5546.73,616.251L5547.42,616.292L5547.65,616.305L5548.58,616.36L5548.8,616.373L5549.51,616.415L5549.85,616.435L5550.43,616.47L5550.8,616.493L5551.35,616.526L5551.74,616.55L5552.28,616.582L5552.67,616.606L5553.2,616.639L5553.59,616.663L5554.13,616.697L5554.5,616.72L5555.07,616.755L5555.42,616.777L5556.08,616.818L5556.33,616.834L5557.23,616.891L5557.44,616.904L5558.14,616.949L5558.47,616.97L5559.05,617.008L5559.41,617.031L5559.95,617.066L5560.33,617.091L5560.86,617.125L5561.24,617.15L5561.76,617.185L5562.14,617.21L5562.67,617.245L5563.04,617.27L5563.6,617.307L5563.94,617.329L5564.57,617.372L5564.83,617.39L5565.72,617.45L5565.89,617.462L5566.6,617.511L5566.92,617.532L5567.49,617.572L5567.85,617.596L5568.38,617.633L5568.75,617.659L5569.26,617.695L5569.64,617.721L5570.15,617.757L5570.52,617.784L5571.04,617.82L5571.4,617.846L5571.94,617.885L5572.28,617.909L5572.89,617.953L5573.15,617.972L5574.02,618.035L5574.16,618.045L5574.89,618.098L5575.19,618.121L5575.75,618.162L5576.1,618.188L5576.62,618.226L5576.98,618.253L5577.49,618.291L5577.85,618.318L5578.35,618.356L5578.72,618.384L5579.22,618.422L5579.58,618.449L5580.1,618.489L5580.43,618.514L5581.02,618.56L5581.29,618.58L5582.14,618.646L5582.25,618.654L5582.98,618.712L5583.28,618.735L5583.83,618.779L5584.17,618.805L5584.68,618.845L5585.03,618.873L5585.52,618.913L5585.88,618.941L5586.37,618.981L5586.73,619.009L5587.22,619.049L5587.57,619.077L5588.08,619.119L5588.4,619.145L5588.97,619.192L5589.23,619.214L5590.07,619.282L5590.89,619.351L5591.17,619.374L5591.72,619.42L5592.05,619.448L5592.55,619.49L5592.89,619.519L5593.37,619.56L5593.72,619.589L5594.19,619.63L5594.54,619.66L5595.02,619.701L5595.36,619.73L5595.76,619.764L5596.28,619.81L5596.66,619.844L5597.18,619.889L5597.57,619.923L5598.08,619.968L5598.46,620.002L5598.98,620.048L5599.35,620.081L5599.89,620.129L5600.24,620.161L5600.82,620.213L5601.12,620.24L5601.93,620.314L5602,620.321L5602.88,620.401L5603.16,620.427L5603.76,620.482L5604.1,620.513L5604.63,620.563L5604.99,620.597L5605.5,620.645L5605.87,620.68L5606.37,620.727L5606.75,620.762L5607.24,620.809L5607.61,620.845L5608.11,620.893L5608.48,620.927L5608.99,620.977L5609.33,621.01L5609.89,621.065L5610.19,621.093L5610.93,621.166L5611.04,621.177L5611.89,621.261L5612.15,621.287L5612.73,621.345L5613.06,621.377L5613.58,621.429L5613.93,621.465L5614.42,621.514L5614.78,621.551L5615.26,621.6L5615.62,621.637L5616.1,621.686L5616.45,621.722L5616.94,621.772L5617.29,621.809L5617.78,621.86L5618.11,621.895L5618.65,621.951L5618.94,621.981L5619.62,622.054L5619.76,622.068L5620.58,622.155L5620.82,622.181L5621.39,622.242L5621.7,622.276L5622.21,622.33L5622.54,622.367L5623.02,622.418L5623.36,622.456L5623.82,622.507L5624.17,622.545L5624.63,622.596L5624.98,622.634L5625.44,622.686L5625.78,622.724L5626.26,622.777L5626.58,622.813L5627.09,622.871L5627.39,622.905L5627.48,622.915L5628.16,622.993L5628.2,622.997L5628.88,623.075L5628.94,623.082L5629.6,623.159L5629.7,623.17L5630.35,623.246L5630.46,623.259L5631.1,623.334L5631.21,623.346L5631.86,623.423L5631.93,623.431L5632.62,623.513L5633.29,623.594L5633.37,623.603L5634.01,623.68L5634.12,623.693L5634.75,623.769L5634.86,623.783L5635.49,623.86L5635.58,623.871L5636.23,623.951L5636.27,623.955L5636.92,624.036L5636.97,624.042L5637.61,624.122L5637.71,624.134L5638.33,624.212L5638.43,624.225L5639.05,624.303L5639.15,624.316L5639.77,624.395L5639.84,624.404L5640.5,624.488L5641.15,624.572L5641.22,624.581L5641.84,624.661L5641.94,624.674L5642.54,624.753L5642.64,624.766L5643.25,624.846L5643.33,624.857L5643.96,624.94L5644,624.945L5644.62,625.029L5644.66,625.034L5645.28,625.117L5645.37,625.129L5645.96,625.209L5646.06,625.223L5646.65,625.303L5646.74,625.316L5647.34,625.398L5647.41,625.408L5648.03,625.494L5648.65,625.581L5648.72,625.59L5649.31,625.672L5649.4,625.686L5649.98,625.767L5650.08,625.781L5650.65,625.863L5650.74,625.875L5651.33,625.96L5651.37,625.966L5651.97,626.052L5652,626.057L5652.59,626.142L5652.67,626.154L5653.24,626.237L5653.34,626.251L5653.89,626.334L5653.99,626.347L5654.55,626.431L5654.62,626.442L5655.21,626.53L5655.8,626.619L5655.86,626.629L5656.43,626.714L5656.51,626.727L5657.06,626.811L5657.21,626.833L5657.35,626.855L5657.54,626.884L5657.68,626.906L5657.87,626.936L5658.01,626.957L5658.22,626.99L5658.33,627.008L5658.66,627.059L5658.98,627.109L5659.31,627.161L5659.43,627.18L5659.63,627.212L5659.77,627.233L5659.96,627.263L5660.09,627.285L5660.28,627.314L5660.42,627.337L5660.6,627.366L5660.74,627.388L5660.93,627.418L5661.06,627.44L5661.25,627.471L5661.38,627.491L5661.59,627.524L5661.7,627.543L5662.02,627.594L5662.33,627.646L5662.65,627.698L5662.77,627.718L5662.96,627.75L5663.09,627.771L5663.28,627.802L5663.41,627.824L5663.59,627.854L5663.73,627.876L5663.91,627.906L5664.04,627.928L5664.22,627.959L5664.35,627.981L5664.54,628.012L5664.66,628.033L5664.86,628.066L5664.97,628.085L5665.28,628.137L5665.59,628.19L5665.89,628.242L5666.01,628.262L5666.2,628.295L5666.32,628.316L5666.51,628.347L5666.64,628.37L5666.81,628.4L5666.94,628.423L5667.11,628.453L5667.24,628.476L5667.42,628.506L5667.55,628.529L5667.73,628.56L5667.85,628.581L5668.04,628.615L5668.15,628.634L5668.45,628.687L5668.75,628.74L5669.04,628.793L5669.15,628.813L5669.34,628.846L5669.46,628.868L5669.64,628.9L5669.76,628.922L5669.93,628.953L5670.06,628.976L5670.23,629.007L5670.35,629.03L5670.52,629.06L5670.65,629.083L5670.82,629.115L5670.94,629.137L5671.12,629.17L5671.23,629.19L5671.52,629.244L5671.81,629.297L5672.1,629.351L5672.2,629.371L5672.38,629.405L5672.5,629.427L5672.67,629.459L5672.79,629.481L5672.96,629.513L5673.08,629.536L5673.24,629.567L5673.36,629.59L5673.53,629.621L5673.65,629.644L5673.82,629.676L5673.93,629.698L5674.11,629.732L5674.21,629.753L5674.49,629.807L5674.77,629.861L5675.05,629.915L5675.15,629.935L5675.33,629.97L5675.44,629.992L5675.61,630.024L5675.72,630.047L5675.88,630.079L5676,630.102L5676.16,630.134L5676.28,630.157L5676.44,630.189L5676.55,630.212L5676.71,630.244L5676.82,630.267L5676.99,630.301L5677.1,630.322L5677.37,630.376L5677.64,630.431L5677.91,630.486L5678,630.506L5678.17,630.541L5678.28,630.563L5678.44,630.596L5678.55,630.619L5678.71,630.651L5678.82,630.675L5678.98,630.707L5679.09,630.731L5679.24,630.763L5679.36,630.786L5679.51,630.819L5679.62,630.841L5679.78,630.876L5679.88,630.897L5680.14,630.952L5680.4,631.008L5680.66,631.063L5680.75,631.083L5680.92,631.119L5681.02,631.141L5681.18,631.175L5681.28,631.198L5681.43,631.23L5681.54,631.254L5681.69,631.286L5681.8,631.31L5681.95,631.343L5682.06,631.366L5682.2,631.399L5682.31,631.422L5682.47,631.457L5682.56,631.478L5682.81,631.534L5683.07,631.59L5683.31,631.647L5683.4,631.666L5683.56,631.703L5683.66,631.725L5683.81,631.759L5683.91,631.783L5684.06,631.815L5684.16,631.84L5684.3,631.872L5684.41,631.896L5684.55,631.929L5684.66,631.953L5684.8,631.986L5684.9,632.009L5685.02,632.038L5685.02,632.038L5684.94,632.018L5684.87,632.002L5684.8,631.986L5684.7,631.964L5684.61,631.943L5684.55,631.929L5684.47,631.911L5684.36,631.884L5684.3,631.872L5684.24,631.857L5684.16,631.84L5684.1,631.826L5684.01,631.803L5683.91,631.783L5683.85,631.767L5683.77,631.75L5683.66,631.725L5683.59,631.708L5683.54,631.697L5683.33,631.649L5683.3,631.643L5683.07,631.59C5682.98,631.572 5682.9,631.554 5682.81,631.534L5682.59,631.484L5682.54,631.474L5682.47,631.457L5682.35,631.43L5682.28,631.415L5682.2,631.399L5682.11,631.377L5682.01,631.357L5681.95,631.343L5681.86,631.324L5681.75,631.299L5681.69,631.286L5681.62,631.271L5681.54,631.254L5681.48,631.241L5681.38,631.218L5681.28,631.198L5681.21,631.182L5681.14,631.165L5681.02,631.141L5680.94,631.124L5680.89,631.113L5680.68,631.066L5680.65,631.06L5680.4,631.008C5680.32,630.989 5680.23,630.971 5680.14,630.952L5679.9,630.902L5679.86,630.893L5679.78,630.876L5679.65,630.849L5679.59,630.835L5679.51,630.819L5679.4,630.797L5679.31,630.777L5679.24,630.763L5679.15,630.744L5679.03,630.719L5678.98,630.707L5678.9,630.692L5678.82,630.675L5678.76,630.662L5678.65,630.639L5678.55,630.619L5678.48,630.604L5678.4,630.587L5678.28,630.563L5678.2,630.547L5678.14,630.535L5677.92,630.489L5677.89,630.483L5677.64,630.431C5677.55,630.413 5677.46,630.395 5677.37,630.376L5677.12,630.326L5676.86,630.274L5676.79,630.26L5676.71,630.244L5676.6,630.222L5676.51,630.203L5676.44,630.189L5676.34,630.17L5676.22,630.146L5676.16,630.134L5676.08,630.118L5676,630.102L5675.94,630.089L5675.82,630.067L5675.72,630.047L5675.65,630.032L5675.56,630.015L5675.44,629.992L5675.36,629.975L5675.3,629.963L5675.07,629.919L5675.03,629.912L5674.77,629.861C5674.68,629.843 5674.59,629.825 5674.49,629.807L5674.24,629.757L5673.97,629.706L5673.9,629.692L5673.82,629.676L5673.7,629.654L5673.6,629.636L5673.53,629.621L5673.43,629.603L5673.31,629.579L5673.24,629.567L5673.16,629.552L5673.08,629.536L5673.01,629.523L5672.89,629.5L5672.79,629.481L5672.71,629.467L5672.62,629.449L5672.5,629.427L5672.41,629.411L5672.35,629.398L5672.11,629.354L5672.08,629.347L5671.81,629.297C5671.71,629.279 5671.61,629.261 5671.52,629.244L5671.25,629.194L5670.98,629.143L5670.91,629.131L5670.82,629.115L5670.7,629.093L5670.6,629.075L5670.52,629.06L5670.42,629.042L5670.3,629.019L5670.23,629.007L5670.14,628.991L5670.06,628.976L5669.99,628.963L5669.86,628.941L5669.76,628.922L5669.68,628.908L5669.58,628.89L5669.46,628.868L5669.37,628.852L5669.3,628.84L5669.06,628.797L5669.02,628.789L5668.75,628.74C5668.65,628.723 5668.55,628.705 5668.45,628.687L5668.17,628.638L5667.89,628.588L5667.82,628.576L5667.73,628.56L5667.6,628.538L5667.5,628.52L5667.42,628.506L5667.31,628.488L5667.19,628.465L5667.11,628.453L5667.03,628.438L5666.94,628.423L5666.87,628.41L5666.74,628.388L5666.64,628.37L5666.55,628.355L5666.45,628.338L5666.32,628.316L5666.23,628.301L5666.16,628.288L5665.92,628.246L5665.87,628.238L5665.59,628.19C5665.48,628.172 5665.38,628.155 5665.28,628.137L5664.99,628.089L5664.7,628.039L5664.63,628.027L5664.54,628.012L5664.41,627.99L5664.31,627.973L5664.22,627.959L5664.11,627.94L5663.98,627.919L5663.91,627.906L5663.81,627.891L5663.73,627.876L5663.65,627.864L5663.52,627.841L5663.41,627.824L5663.33,627.81L5663.22,627.792L5663.09,627.771L5663,627.756L5662.92,627.743L5662.67,627.702L5662.62,627.694L5662.33,627.646C5662.23,627.629 5662.13,627.612 5662.02,627.594L5661.72,627.546L5661.42,627.497L5661.35,627.486L5661.25,627.471L5661.11,627.448L5661.02,627.432L5660.93,627.418L5660.81,627.4L5660.68,627.379L5660.6,627.366L5660.51,627.351L5660.42,627.337L5660.35,627.325L5660.2,627.302L5660.09,627.285L5660.01,627.271L5659.9,627.253L5659.77,627.233L5659.67,627.218L5659.59,627.205L5659.43,627.18L5659.28,627.156L5658.98,627.109C5658.88,627.093 5658.77,627.076 5658.66,627.059L5658.35,627.011L5658.04,626.962L5657.97,626.952L5657.87,626.936L5657.73,626.914L5657.63,626.899L5657.54,626.884L5657.42,626.866L5657.29,626.846L5657.21,626.833L5657.11,626.818L5657.06,626.811C5656.88,626.783 5656.7,626.755 5656.51,626.727L5656.48,626.722L5656.43,626.714C5656.24,626.685 5656.05,626.657 5655.86,626.629L5655.56,626.582L5655.21,626.53C5655.01,626.5 5654.82,626.471 5654.62,626.442L5654.55,626.431C5654.36,626.403 5654.18,626.375 5653.99,626.347L5653.93,626.34L5653.89,626.334C5653.71,626.306 5653.52,626.279 5653.34,626.251L5653.29,626.245L5653.24,626.237C5653.05,626.209 5652.86,626.182 5652.67,626.154L5652.59,626.142C5652.4,626.114 5652.2,626.085 5652,626.057L5651.66,626.008L5651.37,625.966L5651.33,625.96C5651.13,625.931 5650.94,625.903 5650.74,625.875L5650.65,625.863C5650.46,625.835 5650.27,625.808 5650.08,625.781L5650.03,625.774L5649.98,625.767C5649.79,625.74 5649.6,625.713 5649.4,625.686L5649.37,625.68L5649.31,625.672C5649.12,625.645 5648.92,625.618 5648.72,625.59L5648.4,625.545L5648.03,625.494C5647.83,625.465 5647.62,625.437 5647.41,625.408L5647.34,625.398C5647.14,625.371 5646.94,625.343 5646.74,625.316L5646.69,625.309L5646.65,625.303C5646.45,625.276 5646.26,625.25 5646.06,625.223L5646.01,625.217L5645.96,625.209C5645.76,625.182 5645.57,625.156 5645.37,625.129L5645.28,625.117C5645.07,625.09 5644.87,625.062 5644.66,625.034L5644.31,624.987L5644,624.945L5643.96,624.94C5643.75,624.912 5643.54,624.885 5643.33,624.857L5643.25,624.846C5643.05,624.819 5642.84,624.793 5642.64,624.766L5642.59,624.759L5642.54,624.753C5642.34,624.726 5642.14,624.7 5641.94,624.674L5641.89,624.668L5641.84,624.661C5641.63,624.634 5641.43,624.608 5641.22,624.581L5641.15,624.572C5640.93,624.544 5640.72,624.516 5640.5,624.488L5640.12,624.439L5639.84,624.404L5639.77,624.395C5639.57,624.369 5639.36,624.342 5639.15,624.316L5639.09,624.308L5639.05,624.303C5638.84,624.277 5638.64,624.251 5638.43,624.225L5638.38,624.219L5638.33,624.212C5638.12,624.186 5637.91,624.16 5637.71,624.134L5637.61,624.122C5637.4,624.096 5637.19,624.069 5636.97,624.042L5636.61,623.997L5636.27,623.955L5636.23,623.951C5636.01,623.924 5635.8,623.897 5635.58,623.871L5635.49,623.86C5635.28,623.834 5635.07,623.808 5634.86,623.783L5634.8,623.775L5634.75,623.769C5634.54,623.744 5634.33,623.718 5634.12,623.693L5634.07,623.688L5634.01,623.68C5633.8,623.655 5633.59,623.629 5633.37,623.603L5633.29,623.594C5633.07,623.567 5632.84,623.54 5632.62,623.513L5632.22,623.466L5631.93,623.431L5631.86,623.423C5631.64,623.397 5631.42,623.371 5631.21,623.346L5631.15,623.339L5631.1,623.334C5630.89,623.309 5630.67,623.284 5630.46,623.259L5630.41,623.252L5630.35,623.246C5630.13,623.22 5629.92,623.195 5629.7,623.17L5629.6,623.159C5629.38,623.133 5629.16,623.108 5628.94,623.082L5628.56,623.039L5628.16,622.993C5627.94,622.967 5627.71,622.941 5627.48,622.915L5627.32,622.898L5627.09,622.871L5626.67,622.824L5626.58,622.813L5626.49,622.804L5626.26,622.777L5625.91,622.739L5625.78,622.724L5625.66,622.711L5625.44,622.686L5625.15,622.654L5624.98,622.634L5624.83,622.618L5624.63,622.596L5624.39,622.57L5624.17,622.545L5623.99,622.525L5623.82,622.507L5623.63,622.486L5623.36,622.456L5623.15,622.433L5623.02,622.418L5622.86,622.402L5622.54,622.367L5622.3,622.341L5622.21,622.33L5622.09,622.318L5621.7,622.276L5621.46,622.249L5621.39,622.242L5621.32,622.235L5620.82,622.181L5620.61,622.158L5620.58,622.155C5620.31,622.126 5620.03,622.097 5619.76,622.068L5618.99,621.987L5618.89,621.976L5618.65,621.951L5618.21,621.905L5618.11,621.895L5618.03,621.886L5617.78,621.86L5617.42,621.823L5617.29,621.809L5617.17,621.796L5616.94,621.772L5616.64,621.741L5616.45,621.722L5616.3,621.707L5616.1,621.686L5615.84,621.66L5615.62,621.637L5615.43,621.617L5615.26,621.6L5615.05,621.579L5614.78,621.551L5614.56,621.528L5614.42,621.514L5614.26,621.498L5613.93,621.465L5613.68,621.44L5613.58,621.429L5613.46,621.417L5613.06,621.377L5612.8,621.352L5612.73,621.345L5612.66,621.337L5612.15,621.287L5611.92,621.264L5611.89,621.261C5611.6,621.233 5611.32,621.205 5611.04,621.177L5610.24,621.098L5610.14,621.089L5609.89,621.065L5609.43,621.019L5609.33,621.01L5609.25,621.002L5608.99,620.977L5608.61,620.941L5608.48,620.927L5608.36,620.916L5608.11,620.893L5607.8,620.862L5607.61,620.845L5607.46,620.83L5607.24,620.809L5606.98,620.784L5606.75,620.762L5606.56,620.744L5606.37,620.727L5606.15,620.706L5605.87,620.68L5605.65,620.658L5605.5,620.645L5605.33,620.628L5604.99,620.597L5604.74,620.573L5604.63,620.563L5604.5,620.551L5604.1,620.513L5603.83,620.489L5603.76,620.482L5603.68,620.474L5603.16,620.427L5602.92,620.404L5602.88,620.401C5602.59,620.374 5602.3,620.347 5602,620.321L5601.17,620.245L5601.08,620.237L5600.82,620.213L5600.33,620.169L5600.24,620.161L5600.16,620.153L5599.89,620.129L5599.49,620.093L5599.35,620.081L5599.23,620.07L5598.98,620.048L5598.65,620.018L5598.46,620.002L5598.3,619.988L5598.08,619.968L5597.8,619.943L5597.57,619.923L5597.37,619.905L5597.18,619.889L5596.95,619.869L5596.66,619.844L5596.44,619.824L5596.28,619.81L5596.1,619.794L5595.76,619.764L5595.5,619.742L5595.36,619.73L5595.24,619.72L5595.02,619.701L5594.73,619.676L5594.54,619.66L5594.39,619.647L5594.19,619.63L5593.95,619.609L5593.72,619.589L5593.53,619.573L5593.37,619.56L5593.18,619.543L5592.89,619.519L5592.67,619.5L5592.55,619.49L5592.4,619.478L5592.05,619.448L5591.8,619.427L5591.72,619.42L5591.62,619.412L5591.17,619.374L5590.94,619.355L5590.84,619.347L5590.07,619.282C5589.79,619.259 5589.52,619.237 5589.23,619.214L5589.2,619.211L5588.97,619.192L5588.49,619.152L5588.4,619.145L5588.32,619.139L5588.08,619.119L5587.7,619.088L5587.57,619.077L5587.45,619.068L5587.22,619.049L5586.91,619.024L5586.73,619.009L5586.57,618.997L5586.37,618.981L5586.12,618.96L5585.88,618.941L5585.69,618.926L5585.52,618.913L5585.32,618.897L5585.03,618.873L5584.81,618.856L5584.68,618.845L5584.53,618.833L5584.17,618.805L5583.92,618.786L5583.83,618.779L5583.73,618.77L5583.28,618.735L5583.03,618.716L5582.93,618.708L5582.25,618.654L5582.14,618.646C5581.85,618.624 5581.57,618.602 5581.29,618.58L5581.25,618.577L5581.02,618.56L5580.52,618.521L5580.43,618.514L5580.36,618.508L5580.1,618.489L5579.71,618.459L5579.58,618.449L5579.46,618.44L5579.22,618.422L5578.9,618.398L5578.72,618.384L5578.56,618.372L5578.35,618.356L5578.09,618.336L5577.85,618.318L5577.66,618.304L5577.49,618.291L5577.28,618.275L5576.98,618.253L5576.76,618.236L5576.62,618.226L5576.46,618.215L5576.1,618.188L5575.85,618.169L5575.75,618.162L5575.65,618.154L5575.19,618.121L5574.94,618.102L5574.83,618.094L5574.16,618.045L5574.02,618.035C5573.73,618.014 5573.44,617.993 5573.15,617.972L5573.12,617.969L5572.89,617.953L5572.36,617.915L5572.28,617.909L5572.2,617.903L5571.94,617.885L5571.53,617.856L5571.4,617.846L5571.28,617.838L5571.04,617.82L5570.71,617.797L5570.52,617.784L5570.36,617.773L5570.15,617.757L5569.88,617.738L5569.64,617.721L5569.44,617.708L5569.26,617.695L5569.04,617.68L5568.75,617.659L5568.52,617.643L5568.38,617.633L5568.21,617.622L5567.85,617.596L5567.59,617.579L5567.49,617.572L5567.38,617.564L5566.92,617.532L5566.66,617.515L5566.54,617.506L5565.89,617.462L5565.72,617.45C5565.42,617.43 5565.12,617.41 5564.83,617.39L5564.8,617.388L5564.57,617.372L5564.02,617.335L5563.94,617.329L5563.86,617.325L5563.6,617.307L5563.17,617.278L5563.04,617.27L5562.92,617.262L5562.67,617.245L5562.33,617.222L5562.14,617.21L5561.98,617.199L5561.76,617.185L5561.48,617.166L5561.24,617.15L5561.04,617.137L5560.86,617.125L5560.63,617.11L5560.33,617.091L5560.1,617.076L5559.95,617.066L5559.78,617.055L5559.41,617.031L5559.15,617.014L5559.05,617.008L5558.93,617L5558.47,616.97L5558.2,616.953L5558.07,616.945L5557.44,616.904L5557.23,616.891C5556.93,616.872 5556.63,616.853 5556.33,616.834L5556.3,616.832L5556.08,616.818L5555.5,616.782L5555.42,616.777L5555.35,616.772L5555.07,616.755L5554.64,616.728L5554.5,616.72L5554.39,616.713L5554.13,616.697L5553.77,616.674L5553.59,616.663L5553.43,616.653L5553.2,616.639L5552.91,616.621L5552.67,616.606L5552.47,616.594L5552.28,616.582L5552.04,616.568L5551.74,616.55L5551.51,616.535L5551.35,616.526L5551.17,616.515L5550.8,616.493L5550.54,616.477L5550.43,616.47L5550.3,616.463L5549.85,616.435L5549.57,616.419L5549.43,616.411L5548.8,616.373L5548.6,616.361L5548.58,616.36C5548.27,616.342 5547.96,616.324 5547.65,616.305L5547.63,616.304L5547.42,616.292L5546.8,616.256L5546.73,616.251L5546.66,616.247L5546.38,616.231L5545.93,616.205L5545.8,616.197L5545.68,616.19L5545.42,616.175L5545.05,616.154L5544.86,616.143L5544.7,616.134L5544.47,616.121L5544.16,616.103L5543.92,616.09L5543.72,616.078L5543.52,616.067L5543.28,616.053L5542.98,616.036L5542.74,616.023L5542.58,616.014L5542.4,616.003L5542.02,615.982L5541.76,615.967L5541.64,615.961L5541.51,615.953L5541.05,615.928L5540.77,615.912L5540.7,615.908L5540.62,615.904L5540,615.87L5539.78,615.858L5539.76,615.856C5539.44,615.839 5539.13,615.822 5538.82,615.805L5537.94,615.757L5537.8,615.75L5537.52,615.735L5537.05,615.709L5536.92,615.702L5536.81,615.696L5536.54,615.682L5536.15,615.661L5535.97,615.651L5535.81,615.643L5535.57,615.63L5535.26,615.614L5535.01,615.601L5534.81,615.59L5534.61,615.579L5534.36,615.566L5534.05,615.55L5533.81,615.538L5533.65,615.529L5533.45,615.519L5533.08,615.5L5532.81,615.486L5532.69,615.479L5532.55,615.472L5532.09,615.449L5531.81,615.434L5531.73,615.43L5531.65,615.426L5531.04,615.394L5530.8,615.382L5530.77,615.381C5530.45,615.365 5530.13,615.349 5529.81,615.332L5528.92,615.288L5528.79,615.281L5528.5,615.267L5528.01,615.242L5527.89,615.236L5527.77,615.23L5527.5,615.217L5527.1,615.197L5526.92,615.188L5526.76,615.18L5526.51,615.168L5526.19,615.152L5525.94,615.141L5525.74,615.131L5525.53,615.12L5525.27,615.108L5524.97,615.093L5524.73,615.081L5524.56,615.073L5524.35,615.063L5523.98,615.046L5523.71,615.033L5523.58,615.027L5523.44,615.02L5522.98,614.998L5522.69,614.984L5522.61,614.98L5522.52,614.976L5521.91,614.948L5521.66,614.936L5521.63,614.934C5521.31,614.919 5520.98,614.904 5520.65,614.889L5519.75,614.847L5519.61,614.841L5519.33,614.827L5518.82,614.804L5518.69,614.798L5518.59,614.793L5518.3,614.781L5517.89,614.762L5517.71,614.754L5517.55,614.747L5517.3,614.735L5516.96,614.72L5516.72,614.709L5516.52,614.7L5516.3,614.691L5516.03,614.679L5515.73,614.665L5515.49,614.654L5515.31,614.647L5515.1,614.637L5514.73,614.621L5514.45,614.609L5514.32,614.603L5514.17,614.596L5513.71,614.576L5513.41,614.563L5513.33,614.56L5513.23,614.556L5512.64,614.53L5512.38,614.519L5512.34,614.517C5512.01,614.503 5511.68,614.489 5511.34,614.475L5510.42,614.435L5510.29,614.43L5510,614.418L5509.48,614.396L5509.35,614.391L5509.24,614.386L5508.95,614.374L5508.53,614.357L5508.35,614.349L5508.2,614.343L5507.94,614.332L5507.59,614.318L5507.35,614.308L5507.15,614.3L5506.92,614.29L5506.65,614.279L5506.34,614.267L5506.1,614.257L5505.92,614.25L5505.7,614.241L5505.32,614.226L5505.05,614.215L5504.91,614.209L5504.75,614.203L5504.29,614.185L5503.99,614.173L5503.9,614.169L5503.8,614.165L5503.21,614.142L5502.94,614.131L5502.9,614.13C5502.56,614.116 5502.23,614.103 5501.89,614.09L5500.94,614.054L5500.82,614.049L5500.53,614.038L5499.99,614.017L5499.87,614.013L5499.76,614.009L5499.47,613.998L5499.03,613.981L5498.85,613.975L5498.7,613.969L5498.43,613.959L5498.07,613.945L5497.83,613.937L5497.64,613.929L5497.4,613.921L5497.11,613.91L5496.81,613.899L5496.57,613.89L5496.38,613.883L5496.15,613.875L5495.78,613.861L5495.5,613.851L5495.36,613.846L5495.19,613.84L5494.73,613.823L5494.43,613.812L5494.34,613.809L5494.23,613.805L5493.64,613.784L5493.36,613.774L5493.31,613.773C5492.97,613.761 5492.63,613.749 5492.29,613.737L5491.33,613.703L5491.21,613.699L5490.92,613.689L5490.36,613.67L5490.24,613.666L5490.14,613.662L5489.84,613.652L5489.39,613.637L5489.21,613.631L5489.06,613.626L5488.78,613.616L5488.42,613.604L5488.18,613.596L5487.98,613.589L5487.74,613.581L5487.44,613.571L5487.14,613.562L5486.9,613.553L5486.7,613.547L5486.47,613.539L5486.1,613.527L5485.82,613.518L5485.67,613.513L5485.49,613.508L5485.04,613.493L5484.73,613.483L5484.63,613.48L5484.52,613.476L5483.94,613.458L5483.65,613.448L5483.6,613.447C5483.25,613.436 5482.91,613.425 5482.56,613.414L5492.18,597.396L5597.8,572.046L5732.98,622.74C5732.98,622.74 5696.02,632.828 5696.02,632.828Z" style="fill:rgb(59,147,173);"/>
                </g>
                <g transform="matrix(0.5,0,0,0.5,0,0)">
                    <path d="M3388.26,2021.12L3397.84,2025.54L3397.84,2025.54L3409.35,2030.86L3411.02,2031.62L3411.02,2031.63L3423.98,2037.61L3423.98,2037.6L3443.2,2046.48L3438.96,2063.38L3460.08,2063.38L3487.9,2093.16L3487.89,2093.16L3495.13,2100.92L3495.14,2100.92L3519.24,2126.74L3557.26,2126.74L3616.4,2156.32L3641.76,2211.24L3667.1,2219.68L3650.2,2249.26L3599.5,2295.74L3633.3,2295.74L3654.42,2304.18L3667.1,2312.64L3684,2299.96L3705.12,2274.6L3760.04,2304.18L3764.26,2333.76L3793.84,2316.86L3827.64,2329.52L3828.78,2329.06L3848.76,2321.08L3895.24,2359.1L3916.88,2371.46L3916.88,2371.47L3924.8,2376L3950.16,2380.22L3958.66,2397.91L3959.62,2411.29L3959.62,2411.28L3962.84,2456.26L3924.8,2502.74L3899.46,2549.22L3886.78,2544.98L3886.78,2599.92L3895.24,2625.26L3886.78,2654.84L3882.56,2671.74L3881.7,2675.48L3869.88,2726.66L3857.22,2752L3844.54,2768.9L3844.54,2781.58L3806.52,2781.58L3755.82,2806.92L3726.24,2828.04L3722.02,2853.4L3730.48,2882.96L3717.8,2912.54L3696.68,2967.46L3671.32,2988.58L3675.56,3001.26L3654.42,3022.38C3654.42,3022.38 3650.2,3039.28 3650.2,3043.5C3650.2,3047.72 3637.52,3051.96 3637.52,3051.96L3616.4,3047.72L3607.96,3047.72L3595.28,3043.5L3574.16,3039.28L3557.26,2988.58L3561.48,3039.28L3595.28,3060.4L3591.06,3077.3L3607.96,3085.76L3599.5,3128L3553.04,3144.9L3515.02,3136.44L3527.68,3157.58L3523.46,3166.02L3531.9,3182.92L3523.46,3191.38L3485.44,3182.92L3481.22,3187.14L3489.66,3212.5L3510.78,3229.4L3498.12,3246.3L3502.34,3275.86L3476.98,3296.98L3481.22,3313.88L3515.02,3322.34L3523.46,3343.46L3514.88,3352.06L3502.34,3364.58L3506.56,3389.94L3498.12,3389.94L3489.66,3411.06L3493.88,3411.06L3527.68,3453.3L3523.46,3457.52L3540.36,3465.98L3574.16,3482.88L3599.5,3491.32L3591.06,3504L3544.58,3504L3506.56,3491.32L3443.2,3457.52L3392.5,3411.06L3371.84,3356.84L3371.84,3356.84L3361.51,3329.7L3361.5,3329.7L3358.7,3322.34L3371.38,3284.32L3354.48,3212.5L3321.38,3204.22L3320.54,3203.06L3303.78,3077.3L3308,3022.38L3295.32,2963.24L3274.2,2680.18L3268.34,2675.48L3268,2675.22L3259.38,2668.32L3258,2667.22L3189.7,2612.58L3156,2564.58L3146,2550.34L3137.34,2538L3107,2494.78L3050.3,2414.02L3049.34,2408.32L3046.06,2388.68L3049.34,2376.68L3058.74,2342.2L3058.74,2312.64L3049.34,2310.76L3037.62,2308.4L3037.62,2291.5L3049.34,2260.24L3050.3,2257.7L3082.58,2229.46L3084.1,2228.14L3107,2132.68L3109.44,2122.52L3107,2112.76L3096.76,2071.82L3079.86,2059.14L3067.2,2063.38L3062.96,2084.5L3058.74,2092.94L3049.34,2090.6L3041.84,2088.72L3003.82,2063.38L2961.58,2042.24L2943.52,1998.92L2940.44,1991.55L2919.32,1961.98L2889.76,1949.3L2839.06,1936.63L2801.04,1902.83L2775.68,1898.61L2741.88,1907.06L2719.5,1893.48C2741.84,1874.46 2758.7,1855.72 2781.06,1836.7L2822.16,1847.91L2868.62,1831.01L2882.44,1789.59C2903.9,1793.95 2925.52,1801.81 2946.9,1806.67L2927.78,1839.46L2906.66,1898.61L2936.22,1902.83L2982.7,1898.61L3012.28,1928.18L2991.14,1983.1L2994.66,1998.92L2999.6,2021.12L3037.62,2063.38L3049.34,2059.1L3084.1,2046.48L3107,2063.14L3107.94,2063.82L3125.76,2076.79L3125.76,2076.78L3130.56,2080.28L3151.68,2038.02L3177.04,2012.68C3177.04,2012.68 3195,2006.68 3195,2006.68L3202.38,2004.22L3203.44,2000L3206.6,1987.33L3227.72,1966.2L3231.96,1983.1L3223.5,1995.77L3224.11,2000L3226.52,2016.88L3226.51,2016.88L3227.72,2025.34L3244.62,2012.68L3274.16,2007.3L3274.17,2007.3L3291.1,2004.22L3295.32,2016.88L3295.31,2016.88L3295.32,2016.9L3299.56,2025.34L3307.02,2023.68L3307.02,2023.68L3330.36,2018.5L3330.37,2018.5L3337.58,2016.9L3362.92,2033.8L3388.26,2021.12ZM3082.59,2229.46L3082.58,2229.46L3082.59,2229.46Z" style="fill:rgb(59,147,173);"/>
                </g>
                <g transform="matrix(0.5,0,0,0.5,0,0)">
                    <path d="M6649.76,2046.48L6730.02,2198.56L6637.08,2147.86L6612.26,1998.92L6646.36,1998.92L6649.76,2046.48ZM5390.7,1242.8L5378.12,1222.65L5276.72,1201.53L5124.62,1273.35L5123.06,1276.92L5123.04,1276.95L5095.06,1340.94L5044.09,1310.68L5044.08,1310.68L4959.86,1260.68L4842.78,1268.8C4842.7,1268.76 4781.49,1291.77 4750.88,1303.28L4733.88,1309.67L4697.94,1353.62L4617.66,1416.99L4533.16,1433.89L4474.02,1404.31C4474.02,1404.31 4512.6,1334.89 4512.6,1334.89L4512.6,1334.89L4516.28,1328.27L4515.09,1309.11L4514.9,1309.11L4512.04,1269.12L4617.66,1269.12L4659.9,1214.2L4617.66,1180.4L4655.68,1142.38L4735.96,1117.03L4799.32,1028.31L4845.8,994.518L4926.06,1053.66L5073.94,994.518L5133.08,931.146L5090.84,910.022L5048.58,910.022L5035.92,829.752L5019.02,795.954L4972.54,884.672L4993.66,939.598L4964.08,994.518L4904.94,994.518L4866.92,910.022L4790.88,910.022L4850.02,842.428L4947.18,724.136L5154.2,677.662L5310.52,749.484L5276.72,842.428L5352.76,817.078L5390.7,792.798L5458.38,749.484L5534.42,749.484L5673.84,741.034L5702.32,659.13L5702.32,659.13L5707.64,643.864L5743.22,663.272L5800.58,694.56L5830.16,736.808L5863.96,690.338L5873.06,657.522L5873.06,657.522L5885.08,614.294L6163.9,546.696L6170.14,552.24L6239.96,614.294L6290.66,660.764L6446.96,656.538L6599.06,736.808L6755.38,677.662L6894.01,688.753L7027.32,698.416L7232.76,711.462L7574.96,787.508L7562.3,829.752L7486.24,829.752L7427.1,897.35L7359.5,964.942L7401.76,1066.34L7300.36,1112.81L7220.08,990.292L7122.92,939.598L6970.84,981.842L6958.16,1011.42L7076.46,1066.34L7131.38,1235.33L7055.32,1336.72C7055.32,1336.72 7080.68,1446.56 7080.68,1446.56L6899.02,1336.72L6835.64,1395.87L6945.48,1484.58L6947.08,1486.79L6950.6,1491.67L6951.62,1493.07L6951.62,1493.08L7000.4,1560.63L6961.36,1610.41L6961.36,1610.41L6831.42,1776.09L6772.1,1790.92L6763.82,1792.99L6751.06,1820.63L6738.86,1847.09C6738.34,1846.56 6806.06,1936.63 6806.06,1936.63L6761.08,1998.92L6693.84,1998.92L6645.52,1987.33L6646.36,1998.92L6612.26,1998.92L6611.72,1995.77L6569.48,1885.93L6486.48,1802.01L6466.48,1779.33L6430.06,1738.07L6316,1873.26L6247.08,1998.92L6244.18,2004.22L6189.26,2059.14L6170.14,2030.48L6149.1,1998.92L6096.32,1919.73L6020.26,1792.99L5897.76,1691.59C5897.76,1691.59 5725.72,1639.89 5716.08,1636.67C5703.42,1632.45 5618.92,1581.75 5618.92,1581.75L5589.34,1645.13L5635.82,1704.27L5796.36,1725.39L5830.16,1771.87L5823.68,1781.34C5823.5,1781.52 5823.36,1781.74 5823.24,1781.98L5775.24,1852.14L5572.44,1970.43L5433.04,1784.54L5389.7,1710.69L5318.96,1590.2L5297.84,1556.4L5344.32,1505.71L5348.54,1433.89L5183.78,1412.76L5188,1345.17L5420.36,1290.25L5390.7,1242.8ZM6751.14,2012.68L6693.84,1998.92L6761.08,1998.92L6751.14,2012.68Z" style="fill:rgb(59,147,173);"/>
                </g>
                <g transform="matrix(0.5,0,0,0.5,0,0)">
                    <path d="M2946.9,1806.67C2938.76,1804.87 2930.6,1803.08 2922.44,1801.29C2911.68,1798.92 2896.82,1793.41 2882.44,1789.59L2885.52,1780.31L2957.36,1771.87L2957.36,1788.76L2946.9,1806.67ZM2386.48,1340.33C2386.48,1340.33 2391,1335.39 2391,1335.39L2401.98,1323.38C2401.98,1323.38 2390.17,1339.69 2386.71,1340.31C2386.63,1340.33 2386.55,1340.33 2386.48,1340.33ZM3249.5,1430.29C3249.53,1436.59 3250.53,1442.25 3252.34,1447.12L3177.04,1509.93L3105.22,1556.4L3117.88,1628.22L3092.54,1691.59L3075.64,1674.7L3071.42,1615.55L3058.74,1581.75L3048.32,1583.49L3033.4,1585.98L3016.5,1569.08L2953.12,1577.53L2944.68,1602.88L2864.4,1585.98L2775.68,1636.67L2779.92,1670.47L2746.12,1763.41L2775.68,1835.24L2781.06,1836.7C2767.9,1849.85 2755.86,1862.53 2746.5,1870.49C2737.5,1878.16 2728.5,1885.82 2719.5,1893.48L2602.48,1822.56L2602.48,1801.44L2594.02,1759.19L2560.22,1704.27L2543.32,1683.15L2547.56,1657.8L2521.08,1628.03L2513.76,1619.78L2513.36,1618.2L2501.08,1569.08L2475.74,1560.63L2475.74,1590.2L2488.4,1611.32L2492.62,1632.45L2493.84,1636.46L2500.52,1658.74L2505.3,1674.7L2508.94,1696.49L2509.52,1700.05L2512.86,1705.59L2522.2,1721.17L2517.98,1733.84L2491.3,1703.36L2488.4,1700.05L2487.32,1695.67L2479.96,1666.25L2475.24,1662.58L2441.94,1636.67L2450.44,1626.46L2456.88,1618.74L2463.06,1611.32L2441.94,1564.85L2437.7,1505.71L2382.78,1471.91L2375,1362.93C2375,1362.93 2374.34,1353.62 2374.34,1353.62L2375.1,1352.79L2386.48,1340.33C2386.55,1340.33 2386.63,1340.33 2386.71,1340.31C2390.17,1339.69 2402,1323.37 2402,1323.37L2402.92,1322.36L2415.52,1308.57L2421.44,1302.1L2509.52,1205.75L2547.56,1180.4L2526.42,1104.36L2495.22,1048.87C2495.22,1048.87 2488.4,1036.76 2488.4,1036.76L2491.22,980.294C2491.22,980.294 2492.62,952.27 2492.62,952.27L2429.26,897.35L2336.32,880.45L2285.62,901.574L2284.2,902.672L2247.6,931.146L2205.34,952.27L2125.08,994.518L2082.84,1002.97L2036.36,1040.99L2011.02,1040.99L2023.68,1015.64L2120.86,956.496L2120.86,935.372L2084.46,935.372C2084.82,934.242 2078.6,922.696 2078.6,922.696L2082.84,897.35L2205.34,855.102L2226.48,842.428L2213.8,829.752L2180,829.752L2163.1,821.304L2171.56,804.406L2261.2,786.474L2268.88,784.939L2268.88,784.938L2282.74,782.168L2298.3,779.056L2282.62,774.578L2268.88,770.654L2268.88,770.096L2281.4,732.582L2281.94,732.492L2408.14,711.462L2661.62,732.582C2661.62,732.582 2729.6,745.59 2729.66,745.318C2733.04,745.712 2741.42,745.728 2741.88,745.26C2746.12,741.034 2775.68,724.136 2775.68,724.136L2826.38,728.36L2889.76,732.582L2936.22,724.136L3024.94,745.26L3016.5,766.384L3088.32,766.384L3105.22,791.73L3122.12,766.384L3231.96,766.384L3278.42,783.282L3358.7,732.582L3426.3,736.808L3405.16,800.18L3358.7,833.978L3295.32,838.202L3177.04,926.92L3189.7,948.044L3177.04,977.62L3316.46,1028.31L3295.32,1057.89L3291.1,1108.59L3320.68,1108.59L3371.38,1028.31L3426.3,990.292L3426.3,943.82L3489.66,872L3553.04,872L3591.06,905.796L3595.24,955.972C3594.82,956.238 3675.56,918.474 3675.56,918.474L3679.78,1007.19L3743.14,1045.21L3730.48,1087.46L3696.68,1100.13L3641.76,1121.26L3544.58,1121.26L3523.46,1138.16L3553.04,1150.83L3536.14,1176.18L3536.14,1218.43L3476.98,1239.55L3392.5,1286.02L3392.2,1288.06L3389.38,1307.84L3389.37,1307.84L3388.26,1315.6L3361.22,1322.36L3357.16,1323.37L3357.1,1323.39L3326.77,1330.97C3324.73,1331.52 3322.65,1332.08 3320.55,1332.66L3302.6,1355.99L3301.86,1355.99L3301.71,1355.99L3301.01,1355.99L3300.89,1355.99L3300.23,1355.98L3300.15,1355.98L3299.46,1355.98L3299.31,1355.97L3298.64,1355.96L3298.22,1355.96L3298.15,1355.96L3297.79,1355.95L3297.66,1355.95L3297.36,1355.94L3297.23,1355.94L3296.92,1355.94L3296.81,1355.93L3296.39,1355.93L3295.98,1355.92L3295.88,1355.91L3295.57,1355.91L3295.45,1355.9L3295.15,1355.89L3295.05,1355.89L3294.65,1355.88L3294.25,1355.87L3294.18,1355.87L3293.86,1355.86L3293.76,1355.85L3293.46,1355.84L3293.37,1355.84L3293.02,1355.83L3292.99,1355.83L3292.59,1355.81L3292.22,1355.8L3292.15,1355.79L3291.84,1355.78L3291.77,1355.78L3291.44,1355.76L3291.41,1355.76L3291.03,1355.74L3290.66,1355.72L3290.63,1355.72L3290.31,1355.7L3290.26,1355.7L3289.93,1355.68L3289.9,1355.68L3289.55,1355.66C3289.43,1355.65 3289.31,1355.65 3289.19,1355.64L3288.85,1355.62L3288.82,1355.62L3288.5,1355.59L3288.48,1355.59C3253.94,1353.27 3289.14,1341.33 3320.55,1332.66L3320.55,1332.66C3322.63,1332.09 3324.68,1331.53 3326.7,1330.99L3326.77,1330.97C3342.6,1326.74 3356.11,1323.61 3357.1,1323.39L3357.14,1323.38C3357.14,1323.38 3343.18,1326.58 3326.7,1330.99L3320.68,1332.49L3320.55,1332.66C3291.13,1340.78 3258.39,1351.77 3282.72,1355.04C3284.37,1355.26 3286.29,1355.45 3288.48,1355.59L3288.67,1355.61L3288.82,1355.62L3288.85,1355.62C3289.19,1355.64 3289.54,1355.66 3289.9,1355.68L3290.12,1355.69L3290.26,1355.7L3290.43,1355.71L3290.63,1355.72L3290.66,1355.72C3290.91,1355.74 3291.16,1355.75 3291.41,1355.76L3291.66,1355.77L3291.77,1355.78L3291.8,1355.78L3291.84,1355.78L3291.98,1355.78L3292.15,1355.79L3292.2,1355.79L3292.22,1355.8C3292.47,1355.81 3292.73,1355.82 3292.99,1355.83L3293.28,1355.84L3293.37,1355.84L3293.4,1355.84L3293.46,1355.84L3293.61,1355.85L3293.76,1355.85L3293.82,1355.86L3293.86,1355.86L3293.95,1355.86L3294.18,1355.87L3294.25,1355.87C3294.38,1355.87 3294.52,1355.88 3294.65,1355.88L3294.98,1355.89L3295.05,1355.89L3295.08,1355.89L3295.15,1355.89L3295.33,1355.9L3295.45,1355.9L3295.51,1355.9L3295.57,1355.91L3295.68,1355.91L3295.88,1355.91L3295.95,1355.92L3295.98,1355.92C3296.25,1355.92 3296.53,1355.93 3296.81,1355.93L3296.84,1355.93L3296.92,1355.94L3297.12,1355.94L3297.23,1355.94L3297.29,1355.94L3297.36,1355.94L3297.49,1355.95L3297.66,1355.95L3297.75,1355.95L3297.79,1355.95L3297.87,1355.95L3298.15,1355.96L3298.22,1355.96C3298.36,1355.96 3298.5,1355.96 3298.64,1355.96C3298.86,1355.97 3299.09,1355.97 3299.31,1355.97L3299.39,1355.97L3299.46,1355.98C3299.69,1355.98 3299.92,1355.98 3300.15,1355.98L3300.17,1355.98L3300.23,1355.98L3300.6,1355.99L3300.89,1355.99L3300.97,1355.99L3301.01,1355.99C3301.24,1355.99 3301.48,1355.99 3301.71,1355.99L3301.78,1355.99L3301.86,1355.99C3302.11,1355.99 3302.36,1355.99 3302.6,1355.99L3284.32,1379.76L3278.42,1387.42L3261.52,1400.09L3261.52,1362.07L3244.62,1400.09L3249.56,1427.2L3253.08,1446.56L3252.34,1447.12C3250.5,1442.17 3249.5,1436.41 3249.5,1429.99L3249.5,1430.29Z" style="fill:rgb(59,147,173);"/>
                </g>
                <path d="M3130.54,1067.6L3119.98,1052.81L3124.2,1027.46L3134.76,1027.46L3151.66,1042.25L3130.54,1067.6Z" style="fill:rgb(59,147,173);"/>
                <path d="M3671.3,1625.26L3658.63,1621.03L3662.85,1610.47L3666.66,1593.34L3666.71,1593.34C3666.81,1593.34 3666.9,1593.33 3667,1593.32C3667.75,1593.19 3668.23,1592.61 3668.07,1592.01C3668.05,1591.92 3668.01,1591.83 3667.96,1591.75L3673.42,1593.57L3694.54,1593.57L3709.33,1587.24L3694.54,1608.36L3671.3,1625.26Z" style="fill:rgb(59,147,173);"/>
                <g transform="matrix(0.5,0,0,0.5,0,0)">
                    <path d="M3895.24,2359.1L3916.88,2371.46" style="fill:none;"/>
                </g>
                <g transform="matrix(0.5,0,0,0.5,0,0)">
                    <path d="M7255.76,3011.46C7255.76,3011.46 7237.74,3009.22 7238.32,3009.62L7198.96,3005.48L7135.6,2963.24L7076.46,2992.8L6951.62,3037.1L6950.6,3037.46L6945.48,3039.28L6856.76,3039.28L6899.02,2836.5C6899.02,2836.5 6910.26,2760.52 6919,2730.28L6919.09,2729.96C6921.02,2723.32 6922.82,2718.97 6924.36,2718.2C6926.64,2717.06 6936.68,2710.96 6950.6,2702.84L6951.62,2702.24L6954.13,2700.78C6966.86,2693.39 6982.32,2684.64 6997.94,2676.5L6999.88,2675.48L7001.66,2674.57C7003.45,2673.65 7005.23,2672.74 7007,2671.86L7007.28,2671.72C7031.36,2659.62 7054.53,2649.92 7067.22,2649.92C7069.14,2649.92 7070.82,2650.14 7072.22,2650.6C7073.1,2650.9 7074.12,2651.04 7075.3,2651.04C7095.84,2651.04 7160.42,2608 7206,2575.68L7206.32,2575.45C7233.54,2556.16 7253.88,2540.76 7253.88,2540.76L7255,2540.34L7342.6,2506.96L7380.62,2625.26L7437.56,2675.48L7438.7,2676.5L7452.44,2688.62L7456.64,2676.5L7456.98,2675.48L7494.7,2566.12L7552.42,2675.48L7552.96,2676.5L7574.96,2718.2L7621.44,2878.74L7545.4,2980.14L7427.1,3132.22L7317.26,3132.22L7312.3,3097.54L7310.26,3083.2L7308.8,3073.08L7295.58,3046.64L7279.24,3013.94L7255.76,3011.46Z" style="fill:rgb(59,147,173);"/>
                </g>
                <g transform="matrix(0.5,0,0,0.5,0,0)">
                    <path d="M7034.2,2283.06L7037,2280.26L7068,2249.26L7122.92,2342.2L7089.12,2354.88L7063.78,2409.8L7046.88,2363.32L7037,2300.78L7034.2,2283.06Z" style="fill:rgb(59,147,173);"/>
                </g>
                <g transform="matrix(0.5,0,0,0.5,0,0)">
                    <path d="M7401.76,2388.68L7365,2364.18L7351.06,2354.88L7282.26,2306.32C7282.32,2306.06 7308.8,2270.38 7308.8,2270.38L7359.5,2346.42L7365,2344.96L7453,2321.5L7486.24,2312.64L7549.62,2350.66L7596.08,2405.58L7672.14,2477.4L7638.34,2494.3L7541.16,2452.04L7494.7,2460.5L7401.76,2443.6L7401.76,2388.68Z" style="fill:rgb(59,147,173);"/>
                </g>
                <g transform="matrix(0.5,0,0,0.5,0,0)">
                    <path d="M6784.94,2422.48L6831.42,2401.34L6937.04,2409.8L7011,2439.97C7021.37,2442.3 7061.83,2439.41 7110.24,2435.14L7186.3,2439.38L7046.88,2456.26C7002.31,2456.84 6957.12,2456.66 6910.23,2454.41L6882.52,2456.58C6865.55,2454 6849.19,2449.15 6833.33,2442.51L6784.94,2422.48Z" style="fill:rgb(59,147,173);"/>
                </g>
                <g transform="matrix(0.5,0,0,0.5,0,0)">
                    <path d="M6695.6,2345.46L6658.2,2316.86L6632.86,2223.9L6561.04,2147.86L6637.08,2177.44L6692,2257.7L6763.78,2317L6789.16,2337.98L6763.82,2414.02L6730.02,2371.78L6701.86,2350.24L6695.6,2345.46Z" style="fill:rgb(59,147,173);"/>
                </g>
                <path d="M3536.11,987.325L3510.76,959.865L3519.21,921.842L3546.67,940.854L3561.46,976.763L3536.11,987.325Z" style="fill:rgb(59,147,173);"/>
                <path d="M1626.54,928.179L1622.31,923.955L1609.64,926.068L1594.85,921.842L1615.98,921.842L1615.98,911.28L1609.64,907.057L1630.76,904.944L1643.44,907.057L1651.89,915.506L1656.11,923.955L1641.32,921.842L1630.76,923.955L1626.54,928.179Z" style="fill:rgb(59,147,173);"/>
                <path d="M1818.76,1718.2L1820.88,1707.64L1831.44,1703.42L1833.55,1707.64L1829.33,1716.09L1818.76,1718.2Z" style="fill:rgb(59,147,173);"/>
                <path d="M1837.78,1718.2L1835.66,1713.98L1837.78,1709.75L1844.11,1709.75L1837.78,1718.2Z" style="fill:rgb(59,147,173);"/>
                <path d="M1679.35,926.068L1670.9,926.068L1666.67,921.842L1683.57,917.619L1679.35,926.068Z" style="fill:rgb(59,147,173);"/>
                <path d="M1746.94,640.9L1736.38,636.674L1744.83,628.225L1763.84,619.776L1776.52,617.663L1784.97,609.214L1795.53,600.764L1795.53,607.101L1791.3,613.437L1784.97,623.999L1768.07,634.561L1746.94,640.9Z" style="fill:rgb(59,147,173);"/>
                <path d="M1848.34,600.764L1850.45,592.315L1846.22,590.202L1831.44,594.426L1816.65,592.315L1816.65,588.09L1833.55,573.304L1850.45,552.18L1863.12,550.067L1863.12,556.404L1852.56,564.855L1852.56,573.304L1875.8,573.304L1873.69,579.64L1877.84,587.951C1877.78,587.938 1871.57,598.652 1871.57,598.652L1858.9,598.652L1848.34,600.764Z" style="fill:rgb(59,147,173);"/>
                <path d="M1793.41,575.415L1786.76,572.086C1786.91,571.971 1787.05,571.83 1787.16,571.669C1787.55,571.148 1787.6,570.572 1787.34,570.241L1795.53,566.966L1810.32,573.304L1793.41,575.415ZM1785.1,571.259L1784.97,571.191L1785.16,571.115C1785.13,571.163 1785.12,571.211 1785.1,571.259Z" style="fill:rgb(59,147,173);"/>
                <path d="M1588.52,319.82L1571.62,309.258L1599.08,302.921C1599.08,302.921 1603.77,301.982 1607.53,301.982C1609.41,301.982 1611.05,302.217 1611.75,302.921C1613.86,305.034 1615.98,309.258 1615.98,309.258L1641.32,298.698L1645.33,301.365C1645.4,301.503 1645.52,301.614 1645.68,301.681C1645.75,301.709 1645.82,301.728 1645.89,301.738L1647.66,302.921C1647.66,302.921 1645.76,310.529 1641.96,311.307C1641.96,311.307 1641.96,311.301 1641.96,311.307C1636.23,312.276 1620.2,317.709 1620.2,317.709L1588.52,319.82Z" style="fill:rgb(59,147,173);"/>
                <path d="M1666.67,345.169L1643.44,338.831L1658.23,330.382L1681.46,324.045L1694.13,326.158C1694.13,326.158 1684.64,339.881 1683.57,340.944C1681.46,343.056 1666.67,345.169 1666.67,345.169Z" style="fill:rgb(59,147,173);"/>
                <path d="M1651.89,370.517L1641.32,368.404L1647.66,366.291L1658.23,359.955L1662.45,364.18L1651.89,370.517Z" style="fill:rgb(59,147,173);"/>
                <path d="M1725.82,393.754L1715.26,389.528L1717.37,383.192L1736.38,368.404L1749.06,362.068L1772.29,366.291L1746.94,389.528L1725.82,393.754Z" style="fill:rgb(59,147,173);"/>
                <path d="M1723.71,423.325L1711.03,416.989L1698.36,423.325L1679.35,423.325L1689.91,414.876L1713.15,402.203L1723.71,412.765L1734.27,421.214L1723.71,423.325Z" style="fill:rgb(59,147,173);"/>
                <path d="M1829.33,438.113L1812.43,438.113L1799.75,425.438L1789.19,414.876L1761.73,414.876L1765.95,404.314L1793.41,402.203L1803.51,401.193C1803.52,401.201 1803.54,401.207 1803.56,401.213C1803.65,401.242 1803.74,401.255 1803.84,401.255C1804.04,401.255 1804.26,401.199 1804.47,401.098L1814.54,400.09L1837.78,387.415L1852.56,406.427L1851.43,415.496C1851.4,415.593 1851.39,415.686 1851.39,415.773L1850.45,423.325L1829.33,427.551L1829.33,438.113Z" style="fill:rgb(59,147,173);"/>
                <path d="M1782.85,391.641L1784.97,383.192L1787.08,376.853L1799.75,372.63L1803.98,381.079L1800.34,384.712C1800.05,384.836 1799.77,385.048 1799.57,385.321C1799.55,385.344 1799.54,385.367 1799.52,385.39L1782.85,391.641Z" style="fill:rgb(59,147,173);"/>
                <path d="M1770.18,317.709L1742.72,315.596L1751.17,300.809L1772.29,298.698L1793.41,305.034L1820.88,302.921L1825.1,309.258L1806.09,313.483L1770.18,317.709Z" style="fill:rgb(59,147,173);"/>
                <path d="M1689.91,313.483L1679.35,309.258L1700.47,296.585L1717.37,298.698L1717.37,305.034L1689.91,313.483Z" style="fill:rgb(59,147,173);"/>
                <path d="M1723.71,290.247L1719.48,288.136L1698.36,286.023L1704.7,275.461L1719.48,281.797L1730.04,283.91L1723.71,290.247Z" style="fill:rgb(59,147,173);"/>
                <path d="M2982.67,281.797L2942.54,277.574L2953.1,256.45L2976.34,258.562L2997.46,271.235L2982.67,281.797Z" style="fill:rgb(59,147,173);"/>
                <path d="M3343.89,319.82L3303.75,315.596L3272.07,311.37L3286.85,298.698L3346,307.147L3362.9,311.37L3343.89,319.82Z" style="fill:rgb(59,147,173);"/>
                <path d="M3639.62,651.46L3624.83,643.01L3603.71,619.776L3622.72,613.437L3660.74,638.787L3639.62,651.46Z" style="fill:rgb(59,147,173);"/>
                <path d="M3599.48,588.09L3572.02,571.191L3561.46,550.067L3548.79,524.719L3572.02,550.067L3605.82,571.191L3599.48,588.09Z" style="fill:rgb(59,147,173);"/>
                <path d="M3943.8,1608.36L3943.8,1578.79L3956.47,1559.77L3956.47,1536.54L3973.37,1519.64L3979.71,1547.1L3994.49,1557.66L3994.49,1566.11C3994.49,1566.11 3973.37,1578.79 3969.15,1580.9C3964.92,1583.01 3950.13,1595.69 3950.13,1595.69L3943.8,1608.36Z" style="fill:rgb(59,147,173);"/>
                <g transform="matrix(0.5,0,0,0.5,0,0)">
                    <path d="M7651.02,3288.54L7743.96,3246.3L7807.32,3216.72L7836.9,3187.14L7857.94,3195.56C7857.92,3195.62 7857.92,3195.68 7857.94,3195.72L7820,3250.52L7752.4,3313.88L7732.06,3317.7L7731.06,3317.9L7684.8,3326.56L7638.34,3322.34L7651.02,3288.54Z" style="fill:rgb(59,147,173);"/>
                </g>
                <g transform="matrix(0.5,0,0,0.5,0,0)">
                    <path d="M3049.34,1751.22L3048.32,1751.72L3041.84,1754.97L3020.72,1763.41L3008.04,1763.41L3037.62,1729.62L3048.32,1730.69L3049.34,1730.79L3079.86,1733.84L3109.44,1746.52L3124.94,1755.82L3130.56,1759.19L3151.68,1771.87L3163.52,1777.79L3185.48,1788.76L3202.38,1801.44L3164.36,1814.11L3139.02,1814.11L3134.78,1792.99L3113.66,1780.31L3096.76,1763.41L3067.2,1754.97L3058.74,1746.52L3049.34,1751.22L3049.34,1751.22Z" style="fill:rgb(59,147,173);"/>
                </g>
                <g transform="matrix(0.5,0,0,0.5,0,0)">
                    <path d="M3128.64,646.81L3130.56,648.09L3092.54,660.764L3049.34,678.044L3048.32,678.45L3029.16,686.112L2974.24,690.338L2944.68,677.662L2986.92,656.538L3001.52,646.81L3003.04,645.798L3024.94,631.192L3105.22,631.192L3127.12,645.798L3128.64,646.81Z" style="fill:rgb(59,147,173);"/>
                </g>
                <g transform="matrix(0.5,0,0,0.5,0,0)">
                    <path d="M3048.32,727.374L3033.4,719.91L3037.62,690.338L3048.32,686.174L3049.34,685.78L3049.34,685.778L3113.66,660.764L3160.14,669.214L3215.06,669.214L3261.52,656.538C3261.52,656.538 3240.4,697.276 3240.4,698.786C3240.4,703.012 3248.86,719.91 3248.86,719.91L3257.3,745.26L3240.4,753.706L3194.26,732.736C3194.92,732.542 3164.36,732.582 3164.36,732.582L3100.98,736.808L3067.2,736.808L3049.34,727.884L3049.34,727.882L3048.32,727.374Z" style="fill:rgb(59,147,173);"/>
                </g>
                <g transform="matrix(0.5,0,0,0.5,0,0)">
                    <path d="M3423.4,645.798L3426.3,643.864L3472.76,639.64L3485.08,645.798C3485.08,645.798 3487.1,646.81 3487.1,646.81C3487.1,646.81 3489.66,648.09 3489.66,648.09L3455.86,664.988L3413.62,669.214L3405.16,686.112L3409.4,707.236L3367.14,715.684L3333.34,715.684L3337.58,707.236L3384.04,681.888L3388.26,669.214L3421.88,646.81C3421.88,646.81 3423.4,645.798 3423.4,645.798Z" style="fill:rgb(59,147,173);"/>
                </g>
                <g transform="matrix(0.5,0,0,0.5,0,0)">
                    <path d="M3147.46,1860.58L3130.56,1856.36L3122.12,1850.73L3117.88,1847.91L3124.06,1844.82L3134.78,1839.46L3155.9,1847.91L3154.02,1850.74L3150.08,1856.65L3147.46,1860.58Z" style="fill:rgb(59,147,173);"/>
                </g>
                <g transform="matrix(0.5,0,0,0.5,0,2.07568)">
                    <path d="M3544.68,646.81L3553.04,643.864L3553.68,645.798L3554.02,646.81L3557.26,656.538L3658.66,656.538L3658.66,673.44L3709.34,698.786L3743.14,719.91L3730.48,736.808L3709.34,741.034L3793.84,787.508L3730.48,817.078L3726.24,800.18L3705.12,791.73L3692.44,787.508L3688.22,770.606L3675.56,762.158L3641.76,774.83L3620.64,728.36L3591.06,707.236L3557.26,724.136L3485.44,715.684L3443.2,707.236L3451.64,690.338L3481.22,669.214L3544.68,646.81Z" style="fill:rgb(59,147,173);"/>
                </g>
                <g transform="matrix(0.5,0,0,0.5,0,3.11352)">
                    <path d="M3829.8,536.654L3828.78,536.908L3823.42,538.248L3789.62,550.922L3743.14,572.046L3705.12,588.944L3658.66,597.396L3620.64,576.272L3607.96,567.82L3565.7,572.046L3536.14,555.148L3557.26,529.798L3607.96,525.572L3641.76,534.024L3671.32,521.35L3722.02,521.35L3776.94,500.226L3869.88,500.226L3992.4,508.674L3979.74,521.35L3920.58,529.798L3874.12,525.572L3829.8,536.652L3829.8,536.654Z" style="fill:rgb(59,147,173);"/>
                </g>
                <g transform="matrix(0.5,0,0,0.5,0,0)">
                    <path d="M3958.6,639.64L3929.04,601.618L3829.8,612.252L3828.78,612.36L3810.74,614.294L3789.62,610.068L3802.3,580.494L3828.78,573.872L3829.8,573.618L3886.78,559.372L3929.04,534.024L3979.74,538.248L4064.22,512.9L4233.22,500.226L4368.4,496L4465.58,508.674L4592.32,517.124L4486.7,550.922L4452.9,588.944L4457.12,635.418L4446.74,645.798L4445.72,646.81L4444.44,648.09L4406.42,656.538L4397.98,686.112L4364.18,703.012L4385.3,732.582L4250.12,753.706L4207.86,783.282L4131.82,787.508L4055.78,842.428L4000.86,905.796L3958.6,905.796L3937.48,867.774L3920.58,846.65L3886.78,812.854L3950.16,745.26L3983.96,724.136L3975.5,686.112L3961.22,646.81L3960.84,645.798L3958.6,639.64Z" style="fill:rgb(59,147,173);"/>
                </g>
                <g transform="matrix(0.5,0,0,0.5,0,0)">
                    <path d="M4349.58,1998.92C4349.58,1998.92 4349.58,1998.92 4349.58,1998.92ZM5389.7,1836.22L5441.48,1932.4L5515.76,1999.94L5389.7,1999.94L5515.78,1999.94L5534.42,2016.9L5631.6,2008.44L5644.28,2105.62L5475.28,2316.86L5433.04,2392.9L5466.84,2566.12L5416.14,2650.6L5389.7,2673.52L5386.26,2676.5L5352.76,2705.52L5373.08,2774.6L5370.66,2779.66L5285.16,2840.72L5251.18,2918.9L5251.17,2918.9L5251.17,2918.9L5251.18,2918.9L5242.92,2937.88L5223,2953.22L5149.17,3010L5133.08,3022.38L5027.46,3039.28L4980.98,2908.32L4955.64,2844.94L4951.46,2786.32L4934.52,2747.78L4912.91,2714.39L4902.66,2698.56L4902.67,2698.55L4898.57,2692.22L4898.56,2692.22L4894.39,2685.75L4888.4,2676.5L4888.12,2675.48L4904.94,2574.56L4934.52,2519.64C4934.52,2519.64 4927.72,2473.78 4927.72,2473.78L4927.73,2473.78L4927.73,2473.78L4927.72,2473.78L4924.89,2454.63L4917.62,2405.58L4913,2398.46L4862.7,2321.08L4855.94,2240L4854.68,2224.9L4854.24,2219.68L4828.9,2156.32L4769.76,2122.52L4681.04,2126.74L4641,2135.54L4507.82,2164.76L4470,2133.82L4414.88,2088.72L4349.58,1998.92L4347.28,1995.77L4349.9,1906.57C4350,1906.19 4350.02,1905.79 4349.94,1905.4L4351.5,1852.14L4326.16,1763.41L4406.42,1619.78L4571.2,1471.91L4610.26,1463.8L4795.1,1425.44L4862.7,1493.04L5014.78,1564.85L5090.84,1497.26L5188,1539.51L5264.04,1535.28L5251.36,1598.65L5389.7,1836.22Z" style="fill:rgb(59,147,173);"/>
                </g>
            </g>
        </g>
        <g transform="matrix(1.68256,0,0,1,-1.25056e-12,-400.914)">
            <g opacity="0.15">
                <g transform="matrix(0.384,0,0,0.384,4.54747e-13,503.583)">
                    <path d="M0,3398.46L1572.16,2839.18L3190.42,1905.02L4258.52,1861.02L5982.4,1051.07L7994.88,719.004L10000,592.008" style="fill:none;stroke:rgb(31,197,168);stroke-width:7.84px;"/>
                </g>
                <g transform="matrix(0.384,0,0,0.384,4.54747e-13,1870.6)">
                    <path d="M0,247.3L681.042,92.44L1277.53,254.58L2371.28,658.48L4490.98,490.5L6441.46,600.56L7857.24,938.5L9368.56,938.5L10000,639.44" style="fill:none;stroke:rgb(87,97,178);stroke-width:7.84px;"/>
                </g>
                <g transform="matrix(0.384,0,0,0.384,4.54747e-13,621.943)">
                    <path d="M0,3263L2586.76,2959.02L4720.44,2533.08L6098.78,1988.94L7769.1,2255.68L8952.86,2675L10000,2396.9" style="fill:none;stroke:rgb(87,97,178);stroke-width:7.84px;"/>
                </g>
                <g transform="matrix(0.384,0,0,0.384,4.54747e-13,720.04)">
                    <path d="M10000,1034L9508.22,1135.12L7994.08,2149.2L6042.54,2885.04L4593.42,3034.94L3821.66,2599.08L2403.28,2403.02L1623,3143L547.892,2965.12L324.872,2896.86L0,3040.68" style="fill:none;stroke:rgb(31,197,168);stroke-width:7.84px;"/>
                </g>
            </g>
        </g>
        <g transform="matrix(0.999952,2.31964e-16,-2.44932e-16,0.94712,-2155.19,167.426)">
            <g id="slupki" transform="matrix(0.921052,0,0,0.921052,-382.63,5.40112)">
                <g opacity="0.2">
                    <g transform="matrix(1.04886,0,0,1.04886,486.198,7.23588)">
                        <path d="M2463.72,1783.62L2463.72,1804.6L2468.22,1804.6L2468.22,1783.62L2486.81,1783.62L2486.81,1677.8L2444.86,1677.8L2444.86,1783.62L2463.72,1783.62Z" style="fill:rgb(59,147,173);"/>
                    </g>
                    <g transform="matrix(1.04886,0,0,1.04886,486.198,7.23588)">
                        <path d="M2540.68,1438.49L2540.68,1432.29L2535.91,1432.29L2535.91,1438.49L2517.32,1438.49L2517.32,1704.49L2535.91,1704.49L2535.91,1786.49L2540.68,1786.49L2540.68,1704.49L2559.27,1704.49L2559.27,1438.49L2540.68,1438.49Z" style="fill:rgb(59,147,173);"/>
                    </g>
                    <g transform="matrix(1.04886,0,0,1.04886,486.198,7.23588)">
                        <path d="M2613.14,1340.28L2613.14,1296.43L2608.37,1296.43L2608.37,1340.28L2589.78,1340.28L2589.78,1533.83L2631.73,1533.83L2631.73,1340.28L2613.14,1340.28Z" style="fill:rgb(59,147,173);"/>
                    </g>
                    <g transform="matrix(1.04886,0,0,1.04886,486.198,7.23588)">
                        <path d="M2683.69,1460.41L2683.69,1441.35L2678.92,1441.35L2678.92,1460.41L2660.33,1460.41L2660.33,1597.71L2678.92,1597.71L2678.92,1631.08L2683.69,1631.08L2683.69,1597.71L2702.28,1597.71L2702.28,1460.41L2683.69,1460.41Z" style="fill:rgb(59,147,173);"/>
                    </g>
                    <g transform="matrix(1.04886,0,0,1.04886,486.198,7.23588)">
                        <path d="M2766.64,1243.99L2766.64,1199.18L2761.87,1199.18L2761.87,1243.99L2743.28,1243.99L2743.28,1507.13L2785.23,1507.13L2785.23,1243.99L2766.64,1243.99Z" style="fill:rgb(59,147,173);"/>
                    </g>
                    <g transform="matrix(1.04886,0,0,1.04886,486.198,7.23588)">
                        <path d="M2858.17,1122.9L2858.17,1082.06L2853.4,1082.06L2853.4,1122.9L2834.81,1122.9L2834.81,1386.05L2876.76,1386.05L2876.76,1122.9L2858.17,1122.9Z" style="fill:rgb(59,147,173);"/>
                    </g>
                    <g transform="matrix(1.04886,0,0,1.04886,486.198,7.23588)">
                        <path d="M2914.42,991.332L2914.42,964.637L2909.21,964.637L2909.21,991.332L2891.06,991.332L2891.06,1170.58L2909.21,1170.58L2909.21,1215.39L2914.42,1215.39L2914.42,1170.58L2933.01,1170.58L2933.01,991.332L2914.42,991.332Z" style="fill:rgb(59,147,173);"/>
                    </g>
                    <g transform="matrix(1.04886,0,0,1.04886,486.198,7.23588)">
                        <path d="M2976.39,1138.16L2976.39,1122.9L2971.62,1122.9L2971.62,1138.16L2953.03,1138.16L2953.03,1219.2L2971.62,1219.2L2971.62,1234.45L2976.39,1234.45L2976.39,1219.2L2994.98,1219.2L2994.98,1138.16L2976.39,1138.16Z" style="fill:rgb(59,147,173);"/>
                    </g>
                    <g transform="matrix(1.04886,0,0,1.04886,486.198,7.23588)">
                        <path d="M3070.78,848.318L3070.78,788.255L3066.38,788.255L3066.38,848.318L3047.42,848.318L3047.42,1144.83L3089.37,1144.83L3089.37,848.318L3070.78,848.318Z" style="fill:rgb(59,147,173);"/>
                    </g>
                    <g transform="matrix(1.04886,0,0,1.04886,486.198,7.23588)">
                        <path d="M3187.1,724.375L3187.1,703.399L3182.33,703.399L3182.33,724.375L3163.74,724.375L3163.74,1020.89L3182.33,1020.89L3182.33,1076.19L3187.1,1076.19L3187.1,1020.89L3205.69,1020.89L3205.69,724.375L3187.1,724.375Z" style="fill:rgb(59,147,173);"/>
                    </g>
                    <g transform="matrix(1.04886,0,0,1.04886,486.198,7.23588)">
                        <path d="M3241.44,848.318L3241.44,788.255L3236.67,788.255L3236.67,848.318L3219.03,848.318L3219.03,1144.83L3236.67,1144.83L3236.67,1160.09L3241.44,1160.09L3241.44,1144.83L3260.99,1144.83L3260.99,848.318L3241.44,848.318Z" style="fill:rgb(59,147,173);"/>
                    </g>
                    <g transform="matrix(1.04886,0,0,1.04886,486.198,7.23588)">
                        <path d="M3294.83,441.209L3294.83,355.4L3290.07,355.4L3290.07,441.209L3271.47,441.209L3271.47,975.109L3290.07,975.109L3290.07,1003.73L3294.83,1003.73L3294.83,975.109L3313.42,975.109L3313.42,441.209L3294.83,441.209Z" style="fill:rgb(59,147,173);"/>
                    </g>
                    <g transform="matrix(1.04886,0,0,1.04886,486.198,7.23588)">
                        <path d="M3370.15,703.399L3370.15,658.589L3365.39,658.589L3365.39,703.399L3346.79,703.399L3346.79,1028.52L3388.74,1028.52L3388.74,703.399L3370.15,703.399Z" style="fill:rgb(59,147,173);"/>
                    </g>
                    <g transform="matrix(1.04886,0,0,1.04886,486.198,7.23588)">
                        <path d="M3444.52,1096.21L3444.52,1140.07L3449.29,1140.07L3449.29,1096.21L3467.88,1096.21L3467.88,919.827L3425.93,919.827L3425.93,1096.21L3444.52,1096.21Z" style="fill:rgb(59,147,173);"/>
                    </g>
                    <g transform="matrix(1.04886,0,0,1.04886,486.198,7.23588)">
                        <path d="M3625.67,804.462L3625.67,745.35L3620.9,745.35L3620.9,804.462L3602.31,804.462L3602.31,1054.26L3620.9,1054.26L3620.9,1067.61L3625.67,1067.61L3625.67,1054.26L3644.26,1054.26L3644.26,804.462L3625.67,804.462Z" style="fill:rgb(59,147,173);"/>
                    </g>
                    <g transform="matrix(1.04886,0,0,1.04886,486.198,7.23588)">
                        <path d="M3680.97,783.487L3680.97,745.35L3676.2,745.35L3676.2,783.487L3657.61,783.487L3657.61,913.153L3676.2,913.153L3676.2,934.128L3680.97,934.128L3680.97,913.153L3699.56,913.153L3699.56,783.487L3680.97,783.487Z" style="fill:rgb(59,147,173);"/>
                    </g>
                    <g transform="matrix(1.04886,0,0,1.04886,486.198,7.23588)">
                        <path d="M3763.91,669.076L3763.91,647.147L3759.15,647.147L3759.15,669.076L3740.56,669.076L3740.56,939.848L3759.15,939.848L3759.15,984.658L3763.91,984.658L3763.91,939.848L3782.51,939.848L3782.51,669.076L3763.91,669.076Z" style="fill:rgb(59,147,173);"/>
                    </g>
                    <g transform="matrix(1.04886,0,0,1.04886,486.198,7.23588)">
                        <path d="M3858.3,1048.54L3858.3,1076.19L3863.07,1076.19L3863.07,1048.54L3881.66,1048.54L3881.66,856.9L3839.71,856.9L3839.71,1048.54L3858.3,1048.54Z" style="fill:rgb(59,147,173);"/>
                    </g>
                    <g transform="matrix(1.04886,0,0,1.04886,486.198,7.23588)">
                        <path d="M3920.28,903.617L3920.28,863.574L3915.51,863.574L3915.51,903.617L3896.92,903.617L3896.92,1095.74L3938.87,1095.74L3938.87,903.617L3920.28,903.617Z" style="fill:rgb(59,147,173);"/>
                    </g>
                    <g transform="matrix(1.04886,0,0,1.04886,486.198,7.23588)">
                        <path d="M4001.32,1003.73L4001.32,919.827L3996.55,919.827L3996.55,1003.73L3977.96,1003.73L3977.96,1293.57L4019.91,1293.57L4019.91,1003.73L4001.32,1003.73Z" style="fill:rgb(59,147,173);"/>
                    </g>
                    <g transform="matrix(1.04886,0,0,1.04886,486.198,7.23588)">
                        <path d="M4069.96,1122.9L4069.96,1160.09L4074.73,1160.09L4074.73,1122.9L4093.32,1122.9L4093.32,788.255L4051.37,788.255L4051.37,1122.9L4069.96,1122.9Z" style="fill:rgb(59,147,173);"/>
                    </g>
                    <g transform="matrix(1.04886,0,0,1.04886,486.198,7.23588)">
                        <path d="M4143.38,745.35L4143.38,689.098L4138.61,689.098L4138.61,745.35L4120.02,745.35L4120.02,939.848L4161.97,939.848L4161.97,745.35L4143.38,745.35Z" style="fill:rgb(59,147,173);"/>
                    </g>
                    <g transform="matrix(1.04886,0,0,1.04886,486.198,7.23588)">
                        <path d="M4198.68,969.404L4198.68,1012.31L4203.44,1012.31L4203.44,969.404L4222.03,969.404L4222.03,856.9L4180.08,856.9L4180.08,969.404L4198.68,969.404Z" style="fill:rgb(59,147,173);"/>
                    </g>
                    <g transform="matrix(1.04886,0,0,1.04886,486.198,7.23588)">
                        <path d="M2186.96,1325.98L2186.96,1308.82L2182.19,1308.82L2182.19,1325.98L2163.6,1325.98L2163.6,1490.92L2182.19,1490.92L2182.19,1512.85L2186.96,1512.85L2186.96,1490.92L2205.55,1490.92L2205.55,1325.98L2186.96,1325.98Z" style="fill:rgb(59,147,173);"/>
                    </g>
                    <g transform="matrix(1.04886,0,0,1.04886,486.198,7.23588)">
                        <path d="M2240.35,1129.58L2240.35,1049.49L2235.58,1049.49L2235.58,1129.58L2216.99,1129.58L2216.99,1408.45L2235.58,1408.45L2235.58,1430.86L2240.35,1430.86L2240.35,1408.45L2258.94,1408.45L2258.94,1129.58L2240.35,1129.58Z" style="fill:rgb(59,147,173);"/>
                    </g>
                    <g transform="matrix(1.04886,0,0,1.04886,486.198,7.23588)">
                        <path d="M2301.37,1287.85L2301.37,1225.39L2296.6,1225.39L2296.6,1287.85L2278.01,1287.85L2278.01,1566.25L2319.96,1566.25L2319.96,1287.85L2301.37,1287.85Z" style="fill:rgb(59,147,173);"/>
                    </g>
                    <g transform="matrix(1.04886,0,0,1.04886,486.198,7.23588)">
                        <path d="M2371.92,1533.83L2371.92,1500.46L2367.15,1500.46L2367.15,1533.83L2348.56,1533.83L2348.56,1713.07L2367.15,1713.07L2367.15,1719.55L2371.92,1719.55L2371.92,1713.07L2390.51,1713.07L2390.51,1533.83L2371.92,1533.83Z" style="fill:rgb(59,147,173);"/>
                    </g>
                </g>
            </g>
            <g id="slupki1" serif:id="slupki" transform="matrix(0.921052,0,-2.27057e-32,0.921052,4090.13,-178.348)">
                <g opacity="0.2">
                    <g transform="matrix(1.04886,0,0,1.04886,486.198,7.23588)">
                        <path d="M2463.72,1783.62L2463.72,1804.6L2468.22,1804.6L2468.22,1783.62L2486.81,1783.62L2486.81,1677.8L2444.86,1677.8L2444.86,1783.62L2463.72,1783.62Z" style="fill:rgb(59,147,173);"/>
                    </g>
                    <g transform="matrix(1.04886,0,0,1.04886,486.198,7.23588)">
                        <path d="M319.207,1017.08L319.207,971.702L314.441,971.702L314.441,1017.08L295.847,1017.08L295.847,1182.97L314.441,1182.97L314.441,1206.81L319.207,1206.81L319.207,1182.97L337.798,1182.97L337.798,1017.08L319.207,1017.08Z" style="fill:rgb(59,147,173);"/>
                    </g>
                    <g transform="matrix(1.04886,0,0,1.04886,486.198,7.23588)">
                        <path d="M368.785,1224.92L368.785,1297.38L373.553,1297.38L373.553,1224.92L392.145,1224.92L392.145,1114.32L350.193,1114.32L350.193,1224.92L368.785,1224.92Z" style="fill:rgb(59,147,173);"/>
                    </g>
                    <g transform="matrix(1.04886,0,0,1.04886,486.198,7.23588)">
                        <path d="M2540.68,1438.49L2540.68,1432.29L2535.91,1432.29L2535.91,1438.49L2517.32,1438.49L2517.32,1704.49L2535.91,1704.49L2535.91,1786.49L2540.68,1786.49L2540.68,1704.49L2559.27,1704.49L2559.27,1438.49L2540.68,1438.49Z" style="fill:rgb(59,147,173);"/>
                    </g>
                    <g transform="matrix(1.04886,0,0,1.04886,486.198,7.23588)">
                        <path d="M2613.14,1340.28L2613.14,1296.43L2608.37,1296.43L2608.37,1340.28L2589.78,1340.28L2589.78,1533.83L2631.73,1533.83L2631.73,1340.28L2613.14,1340.28Z" style="fill:rgb(59,147,173);"/>
                    </g>
                    <g transform="matrix(1.04886,0,0,1.04886,486.198,7.23588)">
                        <path d="M2683.69,1460.41L2683.69,1441.35L2678.92,1441.35L2678.92,1460.41L2660.33,1460.41L2660.33,1597.71L2678.92,1597.71L2678.92,1631.08L2683.69,1631.08L2683.69,1597.71L2702.28,1597.71L2702.28,1460.41L2683.69,1460.41Z" style="fill:rgb(59,147,173);"/>
                    </g>
                    <g transform="matrix(1.04886,0,0,1.04886,486.198,7.23588)">
                        <path d="M2766.64,1243.99L2766.64,1199.18L2761.87,1199.18L2761.87,1243.99L2743.28,1243.99L2743.28,1507.13L2785.23,1507.13L2785.23,1243.99L2766.64,1243.99Z" style="fill:rgb(59,147,173);"/>
                    </g>
                    <g transform="matrix(1.04886,0,0,1.04886,486.198,7.23588)">
                        <path d="M2858.17,1122.9L2858.17,1082.06L2853.4,1082.06L2853.4,1122.9L2834.81,1122.9L2834.81,1386.05L2876.76,1386.05L2876.76,1122.9L2858.17,1122.9Z" style="fill:rgb(59,147,173);"/>
                    </g>
                    <g transform="matrix(1.04886,0,0,1.04886,486.198,7.23588)">
                        <path d="M2914.42,991.332L2914.42,964.637L2909.21,964.637L2909.21,991.332L2891.06,991.332L2891.06,1170.58L2909.21,1170.58L2909.21,1215.39L2914.42,1215.39L2914.42,1170.58L2933.01,1170.58L2933.01,991.332L2914.42,991.332Z" style="fill:rgb(59,147,173);"/>
                    </g>
                    <g transform="matrix(1.04886,0,0,1.04886,486.198,7.23588)">
                        <path d="M2976.39,1138.16L2976.39,1122.9L2971.62,1122.9L2971.62,1138.16L2953.03,1138.16L2953.03,1219.2L2971.62,1219.2L2971.62,1234.45L2976.39,1234.45L2976.39,1219.2L2994.98,1219.2L2994.98,1138.16L2976.39,1138.16Z" style="fill:rgb(59,147,173);"/>
                    </g>
                    <g transform="matrix(1.04886,0,0,1.04886,486.198,7.23588)">
                        <path d="M3070.78,848.318L3070.78,788.255L3066.38,788.255L3066.38,848.318L3047.42,848.318L3047.42,1144.83L3089.37,1144.83L3089.37,848.318L3070.78,848.318Z" style="fill:rgb(59,147,173);"/>
                    </g>
                    <g transform="matrix(1.04886,0,0,1.04886,486.198,7.23588)">
                        <path d="M3187.1,724.375L3187.1,703.399L3182.33,703.399L3182.33,724.375L3163.74,724.375L3163.74,1020.89L3182.33,1020.89L3182.33,1076.19L3187.1,1076.19L3187.1,1020.89L3205.69,1020.89L3205.69,724.375L3187.1,724.375Z" style="fill:rgb(59,147,173);"/>
                    </g>
                    <g transform="matrix(1.04886,0,0,1.04886,486.198,7.23588)">
                        <path d="M3241.44,848.318L3241.44,788.255L3236.67,788.255L3236.67,848.318L3219.03,848.318L3219.03,1144.83L3236.67,1144.83L3236.67,1160.09L3241.44,1160.09L3241.44,1144.83L3260.99,1144.83L3260.99,848.318L3241.44,848.318Z" style="fill:rgb(59,147,173);"/>
                    </g>
                    <g transform="matrix(1.04886,0,0,1.04886,486.198,7.23588)">
                        <path d="M3294.83,441.209L3294.83,355.4L3290.07,355.4L3290.07,441.209L3271.47,441.209L3271.47,975.109L3290.07,975.109L3290.07,1003.73L3294.83,1003.73L3294.83,975.109L3313.42,975.109L3313.42,441.209L3294.83,441.209Z" style="fill:rgb(59,147,173);"/>
                    </g>
                    <g transform="matrix(1.04886,0,0,1.04886,486.198,7.23588)">
                        <path d="M3370.15,703.399L3370.15,658.589L3365.39,658.589L3365.39,703.399L3346.79,703.399L3346.79,1028.52L3388.74,1028.52L3388.74,703.399L3370.15,703.399Z" style="fill:rgb(59,147,173);"/>
                    </g>
                    <g transform="matrix(1.04886,0,0,1.04886,486.198,7.23588)">
                        <path d="M3444.52,1096.21L3444.52,1140.07L3449.29,1140.07L3449.29,1096.21L3467.88,1096.21L3467.88,919.827L3425.93,919.827L3425.93,1096.21L3444.52,1096.21Z" style="fill:rgb(59,147,173);"/>
                    </g>
                    <g transform="matrix(1.04886,0,0,1.04886,486.198,7.23588)">
                        <path d="M3625.67,804.462L3625.67,745.35L3620.9,745.35L3620.9,804.462L3602.31,804.462L3602.31,1054.26L3620.9,1054.26L3620.9,1067.61L3625.67,1067.61L3625.67,1054.26L3644.26,1054.26L3644.26,804.462L3625.67,804.462Z" style="fill:rgb(59,147,173);"/>
                    </g>
                    <g transform="matrix(1.04886,0,0,1.04886,486.198,7.23588)">
                        <path d="M3680.97,783.487L3680.97,745.35L3676.2,745.35L3676.2,783.487L3657.61,783.487L3657.61,913.153L3676.2,913.153L3676.2,934.128L3680.97,934.128L3680.97,913.153L3699.56,913.153L3699.56,783.487L3680.97,783.487Z" style="fill:rgb(59,147,173);"/>
                    </g>
                    <g transform="matrix(1.04886,0,0,1.04886,486.198,7.23588)">
                        <path d="M3763.91,669.076L3763.91,647.147L3759.15,647.147L3759.15,669.076L3740.56,669.076L3740.56,939.848L3759.15,939.848L3759.15,984.658L3763.91,984.658L3763.91,939.848L3782.51,939.848L3782.51,669.076L3763.91,669.076Z" style="fill:rgb(59,147,173);"/>
                    </g>
                    <g transform="matrix(1.04886,0,0,1.04886,486.198,7.23588)">
                        <path d="M3858.3,1048.54L3858.3,1076.19L3863.07,1076.19L3863.07,1048.54L3881.66,1048.54L3881.66,856.9L3839.71,856.9L3839.71,1048.54L3858.3,1048.54Z" style="fill:rgb(59,147,173);"/>
                    </g>
                    <g transform="matrix(1.04886,0,0,1.04886,486.198,7.23588)">
                        <path d="M3920.28,903.617L3920.28,863.574L3915.51,863.574L3915.51,903.617L3896.92,903.617L3896.92,1095.74L3938.87,1095.74L3938.87,903.617L3920.28,903.617Z" style="fill:rgb(59,147,173);"/>
                    </g>
                    <g transform="matrix(1.04886,0,0,1.04886,486.198,7.23588)">
                        <path d="M4001.32,1003.73L4001.32,919.827L3996.55,919.827L3996.55,1003.73L3977.96,1003.73L3977.96,1293.57L4019.91,1293.57L4019.91,1003.73L4001.32,1003.73Z" style="fill:rgb(59,147,173);"/>
                    </g>
                    <g transform="matrix(1.04886,0,0,1.04886,486.198,7.23588)">
                        <path d="M4069.96,1122.9L4069.96,1160.09L4074.73,1160.09L4074.73,1122.9L4093.32,1122.9L4093.32,788.255L4051.37,788.255L4051.37,1122.9L4069.96,1122.9Z" style="fill:rgb(59,147,173);"/>
                    </g>
                    <g transform="matrix(1.04886,0,0,1.04886,486.198,7.23588)">
                        <path d="M4143.38,745.35L4143.38,689.098L4138.61,689.098L4138.61,745.35L4120.02,745.35L4120.02,939.848L4161.97,939.848L4161.97,745.35L4143.38,745.35Z" style="fill:rgb(59,147,173);"/>
                    </g>
                    <g transform="matrix(1.04886,0,0,1.04886,486.198,7.23588)">
                        <path d="M4198.68,969.404L4198.68,1012.31L4203.44,1012.31L4203.44,969.404L4222.03,969.404L4222.03,856.9L4180.08,856.9L4180.08,969.404L4198.68,969.404Z" style="fill:rgb(59,147,173);"/>
                    </g>
                    <g transform="matrix(1.04886,0,0,1.04886,486.198,7.23588)">
                        <path d="M1730.27,1007.54L1730.27,987.519L1725.5,987.519L1725.5,1007.54L1706.91,1007.54L1706.91,1191.55L1748.86,1191.55L1748.86,1007.54L1730.27,1007.54Z" style="fill:rgb(59,147,173);"/>
                    </g>
                    <g transform="matrix(1.04886,0,0,1.04886,486.198,7.23588)">
                        <path d="M1951.46,1234.45L1951.46,1201.09L1946.7,1201.09L1946.7,1234.45L1928.1,1234.45L1928.1,1348.87L1946.7,1348.87L1946.7,1368.89L1951.46,1368.89L1951.46,1348.87L1970.06,1348.87L1970.06,1234.45L1951.46,1234.45ZM1859.93,1060.93L1859.93,1042.82L1855.17,1042.82L1855.17,1060.93L1836.58,1060.93L1836.58,1293.57L1855.17,1293.57L1855.17,1367.93L1859.93,1367.93L1859.93,1293.57L1878.53,1293.57L1878.53,1060.93L1859.93,1060.93Z" style="fill:rgb(59,147,173);"/>
                    </g>
                    <g transform="matrix(1.04886,0,0,1.04886,486.198,7.23588)">
                        <path d="M2002.95,1528.11L2002.95,1559.57L2007.72,1559.57L2007.72,1528.11L2026.31,1528.11L2026.31,1279.27L1984.36,1279.27L1984.36,1528.11L2002.95,1528.11Z" style="fill:rgb(59,147,173);"/>
                    </g>
                    <g transform="matrix(1.04886,0,0,1.04886,486.198,7.23588)">
                        <path d="M2186.96,1325.98L2186.96,1308.82L2182.19,1308.82L2182.19,1325.98L2163.6,1325.98L2163.6,1490.92L2182.19,1490.92L2182.19,1512.85L2186.96,1512.85L2186.96,1490.92L2205.55,1490.92L2205.55,1325.98L2186.96,1325.98Z" style="fill:rgb(59,147,173);"/>
                    </g>
                    <g transform="matrix(1.04886,0,0,1.04886,486.198,7.23588)">
                        <path d="M2240.35,1129.58L2240.35,1049.49L2235.58,1049.49L2235.58,1129.58L2216.99,1129.58L2216.99,1408.45L2235.58,1408.45L2235.58,1430.86L2240.35,1430.86L2240.35,1408.45L2258.94,1408.45L2258.94,1129.58L2240.35,1129.58Z" style="fill:rgb(59,147,173);"/>
                    </g>
                    <g transform="matrix(1.04886,0,0,1.04886,486.198,7.23588)">
                        <path d="M2301.37,1287.85L2301.37,1225.39L2296.6,1225.39L2296.6,1287.85L2278.01,1287.85L2278.01,1566.25L2319.96,1566.25L2319.96,1287.85L2301.37,1287.85Z" style="fill:rgb(59,147,173);"/>
                    </g>
                    <g transform="matrix(1.04886,0,0,1.04886,486.198,7.23588)">
                        <path d="M2371.92,1533.83L2371.92,1500.46L2367.15,1500.46L2367.15,1533.83L2348.56,1533.83L2348.56,1713.07L2367.15,1713.07L2367.15,1719.55L2371.92,1719.55L2371.92,1713.07L2390.51,1713.07L2390.51,1533.83L2371.92,1533.83Z" style="fill:rgb(59,147,173);"/>
                    </g>
                    <g transform="matrix(1.04886,0,0,1.04886,486.198,7.23588)">
                        <path d="M1147.73,1229.69L1147.73,1154.37L1142.96,1154.37L1142.96,1229.69L1124.37,1229.69L1124.37,1503.32L1166.32,1503.32L1166.32,1229.69L1147.73,1229.69Z" style="fill:rgb(59,147,173);"/>
                    </g>
                    <g transform="matrix(1.04886,0,0,1.04886,486.198,7.23588)">
                        <path d="M1340.32,1391.77L1340.32,1328.84L1335.55,1328.84L1335.55,1391.77L1316.96,1391.77L1316.96,1665.4L1358.91,1665.4L1358.91,1391.77L1340.32,1391.77Z" style="fill:rgb(59,147,173);"/>
                    </g>
                    <g transform="matrix(1.04886,0,0,1.04886,486.198,7.23588)">
                        <path d="M1396.57,1336.47L1396.57,1320.26L1391.81,1320.26L1391.81,1336.47L1373.21,1336.47L1373.21,1503.32L1391.81,1503.32L1391.81,1538.6L1396.57,1538.6L1396.57,1503.32L1415.16,1503.32L1415.16,1336.47L1396.57,1336.47Z" style="fill:rgb(59,147,173);"/>
                    </g>
                    <g transform="matrix(1.04886,0,0,1.04886,486.198,7.23588)">
                        <path d="M1479.52,1306.91L1479.52,1256.38L1474.75,1256.38L1474.75,1306.91L1456.16,1306.91L1456.16,1391.77L1498.11,1391.77L1498.11,1306.91L1479.52,1306.91Z" style="fill:rgb(59,147,173);"/>
                    </g>
                    <g transform="matrix(1.04886,0,0,1.04886,486.198,7.23588)">
                        <path d="M1570.1,1528.11L1570.1,1559.57L1574.86,1559.57L1574.86,1528.11L1593.45,1528.11L1593.45,1242.08L1551.5,1242.08L1551.5,1528.11L1570.1,1528.11Z" style="fill:rgb(59,147,173);"/>
                    </g>
                    <g transform="matrix(1.04886,0,0,1.04886,486.198,7.23588)">
                        <path d="M1672.11,1065.7L1672.11,997.053L1667.34,997.053L1667.34,1065.7L1648.75,1065.7L1648.75,1427.05L1667.34,1427.05L1667.34,1474.72L1672.11,1474.72L1672.11,1427.05L1690.7,1427.05L1690.7,1065.7L1672.11,1065.7Z" style="fill:rgb(59,147,173);"/>
                    </g>
                    <g transform="matrix(1.04886,0,0,1.04886,486.198,7.23588)">
                        <path d="M-85.997,1237.32L-85.997,1193.46L-90.765,1193.46L-90.765,1237.32L-109.356,1237.32L-109.356,1432.77L-67.405,1432.77L-67.405,1237.32L-85.997,1237.32Z" style="fill:rgb(59,147,173);"/>
                    </g>
                    <g transform="matrix(1.04886,0,0,1.04886,486.198,7.23588)">
                        <path d="M20.786,1260.2L20.786,1327.89L25.554,1327.89L25.554,1260.2L44.145,1260.2L44.145,1139.11L2.195,1139.11L2.195,1260.2L20.786,1260.2Z" style="fill:rgb(59,147,173);"/>
                    </g>
                    <g transform="matrix(1.04886,0,0,1.04886,486.198,7.23588)">
                        <path d="M92.294,1200.13L92.294,1190.6L87.526,1190.6L87.526,1200.13L68.934,1200.13L68.934,1272.59L87.526,1272.59L87.526,1302.15L92.294,1302.15L92.294,1272.59L110.885,1272.59L110.885,1200.13L92.294,1200.13Z" style="fill:rgb(59,147,173);"/>
                    </g>
                    <g transform="matrix(1.04886,0,0,1.04886,486.198,7.23588)">
                        <path d="M177.147,998.006L177.147,941.754L172.381,941.754L172.381,998.006L153.788,998.006L153.788,1230.64L195.738,1230.64L195.738,998.006L177.147,998.006Z" style="fill:rgb(59,147,173);"/>
                    </g>
                    <g transform="matrix(1.04886,0,0,1.04886,486.198,7.23588)">
                        <g>
                            <g>
                                <path d="M221.975,1139.11L221.975,1162L227.68,1162L227.68,1139.11L246,1139.11L246,834.017L204.32,834.017L204.32,1139.11L221.975,1139.11Z" style="fill:rgb(59,147,173);"/>
                            </g>
                        </g>
                    </g>
                    <g transform="matrix(1.04886,0,0,1.04886,486.198,7.23588)">
                        <path d="M-213.755,1438.49L-213.755,1478.53L-208.987,1478.53L-208.987,1438.49L-190.395,1438.49L-190.395,1303.1L-232.347,1303.1L-232.347,1438.49L-213.755,1438.49Z" style="fill:rgb(59,147,173);"/>
                    </g>
                    <g transform="matrix(1.04886,0,0,1.04886,486.198,7.23588)">
                        <path d="M-156.589,1391.77L-156.589,1380.33L-161.317,1380.33L-161.317,1391.77L-180.862,1391.77L-180.862,1485.2L-138.911,1485.2L-138.911,1391.77L-156.589,1391.77Z" style="fill:rgb(59,147,173);"/>
                    </g>
                    <g transform="matrix(1.04886,0,0,1.04886,486.198,7.23588)">
                        <path d="M-358.675,1290.71L-358.675,1284.03L-363.442,1284.03L-363.442,1290.71L-382.034,1290.71L-382.034,1481.39L-363.442,1481.39L-363.442,1536.69L-358.675,1536.69L-358.675,1481.39L-340.083,1481.39L-340.083,1290.71L-358.675,1290.71Z" style="fill:rgb(59,147,173);"/>
                    </g>
                    <g transform="matrix(1.04886,0,0,1.04886,486.198,7.23588)">
                        <path d="M-292.889,1151.51L-292.889,1080.95L-297.656,1080.95L-297.656,1151.51L-316.248,1151.51L-316.248,1401.3L-274.297,1401.3L-274.297,1151.51L-292.889,1151.51Z" style="fill:rgb(59,147,173);"/>
                    </g>
                    <g transform="matrix(1.04886,0,0,1.04886,486.198,7.23588)">
                        <path d="M469.848,1144.83L469.848,1113.37L465.08,1113.37L465.08,1144.83L446.489,1144.83L446.489,1401.3L488.439,1401.3L488.439,1144.83L469.848,1144.83Z" style="fill:rgb(59,147,173);"/>
                    </g>
                    <g transform="matrix(1.04886,0,0,1.04886,486.198,7.23588)">
                        <path d="M538.494,1335.16L538.494,1396.54L543.261,1396.54L543.261,1335.16L561.853,1335.16L561.853,1182.97L519.902,1182.97L519.902,1335.16L538.494,1335.16Z" style="fill:rgb(59,147,173);"/>
                    </g>
                    <g transform="matrix(1.04886,0,0,1.04886,486.198,7.23588)">
                        <path d="M671.973,1007.54L671.973,981.798L667.206,981.798L667.206,1007.54L648.614,1007.54L648.614,1265.92L690.564,1265.92L690.564,1007.54L671.973,1007.54Z" style="fill:rgb(59,147,173);"/>
                    </g>
                    <g transform="matrix(1.04886,0,0,1.04886,486.198,7.23588)">
                        <path d="M730.131,1191.55L730.131,1095.26L725.405,1095.26L725.405,1191.55L706.772,1191.55L706.772,1449.93L748.723,1449.93L748.723,1191.55L730.131,1191.55Z" style="fill:rgb(59,147,173);"/>
                    </g>
                    <g transform="matrix(1.04886,0,0,1.04886,486.198,7.23588)">
                        <path d="M800.684,1100.98L800.684,1085.72L795.917,1085.72L795.917,1100.98L777.326,1100.98L777.326,1236.36L795.917,1236.36L795.917,1327.89L800.684,1327.89L800.684,1236.36L819.276,1236.36L819.276,1100.98L800.684,1100.98Z" style="fill:rgb(59,147,173);"/>
                    </g>
                    <g transform="matrix(1.04886,0,0,1.04886,486.198,7.23588)">
                        <path d="M850.262,1034.24L850.262,998.96L845.495,998.96L845.495,1034.24L826.903,1034.24L826.903,1132.44L868.854,1132.44L868.854,1034.24L850.262,1034.24Z" style="fill:rgb(59,147,173);"/>
                    </g>
                    <g transform="matrix(1.04886,0,0,1.04886,486.198,7.23588)">
                        <path d="M959.906,1071.42L959.906,971.897L955.139,971.897L955.139,1071.42L936.547,1071.42L936.547,1284.03L978.497,1284.03L978.497,1071.42L959.906,1071.42Z" style="fill:rgb(59,147,173);"/>
                    </g>
                    <g transform="matrix(1.04886,0,0,1.04886,486.198,7.23588)">
                        <path d="M1036.18,1202.99L1036.18,1263.06L1040.95,1263.06L1040.95,1202.99L1059.54,1202.99L1059.54,911.245L1017.59,911.245L1017.59,1202.99L1036.18,1202.99Z" style="fill:rgb(59,147,173);"/>
                    </g>
                    <g transform="matrix(1.04886,0,0,1.04886,486.198,7.23588)">
                        <path d="M1094.34,1121.95L1094.34,1107.17L1089.57,1107.17L1089.57,1121.95L1070.98,1121.95L1070.98,1243.99L1089.57,1243.99L1089.57,1328.84L1094.34,1328.84L1094.34,1243.99L1112.93,1243.99L1112.93,1121.95L1094.34,1121.95Z" style="fill:rgb(59,147,173);"/>
                    </g>
                </g>
            </g>
        </g>
    </g>
</svg>
