<svg width="37" height="75" viewBox="0 0 37 75" fill="none" xmlns="http://www.w3.org/2000/svg">
<mask id="mask0_1756:56825" style="mask-type:alpha" maskUnits="userSpaceOnUse" x="3" y="0" width="34" height="75">
<rect x="3" width="34" height="75" fill="white"/>
</mask>
<g mask="url(#mask0_1756:56825)">
<path fill-rule="evenodd" clip-rule="evenodd" d="M-22.8331 16.4062C-22.8331 15.7826 -22.5554 14.9159 -21.4864 13.825C-20.4005 12.7167 -18.6575 11.5583 -16.2269 10.5091C-11.3759 8.41509 -4.42356 7.03125 3.44556 7.03125C11.3147 7.03125 18.2672 8.41509 23.1182 10.5091C25.5488 11.5583 27.2918 12.7167 28.3778 13.825C29.4466 14.9159 29.7242 15.7826 29.7242 16.4062C29.7242 17.0299 29.4466 17.8966 28.3778 18.9875C27.2918 20.0958 25.5488 21.2542 23.1182 22.3034C18.2672 24.3974 11.3147 25.7812 3.44556 25.7812C-4.42356 25.7812 -11.3759 24.3974 -16.2269 22.3034C-18.6575 21.2542 -20.4005 20.0958 -21.4864 18.9875C-22.5554 17.8966 -22.8331 17.0299 -22.8331 16.4062ZM-30 16.4062C-30 13.4702 -28.6066 10.9458 -26.6532 8.95228C-24.7169 6.97612 -22.0868 5.35687 -19.1133 4.0733C-13.1564 1.50184 -5.17771 0 3.44556 0C12.0688 0 20.0475 1.50184 26.0046 4.0733C28.9779 5.35687 31.6082 6.97612 33.5442 8.95228C35.4979 10.9458 36.8911 13.4702 36.8911 16.4062V58.5937C36.8911 61.53 35.4979 64.0542 33.5442 66.0478C31.6082 68.0241 28.9779 69.6431 26.0046 70.9266C20.0475 73.4981 12.0688 75 3.44556 75C-5.17771 75 -13.1564 73.4981 -19.1133 70.9266C-22.0868 69.6431 -24.7169 68.0241 -26.6532 66.0478C-28.6066 64.0542 -30 61.53 -30 58.5937V16.4062ZM-22.8331 37.5V26.8335C-21.6809 27.5359 -20.4308 28.1705 -19.1133 28.7392C-13.1564 31.3107 -5.17771 32.8125 3.44556 32.8125C12.0688 32.8125 20.0475 31.3107 26.0046 28.7392C27.3219 28.1705 28.5723 27.5359 29.7242 26.8335V37.5C29.7242 38.1236 29.4466 38.9903 28.3778 40.0812C27.2918 41.1895 25.5488 42.348 23.1182 43.3972C18.2672 45.4912 11.3147 46.875 3.44556 46.875C-4.42356 46.875 -11.3759 45.4912 -16.2269 43.3972C-18.6575 42.348 -20.4005 41.1895 -21.4864 40.0812C-22.5554 38.9903 -22.8331 38.1236 -22.8331 37.5ZM-22.8331 47.9273V58.5937C-22.8331 59.2172 -22.5554 60.0839 -21.4864 61.1752C-20.4005 62.2833 -18.6575 63.4416 -16.2269 64.4911C-11.3759 66.585 -4.42356 67.9687 3.44556 67.9687C11.3147 67.9687 18.2672 66.585 23.1182 64.4911C25.5488 63.4416 27.2918 62.2833 28.3778 61.1752C29.4466 60.0839 29.7242 59.2172 29.7242 58.5937V47.9273C28.5723 48.6295 27.3219 49.2642 26.0046 49.8328C20.0475 52.4044 12.0688 53.9062 3.44556 53.9062C-5.17771 53.9062 -13.1564 52.4044 -19.1133 49.8328C-20.4308 49.2642 -21.6809 48.6295 -22.8331 47.9273Z" fill="#5761B2"/>
</g>
</svg>
