<svg width="38" height="40" viewBox="0 0 38 40" fill="none" xmlns="http://www.w3.org/2000/svg">
<path fill-rule="evenodd" clip-rule="evenodd" d="M20.2322 4.34988e-07H17.7621C16.371 4.34988e-07 15.0372 0.543101 14.0559 1.50915C13.1861 2.3654 12.6541 3.49433 12.5515 4.69561L12.5345 5.08361C12.5155 6.34704 11.4948 7.33269 10.242 7.33256C9.9579 7.32959 9.66282 7.26475 9.39117 7.1426L9.1247 7.00343C6.66311 5.62034 3.46257 6.46752 2.01836 8.92331L0.719789 11.0139C-0.661015 13.361 0.0200147 16.3095 2.24897 17.8282L2.55897 18.023C3.32298 18.4568 3.75973 19.1979 3.75973 20C3.75973 20.7376 3.38982 21.4273 2.7729 21.8457L2.5623 21.9749C0.253028 23.2825 -0.656854 26.1683 0.503932 28.5689L0.673581 28.8884L1.94825 31.0448C2.61079 32.2166 3.74612 33.0993 5.0889 33.4733C6.27906 33.8047 7.5492 33.713 8.67524 33.2168L9.0313 33.0426C9.63058 32.7032 10.2497 32.6218 10.8308 32.7742C11.4118 32.9265 11.9067 33.2999 12.2054 33.8115C12.3701 34.0837 12.4667 34.3644 12.5013 34.6553L12.5182 34.9507C12.5153 37.6985 14.8644 40 17.7621 40H20.2328C22.969 40 25.2399 37.9406 25.462 35.2829L25.4782 34.9396C25.4767 34.2757 25.7164 33.7048 26.1454 33.2844C26.5745 32.8641 27.1572 32.6292 27.764 32.6321C28.0429 32.6397 28.3493 32.7081 28.6332 32.8325L28.9054 32.9699C31.2021 34.2688 34.2116 33.6015 35.7617 31.4177L35.9606 31.114L37.2798 28.9609C37.9901 27.7666 38.1824 26.3635 37.8238 25.046C37.5059 23.8782 36.7773 22.8594 35.7687 22.1682L35.4348 21.9586C34.8545 21.6299 34.4719 21.1416 34.316 20.5687C34.1601 19.9959 34.2437 19.3858 34.5483 18.8736C34.7169 18.5851 34.9412 18.3451 35.2103 18.1614L35.7248 17.8446C37.8086 16.4585 38.589 13.7304 37.4922 11.4368L37.3784 11.2135C37.3538 11.1552 37.3253 11.0984 37.293 11.0435L36.0667 8.95855C34.7022 6.63836 31.7519 5.73795 29.2919 6.871L28.9643 7.03677C28.3764 7.37375 27.7557 7.45893 27.1714 7.31028C26.587 7.16162 26.087 6.79134 25.7816 6.28109C25.6248 6.02232 25.5282 5.74159 25.4937 5.4507L25.4767 5.15532C25.5197 3.89936 24.985 2.55361 23.9965 1.55742C23.0081 0.561229 21.6502 -0.000570663 20.2322 4.34988e-07ZM17.7622 2.89552H20.2328C20.8528 2.89527 21.4458 3.14062 21.8775 3.5757C22.3091 4.01077 22.5427 4.5985 22.5249 5.20501L22.5512 5.70912C22.6405 6.47972 22.8714 7.15012 23.2362 7.75236C23.9347 8.91933 25.0847 9.77096 26.4287 10.1129C27.7727 10.4548 29.2003 10.2589 30.3967 9.56834L30.603 9.46535L30.825 9.37823C31.8017 9.0571 32.9529 9.46354 33.5061 10.4042L34.6757 12.3946L34.701 12.4506L34.8424 12.7177C35.3157 13.7101 34.9202 14.9654 33.8961 15.5523L33.5746 15.7507C32.8928 16.2147 32.3698 16.7744 31.9893 17.4253C31.2942 18.5942 31.1019 19.9974 31.4605 21.3148C31.7865 22.5125 32.5433 23.5496 33.5845 24.2391L34.1291 24.5764C34.5132 24.8414 34.8301 25.2844 34.9683 25.7921C35.1242 26.3649 35.0406 26.975 34.7359 27.4872L33.4472 29.5914L33.3022 29.8134C32.7059 30.6517 31.5294 30.9629 30.5375 30.5364L29.9056 30.2201C29.2008 29.9094 28.5112 29.7555 27.8107 29.7372C26.3828 29.7301 25.0425 30.2703 24.0557 31.2371C23.069 32.2038 22.5176 33.517 22.5243 34.8842L22.513 35.1023C22.4198 36.2047 21.4275 37.1046 20.2328 37.1046H17.7622C16.581 37.1046 15.6085 36.229 15.4841 35.1041L15.4438 34.397C15.3545 33.6264 15.1236 32.956 14.7588 32.3537C14.0806 31.1919 12.9373 30.3291 11.5948 29.9771C10.2523 29.6252 8.82195 29.8132 7.62164 30.4994L7.4042 30.6037C6.97141 30.7928 6.41666 30.8328 5.89688 30.6881C5.31045 30.5248 4.81461 30.1393 4.51908 29.6169L3.26059 27.4898L3.14801 27.2767C2.67129 26.288 3.06711 25.0326 4.09281 24.4512L4.40442 24.2593C5.86829 23.2681 6.71512 21.6891 6.71512 20C6.71512 18.2859 5.84397 16.6933 4.40794 15.742L3.88651 15.4185C2.96517 14.7894 2.66758 13.5009 3.26261 12.4891L4.56118 10.3985C5.20985 9.29634 6.60763 8.92634 7.70384 9.54175L8.08857 9.74055C8.80715 10.0659 9.51179 10.2207 10.2266 10.228C12.9994 10.2284 15.2668 8.14178 15.4737 5.48304L15.5006 4.87326C15.5412 4.41485 15.7725 3.92397 16.1507 3.55168C16.5774 3.13166 17.1573 2.89552 17.7622 2.89552ZM19.0067 13.4637C15.3221 13.4637 12.3352 16.3901 12.3352 20C12.3352 23.6099 15.3221 26.5364 19.0067 26.5364C22.6912 26.5364 25.6782 23.6099 25.6782 20C25.6782 16.3901 22.6912 13.4637 19.0067 13.4637ZM19.0068 16.3591C21.0592 16.3591 22.723 17.9892 22.723 20C22.723 22.0108 21.0592 23.6409 19.0068 23.6409C16.9544 23.6409 15.2906 22.0108 15.2906 20C15.2906 17.9892 16.9544 16.3591 19.0068 16.3591Z" fill="#5761B2"/>
</svg>
