<svg width="227" height="75" viewBox="0 0 227 75" fill="none" xmlns="http://www.w3.org/2000/svg">
<path d="M154.426 73.2928C153.721 73.7752 152.979 74.1556 152.202 74.4339C151.425 74.7122 150.589 74.8514 149.694 74.8514C148.923 74.8514 148.191 74.7648 147.499 74.5916C146.806 74.4122 146.166 74.1618 145.578 73.8401C144.99 73.5185 144.461 73.132 143.991 72.6805C143.521 72.229 143.119 71.7311 142.786 71.1868C142.459 70.6363 142.208 70.0457 142.031 69.4148C141.855 68.784 141.767 68.1315 141.767 67.4573C141.767 66.7832 141.855 66.1306 142.031 65.4998C142.214 64.8689 142.472 64.2813 142.805 63.7371C143.138 63.1866 143.54 62.6856 144.01 62.2341C144.487 61.7826 145.02 61.3961 145.608 61.0745C146.196 60.7529 146.829 60.5055 147.509 60.3323C148.194 60.1529 148.916 60.0632 149.674 60.0632C150.602 60.0632 151.464 60.2024 152.261 60.4807C153.058 60.7529 153.78 61.1518 154.426 61.6775V63.4495H154.387C154.113 63.1526 153.796 62.8805 153.437 62.6331C153.077 62.3857 152.692 62.1754 152.28 62.0022C151.869 61.8228 151.441 61.6837 150.997 61.5847C150.559 61.4858 150.118 61.4363 149.674 61.4363C148.773 61.4363 147.933 61.5909 147.156 61.9002C146.385 62.2032 145.715 62.6238 145.147 63.1619C144.585 63.7 144.144 64.337 143.824 65.073C143.504 65.809 143.344 66.6038 143.344 67.4573C143.344 68.0078 143.419 68.5397 143.57 69.053C143.72 69.5602 143.932 70.0395 144.206 70.491C144.481 70.9363 144.811 71.3414 145.196 71.7063C145.588 72.0713 146.019 72.3867 146.49 72.6526C146.96 72.9124 147.466 73.1165 148.008 73.2649C148.557 73.4072 149.125 73.4783 149.713 73.4783C150.118 73.4783 150.54 73.4319 150.977 73.3392C151.415 73.2464 151.843 73.1165 152.261 72.9495C152.679 72.7825 153.071 72.5815 153.437 72.3465C153.803 72.1053 154.119 71.8362 154.387 71.5393H154.426V73.2928Z" fill="#CCCCCC"/>
<path d="M159.624 74.6192V60.2949H161.162V73.3111H166.002V74.6192H159.624Z" fill="#CCCCCC"/>
<path d="M184.913 67.4571C184.913 68.1312 184.821 68.7837 184.638 69.4146C184.455 70.0454 184.194 70.6361 183.854 71.1866C183.521 71.7308 183.116 72.2287 182.639 72.6802C182.169 73.1317 181.64 73.5183 181.052 73.8399C180.471 74.1615 179.84 74.412 179.161 74.5914C178.488 74.7645 177.779 74.8511 177.034 74.8511C176.277 74.8511 175.555 74.7645 174.869 74.5914C174.183 74.412 173.546 74.1615 172.958 73.8399C172.377 73.5183 171.848 73.1317 171.371 72.6802C170.894 72.2287 170.489 71.7308 170.156 71.1866C169.823 70.6361 169.565 70.0454 169.382 69.4146C169.199 68.7837 169.107 68.1312 169.107 67.4571C169.107 66.7829 169.199 66.1304 169.382 65.4995C169.565 64.8687 169.823 64.2811 170.156 63.7368C170.496 63.1864 170.904 62.6854 171.381 62.2339C171.858 61.7824 172.387 61.3958 172.968 61.0742C173.556 60.7526 174.19 60.5052 174.869 60.332C175.555 60.1527 176.27 60.063 177.015 60.063C177.76 60.063 178.468 60.1527 179.141 60.332C179.821 60.5052 180.451 60.7526 181.032 61.0742C181.62 61.3958 182.153 61.7824 182.629 62.2339C183.106 62.6854 183.515 63.1864 183.854 63.7368C184.194 64.2811 184.455 64.8687 184.638 65.4995C184.821 66.1242 184.913 66.7767 184.913 67.4571ZM183.355 67.4571C183.355 66.6283 183.188 65.849 182.855 65.1192C182.522 64.3832 182.068 63.7399 181.493 63.1895C180.918 62.639 180.245 62.203 179.474 61.8814C178.71 61.5597 177.89 61.3989 177.015 61.3989C176.113 61.3989 175.274 61.5536 174.497 61.8628C173.726 62.172 173.056 62.5988 172.488 63.1431C171.926 63.6874 171.485 64.3306 171.165 65.0728C170.845 65.8088 170.685 66.6035 170.685 67.4571C170.685 68.0075 170.76 68.5394 170.91 69.0528C171.061 69.5661 171.273 70.0485 171.547 70.5C171.822 70.9454 172.152 71.3536 172.537 71.7247C172.922 72.0958 173.35 72.4143 173.821 72.6802C174.291 72.9462 174.797 73.1534 175.339 73.3018C175.882 73.4441 176.447 73.5152 177.034 73.5152C177.929 73.5152 178.762 73.3637 179.533 73.0606C180.304 72.7513 180.97 72.3277 181.532 71.7896C182.1 71.2515 182.545 70.6145 182.865 69.8785C183.191 69.1363 183.355 68.3291 183.355 67.4571Z" fill="#CCCCCC"/>
<path d="M194.382 74.9996H193.902L187.738 60.2949H189.443L194.176 71.938H194.225L198.977 60.2949H200.623L194.382 74.9996Z" fill="#CCCCCC"/>
<path d="M204.807 74.6192V60.2949H212.293V61.603H206.345V66.4087H212.126V67.6797H206.345V73.3111H212.293V74.6192H204.807Z" fill="#CCCCCC"/>
<path d="M224.427 74.6192L219.665 68.0786H219.263V74.6192H217.725V60.2949H220.527C221.383 60.2949 222.121 60.3846 222.742 60.564C223.369 60.7433 223.885 61 224.29 61.334C224.695 61.668 224.996 62.0793 225.192 62.5679C225.388 63.0503 225.486 63.5977 225.486 64.21C225.486 64.7481 225.394 65.2398 225.211 65.6851C225.035 66.1304 224.77 66.5169 224.417 66.8447C224.071 67.1664 223.64 67.4292 223.124 67.6333C222.608 67.8312 222.01 67.9549 221.331 68.0044L226.211 74.6192H224.427ZM223.908 64.2656C223.908 63.8203 223.836 63.4307 223.692 63.0967C223.555 62.7565 223.333 62.472 223.026 62.2432C222.719 62.0143 222.324 61.8412 221.84 61.7236C221.364 61.6061 220.786 61.5474 220.106 61.5474H219.263V66.9282H220.508C221.063 66.9282 221.55 66.8664 221.968 66.7427C222.392 66.619 222.748 66.4427 223.036 66.2139C223.323 65.985 223.539 65.7067 223.683 65.3789C223.833 65.0511 223.908 64.68 223.908 64.2656Z" fill="#CCCCCC"/>
<path d="M6.45358 60.0635C7.34652 60.0635 8.0771 60.1988 8.64534 60.4694C9.22711 60.7264 9.74122 61.0308 10.1877 61.3826C10.4583 61.5855 10.6612 61.6126 10.7965 61.4638C10.9454 61.3014 11.0468 60.9294 11.1009 60.3476H11.5677C11.5407 60.8482 11.5204 61.457 11.5068 62.1741C11.4933 62.8911 11.4865 63.8382 11.4865 65.0153H11.0198C10.9251 64.4335 10.8371 63.9735 10.7559 63.6353C10.6748 63.2835 10.5733 62.9858 10.4515 62.7423C10.3433 62.4988 10.1945 62.2552 10.0051 62.0117C9.58566 61.457 9.05801 61.0579 8.42212 60.8144C7.78624 60.5573 7.11652 60.4288 6.41298 60.4288C5.75004 60.4288 5.14797 60.5979 4.60679 60.9361C4.07914 61.2608 3.61915 61.7344 3.2268 62.3567C2.84798 62.9791 2.55033 63.73 2.33386 64.6094C2.13092 65.4888 2.02945 66.4764 2.02945 67.5723C2.02945 68.7088 2.14443 69.7168 2.37443 70.5962C2.60443 71.4621 2.92239 72.1927 3.32828 72.7879C3.74769 73.3832 4.23473 73.8365 4.78944 74.1477C5.35768 74.4453 5.96652 74.5941 6.61593 74.5941C7.22476 74.5941 7.86063 74.4724 8.52358 74.2288C9.18652 73.9853 9.70742 73.593 10.0862 73.0518C10.3839 72.6594 10.5868 72.2332 10.6951 71.7732C10.8168 71.3132 10.9251 70.6706 11.0198 69.8453H11.4865C11.4865 71.0765 11.4933 72.0709 11.5068 72.8285C11.5204 73.5727 11.5407 74.2018 11.5677 74.7159H11.1009C11.0468 74.1341 10.9521 73.7688 10.8168 73.62C10.6951 73.4712 10.4853 73.4915 10.1877 73.6809C9.6871 74.0327 9.1527 74.3439 8.58446 74.6145C8.02975 74.8715 7.31269 75.0001 6.43327 75.0001C5.14797 75.0001 4.01827 74.7092 3.04415 74.1274C2.08356 73.5456 1.33266 72.7068 0.791484 71.6109C0.263836 70.515 0 69.1959 0 67.6535C0 66.1382 0.277373 64.8124 0.832079 63.6759C1.38679 62.5394 2.14442 61.6532 3.10501 61.0173C4.07914 60.3815 5.19533 60.0635 6.45358 60.0635V60.0635Z" fill="#CCCCCC"/>
<path d="M24.3331 74.7157V74.3098C24.7931 74.2828 25.1381 74.2287 25.3681 74.1475C25.6116 74.0663 25.774 73.9039 25.8551 73.6604C25.9363 73.4169 25.9769 73.0516 25.9769 72.5645V62.4986C25.9769 61.998 25.9363 61.6327 25.8551 61.4027C25.774 61.1592 25.6116 60.9968 25.3681 60.9157C25.1381 60.8209 24.7931 60.7668 24.3331 60.7533V60.3474C24.6443 60.361 25.0366 60.3745 25.5101 60.388C25.9837 60.4015 26.4504 60.4083 26.9104 60.4083C27.4381 60.4083 27.9319 60.4015 28.3919 60.388C28.8519 60.3744 29.224 60.3609 29.5081 60.3474V60.7533C29.0481 60.7668 28.6963 60.821 28.4528 60.9157C28.2228 60.9968 28.0672 61.1592 27.986 61.4027C27.9049 61.6327 27.8643 61.998 27.8643 62.4986V72.5645C27.8643 73.0516 27.9049 73.4169 27.986 73.6604C28.0672 73.9039 28.2228 74.0663 28.4528 74.1475C28.6963 74.2287 29.0481 74.2828 29.5081 74.3098V74.7157C29.224 74.6887 28.8519 74.6751 28.3919 74.6751C27.9319 74.6616 27.4381 74.6548 26.9104 74.6548C26.4504 74.6548 25.9837 74.6616 25.5101 74.6751C25.0366 74.6751 24.6443 74.6887 24.3331 74.7157ZM15.8501 74.7157V74.3098C16.3101 74.2828 16.6551 74.2287 16.8851 74.1475C17.1286 74.0663 17.291 73.9039 17.3722 73.6604C17.4533 73.4169 17.4939 73.0516 17.4939 72.5645V62.4986C17.4939 61.998 17.4533 61.6327 17.3722 61.4027C17.291 61.1592 17.1286 60.9968 16.8851 60.9157C16.6551 60.8209 16.3101 60.7668 15.8501 60.7533V60.3474C16.1342 60.361 16.5063 60.3745 16.9663 60.388C17.4263 60.4015 17.9201 60.4083 18.4477 60.4083C18.9213 60.4083 19.388 60.4015 19.8481 60.388C20.3216 60.3744 20.7139 60.3609 21.0251 60.3474V60.7533C20.5651 60.7668 20.2133 60.821 19.9698 60.9157C19.7398 60.9968 19.5842 61.1592 19.503 61.4027C19.4219 61.6327 19.3813 61.998 19.3813 62.4986V72.5645C19.3813 73.0516 19.4219 73.4169 19.503 73.6604C19.5842 73.9039 19.7398 74.0663 19.9698 74.1475C20.2133 74.2287 20.5651 74.2828 21.0251 74.3098V74.7157C20.7139 74.6887 20.3216 74.6751 19.8481 74.6751C19.388 74.6616 18.9213 74.6548 18.4477 74.6548C17.9201 74.6548 17.4263 74.6616 16.9663 74.6751C16.5063 74.6751 16.1342 74.6887 15.8501 74.7157ZM18.671 67.6939V67.288H26.6872V67.6939H18.671Z" fill="#CCCCCC"/>
<path d="M33.3501 60.3474C33.6342 60.361 34.0063 60.3745 34.4663 60.388C34.9263 60.4015 35.3795 60.4083 35.826 60.4083C36.4619 60.4083 37.0707 60.4015 37.6525 60.388C38.2342 60.3744 38.6469 60.3677 38.8904 60.3677C40.5275 60.3677 41.7519 60.7059 42.5637 61.3824C43.3755 62.0589 43.7813 62.8977 43.7813 63.8989C43.7813 64.3048 43.7001 64.7377 43.5378 65.1977C43.3754 65.6577 43.0913 66.0906 42.6854 66.4965C42.2931 66.9024 41.7519 67.2406 41.0619 67.5112C40.3719 67.7683 39.4992 67.8968 38.4439 67.8968H36.4957V67.4909H38.241C39.2016 67.4909 39.9322 67.3421 40.4328 67.0445C40.9469 66.7333 41.2919 66.3274 41.4678 65.8268C41.6572 65.3127 41.7519 64.7445 41.7519 64.1221C41.7519 63.0533 41.4949 62.228 40.9807 61.6462C40.4801 61.0509 39.6142 60.7533 38.3831 60.7533C37.7607 60.7533 37.3548 60.8683 37.1654 61.0983C36.976 61.3283 36.8813 61.795 36.8813 62.4986V72.5645C36.8813 73.0516 36.9219 73.4169 37.0031 73.6604C37.0842 73.9039 37.2398 74.0663 37.4698 74.1474C37.7134 74.2286 38.0651 74.2827 38.5251 74.3098V74.7157C38.214 74.6886 37.8216 74.6751 37.3481 74.6751C36.8881 74.6615 36.4213 74.6548 35.9478 74.6548C35.4201 74.6548 34.9263 74.6615 34.4663 74.6751C34.0063 74.6751 33.6342 74.6886 33.3501 74.7157V74.3098C33.8101 74.2827 34.1551 74.2286 34.3851 74.1474C34.6286 74.0663 34.791 73.9039 34.8722 73.6604C34.9533 73.4169 34.9939 73.0516 34.9939 72.5645V62.4986C34.9939 61.998 34.9533 61.6327 34.8722 61.4027C34.791 61.1592 34.6286 60.9968 34.3851 60.9157C34.1551 60.8209 33.8101 60.7668 33.3501 60.7533V60.3474ZM36.5769 67.5519C37.3075 67.5789 37.8825 67.6127 38.3019 67.6533C38.7213 67.6804 39.0595 67.7074 39.3166 67.7345C39.5872 67.7616 39.8443 67.7954 40.0878 67.836C40.9943 67.9848 41.6437 68.2622 42.036 68.668C42.4419 69.0604 42.7396 69.676 42.929 70.5148L43.4363 72.5848C43.5716 73.1801 43.7069 73.6131 43.8422 73.8837C43.991 74.1407 44.2143 74.2625 44.5119 74.249C44.7419 74.2354 44.9313 74.161 45.0802 74.0257C45.2425 73.8904 45.4116 73.7078 45.5875 73.4778L45.8919 73.701C45.6078 74.1204 45.3102 74.4451 44.999 74.6751C44.7013 74.8916 44.2751 74.9998 43.7204 74.9998C43.2199 74.9998 42.7802 74.851 42.4013 74.5534C42.0225 74.2557 41.7384 73.674 41.549 72.8081L41.1025 70.7786C40.9807 70.1969 40.8387 69.6963 40.6763 69.2769C40.5275 68.8439 40.311 68.5057 40.0269 68.2622C39.7563 68.0186 39.3504 67.8969 38.8093 67.8969H36.6175L36.5769 67.5519Z" fill="#CCCCCC"/>
<path d="M53.8059 60.3474V60.7533C53.3459 60.7668 52.9941 60.821 52.7506 60.9157C52.5206 60.9968 52.365 61.1592 52.2838 61.4027C52.2026 61.6327 52.162 61.998 52.162 62.4986V72.5645C52.162 73.0516 52.2026 73.4169 52.2838 73.6604C52.365 73.9039 52.5206 74.0663 52.7506 74.1475C52.9941 74.2287 53.3459 74.2828 53.8059 74.3098V74.7157C53.4947 74.6887 53.1023 74.6751 52.6288 74.6751C52.1688 74.6616 51.702 74.6548 51.2285 74.6548C50.7009 74.6548 50.207 74.6616 49.747 74.6751C49.287 74.6751 48.915 74.6887 48.6309 74.7157V74.3098C49.0909 74.2828 49.4358 74.2287 49.6659 74.1475C49.9094 74.0663 50.0717 73.9039 50.1529 73.6604C50.2341 73.4169 50.2747 73.0516 50.2747 72.5645V62.4986C50.2747 61.998 50.2341 61.6327 50.1529 61.4027C50.0717 61.1592 49.9094 60.9968 49.6659 60.9157C49.4358 60.8209 49.0909 60.7668 48.6309 60.7533V60.3474C48.915 60.361 49.287 60.3745 49.747 60.388C50.207 60.4015 50.7009 60.4083 51.2285 60.4083C51.702 60.4083 52.1688 60.4015 52.6288 60.388C53.1023 60.3744 53.4947 60.3609 53.8059 60.3474Z" fill="#CCCCCC"/>
<path d="M61.9915 60.124C62.668 60.124 63.1821 60.2052 63.5339 60.3676C63.8856 60.5164 64.1968 60.6855 64.4674 60.8749C64.6298 60.9696 64.7583 61.044 64.853 61.0981C64.9612 61.1388 65.0627 61.1591 65.1574 61.1591C65.3739 61.1591 65.5227 60.8614 65.6039 60.2661H66.0706C66.0571 60.4961 66.0368 60.7735 66.0097 61.0982C65.9962 61.4094 65.9827 61.8288 65.9691 62.3564C65.9691 62.8705 65.9691 63.5538 65.9691 64.4061H65.5024C65.4618 63.7567 65.3197 63.1344 65.0762 62.5391C64.8327 61.9438 64.4741 61.4567 64.0006 61.0779C63.5406 60.6991 62.9318 60.5096 62.1741 60.5096C61.4571 60.5096 60.8618 60.7261 60.3883 61.1591C59.9283 61.592 59.6982 62.1602 59.6982 62.8638C59.6982 63.4726 59.8538 63.9867 60.165 64.4061C60.4762 64.812 60.8888 65.1841 61.403 65.5223C61.9306 65.847 62.4988 66.1988 63.1077 66.5776C63.8112 67.0106 64.4336 67.4435 64.9747 67.8764C65.5294 68.2959 65.9624 68.7626 66.2736 69.2767C66.5983 69.7909 66.7606 70.4132 66.7606 71.1438C66.7606 72.0097 66.5644 72.7268 66.1721 73.295C65.7797 73.8632 65.2589 74.2894 64.6094 74.5735C63.96 74.8577 63.243 74.9997 62.4583 74.9997C61.7412 74.9997 61.173 74.9185 60.7535 74.7562C60.3341 74.5938 59.9756 74.4247 59.6779 74.2488C59.3803 74.0594 59.1503 73.9647 58.988 73.9647C58.7715 73.9647 58.6227 74.2624 58.5415 74.8577H58.0747C58.1018 74.5735 58.1153 74.2421 58.1153 73.8632C58.1288 73.4709 58.1355 72.9635 58.1355 72.3412C58.1491 71.7188 58.1559 70.9341 58.1559 69.987H58.6226C58.6768 70.7988 58.8256 71.5565 59.0691 72.26C59.3262 72.9635 59.7118 73.5318 60.2259 73.9647C60.7535 74.3841 61.4503 74.5938 62.3162 74.5938C62.9791 74.5938 63.5812 74.3841 64.1224 73.9647C64.6771 73.5318 64.9544 72.8418 64.9544 71.8947C64.9544 71.0694 64.6636 70.3862 64.0818 69.845C63.5 69.3038 62.7356 68.7491 61.7886 68.1809C61.1527 67.7885 60.5574 67.3894 60.0027 66.9835C59.4479 66.5776 59.0015 66.1108 58.6632 65.5832C58.3385 65.042 58.1762 64.3926 58.1762 63.635C58.1762 62.8367 58.3521 62.1805 58.7038 61.6664C59.0691 61.1388 59.5427 60.7532 60.1244 60.5096C60.7062 60.2526 61.3285 60.124 61.9915 60.124L61.9915 60.124Z" fill="#CCCCCC"/>
<path d="M76.2933 60.2458L81.2451 73.0109C81.448 73.525 81.678 73.87 81.9351 74.0459C82.1921 74.2083 82.4289 74.2962 82.6454 74.3097V74.7156C82.3748 74.6886 82.0433 74.675 81.651 74.675C81.2586 74.6615 80.8662 74.6547 80.4739 74.6547C79.9462 74.6547 79.4524 74.6615 78.9924 74.675C78.5324 74.675 78.1603 74.6886 77.8762 74.7156V74.3097C78.5662 74.2827 79.0059 74.1677 79.1954 73.9647C79.3848 73.7483 79.3442 73.295 79.0736 72.605L75.2989 62.5188L75.6236 62.255L72.0924 71.428C71.8082 72.1586 71.673 72.7336 71.6865 73.153C71.7 73.5589 71.8556 73.8497 72.1532 74.0256C72.4509 74.2015 72.8838 74.2962 73.4521 74.3097V74.7156C73.0733 74.6886 72.6741 74.675 72.2547 74.675C71.8488 74.6615 71.47 74.6547 71.1183 74.6547C70.78 74.6547 70.4891 74.6615 70.2456 74.675C70.0156 74.675 69.7991 74.6886 69.5962 74.7156V74.3097C69.8668 74.2421 70.1441 74.0865 70.4282 73.843C70.7124 73.5859 70.9694 73.153 71.1994 72.5442L75.9686 60.2458C76.0227 60.2458 76.0768 60.2458 76.1309 60.2458C76.185 60.2458 76.2392 60.2458 76.2933 60.2458ZM78.7692 68.8709V69.2768H72.7215L72.9244 68.8709H78.7692Z" fill="#CCCCCC"/>
<path d="M97.8629 60.3474V60.7533C97.4029 60.7668 97.0512 60.8345 96.8076 60.9562C96.5776 61.078 96.422 61.2742 96.3409 61.5448C96.2597 61.8154 96.2191 62.2009 96.2191 62.7015V74.8172C96.1379 74.8172 96.0567 74.8172 95.9756 74.8172C95.9079 74.8172 95.8335 74.8172 95.7523 74.8172L87.2288 61.6462V72.3616C87.2288 72.8486 87.2693 73.2342 87.3505 73.5183C87.4452 73.7889 87.6211 73.9851 87.8782 74.1069C88.1488 74.2151 88.5479 74.2828 89.0755 74.3098V74.7157C88.832 74.6887 88.5141 74.6751 88.1217 74.6751C87.7294 74.6616 87.3573 74.6548 87.0055 74.6548C86.6673 74.6548 86.3223 74.6616 85.9705 74.6751C85.6323 74.6751 85.3482 74.6887 85.1182 74.7157V74.3098C85.5782 74.2828 85.9232 74.2151 86.1532 74.1069C86.3967 73.9851 86.5591 73.7889 86.6402 73.5183C86.7214 73.2342 86.762 72.8486 86.762 72.3616V62.4986C86.762 61.998 86.7214 61.6327 86.6402 61.4027C86.5591 61.1592 86.3967 60.9968 86.1532 60.9157C85.9232 60.8209 85.5782 60.7668 85.1182 60.7533V60.3474C85.3482 60.361 85.6323 60.3745 85.9705 60.388C86.3223 60.4015 86.6673 60.4083 87.0055 60.4083C87.3032 60.4083 87.5873 60.4015 87.8579 60.388C88.1285 60.3744 88.372 60.3609 88.5885 60.3474L95.7523 71.3875V62.7015C95.7523 62.2009 95.705 61.8154 95.6103 61.5448C95.5291 61.2742 95.3532 61.078 95.0826 60.9562C94.8256 60.8345 94.4332 60.7668 93.9056 60.7533V60.3474C94.1491 60.361 94.467 60.3745 94.8594 60.388C95.2653 60.4015 95.6373 60.4083 95.9756 60.4083C96.3273 60.4083 96.6723 60.4015 97.0106 60.388C97.3623 60.3744 97.6465 60.3609 97.8629 60.3474Z" fill="#CCCCCC"/>
<path d="M114.293 60.3474V60.7533C113.833 60.7668 113.481 60.8345 113.237 60.9562C113.007 61.078 112.852 61.2742 112.771 61.5448C112.689 61.8154 112.649 62.2009 112.649 62.7015V74.8172C112.568 74.8172 112.486 74.8172 112.405 74.8172C112.338 74.8172 112.263 74.8172 112.182 74.8172L103.658 61.6462V72.3616C103.658 72.8486 103.699 73.2342 103.78 73.5183C103.875 73.7889 104.051 73.9851 104.308 74.1069C104.578 74.2151 104.978 74.2828 105.505 74.3098V74.7157C105.262 74.6887 104.944 74.6751 104.551 74.6751C104.159 74.6616 103.787 74.6548 103.435 74.6548C103.097 74.6548 102.752 74.6616 102.4 74.6751C102.062 74.6751 101.778 74.6887 101.548 74.7157V74.3098C102.008 74.2828 102.353 74.2151 102.583 74.1069C102.826 73.9851 102.989 73.7889 103.07 73.5183C103.151 73.2342 103.192 72.8486 103.192 72.3616V62.4986C103.192 61.998 103.151 61.6327 103.07 61.4027C102.989 61.1592 102.826 60.9968 102.583 60.9157C102.353 60.8209 102.008 60.7668 101.548 60.7533V60.3474C101.778 60.361 102.062 60.3745 102.4 60.388C102.752 60.4015 103.097 60.4083 103.435 60.4083C103.733 60.4083 104.017 60.4015 104.288 60.388C104.558 60.3744 104.802 60.3609 105.018 60.3474L112.182 71.3875V62.7015C112.182 62.2009 112.135 61.8154 112.04 61.5448C111.959 61.2742 111.783 61.078 111.512 60.9562C111.255 60.8345 110.863 60.7668 110.335 60.7533V60.3474C110.579 60.361 110.897 60.3745 111.289 60.388C111.695 60.4015 112.067 60.4083 112.405 60.4083C112.757 60.4083 113.102 60.4015 113.44 60.388C113.792 60.3744 114.076 60.3609 114.293 60.3474Z" fill="#CCCCCC"/>
<path d="M128.105 60.3474C128.051 60.8209 128.01 61.2809 127.983 61.7274C127.97 62.1739 127.963 62.5121 127.963 62.7421C127.963 62.9857 127.97 63.2224 127.983 63.4524C127.997 63.6689 128.01 63.8515 128.024 64.0004H127.557C127.476 63.2021 127.361 62.573 127.212 62.113C127.063 61.6395 126.806 61.308 126.441 61.1186C126.089 60.9156 125.555 60.8142 124.837 60.8142H123.153C122.693 60.8142 122.341 60.8548 122.098 60.9359C121.868 61.0036 121.712 61.1592 121.631 61.4027C121.55 61.6327 121.509 61.998 121.509 62.4986V72.5645C121.509 73.0516 121.55 73.4169 121.631 73.6604C121.712 73.9039 121.868 74.0663 122.098 74.1475C122.341 74.2151 122.693 74.2489 123.153 74.2489H124.635C125.487 74.2489 126.13 74.1339 126.562 73.9039C127.009 73.6739 127.327 73.3019 127.516 72.7878C127.719 72.2601 127.868 71.5498 127.963 70.6569H128.43C128.389 71.0222 128.369 71.5092 128.369 72.118C128.369 72.3751 128.375 72.7472 128.389 73.2342C128.416 73.7078 128.457 74.2016 128.511 74.7157C127.821 74.6887 127.043 74.6751 126.177 74.6751C125.311 74.6616 124.54 74.6548 123.863 74.6548C123.457 74.6548 122.916 74.6548 122.24 74.6548C121.577 74.6548 120.867 74.6616 120.109 74.6751C119.351 74.6751 118.641 74.6887 117.978 74.7157V74.3098C118.438 74.2828 118.783 74.2287 119.013 74.1475C119.257 74.0663 119.419 73.9039 119.5 73.6604C119.581 73.4169 119.622 73.0516 119.622 72.5645V62.4986C119.622 61.998 119.581 61.6327 119.5 61.4027C119.419 61.1592 119.257 60.9968 119.013 60.9157C118.783 60.8209 118.438 60.7668 117.978 60.7533V60.3474C118.641 60.361 119.351 60.3745 120.109 60.388C120.867 60.4015 121.577 60.4083 122.24 60.4083C122.916 60.4083 123.457 60.4083 123.863 60.4083C124.486 60.4083 125.189 60.4083 125.974 60.4083C126.772 60.3948 127.482 60.3745 128.105 60.3474ZM124.614 67.288C124.614 67.288 124.614 67.3557 124.614 67.491C124.614 67.6263 124.614 67.6939 124.614 67.6939H120.9C120.9 67.6939 120.9 67.6263 120.9 67.491C120.9 67.3557 120.9 67.288 120.9 67.288H124.614ZM125.203 64.6092C125.149 65.3804 125.122 65.9689 125.122 66.3748C125.135 66.7807 125.142 67.1527 125.142 67.491C125.142 67.8292 125.149 68.2013 125.162 68.6072C125.176 69.013 125.21 69.6016 125.264 70.3727H124.797C124.743 69.9398 124.675 69.5204 124.594 69.1145C124.526 68.6951 124.364 68.3569 124.107 68.0998C123.863 67.8292 123.444 67.6939 122.849 67.6939V67.288C123.444 67.288 123.857 67.1324 124.087 66.8213C124.33 66.5101 124.486 66.1448 124.553 65.7254C124.621 65.306 124.682 64.9339 124.736 64.6092H125.203Z" fill="#CCCCCC"/>
<path d="M111.876 10.3237C113.39 10.3237 114.628 10.5503 115.591 11.0036C116.578 11.4342 117.449 11.9441 118.206 12.5333C118.665 12.8732 119.009 12.9185 119.238 12.6692C119.49 12.3973 119.662 11.7741 119.754 10.7996H120.545C120.499 11.6381 120.465 12.6579 120.442 13.859C120.419 15.0601 120.408 16.6464 120.408 18.618H119.616C119.456 17.6435 119.307 16.873 119.169 16.3065C119.032 15.7173 118.86 15.2187 118.653 14.8108C118.47 14.4029 118.217 13.995 117.896 13.587C117.185 12.6579 116.291 11.9894 115.213 11.5815C114.135 11.1509 113 10.9356 111.807 10.9356C110.683 10.9356 109.663 11.2189 108.745 11.7854C107.851 12.3293 107.071 13.1225 106.406 14.1649C105.764 15.2074 105.259 16.4651 104.892 17.9381C104.548 19.4112 104.376 21.0655 104.376 22.9011C104.376 24.8047 104.571 26.493 104.961 27.966C105.351 29.4164 105.89 30.6401 106.578 31.6373C107.289 32.6344 108.115 33.3936 109.055 33.9148C110.018 34.4133 111.05 34.6626 112.151 34.6626C113.183 34.6626 114.261 34.4587 115.385 34.0508C116.509 33.6428 117.392 32.9856 118.034 32.0792C118.539 31.422 118.883 30.7081 119.066 29.9376C119.272 29.1671 119.456 28.0907 119.616 26.7083H120.408C120.408 28.7705 120.419 30.4362 120.442 31.7052C120.465 32.9517 120.5 34.0054 120.545 34.8666H119.754C119.662 33.8921 119.502 33.2802 119.272 33.031C119.066 32.7817 118.711 32.8157 118.206 33.1329C117.357 33.7222 116.451 34.2434 115.488 34.6966C114.548 35.1272 113.332 35.3425 111.842 35.3425C109.663 35.3425 107.748 34.8553 106.096 33.8808C104.468 32.9063 103.195 31.5013 102.278 29.6657C101.383 27.8301 100.936 25.6205 100.936 23.0371C100.936 20.4989 101.406 18.2781 102.347 16.3745C103.287 14.4709 104.571 12.9865 106.2 11.9214C107.851 10.8563 109.743 10.3237 111.876 10.3237Z" fill="#CCCCCC"/>
<path d="M112.177 0C107.759 0.000361416 103.433 1.26506 99.7101 3.64477C95.9873 6.02448 93.0231 9.4198 91.1677 13.4298L92.5214 14.0563C94.2573 10.3049 97.0305 7.12854 100.514 4.90248C103.997 2.67642 108.044 1.49358 112.177 1.49366C117.921 1.49366 123.43 3.77548 127.492 7.83715C131.554 11.8988 133.835 17.4076 133.835 23.1517C133.835 28.8958 131.554 34.4045 127.492 38.4662C123.43 42.5279 117.921 44.8097 112.177 44.8097C108.042 44.8099 103.992 43.6258 100.508 41.3975C97.0236 39.1693 94.2502 35.9899 92.5155 32.2354L91.1605 32.8612C93.0146 36.8746 95.9791 40.2733 99.7034 42.6553C103.428 45.0374 107.756 46.3033 112.177 46.3034C118.318 46.3034 124.206 43.8642 128.548 39.5224C132.89 35.1806 135.329 29.2919 135.329 23.1517C135.329 17.0115 132.89 11.1228 128.548 6.78097C124.206 2.43919 118.318 3.96142e-07 112.177 0ZM90.8819 32.2347C90.8971 32.27 90.9124 32.3052 90.9278 32.3404C90.9126 32.3052 90.8976 32.27 90.8826 32.2347C90.8823 32.2347 90.8821 32.2347 90.8818 32.2347H90.8819Z" fill="#CCCCCC"/>
</svg>
