<svg width="15" height="15" viewBox="0 0 15 15" fill="none" xmlns="http://www.w3.org/2000/svg">
<path fill-rule="evenodd" clip-rule="evenodd" d="M7.5 15C11.6421 15 15 11.6421 15 7.5C15 3.35786 11.6421 0 7.5 0C3.35786 0 0 3.35786 0 7.5C0 11.6421 3.35786 15 7.5 15ZM7.50015 13.4694C10.797 13.4694 13.4695 10.7968 13.4695 7.49997C13.4695 4.20316 10.797 1.53058 7.50015 1.53058C4.20335 1.53058 1.53076 4.20316 1.53076 7.49997C1.53076 10.7968 4.20335 13.4694 7.50015 13.4694ZM11.5909 6.5051H9.56988C9.19917 5.73533 8.4117 5.2041 7.50014 5.2041C6.23214 5.2041 5.20422 6.23202 5.20422 7.50002C5.20422 8.76802 6.23214 9.79594 7.50014 9.79594C8.44162 9.79594 9.25075 9.22925 9.60503 8.41836H11.6087C11.1896 10.3014 9.5092 11.7092 7.49996 11.7092C5.17529 11.7092 3.29077 9.82468 3.29077 7.50002C3.29077 5.17535 5.17529 3.29083 7.49996 3.29083C9.48187 3.29083 11.1439 4.66061 11.5909 6.5051Z" fill="#CCCCCC"/>
</svg>
