<?xml version="1.0" encoding="UTF-8" standalone="no"?>
<!DOCTYPE svg PUBLIC "-//W3C//DTD SVG 1.1//EN" "http://www.w3.org/Graphics/SVG/1.1/DTD/svg11.dtd">
<svg width="100%" height="100%" viewBox="0 0 198 50" version="1.1" xmlns="http://www.w3.org/2000/svg" xmlns:xlink="http://www.w3.org/1999/xlink" xml:space="preserve" xmlns:serif="http://www.serif.com/" style="fill-rule:evenodd;clip-rule:evenodd;stroke-linejoin:round;stroke-miterlimit:2;">
    <g id="Artboard1" transform="matrix(1.05316,0,0,1,-226.43,-157.5)">
        <rect x="215" y="157.5" width="187.72" height="50" style="fill:none;"/>
        <clipPath id="_clip1">
            <rect x="215" y="157.5" width="187.72" height="50"/>
        </clipPath>
        <g clip-path="url(#_clip1)">
            <g transform="matrix(0.56519,0,0,0.662252,79.9196,53.1954)">
                <rect x="239" y="157.5" width="84" height="75.5" style="fill:rgb(204,204,204);"/>
            </g>
            <g transform="matrix(1.01886,0,0,1.07303,-45.4211,6.44688)">
                <path d="M282.712,147.297L293.637,147.297L270.812,170.497L270.812,159.772L282.712,147.297ZM277.387,160.847L294.587,180.847L284.362,180.847L271.937,166.072L277.387,160.847ZM263.212,147.297L271.262,147.297L271.262,180.847L263.212,180.847L263.212,147.297Z" style="fill:white;fill-rule:nonzero;"/>
            </g>
            <g transform="matrix(0.556105,0,0,0.58567,134.857,87.0085)">
                <path d="M282.387,148.397L290.487,148.397L269.087,170.297L269.087,162.247L282.387,148.397ZM275.187,161.797L291.387,180.847L283.787,180.847L271.087,165.647L275.187,161.797ZM263.637,148.397L269.587,148.397L269.587,180.847L263.637,180.847L263.637,148.397Z" style="fill:rgb(204,204,204);fill-rule:nonzero;"/>
                <path d="M292.287,156.597L298.437,156.597L303.687,174.997L303.087,174.997L308.037,157.897L313.387,157.897L318.337,175.047L317.737,175.047L322.987,156.597L328.887,156.597L320.887,180.847L315.087,180.847L310.137,164.747L311.037,164.747L306.187,180.847L300.337,180.847L292.287,156.597Z" style="fill:rgb(204,204,204);fill-rule:nonzero;"/>
                <path d="M337.687,152.147C336.537,152.147 335.641,151.843 335,151.234C334.358,150.626 334.037,149.78 334.037,148.697C334.037,147.647 334.358,146.809 335,146.184C335.641,145.559 336.537,145.247 337.687,145.247C338.82,145.247 339.712,145.559 340.362,146.184C341.012,146.809 341.337,147.647 341.337,148.697C341.337,149.78 341.012,150.626 340.362,151.234C339.712,151.843 338.82,152.147 337.687,152.147ZM334.737,180.847L334.737,156.497L340.637,156.497L340.637,180.847L334.737,180.847Z" style="fill:rgb(204,204,204);fill-rule:nonzero;"/>
                <path d="M359.687,181.547C357.704,181.547 355.85,181.038 354.125,180.022C352.4,179.005 351.004,177.538 349.937,175.622C348.87,173.705 348.337,171.397 348.337,168.697C348.337,166.013 348.862,163.718 349.912,161.809C350.962,159.901 352.329,158.438 354.012,157.422C355.695,156.405 357.487,155.897 359.387,155.897C360.954,155.897 362.395,156.288 363.712,157.072C365.029,157.855 366.087,159.059 366.887,160.684C367.687,162.309 368.087,164.397 368.087,166.947L365.887,166.947C365.887,165.73 365.641,164.693 365.15,163.834C364.658,162.976 364,162.322 363.175,161.872C362.35,161.422 361.437,161.197 360.437,161.197C359.254,161.197 358.2,161.497 357.275,162.097C356.35,162.697 355.62,163.559 355.087,164.684C354.554,165.809 354.287,167.147 354.287,168.697C354.287,170.397 354.6,171.801 355.225,172.909C355.85,174.018 356.641,174.843 357.6,175.384C358.558,175.926 359.537,176.197 360.537,176.197C361.454,176.197 362.32,175.993 363.137,175.584C363.954,175.176 364.616,174.588 365.125,173.822C365.633,173.055 365.887,172.13 365.887,171.047L367.037,171.047C367.037,173.113 366.795,174.934 366.312,176.509C365.829,178.084 365.05,179.318 363.975,180.209C362.9,181.101 361.47,181.547 359.687,181.547ZM373.437,193.397C370.72,192.713 368.783,191.647 367.625,190.197C366.466,188.747 365.887,186.73 365.887,184.147L365.887,162.597L367.987,156.597L371.787,156.597L371.787,184.597C371.787,185.58 371.887,186.351 372.087,186.909C372.287,187.468 372.633,187.905 373.125,188.222C373.616,188.538 374.287,188.83 375.137,189.097L373.437,193.397Z" style="fill:rgb(204,204,204);fill-rule:nonzero;"/>
                <path d="M382.537,180.847L382.537,153.647C382.537,151.897 382.879,150.472 383.562,149.372C384.245,148.272 385.15,147.459 386.275,146.934C387.4,146.409 388.62,146.147 389.937,146.147C390.754,146.147 391.595,146.205 392.462,146.322C393.329,146.438 394.17,146.58 394.987,146.747L393.837,151.297C393.42,151.147 392.987,151.026 392.537,150.934C392.087,150.843 391.654,150.797 391.237,150.797C390.77,150.797 390.329,150.884 389.912,151.059C389.495,151.234 389.154,151.538 388.887,151.972C388.62,152.405 388.487,152.997 388.487,153.747L388.487,180.847L382.537,180.847ZM378.937,160.497L378.937,156.597L392.937,156.597L392.937,160.497L378.937,160.497ZM399.512,180.847L399.512,146.547L405.412,146.547L405.412,180.847L399.512,180.847Z" style="fill:rgb(204,204,204);fill-rule:nonzero;"/>
                <path d="M418.187,152.147C417.037,152.147 416.141,151.843 415.5,151.234C414.858,150.626 414.537,149.78 414.537,148.697C414.537,147.647 414.858,146.809 415.5,146.184C416.141,145.559 417.037,145.247 418.187,145.247C419.32,145.247 420.212,145.559 420.862,146.184C421.512,146.809 421.837,147.647 421.837,148.697C421.837,149.78 421.512,150.626 420.862,151.234C420.212,151.843 419.32,152.147 418.187,152.147ZM415.237,180.847L415.237,156.497L421.137,156.497L421.137,180.847L415.237,180.847Z" style="fill:rgb(204,204,204);fill-rule:nonzero;"/>
                <path d="M440.337,181.547C438.304,181.547 436.416,181.018 434.675,179.959C432.933,178.901 431.525,177.409 430.45,175.484C429.375,173.559 428.837,171.297 428.837,168.697C428.837,165.947 429.375,163.618 430.45,161.709C431.525,159.801 432.933,158.355 434.675,157.372C436.416,156.388 438.304,155.897 440.337,155.897C441.92,155.897 443.316,156.151 444.525,156.659C445.733,157.168 446.762,157.851 447.612,158.709C448.462,159.568 449.129,160.522 449.612,161.572C450.095,162.622 450.404,163.68 450.537,164.747L444.587,164.897C444.32,163.83 443.825,162.947 443.1,162.247C442.375,161.547 441.437,161.197 440.287,161.197C439.337,161.197 438.445,161.459 437.612,161.984C436.779,162.509 436.1,163.322 435.575,164.422C435.05,165.522 434.787,166.947 434.787,168.697C434.787,170.363 435.033,171.751 435.525,172.859C436.016,173.968 436.679,174.801 437.512,175.359C438.345,175.918 439.27,176.197 440.287,176.197C441.787,176.197 442.879,175.834 443.562,175.109C444.245,174.384 444.587,173.413 444.587,172.197L450.537,172.197C450.537,173.913 450.145,175.48 449.362,176.897C448.579,178.313 447.429,179.443 445.912,180.284C444.395,181.126 442.537,181.547 440.337,181.547Z" style="fill:rgb(204,204,204);fill-rule:nonzero;"/>
                <path d="M457.612,180.847L457.612,146.547L463.512,146.547L463.512,180.847L457.612,180.847ZM462.712,165.797L473.112,156.597L481.112,156.597L462.712,171.897L462.712,165.797ZM474.512,180.847L463.662,165.397L469.262,164.047L481.712,180.847L474.512,180.847Z" style="fill:rgb(204,204,204);fill-rule:nonzero;"/>
            </g>
        </g>
    </g>
</svg>
