<svg width="125" height="75" viewBox="0 0 125 75" fill="none" xmlns="http://www.w3.org/2000/svg">
<path d="M0.230176 74.6161C0.356773 74.405 1.49854 72.3189 2.76744 69.9803C4.03634 67.6417 6.50455 63.0974 8.25237 59.8819C10.0002 56.6663 12.9951 51.1522 14.9078 47.6282L18.3854 41.221L20.8746 41.2207L23.3638 41.2205L24.214 47.1555C26.1772 60.8601 28.1252 74.3726 28.1814 74.6752L28.2417 75H25.7252H23.2087L22.703 71.4481C22.4249 69.4946 22.1705 67.7934 22.1376 67.6676C22.0793 67.4445 21.9222 67.4397 15.7534 67.4695L9.42893 67.5L7.3033 71.25L5.17767 75H2.58883H0L0.230176 74.6161ZM21.5296 62.8991C21.595 62.8336 19.8269 48.5841 19.7437 48.5061C19.7112 48.4756 18.8245 50.0262 17.7733 51.9517C16.7221 53.8773 14.9748 57.0738 13.8905 59.0551C12.8063 61.0364 11.8934 62.7239 11.8621 62.8051C11.8066 62.9487 21.3868 63.0419 21.5296 62.8991ZM64.6447 69.0137C64.1279 68.9798 63.9123 68.9206 63.9483 68.8228C63.977 68.7448 64.1251 68.0296 64.2774 67.2333L64.5544 65.7855L65.151 65.875C66.5397 66.0834 67.2859 65.8856 67.8925 65.1483C68.7004 64.1662 68.7441 64.8413 67.3874 57.3425C66.7174 53.6397 66.1674 50.5703 66.1651 50.5216C66.1628 50.4729 67.0269 50.433 68.0852 50.433H70.0094L70.5779 55.246C70.8906 57.8932 71.1717 60.1387 71.2026 60.2362C71.26 60.4168 72.1626 58.6142 75.3573 51.9389L76.078 50.433H78.0416C79.6291 50.433 79.9936 50.4632 79.9447 50.5905C79.9115 50.6771 79.1717 52.0191 78.3007 53.5728C77.4297 55.1264 75.4182 58.7246 73.8307 61.5687C70.6824 67.2093 70.3866 67.6692 69.5417 68.2371C68.5583 68.898 66.8957 69.1617 64.6447 69.0137ZM47.008 64.4855C44.23 64.0166 42.9436 61.515 44.1844 58.9945C45.0387 57.2592 46.6144 56.5402 50.3933 56.1616C53.6974 55.8305 54.3519 55.4773 54.1976 54.1085C53.9613 52.0119 49.6206 52.1316 49.0891 54.2493L49.0094 54.5669H47.2412H45.4729L45.5511 54.183C46.1774 51.1095 50.164 49.3641 54.4088 50.3049C57.8842 51.0753 58.2624 52.39 56.8242 58.7008C56.2044 61.4204 56.0822 62.1361 56.0732 63.1003L56.0625 64.2518L54.2023 64.2519L52.3421 64.2519V63.5901V62.9283L51.9046 63.3124C50.7896 64.2914 48.7511 64.7798 47.008 64.4855ZM50.4405 61.9993C51.704 61.7284 52.4535 60.8753 53.0694 59.0073C53.5573 57.5276 53.5575 57.5529 53.0621 57.8091C52.8614 57.9128 52.2585 58.051 51.7224 58.1161C48.8701 58.4623 48.4622 58.5768 47.8918 59.1912C46.4674 60.7259 48.0822 62.5051 50.4405 61.9993H50.4405ZM101.304 64.4828C98.0963 63.9798 96.5931 62.1355 96.5914 58.7008C96.5889 53.4959 99.6753 50.1299 104.429 50.1536C107.973 50.1712 110.176 51.7533 110.421 54.4557L110.485 55.1575H108.648H106.812L106.732 54.6878C106.41 52.7825 103.772 52.2563 102.118 53.7677C100.361 55.3733 99.7143 59.4614 100.979 60.9647C102.24 62.4629 104.826 61.8432 105.787 59.8127L106.089 59.1732H107.916C110.059 59.1732 109.963 59.0663 109.196 60.5971C107.717 63.5528 104.735 65.0208 101.304 64.4828ZM115.767 64.529C112.745 64.1275 111.043 62.6373 111.043 60.3919V59.7637H112.755H114.468V60.1298C114.468 61.4653 116.24 62.3959 118.055 62.0133C119.124 61.7878 119.606 61.2899 119.606 60.4095C119.606 59.4401 119.295 59.2154 116.904 58.454C113.153 57.2596 112.433 56.6396 112.41 54.584C112.381 52.0205 114.381 50.3902 117.877 50.1263C121.49 49.8536 123.814 51.2136 124.103 53.7697L124.18 54.4488H122.395C120.677 54.4488 120.61 54.4397 120.61 54.2079C120.61 53.7862 120.148 53.0436 119.752 52.8281C118.771 52.2941 116.57 52.7071 116.247 53.4857C115.856 54.4301 116.344 54.8585 118.701 55.6402C122.435 56.8785 123.364 57.7195 123.371 59.867C123.382 62.979 119.948 65.0843 115.767 64.529ZM83.9366 64.363C82.1931 64.1361 81.2836 63.2676 81.2847 61.8307C81.285 61.5059 81.6729 59.3924 82.1466 57.1341C82.6204 54.8759 82.9822 53.0023 82.9506 52.9708C82.9191 52.9392 82.3706 52.9134 81.7318 52.9134C81.093 52.9134 80.5728 52.8735 80.5758 52.8248C80.5787 52.7761 80.701 52.2313 80.8475 51.6141L81.1139 50.4921L82.342 50.433L83.5701 50.374L83.9817 48.3366L84.3932 46.2992H86.2613C87.2888 46.2992 88.1295 46.3175 88.1295 46.3398C88.1295 46.3971 87.4372 49.845 87.361 50.1673C87.2986 50.4311 87.3079 50.433 88.6587 50.433C89.407 50.433 90.0168 50.4729 90.0139 50.5216C90.0109 50.5703 89.8885 51.1151 89.742 51.7323L89.4754 52.8543L88.184 52.8881C87.4737 52.9067 86.853 52.9615 86.8047 53.0098C86.5982 53.2162 85.1811 60.5868 85.2919 60.8781C85.4991 61.4232 85.9065 61.5758 86.9615 61.5035C87.6547 61.456 87.8969 61.4754 87.8602 61.5755C87.8326 61.6509 87.6874 62.2706 87.5377 62.9527C87.3879 63.6348 87.2339 64.2259 87.1954 64.2663C87.0777 64.3901 84.6889 64.4609 83.9366 64.363ZM28.1702 63.9862C28.2491 63.6703 30.9641 50.5436 30.9641 50.4781C30.9641 50.4533 31.7614 50.433 32.7358 50.433C34.7525 50.433 34.6199 50.3402 34.331 51.5502C34.1193 52.437 34.1109 52.4339 34.8362 51.7348C37.0911 49.5614 41.3532 49.5311 42.556 51.68C43.2797 52.9729 43.2524 53.3244 41.9422 59.5804L40.9639 64.2519H39.0939C38.0655 64.2519 37.224 64.229 37.224 64.2011C37.224 64.1731 37.5729 62.4856 37.9993 60.4511C39.276 54.3595 39.2817 54.3122 38.8043 53.7449C37.8837 52.6507 35.89 52.8939 34.6651 54.2497C33.8644 55.136 33.6021 55.9333 32.6963 60.2334L31.85 64.2514L29.9769 64.2516L28.1039 64.2519L28.1702 63.9861V63.9862ZM58.2476 64.1568C58.2476 64.1045 58.41 63.3206 58.6086 62.4147C58.8071 61.5089 59.4168 58.6949 59.9635 56.1614C60.5101 53.6279 61.4372 49.3343 62.0237 46.62C62.6102 43.9057 63.0901 41.6606 63.0901 41.631C63.0901 41.6014 62.7372 41.4171 62.306 41.2216C57.0232 38.8263 53.8066 32.6324 54.8871 26.9362C56.9135 16.2542 69.9273 12.2983 77.4318 20.0831C85.4532 28.404 79.6474 42.3121 68.0975 42.4442L66.6679 42.4606L66.0644 45.2362C65.7324 46.7628 64.712 51.4665 63.7968 55.6889C62.8816 59.9114 62.0804 63.5654 62.0164 63.809L61.8999 64.2519H60.0737C59.0694 64.2519 58.2476 64.2091 58.2476 64.1568ZM70.7082 39.9282C78.2336 37.9489 81.4052 28.9416 76.7843 22.6726C71.4593 15.4485 60.0817 17.375 57.3762 25.9588C54.8008 34.1297 62.4162 42.1091 70.7082 39.9282ZM62.3814 30.5315C62.3814 30.499 62.408 30.4724 62.4405 30.4724C62.473 30.4724 62.4996 30.499 62.4996 30.5315C62.4996 30.564 62.473 30.5905 62.4405 30.5905C62.408 30.5905 62.3814 30.564 62.3814 30.5315ZM89.2176 63.9862C89.2466 63.84 89.9012 60.7308 90.6723 57.0767L92.0743 50.433H93.9404C95.0512 50.433 95.8066 50.4788 95.8066 50.5462C95.8066 50.6084 95.5763 51.7379 95.2948 53.056C95.0133 54.3742 94.3623 57.4324 93.848 59.8519L92.9129 64.2511L91.0389 64.2515L89.1649 64.252L89.2176 63.9863V63.9862ZM92.5579 48.0413C92.5924 47.8951 92.7439 47.2175 92.8944 46.5354L93.168 45.2952L95.0753 45.2628C96.5787 45.2372 96.9723 45.2622 96.934 45.3809C96.9073 45.4637 96.7715 46.063 96.6322 46.7126C96.493 47.3622 96.3529 47.9867 96.3211 48.1004C96.269 48.2862 96.0726 48.3071 94.3791 48.3071H92.495L92.5579 48.0413ZM2.29545 39.2126C2.31976 39.1151 4.16855 30.2524 6.40388 19.5177L10.4681 0L17.1433 0.00215545C26.904 0.00532081 29.0434 0.458865 31.6902 3.08595C35.4227 6.79073 34.0145 15.0857 29.0989 18.3504C26.402 20.1415 24.7036 20.4324 16.93 20.4349C13.7679 20.4358 11.118 20.4766 11.0413 20.5253C10.9647 20.574 9.9344 24.8385 8.75179 30.0018L6.60158 39.3897H4.42642C2.55203 39.3897 2.25736 39.3652 2.29545 39.2126ZM24.1534 15.6631C27.3859 14.7094 29.4824 11.3551 28.9422 8.00116C28.4299 4.82016 26.0528 3.89794 18.3653 3.89773L14.8018 3.89764L14.7198 4.28149C14.6748 4.49262 14.0593 7.1584 13.3522 10.2055C12.6451 13.2525 12.0665 15.7941 12.0665 15.8533C12.0665 16.0711 23.3739 15.8932 24.1534 15.6631ZM12.8931 39.3669C12.8932 39.3544 13.1883 37.9193 13.5489 36.1779C13.9096 34.4366 14.5204 31.4705 14.9064 29.5866C15.2923 27.7027 15.6361 26.0418 15.6703 25.8957C15.7329 25.6277 19.2729 25.4535 19.2704 25.7185C19.2699 25.7672 19.1636 26.2489 19.0342 26.789C18.7376 28.0262 18.7428 28.2953 19.0519 27.709C19.6036 26.663 20.9292 25.7024 22.2372 25.4008C22.8276 25.2647 24.7043 25.2328 24.7043 25.3589C24.7043 25.4047 24.5351 26.2303 24.3284 27.1936L23.9525 28.945L23.413 28.8524C21.7832 28.5727 20.4722 28.9017 19.5527 29.8212C18.4584 30.9155 18.2266 31.5811 17.1993 36.5792L16.636 39.3198L14.7645 39.3547C13.7351 39.374 12.893 39.3795 12.8931 39.3669ZM23.7592 39.2604C23.7594 39.1476 25.169 32.4057 26.2334 27.427C26.4317 26.499 26.5941 25.715 26.5941 25.6848C26.5941 25.6546 27.4506 25.6299 28.4976 25.6299C30.252 25.6299 30.397 25.6461 30.348 25.8366C30.3188 25.9503 29.6615 29.0305 28.8874 32.6815L27.4799 39.3198L25.6195 39.3547C24.3285 39.379 23.7591 39.3501 23.7592 39.2604ZM30.2555 39.2783C30.2555 39.217 30.7308 36.8784 31.3117 34.0814C31.8926 31.2845 32.5208 28.252 32.7077 27.3425L33.0475 25.689L34.8404 25.6564C35.8266 25.6384 36.6315 25.665 36.6292 25.7154C36.6269 25.7658 36.548 26.126 36.4539 26.5157C36.2039 27.5511 36.2198 27.5636 36.909 26.8743C39.1549 24.6284 43.4511 24.7293 44.2744 27.0472L44.4743 27.6102L44.9535 27.0938C47.1342 24.7435 51.3667 24.6734 52.8365 26.9632C53.3538 27.769 53.4258 28.9276 53.0662 30.659C52.9324 31.3034 52.4755 33.4726 52.051 35.4793C51.6264 37.4861 51.2791 39.171 51.2791 39.2237C51.2791 39.2763 50.4286 39.3352 49.3892 39.3546C48.3497 39.3739 47.4993 39.3675 47.4994 39.3403C47.4995 39.3131 47.8157 37.7718 48.2021 35.9151C49.5374 29.4988 49.5198 29.6151 49.2382 29.0586C48.6474 27.8911 46.8115 27.9653 45.5699 29.2068C44.6441 30.1327 44.3888 30.869 43.4538 35.31L42.6097 39.3199L40.7434 39.3548C39.3562 39.3808 38.8772 39.3535 38.8774 39.2487C38.8775 39.1146 39.736 34.9157 40.3578 32.0079C40.7889 29.9917 40.8194 29.6448 40.6097 29.1428C40.0632 27.8349 38.0021 27.9441 36.771 29.3463C35.8598 30.3841 35.6426 31.1191 34.2749 37.7953C34.1351 38.4773 33.9981 39.1151 33.9703 39.2126C33.9113 39.4194 30.2555 39.4841 30.2555 39.2783ZM26.9579 24.0059C26.9631 23.8922 27.1093 23.188 27.2827 22.4409L27.598 21.0827L29.4582 21.0501C30.9838 21.0235 31.3185 21.0472 31.3185 21.1819C31.3185 21.3978 30.7323 23.9918 30.6554 24.1163C30.5199 24.3355 26.9476 24.2288 26.9579 24.0059Z" fill="#CCCCCC"/>
</svg>
