<svg width="494" height="365" viewBox="0 0 494 365" fill="none" xmlns="http://www.w3.org/2000/svg">
<g clip-path="url(#clip0_1783:17981)">
<path fill-rule="evenodd" clip-rule="evenodd" d="M462.329 31.5337L488.651 5.21158L485.247 1.80786L458.925 28.13L462.329 31.5337Z" fill="white"/>
<path d="M488.651 28.13L462.329 1.80786L458.925 5.21158L485.247 31.5337L488.651 28.13Z" fill="white"/>
<path fill-rule="evenodd" clip-rule="evenodd" d="M415.002 33.3414L441.324 7.01923L434.305 0L407.983 26.3221L415.002 33.3414Z" fill="white"/>
<path d="M441.324 26.3221L415.002 0L407.983 7.01923L434.305 33.3414L441.324 26.3221Z" fill="white"/>
<path fill-rule="evenodd" clip-rule="evenodd" d="M451.852 70.1922L478.175 43.8701L471.155 36.8508L444.833 63.173L451.852 70.1922Z" fill="white"/>
<path d="M478.175 63.1729L451.853 36.8508L444.833 43.8701L471.155 70.1922L478.175 63.1729Z" fill="white"/>
<path fill-rule="evenodd" clip-rule="evenodd" d="M400.911 68.3845L427.233 42.0624L423.829 38.6587L397.507 64.9808L400.911 68.3845Z" fill="white"/>
<path d="M427.233 64.9808L400.911 38.6587L397.507 42.0624L423.829 68.3845L427.233 64.9808Z" fill="white"/>
<path fill-rule="evenodd" clip-rule="evenodd" d="M364.06 31.5337L390.382 5.21158L386.978 1.80786L360.656 28.13L364.06 31.5337Z" fill="white"/>
<path d="M390.382 28.13L364.06 1.80786L360.656 5.21158L386.978 31.5337L390.382 28.13Z" fill="white"/>
<path fill-rule="evenodd" clip-rule="evenodd" d="M316.732 33.3413L343.054 7.01923L336.035 0L309.713 26.3221L316.732 33.3413Z" fill="white"/>
<path d="M343.055 26.3221L316.732 0L309.713 7.01923L336.035 33.3414L343.055 26.3221Z" fill="white"/>
<path fill-rule="evenodd" clip-rule="evenodd" d="M265.79 31.5337L292.112 5.21158L288.708 1.80786L262.386 28.13L265.79 31.5337Z" fill="white"/>
<path d="M292.112 28.13L265.79 1.80786L262.386 5.21158L288.708 31.5337L292.112 28.13Z" fill="white"/>
<path fill-rule="evenodd" clip-rule="evenodd" d="M218.463 33.3401L244.785 7.01801L237.766 -0.0012207L211.444 26.3209L218.463 33.3401Z" fill="white"/>
<path d="M244.786 26.3209L218.463 -0.0012207L211.444 7.01801L237.766 33.3401L244.786 26.3209Z" fill="white"/>
<path fill-rule="evenodd" clip-rule="evenodd" d="M167.521 31.5337L193.843 5.21158L190.439 1.80786L164.117 28.13L167.521 31.5337Z" fill="white"/>
<path d="M193.843 28.13L167.521 1.80786L164.117 5.21158L190.439 31.5337L193.843 28.13Z" fill="white"/>
<path fill-rule="evenodd" clip-rule="evenodd" d="M120.194 33.3414L146.516 7.01923L139.497 0L113.174 26.3221L120.194 33.3414Z" fill="white"/>
<path d="M146.516 26.3221L120.194 0L113.175 7.01923L139.497 33.3414L146.516 26.3221Z" fill="white"/>
<path fill-rule="evenodd" clip-rule="evenodd" d="M69.252 32.197L95.5741 5.87491L92.1704 2.47119L65.8483 28.7933L69.252 32.197Z" fill="white"/>
<path d="M95.5741 28.7933L69.252 2.47119L65.8482 5.87491L92.1704 32.197L95.5741 28.7933Z" fill="white"/>
<path fill-rule="evenodd" clip-rule="evenodd" d="M21.9247 34.0047L48.2468 7.68256L41.2275 0.66333L14.9054 26.9854L21.9247 34.0047Z" fill="white"/>
<path d="M48.2469 26.9855L21.9248 0.66333L14.9056 7.68256L41.2277 34.0047L48.2469 26.9855Z" fill="white"/>
<path fill-rule="evenodd" clip-rule="evenodd" d="M353.583 70.1922L379.905 43.8701L372.886 36.8508L346.564 63.1729L353.583 70.1922Z" fill="white"/>
<path d="M379.906 63.1729L353.583 36.8508L346.564 43.8701L372.886 70.1922L379.906 63.1729Z" fill="white"/>
<path fill-rule="evenodd" clip-rule="evenodd" d="M302.641 68.3845L328.963 42.0624L325.56 38.6587L299.237 64.9808L302.641 68.3845Z" fill="white"/>
<path d="M328.963 64.9808L302.641 38.6587L299.237 42.0624L325.56 68.3845L328.963 64.9808Z" fill="white"/>
<path fill-rule="evenodd" clip-rule="evenodd" d="M255.314 70.1922L281.636 43.8701L274.617 36.8508L248.295 63.1729L255.314 70.1922Z" fill="white"/>
<path d="M281.637 63.173L255.314 36.8508L248.295 43.8701L274.617 70.1922L281.637 63.173Z" fill="white"/>
<path fill-rule="evenodd" clip-rule="evenodd" d="M204.372 68.3845L230.694 42.0624L227.291 38.6587L200.968 64.9808L204.372 68.3845Z" fill="white"/>
<path d="M230.694 64.9808L204.372 38.6587L200.968 42.0624L227.29 68.3845L230.694 64.9808Z" fill="white"/>
<path fill-rule="evenodd" clip-rule="evenodd" d="M157.045 70.191L183.367 43.8688L176.348 36.8496L150.026 63.1717L157.045 70.191Z" fill="white"/>
<path d="M183.367 63.1717L157.045 36.8496L150.026 43.8688L176.348 70.191L183.367 63.1717Z" fill="white"/>
<path fill-rule="evenodd" clip-rule="evenodd" d="M106.103 68.3845L132.425 42.0624L129.021 38.6587L102.699 64.9808L106.103 68.3845Z" fill="white"/>
<path d="M132.425 64.9808L106.103 38.6587L102.699 42.0624L129.021 68.3845L132.425 64.9808Z" fill="white"/>
<path fill-rule="evenodd" clip-rule="evenodd" d="M58.7757 70.1922L85.0978 43.8701L78.0786 36.8508L51.7565 63.173L58.7757 70.1922Z" fill="white"/>
<path d="M85.098 63.173L58.7759 36.8508L51.7566 43.8701L78.0788 70.1922L85.098 63.173Z" fill="white"/>
<path fill-rule="evenodd" clip-rule="evenodd" d="M7.83355 68.3845L34.1557 42.0624L30.752 38.6587L4.42983 64.9808L7.83355 68.3845Z" fill="white"/>
<path d="M34.1556 64.9808L7.8335 38.6587L4.42978 42.0624L30.7519 68.3845L34.1556 64.9808Z" fill="white"/>
<path fill-rule="evenodd" clip-rule="evenodd" d="M462.329 104.572L488.651 78.2502L485.247 74.8464L458.925 101.169L462.329 104.572Z" fill="white"/>
<path d="M488.651 101.169L462.329 74.8464L458.925 78.2502L485.247 104.572L488.651 101.169Z" fill="white"/>
<path fill-rule="evenodd" clip-rule="evenodd" d="M415.002 106.38L441.324 80.0578L434.305 73.0386L407.983 99.3607L415.002 106.38Z" fill="white"/>
<path d="M441.324 99.3607L415.002 73.0386L407.983 80.0578L434.305 106.38L441.324 99.3607Z" fill="white"/>
<path fill-rule="evenodd" clip-rule="evenodd" d="M364.06 104.572L390.382 78.2502L386.978 74.8464L360.656 101.169L364.06 104.572Z" fill="white"/>
<path d="M390.382 101.169L364.06 74.8464L360.656 78.2502L386.978 104.572L390.382 101.169Z" fill="white"/>
<path fill-rule="evenodd" clip-rule="evenodd" d="M316.732 106.38L343.054 80.0578L336.035 73.0386L309.713 99.3607L316.732 106.38Z" fill="white"/>
<path d="M343.055 99.3607L316.732 73.0386L309.713 80.0578L336.035 106.38L343.055 99.3607Z" fill="white"/>
<path fill-rule="evenodd" clip-rule="evenodd" d="M265.791 104.572L292.113 78.2502L288.709 74.8464L262.387 101.169L265.791 104.572Z" fill="white"/>
<path d="M292.113 101.169L265.791 74.8464L262.387 78.2501L288.709 104.572L292.113 101.169Z" fill="white"/>
<path fill-rule="evenodd" clip-rule="evenodd" d="M218.463 106.38L244.785 80.0578L237.766 73.0386L211.444 99.3607L218.463 106.38Z" fill="white"/>
<path d="M244.785 99.3607L218.463 73.0386L211.444 80.0578L237.766 106.38L244.785 99.3607Z" fill="white"/>
<path fill-rule="evenodd" clip-rule="evenodd" d="M167.521 104.572L193.843 78.2502L190.439 74.8464L164.117 101.169L167.521 104.572Z" fill="white"/>
<path d="M193.843 101.169L167.521 74.8464L164.117 78.2501L190.439 104.572L193.843 101.169Z" fill="white"/>
<path fill-rule="evenodd" clip-rule="evenodd" d="M120.194 106.38L146.516 80.0578L139.497 73.0386L113.174 99.3607L120.194 106.38Z" fill="white"/>
<path d="M146.516 99.3607L120.194 73.0386L113.175 80.0578L139.497 106.38L146.516 99.3607Z" fill="white"/>
<path fill-rule="evenodd" clip-rule="evenodd" d="M69.252 105.235L95.5741 78.9132L92.1704 75.5095L65.8483 101.832L69.252 105.235Z" fill="white"/>
<path d="M95.5741 101.832L69.252 75.5095L65.8482 78.9132L92.1704 105.235L95.5741 101.832Z" fill="white"/>
<path fill-rule="evenodd" clip-rule="evenodd" d="M21.9246 107.043L48.2468 80.7211L41.2275 73.7019L14.9054 100.024L21.9246 107.043Z" fill="white"/>
<path d="M48.2469 100.024L21.9248 73.7019L14.9056 80.7211L41.2277 107.043L48.2469 100.024Z" fill="white"/>
<path fill-rule="evenodd" clip-rule="evenodd" d="M451.852 143.894L478.175 117.572L471.155 110.553L444.833 136.875L451.852 143.894Z" fill="white"/>
<path d="M478.175 136.875L451.853 110.553L444.833 117.572L471.155 143.894L478.175 136.875Z" fill="white"/>
<path fill-rule="evenodd" clip-rule="evenodd" d="M400.91 142.087L427.232 115.765L423.829 112.361L397.506 138.683L400.91 142.087Z" fill="white"/>
<path d="M427.232 138.683L400.91 112.361L397.506 115.765L423.829 142.087L427.232 138.683Z" fill="white"/>
<path fill-rule="evenodd" clip-rule="evenodd" d="M353.583 143.894L379.905 117.572L372.886 110.553L346.564 136.875L353.583 143.894Z" fill="white"/>
<path d="M379.906 136.875L353.583 110.553L346.564 117.572L372.886 143.894L379.906 136.875Z" fill="white"/>
<path fill-rule="evenodd" clip-rule="evenodd" d="M302.641 142.087L328.963 115.765L325.56 112.361L299.237 138.683L302.641 142.087Z" fill="white"/>
<path d="M328.963 138.683L302.641 112.361L299.237 115.765L325.56 142.087L328.963 138.683Z" fill="white"/>
<path fill-rule="evenodd" clip-rule="evenodd" d="M255.314 143.894L281.636 117.572L274.617 110.553L248.295 136.875L255.314 143.894Z" fill="white"/>
<path d="M281.637 136.875L255.314 110.553L248.295 117.572L274.617 143.894L281.637 136.875Z" fill="white"/>
<path fill-rule="evenodd" clip-rule="evenodd" d="M204.372 142.087L230.694 115.765L227.291 112.361L200.968 138.683L204.372 142.087Z" fill="white"/>
<path d="M230.694 138.683L204.372 112.361L200.968 115.765L227.29 142.087L230.694 138.683Z" fill="white"/>
<path fill-rule="evenodd" clip-rule="evenodd" d="M157.045 143.894L183.367 117.572L176.348 110.553L150.026 136.875L157.045 143.894Z" fill="white"/>
<path d="M183.367 136.875L157.045 110.553L150.026 117.572L176.348 143.894L183.367 136.875Z" fill="white"/>
<path fill-rule="evenodd" clip-rule="evenodd" d="M106.103 142.087L132.425 115.765L129.021 112.361L102.699 138.683L106.103 142.087Z" fill="white"/>
<path d="M132.425 138.683L106.103 112.361L102.699 115.765L129.021 142.087L132.425 138.683Z" fill="white"/>
<path fill-rule="evenodd" clip-rule="evenodd" d="M58.7757 143.894L85.0978 117.572L78.0786 110.553L51.7565 136.875L58.7757 143.894Z" fill="white"/>
<path d="M85.098 136.875L58.7759 110.553L51.7566 117.572L78.0788 143.894L85.098 136.875Z" fill="white"/>
<path fill-rule="evenodd" clip-rule="evenodd" d="M7.83355 142.087L34.1557 115.765L30.752 112.361L4.42983 138.683L7.83355 142.087Z" fill="white"/>
<path d="M34.1556 138.683L7.8335 112.361L4.42978 115.765L30.7519 142.087L34.1556 138.683Z" fill="white"/>
<path fill-rule="evenodd" clip-rule="evenodd" d="M462.329 178.274L488.651 151.952L485.247 148.548L458.925 174.87L462.329 178.274Z" fill="white"/>
<path d="M488.651 174.87L462.329 148.548L458.925 151.952L485.247 178.274L488.651 174.87Z" fill="white"/>
<path fill-rule="evenodd" clip-rule="evenodd" d="M415.002 180.082L441.324 153.76L434.305 146.74L407.983 173.063L415.002 180.082Z" fill="white"/>
<path d="M441.324 173.063L415.002 146.74L407.983 153.76L434.305 180.082L441.324 173.063Z" fill="white"/>
<path fill-rule="evenodd" clip-rule="evenodd" d="M364.06 178.274L390.382 151.952L386.978 148.548L360.656 174.87L364.06 178.274Z" fill="white"/>
<path d="M390.382 174.87L364.06 148.548L360.656 151.952L386.978 178.274L390.382 174.87Z" fill="white"/>
<path fill-rule="evenodd" clip-rule="evenodd" d="M316.732 180.082L343.054 153.76L336.035 146.74L309.713 173.063L316.732 180.082Z" fill="white"/>
<path d="M343.055 173.063L316.732 146.74L309.713 153.76L336.035 180.082L343.055 173.063Z" fill="white"/>
<path fill-rule="evenodd" clip-rule="evenodd" d="M265.791 178.274L292.113 151.952L288.709 148.548L262.387 174.87L265.791 178.274Z" fill="white"/>
<path d="M292.113 174.87L265.791 148.548L262.387 151.952L288.709 178.274L292.113 174.87Z" fill="white"/>
<path fill-rule="evenodd" clip-rule="evenodd" d="M218.463 180.082L244.785 153.76L237.766 146.74L211.444 173.063L218.463 180.082Z" fill="white"/>
<path d="M244.785 173.063L218.463 146.74L211.444 153.76L237.766 180.082L244.785 173.063Z" fill="white"/>
<path fill-rule="evenodd" clip-rule="evenodd" d="M167.521 178.274L193.843 151.952L190.439 148.548L164.117 174.87L167.521 178.274Z" fill="white"/>
<path d="M193.843 174.87L167.521 148.548L164.117 151.952L190.439 178.274L193.843 174.87Z" fill="white"/>
<path fill-rule="evenodd" clip-rule="evenodd" d="M120.194 180.082L146.516 153.76L139.497 146.74L113.174 173.063L120.194 180.082Z" fill="white"/>
<path d="M146.516 173.063L120.194 146.74L113.175 153.76L139.497 180.082L146.516 173.063Z" fill="white"/>
<path fill-rule="evenodd" clip-rule="evenodd" d="M69.252 178.937L95.5741 152.615L92.1704 149.211L65.8483 175.534L69.252 178.937Z" fill="white"/>
<path d="M95.5741 175.534L69.252 149.211L65.8482 152.615L92.1704 178.937L95.5741 175.534Z" fill="white"/>
<path fill-rule="evenodd" clip-rule="evenodd" d="M21.9246 180.745L48.2468 154.423L41.2275 147.404L14.9054 173.726L21.9246 180.745Z" fill="white"/>
<path d="M48.247 173.726L21.9248 147.404L14.9056 154.423L41.2277 180.745L48.247 173.726Z" fill="white"/>
<path fill-rule="evenodd" clip-rule="evenodd" d="M451.852 217.595L478.175 191.273L471.155 184.254L444.833 210.576L451.852 217.595Z" fill="white"/>
<path d="M478.175 210.576L451.853 184.254L444.833 191.273L471.155 217.595L478.175 210.576Z" fill="white"/>
<path fill-rule="evenodd" clip-rule="evenodd" d="M400.911 215.789L427.233 189.466L423.829 186.063L397.507 212.385L400.911 215.789Z" fill="white"/>
<path d="M427.233 212.385L400.911 186.063L397.507 189.466L423.829 215.789L427.233 212.385Z" fill="white"/>
<path fill-rule="evenodd" clip-rule="evenodd" d="M353.583 217.595L379.905 191.273L372.886 184.253L346.564 210.576L353.583 217.595Z" fill="white"/>
<path d="M379.906 210.576L353.583 184.253L346.564 191.273L372.886 217.595L379.906 210.576Z" fill="white"/>
<path fill-rule="evenodd" clip-rule="evenodd" d="M302.641 215.789L328.963 189.466L325.56 186.063L299.237 212.385L302.641 215.789Z" fill="white"/>
<path d="M328.963 212.385L302.641 186.063L299.237 189.466L325.56 215.789L328.963 212.385Z" fill="white"/>
<path fill-rule="evenodd" clip-rule="evenodd" d="M255.314 217.595L281.636 191.273L274.617 184.254L248.295 210.576L255.314 217.595Z" fill="white"/>
<path d="M281.636 210.576L255.314 184.254L248.295 191.273L274.617 217.595L281.636 210.576Z" fill="white"/>
<path fill-rule="evenodd" clip-rule="evenodd" d="M204.372 215.789L230.694 189.466L227.291 186.063L200.968 212.385L204.372 215.789Z" fill="white"/>
<path d="M230.694 212.385L204.372 186.063L200.968 189.466L227.29 215.789L230.694 212.385Z" fill="white"/>
<path fill-rule="evenodd" clip-rule="evenodd" d="M157.045 217.596L183.367 191.274L176.348 184.255L150.026 210.577L157.045 217.596Z" fill="white"/>
<path d="M183.367 210.577L157.045 184.255L150.026 191.274L176.348 217.596L183.367 210.577Z" fill="white"/>
<path fill-rule="evenodd" clip-rule="evenodd" d="M106.103 215.789L132.425 189.466L129.021 186.063L102.699 212.385L106.103 215.789Z" fill="white"/>
<path d="M132.425 212.385L106.103 186.063L102.699 189.466L129.021 215.789L132.425 212.385Z" fill="white"/>
<path fill-rule="evenodd" clip-rule="evenodd" d="M58.7762 217.595L85.0983 191.273L78.0791 184.254L51.757 210.576L58.7762 217.595Z" fill="white"/>
<path d="M85.0985 210.576L58.7764 184.254L51.7571 191.273L78.0792 217.595L85.0985 210.576Z" fill="white"/>
<path fill-rule="evenodd" clip-rule="evenodd" d="M7.83355 215.789L34.1557 189.466L30.752 186.063L4.42984 212.385L7.83355 215.789Z" fill="white"/>
<path d="M34.1556 212.385L7.8335 186.063L4.42978 189.466L30.7519 215.789L34.1556 212.385Z" fill="white"/>
<path fill-rule="evenodd" clip-rule="evenodd" d="M462.329 251.976L488.651 225.654L485.247 222.25L458.925 248.572L462.329 251.976Z" fill="white"/>
<path d="M488.651 248.572L462.329 222.25L458.925 225.654L485.247 251.976L488.651 248.572Z" fill="white"/>
<path fill-rule="evenodd" clip-rule="evenodd" d="M415.002 253.784L441.324 227.462L434.305 220.442L407.983 246.765L415.002 253.784Z" fill="white"/>
<path d="M441.324 246.765L415.002 220.442L407.983 227.462L434.305 253.784L441.324 246.765Z" fill="white"/>
<path fill-rule="evenodd" clip-rule="evenodd" d="M364.06 251.976L390.382 225.654L386.978 222.25L360.656 248.572L364.06 251.976Z" fill="white"/>
<path d="M390.382 248.572L364.06 222.25L360.656 225.654L386.978 251.976L390.382 248.572Z" fill="white"/>
<path fill-rule="evenodd" clip-rule="evenodd" d="M316.732 253.784L343.054 227.462L336.035 220.442L309.713 246.765L316.732 253.784Z" fill="white"/>
<path d="M343.055 246.765L316.732 220.442L309.713 227.462L336.035 253.784L343.055 246.765Z" fill="white"/>
<path fill-rule="evenodd" clip-rule="evenodd" d="M265.791 251.976L292.113 225.654L288.709 222.25L262.387 248.572L265.791 251.976Z" fill="white"/>
<path d="M292.113 248.572L265.791 222.25L262.387 225.654L288.709 251.976L292.113 248.572Z" fill="white"/>
<path fill-rule="evenodd" clip-rule="evenodd" d="M218.463 253.783L244.785 227.46L237.766 220.441L211.444 246.763L218.463 253.783Z" fill="white"/>
<path d="M244.785 246.763L218.463 220.441L211.444 227.46L237.766 253.783L244.785 246.763Z" fill="white"/>
<path fill-rule="evenodd" clip-rule="evenodd" d="M167.521 251.976L193.843 225.654L190.439 222.25L164.117 248.572L167.521 251.976Z" fill="white"/>
<path d="M193.843 248.572L167.521 222.25L164.117 225.654L190.439 251.976L193.843 248.572Z" fill="white"/>
<path fill-rule="evenodd" clip-rule="evenodd" d="M120.194 253.783L146.516 227.46L139.497 220.441L113.175 246.763L120.194 253.783Z" fill="white"/>
<path d="M146.516 246.763L120.194 220.441L113.175 227.46L139.497 253.783L146.516 246.763Z" fill="white"/>
<path fill-rule="evenodd" clip-rule="evenodd" d="M69.252 252.639L95.5741 226.317L92.1704 222.913L65.8483 249.235L69.252 252.639Z" fill="white"/>
<path d="M95.5741 249.235L69.252 222.913L65.8482 226.317L92.1704 252.639L95.5741 249.235Z" fill="white"/>
<path fill-rule="evenodd" clip-rule="evenodd" d="M21.9246 254.447L48.2468 228.125L41.2275 221.106L14.9054 247.428L21.9246 254.447Z" fill="white"/>
<path d="M48.2469 247.428L21.9248 221.106L14.9056 228.125L41.2277 254.447L48.2469 247.428Z" fill="white"/>
<path fill-rule="evenodd" clip-rule="evenodd" d="M451.852 291.296L478.175 264.974L471.155 257.955L444.833 284.277L451.852 291.296Z" fill="white"/>
<path d="M478.175 284.277L451.853 257.955L444.833 264.974L471.155 291.296L478.175 284.277Z" fill="white"/>
<path fill-rule="evenodd" clip-rule="evenodd" d="M400.911 289.49L427.233 263.167L423.829 259.764L397.507 286.086L400.911 289.49Z" fill="white"/>
<path d="M427.233 286.086L400.911 259.764L397.507 263.167L423.829 289.49L427.233 286.086Z" fill="white"/>
<path fill-rule="evenodd" clip-rule="evenodd" d="M353.583 291.296L379.905 264.974L372.886 257.954L346.564 284.277L353.583 291.296Z" fill="white"/>
<path d="M379.906 284.276L353.583 257.954L346.564 264.974L372.886 291.296L379.906 284.276Z" fill="white"/>
<path fill-rule="evenodd" clip-rule="evenodd" d="M302.642 289.49L328.964 263.167L325.56 259.764L299.238 286.086L302.642 289.49Z" fill="white"/>
<path d="M328.964 286.086L302.642 259.764L299.238 263.167L325.56 289.49L328.964 286.086Z" fill="white"/>
<path fill-rule="evenodd" clip-rule="evenodd" d="M255.314 291.296L281.636 264.974L274.617 257.955L248.295 284.277L255.314 291.296Z" fill="white"/>
<path d="M281.637 284.277L255.314 257.955L248.295 264.974L274.617 291.296L281.637 284.277Z" fill="white"/>
<path fill-rule="evenodd" clip-rule="evenodd" d="M204.372 289.49L230.694 263.167L227.291 259.764L200.968 286.086L204.372 289.49Z" fill="white"/>
<path d="M230.694 286.086L204.372 259.764L200.968 263.167L227.29 289.49L230.694 286.086Z" fill="white"/>
<path fill-rule="evenodd" clip-rule="evenodd" d="M157.045 291.296L183.367 264.974L176.348 257.955L150.026 284.277L157.045 291.296Z" fill="white"/>
<path d="M183.368 284.277L157.045 257.955L150.026 264.974L176.348 291.296L183.368 284.277Z" fill="white"/>
<path fill-rule="evenodd" clip-rule="evenodd" d="M106.103 289.49L132.425 263.167L129.021 259.764L102.699 286.086L106.103 289.49Z" fill="white"/>
<path d="M132.425 286.086L106.103 259.764L102.699 263.167L129.021 289.49L132.425 286.086Z" fill="white"/>
<path fill-rule="evenodd" clip-rule="evenodd" d="M58.7762 291.297L85.0983 264.975L78.0791 257.956L51.757 284.278L58.7762 291.297Z" fill="white"/>
<path d="M85.0985 284.278L58.7764 257.956L51.7571 264.975L78.0792 291.297L85.0985 284.278Z" fill="white"/>
<path fill-rule="evenodd" clip-rule="evenodd" d="M7.83404 289.49L34.1562 263.167L30.7524 259.764L4.43032 286.086L7.83404 289.49Z" fill="white"/>
<path d="M34.1561 286.086L7.83398 259.764L4.43027 263.167L30.7524 289.49L34.1561 286.086Z" fill="white"/>
<path fill-rule="evenodd" clip-rule="evenodd" d="M462.329 325.677L488.651 299.355L485.247 295.951L458.925 322.274L462.329 325.677Z" fill="white"/>
<path d="M488.651 322.274L462.329 295.951L458.925 299.355L485.247 325.677L488.651 322.274Z" fill="white"/>
<path fill-rule="evenodd" clip-rule="evenodd" d="M415.002 327.483L441.324 301.161L434.305 294.142L407.983 320.464L415.002 327.483Z" fill="white"/>
<path d="M441.324 320.464L415.002 294.142L407.983 301.161L434.305 327.483L441.324 320.464Z" fill="white"/>
<path fill-rule="evenodd" clip-rule="evenodd" d="M364.06 325.677L390.382 299.355L386.978 295.951L360.656 322.274L364.06 325.677Z" fill="white"/>
<path d="M390.382 322.274L364.06 295.951L360.656 299.355L386.978 325.677L390.382 322.274Z" fill="white"/>
<path fill-rule="evenodd" clip-rule="evenodd" d="M316.732 327.483L343.054 301.161L336.035 294.142L309.713 320.464L316.732 327.483Z" fill="white"/>
<path d="M343.055 320.464L316.732 294.142L309.713 301.161L336.035 327.483L343.055 320.464Z" fill="white"/>
<path fill-rule="evenodd" clip-rule="evenodd" d="M265.791 325.677L292.113 299.355L288.709 295.951L262.387 322.274L265.791 325.677Z" fill="white"/>
<path d="M292.113 322.274L265.791 295.951L262.387 299.355L288.709 325.677L292.113 322.274Z" fill="white"/>
<path fill-rule="evenodd" clip-rule="evenodd" d="M218.463 327.483L244.785 301.161L237.766 294.142L211.444 320.464L218.463 327.483Z" fill="white"/>
<path d="M244.786 320.464L218.463 294.142L211.444 301.161L237.766 327.483L244.786 320.464Z" fill="white"/>
<path fill-rule="evenodd" clip-rule="evenodd" d="M167.521 325.677L193.843 299.355L190.439 295.951L164.117 322.274L167.521 325.677Z" fill="white"/>
<path d="M193.843 322.274L167.521 295.951L164.117 299.355L190.439 325.677L193.843 322.274Z" fill="white"/>
<path fill-rule="evenodd" clip-rule="evenodd" d="M120.194 327.483L146.516 301.161L139.497 294.142L113.175 320.464L120.194 327.483Z" fill="white"/>
<path d="M146.516 320.464L120.194 294.142L113.175 301.161L139.497 327.483L146.516 320.464Z" fill="white"/>
<path fill-rule="evenodd" clip-rule="evenodd" d="M69.2515 326.34L95.5736 300.018L92.1699 296.615L65.8478 322.937L69.2515 326.34Z" fill="white"/>
<path d="M95.5741 322.937L69.252 296.615L65.8482 300.018L92.1704 326.34L95.5741 322.937Z" fill="white"/>
<path fill-rule="evenodd" clip-rule="evenodd" d="M21.9246 328.148L48.2468 301.826L41.2275 294.807L14.9054 321.129L21.9246 328.148Z" fill="white"/>
<path d="M48.2469 321.129L21.9248 294.807L14.9056 301.826L41.2277 328.148L48.2469 321.129Z" fill="white"/>
<path fill-rule="evenodd" clip-rule="evenodd" d="M451.852 364.999L478.175 338.677L471.155 331.658L444.833 357.98L451.852 364.999Z" fill="white"/>
<path d="M478.175 357.98L451.853 331.658L444.833 338.677L471.155 364.999L478.175 357.98Z" fill="white"/>
<path fill-rule="evenodd" clip-rule="evenodd" d="M400.91 363.191L427.232 336.869L423.829 333.466L397.506 359.788L400.91 363.191Z" fill="white"/>
<path d="M427.232 359.788L400.91 333.466L397.506 336.869L423.829 363.191L427.232 359.788Z" fill="white"/>
<path fill-rule="evenodd" clip-rule="evenodd" d="M354.019 365.341L380.341 339.019L373.322 331.999L347 358.321L354.019 365.341Z" fill="white"/>
<path d="M379.906 357.98L353.583 331.658L346.564 338.677L372.886 364.999L379.906 357.98Z" fill="white"/>
<path fill-rule="evenodd" clip-rule="evenodd" d="M302.641 363.191L328.963 336.869L325.56 333.466L299.237 359.788L302.641 363.191Z" fill="white"/>
<path d="M328.963 359.788L302.641 333.466L299.237 336.869L325.56 363.191L328.963 359.788Z" fill="white"/>
<path fill-rule="evenodd" clip-rule="evenodd" d="M255.314 364.999L281.636 338.677L274.617 331.658L248.295 357.98L255.314 364.999Z" fill="white"/>
<path d="M281.637 357.98L255.314 331.658L248.295 338.677L274.617 364.999L281.637 357.98Z" fill="white"/>
<path fill-rule="evenodd" clip-rule="evenodd" d="M204.372 363.191L230.694 336.869L227.291 333.466L200.968 359.788L204.372 363.191Z" fill="white"/>
<path d="M230.694 359.788L204.372 333.466L200.968 336.869L227.29 363.191L230.694 359.788Z" fill="white"/>
<path fill-rule="evenodd" clip-rule="evenodd" d="M157.045 364.999L183.367 338.677L176.348 331.658L150.026 357.98L157.045 364.999Z" fill="white"/>
<path d="M183.367 357.98L157.045 331.658L150.026 338.677L176.348 364.999L183.367 357.98Z" fill="white"/>
<path fill-rule="evenodd" clip-rule="evenodd" d="M106.103 363.191L132.425 336.869L129.021 333.466L102.699 359.788L106.103 363.191Z" fill="white"/>
<path d="M132.425 359.788L106.103 333.466L102.699 336.869L129.021 363.191L132.425 359.788Z" fill="white"/>
<path fill-rule="evenodd" clip-rule="evenodd" d="M58.7757 364.999L85.0978 338.677L78.0786 331.658L51.7565 357.98L58.7757 364.999Z" fill="white"/>
<path d="M85.098 357.98L58.7759 331.658L51.7566 338.677L78.0788 364.999L85.098 357.98Z" fill="white"/>
<path fill-rule="evenodd" clip-rule="evenodd" d="M7.83355 363.191L34.1557 336.869L30.752 333.466L4.42983 359.788L7.83355 363.191Z" fill="white"/>
<path d="M34.1556 359.788L7.8335 333.466L4.42978 336.869L30.7519 363.191L34.1556 359.788Z" fill="white"/>
<path d="M149.148 200.938L142.129 193.919L135.11 200.938L142.129 207.957L149.148 200.938Z" fill="white"/>
<path d="M100.014 200.913L92.9946 193.894L85.9754 200.913L92.9946 207.932L100.014 200.913Z" fill="white"/>
<path d="M50.8791 200.938L43.8599 193.919L36.8406 200.938L43.8599 207.957L50.8791 200.938Z" fill="white"/>
<path d="M296.552 200.913L289.533 193.894L282.513 200.913L289.533 207.932L296.552 200.913Z" fill="white"/>
<path d="M247.418 200.887L240.398 193.868L233.379 200.887L240.398 207.907L247.418 200.887Z" fill="white"/>
<path d="M198.283 200.913L191.264 193.894L184.244 200.913L191.264 207.932L198.283 200.913Z" fill="white"/>
<path d="M443.956 200.913L436.937 193.894L429.918 200.913L436.937 207.932L443.956 200.913Z" fill="white"/>
<path d="M394.821 200.887L387.802 193.868L380.783 200.887L387.802 207.907L394.821 200.887Z" fill="white"/>
<path d="M345.687 200.913L338.667 193.894L331.648 200.913L338.667 207.932L345.687 200.913Z" fill="white"/>
<path d="M493.085 200.913L486.065 193.894L479.046 200.913L486.065 207.932L493.085 200.913Z" fill="white"/>
<path d="M161.432 237.789L154.413 230.77L147.393 237.789L154.413 244.808L161.432 237.789Z" fill="white"/>
<path d="M112.298 237.764L105.278 230.745L98.2591 237.764L105.278 244.783L112.298 237.764Z" fill="white"/>
<path d="M63.1628 237.789L56.1436 230.77L49.1243 237.789L56.1436 244.808L63.1628 237.789Z" fill="white"/>
<path d="M308.836 237.764L301.816 230.745L294.797 237.764L301.816 244.783L308.836 237.764Z" fill="white"/>
<path d="M259.701 237.738L252.682 230.719L245.663 237.738L252.682 244.758L259.701 237.738Z" fill="white"/>
<path d="M210.567 237.764L203.547 230.745L196.528 237.764L203.547 244.783L210.567 237.764Z" fill="white"/>
<path d="M456.24 237.764L449.221 230.745L442.201 237.764L449.221 244.783L456.24 237.764Z" fill="white"/>
<path d="M407.105 237.738L400.086 230.719L393.067 237.738L400.086 244.758L407.105 237.738Z" fill="white"/>
<path d="M357.97 237.764L350.951 230.745L343.932 237.764L350.951 244.783L357.97 237.764Z" fill="white"/>
<path d="M14.0388 237.789L7.01953 230.77L0.000304443 237.789L7.01953 244.808L14.0388 237.789Z" fill="white"/>
<path d="M149.148 274.639L142.129 267.62L135.11 274.639L142.129 281.658L149.148 274.639Z" fill="white"/>
<path d="M100.014 274.614L92.9946 267.594L85.9754 274.614L92.9946 281.633L100.014 274.614Z" fill="white"/>
<path d="M50.8791 274.639L43.8599 267.62L36.8406 274.639L43.8599 281.658L50.8791 274.639Z" fill="white"/>
<path d="M296.552 274.614L289.533 267.594L282.513 274.614L289.533 281.633L296.552 274.614Z" fill="white"/>
<path d="M247.418 274.588L240.398 267.569L233.379 274.588L240.398 281.608L247.418 274.588Z" fill="white"/>
<path d="M198.283 274.614L191.264 267.594L184.244 274.614L191.264 281.633L198.283 274.614Z" fill="white"/>
<path d="M443.956 274.614L436.937 267.594L429.918 274.614L436.937 281.633L443.956 274.614Z" fill="white"/>
<path d="M394.821 274.588L387.802 267.569L380.783 274.588L387.802 281.608L394.821 274.588Z" fill="white"/>
<path d="M345.687 274.614L338.667 267.594L331.648 274.614L338.667 281.633L345.687 274.614Z" fill="white"/>
<path d="M493.085 274.614L486.065 267.594L479.046 274.614L486.065 281.633L493.085 274.614Z" fill="white"/>
<path d="M161.432 311.49L154.413 304.471L147.393 311.49L154.413 318.509L161.432 311.49Z" fill="white"/>
<path d="M112.298 311.465L105.278 304.446L98.2591 311.465L105.278 318.484L112.298 311.465Z" fill="white"/>
<path d="M63.1628 311.49L56.1436 304.471L49.1243 311.49L56.1436 318.509L63.1628 311.49Z" fill="white"/>
<path d="M308.836 311.465L301.816 304.446L294.797 311.465L301.816 318.484L308.836 311.465Z" fill="white"/>
<path d="M259.701 311.439L252.682 304.42L245.663 311.439L252.682 318.459L259.701 311.439Z" fill="white"/>
<path d="M210.567 311.465L203.547 304.446L196.528 311.465L203.547 318.484L210.567 311.465Z" fill="white"/>
<path d="M456.24 311.465L449.221 304.446L442.201 311.465L449.221 318.484L456.24 311.465Z" fill="white"/>
<path d="M407.105 311.439L400.086 304.42L393.067 311.439L400.086 318.459L407.105 311.439Z" fill="white"/>
<path d="M357.97 311.465L350.951 304.446L343.932 311.465L350.951 318.484L357.97 311.465Z" fill="white"/>
<path d="M14.0388 311.49L7.01953 304.471L0.000289155 311.49L7.01953 318.509L14.0388 311.49Z" fill="white"/>
<path d="M149.148 127.236L142.129 120.217L135.11 127.236L142.129 134.256L149.148 127.236Z" fill="white"/>
<path d="M100.014 127.211L92.9946 120.192L85.9754 127.211L92.9946 134.23L100.014 127.211Z" fill="white"/>
<path d="M50.8791 127.236L43.8599 120.217L36.8406 127.236L43.8599 134.256L50.8791 127.236Z" fill="white"/>
<path d="M296.552 127.211L289.533 120.192L282.513 127.211L289.533 134.23L296.552 127.211Z" fill="white"/>
<path d="M247.418 127.185L240.398 120.166L233.379 127.185L240.398 134.205L247.418 127.185Z" fill="white"/>
<path d="M198.283 127.211L191.264 120.192L184.244 127.211L191.264 134.23L198.283 127.211Z" fill="white"/>
<path d="M443.956 127.211L436.937 120.192L429.918 127.211L436.937 134.23L443.956 127.211Z" fill="white"/>
<path d="M394.821 127.185L387.802 120.166L380.783 127.185L387.802 134.205L394.821 127.185Z" fill="white"/>
<path d="M345.687 127.211L338.667 120.192L331.648 127.211L338.667 134.23L345.687 127.211Z" fill="white"/>
<path d="M493.085 127.211L486.065 120.192L479.046 127.211L486.065 134.23L493.085 127.211Z" fill="white"/>
<path d="M161.432 164.087L154.413 157.068L147.393 164.087L154.413 171.107L161.432 164.087Z" fill="white"/>
<path d="M112.298 164.062L105.278 157.043L98.2591 164.062L105.278 171.081L112.298 164.062Z" fill="white"/>
<path d="M63.1628 164.087L56.1436 157.068L49.1243 164.087L56.1436 171.107L63.1628 164.087Z" fill="white"/>
<path d="M308.836 164.062L301.816 157.043L294.797 164.062L301.816 171.081L308.836 164.062Z" fill="white"/>
<path d="M259.701 164.037L252.682 157.017L245.663 164.037L252.682 171.056L259.701 164.037Z" fill="white"/>
<path d="M210.567 164.062L203.547 157.043L196.528 164.062L203.547 171.081L210.567 164.062Z" fill="white"/>
<path d="M456.24 164.062L449.221 157.043L442.201 164.062L449.221 171.081L456.24 164.062Z" fill="white"/>
<path d="M407.105 164.037L400.086 157.017L393.067 164.037L400.086 171.056L407.105 164.037Z" fill="white"/>
<path d="M357.97 164.062L350.951 157.043L343.932 164.062L350.951 171.081L357.97 164.062Z" fill="white"/>
<path d="M14.0388 164.087L7.01953 157.068L0.000304539 164.087L7.01953 171.107L14.0388 164.087Z" fill="white"/>
<path d="M149.148 53.5344L142.129 46.5151L135.11 53.5344L142.129 60.5536L149.148 53.5344Z" fill="white"/>
<path d="M100.014 53.509L92.9946 46.4897L85.9754 53.509L92.9946 60.5282L100.014 53.509Z" fill="white"/>
<path d="M50.8791 53.5344L43.8599 46.5151L36.8406 53.5344L43.8599 60.5536L50.8791 53.5344Z" fill="white"/>
<path d="M296.552 53.509L289.533 46.4897L282.513 53.509L289.533 60.5282L296.552 53.509Z" fill="white"/>
<path d="M247.418 53.4836L240.398 46.4644L233.379 53.4836L240.398 60.5028L247.418 53.4836Z" fill="white"/>
<path d="M198.283 53.509L191.264 46.4897L184.244 53.509L191.264 60.5282L198.283 53.509Z" fill="white"/>
<path d="M443.956 53.509L436.937 46.4897L429.918 53.509L436.937 60.5282L443.956 53.509Z" fill="white"/>
<path d="M394.821 53.4836L387.802 46.4644L380.783 53.4836L387.802 60.5028L394.821 53.4836Z" fill="white"/>
<path d="M345.687 53.509L338.667 46.4897L331.648 53.509L338.667 60.5282L345.687 53.509Z" fill="white"/>
<path d="M493.085 53.509L486.065 46.4897L479.046 53.509L486.065 60.5282L493.085 53.509Z" fill="white"/>
<path d="M161.432 90.3852L154.413 83.366L147.393 90.3852L154.413 97.4044L161.432 90.3852Z" fill="white"/>
<path d="M112.298 90.3598L105.278 83.3406L98.2591 90.3598L105.278 97.379L112.298 90.3598Z" fill="white"/>
<path d="M63.1628 90.3852L56.1436 83.366L49.1243 90.3852L56.1436 97.4044L63.1628 90.3852Z" fill="white"/>
<path d="M308.836 90.3598L301.816 83.3406L294.797 90.3598L301.816 97.379L308.836 90.3598Z" fill="white"/>
<path d="M259.701 90.3344L252.682 83.3152L245.663 90.3344L252.682 97.3536L259.701 90.3344Z" fill="white"/>
<path d="M210.567 90.3598L203.547 83.3406L196.528 90.3598L203.547 97.379L210.567 90.3598Z" fill="white"/>
<path d="M456.24 90.3598L449.221 83.3406L442.201 90.3598L449.221 97.379L456.24 90.3598Z" fill="white"/>
<path d="M407.105 90.3344L400.086 83.3152L393.067 90.3344L400.086 97.3537L407.105 90.3344Z" fill="white"/>
<path d="M357.97 90.3598L350.951 83.3406L343.932 90.3598L350.951 97.379L357.97 90.3598Z" fill="white"/>
<path d="M14.0388 90.3852L7.01953 83.366L0.000304265 90.3852L7.01953 97.4044L14.0388 90.3852Z" fill="white"/>
<path d="M161.432 16.7087L154.413 9.68945L147.393 16.7087L154.413 23.7279L161.432 16.7087Z" fill="white"/>
<path d="M112.298 16.6833L105.278 9.66406L98.2591 16.6833L105.278 23.7025L112.298 16.6833Z" fill="white"/>
<path d="M63.1628 16.7087L56.1436 9.68945L49.1243 16.7087L56.1436 23.7279L63.1628 16.7087Z" fill="white"/>
<path d="M308.836 16.6833L301.816 9.66406L294.797 16.6833L301.816 23.7025L308.836 16.6833Z" fill="white"/>
<path d="M259.701 16.6579L252.682 9.63867L245.663 16.6579L252.682 23.6771L259.701 16.6579Z" fill="white"/>
<path d="M210.567 16.6833L203.547 9.66406L196.528 16.6833L203.547 23.7025L210.567 16.6833Z" fill="white"/>
<path d="M456.24 16.6833L449.221 9.66406L442.201 16.6833L449.221 23.7025L456.24 16.6833Z" fill="white"/>
<path d="M407.105 16.6579L400.086 9.63867L393.067 16.6579L400.086 23.6771L407.105 16.6579Z" fill="white"/>
<path d="M357.97 16.6833L350.951 9.66406L343.932 16.6833L350.951 23.7025L357.97 16.6833Z" fill="white"/>
<path d="M14.0388 16.7087L7.01953 9.68945L0.000304526 16.7087L7.01953 23.7279L14.0388 16.7087Z" fill="white"/>
<path d="M149.148 348.341L142.129 341.322L135.11 348.341L142.129 355.36L149.148 348.341Z" fill="white"/>
<path d="M100.014 348.316L92.9946 341.296L85.9754 348.316L92.9946 355.335L100.014 348.316Z" fill="white"/>
<path d="M50.8791 348.341L43.8599 341.322L36.8406 348.341L43.8599 355.36L50.8791 348.341Z" fill="white"/>
<path d="M296.552 348.316L289.533 341.296L282.513 348.316L289.533 355.335L296.552 348.316Z" fill="white"/>
<path d="M247.418 348.29L240.398 341.271L233.379 348.29L240.398 355.309L247.418 348.29Z" fill="white"/>
<path d="M198.283 348.316L191.264 341.296L184.244 348.316L191.264 355.335L198.283 348.316Z" fill="white"/>
<path d="M443.956 348.316L436.937 341.296L429.918 348.316L436.937 355.335L443.956 348.316Z" fill="white"/>
<path d="M394.821 348.29L387.802 341.271L380.783 348.29L387.802 355.309L394.821 348.29Z" fill="white"/>
<path d="M345.687 348.316L338.667 341.296L331.648 348.316L338.667 355.335L345.687 348.316Z" fill="white"/>
<path d="M493.085 348.316L486.065 341.296L479.046 348.316L486.065 355.335L493.085 348.316Z" fill="white"/>
</g>
<defs>
<clipPath id="clip0_1783:17981">
<rect width="365" height="493.084" fill="white" transform="translate(493.084) rotate(90)"/>
</clipPath>
</defs>
</svg>
