<svg width="20" height="20" viewBox="0 0 20 20" fill="none" xmlns="http://www.w3.org/2000/svg">
<path fill-rule="evenodd" clip-rule="evenodd" d="M7.5547 7.83207C7.8329 7.64661 8 7.33437 8 7.00002V3.00001C8 1.34315 6.65685 0 5 0H1C0.447715 0 0 0.447717 0 1C0 10.9412 9.05887 20.0001 19 20.0001C19.5523 20.0001 20 19.5523 20 19.0001V15C20 13.3432 18.6569 12 17 12H13C12.6656 12 12.3534 12.1671 12.1679 12.4453L10.2626 15.3034C8.18739 13.9615 6.36925 12.1892 4.97074 10.149L4.69668 9.73742L7.5547 7.83207ZM13.5351 14H16.9999C17.5522 14 17.9999 14.4477 17.9999 15V17.9653C16.0627 17.8313 14.172 17.3132 12.4086 16.4916L12.004 16.2966L13.5351 14ZM2.03442 2H4.99975C5.55204 2 5.99975 2.44772 5.99975 3V6.46483L3.70313 7.99591C2.76858 6.11846 2.17878 4.08627 2.03442 2Z" fill="#656565"/>
</svg>
