<svg width="40" height="40" viewBox="0 0 40 40" fill="none" xmlns="http://www.w3.org/2000/svg">
<path fill-rule="evenodd" clip-rule="evenodd" d="M4.2133 4.38872C4.2133 4.04246 4.50612 3.76176 4.86734 3.76176H27.1047C27.466 3.76176 27.7587 4.04246 27.7587 4.38872V23.7905C27.7587 24.8293 28.6372 25.6715 29.7208 25.6715C30.8044 25.6715 31.6829 24.8293 31.6829 23.7905V4.38872C31.6829 1.9649 29.6332 0 27.1047 0H4.86734C2.33882 0 0.289062 1.9649 0.289062 4.38872V33.2289C0.289062 35.6527 2.33882 37.6176 4.86734 37.6176H13.1627C14.2464 37.6176 15.1248 36.7754 15.1248 35.7367C15.1248 34.6979 14.2464 33.8558 13.1627 33.8558H4.86734C4.50612 33.8558 4.2133 33.5752 4.2133 33.2289V4.38872ZM10.0996 10.0314C9.01601 10.0314 8.13753 10.8735 8.13753 11.9122C8.13753 12.951 9.01601 13.7931 10.0996 13.7931H21.8724C22.956 13.7931 23.8345 12.951 23.8345 11.9122C23.8345 10.8735 22.956 10.0314 21.8724 10.0314H10.0996ZM8.13753 19.4357C8.13753 18.397 9.01601 17.5549 10.0996 17.5549H15.332C16.4156 17.5549 17.2941 18.397 17.2941 19.4357C17.2941 20.4745 16.4156 21.3166 15.332 21.3166H10.0996C9.01601 21.3166 8.13753 20.4745 8.13753 19.4357ZM38.9402 28.305C39.7153 27.5792 39.7302 26.3882 38.9731 25.6452C38.216 24.902 36.9736 24.8878 36.1984 25.6136L25.6666 35.4726L21.9542 31.9012C21.1892 31.1654 19.9469 31.1634 19.1793 31.8964C18.4117 32.6297 18.4095 33.8207 19.1744 34.5565L24.2578 39.4468C25.0172 40.1773 26.2489 40.1853 27.0186 39.4648L38.9402 28.305Z" fill="white"/>
</svg>
