<svg width="44" height="75" viewBox="0 0 44 75" fill="none" xmlns="http://www.w3.org/2000/svg">
<mask id="mask0_1756:56789" style="mask-type:alpha" maskUnits="userSpaceOnUse" x="3" y="0" width="41" height="75">
<rect x="3" width="41" height="75" fill="white"/>
</mask>
<g mask="url(#mask0_1756:56789)">
<path fill-rule="evenodd" clip-rule="evenodd" d="M2.92924 8.20823e-07C3.70274 -0.000475771 4.46088 0.206598 5.11792 0.59779C5.77497 0.988982 6.30463 1.54867 6.64702 2.21351L17.0435 22.4157L40.3003 25.6565C41.0654 25.763 41.7841 26.0725 42.3746 26.55C42.9657 27.0274 43.406 27.6539 43.6447 28.3584C43.8839 29.0631 43.9126 29.8177 43.7275 30.5371C43.543 31.2565 43.1519 31.912 42.5984 32.4294L25.7717 48.157L29.7436 70.3556C29.8745 71.0858 29.79 71.8367 29.4989 72.5235C29.2077 73.2104 28.7222 73.805 28.0968 74.2408C27.4715 74.6767 26.7313 74.9361 25.9601 74.9896C25.1889 75.0431 24.4177 74.889 23.7333 74.5443L2.92924 64.0593L-17.8748 74.5443C-18.5588 74.8885 -19.3295 75.0426 -20.1 74.9891C-20.8705 74.9356 -21.6101 74.6767 -22.2352 74.2419C-22.8603 73.8066 -23.3461 73.2125 -23.6376 72.5267C-23.9291 71.8409 -24.0149 71.0911 -23.8852 70.3609L-19.9077 48.1517L-36.7455 32.4294C-37.3003 31.9122 -37.6929 31.2563 -37.8787 30.5361C-38.0646 29.816 -38.0363 29.0603 -37.7971 28.3547C-37.5579 27.6492 -37.1173 27.0219 -36.5253 26.5441C-35.9332 26.0663 -35.2134 25.757 -34.4474 25.6512L-11.1906 22.4157L-0.788535 2.21351C-0.446145 1.54867 0.0835683 0.988982 0.740615 0.59779C1.39766 0.206598 2.1558 -0.000475771 2.92924 8.20823e-07ZM2.92924 12.9474L-4.72176 27.8012C-5.01885 28.3779 -5.45763 28.8768 -6.00033 29.255C-6.54308 29.6332 -7.1735 29.8793 -7.8374 29.9723L-24.9458 32.3553L-12.5716 43.9206C-12.0902 44.37 -11.73 44.9249 -11.5221 45.5375C-11.3142 46.15 -11.2649 46.8019 -11.3784 47.4368L-14.2952 63.768L1.0013 56.0578C1.59587 55.7581 2.25756 55.6019 2.92924 55.6019C3.60098 55.6019 4.26262 55.7581 4.85719 56.0578L20.1591 63.768L17.2313 47.4368C17.1181 46.8019 17.1672 46.15 17.3749 45.5375C17.5832 44.9249 17.9434 44.37 18.4245 43.9206L30.7987 32.3606L13.6959 29.9776C13.032 29.8846 12.4016 29.6385 11.8589 29.2603C11.3161 28.8821 10.8774 28.3832 10.5802 27.8065L2.92924 12.9421V12.9474Z" fill="#5761B2"/>
</g>
</svg>
