<svg width="88" height="40" viewBox="0 0 88 40" fill="none" xmlns="http://www.w3.org/2000/svg">
<path fill-rule="evenodd" clip-rule="evenodd" d="M43.7362 4.37772e-07C44.1487 -0.000253745 44.553 0.110186 44.9035 0.318821C45.2539 0.527457 45.5364 0.825957 45.719 1.18054L51.2638 11.955L63.6674 13.6835C64.0754 13.7403 64.4587 13.9053 64.7737 14.16C65.0889 14.4146 65.3238 14.7487 65.451 15.1245C65.5786 15.5003 65.5939 15.9028 65.4952 16.2865C65.3968 16.6701 65.1882 17.0197 64.893 17.2957L55.9188 25.6837L58.0371 37.523C58.107 37.9124 58.0619 38.3129 57.9066 38.6792C57.7514 39.0455 57.4924 39.3627 57.1589 39.5951C56.8254 39.8276 56.4306 39.9659 56.0193 39.9945C55.608 40.023 55.1967 39.9408 54.8316 39.7569L43.7362 34.1649L32.6406 39.7569C32.2759 39.9405 31.8648 40.0227 31.4539 39.9942C31.043 39.9657 30.6485 39.8276 30.3151 39.5957C29.9818 39.3635 29.7227 39.0466 29.5672 38.6809C29.4117 38.3152 29.3659 37.9153 29.4351 37.5258L31.5564 25.6809L22.5763 17.2957C22.2804 17.0198 22.071 16.67 21.9719 16.2859C21.8728 15.9018 21.8878 15.4988 22.0154 15.1225C22.143 14.7462 22.378 14.4117 22.6937 14.1569C23.0095 13.902 23.3934 13.7371 23.8019 13.6807L36.2056 11.955L41.7533 1.18054C41.9359 0.825957 42.2185 0.527457 42.5689 0.318821C42.9193 0.110186 43.3237 -0.000253745 43.7362 4.37772e-07ZM43.7362 6.90529L39.6556 14.8273C39.4972 15.1349 39.2632 15.4009 38.9737 15.6026C38.6842 15.8044 38.348 15.9357 37.9939 15.9852L28.8695 17.2562L35.469 23.4243C35.7258 23.664 35.9179 23.9599 36.0288 24.2866C36.1396 24.6134 36.166 24.961 36.1054 25.2996L34.5498 34.0096L42.7079 29.8975C43.025 29.7376 43.3779 29.6543 43.7362 29.6543C44.0944 29.6543 44.4473 29.7376 44.7644 29.8975L52.9254 34.0096L51.3639 25.2996C51.3035 24.961 51.3297 24.6134 51.4405 24.2866C51.5516 23.9599 51.7437 23.664 52.0003 23.4243L58.5999 17.259L49.4784 15.9881C49.1243 15.9385 48.7881 15.8072 48.4986 15.6055C48.2092 15.4038 47.9752 15.1377 47.8167 14.8301L43.7362 6.90246V6.90529Z" fill="white"/>
<path fill-rule="evenodd" clip-rule="evenodd" d="M10.9145 20C11.1207 19.9999 11.3229 20.0551 11.4981 20.1594C11.6733 20.2637 11.8146 20.413 11.9059 20.5903L14.6783 25.9775L20.8801 26.8417C21.0841 26.8701 21.2758 26.9527 21.4332 27.08C21.5909 27.2073 21.7083 27.3744 21.7719 27.5623C21.8357 27.7501 21.8434 27.9514 21.794 28.1432C21.7448 28.3351 21.6405 28.5099 21.4929 28.6478L17.0058 32.8419L18.065 38.7615C18.0999 38.9562 18.0773 39.1565 17.9997 39.3396C17.9221 39.5228 17.7926 39.6813 17.6258 39.7976C17.4591 39.9138 17.2617 39.983 17.056 39.9972C16.8504 40.0115 16.6447 39.9704 16.4622 39.8785L10.9145 37.0825L5.36671 39.8785C5.18432 39.9703 4.97879 40.0114 4.77332 39.9971C4.56787 39.9828 4.37065 39.9138 4.20395 39.7978C4.03726 39.6818 3.90772 39.5233 3.82998 39.3405C3.75223 39.1576 3.72935 38.9576 3.76396 38.7629L4.8246 32.8404L0.334545 28.6478C0.186594 28.5099 0.0819039 28.335 0.032338 28.143C-0.0172295 27.9509 -0.00969005 27.7494 0.0540988 27.5613C0.117889 27.3731 0.235379 27.2058 0.393257 27.0784C0.551134 26.951 0.743081 26.8685 0.947358 26.8403L7.14918 25.9775L9.92306 20.5903C10.0144 20.413 10.1556 20.2637 10.3308 20.1594C10.506 20.0551 10.7082 19.9999 10.9145 20ZM10.9145 23.4526L8.8742 27.4137C8.79497 27.5674 8.67796 27.7005 8.53325 27.8013C8.38851 27.9022 8.2204 27.9678 8.04336 27.9926L3.48112 28.6281L6.7809 31.7122C6.90928 31.832 7.00534 31.98 7.06078 32.1433C7.11621 32.3067 7.12936 32.4805 7.09909 32.6498L6.32129 37.0048L10.4003 34.9487C10.5589 34.8688 10.7353 34.8272 10.9145 34.8272C11.0936 34.8272 11.27 34.8688 11.4286 34.9487L15.5091 37.0048L14.7283 32.6498C14.6981 32.4805 14.7113 32.3067 14.7666 32.1433C14.8222 31.98 14.9182 31.832 15.0465 31.7122L18.3463 28.6295L13.7856 27.994C13.6085 27.9692 13.4404 27.9036 13.2957 27.8027C13.151 27.7019 13.034 27.5688 12.9547 27.4151L10.9145 23.4512V23.4526Z" fill="white"/>
<path fill-rule="evenodd" clip-rule="evenodd" d="M76.6352 20C76.8414 19.9999 77.0436 20.0551 77.2188 20.1594C77.394 20.2637 77.5353 20.413 77.6266 20.5903L80.399 25.9775L86.6008 26.8417C86.8048 26.8701 86.9965 26.9527 87.1539 27.08C87.3116 27.2073 87.429 27.3744 87.4926 27.5623C87.5564 27.7501 87.5641 27.9514 87.5147 28.1432C87.4655 28.3351 87.3612 28.5099 87.2136 28.6478L82.7265 32.8419L83.7857 38.7615C83.8206 38.9562 83.798 39.1565 83.7204 39.3396C83.6428 39.5228 83.5133 39.6813 83.3465 39.7976C83.1798 39.9138 82.9824 39.983 82.7767 39.9972C82.5711 40.0115 82.3654 39.9704 82.1829 39.8785L76.6352 37.0825L71.0874 39.8785C70.905 39.9703 70.6995 40.0114 70.494 39.9971C70.2886 39.9828 70.0913 39.9138 69.9247 39.7978C69.758 39.6818 69.6284 39.5233 69.5507 39.3405C69.4729 39.1576 69.4501 38.9576 69.4847 38.7629L70.5453 32.8404L66.0552 28.6478C65.9073 28.5099 65.8026 28.335 65.753 28.143C65.7035 27.9509 65.711 27.7494 65.7748 27.5613C65.8386 27.3731 65.9561 27.2058 66.114 27.0784C66.2718 26.951 66.4638 26.8685 66.6681 26.8403L72.8699 25.9775L75.6438 20.5903C75.7351 20.413 75.8763 20.2637 76.0515 20.1594C76.2267 20.0551 76.4289 19.9999 76.6352 20ZM76.6352 23.4526L74.5949 27.4137C74.5157 27.5674 74.3987 27.7005 74.2539 27.8013C74.1092 27.9022 73.9411 27.9678 73.7641 27.9926L69.2018 28.6281L72.5016 31.7122C72.63 31.832 72.726 31.98 72.7815 32.1433C72.8369 32.3067 72.8501 32.4805 72.8198 32.6498L72.042 37.0048L76.121 34.9487C76.2796 34.8688 76.456 34.8272 76.6352 34.8272C76.8143 34.8272 76.9907 34.8688 77.1493 34.9487L81.2298 37.0048L80.449 32.6498C80.4189 32.4805 80.432 32.3067 80.4874 32.1433C80.5429 31.98 80.6389 31.832 80.7672 31.7122L84.067 28.6295L79.5063 27.994C79.3292 27.9692 79.1611 27.9036 79.0164 27.8027C78.8717 27.7019 78.7547 27.5688 78.6754 27.4151L76.6352 23.4512V23.4526Z" fill="white"/>
</svg>
