<svg width="40" height="26" viewBox="0 0 40 26" fill="none" xmlns="http://www.w3.org/2000/svg">
<path fill-rule="evenodd" clip-rule="evenodd" d="M11.5346 0.566885C12.2905 -0.188962 13.516 -0.188962 14.2718 0.566885C15.0277 1.32273 15.0277 2.54823 14.2718 3.30408L4.67268 12.9032L14.2718 22.5025C15.0277 23.2584 15.0277 24.4836 14.2718 25.2395C13.516 25.9954 12.2905 25.9954 11.5346 25.2395L0.566891 14.2718C-0.188964 13.516 -0.188964 12.2905 0.566891 11.5346L11.5346 0.566885ZM28.4653 0.566885C27.7095 -0.188962 26.4842 -0.188962 25.7283 0.566885C24.9724 1.32273 24.9724 2.54823 25.7283 3.30408L35.3273 12.9032L25.7283 22.5025C24.9724 23.2584 24.9724 24.4836 25.7283 25.2395C26.4842 25.9954 27.7095 25.9954 28.4653 25.2395L39.4331 14.2718C40.189 13.516 40.189 12.2905 39.4331 11.5346L28.4653 0.566885Z" fill="#5761B2"/>
</svg>
