<svg width="42" height="75" viewBox="0 0 42 75" fill="none" xmlns="http://www.w3.org/2000/svg">
<mask id="mask0_1756:56816" style="mask-type:alpha" maskUnits="userSpaceOnUse" x="3" y="0" width="39" height="75">
<rect x="3" width="39" height="75" fill="white"/>
</mask>
<g mask="url(#mask0_1756:56816)">
<path fill-rule="evenodd" clip-rule="evenodd" d="M-27.8331 37.5C-27.8331 29.4192 -24.5611 21.6693 -18.7368 15.9554C-12.9126 10.2413 -5.01324 7.03125 3.2235 7.03125C11.4602 7.03125 19.3595 10.2413 25.1838 15.9554C31.0082 21.6693 34.2801 29.4192 34.2801 37.5C34.2801 45.5808 31.0082 53.3306 25.1838 59.0447C19.3595 64.7587 11.4602 67.9688 3.2235 67.9688C-5.01324 67.9688 -12.9126 64.7587 -18.7368 59.0447C-24.5611 53.3306 -27.8331 45.5808 -27.8331 37.5ZM3.2235 0C-6.914 0 -16.6363 3.95088 -23.8046 10.9835C-30.9729 18.0161 -35 27.5544 -35 37.5C-35 47.4455 -30.9729 56.9841 -23.8046 64.0167C-16.6363 71.0489 -6.914 75 3.2235 75C13.3608 75 23.0835 71.0489 30.2518 64.0167C37.4197 56.9841 41.447 47.4455 41.447 37.5C41.447 27.5544 37.4197 18.0161 30.2518 10.9835C23.0835 3.95088 13.3608 0 3.2235 0ZM5.61246 22.2656C5.61246 21.3332 5.23491 20.439 4.56289 19.7797C3.89088 19.1204 2.97939 18.75 2.02901 18.75C1.07863 18.75 0.167144 19.1204 -0.504873 19.7797C-1.17689 20.439 -1.55444 21.3332 -1.55444 22.2656V38.6719C-1.5543 39.374 -1.33982 40.0599 -0.938757 40.6414C-0.537649 41.2229 0.0316912 41.6732 0.695968 41.9344L12.6408 46.6219C13.5156 46.9355 14.4808 46.9022 15.3313 46.5297C16.1817 46.1571 16.8511 45.4741 17.197 44.6257C17.543 43.7772 17.5387 42.8299 17.1851 41.9845C16.8315 41.1391 16.1559 40.4621 15.3021 40.0969L5.61246 36.2906V22.2656Z" fill="#5761B2"/>
</g>
</svg>
