<svg width="266" height="75" viewBox="0 0 266 75" fill="none" xmlns="http://www.w3.org/2000/svg">
<path d="M36.8285 74.6015C34.3768 73.9123 34.3417 73.8736 34.829 72.4011C35.0594 71.7052 35.3381 71.0357 35.4483 70.9132C35.5586 70.7908 36.2313 71.0007 36.9431 71.3796C38.5528 72.2365 40.7166 72.3344 41.3982 71.5812C41.968 70.9517 41.9529 69.6914 41.367 68.97C41.1137 68.6581 39.7965 67.8361 38.4398 67.1433C35.82 65.8054 35.1433 65.1288 34.671 63.3746C34.061 61.1093 35.2761 59.0517 37.6382 58.3503C39.3421 57.8443 39.8301 57.8445 42.0532 58.3519C44.6438 58.9433 44.6541 58.9544 44.1148 60.5781C43.8657 61.3282 43.6068 61.9419 43.5394 61.9419C43.4721 61.9419 42.9469 61.702 42.3723 61.4089C40.4181 60.412 37.8419 60.9172 37.8419 62.2974C37.8419 63.3429 38.6393 64.0773 40.9166 65.1295C43.3657 66.2609 43.9573 66.7201 44.6036 67.9914C45.1759 69.1171 45.1593 71.4231 44.5704 72.6002C43.5956 74.5485 39.972 75.4853 36.8285 74.6015ZM51.1023 74.6208C49.633 74.0964 48.8368 73.5015 48.3073 72.5324C47.8913 71.7713 47.8353 70.8786 47.8353 65.0065V58.3442H49.3011H50.7668L50.9 64.4736C51.038 70.8192 51.1746 71.5996 52.2045 71.9265C53.9468 72.4795 56.028 71.964 57.2238 70.6833C57.7961 70.0705 57.8208 69.8301 57.8901 64.1956L57.9621 58.3442H59.4278H60.8935V66.4723V74.6003L59.3611 74.6802L57.8288 74.7601V73.9473C57.8288 73.0015 57.667 72.9473 56.9133 73.6407C56.2227 74.276 54.0857 75.0037 52.956 74.9883C52.4848 74.9819 51.6506 74.8165 51.1023 74.6208ZM78.1365 74.4329C76.4519 73.599 75.6046 72.3457 75.4703 70.4893C75.3382 68.6636 75.9357 67.2747 77.4102 65.9801C78.935 64.6413 80.0732 64.2641 82.6785 64.234C84.8231 64.2092 85.0096 64.1644 85.0093 63.6741C85.0088 62.7078 84.0359 61.4802 82.9996 61.1382C81.7877 60.7383 79.9256 60.9612 78.568 61.6688L77.5684 62.1899L76.9055 61.0782C76.1292 59.7765 76.2467 59.5244 77.9895 58.7535C79.7702 57.9658 81.9414 57.81 83.9535 58.3255C85.8465 58.8105 86.648 59.4175 87.4967 61.0092C88.0003 61.9537 88.0809 62.6422 88.2036 67.0509C88.3324 71.6768 88.3843 72.0835 88.9418 72.8363C89.6408 73.7802 89.719 74.6821 89.1216 74.9113C88.4437 75.1715 86.5226 74.4876 85.9258 73.7737L85.3748 73.1146L84.646 73.6878C82.96 75.014 79.996 75.3533 78.1365 74.4329ZM83.7596 71.5415L85.011 70.7479V68.7151V66.6823L82.8817 66.779C80.8486 66.8713 80.7091 66.9189 79.7973 67.8307C78.4818 69.1462 78.2582 70.6698 79.2369 71.6486C80.2416 72.6533 82.075 72.6098 83.7596 71.5415ZM113.102 74.5316C109.581 73.268 107.632 69.8976 108.02 65.7456C108.221 63.5875 108.871 62.1521 110.424 60.4335C111.764 58.9509 113.091 58.3294 115.529 58.0429C117.084 57.8601 119.838 58.5249 120.862 59.3306L121.509 59.8393L120.813 60.8906C120.43 61.4688 120.068 61.9419 120.009 61.9419C119.949 61.9419 119.43 61.702 118.856 61.4089C117.591 60.764 115.178 60.6968 114.059 61.2754C112.257 62.2074 111.258 64.5145 111.457 67.2879C111.606 69.3718 112.203 70.5852 113.513 71.4681C114.716 72.2787 117.474 72.3131 118.925 71.5356C119.472 71.2425 120.037 71.0026 120.182 71.0026C120.448 71.0026 121.52 72.9 121.52 73.3713C121.52 73.8521 118.518 74.7558 116.483 74.8876C114.938 74.9876 114.137 74.9032 113.102 74.5316ZM128.495 74.6218C126.161 73.8584 124.634 72.4063 123.847 70.2031C122.237 65.6974 123.837 60.7604 127.517 58.8772C128.831 58.2048 129.381 58.0794 130.977 58.0881C132.133 58.0944 133.362 58.2846 134.121 58.5747C136.439 59.4597 138.309 62.3439 138.309 65.0322C138.309 67.1178 138.653 67.0052 132.285 67.0052H126.584V67.7483C126.584 68.8708 127.67 70.79 128.689 71.4668C129.924 72.2876 132.956 72.3245 134.252 71.5346C134.732 71.242 135.239 71.0026 135.379 71.0026C135.519 71.0026 135.884 71.4932 136.19 72.0928C136.725 73.1417 136.728 73.1969 136.262 73.5481C134.742 74.6941 130.507 75.2797 128.495 74.6218ZM134.989 63.874C134.527 61.9953 133.032 60.8785 130.977 60.8769C128.803 60.8753 127.341 61.9524 126.727 64.0072L126.548 64.6068H130.859H135.169L134.989 63.874ZM152.167 74.8285C150.151 74.1757 149.502 73.8409 149.502 73.4545C149.502 72.789 150.342 70.7361 150.615 70.7361C150.747 70.7361 151.304 70.9646 151.851 71.2437C155.009 72.8552 158.184 71.823 158.484 69.0872C158.688 67.2224 157.896 66.3363 154.568 64.7057C152.634 63.7578 151.48 63.0027 150.806 62.2425C148.099 59.1929 149.081 54.1967 152.693 52.6433C154.792 51.7401 159.577 51.9883 160.454 53.0458C160.819 53.4854 160.284 55.7825 159.771 55.9794C159.601 56.0445 158.93 55.8563 158.28 55.5613C157.578 55.2431 156.519 55.0224 155.678 55.0189C154.46 55.0139 154.147 55.1238 153.479 55.7921C152.826 56.4453 152.7 56.7861 152.7 57.9036C152.7 59.7795 153.531 60.6781 156.588 62.1064C159.476 63.4559 160.601 64.3443 161.26 65.795C161.853 67.1009 161.926 70.0913 161.396 71.3605C160.885 72.5829 158.966 74.1394 157.394 74.6063C156.14 74.9784 153.037 75.1103 152.167 74.8285ZM168.957 74.573C166.79 73.7829 165.599 72.7508 164.664 70.8534C163.894 69.2879 163.807 68.8719 163.813 66.7914C163.822 64.1426 164.259 62.6934 165.563 60.9901C167.737 58.1502 171.551 57.2357 174.977 58.7332C177.339 59.7659 178.894 62.4189 178.763 65.1923L178.683 66.872L172.887 66.9438L167.091 67.0156V67.7534C167.091 68.8714 168.179 70.7913 169.195 71.4668C170.444 72.2966 173.463 72.3246 174.785 71.5187C175.279 71.2173 175.843 71.0317 176.037 71.1062C176.514 71.2894 177.289 72.8309 177.122 73.2658C176.898 73.8486 174.003 74.7734 172.021 74.8951C170.712 74.9754 169.798 74.8792 168.957 74.573ZM175.618 64.0606C175.618 62.2911 173.863 60.8785 171.661 60.8769C169.332 60.8753 167.872 61.9082 167.236 64.0072L167.055 64.6068H171.337C175.475 64.6068 175.618 64.5886 175.618 64.0606ZM198.02 74.4004C197.36 72.7345 193.657 63.8742 192.65 61.5544L191.499 58.9018L191.007 60.0295L190.515 61.1572L189.2 60.9827C187.505 60.7579 186.457 61.1919 185.681 62.4396C185.119 63.3428 185.07 63.7823 184.946 69.0039L184.812 74.6003L183.28 74.6802L181.748 74.7601V66.4856V58.211H183.027C184.465 58.211 184.942 58.5375 184.954 59.5301C184.961 60.122 184.997 60.1493 185.234 59.7415C185.666 59.0007 187.611 58.1453 188.933 58.1148C189.598 58.0994 191.166 58.1148 192.418 58.1489L194.694 58.211L196.186 62.0085C197.007 64.0971 197.891 66.4056 198.152 67.1385C198.412 67.8713 198.705 68.5649 198.803 68.6797C198.953 68.8562 200.978 64.0375 202.67 59.4768L203.139 58.211H204.731C206.677 58.211 206.717 57.8445 204.109 63.8491C203.069 66.2445 201.554 69.7335 200.744 71.6022C199.597 74.2467 199.158 75 198.764 75C198.485 75 198.15 74.7302 198.02 74.4004ZM221.322 74.6272C217.451 73.4029 215.669 70.599 215.913 66.1157C216.108 62.535 217.516 60.2059 220.315 58.8366C222.417 57.8081 225.431 57.7986 227.651 58.8135C228.494 59.1988 229.183 59.6593 229.183 59.8368C229.183 60.0142 228.878 60.56 228.504 61.0496L227.825 61.9397L226.729 61.3802C225.275 60.6386 222.383 60.7432 221.265 61.5779C218.601 63.567 218.451 69.391 221.015 71.3007C222.236 72.2097 225.197 72.3454 226.732 71.5626C227.336 71.2546 227.93 71.0026 228.054 71.0026C228.177 71.0026 228.539 71.5409 228.859 72.1989L229.44 73.3952L228.446 73.8983C226.377 74.9449 223.316 75.2581 221.322 74.6272ZM236.734 74.7611C235.64 74.4789 233.737 73.3558 233.005 72.5603C230.876 70.2451 230.301 65.6259 231.76 62.5511C232.429 61.1405 234.756 58.8841 235.982 58.4569C236.566 58.253 237.944 58.0929 239.043 58.1009C241.588 58.1196 243.225 58.8516 244.523 60.5514C245.637 62.0115 246.024 63.3395 245.919 65.3498L245.839 66.872L240.043 66.9438L234.247 67.0156V67.703C234.247 69.1352 235.766 71.3139 237.126 71.8324C238.36 72.3026 240.819 72.1694 241.969 71.5701C242.567 71.258 243.151 71.0026 243.266 71.0026C243.382 71.0026 243.736 71.4654 244.054 72.031C244.6 73.0035 244.607 73.0816 244.169 73.4689C243.002 74.5034 238.66 75.258 236.734 74.7611ZM242.774 64.0606C242.774 62.2961 241.018 60.8785 238.83 60.8769C236.675 60.8753 235.468 61.6674 234.653 63.6172L234.239 64.6068H238.507C242.631 64.6068 242.774 64.5885 242.774 64.0606ZM250.236 74.6246C249.577 74.4192 248.767 74.1659 248.437 74.0616C248.098 73.9542 247.838 73.6564 247.838 73.3754C247.838 72.8459 248.616 70.7361 248.812 70.7361C248.876 70.7361 249.491 71.0359 250.18 71.4024C251.747 72.2367 253.919 72.3248 254.592 71.5812C255.168 70.945 255.155 69.609 254.567 68.9042C254.31 68.597 253.141 67.869 251.968 67.2865C250.796 66.7039 249.642 66.0703 249.404 65.8786C248.479 65.1334 247.84 63.6882 247.84 62.3416C247.84 58.9981 250.771 57.3548 255.034 58.3091C257.783 58.9245 257.792 58.9325 257.413 60.4387C257.241 61.1239 256.998 61.7469 256.875 61.8233C256.751 61.8996 256.171 61.7177 255.586 61.419C253.336 60.2713 250.746 61.02 251.167 62.6964C251.44 63.7834 251.749 64.0297 254.394 65.2657C257.467 66.7015 258.355 67.8036 258.355 70.1791C258.355 72.0652 257.664 73.3169 256.162 74.1486C254.752 74.9289 251.939 75.1548 250.236 74.6246ZM11.0531 74.4134C10.9799 74.2227 10.9514 69.2099 10.9897 63.274L11.0594 52.4814H12.6584H14.2573V63.5408V74.6003L12.7218 74.6803C11.6463 74.7363 11.1463 74.6564 11.0531 74.4134ZM18.9837 66.5591L19.0542 58.3578L19.9165 58.2879C20.6076 58.232 20.8693 58.3629 21.2349 58.9474C21.4858 59.3485 21.7195 59.7188 21.7542 59.7702C21.7889 59.8217 22.2222 59.555 22.7169 59.1776C24.0461 58.1639 26.0187 57.7782 27.8169 58.1807C29.4995 58.5572 30.462 59.3458 31.1863 60.9414C31.6479 61.9586 31.7015 62.7274 31.7067 68.4176L31.7126 74.7601L30.1803 74.6802L28.6479 74.6003L28.5147 68.5914C28.3693 62.0352 28.2101 61.3437 26.7632 60.9805C25.4686 60.6556 23.7244 61.0364 22.903 61.8234L22.1286 62.5652L22.0571 68.5827L21.9856 74.6003L20.4494 74.6803L18.9132 74.7603L18.9837 66.5591ZM64.8204 66.5591L64.8908 58.3578L65.8236 58.2774C67.4565 58.1366 67.9555 58.3834 67.9555 59.3319V60.1762L68.7249 59.439C69.1481 59.0336 69.9576 58.541 70.5238 58.3443C71.4842 58.0108 74.2347 58.0055 74.5658 58.3366C74.6471 58.4179 74.4764 59.0525 74.1866 59.7468L73.6596 61.0092L72.0688 60.922C70.7578 60.8502 70.349 60.9364 69.7444 61.4119C68.2396 62.5956 68.1004 63.1967 67.9555 69.1372L67.8223 74.6003L66.2861 74.6803L64.7499 74.7603L64.8204 66.5591ZM92.5355 66.5697L92.606 58.379L93.4574 58.2819C94.1553 58.2023 94.393 58.3193 94.7758 58.9307C95.0327 59.341 95.2713 59.7188 95.306 59.7702C95.3408 59.8217 95.774 59.555 96.2688 59.1776C98.3252 57.6091 102.006 57.6588 103.624 59.2769C105.301 60.9531 105.398 61.449 105.398 68.3377V74.6003L103.957 74.6823C102.985 74.7376 102.445 74.6509 102.296 74.4158C102.174 74.2241 102.073 71.635 102.071 68.6623C102.065 61.6364 101.778 60.8759 99.1263 60.8759C98.0037 60.8759 96.3585 61.4889 95.9995 62.0409C95.892 62.2063 95.744 65.0998 95.6707 68.4709L95.5375 74.6003L94.0013 74.6803L92.465 74.7603L92.5355 66.5697V66.5697ZM209.641 74.5559C209.543 74.4581 209.463 71.4074 209.463 67.7764V61.1746L208.464 61.0919L207.464 61.0092V59.6767V58.3442L210.062 58.268L212.661 58.1917V66.4626V74.7335H211.239C210.458 74.7335 209.738 74.6536 209.641 74.5559ZM210.165 55.7932C208.776 54.7009 209.483 52.3482 211.2 52.3482C213.022 52.3482 213.841 54.3902 212.54 55.6914C211.741 56.4906 211.087 56.5186 210.165 55.7932V55.7932ZM201.305 37.4169C197.683 36.9312 195.988 36.1903 194.293 34.3513C193.147 33.1083 193.14 33.0861 193.281 31.5211C193.413 30.0661 194.017 28.6152 194.479 28.6413C194.585 28.6473 194.947 29.2372 195.282 29.9522C195.963 31.4059 197.43 32.5092 200.133 33.601C203.321 34.8888 211.954 35.607 217.458 35.0422C222.445 34.5304 228.003 33.5364 232.345 32.3795C236.378 31.3051 237.796 31.0634 237.298 31.5352C237.068 31.7526 232.221 33.3221 227.451 34.723C224.664 35.5417 219.701 36.5657 216.182 37.0479C212.672 37.5291 203.785 37.7495 201.305 37.4169ZM53.4232 33.7603C52.164 31.8916 49.5251 28.0241 47.5589 25.166C45.5926 22.3078 42.7794 18.1706 41.3072 15.972L38.6305 11.9746L38.7025 23.5258L38.7746 35.0771L39.5075 35.6612C39.9105 35.9825 40.2403 36.3309 40.2403 36.4353C40.2403 36.5397 39.1011 36.6251 37.7086 36.6251C36.3162 36.6251 35.177 36.5418 35.177 36.4398C35.177 36.3379 35.5068 35.9104 35.9098 35.4899L36.6427 34.7252L36.7191 22.1404L36.7954 9.55574L35.7671 7.96701C35.2016 7.09321 34.0167 5.62033 33.1342 4.69396L31.5295 3.00965L29.2513 4.13951L26.9731 5.26938L25.6292 4.69124C24.4971 4.20425 23.7783 4.11309 21.0701 4.11309H17.855V19.4159V34.7188L18.5212 35.5106C18.8876 35.946 19.1874 36.375 19.1874 36.4637C19.1874 36.5525 17.6884 36.6251 15.8563 36.6251C14.0242 36.6251 12.5251 36.5397 12.5251 36.4353C12.5251 36.3309 12.8549 35.9825 13.258 35.6612L13.9908 35.0769L14.0638 19.5543L14.1368 4.03165L10.2605 4.2148C8.12855 4.31553 5.10411 4.6288 3.53952 4.91095C0.82125 5.40114 0 5.34323 0 4.66137C0 4.55911 1.2803 3.83903 2.84512 3.06118L5.69023 1.64692L7.17561 2.13562C10.1204 3.10444 24.9735 2.90994 30.2332 1.83368C31.6963 1.5343 32.1292 1.524 32.2957 1.78458C32.4116 1.96598 32.4515 2.2643 32.3844 2.44751C32.2931 2.6964 32.8007 2.78063 34.3918 2.78063H36.5214L37.9871 4.97919C38.7933 6.1884 40.0797 8.07852 40.8459 9.17947C41.6121 10.2804 42.6663 11.8394 43.1884 12.6439C43.7106 13.4483 46.2116 17.1645 48.7461 20.9021C51.2806 24.6397 54.0313 28.7433 54.8587 30.0213C55.6861 31.2993 56.4416 32.3486 56.5376 32.3531C56.7576 32.3634 58.5042 29.3476 61.1631 24.3665C62.2975 22.2412 63.4293 20.2026 63.6782 19.8361C63.927 19.4697 65.1903 17.1912 66.4856 14.7728C67.7809 12.3544 69.4042 9.41628 70.0931 8.24372C70.7819 7.07115 71.7387 5.36227 72.2193 4.44621L73.0931 2.78063H75.7209C77.1662 2.78063 78.3487 2.84634 78.3487 2.92665C78.3487 3.00697 78.0189 3.35628 77.6159 3.7029L76.883 4.33311L76.8034 18.8135C76.7596 26.7778 76.7962 33.6903 76.8848 34.1747C76.9734 34.6591 77.339 35.3104 77.6973 35.6219C78.0556 35.9334 78.3487 36.2866 78.3487 36.4067C78.3487 36.5268 76.8497 36.6251 75.0175 36.6251C73.1854 36.6251 71.6864 36.5418 71.6864 36.4398C71.6864 36.3379 71.9873 35.9405 72.355 35.5567L73.0237 34.8588L72.9546 20.8965L72.8856 6.93435L70.7537 10.8508C69.5811 13.0049 67.8634 16.1177 66.9366 17.7681C66.0098 19.4185 64.7649 21.6683 64.1702 22.7675C63.5754 23.8668 62.8216 25.2459 62.4951 25.8322C57.5978 34.6254 56.1321 37.1581 55.9407 37.1581C55.8152 37.1581 54.6823 35.6291 53.4232 33.7603ZM91.5401 36.7427C90.6606 36.5443 89.0417 36.3727 87.9424 36.3615L85.9437 36.341L84.6113 34.2845C83.0393 31.8584 82.976 31.6839 83.5827 31.4511C83.8853 31.335 84.4216 31.5559 85.1282 32.0877C86.8344 33.3721 88.541 34.1759 91.1511 34.9246C93.2595 35.5294 93.9186 35.6021 96.2859 35.4907C100.742 35.2809 103.557 33.9952 105.12 31.4545C105.776 30.3892 105.92 29.8727 105.902 28.6563C105.868 26.3165 104.867 24.7168 102.585 23.3539C101.295 22.5838 96.3316 20.6208 93.4055 19.7236C88.0028 18.067 85.1943 15.97 84.3034 12.9273C83.3308 9.60547 84.7892 6.0021 87.8266 4.22202C90.7944 2.48278 91.2885 2.39111 97.7242 2.38579L103.642 2.38088L105.253 4.00986C106.139 4.9058 106.863 5.76241 106.863 5.91342C106.863 6.54492 105.967 6.43225 104.09 5.56461C101.036 4.15372 97.8758 3.48442 95.2117 3.68423C91.649 3.95143 89.1193 5.09427 87.674 7.08949C86.1076 9.2518 86.3957 11.7354 88.443 13.7191C89.8619 15.0939 91.3427 15.7632 96.8699 17.5279C105.724 20.3546 109.262 23.2984 109.253 27.8309C109.249 30.019 108.635 31.4177 106.943 33.0948C103.559 36.4485 97.0589 37.988 91.5401 36.7427V36.7427ZM131.78 36.765C127.47 35.968 123.336 34.3591 120.208 32.2621C117.386 30.3708 114.73 26.906 113.761 23.8527C112.976 21.3774 112.972 17.6158 113.752 15.4494C115.977 9.27299 122.581 4.46219 131.381 2.60681C134.756 1.8952 140.888 1.95957 145.314 2.75308C148.546 3.3326 150.674 3.39349 151.693 2.93566C152.064 2.76873 152.272 3.00254 152.788 4.16852C153.138 4.95989 153.803 6.03947 154.267 6.56759C155.04 7.44839 155.075 7.56313 154.683 7.95484C154.217 8.42103 154.154 8.39781 152.51 7.14608C151.212 6.15795 147.759 4.76314 145.245 4.21168C142.406 3.58906 135.977 3.45493 132.747 3.95095C129.759 4.40967 126.499 5.63424 123.963 7.24998C120.09 9.71782 117.296 13.9801 117.051 17.7944C116.78 22.0242 118.505 26.038 122.035 29.3856C123.427 30.7062 127.113 33.041 129.195 33.9219C132.604 35.3639 138.955 36.1245 143.195 35.5986C147.882 35.0172 150.383 34.1227 153.139 32.0414C154.147 31.2803 154.692 31.0331 155.085 31.1579C155.869 31.4065 155.764 31.8625 154.682 32.9086C154.159 33.4137 153.371 34.4566 152.93 35.2262C152.194 36.5093 152.069 36.6088 151.415 36.4254C150.332 36.1217 148.609 36.1996 145.296 36.7021C141.706 37.2464 134.564 37.2797 131.78 36.765V36.765ZM207.312 32.8756C201.34 32.2415 197.468 30.3275 196.652 27.6064C196.231 26.1998 196.863 24.0983 198.196 22.4721C199.504 20.8769 203.474 17.7194 205.56 16.6159L207.198 15.7491L205.313 17.7432C202.968 20.2247 202.147 21.7994 202.404 23.3215C202.778 25.5346 205.279 27.3196 209.33 28.2657C211.128 28.6858 212.566 28.7636 218.524 28.7636C225.839 28.7636 227.037 28.6554 233.714 27.3921C241.82 25.8582 253.353 22.2122 258.125 19.6746C261.05 18.1197 262.461 17.3018 263.919 16.3183C265.637 15.1591 266.063 15.1498 265.168 16.2911C263.599 18.2927 258.344 21.8317 253.952 23.8449C243.714 28.5374 232.067 31.6469 220.522 32.7702C216.273 33.1837 210.637 33.2286 207.312 32.8756ZM183.347 21.8483C183.347 21.3239 186.322 18.6905 188.676 17.1311C191.117 15.5143 197.827 12.2023 201.288 10.906C205.874 9.18777 214.778 6.68877 218.39 6.10571C218.977 6.01108 219.816 5.83132 220.256 5.70624C220.696 5.58117 221.475 5.42201 221.988 5.35255C222.501 5.28309 224.18 5.04332 225.719 4.81972C235.239 3.43659 245.176 4.26434 249.628 6.8112C251.443 7.84961 252.167 8.88935 252.315 10.6681C252.567 13.7088 250.011 16.7364 243.95 20.5761C241.926 21.8586 241.774 21.6191 243.523 19.9028C245.779 17.6882 246.596 16.342 246.619 14.8021C246.661 12.0622 244.365 10.282 239.31 9.13393C237.136 8.64018 235.931 8.55699 230.782 8.54508C225.006 8.53173 223.371 8.66268 217.458 9.61239C213.656 10.2229 209.327 11.2251 204.266 12.6659C200.537 13.7277 198.31 14.5316 193.937 16.3953C189.692 18.2045 187.465 19.3697 185.012 21.0653C183.972 21.7844 183.347 22.0784 183.347 21.8483ZM253.962 7.83012C253.232 5.61762 250.071 3.77463 245.706 3.01713C237.284 1.55548 228.172 2.24443 215.085 5.33239C213.561 5.69214 212.273 5.94644 212.224 5.89752C212.049 5.72246 214.977 4.57114 217.857 3.68247C225.936 1.1899 233.657 0.0175561 242.108 0.000433957C249.624 -0.0147827 251.63 0.363265 253.941 2.23053C255.224 3.26658 255.836 4.41507 255.827 5.7701C255.82 6.72504 254.936 8.90995 254.556 8.90995C254.425 8.90995 254.158 8.42403 253.962 7.83012Z" fill="#CCCCCC"/>
</svg>
