<svg width="40" height="40" viewBox="0 0 40 40" fill="none" xmlns="http://www.w3.org/2000/svg">
<path fill-rule="evenodd" clip-rule="evenodd" d="M35.1604 0C29.3594 0.000244437 23.796 2.30504 19.6942 6.40737L18.5468 7.55235C17.7618 8.33733 17.0069 9.15482 16.287 9.9998H8.27764C7.53065 10 6.79619 10.1915 6.14417 10.556C5.49217 10.9206 4.94437 11.446 4.55295 12.0823L0.278309 19.0171C0.128256 19.2609 0.0359974 19.5357 0.00860578 19.8207C-0.0187858 20.1056 0.0194164 20.393 0.120284 20.6609C0.221152 20.9287 0.382007 21.17 0.590522 21.366C0.799035 21.5621 1.04967 21.7078 1.32322 21.7921L9.07757 24.177C9.17006 24.3045 9.27505 24.427 9.38754 24.5395L15.4595 30.6094C15.5745 30.7244 15.6945 30.8294 15.822 30.9219L18.2068 38.6767C18.291 38.9502 18.4367 39.201 18.6328 39.4095C18.8289 39.618 19.0701 39.7789 19.3379 39.8797C19.6058 39.9807 19.8932 40.0187 20.1781 39.9914C20.463 39.9639 20.7378 39.8717 20.9816 39.7217L27.916 35.4543C28.5522 35.0628 29.0777 34.5151 29.4421 33.8631C29.8066 33.2108 29.9981 32.4763 29.9983 31.7294V23.712C30.8433 22.992 31.6607 22.2371 32.4456 21.4521L33.5905 20.3046C37.6929 16.2035 39.9985 10.6408 40 4.8399V4.37491C40 3.21461 39.539 2.10184 38.7186 1.28138C37.8982 0.460926 36.7855 0 35.6254 0H35.1604ZM26.2512 26.562C26.0312 26.712 25.8087 26.857 25.5862 26.9995L19.7117 30.8019L21.0816 35.2593L25.9537 32.2593C26.0447 32.2034 26.1197 32.1251 26.1717 32.0319C26.2239 31.9386 26.2512 31.8336 26.2512 31.7269V26.562ZM9.19756 20.2896L13.0022 14.4147C13.1472 14.1897 13.2947 13.9697 13.4422 13.7497H8.27514C8.16837 13.7497 8.06336 13.777 7.97016 13.8291C7.87695 13.8812 7.79863 13.9563 7.74268 14.0472L4.74293 18.9221L9.19756 20.2896ZM22.3465 9.05732C25.7444 5.65966 30.3528 3.75062 35.1579 3.74992H35.6229C35.7886 3.74992 35.9476 3.81577 36.0648 3.93297C36.1821 4.05019 36.2478 4.20917 36.2478 4.37491V4.8399C36.2481 7.22018 35.7796 9.57721 34.8689 11.7764C33.9585 13.9756 32.6236 15.9739 30.9408 17.6571L29.7934 18.8021C27.8935 20.7021 25.8012 22.3946 23.5464 23.852L17.7543 27.6019L12.3973 22.2446L16.147 16.4522C17.6053 14.1968 19.2979 12.1019 21.1966 10.2023L22.3415 9.05732H22.3465ZM30.0008 12.4997C30.0008 13.1628 29.7374 13.7986 29.2687 14.2675C28.7999 14.7363 28.164 14.9997 27.501 14.9997C26.8381 14.9997 26.2022 14.7363 25.7334 14.2675C25.2645 13.7986 25.0012 13.1628 25.0012 12.4997C25.0012 11.8367 25.2645 11.2008 25.7334 10.732C26.2022 10.2632 26.8381 9.9998 27.501 9.9998C28.164 9.9998 28.7999 10.2632 29.2687 10.732C29.7374 11.2008 30.0008 11.8367 30.0008 12.4997ZM8.90259 36.3993C9.27098 36.056 9.56648 35.642 9.77141 35.182C9.97637 34.722 10.0866 34.2256 10.0954 33.7218C10.1043 33.2183 10.0117 32.7183 9.82313 32.2514C9.63452 31.7844 9.35382 31.3604 8.99778 31.0041C8.64171 30.6481 8.21757 30.3674 7.75068 30.1789C7.28377 29.9901 6.78366 29.8976 6.28021 29.9064C5.77672 29.9154 5.28019 30.0256 4.82023 30.2304C4.36029 30.4354 3.9463 30.7309 3.60303 31.0994C1.76818 32.9243 0.985749 36.9293 0.728271 38.6067C0.713047 38.6972 0.719664 38.79 0.747569 38.8772C0.775474 38.9645 0.82386 39.044 0.888687 39.1087C0.953517 39.1737 1.03291 39.222 1.12024 39.25C1.20757 39.2777 1.30031 39.2845 1.39072 39.2692C3.06807 39.0117 7.07274 38.2292 8.90259 36.3993Z" fill="#5761B2"/>
</svg>
