<svg width="184" height="50" viewBox="0 0 184 50" fill="none" xmlns="http://www.w3.org/2000/svg">
<path d="M121.832 32.6313H116.819V17.4349H121.587C125.792 17.4349 128.947 20.551 128.947 25.0679C128.947 29.55 125.932 32.6313 121.832 32.6313ZM121.691 12.7786H111.281V37.2885H121.481C129.227 37.2885 134.59 32.2462 134.59 25.0331C134.59 17.7851 129.297 12.7786 121.691 12.7786V12.7786ZM154.391 27.0288C154.391 30.5655 152.218 32.7018 148.924 32.7018C145.629 32.7018 143.316 30.5655 143.316 27.0288V12.7786H137.777V27.0288C137.777 33.507 142.123 37.5337 148.924 37.5337C155.688 37.5337 159.93 33.507 159.93 27.0288V12.7786H154.391V27.0288V27.0288ZM170.267 19.2558C170.267 17.9253 171.529 17.2601 173.387 17.2601C175.349 17.2601 178.433 18.2403 181.027 19.7813L183.166 15.1938C180.712 13.5832 177.276 12.5333 173.842 12.5333C168.164 12.5333 164.343 15.3341 164.343 19.7813C164.343 28.4647 177.417 25.7689 177.417 30.3903C177.417 31.8964 176.05 32.7367 173.772 32.7367C171.178 32.7367 167.603 31.3008 165.079 29.0598L162.871 33.5766C165.64 35.9227 169.671 37.464 173.702 37.464C179.135 37.464 183.306 34.8723 183.306 30.0753C183.34 21.2512 170.267 23.7727 170.267 19.2558V19.2558ZM80.0906 12.7782H73.5369L68.3838 20.2713L63.2663 12.7782H56.8171L65.0188 24.753L56.2212 37.2889H62.7056L68.3838 29.1304L74.1673 37.2889H80.7916L71.9237 24.5081L80.0906 12.7782V12.7782ZM94.5294 32.7018C90.4288 32.7018 86.9585 29.3403 86.9585 25.0331C86.9585 20.7266 90.3939 17.4349 94.5294 17.4349C98.6305 17.4349 101.96 20.7266 101.96 25.0331C101.96 29.3403 98.6305 32.7018 94.5294 32.7018V32.7018ZM94.4598 12.603C86.9585 12.603 81.2805 17.8901 81.2805 25.0331C81.2805 32.1412 86.9585 37.5337 94.4598 37.5337C101.96 37.5337 107.638 32.1063 107.638 25.0331C107.638 17.9258 101.96 12.603 94.4598 12.603V12.603Z" fill="#CCCCCC"/>
<path d="M37.5007 0L18.7503 12.4993V24.9996L37.5007 12.4993V0V0ZM0 24.9996L9.37471 31.2502L0 37.5003V50L28.125 31.2502L18.7503 24.9996L0 12.4993V24.9996H0ZM37.5007 50V37.5003L28.125 31.2502L22.917 40.2771L37.5007 50Z" fill="#CCCCCC"/>
</svg>
