<svg xmlns="http://www.w3.org/2000/svg" width="166" height="75" fill="none">
  <path fill="#CCC" fill-rule="evenodd" d="M41.777 22.726c-.087-.071-.86-.67-2.108-1.338-.04-.023-.087-.047-.134-.07-.032-.024-.071-.04-.103-.056-.252-.13-.507-.254-.766-.37-.931.441-2.21.654-3.718.244-1.263-.338-2.148-1.384-2.55-1.928-1.413-.173-3.671-.605-3.671-.605h4.99c2.036-.056 2.644.11 4.01.652.465.181 1.073.599 1.697 1.118.04.031.071.063.103.087l.134.11c.79.669 1.57 1.463 2.116 2.156" clip-rule="evenodd"/>
  <mask id="a" width="81" height="75" x="0" y="0" maskUnits="userSpaceOnUse">
    <path fill="#fff" d="M.008 0h80.618v75H.008V0z"/>
  </mask>
  <g mask="url(#a)">
    <path fill="#CCC" fill-rule="evenodd" d="M64.616 45.224c-4.216 6.65-11.171 13.29-16.579 17.934l-2.124-2.141a19.622 19.622 0 01-.963-1.03c-.094-.11-.19-.221-.292-.331l-.032-.04c-.079-.096-.16-.19-.244-.283l-.032-.04a9.371 9.371 0 01-.331-.416l-.032-.047c-.094-.12-.187-.24-.276-.362l-.024-.032c-.095-.134-.197-.267-.284-.393l-.197-.283a8.847 8.847 0 01-.34-.536l-.04-.063c-.039-.063-.078-.125-.126-.212l-.047-.087a4.526 4.526 0 00-.103-.173l-.04-.07c-.039-.071-.078-.134-.125-.221l-.032-.055a3.678 3.678 0 01-.134-.244l-.103-.197c-.122-.23-.238-.464-.347-.7l-.19-.433-.157-.377a4.15 4.15 0 01-.08-.205l-.015-.047c-.087-.23-.168-.46-.245-.693l-.016-.055c-.024-.079-.055-.165-.087-.275-.031-.095-.055-.189-.086-.284a10.317 10.317 0 01-.15-.582l-.024-.094-.016-.063-.016-.071-.016-.08c-.08-.38-.15-.763-.205-1.148l-.008-.04c-.008-.022-.008-.054-.015-.093l-.008-.063c-.008-.095-.024-.189-.032-.291l-.008-.071c-.008-.087-.016-.166-.023-.26l-.008-.04c-.008-.062-.008-.125-.016-.212l-.008-.047c0-.04 0-.079-.008-.126l-.008-.268c-.008-.157-.008-.322-.008-.487 0-.26.008-.512.016-.803.008-.26.024-.511.04-.795.008-.126.015-.26.031-.386.008-.125.024-.259.04-.393.26-2.636.907-5.115 1.886-7.184l.024-.047c.032-.072.063-.134.11-.221l.048-.102.102-.205.048-.094a1.06 1.06 0 01.087-.158l.047-.086c.04-.071.071-.134.11-.197l.072-.11.615-.937.048-.07.126-.174.095-.125.253-.307c.07-.087.142-.165.229-.26.426-.465.868-.881 1.357-1.18 1.54-.929 3.498-1.63 5.219-1.598 1.72.032 3.663.378 5.202 1.63 1.769 1.471 2.89 2.714 3.474 3.619l.49.85.686-7.13s.016-.15.04-.409c.055-.708.134-2.093.063-3.47a14.38 14.38 0 00-.134-1.298l-.008-.071c-.04-.22-.08-.425-.127-.622l-.007-.04a7.47 7.47 0 00-.269-.889 8.96 8.96 0 00-.79-1.612 16.08 16.08 0 00-.394-.606 7.426 7.426 0 00-.316-.425c-.079-.095-.15-.189-.229-.284a6.542 6.542 0 00-.285-.33 12.198 12.198 0 00-1.507-1.4 11.072 11.072 0 00-.64-.465c-.07-.055-.15-.102-.228-.15l-.166-.11c-.087-.055-.182-.11-.284-.173a11.298 11.298 0 00-.569-.315c-.11-.063-.229-.118-.308-.157l-.047-.024c-.103-.055-.213-.102-.3-.141a9.65 9.65 0 00-.813-.33l-.079-.032-.3-.103c-.118-.04-.237-.079-.363-.118a35.84 35.84 0 01-.371-.11 4.047 4.047 0 00-.395-.094 4.99 4.99 0 00-.426-.087l-.134-.023a11.866 11.866 0 00-1.074-.142l-.095-.008c-.126-.008-.245-.015-.371-.015l-1.097-.032h-.15c-.119-.008-.237-.008-.34-.008-.265-.392-.528-.786-.789-1.18l-.813-1.11-.048-.055c-.242-.275-.495-.54-.758-.795a10.028 10.028 0 00-1.129-.96 6.572 6.572 0 00-.592-.409l-.087-.079-.394-.212c-.103-.055-.197-.102-.316-.165l-.04-.016a7.377 7.377 0 00-1.642-.598c-.173-.04-.347-.079-.505-.11a3.317 3.317 0 00-.22-.04l-.103-.016s-.253-.039-.316-.054l-.269-.04c-.355-.047-.75-.094-1.192-.141a63.902 63.902 0 00-1.618-.126s-.41-.024-.482-.024a59.835 59.835 0 00-1.784-.055c-.316-.008-.64-.008-.963-.008-1.177 0-2.392.04-3.434.08l-1.153.046a43.22 43.22 0 01-1.066.04 81.8 81.8 0 01-3.229.078c-.378 0-.765-.008-1.16-.015l-.742-.024c-1.326-.055-2.487-.189-3.53-.402l-.094-.015-.079-.024-.15-.032c-.047-.007-.095-.023-.158-.039l-.094-.023c-.174-.04-.34-.087-.514-.134l-.095-.031-.11-.025-.213-.07-.166-.055-.292-.102c-.063-.024-.134-.048-.221-.087-.174-.063-.347-.142-.544-.228l-.103-.047c-.048-.024-.095-.04-.15-.071l-.063-.032-.143-.07-.087-.048-.11-.055c-.032-.016-.055-.031-.087-.047l-.126-.07c-.063-.032-.127-.072-.206-.12l-.047-.03c-.07-.04-.134-.087-.205-.126l-.04-.024c-.07-.047-.134-.086-.22-.15l-.04-.03c-.071-.048-.142-.095-.205-.15l-.506-.378c7.43-2.597 17.559-4.73 25.477-4.855 14.29.228 35.778 6.988 35.58 11.22-.181 4.274-1.404 13.803-11.257 29.321zm-57.49-17.76c-1.878-5.439-2.28-9.247-2.391-11.52-.063-1.268 1.808-2.755 4.84-4.22v1.52c0 .07.007.15.007.197l.008.157c0 .118.008.236.016.307.11 1.51.529 4.438 2.068 7.003-1.35 1.306-3.102 3.376-4.382 6.178l-.165.377zm71.471-16.306C73.166 5.391 53.051.206 40.403.001h-.158C27.582.205 7.475 5.391 2.043 11.159.259 13.056-.042 14.928.014 16.164c.434 9.096 4.468 19.727 12 31.586 6.11 9.624 17.1 18.902 23.107 23.575a22.87 22.87 0 002.337 1.598l.134.079 2.724 1.999 2.708-1.984.11-.07c.458-.276 1.24-.74 2.226-1.511 4.863-3.777 16.88-13.645 23.25-23.686 7.532-11.858 11.573-22.49 12.008-31.586.063-1.244-.237-3.116-2.021-5.005z" clip-rule="evenodd"/>
  </g>
  <path fill="#fff" fill-rule="evenodd" d="M57.282 28.69a18.298 18.298 0 00-.095-.991c-.032-.165-.063-.315-.087-.456a4.892 4.892 0 00-.134-.441 6.034 6.034 0 00-.498-1.015 5.018 5.018 0 00-.284-.433c-.055-.079-.11-.15-.166-.228-.063-.071-.118-.15-.181-.22-.063-.072-.118-.142-.19-.213a8.278 8.278 0 00-1.05-.983c-.157-.119-.307-.237-.473-.34l-.245-.164a5.833 5.833 0 00-.229-.142 6.285 6.285 0 00-.394-.22c-.072-.04-.143-.07-.214-.11-.087-.04-.173-.087-.268-.126a18.34 18.34 0 00-.592-.244c-.071-.024-.15-.055-.23-.079-.094-.032-.181-.063-.275-.086-.095-.032-.19-.056-.277-.08-.095-.023-.19-.046-.276-.062-.095-.024-.182-.04-.276-.063-.093-.015-.185-.03-.277-.047-.181-.032-.363-.047-.544-.063-.103-.008-.198-.016-.293-.016l-.829-.024c-.07 0-.142 0-.205-.008h-.158c-.134-.007-.26-.007-.37-.007-.42-.008-.743 0-.995 0-.68.015-4.295.204-4.295.204l2.755-1.259-.948-1.416-.228-.346c-.095-.134-.182-.268-.269-.394-.007-.008-.007-.015-.015-.023 0-.008-.008-.008-.016-.024-.016-.024-.032-.04-.055-.071l-.008-.008c-.024-.032-.048-.063-.079-.094a8.832 8.832 0 00-1.074-1.086c-.118-.095-.245-.197-.371-.284a4.955 4.955 0 00-.6-.393c-.008-.008-.016-.008-.016-.016-.087-.047-.166-.086-.252-.133a3.699 3.699 0 00-.837-.307 5.793 5.793 0 00-.427-.087l-.118-.024c-.032-.007-.063-.015-.095-.015a2.452 2.452 0 00-.237-.04 2.702 2.702 0 01-.244-.04c-.34-.048-.679-.09-1.019-.125a45.95 45.95 0 00-1.468-.11l-.45-.024a52.693 52.693 0 00-1.697-.055c-1.35-.03-2.748.016-4.169.071-.355.016-.71.024-1.066.04a55.89 55.89 0 01-1.168.039c-1.54.063-3.079.102-4.603.063a26.626 26.626 0 01-.813-.032 25.727 25.727 0 01-4.129-.48 2.214 2.214 0 01-.245-.055 6.631 6.631 0 01-.386-.086 8.952 8.952 0 01-.759-.205 5.257 5.257 0 01-.33-.102l-.08-.024a4.545 4.545 0 01-.3-.102c-.07-.024-.15-.047-.22-.079-.127-.047-.261-.094-.38-.142-.252-.094-.497-.204-.75-.314-.126-.055-.252-.11-.37-.173a3.119 3.119 0 01-.364-.19c-.11-.054-.221-.117-.332-.18-.134-.071-.26-.15-.386-.228a5.135 5.135 0 01-.348-.22c-.118-.08-.236-.15-.347-.237a5.897 5.897 0 01-.348-.252v.339c0 .023 0 .047.008.07 0 .071.008.142.008.229 0 .047.008.094.008.142.087 1.188.403 3.54 1.587 5.5l.174.283a6.796 6.796 0 001.342 1.48c.008.008.016.015.024.015l.047.024c.022.016.046.03.071.04.008 0 .016.007.024.015.51.285 1.037.537 1.579.755.063.024.118.048.181.071.048.016.103.04.15.055.505.181 1.058.33 1.618.393.016 0 .024.009.032.009h.008s-.987.024-1.216.024c-1.042.007-2.432.07-3.6.298-.056.05-.114.097-.173.142-1.169 1.015-2.432 2.573-4.216 5.335-.095.15-.19.291-.285.449-.142.22-.291.456-.441.692 0 0 1.342-1.464 1.46-1.59 1.705-1.88 3.805-3.139 4.91-3.549 0 0-1.697 1.574-3.41 5.28-.31.671-.587 1.357-.829 2.055 4.642-5.564 10.081-7.578 10.5-7.72l-.008.008c-.024.016-.04.04-.063.063-5.676 5.24-7.729 11.103-8.416 15.313 1.453-2.66 3.774-4.808 4.99-5.469 0 0-1.445 1.787-2.598 5.697a21.038 21.038 0 00-.686 3.155c-.008.04.718.985.718.985 2.984-6.343 7.468-10.034 9.395-11.403 0 0 .008 0 .008-.008.844-.684 1.373-1.007 1.373-1.007-4.382 4.698-6.19 9.632-6.86 13.582 1.476-3.258 3.347-5.445 4.302-6.437.53-.621.885-.944.924-.983-3.908 6.16-3.616 11.921-2.977 15.116l.995 1.094c.048-.174.182-.598.23-.763 2.052-6.964 6.141-11.245 7.286-12.34l1.184-1.227c-.268.378-3.134 4.588-3.466 12.41-.086 2.085-.236 4.477.38 6.94l.955.976c-.268-3.738.687-7.491 1.5-8.994 0 0-.293 2.825 1.144 7.68.727 2.447 1.595 4.218 2.29 5.39.49.826 2.802 3.478 4.097 4.942.174.197.324.37.458.511.04.024.26.276.332.33.07-.054.26-.18.403-.266.26-.158.639-.379 1.105-.701.11-.078.228-.157.339-.244.118-.086.245-.18.379-.283.095-.079.197-.15.3-.236.008-.008.024-.016.032-.024-4.603-3.966-7.374-10.741-7.461-10.953 1.966 2.919 5.992 5.696 7.879 6.9a24.497 24.497 0 01-.948-1.023c-.125-.141-.252-.283-.37-.425-.11-.133-.23-.267-.332-.393-.134-.173-.276-.338-.41-.519a9.765 9.765 0 01-.364-.48c-.118-.165-.244-.33-.363-.504l-.221-.322c-.142-.213-.284-.425-.418-.646-.072-.11-.135-.22-.197-.322-.072-.11-.135-.22-.198-.323a6.457 6.457 0 01-.181-.315c-.064-.118-.127-.228-.19-.338a2.961 2.961 0 01-.11-.22c-.15-.284-.293-.583-.435-.874-.031-.079-.071-.157-.103-.236-.047-.11-.102-.22-.15-.338l-.142-.331c-.047-.11-.086-.22-.134-.338-.12-.3-.227-.605-.323-.913-.04-.118-.08-.236-.11-.346a6.142 6.142 0 01-.104-.354 10.77 10.77 0 01-.19-.716c-.015-.071-.039-.15-.054-.22-.016-.056-.024-.119-.04-.182-.102-.457-.184-.92-.245-1.384a2.731 2.731 0 01-.031-.252c-.016-.15-.04-.3-.048-.457-.008-.118-.023-.228-.031-.346l-.024-.3c-.008-.102-.008-.196-.016-.298 0-.095-.008-.189-.008-.276-.007-.197-.007-.393-.007-.598 0-.298.008-.606.015-.905.008-.299.024-.605.048-.913.008-.149.023-.298.031-.448.016-.15.032-.299.04-.456.181-1.794.521-3.58 1.042-5.28-1.721 1.432-3.268 2.911-4.097 4.146.086-.204 2.534-6.185 6.64-10.198.33-.322 2.257-1.99 2.58-2.25 1.303-1.039 2.819-1.755 4.54-2.023.142-.023.292-.039.442-.055.06-.009.121-.014.182-.015.079-.008.157-.016.245-.016 1.72-.11 3.023-.142 4.057-.103.095 0 .182.008.269.016.852.04 1.515.134 2.084.307l.158.047c.734.244 1.263.59 1.823 1.055.119.102.245.204.372.314 0 0 .015-.133.031-.346.024-.574.095-1.81.032-2.959z" clip-rule="evenodd"/>
  <path fill="#CCC" fill-rule="evenodd" d="M41.777 22.726c-.087-.071-.86-.67-2.108-1.338-.04-.023-.087-.047-.134-.07-.032-.024-.071-.04-.103-.056-.252-.13-.507-.254-.766-.37-.931.441-2.21.654-3.718.244-1.263-.338-2.148-1.384-2.55-1.928-1.413-.173-3.671-.605-3.671-.605h4.99c2.036-.056 2.644.11 4.01.652.465.181 1.073.599 1.697 1.118.04.031.071.063.103.087l.134.11c.79.669 1.57 1.463 2.116 2.156" clip-rule="evenodd"/>
  <path fill="#CCC" d="M114.951 47.71a9.186 9.186 0 00-1.42-.579 4.952 4.952 0 00-1.507-.245c-.678 0-1.221.158-1.63.473-.397.316-.596.736-.596 1.262 0 .398.129.736.386 1.017.257.269.596.502 1.016.701.421.199.859.386 1.315.56.397.153.789.322 1.174.51.386.186.731.42 1.034.7.316.28.561.625.737 1.034.186.41.28.918.28 1.525 0 .666-.169 1.274-.508 1.823-.328.55-.801.982-1.42 1.297-.619.316-1.356.474-2.209.474-.56 0-1.098-.065-1.612-.193a8.21 8.21 0 01-1.402-.491c-.433-.21-.818-.427-1.157-.649l.754-1.332c.28.199.601.392.964.579.362.175.742.321 1.139.438a4.51 4.51 0 001.157.158c.397 0 .788-.07 1.174-.21.397-.153.725-.38.982-.684.257-.304.385-.707.385-1.21 0-.432-.117-.788-.35-1.069a2.676 2.676 0 00-.894-.736 9.287 9.287 0 00-1.192-.56 33.092 33.092 0 01-1.21-.492 6.48 6.48 0 01-1.139-.666 3.09 3.09 0 01-.841-.981c-.211-.386-.316-.853-.316-1.403 0-.666.158-1.244.474-1.735a3.332 3.332 0 011.332-1.174c.561-.292 1.203-.45 1.928-.473.818 0 1.536.099 2.156.298a7.535 7.535 0 011.665.736l-.649 1.297zM127.905 57.175a7.52 7.52 0 01-.859.473 6.292 6.292 0 01-1.28.438 6.656 6.656 0 01-1.577.175c-.982-.011-1.87-.186-2.664-.525a5.956 5.956 0 01-1.999-1.385 6.37 6.37 0 01-1.279-2.016 6.871 6.871 0 01-.438-2.453c0-.947.152-1.818.455-2.612a6.282 6.282 0 011.315-2.086 5.886 5.886 0 011.981-1.385 6.393 6.393 0 012.524-.49c.759 0 1.449.105 2.068.315a6.972 6.972 0 011.595.719l-.684 1.577a7.606 7.606 0 00-1.279-.666 4.143 4.143 0 00-1.648-.315c-.619 0-1.203.122-1.753.368a4.528 4.528 0 00-1.454 1.034 5.012 5.012 0 00-.999 1.56 5.045 5.045 0 00-.351 1.893c0 .69.105 1.332.316 1.928.222.584.531 1.092.929 1.525.409.432.899.771 1.472 1.016.572.246 1.215.369 1.928.369.643 0 1.215-.1 1.718-.298.502-.2.917-.421 1.244-.667l.719 1.508zM129.962 51.794c0-.877.163-1.7.491-2.472a6.594 6.594 0 011.402-2.068 6.518 6.518 0 012.051-1.42 6.102 6.102 0 012.524-.525 5.94 5.94 0 012.488.525 6.471 6.471 0 012.069 1.42 6.462 6.462 0 011.419 2.068c.339.772.509 1.595.509 2.472 0 .9-.17 1.74-.509 2.524a6.464 6.464 0 01-1.419 2.068 6.768 6.768 0 01-2.069 1.385c-.771.327-1.6.49-2.488.49-.9 0-1.742-.163-2.524-.49a6.56 6.56 0 01-2.051-1.367 6.388 6.388 0 01-1.402-2.051 6.556 6.556 0 01-.491-2.56zm1.753.017c0 .666.122 1.292.368 1.876.245.572.584 1.08 1.016 1.525a4.87 4.87 0 001.508 1.051 4.665 4.665 0 001.858.369c.654 0 1.267-.123 1.84-.369a4.656 4.656 0 001.49-1.051c.42-.444.754-.953.999-1.525a4.845 4.845 0 00.368-1.893 4.8 4.8 0 00-.368-1.876 4.851 4.851 0 00-1.017-1.56 4.628 4.628 0 00-1.507-1.034 4.442 4.442 0 00-1.84-.385c-.667 0-1.286.128-1.858.385a4.87 4.87 0 00-1.508 1.052 4.647 4.647 0 00-.999 1.56 4.996 4.996 0 00-.35 1.875zM149.144 45.449c.643 0 1.233.087 1.771.263a3.847 3.847 0 011.419.753c.409.327.725.736.947 1.227.234.48.35 1.04.35 1.683 0 .502-.075.993-.227 1.472-.141.48-.38.917-.719 1.315-.339.385-.783.7-1.332.946-.538.234-1.204.35-1.998.35h-1.876v4.663h-1.7V45.45h3.365zm.176 6.38c.502 0 .917-.076 1.244-.228.339-.152.602-.345.789-.578a2.41 2.41 0 00.403-.79c.082-.28.123-.543.123-.788 0-.257-.047-.52-.141-.789a2.077 2.077 0 00-.42-.77 2.122 2.122 0 00-.754-.58c-.304-.151-.678-.227-1.122-.227h-1.963v4.75h1.841zm2.085.964l3.313 5.328h-1.963l-3.365-5.276 2.015-.052zM157.316 45.449h8.238v1.63h-6.538v3.856h5.837v1.63h-5.837v3.926h6.783v1.63h-8.483V45.45zM81.293 58.49l5.82-13.409h.14l5.819 13.409h-2.945l-3.716-9.43 1.84-1.262L83.8 58.49h-2.506zm3.979-4.663h3.873l.894 2.139h-5.556l.789-2.139z"/>
  <path fill="#CCC" d="M86.824 44.642l-6.199 14.285h3.466l1.052-2.524h3.69l.995 2.524h3.911l-4.923-11.345-.236-.542-1.04-2.398h-.716zm.358 1.377l.662 1.526-1.885 1.294 1.223-2.82zm1.166 2.687l4.055 9.345h-1.978l-.65-1.648h.922l-1.26-3.014h-.849l-1.065-2.703.825-1.98zm-2.445.26l.675 1.712-1.13 2.711h-.482l-.105.287-1.007 2.727h.34l-.687 1.648h-1.546l3.942-9.084zm1.375.03l-.217.52-.114-.292.33-.227zm-.239 2.853l.607 1.54h-1.248l.641-1.54zm-1.006 2.417h1.958l.497 1.261h-2.98l.525-1.261zM94.935 58.49v-12.9h3.856c1.297 0 2.401.192 3.313.578.911.385 1.642.9 2.191 1.542.561.643.97 1.361 1.227 2.156a7.76 7.76 0 01.385 2.401c0 .959-.175 1.823-.526 2.594a5.902 5.902 0 01-1.402 1.964 6.39 6.39 0 01-2.068 1.244c-.783.28-1.613.42-2.489.42h-4.487zm2.541-2.454h1.508a5.89 5.89 0 001.753-.245 3.896 3.896 0 001.349-.754c.386-.327.678-.736.877-1.227.21-.503.315-1.075.315-1.718 0-.841-.14-1.525-.421-2.05-.268-.538-.607-.953-1.016-1.245a3.5 3.5 0 00-1.227-.596c-.421-.117-.777-.175-1.07-.175h-2.068v8.01z"/>
  <path fill="#CCC" d="M94.497 45.151v13.777h4.925c.923 0 1.805-.148 2.637-.446l.003-.001.002-.001a6.823 6.823 0 002.208-1.33l.002-.002.002-.002a6.366 6.366 0 001.505-2.103v-.003c.379-.833.564-1.762.564-2.773 0-.853-.136-1.7-.406-2.536a6.571 6.571 0 00-1.311-2.305c-.599-.701-1.39-1.255-2.353-1.662-.98-.415-2.144-.613-3.484-.613h-4.294zm.876.877h3.418c1.253 0 2.3.187 3.142.544.86.364 1.529.838 2.029 1.423l.001.002.001.002A5.66 5.66 0 01105.105 50c.244.754.364 1.507.364 2.267 0 .904-.164 1.703-.486 2.412l-.001.002h-.001a5.478 5.478 0 01-1.297 1.82h-.001a5.955 5.955 0 01-1.923 1.156 6.882 6.882 0 01-2.338.393h-4.049V46.028zm1.665 1.56v8.886h1.946a6.32 6.32 0 001.883-.265l.004-.001.005-.002a4.342 4.342 0 001.496-.838c.438-.372.773-.843.996-1.392.235-.563.348-1.195.348-1.884 0-.888-.145-1.641-.47-2.252-.293-.584-.674-1.058-1.146-1.397h-.001a3.954 3.954 0 00-1.376-.665c-.442-.123-.83-.19-1.178-.19h-2.507zm.876.876h1.63c.234 0 .557.05.952.16l.006.001h.005c.36.09.717.261 1.075.525l.001.002.003.002c.342.245.637.597.88 1.083l.002.006.003.005c.235.44.369 1.052.369 1.844 0 .595-.097 1.108-.282 1.55h-.001v.004c-.175.43-.423.775-.754 1.056l-.003.003-.003.003a3.43 3.43 0 01-1.195.666 5.451 5.451 0 01-1.618.224h-1.07v-7.134z"/>
</svg>
