<?xml version="1.0" encoding="UTF-8" standalone="no"?>
<svg
   class="img-fluid"
   id="outputsvg"
   width="192"
   height="30.25271"
   viewBox="0 0 1920 302.5271"
   version="1.1"
   xmlns="http://www.w3.org/2000/svg"
   xmlns:svg="http://www.w3.org/2000/svg">
  <defs
     id="defs19" />
  <path
     id="p1BkTo1yZD"
     style="fill:#cccccc;stroke-width:0.325448"
     d="M 88.53297,0 44.92161,149.05789 C 21.16388,230.74543 0.66444994,299.7405 0.01354994,302.0186 c -0.082,0.1844 0.23032,0.3394 0.34325,0.5085 H 234.57792 c 58.47388,-4.7497 82.16598,-15.7118 108.78368,-40.217 23.7577,-21.80502 36.1222,-53.69896 29.9387,-76.48035 -4.8817,-18.55056 -20.1778,-30.91633 -50.4445,-41.00523 -5.2072,-1.62724 -2.6023,-3.57993 12.6937,-9.76345 C 372.6507,120.09045 396.0842,92.4248 398.6878,60.8563 399.9896,41.3294 392.1738,26.68931 373.9486,13.99682 355.3981,1.62978 336.5221,0 209.59722,0 Z M 464.75,0 455.9654,28.642 c -4.5562,15.62152 -9.1112,29.29035 -10.0876,30.91759 -0.6509,1.3018 46.2137,2.2756 104.1435,2.2756 H 655.792 l 6.509,-21.8025 c 3.9054,-12.36704 7.8082,-26.03587 8.7845,-30.91759 L 673.3611,0 Z m 244.0863,0 -6.509,22.13303 C 664.0207,151.66135 620.9907,299.5233 620.7746,302.5271 h 296.0435 l 8.7655,-29.7988 9.7635,-33.52375 -90.795,-0.97888 c -84.6166,-0.6509 -90.8014,-1.3018 -89.1742,-6.50897 0.9764,-2.92903 16.2725,-55.65167 34.1721,-117.16141 C 807.7751,53.37098 822.419,2.60359 822.419,1.62724 822.419,0.6509 796.7086,0 765.4656,0 Z m 332.2815,0 -5.2059,15.62406 c -9.7634,30.9176 -83.3135,283.13884 -83.3135,286.71874 0,0.066 0.3634,0.1203 0.4195,0.1843 h 295.7322 l 8.7909,-30.7777 10.0939,-34.17209 h -90.8013 c -50.1191,0 -90.8014,-0.97508 -90.8014,-1.95142 0,-1.30179 52.3959,-181.27347 67.0411,-229.76528 C 1154.7006,0.32799 1150.4697,0 1097.7471,0 Z m 493.0543,0 -55.6504,30.26924 -55.6504,29.93871 83.9682,0.97889 c 45.8882,0.32544 83.6377,1.62342 83.6377,2.59977 0,1.95269 -63.4624,218.70509 -68.3442,233.35029 l -1.7988,5.3902 h 114.2756 l 35.2781,-119.29713 35.4751,-121.39478 60.208,-0.64835 59.8774,-0.97889 9.1151,-29.93871 L 1843.348,0 Z m -69.6027,0.48945 c -9.6415,-0.0814 -23.1488,-0.004 -38.1195,0.1589 l -55.002,0.97889 -9.1087,30.9176 c -5.2072,16.92331 -9.4393,32.54229 -9.4393,34.82043 0,2.92904 120.0917,-59.87868 126.6007,-66.0622 0.4881,-0.48818 -5.2898,-0.73226 -14.9312,-0.81362 z m 404.4331,2.26288 v 4.1698 h 7.6341 v 17.40386 h 6.3055 V 6.92213 h 7.6341 v -4.1698 z m 25.3685,0 v 21.57366 h 5.9432 V 9.87787 l 4.5321,9.37571 h 4.3542 l 4.5257,-9.37571 V 24.32599 H 1920 V 2.75233 h -7.3226 l -5.4855,10.81861 -5.4984,-10.81861 z m -1707.55516,57.45562 38.72962,0.32417 c 41.98284,0 52.07174,2.93158 55.32622,15.62407 2.60359,11.06524 -6.51023,28.63819 -19.20272,36.1235 -13.66883,8.46166 -90.14666,12.04413 -90.14666,4.23336 0,-2.60358 3.5812,-16.27368 7.81203,-30.59341 z M 1365.1868,85.06153 c -10.4947,0.042 -17.1674,0.20848 -17.4928,0.53393 -0.6509,0.6509 -14.6465,46.53531 -30.5934,101.86153 -16.2725,55.32622 -30.9176,104.47271 -32.5449,109.67991 l -1.7988,5.3902 h 115.7312 l 14.6197,-49.32573 c 8.4617,-29.29035 23.1081,-78.76104 32.2207,-110.00409 l 16.9208,-56.95346 -56.6293,-0.97889 c -15.6215,-0.16272 -29.9384,-0.24535 -40.4332,-0.2034 z m -936.2361,35.35437 -6.8332,23.76027 c -3.9053,12.69248 -7.4853,25.38497 -8.1362,27.66311 -0.9763,2.92903 18.876,3.90284 92.7528,3.90284 H 600.79 l 6.8331,-23.42974 c 3.9054,-13.01794 7.4853,-25.71043 8.1362,-27.66312 0.9764,-3.25448 -18.876,-4.23336 -92.7528,-4.23336 z m -275.65224,54.67786 44.58389,1.29672 c 53.69898,1.62724 61.51101,4.88299 61.51101,25.71169 0,10.73979 -1.95142,15.29607 -10.08763,22.78138 -5.53262,5.20718 -15.29988,10.74107 -21.80885,12.69376 -17.24876,4.55628 -91.7739,4.23337 -91.7739,-0.64836 0,-1.95269 3.90284,-16.60294 8.78457,-32.87536 z m 239.85294,65.73803 -3.2545,12.36958 c -1.9527,6.50897 -5.5314,19.52433 -8.4604,28.31143 -2.6036,9.1126 -7.1583,20.4205 -4.8817,20.5058 l 13.5709,0.5085 h 195.3072 l 2.3391,-8.6447 c 1.9527,-6.8344 5.5314,-19.5294 8.4604,-28.642 2.6036,-8.78708 4.8817,-18.22255 4.8817,-20.17524 0,-3.25448 -23.1068,-4.23337 -104.1434,-4.23337 z" />
</svg>
