<svg xmlns="http://www.w3.org/2000/svg" width="192" height="75" fill="none">
  <path fill="#CCC" d="M20.34 46.671c-3.311-7.305-.894-15.557 6.096-18.71 7.674-3.469 14.664.63 17.975 7.989l.316.735-21.129 9.618c2.733 5.361 8.462 8.252 14.454 5.572 3.206-1.472 5.57-3.995 6.675-7.253l2.207 1.156c-1.314 3.732-3.837 6.675-8.041 8.567-7.306 3.206-15.032.105-18.553-7.674zm7.148-16.345c-5.94 2.733-6.57 9.303-4.783 13.77l18.343-8.357c-1.998-4.257-7.253-8.304-13.56-5.413zM52.347 20.708c0-1.262 1.104-2.26 2.313-2.26 1.262 0 2.313.998 2.313 2.26a2.333 2.333 0 01-2.313 2.312c-1.209-.052-2.313-1.05-2.313-2.312zm.841 34.373V27.33h2.996v27.75h-2.996zM65.487 62.123l1.734-2.417c2.418 2.89 5.046 3.889 9.25 3.889 4.994 0 9.408-2.523 9.408-8.777v-4.415c-1.944 2.89-5.518 5.203-9.67 5.203-7.358 0-12.351-5.571-12.351-14.453 0-8.777 4.993-14.506 12.35-14.506 3.943 0 7.412 1.997 9.671 5.15V27.33h3.049v27.488c0 8.462-5.729 11.457-12.456 11.457-4.73.053-7.674-.788-10.985-4.152zm20.392-14.19V34.425c-1.629-2.68-5.308-5.045-9.145-5.045-6.149 0-9.723 5.098-9.723 11.825 0 6.728 3.574 11.773 9.723 11.773 3.89 0 7.569-2.365 9.145-5.045zM97.81 46.671c-3.311-7.305-.893-15.557 6.097-18.71 7.673-3.469 14.663.63 17.975 7.989l.315.735-21.128 9.618c2.733 5.361 8.461 8.252 14.453 5.572 3.206-1.472 5.571-3.995 6.675-7.253l2.207 1.156c-1.314 3.732-3.836 6.675-8.041 8.567-7.306 3.206-15.032.105-18.553-7.674zm7.148-16.345c-5.94 2.733-6.57 9.303-4.783 13.77l18.343-8.357c-1.997-4.257-7.253-8.304-13.56-5.413zM149.474 55.08V36.317c0-5.36-2.68-6.937-6.727-6.937-3.574 0-7.253 2.26-8.987 4.782v20.971h-3.049v-27.75h2.996v4.204c1.997-2.418 5.992-4.888 9.986-4.888 5.624 0 8.725 2.733 8.725 9.04v19.394h-2.944v-.053zM166.03 8.462v11.09h10.669v2.838H166.03v11.194h-3.048V22.39h-10.67v-2.838h10.67V8.461h3.048z"/>
  <path fill="#CCC" d="M191.731 75H0V0h191.731v75zM2.313 72.635h187.053V2.313H2.313v70.322z"/>
</svg>
