<svg viewBox="0 0 1446 400" xmlns="http://www.w3.org/2000/svg" fill-rule="evenodd" clip-rule="evenodd" stroke-linejoin="round" stroke-miterlimit="2"><path d="M575.496 77.415h-.012c-58.883 0-107.337 48.454-107.337 107.337v.001c.001 58.882 48.454 107.334 107.336 107.334h107.336V184.753c.001-58.879-48.445-107.33-107.323-107.338zm0 22.636c46.459.004 84.687 38.235 84.687 84.694v84.694h-84.7c-46.456-.004-84.683-38.23-84.687-84.686v-.008c0-46.462 38.232-84.694 84.694-84.694h.006z" fill="#228ec2" fill-rule="nonzero" stroke="#228ec2" stroke-width="9.17"/><path d="M585.418 194.555v35.713h-19.782v-35.713h-34.925v-19.607h34.925v-35.713h19.782v35.713h35.188v19.607h-35.188z" fill="#228ec2" fill-rule="nonzero" stroke="#228ec2" stroke-width="2"/><path d="M8.926 15.833v266.128a7.687 7.687 0 007.69 7.689c4.25 0 7.488-3.441 7.488-7.689v-91.475c0-33.596 22.869-66.382 47.357-82.571 10.118-6.677 21.856-10.524 33.594-10.524 45.333 0 58.69 42.095 58.69 88.439l-.202 95.928c-.203 5.058 3.845 7.488 7.69 7.488s7.488-2.44 7.488-7.285l.202-96.131c0-55.45-19.428-103.821-74.07-103.821-15.381 0-29.345 5.061-41.69 13.156-17 11.131-29.547 27.118-39.059 45.334V16.035c.202-5.06-3.643-7.487-7.488-7.487-3.845 0-7.69 2.414-7.69 7.285zM331.631 291.882c30.559 0 60.511-13.965 79.939-37.644 1.012-1.22 1.821-3.236 1.821-4.855 0-4.251-3.238-7.69-7.488-7.69-2.023 0-4.857 1.22-6.071 2.831-16.393 20.036-42.499 32.179-68.404 32.179-48.571 0-86.011-39.464-89.451-85.605l170.605-.259c7.69 0 7.893-8.097 7.893-15.787 0-52.417-42.905-94.512-94.309-94.512-56.059 0-99.57 48.573-99.57 103.821 0 58.487 46.345 107.464 105.034 107.464l.001.057zm73.665-116.571v.416l-163.117.259c4.048-42.905 38.452-80.141 83.785-80.141 43.309 0 79.332 35.415 79.332 79.534v-.068zM738.182 8.556a7.688 7.688 0 00-7.69 7.69v264.913a7.688 7.688 0 007.69 7.692c4.25 0 7.488-3.441 7.488-7.692V16.246c0-4.249-3.238-7.69-7.488-7.69zM884.413 289.456c12.548 0 23.881-4.858 32.583-11.536 1.62-1.22 3.238-4.049 3.238-6.073 0-4.248-3.44-7.69-7.69-7.69-1.417 0-3.44.805-4.655 1.609-6.881 5.261-14.976 8.297-24.892 8.297-19.024 0-25.905-13.962-25.905-33.798v-.259l.405-142.677h42.702c4.25 0 7.488-3.439 7.488-7.69 0-4.248-3.238-7.487-7.488-7.487h-42.5V29.736c0-4.249-3.237-7.69-7.487-7.69a7.688 7.688 0 00-7.691 7.69v52.416h-41.487a7.688 7.688 0 00-7.691 7.69c0 4.251 3.441 7.487 7.691 7.487h41.285l-.405 142.677v1.427c0 28.335 14.369 47.966 42.499 47.966v.057zM1256.12 82.017a7.688 7.688 0 00-7.691 7.69c0 1.012.405 2.439.81 3.239l91.273 195.903-13.964 35.01c-10.119 25.096-25.905 52.416-58.488 52.416-4.25 0-7.488 3.441-7.488 7.692 0 4.249 3.238 7.488 7.488 7.488 39.464 0 60.714-32.989 72.452-61.928l95.117-236.986c.405-.805.608-2.232.608-3.037 0-4.248-3.238-7.487-7.488-7.487-3.036 0-6.071 2.232-7.083 4.858l-73.261 182.748-85.404-182.95c-1.012-2.439-4.048-4.656-6.881-4.656h0zM967.907 15.833v266.128a7.687 7.687 0 007.69 7.689c4.25 0 7.488-3.441 7.488-7.689v-91.475c0-33.596 22.869-66.382 47.357-82.571 10.119-6.677 21.857-10.524 33.595-10.524 45.332 0 58.689 42.095 58.689 88.439l-.207 95.928c-.208 5.058 3.845 7.488 7.69 7.488s7.488-2.44 7.488-7.285l.208-96.131c0-55.45-19.429-103.821-74.071-103.821-15.38 0-29.344 5.061-41.69 13.156-17 11.131-29.547 27.118-39.059 45.334V16.035c.208-5.06-3.643-7.487-7.488-7.487-3.845 0-7.69 2.414-7.69 7.285z" fill="#666" fill-rule="nonzero" stroke="#666" stroke-width="16.22" stroke-linejoin="miter" stroke-miterlimit="4"/><g><path d="M1193.27 8.556a7.688 7.688 0 00-7.691 7.69v264.913a7.688 7.688 0 007.691 7.692c4.25 0 7.488-3.441 7.488-7.692V16.246c0-4.249-3.238-7.69-7.488-7.69z" fill="#666" fill-rule="nonzero" stroke="#666" stroke-width="16.22" stroke-linejoin="miter" stroke-miterlimit="4"/></g></svg>