<svg xmlns="http://www.w3.org/2000/svg" width="363" height="75" fill="none">
  <path fill="#CCC" d="M327.662 74.062c-.085-.515-.155-11.062-.154-23.437 0-17.366.071-22.637.309-23.099.306-.59.35-.597 4.034-.58 4.433.02 4.658.132 4.847 2.409.152 1.84.545 2.145 1.334 1.036 1.277-1.795 4.117-3.583 6.353-4 .545-.103 1.141-.31 1.325-.462.474-.392 4.435-.385 4.829.008.172.172.556.313.854.313 1.035 0 4.148 1.792 5.596 3.22 2.122 2.096 4.512 6.818 4.512 8.917 0 .455.169.996.375 1.202.3.3.375 1.115.375 4.036 0 2.92-.075 3.736-.375 4.036-.206.206-.375.747-.375 1.202 0 .936-.859 3.35-1.91 5.37-1.157 2.22-3.847 4.743-6.34 5.945-1.911.921-4.933 1.817-6.16 1.825-.823.007-4.187-.802-5.09-1.221-.846-.394-2.494-1.483-2.75-1.818-.069-.09-.35-.203-.625-.252-.49-.085-.501.068-.566 8.1L337.994 75h-10.177l-.155-.938zm19.582-20.683c2.15-1.09 3.483-2.88 4.282-5.754.651-2.344.342-7.332-.55-8.875a16.618 16.618 0 01-.56-1.133c-1.273-2.811-5.481-4.352-8.168-2.99-1.315.666-3.497 2.89-3.497 3.564 0 .255-.165.681-.367.948-.292.386-.367 1.431-.367 5.11 0 3.68.075 4.725.367 5.111.202.267.367.642.367.833 0 .631 1.759 2.508 2.952 3.15 1.64.882 3.843.896 5.541.036zM139.667 71.833c-.208-.208-.222-8.648-.014-9.188.088-.23.444-.395.854-.395.387 0 1.078-.185 1.536-.41.458-.226 1.249-.62 1.758-.876.508-.255 1.081-.464 1.273-.464.192 0 .553-.225.802-.5s.546-.5.661-.5c.46 0 2.807-2.186 3.464-3.226.206-.327.628-.904.938-1.283.309-.379.562-.855.562-1.06 0-.203.162-.504.359-.668.197-.164.436-.656.53-1.093a7.463 7.463 0 01.536-1.51c.448-.875.526-8.31.092-8.744-.147-.146-.267-.47-.267-.72 0-1.152-2.243-4.88-4.014-6.672-1.069-1.081-4.528-3.52-5.014-3.535-.191-.008-.797-.185-1.347-.397a13.504 13.504 0 00-1.875-.556l-.875-.17v-4.742c0-4.503.026-4.747.488-4.836.779-.15 5.352.945 6.512 1.56.413.22.947.4 1.188.4.24 0 .437.103.437.227 0 .124.338.343.751.487.414.145 1.353.662 2.089 1.15.735.488 1.423.888 1.527.888.105 0 1.351 1.188 2.768 2.64 3.021 3.096 3.841 4.32 6.015 8.984.937 2.011 1.424 4.76 1.527 8.626.132 4.902-.438 8.054-2.063 11.405-.475.98-.864 1.858-.864 1.953 0 .094-.393.687-.875 1.318-.481.63-.875 1.279-.875 1.442 0 .512-5.724 6.132-6.246 6.132-.267 0-.607.225-.754.5-.147.275-.448.5-.668.5-.221 0-.949.337-1.619.749-1.487.915-4.518 2-5.584 2-.431 0-1.002.166-1.268.368-.494.373-2.141.519-2.444.216h-.001zM88.625 61.607c-.687-.191-1.499-.35-1.804-.352-.544-.004-.809-.1-3.564-1.29-1.555-.67-4.831-3.165-5.281-4.02-.165-.314-.566-.89-.892-1.282-1.61-1.934-2.835-5.844-3.014-9.62-.21-4.425.23-6.575 2.15-10.532 1.07-2.201 3.445-4.785 5.79-6.294.924-.596 3.588-1.567 5.74-2.094 2.116-.518 6.501-.64 7.04-.196.185.152.87.356 1.525.453 3.546.528 7.605 3.267 9.857 6.65 1.667 2.506 3.081 7.316 3.075 10.457-.003 1.6-.646 5.136-1.296 7.138-.479 1.47-2.016 4.095-3.163 5.398-2.338 2.656-6.353 4.771-10.57 5.569-2.556.483-3.898.487-5.593.014v.001zm4.516-7.883c.094-.151.54-.43.994-.62.914-.381 2.342-2.01 2.939-3.354.956-2.152 1.313-6.249.805-9.25-.26-1.543-1.006-3.37-1.822-4.462-.849-1.137-1.165-1.395-2.491-2.03-1.534-.736-3.127-.662-4.91.225-1.821.907-2.86 2.288-3.758 4.994-.538 1.623-.647 2.412-.646 4.675 0 1.926.11 2.932.375 3.439.205.393.375.956.377 1.25.002.293.166.815.364 1.159.199.343.475.85.614 1.125.43.849 1.363 1.83 2.018 2.12.344.152.907.438 1.25.637.74.426 3.642.495 3.891.092zm108.735 7.896c-.825-.186-2.069-.345-2.765-.354-.701-.007-1.481-.18-1.75-.383-.267-.202-.725-.37-1.018-.375-1.908-.03-7.33-2.973-9.45-5.132-1.933-1.968-4.577-6.514-5.017-8.626-.101-.481-.274-.99-.386-1.129-.201-.25-.551-2.182-.982-5.409-.299-2.245.36-7.763 1.121-9.375.204-.433.372-.953.372-1.156 0-.202.235-.9.523-1.551 2.573-5.817 7.309-10.234 13.102-12.22 1.1-.377 2.337-.803 2.75-.946.412-.144 1.481-.352 2.375-.464.894-.111 2.075-.323 2.625-.47 1.503-.403 6.521-.345 8.209.095.792.206 1.947.375 2.565.375.619 0 1.429.153 1.801.34.371.188 1.18.405 1.797.485 1.343.171 2.115.946 1.909 1.915-.34 1.594-.844 3.446-1.112 4.088-.162.388-.294.97-.294 1.295 0 .69-.605 1.38-1.205 1.371-.231-.003-.911-.228-1.51-.5S214.135 23 213.755 23c-.38 0-1.17-.169-1.754-.375-1.483-.523-7.412-.523-8.664 0-.493.206-1.196.375-1.561.375s-.886.153-1.157.341a4.901 4.901 0 01-1.118.535c-.863.267-3.256 1.815-3.939 2.548-.745.799-2.561 3.541-2.561 3.867 0 .141-.16.555-.355.92-1.095 2.047-1.483 7.5-.763 10.71.41 1.83.448 1.935 1.529 4.204 1.511 3.174 5.471 6.124 9.22 6.87 2 .398 7.396.253 7.956-.213.357-.297.413-.982.413-5.063 0-3.594-.075-4.726-.313-4.747-.171-.015-1.51-.004-2.974.021-3.883.075-3.713.269-3.713-4.247 0-3.661.011-3.744.596-4.127.871-.57 16.543-.45 16.909.13.141.222.239 5.124.241 12.014.003 9.194-.065 11.734-.323 12.087-.328.45-1.975 1.003-4.298 1.446-.688.131-1.588.357-2 .504-.413.146-1.65.354-2.75.461-1.1.108-2.788.316-3.75.462-2.315.352-4.904.312-6.75-.104zm61.875-.007c-.619-.178-1.477-.331-1.907-.343-.43-.01-.922-.188-1.093-.395-.171-.206-.552-.375-.845-.375-.69 0-2.676-1.061-4.348-2.324-2.639-1.991-5.08-5.964-5.793-9.426a57.076 57.076 0 00-.523-2.25c-.338-1.312-.166-5.675.241-6.082.147-.147.268-.692.268-1.211 0-.519.241-1.48.535-2.138 1.813-4.043 2.004-4.35 3.903-6.262 1.727-1.74 4.324-3.557 5.083-3.557.153 0 .633-.151 1.066-.336 2.223-.949 6.437-1.55 8.288-1.181 4.549.905 6.145 1.444 8.118 2.74 3.494 2.296 6.066 5.996 6.972 10.027.139.619.37 1.575.513 2.125.372 1.432.331 4.576-.078 6.017a24.375 24.375 0 00-.514 2.233c-.183 1.128-1.086 3.557-1.532 4.125-.162.206-.374.635-.471.953-.097.317-1.038 1.464-2.092 2.547-1.401 1.44-2.44 2.243-3.865 2.985-1.073.559-2.141 1.019-2.375 1.023-.235.004-.645.173-.911.375-.267.202-.83.368-1.25.37-.421.002-1.384.17-2.14.372-1.632.438-3.694.433-5.25-.01v-.002zm5.317-8.292c.719-.374 1.533-.952 1.808-1.285.713-.863 1.874-3.032 1.879-3.508.002-.222.167-.874.368-1.45.398-1.141.468-4.634.122-6.078-.973-4.069-2.037-5.822-4.162-6.863-1.218-.596-1.636-.679-2.872-.567-4.15.377-6.71 4.255-6.71 10.165 0 3.13.751 5.98 2 7.592.575.742 1.595 1.673 1.833 1.673.117 0 .499.225.849.5.98.772 3.213.69 4.885-.18zm29.683 8.304c-.481-.185-1.119-.345-1.417-.356-.833-.029-2.841-1.127-4.006-2.188-1.234-1.127-2.824-3.48-2.835-4.2-.003-.279-.173-.724-.375-.991s-.367-.844-.367-1.281c0-.438-.169-1.274-.375-1.859-.312-.884-.374-2.92-.371-12.094.002-6.067.102-11.185.221-11.374.297-.47 9.351-.488 9.914-.02.317.262.369 1.77.356 10.37-.015 10.453.076 11.612 1.064 13.286.777 1.318 2.103 2.158 3.598 2.282 2.015.167 2.938-.107 4.221-1.255 2.199-1.968 2.122-1.48 2.122-13.512 0-8.077.075-10.689.313-11.013.273-.372.894-.43 4.92-.457 4.494-.031 4.619-.018 5.062.53.431.531.454 1.437.431 16.472-.015 8.75-.103 16.191-.199 16.535l-.174.625-4.015.068c-3.024.052-4.077-.01-4.263-.25-.509-.657-.865-2.554-.607-3.234.138-.362.183-.726.1-.808-.393-.393-1.037-.04-2.188 1.2-2.614 2.816-8.296 4.615-11.13 3.524zM0 37.5V13.75h4.855c2.67 0 5.032.068 5.25.152.356.137.395 2.449.395 23.598 0 21.15-.039 23.462-.395 23.598-.218.084-2.58.152-5.25.152H0V37.5zm16.55 23.45c-.455-.455-.43-32.925.025-33.548.284-.39.772-.446 3.937-.454 1.987-.006 3.808.071 4.046.17.513.216.939 1.596.94 3.055.001.576.114 1.117.251 1.202.137.084.953-.538 1.813-1.383 2.124-2.088 3.722-2.856 7.313-3.513 4.25-.777 9.267 1.677 11.34 5.545 1.92 3.584 2.06 4.65 2.205 16.726.072 6.029.03 11.004-.1 11.5l-.227.875h-9.968L38 50.25c-.116-10.016-.164-10.964-.607-12-.606-1.414-1.206-2.093-2.547-2.879-1.401-.82-3.288-.85-4.566-.068-2.223 1.358-3.846 3.82-3.508 5.322.286 1.27.258 19.602-.03 20.142-.243.452-.57.483-5.076.483-3.413 0-4.904-.087-5.116-.3zm39.867.133c-.092-.091-.167-5.836-.167-12.766 0-8.276-.09-12.767-.26-13.087-.224-.417-.51-.483-1.974-.453-.942.018-1.837-.042-1.99-.136-.345-.213-.374-6.849-.032-7.391.182-.287.647-.359 1.983-.305 2.067.083 2.273-.122 2.273-2.273 0-.749.168-1.765.374-2.259.207-.493.375-1.27.375-1.724 0-.456.152-1.05.338-1.321.186-.271.418-.825.517-1.23.255-1.047 2.393-4.148 3.074-4.458.314-.143.571-.335.571-.426 0-.091.819-.575 1.819-1.076 1.945-.975 4.729-1.678 6.635-1.678 1.3 0 4.73.6 5 .873.094.096.152 1.633.129 3.415-.057 4.304-.188 4.525-2.55 4.306-1.058-.099-2.039-.048-2.586.132-1.326.438-2.526 1.893-3.022 3.665-.527 1.883-.528 2.191-.007 3.29l.418.881 2.456-.118c3.54-.17 3.458-.268 3.458 4.078 0 4.147.161 3.969-3.424 3.781-1.65-.086-2.428-.028-2.698.194-.33.273-.378 1.984-.378 13.132 0 11.457-.042 12.834-.396 12.97-.54.206-9.73.193-9.938-.015h.002zm172.001 0c-.278-.277-.199-33.784.08-33.956.478-.296 7.467-.217 7.835.087.423.352.918 2.674.918 4.313 0 .656.104 1.258.231 1.336.252.156 1.119-.947 1.488-1.893.394-1.008 1.922-2.568 3.066-3.13 3.28-1.609 5.197-1.978 6.143-1.18.525.442.555.67.605 4.66.032 2.656-.044 4.29-.21 4.456-.144.144-1.203.285-2.355.313-1.151.03-2.339.189-2.639.356-.301.168-.723.305-.938.305-.643 0-3.233 2.795-3.6 3.884-.258.767-.323 3.124-.288 10.437.032 7.118-.029 9.535-.26 9.812-.249.3-1.188.367-5.107.367-2.642 0-4.878-.075-4.97-.166h.001zm-93.417-9.168c-.757-.16-1.621-.432-1.922-.604-.3-.171-.753-.31-1.006-.31-.254 0-.683-.155-.954-.344-.272-.189-.858-.422-1.303-.52-.445-.096-.875-.28-.955-.41-.079-.129-.503-.4-.94-.6-1.101-.507-1.636-.864-2.812-1.877-.558-.481-1.233-1.02-1.5-1.197l-.747-.5c-.272-.184-3.746-4.58-4.3-5.44A7.903 7.903 0 01118 39a6.636 6.636 0 00-.501-1 4.416 4.416 0 01-.391-.75 20.51 20.51 0 00-.49-1.125 8.81 8.81 0 01-.518-1.5c-.093-.412-.267-.875-.387-1.029-.637-.814-1.032-7.278-.647-10.596.322-2.778.751-4.198 2.269-7.5.221-.481.517-1.156.658-1.5.277-.676.402-.879 1.831-2.98 1.314-1.931 4.316-4.967 5.332-5.392.465-.194.844-.452.844-.574 0-.122.591-.529 1.313-.904s1.481-.78 1.688-.9c1.558-.91 5.605-2.25 6.792-2.25 1.161 0 1.708-.209 1.708-.652 0-.191.21-.348.468-.348.661 0 .782.867.78 5.594l-.002 4.031-.985.563c-.542.309-1.321.562-1.731.562-.41 0-.908.163-1.108.363-.199.2-.658.437-1.02.527-.361.091-.72.267-.797.391-.077.125-.498.384-.935.576-1.417.623-5.671 5.058-5.671 5.913 0 .264-.103.48-.23.48s-.367.422-.533.938c-.166.515-.381 1.05-.478 1.187-.353.501-.718 3.053-.746 5.211-.029 2.337.365 4.954.873 5.79.168.274.377.809.464 1.187.088.378.27.687.405.687s.245.135.245.3c0 .499 1.293 2.245 2.749 3.714 1.433 1.445 3.676 3.032 4.751 3.362.344.105.847.345 1.118.533.272.188.975.341 1.563.341.736 0 1.225.156 1.569.5.461.46.5.834.5 4.736 0 2.329-.095 4.294-.211 4.365-.491.304-2.26.336-3.538.064z"/>
</svg>
