<svg xmlns="http://www.w3.org/2000/svg" width="125" height="75" fill="none">
  <path fill="#CCC" d="M.23 74.616c.127-.211 1.269-2.297 2.537-4.636l5.485-10.098c1.748-3.216 4.743-8.73 6.656-12.254l3.477-6.407h4.979l.85 5.935c1.963 13.704 3.911 27.217 3.967 27.52l.06.324H23.21l-.506-3.552c-.278-1.953-.532-3.655-.565-3.78-.059-.224-.216-.228-6.385-.199L9.43 67.5l-2.126 3.75L5.178 75H0l.23-.384zM21.53 62.9c.065-.065-1.703-14.315-1.786-14.393-.033-.03-.92 1.52-1.97 3.446a9380.86 9380.86 0 01-3.884 7.103c-1.084 1.981-1.997 3.669-2.028 3.75-.055.144 9.525.237 9.668.094zm43.115 6.115c-.517-.034-.733-.093-.697-.191.029-.078.177-.793.33-1.59l.276-1.448.597.09c1.389.208 2.135.01 2.742-.727.807-.982.851-.307-.506-7.805-.67-3.703-1.22-6.773-1.222-6.821-.002-.05.862-.089 1.92-.089h1.924l.569 4.813c.313 2.647.594 4.893.625 4.99.057.18.96-1.622 4.154-8.297l.721-1.506h1.964c1.587 0 1.952.03 1.903.157-.033.087-.773 1.43-1.644 2.983-.871 1.553-2.883 5.152-4.47 7.996-3.149 5.64-3.444 6.1-4.29 6.668-.983.661-2.645.925-4.896.777zm-17.637-4.528c-2.778-.47-4.064-2.971-2.824-5.492.855-1.735 2.43-2.454 6.21-2.832 3.303-.331 3.958-.685 3.804-2.053-.237-2.097-4.577-1.977-5.109.14l-.08.318h-3.536l.078-.384c.626-3.074 4.613-4.819 8.858-3.878 3.475.77 3.853 2.085 2.415 8.396-.62 2.72-.742 3.435-.75 4.4l-.011 1.15h-3.72v-1.323l-.438.384c-1.115.98-3.154 1.468-4.897 1.174zm3.432-2.487c1.264-.27 2.014-1.124 2.63-2.992.487-1.48.487-1.454-.008-1.198-.2.104-.803.242-1.34.307-2.852.346-3.26.46-3.83 1.075-1.425 1.535.19 3.314 2.548 2.808zm50.864 2.484c-3.208-.503-4.71-2.348-4.713-5.782-.002-5.205 3.084-8.571 7.838-8.547 3.544.017 5.747 1.6 5.992 4.302l.064.701h-3.673l-.08-.47c-.322-1.904-2.96-2.43-4.614-.92-1.757 1.606-2.404 5.694-1.139 7.198 1.261 1.498 3.847.878 4.808-1.152l.302-.64h1.827c2.143 0 2.047-.107 1.28 1.424-1.479 2.956-4.461 4.424-7.892 3.886zm14.463.046c-3.022-.401-4.724-1.892-4.724-4.137v-.628h3.425v.366c0 1.335 1.772 2.266 3.587 1.883 1.069-.225 1.551-.723 1.551-1.603 0-.97-.311-1.195-2.702-1.956-3.751-1.194-4.471-1.814-4.494-3.87-.029-2.564 1.971-4.194 5.467-4.458 3.613-.272 5.937 1.088 6.226 3.644l.077.679h-1.785c-1.718 0-1.785-.01-1.785-.241 0-.422-.462-1.164-.858-1.38-.981-.534-3.182-.12-3.505.658-.391.944.097 1.373 2.454 2.154 3.734 1.239 4.663 2.08 4.67 4.227.011 3.112-3.423 5.217-7.604 4.662zm-31.83-.166c-1.744-.227-2.653-1.095-2.652-2.532 0-.325.388-2.439.862-4.697.473-2.258.835-4.132.804-4.163-.032-.032-.58-.058-1.22-.058-.638 0-1.158-.04-1.155-.088.003-.049.125-.594.272-1.21l.266-1.123 1.228-.059 1.228-.059.412-2.037.411-2.038h1.868c1.028 0 1.868.019 1.868.04 0 .058-.692 3.506-.768 3.828-.062.264-.053.266 1.298.266.748 0 1.358.04 1.355.089a29.07 29.07 0 01-.272 1.21l-.267 1.122-1.291.034c-.71.019-1.331.074-1.38.122-.206.206-1.623 7.577-1.512 7.868.207.545.614.698 1.67.626.693-.048.935-.029.898.072-.027.075-.173.695-.322 1.377-.15.682-.304 1.273-.343 1.313-.117.124-2.506.195-3.258.097zm-55.767-.377c.08-.316 2.794-13.442 2.794-13.508 0-.025.797-.045 1.772-.045 2.017 0 1.884-.093 1.595 1.117-.212.887-.22.884.505.185 2.255-2.174 6.517-2.204 7.72-.055.724 1.293.696 1.644-.614 7.9l-.978 4.672h-1.87c-1.029 0-1.87-.023-1.87-.05 0-.029.349-1.716.775-3.75 1.277-6.093 1.283-6.14.805-6.707-.92-1.094-2.914-.851-4.139.505-.8.886-1.063 1.683-1.969 5.983l-.846 4.018h-3.746l.066-.265zm30.078.17c0-.052.162-.835.36-1.741.2-.906.809-3.72 1.356-6.254l2.06-9.541c.586-2.714 1.066-4.96 1.066-4.989 0-.03-.353-.214-.784-.41-5.283-2.395-8.5-8.589-7.419-14.285 2.026-10.682 15.04-14.638 22.545-6.853 8.021 8.321 2.215 22.23-9.335 22.361l-1.43.017-.603 2.775-2.267 10.453c-.915 4.222-1.717 7.876-1.78 8.12l-.117.443h-1.826c-1.005 0-1.826-.043-1.826-.095zm12.46-24.228c7.526-1.98 10.697-10.986 6.076-17.255-5.325-7.224-16.702-5.298-19.408 3.286-2.575 8.17 5.04 16.15 13.332 13.97zm-8.327-9.396a.06.06 0 01.06-.06.06.06 0 11-.06.06zm26.837 33.454c.029-.146.683-3.255 1.454-6.91l1.402-6.643h1.866c1.111 0 1.867.046 1.867.113 0 .062-.23 1.192-.512 2.51-.282 1.318-.933 4.376-1.447 6.796l-.935 4.4h-3.748l.053-.266zm3.34-15.945c.034-.146.186-.823.336-1.506l.274-1.24 1.907-.032c1.504-.026 1.897 0 1.859.118-.027.083-.162.682-.302 1.332-.139.65-.28 1.274-.31 1.387-.053.186-.25.207-1.943.207h-1.884l.063-.266zM2.295 39.213c.025-.098 1.874-8.96 4.109-19.695L10.468 0l6.675.002c9.761.003 11.9.457 14.547 3.084 3.733 3.705 2.324 12-2.591 15.264-2.697 1.791-4.395 2.082-12.169 2.085-3.162 0-5.812.042-5.889.09-.076.049-1.107 4.314-2.29 9.477l-2.15 9.388H4.427c-1.874 0-2.169-.025-2.13-.177zm21.858-23.55c3.233-.954 5.33-4.308 4.79-7.662-.513-3.18-2.89-4.103-10.578-4.103h-3.563l-.082.383c-.045.212-.66 2.877-1.368 5.925-.707 3.046-1.286 5.588-1.286 5.647 0 .218 11.308.04 12.087-.19zm-11.26 23.704c0-.013.295-1.448.656-3.19.36-1.74.971-4.706 1.357-6.59.386-1.884.73-3.545.764-3.691.063-.268 3.603-.443 3.6-.178 0 .05-.106.53-.236 1.071-.296 1.237-.291 1.506.018.92.552-1.046 1.877-2.007 3.185-2.308.59-.136 2.467-.168 2.467-.042 0 .046-.169.871-.376 1.835l-.375 1.751-.54-.093c-1.63-.28-2.94.05-3.86.97-1.095 1.094-1.326 1.76-2.354 6.757l-.563 2.74-1.871.036c-1.03.019-1.872.025-1.872.012zm10.866-.107c0-.112 1.41-6.854 2.474-11.833.199-.928.361-1.712.361-1.742 0-.03.857-.055 1.904-.055 1.754 0 1.899.016 1.85.207-.03.113-.686 3.194-1.46 6.845L27.48 39.32l-1.86.035c-1.292.024-1.86-.005-1.86-.095zm6.497.018c0-.061.475-2.4 1.056-5.197.58-2.797 1.209-5.829 1.396-6.739l.34-1.653 1.792-.033c.987-.018 1.791.009 1.79.06-.003.05-.082.41-.176.8-.25 1.035-.234 1.048.455.358 2.246-2.246 6.542-2.145 7.365.173l.2.563.48-.516c2.18-2.35 6.413-2.42 7.883-.13.517.805.589 1.964.23 3.695-.135.644-.592 2.814-1.016 4.82-.425 2.007-.772 3.692-.772 3.745 0 .052-.85.111-1.89.13-1.04.02-1.89.014-1.89-.014 0-.027.317-1.568.703-3.425 1.335-6.416 1.318-6.3 1.036-6.856-.59-1.168-2.426-1.094-3.668.148-.926.926-1.181 1.662-2.116 6.103l-.844 4.01-1.867.035c-1.387.026-1.866-.002-1.866-.106 0-.134.859-4.333 1.48-7.241.432-2.016.462-2.363.253-2.865-.547-1.308-2.608-1.199-3.839.203-.911 1.038-1.128 1.773-2.496 8.45-.14.681-.277 1.32-.305 1.417-.059.206-3.714.271-3.714.065zm-3.298-15.272c.005-.114.151-.818.325-1.565l.315-1.358 1.86-.033c1.526-.027 1.86-.003 1.86.132 0 .216-.586 2.81-.663 2.934-.135.22-3.707.113-3.697-.11z"/>
</svg>
