<svg xmlns="http://www.w3.org/2000/svg" width="539" height="60" fill="none">
  <path fill="#CCC" d="M9.793 58.529c-3.298-1.123-8.307-4.324-8.307-5.308 0-.296.883-1.61 1.962-2.919l1.962-2.38 1.384 1.266c5.177 4.735 14.369 5.56 17.506 1.572 2.453-3.118.456-6.359-4.823-7.827C5.937 39.167 2.893 36.737 2.79 29.61c-.15-10.348 12.11-15.198 24.162-9.558 4.596 2.15 4.572 2.102 2.495 5.158-1.807 2.66-1.508 2.578-4.05 1.101C18.11 22.074 8.496 24.427 9.92 30.1c.554 2.206 2.515 3.355 8.711 5.1 9.087 2.559 12.705 5.236 13.608 10.069 2.009 10.754-9.624 17.625-22.445 13.26zm31.539-19.46V18.356H51.735l6.268 12.927 6.268 12.927 2.45-5.171c1.349-2.844 4.119-8.661 6.157-12.927l3.704-7.756h10.39l-.16 20.53-.16 20.532H80.57l-.304-15.513-.304-15.512-6.996 13.688c-9.518 18.62-8.366 18.62-17.642.002L48.327 28.04l-.304 15.688-.304 15.688-3.194.184-3.193.183V39.07zM93.04 59.433c0-.612 17.202-39.523 17.836-40.345.402-.52 1.756-.727 3.997-.608l3.388.18 8.905 20.075c9.632 21.714 9.5 21.144 4.851 20.87l-3.171-.187-1.967-4.563-1.968-4.562-10.162-.167-10.162-.167-2.276 4.73-2.276 4.729-3.497.182c-1.924.1-3.498.026-3.498-.167zm28.594-15.984c.009-1.227-6.932-15.969-7.319-15.545-.592.648-6.675 14.718-6.675 15.44 0 .31 3.123.561 6.995.561 3.848 0 6.998-.205 6.999-.456zm20.349 15.508c-.162-.421-.222-9.66-.133-20.532l.16-19.765 10.038.05c18.068.09 23.448 3.643 22.311 14.74-.546 5.327-2.167 7.68-7.432 10.792-.975.576-.581 1.334 3.88 7.473 6.018 8.281 5.999 8.108.88 7.883l-4.086-.18-4.872-6.844-4.872-6.844H149.006v6.627c0 7.376.006 7.365-4.327 7.365-1.369 0-2.529-.33-2.696-.765zm19.259-19.916c4.401-.815 6.014-2.629 6.014-6.768 0-5.942-2.103-7.226-11.843-7.226h-6.407v14.6h4.479c2.464 0 5.954-.273 7.757-.606zm31.361 20.276c-.223-.224-.406-8.025-.406-17.338V25.046h-12.166V18.355H211.664V25.046h-12.167v16.968c0 14.912-.116 17.013-.962 17.338-1.292.496-5.425.47-5.932-.036zm51.602-.355c-3.423-9.614-13.683-39.645-13.683-40.05 0-.306 1.496-.556 3.325-.556 4.031 0 3.194-1.437 9.193 15.76 2.615 7.498 4.898 13.247 5.072 12.776.174-.472 2.246-7.017 4.604-14.545l4.288-13.687 3.069-.18 3.07-.18 4.497 14.605c2.474 8.032 4.603 14.498 4.733 14.369.13-.13 2.47-6.621 5.201-14.425l4.965-14.19 2.962-.188c1.629-.103 3.304-.057 3.722.103.537.207-1.316 6.205-6.354 20.568l-7.114 20.276-3.112.182c-3.839.226-3.293 1.193-7.998-14.174-4.69-15.318-4.276-14.212-4.892-13.079-.273.502-2.203 6.525-4.29 13.383-4.405 14.481-4.125 13.992-8.001 13.992-1.839 0-3.09-.292-3.257-.76zm52.298.006c-.164-.427-.226-9.671-.138-20.542l.161-19.766 14.144-.163 14.143-.164v6.714h-21.291v10.95h19.466v6.084h-19.466v10.922l11.102.166 11.102.166v6.083l-14.463.163c-11.287.127-14.528-.007-14.76-.613zm38.5.42c-.251-.262-.456-9.637-.456-20.833V18.2l10.189.325c11.506.366 14.171.953 16.944 3.726 4.118 4.118 4.215 9.916.232 13.899l-2.342 2.342 1.632.618c8.089 3.064 7.918 14.541-.276 18.55-3.383 1.655-24.638 3.072-25.923 1.728zm21.877-6.996c2.752-.96 4.041-4.593 2.59-7.304-1.246-2.328-3.777-3.008-11.206-3.008h-7.026v5.07c0 2.788.183 5.252.406 5.475.656.656 13.237.464 15.236-.233zm-1.694-17.893c2.524-1.305 3.155-3.649 1.79-6.645-1.026-2.252-3.281-2.876-9.687-2.68l-5.747.177-.176 5.02-.177 5.018h6.138c4.198 0 6.683-.282 7.859-.89zm26.362 24.052c-2.943-1.003-7.704-3.831-8.432-5.008-.847-1.372 3.583-5.413 4.879-4.45 7.906 5.865 17.972 5.542 18.49-.593.252-2.987-.889-4.182-5.238-5.485-11.797-3.536-14.607-5.13-16.337-9.27-4.728-11.316 9.862-20.23 22.936-14.012 5.379 2.557 5.305 2.44 3.344 5.269-1.967 2.838-1.781 2.755-3.55 1.597-6.1-3.991-16.252-2.737-16.252 2.007 0 3.476 1.646 4.545 11.29 7.331 7.507 2.17 10.632 5.162 11.084 10.612.857 10.339-9.955 16.18-22.214 12.002zm31.617.68c-.599-.393-.734-4.921-.608-20.537l.16-20.034h6.692l.169 8.669.168 8.668h9.413c5.177 0 9.617.069 9.868.152.251.084.532-3.886.625-8.82l.168-8.973H446.479v41.43l-3.193-.184-3.194-.184-.169-8.365-.17-8.364h-20.006l-.169 8.364-.169 8.365-2.738.158c-1.505.087-3.083-.068-3.506-.345zm57.343-.33c-18.511-6.077-20.248-31-2.737-39.27 7.851-3.707 19.823-1.362 25.217 4.94 13.882 16.217-2.313 40.95-22.48 34.33zm12.943-7.018c13.471-6.872 8.519-27.782-6.555-27.683-7.355.048-12.6 4.388-13.942 11.535-2.288 12.185 9.721 21.646 20.497 16.148zm24.295 7.462c-.238-.239-.434-9.559-.434-20.712V18.355l6.844.018c19.337.053 25.598 4.154 24.636 16.134-.722 8.997-5.338 12.413-17.447 12.912l-7.299.3-.173 5.85-.173 5.848-2.76.18c-1.518.1-2.956-.015-3.194-.254zm17.725-18.452c3.57-.051 6.175-3.317 6.175-7.741 0-6.377-2.525-8.105-11.843-8.105h-5.799v7.807c0 9.222-.533 8.343 4.967 8.191 2.454-.067 5.379-.135 6.5-.152zM3.562 7.124a3.562 3.562 0 100-7.124 3.562 3.562 0 000 7.124zM15.858 7.124a3.562 3.562 0 100-7.124 3.562 3.562 0 000 7.124zM28.113 7.124a3.562 3.562 0 100-7.124 3.562 3.562 0 000 7.124z"/>
</svg>
