<svg xmlns="http://www.w3.org/2000/svg" width="266" height="75" fill="none">
  <path fill="#CCC" d="M36.828 74.602c-2.451-.69-2.486-.728-1.999-2.2.23-.697.51-1.366.62-1.489.11-.122.782.088 1.494.467 1.61.857 3.774.954 4.455.201.57-.63.555-1.89-.031-2.611-.253-.312-1.57-1.134-2.927-1.827-2.62-1.338-3.297-2.014-3.769-3.768-.61-2.266.605-4.323 2.967-5.025 1.704-.506 2.192-.506 4.415.002 2.59.591 2.601.602 2.062 2.226-.25.75-.508 1.364-.576 1.364-.067 0-.592-.24-1.167-.533-1.954-.997-4.53-.492-4.53.888 0 1.046.797 1.78 3.075 2.832 2.449 1.132 3.04 1.591 3.687 2.862.572 1.126.555 3.432-.034 4.61-.974 1.948-4.598 2.884-7.742 2zm14.274.019c-1.469-.525-2.265-1.12-2.795-2.089-.416-.76-.472-1.653-.472-7.525v-6.663h2.932l.133 6.13c.138 6.345.275 7.126 1.305 7.453 1.742.552 3.823.037 5.019-1.244.572-.613.597-.853.666-6.487l.072-5.852h2.932V74.6l-1.533.08-1.532.08v-.813c0-.946-.162-1-.916-.306-.69.635-2.827 1.363-3.957 1.347-.471-.006-1.305-.171-1.854-.367zm27.035-.188c-1.685-.834-2.532-2.087-2.667-3.944-.132-1.825.466-3.214 1.94-4.509 1.525-1.339 2.663-1.716 5.269-1.746 2.144-.025 2.33-.07 2.33-.56 0-.966-.973-2.194-2.01-2.536-1.211-.4-3.073-.177-4.431.53l-1 .522-.662-1.112c-.777-1.302-.66-1.554 1.084-2.325 1.78-.787 3.951-.943 5.964-.428 1.893.485 2.694 1.092 3.543 2.684.503.945.584 1.633.707 6.042.128 4.626.18 5.032.738 5.785.699.944.777 1.846.18 2.075-.678.26-2.6-.423-3.196-1.137l-.551-.66-.729.574c-1.686 1.326-4.65 1.665-6.51.745zm5.623-2.892l1.251-.793v-4.066l-2.13.097c-2.032.092-2.172.14-3.084 1.052-1.315 1.315-1.539 2.839-.56 3.818 1.005 1.004 2.838.96 4.523-.108zm29.342 2.99c-3.521-1.263-5.47-4.633-5.082-8.785.201-2.158.851-3.594 2.404-5.312 1.34-1.483 2.667-2.105 5.105-2.391 1.555-.183 4.309.482 5.333 1.288l.647.508-.696 1.052c-.383.578-.745 1.05-.804 1.05-.06 0-.579-.239-1.153-.532-1.265-.645-3.678-.712-4.797-.134-1.802.932-2.801 3.24-2.602 6.013.149 2.084.746 3.297 2.056 4.18 1.203.81 3.961.845 5.412.068.547-.293 1.112-.533 1.257-.533.266 0 1.338 1.897 1.338 2.368 0 .481-3.002 1.385-5.037 1.517-1.545.1-2.346.015-3.381-.356zm15.393.09c-2.334-.763-3.861-2.215-4.648-4.418-1.61-4.506-.01-9.443 3.67-11.326 1.314-.672 1.864-.798 3.46-.789 1.156.006 2.385.197 3.144.487 2.318.885 4.188 3.769 4.188 6.457 0 2.086.344 1.973-6.024 1.973h-5.701v.743c0 1.123 1.086 3.042 2.105 3.719 1.235.82 4.267.858 5.563.068.48-.293.987-.532 1.127-.532s.505.49.811 1.09c.535 1.049.538 1.104.072 1.455-1.52 1.146-5.755 1.732-7.767 1.074zm6.494-10.747c-.462-1.879-1.957-2.995-4.012-2.997-2.174-.002-3.636 1.075-4.25 3.13l-.179.6H135.169l-.18-.733zm17.178 10.955c-2.016-.653-2.665-.988-2.665-1.374 0-.666.84-2.719 1.113-2.719.132 0 .689.229 1.236.508 3.158 1.611 6.333.579 6.633-2.157.204-1.865-.588-2.75-3.916-4.381-1.934-.948-3.088-1.703-3.762-2.464-2.707-3.05-1.725-8.045 1.887-9.599 2.099-.903 6.884-.655 7.761.403.365.44-.17 2.736-.683 2.933-.17.066-.841-.123-1.491-.418-.702-.318-1.761-.539-2.602-.542-1.218-.005-1.531.105-2.199.773-.653.653-.779.994-.779 2.112 0 1.875.831 2.774 3.888 4.202 2.888 1.35 4.013 2.238 4.672 3.689.593 1.306.666 4.296.136 5.566-.511 1.222-2.43 2.778-4.002 3.245-1.254.372-4.357.504-5.227.223zm16.79-.256c-2.167-.79-3.358-1.822-4.293-3.72-.77-1.565-.857-1.981-.851-4.062.009-2.648.446-4.098 1.75-5.8 2.174-2.84 5.988-3.755 9.414-2.258 2.362 1.033 3.917 3.686 3.786 6.46l-.08 1.679-5.796.072-5.796.072v.737c0 1.118 1.088 3.038 2.104 3.714 1.249.83 4.268.858 5.59.052.494-.302 1.058-.487 1.252-.413.477.183 1.252 1.725 1.085 2.16-.224.583-3.119 1.507-5.101 1.63-1.309.08-2.223-.017-3.064-.323zm6.661-10.512c0-1.77-1.755-3.183-3.957-3.184-2.329-.002-3.789 1.031-4.425 3.13l-.181.6h4.282c4.138 0 4.281-.018 4.281-.546zM198.02 74.4c-.66-1.666-4.363-10.527-5.37-12.847l-1.151-2.652-.492 1.127-.492 1.128-1.315-.174c-1.695-.225-2.743.209-3.519 1.457-.562.903-.611 1.342-.735 6.564l-.134 5.596-1.532.08-1.532.08V58.211h1.279c1.438 0 1.915.327 1.927 1.32.007.591.043.618.28.21.432-.74 2.377-1.596 3.699-1.626.665-.016 2.233 0 3.485.034l2.276.062 1.492 3.797c.821 2.09 1.705 4.398 1.966 5.13.26.733.553 1.427.651 1.542.15.176 2.175-4.643 3.867-9.203l.469-1.266h1.592c1.946 0 1.986-.367-.622 5.638l-3.365 7.753c-1.147 2.645-1.586 3.398-1.98 3.398-.279 0-.614-.27-.744-.6zm23.302.226c-3.871-1.224-5.653-4.028-5.409-8.511.195-3.581 1.603-5.91 4.402-7.28 2.102-1.028 5.116-1.037 7.336-.023.843.386 1.532.846 1.532 1.024 0 .177-.305.723-.679 1.213l-.679.89-1.096-.56c-1.454-.741-4.346-.637-5.464.198-2.664 1.989-2.814 7.813-.25 9.723 1.221.909 4.182 1.044 5.717.262.604-.308 1.198-.56 1.322-.56.123 0 .485.538.805 1.196l.581 1.196-.994.503c-2.069 1.047-5.13 1.36-7.124.73zm15.412.134c-1.094-.282-2.997-1.405-3.729-2.2-2.129-2.316-2.704-6.935-1.245-10.01.669-1.41 2.996-3.667 4.222-4.094.584-.204 1.962-.364 3.061-.356 2.545.019 4.182.75 5.48 2.45 1.114 1.46 1.501 2.788 1.396 4.799l-.08 1.522-5.796.072-5.796.072v.687c0 1.432 1.519 3.61 2.879 4.13 1.234.47 3.693.336 4.843-.263.598-.312 1.182-.567 1.297-.567.116 0 .47.462.788 1.028.546.972.553 1.05.115 1.438-1.167 1.034-5.509 1.789-7.435 1.292zm6.04-10.7c0-1.765-1.756-3.183-3.944-3.184-2.155-.002-3.362.79-4.177 2.74l-.414.99h4.268c4.124 0 4.267-.019 4.267-.546zm7.462 10.564l-1.799-.563c-.339-.108-.599-.406-.599-.687 0-.53.778-2.639.974-2.639.064 0 .679.3 1.368.666 1.567.835 3.739.923 4.412.18.576-.637.563-1.973-.025-2.678-.257-.307-1.426-1.035-2.599-1.617-1.172-.583-2.326-1.217-2.564-1.408-.925-.746-1.564-2.19-1.564-3.537 0-3.344 2.931-4.987 7.194-4.033 2.749.616 2.758.623 2.379 2.13-.172.685-.415 1.308-.538 1.384-.124.077-.704-.105-1.289-.404-2.25-1.148-4.84-.399-4.419 1.277.273 1.087.582 1.334 3.227 2.57 3.073 1.435 3.961 2.538 3.961 4.913 0 1.886-.691 3.138-2.193 3.97-1.41.78-4.223 1.006-5.926.476zm-239.183-.212c-.073-.19-.102-5.203-.063-11.139l.07-10.793H14.257v22.12l-1.536.08c-1.076.055-1.576-.025-1.669-.268zm7.93-7.854l.071-8.201.863-.07c.69-.056.952.075 1.318.66.25.4.485.77.52.822.034.052.467-.215.962-.592 1.33-1.014 3.302-1.4 5.1-.997 1.683.376 2.645 1.165 3.37 2.76.46 1.018.514 1.786.52 7.477l.006 6.342-1.533-.08-1.532-.08-.133-6.009c-.146-6.556-.305-7.247-1.752-7.61-1.294-.325-3.039.055-3.86.842l-.774.742-.072 6.018-.071 6.017-1.537.08-1.536.08.07-8.2zm45.837 0l.07-8.201.934-.08c1.633-.141 2.132.105 2.132 1.054v.844l.769-.737c.423-.405 1.233-.898 1.799-1.095.96-.333 3.71-.339 4.042-.007.081.08-.09.715-.38 1.41l-.526 1.262-1.591-.087c-1.311-.072-1.72.014-2.325.49-1.504 1.184-1.644 1.785-1.788 7.725l-.134 5.463-1.536.08-1.536.08.07-8.2zm27.716.01l.07-8.19.851-.097c.698-.08.936.037 1.319.649.257.41.495.788.53.84.035.05.468-.216.963-.593 2.056-1.569 5.737-1.52 7.355.099 1.677 1.676 1.774 2.172 1.774 9.06V74.6l-1.441.082c-.972.056-1.512-.031-1.661-.266-.122-.192-.223-2.781-.225-5.754-.006-7.026-.293-7.786-2.945-7.786-1.122 0-2.767.613-3.127 1.165-.107.165-.255 3.059-.328 6.43l-.134 6.13-1.536.08-1.536.08.07-8.191zm117.105 7.987c-.098-.098-.178-3.149-.178-6.78v-6.601l-.999-.083-1-.083v-2.665l2.598-.076 2.599-.076v16.542h-1.422c-.781 0-1.501-.08-1.598-.178zm.524-18.763c-1.389-1.092-.682-3.445 1.035-3.445 1.822 0 2.641 2.042 1.34 3.343-.799.8-1.453.828-2.375.102zm-8.86-18.376c-3.622-.486-5.317-1.227-7.012-3.066-1.146-1.243-1.153-1.265-1.012-2.83.132-1.455.736-2.906 1.198-2.88.106.006.468.596.803 1.311.681 1.454 2.148 2.557 4.851 3.649 3.188 1.288 11.821 2.006 17.325 1.441 4.987-.512 10.545-1.506 14.887-2.663 4.033-1.074 5.451-1.316 4.953-.844-.23.218-5.077 1.787-9.847 3.188-2.787.819-7.75 1.843-11.269 2.325-3.51.481-12.397.701-14.877.369zM53.423 33.76c-1.259-1.868-3.898-5.736-5.864-8.594-1.966-2.858-4.78-6.995-6.252-9.194l-2.677-3.997.072 11.55.073 11.552.733.584c.402.322.732.67.732.774 0 .105-1.139.19-2.531.19-1.393 0-2.532-.083-2.532-.185s.33-.53.733-.95l.733-.765.076-12.585.076-12.584-1.028-1.589c-.565-.874-1.75-2.347-2.633-3.273L31.53 3.01l-2.278 1.13-2.278 1.13-1.344-.579c-1.132-.487-1.85-.578-4.559-.578h-3.215V34.72l.666.792c.367.435.666.864.666.953 0 .089-1.499.161-3.33.161-1.833 0-3.332-.085-3.332-.19 0-.104.33-.453.733-.774l.733-.584.073-15.523.073-15.522-3.877.183c-2.131.1-5.156.414-6.72.696C.82 5.4 0 5.343 0 4.66c0-.102 1.28-.822 2.845-1.6L5.69 1.647l1.486.489c2.944.968 17.798.774 23.057-.302 1.463-.3 1.896-.31 2.063-.05.116.182.156.48.088.664-.09.248.417.333 2.008.333h2.13l1.465 2.198c.806 1.21 2.093 3.1 2.859 4.2.766 1.101 1.82 2.66 2.342 3.465.523.804 3.024 4.52 5.558 8.258 2.535 3.738 5.285 7.841 6.113 9.12.827 1.277 1.583 2.327 1.679 2.331.22.01 1.966-3.005 4.625-7.987 1.135-2.125 2.266-4.163 2.515-4.53.249-.366 1.512-2.645 2.808-5.063 1.295-2.419 2.918-5.357 3.607-6.53a111.705 111.705 0 002.126-3.797l.874-1.665h2.628c1.445 0 2.628.065 2.628.146 0 .08-.33.43-.733.776l-.733.63-.08 14.48c-.043 7.965-.007 14.877.082 15.362.088.484.454 1.135.812 1.447.359.311.652.665.652.785s-1.5.218-3.332.218c-1.832 0-3.33-.083-3.33-.185s.3-.5.668-.883l.669-.698-.07-13.963-.068-13.962-2.132 3.917a737.048 737.048 0 01-3.817 6.917 455.75 455.75 0 00-2.767 5c-.595 1.099-1.348 2.478-1.675 3.064-4.897 8.793-6.363 11.326-6.554 11.326-.126 0-1.259-1.529-2.518-3.398zm38.117 2.983c-.88-.199-2.498-.37-3.598-.382l-1.998-.02-1.333-2.056c-1.572-2.427-1.635-2.601-1.028-2.834.302-.116.839.105 1.545.637 1.706 1.284 3.413 2.088 6.023 2.837 2.109.604 2.768.677 5.135.566 4.456-.21 7.271-1.496 8.834-4.037.656-1.065.8-1.581.782-2.798-.034-2.34-1.035-3.94-3.317-5.302-1.29-.77-6.253-2.733-9.18-3.63-5.402-1.657-8.21-3.754-9.102-6.797-.972-3.322.486-6.925 3.524-8.705 2.967-1.74 3.462-1.83 9.897-1.836l5.918-.005 1.611 1.629c.886.896 1.61 1.752 1.61 1.903 0 .632-.896.52-2.773-.348-3.054-1.411-6.214-2.08-8.878-1.88-3.563.266-6.093 1.41-7.538 3.404-1.566 2.163-1.278 4.646.769 6.63 1.419 1.375 2.9 2.044 8.427 3.809 8.854 2.827 12.392 5.77 12.383 10.303-.004 2.188-.618 3.587-2.31 5.264-3.384 3.354-9.884 4.893-15.403 3.648zm40.24.022c-4.31-.797-8.444-2.406-11.572-4.503-2.822-1.891-5.478-5.356-6.447-8.41-.785-2.475-.789-6.236-.009-8.403 2.225-6.176 8.829-10.987 17.629-12.842 3.375-.712 9.507-.647 13.933.146 3.232.58 5.36.64 6.379.183.371-.167.579.067 1.095 1.233.35.79 1.015 1.87 1.479 2.399.773.88.808.995.416 1.387-.466.466-.529.443-2.173-.809-1.298-.988-4.751-2.383-7.265-2.934-2.839-.623-9.268-.757-12.498-.261-2.988.459-6.248 1.683-8.784 3.299-3.873 2.468-6.667 6.73-6.912 10.544-.271 4.23 1.454 8.244 4.984 11.592 1.392 1.32 5.078 3.655 7.16 4.536 3.409 1.442 9.76 2.203 14 1.677 4.687-.582 7.188-1.476 9.944-3.558 1.008-.76 1.553-1.008 1.946-.883.784.248.679.704-.403 1.75-.523.506-1.311 1.549-1.752 2.318-.736 1.283-.861 1.383-1.515 1.2-1.083-.304-2.806-.226-6.119.276-3.59.544-10.732.578-13.516.063zm75.532-3.89c-5.972-.633-9.844-2.547-10.66-5.269-.421-1.406.211-3.508 1.544-5.134 1.308-1.595 5.278-4.753 7.364-5.856l1.638-.867-1.885 1.994c-2.345 2.482-3.166 4.056-2.909 5.579.374 2.213 2.875 3.998 6.926 4.944 1.798.42 3.236.498 9.194.498 7.315 0 8.513-.109 15.19-1.372 8.106-1.534 19.639-5.18 24.411-7.717 2.925-1.555 4.336-2.373 5.794-3.357 1.718-1.159 2.144-1.168 1.249-.027-1.569 2.002-6.824 5.54-11.216 7.554-10.238 4.692-21.885 7.802-33.43 8.925-4.249.414-9.885.459-13.21.106zm-23.965-11.027c0-.524 2.975-3.157 5.329-4.717 2.441-1.617 9.151-4.929 12.612-6.225 4.586-1.718 13.49-4.217 17.102-4.8a20 20 0 001.866-.4 15.08 15.08 0 011.732-.353c.513-.07 2.192-.31 3.731-.533 9.52-1.383 19.457-.556 23.909 1.991 1.815 1.039 2.539 2.078 2.687 3.857.252 3.04-2.304 6.068-8.365 9.908-2.024 1.283-2.176 1.043-.427-.673 2.256-2.215 3.073-3.561 3.096-5.1.042-2.74-2.254-4.521-7.309-5.67-2.174-.493-3.379-.576-8.528-.588-5.776-.013-7.411.118-13.324 1.067-3.802.61-8.131 1.613-13.192 3.054-3.729 1.062-5.956 1.866-10.329 3.73-4.245 1.808-6.472 2.974-8.925 4.67-1.04.718-1.665 1.012-1.665.782zM253.962 7.83c-.73-2.212-3.891-4.055-8.256-4.813-8.422-1.462-17.534-.773-30.621 2.315-1.524.36-2.812.614-2.861.566-.175-.176 2.753-1.327 5.633-2.216C225.936 1.19 233.657.018 242.108 0c7.516-.015 9.522.363 11.833 2.23 1.283 1.037 1.895 2.185 1.886 3.54-.007.955-.891 3.14-1.271 3.14-.131 0-.398-.486-.594-1.08z"/>
</svg>
