<svg width="230" height="65" fill="none" xmlns="http://www.w3.org/2000/svg"><path d="M112.746 11.908l-7.076 19.758h-4.135l-4.134-11.738-4.218 11.738h-4.135l-7.049-19.758h5.3l4.052 12.46 4.412-12.46h3.552l4.246 12.682 4.246-12.682h4.939zM127.712 17.57v14.096h-4.939v-1.914c-.407.666-.999 1.193-1.776 1.581a5.861 5.861 0 01-2.553.555c-1.203 0-2.276-.296-3.219-.888-.944-.592-1.684-1.433-2.22-2.525-.518-1.11-.777-2.386-.777-3.83 0-1.46.268-2.756.805-3.884.536-1.129 1.276-2.008 2.22-2.637.943-.629 2.007-.943 3.191-.943.925 0 1.767.203 2.525.61.777.389 1.378.916 1.804 1.582V17.57h4.939zm-7.714 10.572c.888 0 1.572-.305 2.053-.916.481-.61.722-1.489.722-2.636 0-1.165-.241-2.053-.722-2.664-.481-.629-1.165-.943-2.053-.943-.87 0-1.554.323-2.054.97-.499.63-.749 1.527-.749 2.693 0 1.128.241 1.998.722 2.608.481.592 1.174.888 2.081.888zM140.521 31.666l-4.801-6.077v6.077h-5.022V11.242h5.022v12.21l4.718-5.855h5.938l-5.55 6.743 5.772 7.326h-6.077zM162.02 17.57v14.096h-4.939v-1.914c-.407.666-.999 1.193-1.776 1.581a5.861 5.861 0 01-2.553.555c-1.203 0-2.276-.296-3.219-.888-.944-.592-1.684-1.433-2.22-2.525-.518-1.11-.777-2.386-.777-3.83 0-1.46.268-2.756.805-3.884.536-1.129 1.276-2.008 2.22-2.637.943-.629 2.007-.943 3.191-.943.925 0 1.767.203 2.525.61.777.389 1.378.916 1.804 1.582V17.57h4.939zm-7.714 10.572c.888 0 1.572-.305 2.053-.916.481-.61.722-1.489.722-2.636 0-1.165-.241-2.053-.722-2.664-.481-.629-1.165-.943-2.053-.943-.87 0-1.554.323-2.054.97-.499.63-.749 1.527-.749 2.693 0 1.128.241 1.998.722 2.608.481.592 1.174.888 2.081.888zM171.999 31.888c-2.387 0-4.255-.647-5.606-1.942-1.35-1.295-2.026-3.062-2.026-5.3 0-1.48.324-2.785.972-3.913a6.74 6.74 0 012.775-2.609c1.184-.629 2.553-.943 4.107-.943 1.036 0 2.053.157 3.052.472.999.296 1.795.703 2.387 1.22l-1.277 3.47a5.92 5.92 0 00-1.748-.972c-.666-.24-1.304-.36-1.915-.36-1.036 0-1.831.295-2.386.887-.555.592-.833 1.471-.833 2.637 0 1.184.278 2.08.833 2.691.555.592 1.359.888 2.414.888.61 0 1.239-.12 1.887-.36a5.92 5.92 0 001.748-.972l1.277 3.414c-.611.536-1.425.952-2.442 1.248-.999.296-2.072.444-3.219.444z" fill="#CCC"/><path d="M175.874 33.664c.536.13.99.195 1.36.195.592 0 1.082-.176 1.47-.528.389-.333.583-.85.583-1.554V17.57h5.023v14.264c0 1.905-.5 3.395-1.499 4.468-.98 1.073-2.423 1.61-4.329 1.61-1.073 0-1.942-.13-2.608-.39v-3.857zm8.491-23.004v4.523h-5.244V10.66h5.244zM200.323 25.117h-8.852c.093 1.092.407 1.878.944 2.36.536.48 1.322.72 2.358.72a6.97 6.97 0 002.109-.332 7.451 7.451 0 001.915-.972l1.277 3.33c-.703.518-1.554.925-2.553 1.221-.999.296-1.998.444-2.997.444-1.61 0-3.007-.296-4.191-.888-1.184-.592-2.09-1.433-2.719-2.525-.629-1.11-.944-2.414-.944-3.913 0-1.424.296-2.691.888-3.801.611-1.129 1.443-2.008 2.498-2.637 1.073-.629 2.294-.943 3.663-.943 1.332 0 2.497.296 3.496.888.999.592 1.767 1.443 2.304 2.553.536 1.091.804 2.368.804 3.83v.665zm-6.465-4.495c-1.24 0-2.017.721-2.331 2.164h4.495c-.185-1.443-.906-2.164-2.164-2.164zM205.783 28.808v2.858h-2.859v-2.858h2.859zM209.458 17.653h3.441v14.013h-3.441V17.653zm3.635-6.355v3.413h-3.857v-3.413h3.857zM224.713 17.292c3.349 0 5.023 1.924 5.023 5.772v8.602h-3.469V23.23c0-1.11-.212-1.914-.638-2.414-.425-.518-1.082-.777-1.97-.777-1.055 0-1.906.342-2.553 1.027-.648.666-.971 1.554-.971 2.664v7.936h-3.441V21.621c0-1.48-.074-2.803-.222-3.968h3.246l.25 2.303a5.1 5.1 0 011.943-1.97c.832-.463 1.766-.694 2.802-.694zM90.481 45.11c.73.202 1.297.572 1.703 1.11.406.526.609 1.182.609 1.97 0 1.112-.37 1.972-1.111 2.58-.74.598-1.786.897-3.136.897h-5.303V38.91h5.124c1.302 0 2.312.293 3.028.878.729.573 1.093 1.391 1.093 2.455 0 .68-.179 1.271-.537 1.773-.347.49-.836.854-1.47 1.093zm-5.787-.538h3.44c.956 0 1.679-.192 2.168-.574.49-.382.735-.943.735-1.684 0-1.457-.968-2.186-2.903-2.186h-3.44v4.444zm3.727 5.876c1.003 0 1.738-.185 2.204-.555.478-.382.716-.962.716-1.738 0-1.565-.973-2.347-2.92-2.347h-3.727v4.64h3.727zM95.26 42.654h1.45v9.013h-1.45v-9.013zm1.63-3.816v1.649h-1.774v-1.649h1.774zM107.071 42.654v9.013h-1.415v-1.56c-.287.55-.687.968-1.201 1.255-.513.287-1.092.43-1.737.43-1.063 0-1.87-.299-2.419-.896-.55-.597-.824-1.48-.824-2.651v-5.59h1.451v5.554c0 .812.167 1.41.502 1.791.334.383.842.574 1.522.574.801 0 1.446-.257 1.935-.77.49-.526.735-1.213.735-2.061v-5.089h1.451zM114.061 42.44a3 3 0 01.825.107l-.036 1.326a2.886 2.886 0 00-.95-.143c-.872 0-1.523.274-1.953.824-.418.537-.627 1.194-.627 1.97v5.143h-1.451V45.18c0-.932-.048-1.774-.143-2.526h1.379l.144 1.666c.226-.61.591-1.075 1.092-1.398.502-.322 1.075-.483 1.72-.483zM119.912 51.792c-.848 0-1.595-.191-2.24-.573a3.906 3.906 0 01-1.505-1.63c-.346-.706-.519-1.53-.519-2.473 0-.944.173-1.768.519-2.473a3.906 3.906 0 011.505-1.63c.645-.382 1.392-.573 2.24-.573.848 0 1.595.19 2.239.573a3.794 3.794 0 011.488 1.63c.358.705.537 1.53.537 2.473 0 .943-.179 1.767-.537 2.472a3.794 3.794 0 01-1.488 1.63c-.644.383-1.391.574-2.239.574zm0-1.2c.896 0 1.583-.293 2.06-.878.478-.597.717-1.463.717-2.598 0-1.1-.245-1.947-.735-2.544-.489-.61-1.17-.914-2.042-.914-.884 0-1.571.304-2.06.914-.49.597-.735 1.445-.735 2.544 0 1.135.239 2 .717 2.598.489.585 1.182.878 2.078.878zM135.607 42.44c.788 0 1.487.197 2.096.59.609.395 1.081.95 1.416 1.667.334.705.501 1.523.501 2.455 0 .931-.167 1.75-.501 2.454-.335.693-.807 1.23-1.416 1.613-.597.382-1.296.573-2.096.573-.705 0-1.32-.155-1.845-.466A3.011 3.011 0 01132.561 50v5.537h-1.451V45.18c0-.932-.048-1.774-.143-2.526h1.379l.144 1.737a2.924 2.924 0 011.182-1.433c.549-.346 1.194-.52 1.935-.52zm-.269 8.152c.884 0 1.565-.299 2.043-.896.489-.597.734-1.445.734-2.544 0-1.1-.245-1.953-.734-2.563-.49-.62-1.171-.931-2.043-.931-.896 0-1.582.298-2.06.896-.478.597-.717 1.45-.717 2.562 0 1.11.239 1.97.717 2.58.478.597 1.164.896 2.06.896zM145.58 51.792c-.848 0-1.595-.191-2.24-.573a3.9 3.9 0 01-1.505-1.63c-.346-.706-.52-1.53-.52-2.473 0-.944.174-1.768.52-2.473a3.9 3.9 0 011.505-1.63c.645-.382 1.392-.573 2.24-.573.848 0 1.594.19 2.239.573a3.785 3.785 0 011.487 1.63c.359.705.538 1.53.538 2.473 0 .943-.179 1.767-.538 2.472a3.785 3.785 0 01-1.487 1.63c-.645.383-1.391.574-2.239.574zm0-1.2c.895 0 1.582-.293 2.06-.878.478-.597.717-1.463.717-2.598 0-1.1-.245-1.947-.735-2.544-.49-.61-1.17-.914-2.042-.914-.884 0-1.571.304-2.061.914-.49.597-.734 1.445-.734 2.544 0 1.135.238 2 .716 2.598.49.585 1.183.878 2.079.878zM160.043 38.48v13.187h-1.433v-1.63a2.894 2.894 0 01-1.201 1.307c-.525.299-1.14.448-1.845.448-.788 0-1.487-.197-2.096-.591-.598-.394-1.063-.944-1.398-1.649-.334-.716-.502-1.54-.502-2.472 0-.932.162-1.744.484-2.437.335-.704.806-1.248 1.416-1.63.609-.382 1.308-.573 2.096-.573.705 0 1.32.155 1.845.465.526.299.92.723 1.183 1.272V38.48h1.451zm-4.192 12.112c.883 0 1.564-.299 2.042-.896.478-.61.717-1.47.717-2.58 0-1.1-.239-1.947-.717-2.544-.478-.61-1.159-.914-2.042-.914-.884 0-1.577.298-2.079.896-.489.597-.734 1.439-.734 2.526 0 1.11.245 1.977.734 2.598.502.609 1.195.914 2.079.914zM167.041 42.44a3 3 0 01.825.107l-.036 1.326a2.886 2.886 0 00-.95-.143c-.872 0-1.523.274-1.953.824-.418.537-.627 1.194-.627 1.97v5.143h-1.451V45.18c0-.932-.048-1.774-.143-2.526h1.379l.144 1.666c.226-.61.591-1.075 1.092-1.398.502-.322 1.075-.483 1.72-.483zM172.892 51.792c-.848 0-1.595-.191-2.24-.573a3.906 3.906 0 01-1.505-1.63c-.346-.706-.519-1.53-.519-2.473 0-.944.173-1.768.519-2.473a3.906 3.906 0 011.505-1.63c.645-.382 1.392-.573 2.24-.573.848 0 1.595.19 2.24.573.645.382 1.14.926 1.487 1.63.358.705.537 1.53.537 2.473 0 .943-.179 1.767-.537 2.472a3.791 3.791 0 01-1.487 1.63c-.645.383-1.392.574-2.24.574zm0-1.2c.896 0 1.583-.293 2.06-.878.478-.597.717-1.463.717-2.598 0-1.1-.245-1.947-.735-2.544-.489-.61-1.17-.914-2.042-.914-.884 0-1.571.304-2.06.914-.49.597-.735 1.445-.735 2.544 0 1.135.239 2 .717 2.598.489.585 1.182.878 2.078.878zm-.52-9.102l1.792-3.655h1.684l-2.454 3.655h-1.022zM186.339 50.52v1.147h-7.615v-1.004l5.68-6.862h-5.483v-1.147h7.221v1.058l-5.626 6.808h5.823zm-2.903-11.682v1.649h-1.773v-1.649h1.773zM196.313 42.654l-4.21 9.837c-.442 1.027-.997 1.78-1.666 2.257-.669.478-1.493.806-2.473.986l-.304-1.13c.848-.19 1.487-.447 1.917-.77.442-.31.806-.794 1.093-1.45l.358-.807-3.816-8.922h1.523l3.045 7.435 3.082-7.436h1.451z" fill="#CCC"/><path fill-rule="evenodd" clip-rule="evenodd" d="M65 13c0-7.175-5.825-13-13-13H13C5.825 0 0 5.825 0 13v39c0 7.175 5.825 13 13 13h39c7.175 0 13-5.825 13-13V13z" fill="url(#paint0_linear)"/><path d="M36.923 24.438c-1.674 0-2.918.904-3.735 2.714l-6.94 15.07c.024 2.09.11 9.694.11 9.827 0 .088.021.383.042.694.402-.385.755-.89 1.053-1.528l7.428-15.878-.53 14.632c0 1.17.28 2.069.837 2.695.558.64 1.347.958 2.367.958 1.333 0 2.47-.802 3.408-2.407l12.572-21.613 2.285-.001c1.184 0 2.11-.253 2.776-.756.667-.517 1-1.224 1-2.122 0-1.333-.945-2-2.836-2h-3.98c-1.552 0-2.701.653-3.45 1.959l-.428.795-9.184 15.818.368-15.53.02-.226c0-.939-.292-1.687-.877-2.245-.586-.571-1.354-.856-2.306-.856zM16.651 24.438c-2.897 0-5.498 1.116-7.796 3.347-2.286 2.218-3.428 4.735-3.428 7.552 0 2.313.72 4.223 2.163 5.734 1.442 1.51 3.266 2.266 5.469 2.266 1.429 0 2.612-.3 3.553-.899.938-.612 1.407-1.373 1.407-2.285 0-1.374-.83-2.061-2.49-2.061-.069 0-.23.007-.489.02-.26.014-.532.021-.817.021-.995 0-1.795-.307-2.41-.92-.61-.611-.918-1.413-.918-2.407 0-1.183.546-2.353 1.633-3.51 1.088-1.17 2.183-1.755 3.286-1.755 1.237 0 2.07.434 2.49 1.305.437.857.653 2.53.653 5.02l.43 14.103c0 1.143.284 2.035.856 2.674.452.504 1.046.791 1.759.903.171.049.35.074.527.075 1.083 0 1.975-.89 1.975-1.973v-.035l-.153-8.653-.005.01-.122-7.103-.008-.65-.034-1.834c-.096-2.978-.685-5.182-1.775-6.597-1.184-1.565-3.102-2.348-5.756-2.348zM14.95 20.602a4.604 4.604 0 100-9.208 4.604 4.604 0 000 9.208z" fill="#fff"/><defs><linearGradient id="paint0_linear" x1="32.5" y1="0" x2="32.5" y2="65" gradientUnits="userSpaceOnUse"><stop stop-color="#CCC"/><stop offset="1" stop-color="#CCC"/></linearGradient></defs></svg>