<svg width="75" height="21" viewBox="0 0 75 21" fill="none" xmlns="http://www.w3.org/2000/svg">
<path d="M49.8505 13.3359H47.7999V7.119H49.7502C51.4707 7.119 52.7612 8.39384 52.7612 10.2417C52.7612 12.0753 51.5279 13.3359 49.8505 13.3359ZM49.7929 5.2141H45.5343V15.2412H49.7069C52.876 15.2412 55.07 13.1784 55.07 10.2274C55.07 7.2623 52.9045 5.2141 49.7929 5.2141ZM63.1707 11.0439C63.1707 12.4908 62.2816 13.3648 60.9339 13.3648C59.5858 13.3648 58.6396 12.4908 58.6396 11.0439V5.2141H56.3739V11.0439C56.3739 13.6941 58.1519 15.3415 60.9339 15.3415C63.7013 15.3415 65.4366 13.6941 65.4366 11.0439V5.2141H63.1707V11.0439ZM69.6653 7.86396C69.6653 7.31966 70.1818 7.0475 70.9417 7.0475C71.7446 7.0475 73.0062 7.44852 74.0675 8.07892L74.9426 6.20218C73.9385 5.54328 72.533 5.11377 71.1281 5.11377C68.805 5.11377 67.242 6.25958 67.242 8.07892C67.242 11.6313 72.5906 10.5285 72.5906 12.4191C72.5906 13.0352 72.0314 13.379 71.0994 13.379C70.0381 13.379 68.5755 12.7916 67.5431 11.8748L66.6396 13.7226C67.7724 14.6824 69.4215 15.313 71.0708 15.313C73.2933 15.313 74.9996 14.2527 74.9996 12.2902C75.0139 8.68026 69.6653 9.71184 69.6653 7.86396ZM32.7741 5.21393H30.0929L27.9848 8.27941L25.8912 5.21393H23.2528L26.6082 10.1129L23.009 15.2413H25.6618L27.9848 11.9037L30.3508 15.2413H33.0609L29.433 10.0127L32.7741 5.21393ZM38.681 13.3648C37.0034 13.3648 35.5838 11.9896 35.5838 10.2274C35.5838 8.46567 36.9892 7.119 38.681 7.119C40.3588 7.119 41.7209 8.46567 41.7209 10.2274C41.7209 11.9896 40.3588 13.3648 38.681 13.3648ZM38.6525 5.14226C35.5838 5.14226 33.2608 7.30522 33.2608 10.2274C33.2608 13.1354 35.5838 15.3415 38.6525 15.3415C41.7209 15.3415 44.0439 13.1211 44.0439 10.2274C44.0439 7.31986 41.7209 5.14226 38.6525 5.14226Z" fill="#cccccc"/>
<path d="M15.3416 0L7.67081 5.11351V10.2274L15.3416 5.11351V0V0ZM0 10.2274L3.83522 12.7845L0 15.3415V20.4551L11.506 12.7845L7.67081 10.2274L0 5.11351V10.2274H0ZM15.3416 20.4551V15.3415L11.506 12.7845L9.3754 16.4775L15.3416 20.4551Z" fill="#cccccc"/>
</svg>
