<svg width="19" height="15" viewBox="0 0 19 15" fill="none" xmlns="http://www.w3.org/2000/svg">
<path fill-rule="evenodd" clip-rule="evenodd" d="M0 0.978261C0 0.718813 0.10307 0.469983 0.286526 0.286526C0.469983 0.10307 0.718813 0 0.978261 0H17.2826C17.542 0 17.7909 0.10307 17.9743 0.286526C18.1578 0.469983 18.2609 0.718813 18.2609 0.978261C18.2609 1.23771 18.1578 1.48654 17.9743 1.67C17.7909 1.85345 17.542 1.95652 17.2826 1.95652H0.978261C0.718813 1.95652 0.469983 1.85345 0.286526 1.67C0.10307 1.48654 0 1.23771 0 0.978261ZM0 7.5C0 7.24055 0.10307 6.99172 0.286526 6.80827C0.469983 6.62481 0.718813 6.52174 0.978261 6.52174H17.2826C17.542 6.52174 17.7909 6.62481 17.9743 6.80827C18.1578 6.99172 18.2609 7.24055 18.2609 7.5C18.2609 7.75945 18.1578 8.00828 17.9743 8.19173C17.7909 8.37519 17.542 8.47826 17.2826 8.47826H0.978261C0.718813 8.47826 0.469983 8.37519 0.286526 8.19173C0.10307 8.00828 0 7.75945 0 7.5ZM0.978261 13.0435C0.718813 13.0435 0.469983 13.1465 0.286526 13.33C0.10307 13.5134 0 13.7623 0 14.0217C0 14.2812 0.10307 14.53 0.286526 14.7134C0.469983 14.897 0.718813 15 0.978261 15H17.2826C17.542 15 17.7909 14.897 17.9743 14.7134C18.1578 14.53 18.2609 14.2812 18.2609 14.0217C18.2609 13.7623 18.1578 13.5134 17.9743 13.33C17.7909 13.1465 17.542 13.0435 17.2826 13.0435H0.978261Z" fill="#323232"/>
</svg>
