<svg width="227" height="40" viewBox="0 0 227 40" fill="none" xmlns="http://www.w3.org/2000/svg">
<path fill-rule="evenodd" clip-rule="evenodd" d="M0 0.240014C0 0.107546 0.107546 0 0.240014 0H4.55932C4.69179 0 4.79933 0.107546 4.79933 0.240014V4.55932C4.79933 4.69179 4.69179 4.79934 4.55932 4.79934H0.240014C0.107546 4.79934 0 4.69179 0 4.55932V0.240014H0Z" fill="#323232"/>
<path fill-rule="evenodd" clip-rule="evenodd" d="M0 21.6052C0 21.4728 0.107546 21.3652 0.240014 21.3652H4.55932C4.69179 21.3652 4.79933 21.4728 4.79933 21.6052V39.7599C4.79933 39.8924 4.69179 39.9999 4.55932 39.9999H0.240014C0.107546 39.9999 0 39.8924 0 39.7599V21.6052H0Z" fill="#323232"/>
<path d="M40.0017 0H27.9883V3.60401H40.0017V0Z" fill="#323232"/>
<path fill-rule="evenodd" clip-rule="evenodd" d="M36.3984 0V12.0134H40.0026V0H36.3984Z" fill="#323232"/>
<path d="M59.7748 10.4123H55.8796V24.0105H59.7748V10.4123Z" fill="#323232"/>
<path d="M59.7748 0H55.8796V3.89562H59.7748V0Z" fill="#323232"/>
<path d="M55.8518 39.9927H61.5661V38.9666H57.1898V36.3713H61.191V35.3452H57.1898V33.0395H61.5661V32.0135H55.8518V39.9927Z" fill="#323232"/>
<path d="M72.4921 39.9927H73.83V32.9068L77.6562 39.9927H79.8944V32.0135H78.5565V39.0995L74.7053 32.0135H72.4921V39.9927Z" fill="#323232"/>
<path d="M92.1613 38.2062V33.8C92.1613 33.2569 92.3238 33.0395 92.8239 33.0395H97.3753V32.0135H93.1866C91.7236 32.0135 90.8233 32.7377 90.8233 34.0657V37.9406C90.8233 39.2684 91.7236 39.9927 93.1866 39.9927H97.3753V35.7556H96.0374V38.9666H92.8239C92.3238 38.9666 92.1613 38.7493 92.1613 38.2062Z" fill="#323232"/>
<path d="M109.634 32.0135H108.296V39.9927H109.634V32.0135Z" fill="#323232"/>
<path d="M120.558 39.9927H121.896V32.9068L125.722 39.9927H127.96V32.0135H126.622V39.0995L122.771 32.0135H120.558V39.9927Z" fill="#323232"/>
<path d="M138.889 39.9927H144.603V38.9666H140.226V36.3713H144.228V35.3452H140.226V33.0395H144.603V32.0135H138.889V39.9927Z" fill="#323232"/>
<path d="M155.529 39.9927H161.243V38.9666H156.867V36.3713H160.868V35.3452H156.867V33.0395H161.243V32.0135H155.529V39.9927Z" fill="#323232"/>
<path d="M177.246 36.9869C177.747 36.8903 178.334 36.4437 178.334 35.5384V33.9932C178.334 32.3877 177.621 32.0135 175.746 32.0135H172.17V39.9927H173.508V37.0955H175.996L177.396 39.9927H178.847L177.246 36.9869ZM173.508 33.0395H176.334C176.721 33.0395 176.996 33.1724 176.996 33.5587V35.5504C176.996 35.9367 176.721 36.0695 176.334 36.0695H173.508V33.0395Z" fill="#323232"/>
<path d="M191.105 32.0135H189.767V39.9927H191.105V32.0135Z" fill="#323232"/>
<path d="M202.029 39.9927H203.367V32.9068L207.193 39.9927H209.431V32.0135H208.093V39.0995L204.242 32.0135H202.029V39.9927Z" fill="#323232"/>
<path d="M221.698 38.2062V33.8C221.698 33.2569 221.86 33.0395 222.36 33.0395H226.912V32.0135H222.723C221.26 32.0135 220.36 32.7377 220.36 34.0657V37.9406C220.36 39.2684 221.26 39.9927 222.723 39.9927H226.912V35.7556H225.574V38.9666H222.36C221.86 38.9666 221.698 38.7493 221.698 38.2062Z" fill="#323232"/>
<path d="M226.915 27.5242H55.8796V28.3242H226.915V27.5242Z" fill="#323232"/>
<path d="M88.3015 24.0178H104.938V20.9293H92.1967V3.08849H104.938V0H88.3015V24.0178Z" fill="#323232"/>
<path d="M139.261 0L130.561 24.0175H134.455L136.349 18.6409L137.442 15.5516L141.773 3.30642L146.105 15.5516H140.361L139.271 18.6409H147.161L149.054 24.0175H152.986L144.248 0H139.261Z" fill="#323232"/>
<path d="M88.3015 24.0178H104.938V20.9293H92.1967V3.08849H104.938V0H88.3015V24.0178Z" fill="#323232"/>
<path d="M108.032 0V24.0175H111.928V3.0893H120.154C121.283 3.0893 122.084 3.48792 122.084 4.65061V10.6466C122.084 11.8093 121.283 12.2093 120.154 12.2093H115.822V15.2972H119.171L123.248 24.0175H127.472L122.811 14.9708C124.268 14.6801 125.979 13.3358 125.979 10.6106V5.95877C125.979 1.12612 123.904 0 118.444 0H108.032V0Z" fill="#323232"/>
<path d="M95.118 10.4748V13.5641H101.042V10.4748H95.118Z" fill="#323232"/>
<path d="M121.798 12.2068H114.849V15.2949H121.798V12.2068Z" fill="#323232"/>
<path d="M72.0911 0V24.0187H75.9859V3.08916H85.3007V0H72.0911V0Z" fill="#323232"/>
<path d="M75.9897 0V24.0187H72.0949V3.08916H62.78V0H75.9897V0Z" fill="#323232"/>
<path d="M182.397 0.796875H178.502V24.005H182.397V0.796875Z" fill="#323232"/>
<path d="M182.398 0H178.502V3.89562H182.398V0Z" fill="#323232"/>
<path d="M193.822 24.0178H198.809L207.182 0H203.25L196.334 20.7113L189.381 0H185.485L193.822 24.0178Z" fill="#323232"/>
<path d="M210.273 24.0178H226.91V20.9293H214.168V3.08849H226.91V0H210.273V24.0178Z" fill="#323232"/>
<path d="M217.09 10.4609V13.5501H223.015V10.4609H217.09Z" fill="#323232"/>
<path d="M162.291 0V24.0187H166.186V3.08916H175.501V0H162.291V0Z" fill="#323232"/>
<path d="M166.19 0V24.0187H162.295V3.08916H152.98V0H166.19V0Z" fill="#323232"/>
<path fill-rule="evenodd" clip-rule="evenodd" d="M15.7412 27.8617V0H12.1371V27.8617H15.7412Z" fill="url(#paint0_linear)"/>
<path d="M27.871 12.1307H0V15.7347H27.871V12.1307Z" fill="url(#paint1_linear)"/>
<path fill-rule="evenodd" clip-rule="evenodd" d="M15.7412 27.8617V0H12.1371V27.8617H15.7412Z" fill="url(#paint2_linear)"/>
<path d="M27.871 12.1307H0V15.7347H27.871V12.1307Z" fill="url(#paint3_linear)"/>
<path fill-rule="evenodd" clip-rule="evenodd" d="M27.8792 39.9949V12.1239H24.2751V39.9949H27.8792Z" fill="url(#paint4_linear)"/>
<path d="M40.0091 24.2545H12.1381V27.8585H40.0091V24.2545Z" fill="url(#paint5_linear)"/>
<defs>
<linearGradient id="paint0_linear" x1="12.017" y1="12.1288" x2="27.8746" y2="27.9812" gradientUnits="userSpaceOnUse">
<stop stop-color="#5761B2"/>
<stop offset="1" stop-color="#1FC5A8"/>
</linearGradient>
<linearGradient id="paint1_linear" x1="12.0134" y1="12.1307" x2="27.8709" y2="27.983" gradientUnits="userSpaceOnUse">
<stop stop-color="#5761B2"/>
<stop offset="1" stop-color="#1FC5A8"/>
</linearGradient>
<linearGradient id="paint2_linear" x1="12.017" y1="12.1288" x2="27.8746" y2="27.9812" gradientUnits="userSpaceOnUse">
<stop stop-color="#5761B2"/>
<stop offset="1" stop-color="#1FC5A8"/>
</linearGradient>
<linearGradient id="paint3_linear" x1="12.0134" y1="12.1307" x2="27.8709" y2="27.983" gradientUnits="userSpaceOnUse">
<stop stop-color="#5761B2"/>
<stop offset="1" stop-color="#1FC5A8"/>
</linearGradient>
<linearGradient id="paint4_linear" x1="12.0215" y1="12.1292" x2="27.8791" y2="27.9815" gradientUnits="userSpaceOnUse">
<stop stop-color="#5761B2"/>
<stop offset="1" stop-color="#1FC5A8"/>
</linearGradient>
<linearGradient id="paint5_linear" x1="12.018" y1="12.1264" x2="27.8755" y2="27.9787" gradientUnits="userSpaceOnUse">
<stop stop-color="#5761B2"/>
<stop offset="1" stop-color="#1FC5A8"/>
</linearGradient>
</defs>
</svg>
