<svg width="494" height="365" viewBox="0 0 [width] [height]" fill="none" xmlns="http://www.w3.org/2000/svg">
<g clip-path="url(#clip0)">
<path fill-rule="evenodd" clip-rule="evenodd" d="M462.328 31.5336L488.65 5.21145L485.247 1.80774L458.924 28.1299L462.328 31.5336Z" fill="white"/>
<path d="M488.65 28.1299L462.328 1.80774L458.925 5.21145L485.247 31.5336L488.65 28.1299Z" fill="white"/>
<path fill-rule="evenodd" clip-rule="evenodd" d="M415.001 33.3414L441.324 7.01923L434.304 0L407.982 26.3221L415.001 33.3414Z" fill="white"/>
<path d="M441.323 26.3221L415.001 0L407.982 7.01923L434.304 33.3414L441.323 26.3221Z" fill="white"/>
<path fill-rule="evenodd" clip-rule="evenodd" d="M451.852 70.1923L478.175 43.8702L471.155 36.851L444.833 63.1731L451.852 70.1923Z" fill="white"/>
<path d="M478.174 63.1731L451.852 36.851L444.833 43.8702L471.155 70.1923L478.174 63.1731Z" fill="white"/>
<path fill-rule="evenodd" clip-rule="evenodd" d="M400.91 68.3846L427.232 42.0625L423.828 38.6588L397.506 64.9809L400.91 68.3846Z" fill="white"/>
<path d="M427.232 64.9809L400.91 38.6588L397.506 42.0625L423.828 68.3847L427.232 64.9809Z" fill="white"/>
<path fill-rule="evenodd" clip-rule="evenodd" d="M364.059 31.5336L390.381 5.21145L386.977 1.80774L360.655 28.1299L364.059 31.5336Z" fill="white"/>
<path d="M390.381 28.1299L364.059 1.80774L360.655 5.21145L386.977 31.5336L390.381 28.1299Z" fill="white"/>
<path fill-rule="evenodd" clip-rule="evenodd" d="M316.732 33.3412L343.054 7.01911L336.035 -0.00012207L309.713 26.322L316.732 33.3412Z" fill="white"/>
<path d="M343.054 26.322L316.732 -0.00012207L309.713 7.01911L336.035 33.3412L343.054 26.322Z" fill="white"/>
<path fill-rule="evenodd" clip-rule="evenodd" d="M265.79 31.5336L292.112 5.21145L288.708 1.80774L262.386 28.1299L265.79 31.5336Z" fill="white"/>
<path d="M292.112 28.1299L265.79 1.80774L262.386 5.21145L288.708 31.5336L292.112 28.1299Z" fill="white"/>
<path fill-rule="evenodd" clip-rule="evenodd" d="M218.463 33.341L244.785 7.01887L237.766 -0.000366211L211.444 26.3217L218.463 33.341Z" fill="white"/>
<path d="M244.785 26.3218L218.463 -0.000366211L211.444 7.01887L237.766 33.341L244.785 26.3218Z" fill="white"/>
<path fill-rule="evenodd" clip-rule="evenodd" d="M167.52 31.5336L193.842 5.21145L190.439 1.80774L164.117 28.1299L167.52 31.5336Z" fill="white"/>
<path d="M193.843 28.1299L167.52 1.80774L164.117 5.21145L190.439 31.5336L193.843 28.1299Z" fill="white"/>
<path fill-rule="evenodd" clip-rule="evenodd" d="M120.194 33.3412L146.516 7.01911L139.497 -0.00012207L113.174 26.322L120.194 33.3412Z" fill="white"/>
<path d="M146.516 26.322L120.194 -0.00012207L113.174 7.01911L139.496 33.3412L146.516 26.322Z" fill="white"/>
<path fill-rule="evenodd" clip-rule="evenodd" d="M69.2512 32.197L95.5733 5.87491L92.1696 2.47119L65.8474 28.7933L69.2512 32.197Z" fill="white"/>
<path d="M95.5734 28.7933L69.2512 2.47119L65.8475 5.87491L92.1696 32.197L95.5734 28.7933Z" fill="white"/>
<path fill-rule="evenodd" clip-rule="evenodd" d="M21.9243 34.0047L48.2464 7.68256L41.2272 0.66333L14.9051 26.9854L21.9243 34.0047Z" fill="white"/>
<path d="M48.2464 26.9855L21.9243 0.66333L14.9051 7.68256L41.2272 34.0047L48.2464 26.9855Z" fill="white"/>
<path fill-rule="evenodd" clip-rule="evenodd" d="M353.583 70.1923L379.905 43.8702L372.886 36.851L346.564 63.1731L353.583 70.1923Z" fill="white"/>
<path d="M379.905 63.1731L353.583 36.851L346.564 43.8702L372.886 70.1923L379.905 63.1731Z" fill="white"/>
<path fill-rule="evenodd" clip-rule="evenodd" d="M302.641 68.3847L328.963 42.0625L325.559 38.6588L299.237 64.9809L302.641 68.3847Z" fill="white"/>
<path d="M328.963 64.9809L302.641 38.6588L299.237 42.0625L325.559 68.3846L328.963 64.9809Z" fill="white"/>
<path fill-rule="evenodd" clip-rule="evenodd" d="M255.314 70.1923L281.636 43.8702L274.617 36.851L248.295 63.1731L255.314 70.1923Z" fill="white"/>
<path d="M281.636 63.1731L255.314 36.851L248.295 43.8702L274.617 70.1923L281.636 63.1731Z" fill="white"/>
<path fill-rule="evenodd" clip-rule="evenodd" d="M204.371 68.3846L230.694 42.0625L227.29 38.6588L200.968 64.9809L204.371 68.3846Z" fill="white"/>
<path d="M230.694 64.9809L204.371 38.6588L200.968 42.0625L227.29 68.3847L230.694 64.9809Z" fill="white"/>
<path fill-rule="evenodd" clip-rule="evenodd" d="M157.045 70.1919L183.367 43.8698L176.347 36.8506L150.025 63.1727L157.045 70.1919Z" fill="white"/>
<path d="M183.367 63.1727L157.044 36.8506L150.025 43.8698L176.347 70.1919L183.367 63.1727Z" fill="white"/>
<path fill-rule="evenodd" clip-rule="evenodd" d="M106.102 68.3846L132.424 42.0625L129.021 38.6588L102.699 64.9809L106.102 68.3846Z" fill="white"/>
<path d="M132.424 64.9809L106.102 38.6588L102.699 42.0625L129.021 68.3846L132.424 64.9809Z" fill="white"/>
<path fill-rule="evenodd" clip-rule="evenodd" d="M58.7754 70.1923L85.0975 43.8702L78.0782 36.851L51.7561 63.1731L58.7754 70.1923Z" fill="white"/>
<path d="M85.0974 63.1731L58.7753 36.851L51.7561 43.8702L78.0782 70.1923L85.0974 63.1731Z" fill="white"/>
<path fill-rule="evenodd" clip-rule="evenodd" d="M7.833 68.3846L34.1551 42.0625L30.7514 38.6588L4.42929 64.9809L7.833 68.3846Z" fill="white"/>
<path d="M34.1552 64.9809L7.83307 38.6588L4.42935 42.0625L30.7515 68.3847L34.1552 64.9809Z" fill="white"/>
<path fill-rule="evenodd" clip-rule="evenodd" d="M462.328 104.572L488.65 78.2503L485.247 74.8466L458.924 101.169L462.328 104.572Z" fill="white"/>
<path d="M488.65 101.169L462.328 74.8466L458.925 78.2503L485.247 104.572L488.65 101.169Z" fill="white"/>
<path fill-rule="evenodd" clip-rule="evenodd" d="M415.001 106.38L441.324 80.0579L434.304 73.0387L407.982 99.3608L415.001 106.38Z" fill="white"/>
<path d="M441.323 99.3608L415.001 73.0387L407.982 80.0579L434.304 106.38L441.323 99.3608Z" fill="white"/>
<path fill-rule="evenodd" clip-rule="evenodd" d="M364.059 104.572L390.381 78.2503L386.977 74.8466L360.655 101.169L364.059 104.572Z" fill="white"/>
<path d="M390.381 101.169L364.059 74.8466L360.655 78.2503L386.977 104.572L390.381 101.169Z" fill="white"/>
<path fill-rule="evenodd" clip-rule="evenodd" d="M316.732 106.38L343.054 80.0579L336.035 73.0387L309.713 99.3608L316.732 106.38Z" fill="white"/>
<path d="M343.054 99.3608L316.732 73.0387L309.713 80.0579L336.035 106.38L343.054 99.3608Z" fill="white"/>
<path fill-rule="evenodd" clip-rule="evenodd" d="M265.79 104.572L292.112 78.2503L288.708 74.8466L262.386 101.169L265.79 104.572Z" fill="white"/>
<path d="M292.112 101.169L265.79 74.8466L262.386 78.2503L288.708 104.572L292.112 101.169Z" fill="white"/>
<path fill-rule="evenodd" clip-rule="evenodd" d="M218.463 106.38L244.785 80.0579L237.766 73.0387L211.444 99.3608L218.463 106.38Z" fill="white"/>
<path d="M244.785 99.3608L218.463 73.0387L211.444 80.0579L237.766 106.38L244.785 99.3608Z" fill="white"/>
<path fill-rule="evenodd" clip-rule="evenodd" d="M167.52 104.572L193.843 78.2503L190.439 74.8466L164.117 101.169L167.52 104.572Z" fill="white"/>
<path d="M193.843 101.169L167.521 74.8466L164.117 78.2503L190.439 104.572L193.843 101.169Z" fill="white"/>
<path fill-rule="evenodd" clip-rule="evenodd" d="M120.194 106.38L146.516 80.0579L139.497 73.0387L113.174 99.3608L120.194 106.38Z" fill="white"/>
<path d="M146.516 99.3608L120.194 73.0387L113.174 80.0579L139.497 106.38L146.516 99.3608Z" fill="white"/>
<path fill-rule="evenodd" clip-rule="evenodd" d="M69.2512 105.236L95.5734 78.9135L92.1697 75.5098L65.8475 101.832L69.2512 105.236Z" fill="white"/>
<path d="M95.5734 101.832L69.2513 75.5098L65.8476 78.9135L92.1697 105.236L95.5734 101.832Z" fill="white"/>
<path fill-rule="evenodd" clip-rule="evenodd" d="M21.9243 107.043L48.2464 80.7213L41.2272 73.702L14.905 100.024L21.9243 107.043Z" fill="white"/>
<path d="M48.2465 100.024L21.9244 73.702L14.9051 80.7213L41.2273 107.043L48.2465 100.024Z" fill="white"/>
<path fill-rule="evenodd" clip-rule="evenodd" d="M451.852 143.894L478.175 117.572L471.155 110.553L444.833 136.875L451.852 143.894Z" fill="white"/>
<path d="M478.174 136.875L451.852 110.553L444.833 117.572L471.155 143.894L478.174 136.875Z" fill="white"/>
<path fill-rule="evenodd" clip-rule="evenodd" d="M400.91 142.087L427.232 115.764L423.828 112.361L397.506 138.683L400.91 142.087Z" fill="white"/>
<path d="M427.232 138.683L400.91 112.361L397.506 115.764L423.828 142.087L427.232 138.683Z" fill="white"/>
<path fill-rule="evenodd" clip-rule="evenodd" d="M353.583 143.894L379.905 117.572L372.886 110.553L346.564 136.875L353.583 143.894Z" fill="white"/>
<path d="M379.905 136.875L353.583 110.553L346.564 117.572L372.886 143.894L379.905 136.875Z" fill="white"/>
<path fill-rule="evenodd" clip-rule="evenodd" d="M302.641 142.087L328.963 115.764L325.559 112.361L299.237 138.683L302.641 142.087Z" fill="white"/>
<path d="M328.963 138.683L302.641 112.361L299.237 115.764L325.559 142.087L328.963 138.683Z" fill="white"/>
<path fill-rule="evenodd" clip-rule="evenodd" d="M255.314 143.894L281.636 117.572L274.617 110.553L248.295 136.875L255.314 143.894Z" fill="white"/>
<path d="M281.636 136.875L255.314 110.553L248.295 117.572L274.617 143.894L281.636 136.875Z" fill="white"/>
<path fill-rule="evenodd" clip-rule="evenodd" d="M204.371 142.087L230.694 115.764L227.29 112.361L200.968 138.683L204.371 142.087Z" fill="white"/>
<path d="M230.694 138.683L204.372 112.361L200.968 115.764L227.29 142.087L230.694 138.683Z" fill="white"/>
<path fill-rule="evenodd" clip-rule="evenodd" d="M157.045 143.894L183.367 117.572L176.348 110.553L150.025 136.875L157.045 143.894Z" fill="white"/>
<path d="M183.367 136.875L157.045 110.553L150.025 117.572L176.348 143.894L183.367 136.875Z" fill="white"/>
<path fill-rule="evenodd" clip-rule="evenodd" d="M106.102 142.087L132.424 115.764L129.021 112.361L102.699 138.683L106.102 142.087Z" fill="white"/>
<path d="M132.424 138.683L106.102 112.361L102.699 115.764L129.021 142.087L132.424 138.683Z" fill="white"/>
<path fill-rule="evenodd" clip-rule="evenodd" d="M58.7755 143.894L85.0976 117.572L78.0784 110.553L51.7563 136.875L58.7755 143.894Z" fill="white"/>
<path d="M85.0976 136.875L58.7755 110.553L51.7562 117.572L78.0783 143.894L85.0976 136.875Z" fill="white"/>
<path fill-rule="evenodd" clip-rule="evenodd" d="M7.833 142.087L34.1551 115.764L30.7514 112.361L4.42928 138.683L7.833 142.087Z" fill="white"/>
<path d="M34.1552 138.683L7.83307 112.361L4.42935 115.764L30.7515 142.087L34.1552 138.683Z" fill="white"/>
<path fill-rule="evenodd" clip-rule="evenodd" d="M462.328 178.274L488.65 151.952L485.247 148.548L458.924 174.87L462.328 178.274Z" fill="white"/>
<path d="M488.65 174.87L462.328 148.548L458.925 151.952L485.247 178.274L488.65 174.87Z" fill="white"/>
<path fill-rule="evenodd" clip-rule="evenodd" d="M415.001 180.082L441.324 153.76L434.304 146.74L407.982 173.063L415.001 180.082Z" fill="white"/>
<path d="M441.323 173.063L415.001 146.74L407.982 153.76L434.304 180.082L441.323 173.063Z" fill="white"/>
<path fill-rule="evenodd" clip-rule="evenodd" d="M364.059 178.274L390.381 151.952L386.977 148.548L360.655 174.87L364.059 178.274Z" fill="white"/>
<path d="M390.381 174.87L364.059 148.548L360.655 151.952L386.977 178.274L390.381 174.87Z" fill="white"/>
<path fill-rule="evenodd" clip-rule="evenodd" d="M316.732 180.082L343.054 153.76L336.035 146.74L309.713 173.063L316.732 180.082Z" fill="white"/>
<path d="M343.054 173.063L316.732 146.74L309.713 153.76L336.035 180.082L343.054 173.063Z" fill="white"/>
<path fill-rule="evenodd" clip-rule="evenodd" d="M265.79 178.274L292.112 151.952L288.708 148.548L262.386 174.87L265.79 178.274Z" fill="white"/>
<path d="M292.112 174.87L265.79 148.548L262.386 151.952L288.708 178.274L292.112 174.87Z" fill="white"/>
<path fill-rule="evenodd" clip-rule="evenodd" d="M218.463 180.082L244.785 153.76L237.766 146.74L211.444 173.063L218.463 180.082Z" fill="white"/>
<path d="M244.785 173.063L218.463 146.74L211.444 153.76L237.766 180.082L244.785 173.063Z" fill="white"/>
<path fill-rule="evenodd" clip-rule="evenodd" d="M167.521 178.274L193.843 151.952L190.439 148.548L164.117 174.87L167.521 178.274Z" fill="white"/>
<path d="M193.843 174.87L167.521 148.548L164.117 151.952L190.439 178.274L193.843 174.87Z" fill="white"/>
<path fill-rule="evenodd" clip-rule="evenodd" d="M120.194 180.082L146.516 153.76L139.497 146.74L113.174 173.063L120.194 180.082Z" fill="white"/>
<path d="M146.516 173.063L120.194 146.74L113.174 153.76L139.497 180.082L146.516 173.063Z" fill="white"/>
<path fill-rule="evenodd" clip-rule="evenodd" d="M69.2513 178.937L95.5734 152.615L92.1697 149.212L65.8475 175.534L69.2513 178.937Z" fill="white"/>
<path d="M95.5734 175.534L69.2513 149.212L65.8476 152.615L92.1697 178.937L95.5734 175.534Z" fill="white"/>
<path fill-rule="evenodd" clip-rule="evenodd" d="M21.9243 180.745L48.2464 154.423L41.2272 147.404L14.905 173.726L21.9243 180.745Z" fill="white"/>
<path d="M48.2465 173.726L21.9244 147.404L14.9051 154.423L41.2273 180.745L48.2465 173.726Z" fill="white"/>
<path fill-rule="evenodd" clip-rule="evenodd" d="M451.852 217.596L478.174 191.274L471.155 184.254L444.833 210.577L451.852 217.596Z" fill="white"/>
<path d="M478.174 210.577L451.852 184.254L444.833 191.274L471.155 217.596L478.174 210.577Z" fill="white"/>
<path fill-rule="evenodd" clip-rule="evenodd" d="M400.91 215.788L427.232 189.466L423.828 186.063L397.506 212.385L400.91 215.788Z" fill="white"/>
<path d="M427.232 212.385L400.91 186.063L397.506 189.466L423.828 215.788L427.232 212.385Z" fill="white"/>
<path fill-rule="evenodd" clip-rule="evenodd" d="M353.583 217.596L379.905 191.274L372.886 184.254L346.564 210.577L353.583 217.596Z" fill="white"/>
<path d="M379.905 210.577L353.583 184.254L346.564 191.274L372.886 217.596L379.905 210.577Z" fill="white"/>
<path fill-rule="evenodd" clip-rule="evenodd" d="M302.641 215.788L328.963 189.466L325.559 186.063L299.237 212.385L302.641 215.788Z" fill="white"/>
<path d="M328.963 212.385L302.641 186.063L299.237 189.466L325.559 215.788L328.963 212.385Z" fill="white"/>
<path fill-rule="evenodd" clip-rule="evenodd" d="M255.314 217.596L281.636 191.274L274.617 184.254L248.295 210.577L255.314 217.596Z" fill="white"/>
<path d="M281.636 210.577L255.314 184.254L248.294 191.274L274.617 217.596L281.636 210.577Z" fill="white"/>
<path fill-rule="evenodd" clip-rule="evenodd" d="M204.371 215.788L230.694 189.466L227.29 186.063L200.968 212.385L204.371 215.788Z" fill="white"/>
<path d="M230.694 212.385L204.371 186.063L200.968 189.466L227.29 215.788L230.694 212.385Z" fill="white"/>
<path fill-rule="evenodd" clip-rule="evenodd" d="M157.045 217.596L183.367 191.274L176.348 184.255L150.025 210.577L157.045 217.596Z" fill="white"/>
<path d="M183.367 210.577L157.045 184.255L150.025 191.274L176.348 217.596L183.367 210.577Z" fill="white"/>
<path fill-rule="evenodd" clip-rule="evenodd" d="M106.102 215.788L132.424 189.466L129.021 186.063L102.699 212.385L106.102 215.788Z" fill="white"/>
<path d="M132.424 212.385L106.102 186.063L102.699 189.466L129.021 215.788L132.424 212.385Z" fill="white"/>
<path fill-rule="evenodd" clip-rule="evenodd" d="M58.7755 217.596L85.0977 191.274L78.0784 184.254L51.7563 210.577L58.7755 217.596Z" fill="white"/>
<path d="M85.0976 210.577L58.7755 184.254L51.7563 191.274L78.0784 217.596L85.0976 210.577Z" fill="white"/>
<path fill-rule="evenodd" clip-rule="evenodd" d="M7.83294 215.788L34.1551 189.466L30.7513 186.063L4.42923 212.385L7.83294 215.788Z" fill="white"/>
<path d="M34.1551 212.385L7.83301 186.063L4.42929 189.466L30.7514 215.788L34.1551 212.385Z" fill="white"/>
<path fill-rule="evenodd" clip-rule="evenodd" d="M462.328 251.976L488.65 225.654L485.247 222.25L458.924 248.572L462.328 251.976Z" fill="white"/>
<path d="M488.65 248.572L462.328 222.25L458.925 225.654L485.247 251.976L488.65 248.572Z" fill="white"/>
<path fill-rule="evenodd" clip-rule="evenodd" d="M415.001 253.784L441.324 227.462L434.304 220.442L407.982 246.765L415.001 253.784Z" fill="white"/>
<path d="M441.323 246.765L415.001 220.442L407.982 227.462L434.304 253.784L441.323 246.765Z" fill="white"/>
<path fill-rule="evenodd" clip-rule="evenodd" d="M364.059 251.976L390.381 225.654L386.977 222.25L360.655 248.572L364.059 251.976Z" fill="white"/>
<path d="M390.381 248.572L364.059 222.25L360.655 225.654L386.977 251.976L390.381 248.572Z" fill="white"/>
<path fill-rule="evenodd" clip-rule="evenodd" d="M316.732 253.784L343.054 227.462L336.035 220.442L309.713 246.765L316.732 253.784Z" fill="white"/>
<path d="M343.054 246.765L316.732 220.442L309.713 227.462L336.035 253.784L343.054 246.765Z" fill="white"/>
<path fill-rule="evenodd" clip-rule="evenodd" d="M265.79 251.976L292.112 225.654L288.708 222.25L262.386 248.572L265.79 251.976Z" fill="white"/>
<path d="M292.112 248.572L265.79 222.25L262.386 225.654L288.708 251.976L292.112 248.572Z" fill="white"/>
<path fill-rule="evenodd" clip-rule="evenodd" d="M218.463 253.783L244.785 227.461L237.766 220.442L211.444 246.764L218.463 253.783Z" fill="white"/>
<path d="M244.785 246.764L218.463 220.442L211.444 227.461L237.766 253.783L244.785 246.764Z" fill="white"/>
<path fill-rule="evenodd" clip-rule="evenodd" d="M167.521 251.976L193.843 225.654L190.439 222.25L164.117 248.572L167.521 251.976Z" fill="white"/>
<path d="M193.843 248.572L167.521 222.25L164.117 225.654L190.439 251.976L193.843 248.572Z" fill="white"/>
<path fill-rule="evenodd" clip-rule="evenodd" d="M120.194 253.783L146.516 227.461L139.497 220.442L113.174 246.764L120.194 253.783Z" fill="white"/>
<path d="M146.516 246.764L120.194 220.442L113.174 227.461L139.497 253.783L146.516 246.764Z" fill="white"/>
<path fill-rule="evenodd" clip-rule="evenodd" d="M69.2513 252.639L95.5735 226.317L92.1697 222.913L65.8476 249.235L69.2513 252.639Z" fill="white"/>
<path d="M95.5735 249.235L69.2513 222.913L65.8476 226.317L92.1697 252.639L95.5735 249.235Z" fill="white"/>
<path fill-rule="evenodd" clip-rule="evenodd" d="M21.9243 254.447L48.2465 228.125L41.2272 221.106L14.9051 247.428L21.9243 254.447Z" fill="white"/>
<path d="M48.2466 247.428L21.9244 221.106L14.9052 228.125L41.2273 254.447L48.2466 247.428Z" fill="white"/>
<path fill-rule="evenodd" clip-rule="evenodd" d="M451.852 291.298L478.174 264.976L471.155 257.956L444.833 284.278L451.852 291.298Z" fill="white"/>
<path d="M478.174 284.278L451.852 257.956L444.833 264.976L471.155 291.298L478.174 284.278Z" fill="white"/>
<path fill-rule="evenodd" clip-rule="evenodd" d="M400.91 289.49L427.232 263.168L423.828 259.764L397.506 286.087L400.91 289.49Z" fill="white"/>
<path d="M427.232 286.087L400.91 259.764L397.506 263.168L423.828 289.49L427.232 286.087Z" fill="white"/>
<path fill-rule="evenodd" clip-rule="evenodd" d="M353.583 291.298L379.905 264.975L372.886 257.956L346.564 284.278L353.583 291.298Z" fill="white"/>
<path d="M379.905 284.278L353.583 257.956L346.564 264.975L372.886 291.298L379.905 284.278Z" fill="white"/>
<path fill-rule="evenodd" clip-rule="evenodd" d="M302.641 289.49L328.963 263.168L325.559 259.764L299.237 286.087L302.641 289.49Z" fill="white"/>
<path d="M328.963 286.087L302.641 259.764L299.237 263.168L325.559 289.49L328.963 286.087Z" fill="white"/>
<path fill-rule="evenodd" clip-rule="evenodd" d="M255.314 291.298L281.636 264.975L274.617 257.956L248.295 284.278L255.314 291.298Z" fill="white"/>
<path d="M281.636 284.278L255.314 257.956L248.295 264.975L274.617 291.298L281.636 284.278Z" fill="white"/>
<path fill-rule="evenodd" clip-rule="evenodd" d="M204.372 289.49L230.694 263.168L227.29 259.764L200.968 286.087L204.372 289.49Z" fill="white"/>
<path d="M230.694 286.087L204.372 259.764L200.968 263.168L227.29 289.49L230.694 286.087Z" fill="white"/>
<path fill-rule="evenodd" clip-rule="evenodd" d="M157.045 291.298L183.367 264.975L176.348 257.956L150.025 284.278L157.045 291.298Z" fill="white"/>
<path d="M183.367 284.278L157.045 257.956L150.025 264.975L176.348 291.298L183.367 284.278Z" fill="white"/>
<path fill-rule="evenodd" clip-rule="evenodd" d="M106.102 289.49L132.424 263.168L129.021 259.764L102.699 286.087L106.102 289.49Z" fill="white"/>
<path d="M132.424 286.087L106.102 259.764L102.699 263.168L129.021 289.49L132.424 286.087Z" fill="white"/>
<path fill-rule="evenodd" clip-rule="evenodd" d="M58.7755 291.298L85.0977 264.976L78.0784 257.957L51.7563 284.279L58.7755 291.298Z" fill="white"/>
<path d="M85.0976 284.279L58.7755 257.957L51.7562 264.976L78.0783 291.298L85.0976 284.279Z" fill="white"/>
<path fill-rule="evenodd" clip-rule="evenodd" d="M7.83306 289.49L34.1552 263.168L30.7515 259.764L4.42935 286.087L7.83306 289.49Z" fill="white"/>
<path d="M34.1552 286.087L7.83307 259.764L4.42935 263.168L30.7515 289.49L34.1552 286.087Z" fill="white"/>
<path fill-rule="evenodd" clip-rule="evenodd" d="M462.328 325.678L488.65 299.356L485.247 295.952L458.924 322.274L462.328 325.678Z" fill="white"/>
<path d="M488.65 322.274L462.328 295.952L458.925 299.356L485.247 325.678L488.65 322.274Z" fill="white"/>
<path fill-rule="evenodd" clip-rule="evenodd" d="M415.001 327.485L441.324 301.163L434.304 294.144L407.982 320.466L415.001 327.485Z" fill="white"/>
<path d="M441.323 320.466L415.001 294.144L407.982 301.163L434.304 327.485L441.323 320.466Z" fill="white"/>
<path fill-rule="evenodd" clip-rule="evenodd" d="M364.059 325.678L390.381 299.356L386.977 295.952L360.655 322.274L364.059 325.678Z" fill="white"/>
<path d="M390.381 322.274L364.059 295.952L360.655 299.356L386.977 325.678L390.381 322.274Z" fill="white"/>
<path fill-rule="evenodd" clip-rule="evenodd" d="M316.732 327.485L343.054 301.163L336.035 294.144L309.713 320.466L316.732 327.485Z" fill="white"/>
<path d="M343.054 320.466L316.732 294.144L309.713 301.163L336.035 327.485L343.054 320.466Z" fill="white"/>
<path fill-rule="evenodd" clip-rule="evenodd" d="M265.79 325.678L292.112 299.356L288.708 295.952L262.386 322.274L265.79 325.678Z" fill="white"/>
<path d="M292.112 322.274L265.79 295.952L262.386 299.356L288.708 325.678L292.112 322.274Z" fill="white"/>
<path fill-rule="evenodd" clip-rule="evenodd" d="M218.463 327.485L244.785 301.163L237.766 294.144L211.444 320.466L218.463 327.485Z" fill="white"/>
<path d="M244.785 320.466L218.463 294.144L211.444 301.163L237.766 327.485L244.785 320.466Z" fill="white"/>
<path fill-rule="evenodd" clip-rule="evenodd" d="M167.521 325.678L193.843 299.356L190.439 295.952L164.117 322.274L167.521 325.678Z" fill="white"/>
<path d="M193.843 322.274L167.521 295.952L164.117 299.356L190.439 325.678L193.843 322.274Z" fill="white"/>
<path fill-rule="evenodd" clip-rule="evenodd" d="M120.194 327.485L146.516 301.163L139.497 294.144L113.174 320.466L120.194 327.485Z" fill="white"/>
<path d="M146.516 320.466L120.194 294.144L113.174 301.163L139.497 327.485L146.516 320.466Z" fill="white"/>
<path fill-rule="evenodd" clip-rule="evenodd" d="M69.2512 326.341L95.5733 300.019L92.1696 296.615L65.8475 322.937L69.2512 326.341Z" fill="white"/>
<path d="M95.5734 322.937L69.2513 296.615L65.8476 300.019L92.1697 326.341L95.5734 322.937Z" fill="white"/>
<path fill-rule="evenodd" clip-rule="evenodd" d="M21.9243 328.149L48.2465 301.827L41.2272 294.808L14.9051 321.13L21.9243 328.149Z" fill="white"/>
<path d="M48.2466 321.13L21.9244 294.808L14.9052 301.827L41.2273 328.149L48.2466 321.13Z" fill="white"/>
<path fill-rule="evenodd" clip-rule="evenodd" d="M451.852 365L478.175 338.678L471.155 331.658L444.833 357.981L451.852 365Z" fill="white"/>
<path d="M478.174 357.981L451.852 331.658L444.833 338.678L471.155 365L478.174 357.981Z" fill="white"/>
<path fill-rule="evenodd" clip-rule="evenodd" d="M400.91 363.192L427.232 336.87L423.828 333.466L397.506 359.789L400.91 363.192Z" fill="white"/>
<path d="M427.232 359.789L400.91 333.466L397.506 336.87L423.828 363.192L427.232 359.789Z" fill="white"/>
<path fill-rule="evenodd" clip-rule="evenodd" d="M354.019 365.341L380.341 339.019L373.322 332L347 358.322L354.019 365.341Z" fill="white"/>
<path d="M379.905 357.981L353.583 331.658L346.564 338.678L372.886 365L379.905 357.981Z" fill="white"/>
<path fill-rule="evenodd" clip-rule="evenodd" d="M302.641 363.192L328.963 336.87L325.559 333.466L299.237 359.788L302.641 363.192Z" fill="white"/>
<path d="M328.963 359.788L302.641 333.466L299.237 336.87L325.559 363.192L328.963 359.788Z" fill="white"/>
<path fill-rule="evenodd" clip-rule="evenodd" d="M255.314 365L281.636 338.678L274.617 331.658L248.295 357.981L255.314 365Z" fill="white"/>
<path d="M281.636 357.981L255.314 331.658L248.295 338.678L274.617 365L281.636 357.981Z" fill="white"/>
<path fill-rule="evenodd" clip-rule="evenodd" d="M204.372 363.192L230.694 336.87L227.29 333.466L200.968 359.788L204.372 363.192Z" fill="white"/>
<path d="M230.694 359.788L204.372 333.466L200.968 336.87L227.29 363.192L230.694 359.788Z" fill="white"/>
<path fill-rule="evenodd" clip-rule="evenodd" d="M157.045 365L183.367 338.678L176.348 331.658L150.025 357.981L157.045 365Z" fill="white"/>
<path d="M183.367 357.981L157.045 331.658L150.025 338.678L176.348 365L183.367 357.981Z" fill="white"/>
<path fill-rule="evenodd" clip-rule="evenodd" d="M106.102 363.192L132.424 336.87L129.021 333.466L102.699 359.788L106.102 363.192Z" fill="white"/>
<path d="M132.424 359.788L106.102 333.466L102.699 336.87L129.021 363.192L132.424 359.788Z" fill="white"/>
<path fill-rule="evenodd" clip-rule="evenodd" d="M58.7755 365L85.0977 338.678L78.0784 331.658L51.7563 357.981L58.7755 365Z" fill="white"/>
<path d="M85.0976 357.981L58.7755 331.658L51.7563 338.678L78.0784 365L85.0976 357.981Z" fill="white"/>
<path fill-rule="evenodd" clip-rule="evenodd" d="M7.83306 363.192L34.1552 336.87L30.7515 333.466L4.42935 359.788L7.83306 363.192Z" fill="white"/>
<path d="M34.1552 359.788L7.83307 333.466L4.42935 336.87L30.7515 363.192L34.1552 359.788Z" fill="white"/>
<path d="M149.148 200.938L142.129 193.919L135.11 200.938L142.129 207.957L149.148 200.938Z" fill="white"/>
<path d="M100.013 200.913L92.9941 193.894L85.9749 200.913L92.9941 207.932L100.013 200.913Z" fill="white"/>
<path d="M50.8787 200.938L43.8595 193.919L36.8403 200.938L43.8595 207.958L50.8787 200.938Z" fill="white"/>
<path d="M296.552 200.913L289.533 193.894L282.513 200.913L289.533 207.932L296.552 200.913Z" fill="white"/>
<path d="M247.417 200.887L240.398 193.868L233.379 200.887L240.398 207.907L247.417 200.887Z" fill="white"/>
<path d="M198.283 200.913L191.263 193.894L184.244 200.913L191.263 207.932L198.283 200.913Z" fill="white"/>
<path d="M443.956 200.913L436.937 193.894L429.917 200.913L436.937 207.932L443.956 200.913Z" fill="white"/>
<path d="M394.821 200.887L387.802 193.868L380.783 200.887L387.802 207.907L394.821 200.887Z" fill="white"/>
<path d="M345.686 200.913L338.667 193.894L331.648 200.913L338.667 207.932L345.686 200.913Z" fill="white"/>
<path d="M493.084 200.913L486.065 193.894L479.046 200.913L486.065 207.932L493.084 200.913Z" fill="white"/>
<path d="M161.431 237.789L154.412 230.77L147.393 237.789L154.412 244.808L161.431 237.789Z" fill="white"/>
<path d="M112.297 237.764L105.278 230.745L98.2584 237.764L105.278 244.783L112.297 237.764Z" fill="white"/>
<path d="M63.1622 237.789L56.143 230.77L49.1238 237.789L56.143 244.808L63.1622 237.789Z" fill="white"/>
<path d="M308.835 237.764L301.816 230.745L294.797 237.764L301.816 244.783L308.835 237.764Z" fill="white"/>
<path d="M259.701 237.738L252.682 230.719L245.662 237.738L252.682 244.758L259.701 237.738Z" fill="white"/>
<path d="M210.566 237.764L203.547 230.745L196.528 237.764L203.547 244.783L210.566 237.764Z" fill="white"/>
<path d="M456.239 237.764L449.22 230.745L442.201 237.764L449.22 244.783L456.239 237.764Z" fill="white"/>
<path d="M407.105 237.738L400.085 230.719L393.066 237.738L400.085 244.758L407.105 237.738Z" fill="white"/>
<path d="M357.97 237.764L350.951 230.745L343.931 237.764L350.951 244.783L357.97 237.764Z" fill="white"/>
<path d="M14.0383 237.789L7.01904 230.77L-0.000183838 237.789L7.01904 244.808L14.0383 237.789Z" fill="white"/>
<path d="M149.148 274.64L142.129 267.621L135.11 274.64L142.129 281.659L149.148 274.64Z" fill="white"/>
<path d="M100.013 274.615L92.9941 267.595L85.9749 274.615L92.9941 281.634L100.013 274.615Z" fill="white"/>
<path d="M50.8787 274.64L43.8595 267.621L36.8403 274.64L43.8595 281.659L50.8787 274.64Z" fill="white"/>
<path d="M296.552 274.615L289.533 267.595L282.513 274.615L289.533 281.634L296.552 274.615Z" fill="white"/>
<path d="M247.417 274.589L240.398 267.57L233.379 274.589L240.398 281.608L247.417 274.589Z" fill="white"/>
<path d="M198.283 274.615L191.263 267.595L184.244 274.615L191.263 281.634L198.283 274.615Z" fill="white"/>
<path d="M443.956 274.615L436.937 267.595L429.917 274.615L436.937 281.634L443.956 274.615Z" fill="white"/>
<path d="M394.821 274.589L387.802 267.57L380.783 274.589L387.802 281.608L394.821 274.589Z" fill="white"/>
<path d="M345.686 274.615L338.667 267.595L331.648 274.615L338.667 281.634L345.686 274.615Z" fill="white"/>
<path d="M493.084 274.615L486.065 267.595L479.046 274.615L486.065 281.634L493.084 274.615Z" fill="white"/>
<path d="M161.431 311.491L154.412 304.472L147.393 311.491L154.412 318.51L161.431 311.491Z" fill="white"/>
<path d="M112.297 311.466L105.278 304.446L98.2584 311.466L105.278 318.485L112.297 311.466Z" fill="white"/>
<path d="M63.1622 311.491L56.1429 304.472L49.1237 311.491L56.1429 318.51L63.1622 311.491Z" fill="white"/>
<path d="M308.835 311.466L301.816 304.446L294.797 311.466L301.816 318.485L308.835 311.466Z" fill="white"/>
<path d="M259.701 311.44L252.682 304.421L245.662 311.44L252.682 318.459L259.701 311.44Z" fill="white"/>
<path d="M210.566 311.466L203.547 304.447L196.528 311.466L203.547 318.485L210.566 311.466Z" fill="white"/>
<path d="M456.239 311.466L449.22 304.446L442.201 311.466L449.22 318.485L456.239 311.466Z" fill="white"/>
<path d="M407.105 311.44L400.085 304.421L393.066 311.44L400.085 318.459L407.105 311.44Z" fill="white"/>
<path d="M357.97 311.466L350.951 304.446L343.931 311.466L350.951 318.485L357.97 311.466Z" fill="white"/>
<path d="M14.0383 311.491L7.01904 304.472L-0.000199126 311.491L7.01904 318.51L14.0383 311.491Z" fill="white"/>
<path d="M149.148 127.236L142.129 120.217L135.109 127.236L142.129 134.256L149.148 127.236Z" fill="white"/>
<path d="M100.013 127.211L92.9941 120.192L85.9749 127.211L92.9941 134.23L100.013 127.211Z" fill="white"/>
<path d="M50.8787 127.236L43.8595 120.217L36.8403 127.236L43.8595 134.256L50.8787 127.236Z" fill="white"/>
<path d="M296.552 127.211L289.533 120.192L282.513 127.211L289.533 134.23L296.552 127.211Z" fill="white"/>
<path d="M247.417 127.185L240.398 120.166L233.379 127.185L240.398 134.205L247.417 127.185Z" fill="white"/>
<path d="M198.283 127.211L191.263 120.192L184.244 127.211L191.263 134.23L198.283 127.211Z" fill="white"/>
<path d="M443.956 127.211L436.937 120.192L429.917 127.211L436.937 134.23L443.956 127.211Z" fill="white"/>
<path d="M394.821 127.185L387.802 120.166L380.783 127.185L387.802 134.205L394.821 127.185Z" fill="white"/>
<path d="M345.686 127.211L338.667 120.192L331.648 127.211L338.667 134.23L345.686 127.211Z" fill="white"/>
<path d="M493.084 127.211L486.065 120.192L479.046 127.211L486.065 134.23L493.084 127.211Z" fill="white"/>
<path d="M161.431 164.087L154.412 157.068L147.393 164.087L154.412 171.106L161.431 164.087Z" fill="white"/>
<path d="M112.297 164.062L105.278 157.043L98.2584 164.062L105.278 171.081L112.297 164.062Z" fill="white"/>
<path d="M63.1622 164.087L56.143 157.068L49.1238 164.087L56.143 171.106L63.1622 164.087Z" fill="white"/>
<path d="M308.835 164.062L301.816 157.043L294.797 164.062L301.816 171.081L308.835 164.062Z" fill="white"/>
<path d="M259.701 164.036L252.682 157.017L245.662 164.036L252.682 171.056L259.701 164.036Z" fill="white"/>
<path d="M210.566 164.062L203.547 157.043L196.528 164.062L203.547 171.081L210.566 164.062Z" fill="white"/>
<path d="M456.239 164.062L449.22 157.043L442.201 164.062L449.22 171.081L456.239 164.062Z" fill="white"/>
<path d="M407.105 164.036L400.085 157.017L393.066 164.036L400.085 171.056L407.105 164.036Z" fill="white"/>
<path d="M357.97 164.062L350.951 157.043L343.931 164.062L350.951 171.081L357.97 164.062Z" fill="white"/>
<path d="M14.0383 164.087L7.01904 157.068L-0.000183743 164.087L7.01904 171.106L14.0383 164.087Z" fill="white"/>
<path d="M149.148 53.5345L142.129 46.5153L135.109 53.5345L142.129 60.5537L149.148 53.5345Z" fill="white"/>
<path d="M100.013 53.509L92.9941 46.4897L85.9749 53.509L92.9941 60.5282L100.013 53.509Z" fill="white"/>
<path d="M50.8787 53.5345L43.8595 46.5153L36.8403 53.5345L43.8595 60.5537L50.8787 53.5345Z" fill="white"/>
<path d="M296.552 53.509L289.533 46.4897L282.513 53.509L289.533 60.5282L296.552 53.509Z" fill="white"/>
<path d="M247.417 53.4836L240.398 46.4644L233.379 53.4836L240.398 60.5028L247.417 53.4836Z" fill="white"/>
<path d="M198.283 53.509L191.263 46.4897L184.244 53.509L191.263 60.5282L198.283 53.509Z" fill="white"/>
<path d="M443.956 53.509L436.937 46.4897L429.917 53.509L436.937 60.5282L443.956 53.509Z" fill="white"/>
<path d="M394.821 53.4836L387.802 46.4644L380.783 53.4836L387.802 60.5028L394.821 53.4836Z" fill="white"/>
<path d="M345.686 53.509L338.667 46.4897L331.648 53.509L338.667 60.5282L345.686 53.509Z" fill="white"/>
<path d="M493.084 53.509L486.065 46.4897L479.046 53.509L486.065 60.5282L493.084 53.509Z" fill="white"/>
<path d="M161.431 90.3853L154.412 83.3661L147.393 90.3853L154.412 97.4046L161.431 90.3853Z" fill="white"/>
<path d="M112.297 90.3599L105.278 83.3407L98.2584 90.3599L105.278 97.3792L112.297 90.3599Z" fill="white"/>
<path d="M63.1622 90.3854L56.143 83.3662L49.1238 90.3854L56.143 97.4047L63.1622 90.3854Z" fill="white"/>
<path d="M308.835 90.3599L301.816 83.3407L294.797 90.3599L301.816 97.3792L308.835 90.3599Z" fill="white"/>
<path d="M259.701 90.3345L252.682 83.3153L245.662 90.3345L252.682 97.3538L259.701 90.3345Z" fill="white"/>
<path d="M210.566 90.3599L203.547 83.3407L196.528 90.3599L203.547 97.3792L210.566 90.3599Z" fill="white"/>
<path d="M456.239 90.3599L449.22 83.3407L442.201 90.3599L449.22 97.3792L456.239 90.3599Z" fill="white"/>
<path d="M407.105 90.3345L400.085 83.3153L393.066 90.3345L400.085 97.3538L407.105 90.3345Z" fill="white"/>
<path d="M357.97 90.3601L350.951 83.3408L343.931 90.36L350.951 97.3793L357.97 90.3601Z" fill="white"/>
<path d="M14.0383 90.3854L7.01904 83.3662L-0.000184017 90.3854L7.01904 97.4047L14.0383 90.3854Z" fill="white"/>
<path d="M161.431 16.7089L154.412 9.6897L147.393 16.7089L154.412 23.7282L161.431 16.7089Z" fill="white"/>
<path d="M112.297 16.6834L105.278 9.66418L98.2584 16.6834L105.278 23.7026L112.297 16.6834Z" fill="white"/>
<path d="M63.1622 16.7089L56.143 9.6897L49.1238 16.7089L56.143 23.7282L63.1622 16.7089Z" fill="white"/>
<path d="M308.835 16.6834L301.816 9.66418L294.797 16.6834L301.816 23.7026L308.835 16.6834Z" fill="white"/>
<path d="M259.701 16.658L252.682 9.63879L245.662 16.658L252.682 23.6773L259.701 16.658Z" fill="white"/>
<path d="M210.566 16.6834L203.547 9.66418L196.528 16.6834L203.547 23.7026L210.566 16.6834Z" fill="white"/>
<path d="M456.239 16.6834L449.22 9.66418L442.201 16.6834L449.22 23.7026L456.239 16.6834Z" fill="white"/>
<path d="M407.105 16.658L400.085 9.63879L393.066 16.658L400.085 23.6773L407.105 16.658Z" fill="white"/>
<path d="M357.97 16.6834L350.951 9.66418L343.931 16.6834L350.951 23.7026L357.97 16.6834Z" fill="white"/>
<path d="M14.0383 16.7089L7.01904 9.6897L-0.000183756 16.7089L7.01904 23.7282L14.0383 16.7089Z" fill="white"/>
<path d="M149.148 348.342L142.129 341.323L135.109 348.342L142.129 355.361L149.148 348.342Z" fill="white"/>
<path d="M100.013 348.316L92.994 341.297L85.9748 348.316L92.994 355.336L100.013 348.316Z" fill="white"/>
<path d="M50.8786 348.342L43.8594 341.323L36.8401 348.342L43.8594 355.361L50.8786 348.342Z" fill="white"/>
<path d="M296.552 348.316L289.533 341.297L282.513 348.316L289.533 355.336L296.552 348.316Z" fill="white"/>
<path d="M247.417 348.291L240.398 341.272L233.379 348.291L240.398 355.31L247.417 348.291Z" fill="white"/>
<path d="M198.282 348.316L191.263 341.297L184.244 348.316L191.263 355.336L198.282 348.316Z" fill="white"/>
<path d="M443.956 348.317L436.936 341.297L429.917 348.317L436.936 355.336L443.956 348.317Z" fill="white"/>
<path d="M394.821 348.291L387.802 341.272L380.783 348.291L387.802 355.31L394.821 348.291Z" fill="white"/>
<path d="M345.686 348.317L338.667 341.297L331.648 348.317L338.667 355.336L345.686 348.317Z" fill="white"/>
<path d="M493.084 348.317L486.065 341.297L479.046 348.317L486.065 355.336L493.084 348.317Z" fill="white"/>
</g>
<defs>
<clipPath id="clip0">
<rect width="365" height="493.084" fill="white" transform="translate(493.084) rotate(90)"/>
</clipPath>
</defs>
</svg>
