<?xml version="1.0" encoding="UTF-8"?>
<svg width="493" height="70" version="1.1" viewBox="0 0 130.44 18.521" xmlns="http://www.w3.org/2000/svg" xmlns:cc="http://creativecommons.org/ns#" xmlns:dc="http://purl.org/dc/elements/1.1/" xmlns:rdf="http://www.w3.org/1999/02/22-rdf-syntax-ns#">
 <metadata>
  <rdf:RDF>
   <cc:Work rdf:about="">
    <dc:format>image/svg+xml</dc:format>
    <dc:type rdf:resource="http://purl.org/dc/dcmitype/StillImage"/>
    <dc:title/>
   </cc:Work>
  </rdf:RDF>
 </metadata>
 <g transform="matrix(.26454 0 0 .26386 3.9397e-6 -8.8539e-8)" fill="#fff">
  <path d="m14.038 16.709-7.0192-7.0193-7.0192 7.0193 7.0192 7.0192z"/>
  <path d="m357.97 16.684-7.019-7.0192-7.019 7.0192 7.019 7.0193z"/>
  <path d="m407.1 16.658-7.019-7.0192-7.02 7.0192 7.02 7.0193z"/>
  <path d="m456.24 16.684-7.019-7.0192-7.019 7.0192 7.019 7.0193z"/>
  <path d="m210.57 16.684-7.019-7.0192-7.019 7.0192 7.019 7.0193z"/>
  <path d="m259.7 16.658-7.019-7.0192-7.02 7.0192 7.02 7.0193z"/>
  <path d="m308.84 16.684-7.019-7.0192-7.019 7.0192 7.019 7.0193z"/>
  <path d="m63.162 16.709-7.0193-7.0193-7.0192 7.0193 7.0192 7.0192z"/>
  <path d="m112.3 16.684-7.019-7.0192-7.0194 7.0192 7.0194 7.0193z"/>
  <path d="m161.43 16.709-7.02-7.0193-7.019 7.0193 7.019 7.0192z"/>
  <path d="m493.08 53.509-7.019-7.0193-7.019 7.0193 7.019 7.0192z"/>
  <path d="m345.69 53.509-7.019-7.0193-7.019 7.0193 7.019 7.0192z"/>
  <path d="m394.82 53.484-7.019-7.0192-7.019 7.0192 7.019 7.0192z"/>
  <path d="m443.96 53.509-7.019-7.0193-7.02 7.0193 7.02 7.0192z"/>
  <path d="m198.28 53.509-7.02-7.0193-7.019 7.0193 7.019 7.0192z"/>
  <path d="m247.42 53.484-7.019-7.0192-7.019 7.0192 7.019 7.0192z"/>
  <path d="m296.55 53.509-7.019-7.0193-7.02 7.0193 7.02 7.0192z"/>
  <path d="m50.879 53.534-7.0192-7.0192-7.0192 7.0192 7.0192 7.0192z"/>
  <path d="m100.01 53.509-7.0188-7.0193-7.0193 7.0193 7.0193 7.0192z"/>
  <path d="m149.15 53.534-7.019-7.0192-7.019 7.0192 7.019 7.0192z"/>
  <path d="m34.155 64.981-26.322-26.322-3.4037 3.4037 26.322 26.322z"/>
  <path d="m7.8331 68.385 26.322-26.322-3.4037-3.4037-26.322 26.322z" clip-rule="evenodd" fill-rule="evenodd"/>
  <path d="m85.098 63.173-26.322-26.322-7.0192 7.0192 26.322 26.322z"/>
  <path d="m58.775 70.192 26.322-26.322-7.0193-7.0192-26.322 26.322z" clip-rule="evenodd" fill-rule="evenodd"/>
  <path d="m132.42 64.981-26.322-26.322-3.403 3.4037 26.322 26.322z"/>
  <path d="m106.1 68.385 26.322-26.322-3.403-3.4037-26.322 26.322z" clip-rule="evenodd" fill-rule="evenodd"/>
  <path d="m183.37 63.173-26.322-26.322-7.02 7.0193 26.323 26.322z"/>
  <path d="m157.04 70.192 26.322-26.322-7.019-7.0193-26.323 26.322z" clip-rule="evenodd" fill-rule="evenodd"/>
  <path d="m230.69 64.981-26.322-26.322-3.404 3.4037 26.322 26.322z"/>
  <path d="m204.37 68.385 26.322-26.322-3.404-3.4037-26.322 26.322z" clip-rule="evenodd" fill-rule="evenodd"/>
  <path d="m281.64 63.173-26.322-26.322-7.019 7.0192 26.322 26.322z"/>
  <path d="m255.31 70.192 26.322-26.322-7.019-7.0192-26.322 26.322z" clip-rule="evenodd" fill-rule="evenodd"/>
  <path d="m328.96 64.981-26.322-26.322-3.404 3.4037 26.322 26.322z"/>
  <path d="m302.64 68.385 26.322-26.322-3.404-3.4037-26.322 26.322z" clip-rule="evenodd" fill-rule="evenodd"/>
  <path d="m379.9 63.173-26.322-26.322-7.019 7.0192 26.322 26.322z"/>
  <path d="m353.58 70.192 26.322-26.322-7.019-7.0192-26.322 26.322z" clip-rule="evenodd" fill-rule="evenodd"/>
  <path d="m48.247 26.986-26.322-26.322-7.0192 7.0192 26.322 26.322z"/>
  <path d="m21.924 34.005 26.322-26.322-7.0193-7.0192-26.322 26.322z" clip-rule="evenodd" fill-rule="evenodd"/>
  <path d="m95.573 28.793-26.322-26.322-3.4037 3.4037 26.322 26.322z"/>
  <path d="m69.251 32.197 26.322-26.322-3.4037-3.4037-26.322 26.322z" clip-rule="evenodd" fill-rule="evenodd"/>
  <path d="m146.52 26.322-26.322-26.322-7.02 7.0192 26.323 26.322z"/>
  <path d="m120.19 33.341 26.322-26.322-7.019-7.0192-26.323 26.322z" clip-rule="evenodd" fill-rule="evenodd"/>
  <path d="m193.84 28.13-26.322-26.322-3.404 3.4037 26.322 26.322z"/>
  <path d="m167.52 31.534 26.323-26.322-3.404-3.4037-26.322 26.322z" clip-rule="evenodd" fill-rule="evenodd"/>
  <path d="m244.78 26.322-26.322-26.322-7.019 7.0192 26.322 26.322z"/>
  <path d="m218.46 33.341 26.322-26.322-7.019-7.0192-26.322 26.322z" clip-rule="evenodd" fill-rule="evenodd"/>
  <path d="m292.11 28.13-26.322-26.322-3.404 3.4037 26.322 26.322z"/>
  <path d="m265.79 31.534 26.322-26.322-3.404-3.4037-26.322 26.322z" clip-rule="evenodd" fill-rule="evenodd"/>
  <path d="m343.05 26.322-26.322-26.322-7.019 7.0192 26.322 26.322z"/>
  <path d="m316.73 33.341 26.322-26.322-7.019-7.0192-26.322 26.322z" clip-rule="evenodd" fill-rule="evenodd"/>
  <path d="m390.38 28.13-26.322-26.322-3.404 3.4037 26.322 26.322z"/>
  <path d="m364.06 31.534 26.322-26.322-3.404-3.4037-26.322 26.322z" clip-rule="evenodd" fill-rule="evenodd"/>
  <path d="m427.23 64.981-26.322-26.322-3.404 3.4037 26.322 26.322z"/>
  <path d="m400.91 68.385 26.322-26.322-3.404-3.4037-26.322 26.322z" clip-rule="evenodd" fill-rule="evenodd"/>
  <path d="m478.17 63.173-26.322-26.322-7.019 7.0192 26.322 26.322z"/>
  <path d="m451.85 70.192 26.323-26.322-7.02-7.0192-26.322 26.322z" clip-rule="evenodd" fill-rule="evenodd"/>
  <path d="m441.32 26.322-26.323-26.322-7.019 7.0192 26.322 26.322z"/>
  <path d="m415 33.341 26.323-26.322-7.02-7.0192-26.322 26.322z" clip-rule="evenodd" fill-rule="evenodd"/>
  <path d="m488.65 28.13-26.322-26.322-3.403 3.4037 26.322 26.322z"/>
  <path d="m462.33 31.534 26.322-26.322-3.403-3.4037-26.322 26.322z" clip-rule="evenodd" fill-rule="evenodd"/>
 </g>
</svg>
