<svg width="41" height="41" viewBox="0 0 41 41" fill="none" xmlns="http://www.w3.org/2000/svg">
<path fill-rule="evenodd" clip-rule="evenodd" d="M12.0942 8.2504C12.8447 7.49987 14.0616 7.49987 14.8121 8.2504C15.5626 9.00093 15.5626 10.2178 14.8121 10.9683L5.28044 20.5L14.8121 30.0317C15.5626 30.7823 15.5626 31.999 14.8121 32.7495C14.0616 33.5001 12.8447 33.5001 12.0942 32.7495L1.20353 21.859C0.45299 21.1084 0.45299 19.8916 1.20353 19.141L12.0942 8.2504ZM28.9058 8.2504C28.1552 7.49987 26.9385 7.49987 26.188 8.2504C25.4374 9.00093 25.4374 10.2178 26.188 10.9683L35.7195 20.5L26.188 30.0317C25.4374 30.7823 25.4374 31.999 26.188 32.7495C26.9385 33.5001 28.1552 33.5001 28.9058 32.7495L39.7964 21.859C40.547 21.1084 40.547 19.8916 39.7964 19.141L28.9058 8.2504Z" fill="#5761B2"/>
</svg>
