<svg width="40" height="42" viewBox="0 0 40 42" fill="none" xmlns="http://www.w3.org/2000/svg">
<path fill-rule="evenodd" clip-rule="evenodd" d="M21.2835 0.166687H18.7106C17.2615 0.166687 15.8721 0.732417 14.8499 1.73872C13.9439 2.63065 13.3897 3.80661 13.2828 5.05795L13.2651 5.46212C13.2453 6.77819 12.1821 7.8049 10.8771 7.80477C10.5812 7.80168 10.2738 7.73414 9.99081 7.60689L9.71324 7.46192C7.14908 6.0212 3.81518 6.90369 2.31079 9.46181L0.95812 11.6395C-0.480218 14.0844 0.229188 17.1558 2.55102 18.7377L2.87393 18.9407C3.66978 19.3925 4.12473 20.1645 4.12473 21C4.12473 21.7684 3.73941 22.4868 3.09678 22.9226L2.8774 23.0572C0.47191 24.4193 -0.475884 27.4253 0.733269 29.9259L0.909986 30.2588L2.23777 32.505C2.92791 33.7257 4.11055 34.6452 5.50928 35.0347C6.74903 35.3799 8.07209 35.2844 9.24505 34.7676L9.61595 34.5861C10.2402 34.2325 10.8851 34.1477 11.4904 34.3064C12.0957 34.4651 12.6112 34.8541 12.9223 35.387C13.0938 35.6705 13.1945 35.963 13.2305 36.266L13.2482 36.5737C13.2451 39.436 15.6921 41.8334 18.7106 41.8334H21.2842C24.1344 41.8334 26.4999 39.6882 26.7313 36.9197L26.7482 36.5621C26.7465 35.8706 26.9963 35.2758 27.4432 34.838C27.8901 34.4001 28.4971 34.1555 29.1291 34.1584C29.4197 34.1664 29.7388 34.2376 30.0346 34.3672L30.3182 34.5104C32.7105 35.8633 35.8455 35.1683 37.4601 32.8935L37.6673 32.5771L39.0415 30.3342C39.7813 29.0903 39.9816 27.6286 39.6081 26.2563C39.277 25.0399 38.5181 23.9786 37.4674 23.2586L37.1196 23.0402C36.5151 22.6978 36.1166 22.1892 35.9542 21.5925C35.7918 20.9958 35.8788 20.3602 36.1962 19.8267C36.3718 19.5262 36.6055 19.2762 36.8857 19.0848L37.4217 18.7548C39.5923 17.311 40.4052 14.4692 39.2627 12.0801L39.1442 11.8474C39.1186 11.7867 39.0889 11.7276 39.0552 11.6703L37.7778 9.49852C36.3565 7.08165 33.2832 6.14372 30.7208 7.32397L30.3795 7.49666C29.7671 7.84768 29.1205 7.93641 28.5118 7.78156C27.9031 7.62671 27.3823 7.241 27.0642 6.70949C26.9009 6.43994 26.8002 6.14751 26.7642 5.8445L26.7466 5.53681C26.7914 4.22852 26.2343 2.8267 25.2047 1.789C24.1751 0.751301 22.7607 0.166093 21.2835 0.166687ZM18.7106 3.18283H21.2842C21.9299 3.18257 22.5477 3.43815 22.9973 3.89135C23.447 4.34455 23.6903 4.95677 23.6718 5.58855L23.6991 6.11366C23.7922 6.91637 24.0327 7.6147 24.4127 8.24204C25.1402 9.45764 26.3382 10.3447 27.7382 10.7009C29.1382 11.057 30.6253 10.853 31.8715 10.1337L32.0864 10.0264L32.3176 9.93566C33.3351 9.60114 34.5342 10.0245 35.1105 11.0044L36.3288 13.0777L36.3552 13.1361L36.5025 13.4143C36.9955 14.448 36.5835 15.7557 35.5167 16.367L35.1819 16.5736C34.4716 17.057 33.9269 17.6399 33.5305 18.318C32.8064 19.5356 32.6061 20.9972 32.9796 22.3696C33.3192 23.6172 34.1076 24.6975 35.1922 25.4157L35.7594 25.767C36.1596 26.0431 36.4896 26.5045 36.6336 27.0334C36.796 27.6301 36.7089 28.2656 36.3916 28.7992L35.0491 30.9911L34.8981 31.2223C34.277 32.0955 33.0514 32.4197 32.0182 31.9754L31.36 31.6459C30.6258 31.3223 29.9075 31.162 29.1777 31.1429C27.6904 31.1355 26.2943 31.6982 25.2664 32.7053C24.2385 33.7123 23.6641 35.0802 23.6712 36.5043L23.6594 36.7316C23.5623 37.8799 22.5286 38.8172 21.2842 38.8172H18.7106C17.4802 38.8172 16.4672 37.9052 16.3376 36.7335L16.2956 35.9968C16.2025 35.1941 15.9621 34.4958 15.582 33.8685C14.8756 32.6582 13.6846 31.7595 12.2862 31.3928C10.8878 31.0262 9.39784 31.222 8.14751 31.9368L7.92102 32.0455C7.4702 32.2425 6.89232 32.2842 6.3509 32.1334C5.74003 31.9634 5.22352 31.5618 4.91568 31.0176L3.60475 28.8019L3.48748 28.5799C2.9909 27.55 3.40322 26.2423 4.47166 25.6367L4.79625 25.4368C6.32111 24.4043 7.20323 22.7595 7.20323 21C7.20323 19.2145 6.29578 17.5556 4.79991 16.5646L4.25676 16.2276C3.29702 15.5722 2.98703 14.2301 3.60686 13.1762L4.95954 10.9985C5.63523 9.85035 7.09126 9.46494 8.23314 10.106L8.6339 10.3131C9.38242 10.652 10.1164 10.8133 10.861 10.8208C13.7494 10.8212 16.1112 8.64769 16.3268 5.87816L16.3548 5.24297C16.3971 4.76547 16.638 4.25413 17.032 3.86633C17.4764 3.4288 18.0805 3.18283 18.7106 3.18283ZM20.0068 14.1913C16.1687 14.1913 13.0573 17.2397 13.0573 21C13.0573 24.7604 16.1687 27.8087 20.0068 27.8087C23.8449 27.8087 26.9563 24.7604 26.9563 21C26.9563 17.2397 23.8449 14.1913 20.0068 14.1913ZM20.0067 17.2074C22.1446 17.2074 23.8777 18.9054 23.8777 21C23.8777 23.0946 22.1446 24.7926 20.0067 24.7926C17.8688 24.7926 16.1357 23.0946 16.1357 21C16.1357 18.9054 17.8688 17.2074 20.0067 17.2074Z" fill="#5761B2"/>
</svg>
