<svg width="12" height="13" viewBox="0 0 12 13" fill="none" xmlns="http://www.w3.org/2000/svg">
<path fill-rule="evenodd" clip-rule="evenodd" d="M8.65627 2.55685C9.05683 2.95733 9.37467 3.4328 9.59142 3.9561C9.80825 4.4794 9.91978 5.04029 9.91978 5.60673C9.91978 6.17317 9.80825 6.73405 9.59142 7.25735C9.37467 7.78066 9.05683 8.25613 8.65627 8.6566L5.60639 11.7048L2.55651 8.65574C2.156 8.25527 1.83829 7.77974 1.62154 7.25645C1.40478 6.73315 1.29321 6.17228 1.29321 5.60587C1.29321 5.03945 1.40478 4.47859 1.62154 3.95529C1.83829 3.43198 2.156 2.9565 2.55651 2.55599C2.95704 2.15547 3.43252 1.83777 3.95581 1.62101C4.47911 1.40425 5.03998 1.29269 5.60639 1.29269C6.17281 1.29269 6.73367 1.40425 7.25697 1.62101C7.78029 1.83777 8.25572 2.15547 8.65627 2.55599V2.55685ZM9.57054 9.57087C10.3547 8.78684 10.8886 7.78787 11.1051 6.70032C11.3214 5.61278 11.2104 4.48549 10.7861 3.46103C10.3617 2.43656 9.64317 1.56094 8.72122 0.944876C7.79918 0.328821 6.71525 0 5.60639 0C4.49753 0 3.41358 0.328821 2.4916 0.944876C1.56963 1.56094 0.851042 2.43656 0.426715 3.46103C0.0023977 4.48549 -0.1086 5.61278 0.107763 6.70032C0.324127 7.78787 0.858132 8.78684 1.64224 9.57087L4.69126 12.6208C4.81141 12.741 4.95407 12.8364 5.1111 12.9014C5.26812 12.9665 5.43642 13 5.60639 13C5.77637 13 5.94467 12.9665 6.1017 12.9014C6.25872 12.8364 6.40138 12.741 6.52153 12.6208L9.57054 9.57087ZM5.60639 7.33177C6.06391 7.33177 6.50267 7.15002 6.82619 6.82652C7.14969 6.50301 7.33144 6.06424 7.33144 5.60673C7.33144 5.14921 7.14969 4.71045 6.82619 4.38693C6.50267 4.06343 6.06391 3.88169 5.60639 3.88169C5.14889 3.88169 4.71011 4.06343 4.38661 4.38693C4.0631 4.71045 3.88135 5.14921 3.88135 5.60673C3.88135 6.06424 4.0631 6.50301 4.38661 6.82652C4.71011 7.15002 5.14889 7.33177 5.60639 7.33177Z" fill="#989898"/>
</svg>
