<svg width="18" height="13" viewBox="0 0 18 13" fill="none" xmlns="http://www.w3.org/2000/svg">
<path fill-rule="evenodd" clip-rule="evenodd" d="M1.89597 0C0.848926 0 0.000132248 0.848792 0.000132248 1.89583V2.69292C-4.42937e-05 2.70269 -4.38713e-05 2.71246 0.000132248 2.72222V11.1042C0.000132248 12.1512 0.848925 13 1.89597 13H15.4376C16.4847 13 17.3335 12.1512 17.3335 11.1042V2.72204C17.3337 2.71241 17.3337 2.70275 17.3335 2.6931V1.89583C17.3335 0.848792 16.4847 0 15.4376 0H1.89597ZM15.7085 2.24281V1.89583C15.7085 1.74626 15.5872 1.625 15.4376 1.625H1.89597C1.74639 1.625 1.62513 1.74626 1.62513 1.89583V2.24281L8.6668 6.37068L15.7085 2.24281ZM1.62513 4.12644V11.1042C1.62513 11.2538 1.74639 11.375 1.89597 11.375H15.4376C15.5872 11.375 15.7085 11.2538 15.7085 11.1042V4.12644L9.0777 8.01344C8.82396 8.16218 8.50964 8.16218 8.2559 8.01344L1.62513 4.12644Z" fill="#989898"/>
</svg>
