<svg width="12" height="13" viewBox="0 0 12 13" fill="none" xmlns="http://www.w3.org/2000/svg">
<path fill-rule="evenodd" clip-rule="evenodd" d="M8.48293 3.9944C8.48293 4.65664 8.21985 5.29175 7.75159 5.76002C7.28332 6.2283 6.6482 6.49137 5.98596 6.49137C5.32372 6.49137 4.68862 6.2283 4.22034 5.76002C3.75206 5.29175 3.48899 4.65664 3.48899 3.9944C3.48899 3.33217 3.75206 2.69705 4.22034 2.22877C4.68862 1.7605 5.32372 1.49743 5.98596 1.49743C6.6482 1.49743 7.28332 1.7605 7.75159 2.22877C8.21985 2.69705 8.48293 3.33217 8.48293 3.9944ZM8.54386 7.06368C9.17439 6.53795 9.62764 5.83075 9.84208 5.03827C10.0564 4.24579 10.0214 3.40652 9.7418 2.63463C9.46224 1.86275 8.95166 1.19573 8.27958 0.724311C7.60744 0.252903 6.80642 0 5.98546 0C5.16451 0 4.36348 0.252903 3.69137 0.724311C3.01925 1.19573 2.50867 1.86275 2.22911 2.63463C1.94954 3.40652 1.91454 4.24579 2.12889 5.03827C2.34324 5.83075 2.79652 6.53795 3.42707 7.06368C2.44385 7.52851 1.60555 8.25198 1.00191 9.15664C0.398274 10.0613 0.0520239 11.1131 0.000226726 12.1994C-0.00458743 12.3952 0.0674252 12.5851 0.200863 12.7283C0.334291 12.8716 0.518528 12.957 0.71413 12.9661C0.909723 12.9753 1.10112 12.9075 1.24733 12.7772C1.39355 12.647 1.48296 12.4647 1.49641 12.2694C1.55086 11.1153 2.04764 10.0265 2.88364 9.22905C3.71962 8.43155 4.8306 7.98663 5.98596 7.98663C7.14132 7.98663 8.25231 8.43155 9.08829 9.22905C9.92428 10.0265 10.4211 11.1153 10.4755 12.2694C10.478 12.3691 10.5003 12.4673 10.5412 12.5583C10.5822 12.6493 10.6409 12.7312 10.7139 12.7991C10.7869 12.8671 10.8728 12.9199 10.9664 12.9542C11.0601 12.9886 11.1597 13.0039 11.2594 12.9992C11.359 12.9946 11.4567 12.97 11.5468 12.9271C11.6368 12.8841 11.7174 12.8237 11.7837 12.7492C11.8501 12.6747 11.9009 12.5877 11.9331 12.4933C11.9655 12.3989 11.9786 12.2989 11.9717 12.1994C11.9198 11.113 11.5734 10.0611 10.9696 9.15644C10.3657 8.25178 9.52726 7.52837 8.54386 7.06368Z" fill="#989898"/>
</svg>
