<svg width="16" height="16" viewBox="0 0 16 16" fill="none" xmlns="http://www.w3.org/2000/svg">
<path fill-rule="evenodd" clip-rule="evenodd" d="M6.36978 6.55462C6.55525 6.43097 6.66665 6.22282 6.66665 5.99992V3.33325C6.66665 2.22868 5.77122 1.33325 4.66665 1.33325H1.99998C1.63179 1.33325 1.33331 1.63173 1.33331 1.99992C1.33331 8.62734 7.37256 14.6666 14 14.6666C14.3682 14.6666 14.6666 14.3681 14.6666 13.9999V11.3333C14.6666 10.2287 13.7712 9.33325 12.6666 9.33325H9.99998C9.77708 9.33325 9.56892 9.44465 9.44528 9.63012L8.17505 11.5355C6.79157 10.6409 5.57948 9.45937 4.64714 8.09923L4.46443 7.82485L6.36978 6.55462ZM10.3568 10.6666H12.6666C13.0348 10.6666 13.3333 10.9651 13.3333 11.3333V13.3101C12.0418 13.2208 10.7814 12.8754 9.6058 12.3276L9.33604 12.1977L10.3568 10.6666ZM2.68976 2.66659H4.66664C5.03483 2.66659 5.33331 2.96506 5.33331 3.33325V5.64313L3.80223 6.66385C3.17919 5.41222 2.786 4.05743 2.68976 2.66659Z" fill="#989898"/>
</svg>
