<svg width="20" height="20" viewBox="0 0 20 20" fill="none" xmlns="http://www.w3.org/2000/svg">
<path d="M20 20H15.5556V12.5C15.5556 11.3238 14.2357 10.3398 13.0595 10.3398C11.8832 10.3398 11.1111 11.3238 11.1111 12.5V20H6.66668V6.66667H11.1111V8.88889C11.847 7.69841 13.7293 6.9303 15.0278 6.9303C17.7739 6.9303 20 9.19845 20 11.9444V20ZM4.44444 20H0V6.66667H4.44444V20ZM2.22223 0C3.44953 0 4.44446 0.994922 4.44446 2.22222C4.44446 3.44952 3.44953 4.44444 2.22223 4.44444C0.994933 4.44444 1.11262e-05 3.44952 1.11262e-05 2.22222C1.11262e-05 0.994922 0.994933 0 2.22223 0Z" fill="#F9F9F9"/>
</svg>
