<svg width="31" height="32" viewBox="0 0 31 32" fill="none" xmlns="http://www.w3.org/2000/svg">
<path fill-rule="evenodd" clip-rule="evenodd" d="M8.08129 0C8.97392 0 9.69755 0.671573 9.69755 1.5V4H20.4726V1.5C20.4726 0.671573 21.1962 0 22.0889 0C22.9815 0 23.7051 0.671573 23.7051 1.5V4H26.3989C28.4817 4 30.1701 5.567 30.1701 7.5V28.5C30.1701 30.433 28.4817 32 26.3989 32H3.77127C1.68845 32 0 30.433 0 28.5V7.5C0 5.567 1.68845 4 3.77127 4H6.46503V1.5C6.46503 0.671573 7.18865 0 8.08129 0ZM26.3989 7C26.6964 7 26.9376 7.22386 26.9376 7.5V12H3.23251V7.5C3.23251 7.22386 3.47372 7 3.77127 7H26.3989ZM3.23251 15V28.5C3.23251 28.7761 3.47372 29 3.77127 29H26.3989C26.6964 29 26.9376 28.7761 26.9376 28.5V15H3.23251Z" fill="white"/>
<rect x="5.8418" y="17.6" width="3.33821" height="3.2" fill="white"/>
<rect x="13.3535" y="17.6" width="3.33821" height="3.2" fill="white"/>
<rect x="20.8633" y="17.6" width="3.33821" height="3.2" fill="white"/>
<rect x="5.8418" y="23.2" width="3.33821" height="3.2" fill="white"/>
<rect x="13.3535" y="23.2" width="3.33821" height="3.2" fill="white"/>
<rect x="20.8633" y="23.2" width="3.33821" height="3.2" fill="white"/>
</svg>
