<svg width="43" height="23" viewBox="0 0 43 23" fill="none" xmlns="http://www.w3.org/2000/svg">
<path d="M33.325 0C30.745 0 28.3084 1.19817 26.5615 3.28421L21.5 8.633L21.491 8.62227L18.7766 11.4785L18.7945 11.4999L13.966 16.6134C12.8194 17.972 11.2965 18.7209 9.675 18.7209C6.32461 18.7209 3.60125 15.4795 3.60125 11.5C3.60125 7.52048 6.32461 4.27909 9.675 4.27909C11.2965 4.27909 12.8194 5.02796 14.0466 6.48277L16.0802 8.633L18.7855 5.77673L16.5191 3.38049C14.6916 1.2089 12.2638 0.0107321 9.67492 0.0107321C4.33586 9.91563e-07 0 5.15633 0 11.5C0 17.8437 4.33586 23 9.675 23C12.255 23 14.6827 21.8018 16.4385 19.7265L21.5 14.367L21.509 14.3777L24.2144 11.5107L24.2054 11.5L29.0339 6.39722C30.1806 5.02796 31.7035 4.27909 33.325 4.27909C36.6754 4.27909 39.3988 7.52048 39.3988 11.5C39.3988 15.4795 36.6754 18.7209 33.325 18.7209C31.7035 18.7209 30.1806 17.972 28.9534 16.5279L26.9198 14.3776L24.2144 17.2446L26.4809 19.6409C28.3084 21.8125 30.7361 22.9999 33.3161 22.9999C38.6641 23 43 17.8437 43 11.5C43 5.15633 38.6641 0 33.325 0Z" fill="white"/>
</svg>
