<svg width="32" height="32" viewBox="0 0 32 32" fill="none" xmlns="http://www.w3.org/2000/svg">
<path fill-rule="evenodd" clip-rule="evenodd" d="M3.13939 3.51097C3.13939 3.23397 3.37365 3.00941 3.66262 3.00941H21.4525C21.7415 3.00941 21.9757 3.23397 21.9757 3.51097V19.0324C21.9757 19.8634 22.6785 20.5372 23.5454 20.5372C24.4123 20.5372 25.1151 19.8634 25.1151 19.0324V3.51097C25.1151 1.57192 23.4753 0 21.4525 0H3.66262C1.63981 0 0 1.57192 0 3.51097V26.5831C0 28.5221 1.63981 30.0941 3.66262 30.0941H10.2989C11.1658 30.0941 11.8686 29.4204 11.8686 28.5894C11.8686 27.7584 11.1658 27.0847 10.2989 27.0847H3.66262C3.37365 27.0847 3.13939 26.8602 3.13939 26.5831V3.51097ZM7.84847 8.02508C6.98156 8.02508 6.27877 8.69877 6.27877 9.52979C6.27877 10.3608 6.98156 11.0345 7.84847 11.0345H17.2666C18.1335 11.0345 18.8363 10.3608 18.8363 9.52979C18.8363 8.69877 18.1335 8.02508 17.2666 8.02508H7.84847ZM6.27877 15.5486C6.27877 14.7176 6.98156 14.0439 7.84847 14.0439H12.0343C12.9012 14.0439 13.604 14.7176 13.604 15.5486C13.604 16.3796 12.9012 17.0533 12.0343 17.0533H7.84847C6.98156 17.0533 6.27877 16.3796 6.27877 15.5486ZM30.9209 22.644C31.541 22.0634 31.5529 21.1106 30.9472 20.5161C30.3416 19.9216 29.3476 19.9103 28.7275 20.4908L20.302 28.3781L17.3321 25.521C16.7201 24.9323 15.7263 24.9307 15.1122 25.5172C14.4981 26.1038 14.4964 27.0566 15.1083 27.6452L19.175 31.5574C19.7825 32.1419 20.7679 32.1483 21.3836 31.5719L30.9209 22.644Z" fill="white"/>
</svg>
