<svg width="48" height="32" viewBox="0 0 48 32" fill="none" xmlns="http://www.w3.org/2000/svg">
<path fill-rule="evenodd" clip-rule="evenodd" d="M16.5076 4.36346C14.8985 4.36346 13.3552 4.97624 12.2173 6.067C11.0794 7.15778 10.4401 8.63715 10.4401 10.1797C10.4401 11.7223 11.0794 13.2017 12.2173 14.2925C13.3552 15.3832 14.8985 15.996 16.5076 15.996C18.1168 15.996 19.6601 15.3832 20.798 14.2925C21.9359 13.2017 22.5751 11.7223 22.5751 10.1797C22.5751 8.63715 21.9359 7.15778 20.798 6.067C19.6601 4.97624 18.1168 4.36346 16.5076 4.36346ZM5.88952 10.1797C5.88931 8.49265 6.32656 6.83195 7.16197 5.34703C7.99737 3.86213 9.20471 2.59956 10.6754 1.67288C12.1461 0.746203 13.8341 0.184496 15.5874 0.0383034C17.3407 -0.107918 19.1045 0.165942 20.72 0.835222C22.3356 1.50453 23.7522 2.54826 24.8426 3.8726C25.9329 5.19691 26.6628 6.76027 26.9665 8.42204C27.2702 10.0838 27.1382 11.7919 26.5824 13.3927C26.0267 14.9934 25.0645 16.4367 23.7826 17.5926C26.2 18.7168 28.299 20.3835 29.9013 22.451C31.5038 24.5186 32.5623 26.9263 32.987 29.4694C33.0816 30.0409 32.9354 30.6251 32.5805 31.0933C32.2258 31.5616 31.6916 31.8753 31.0955 31.9661C30.4993 32.0568 29.8899 31.9166 29.4014 31.5764C28.913 31.2364 28.5855 30.7243 28.4909 30.1529C28.0319 27.4233 26.5738 24.9394 24.3779 23.1466C22.1821 21.3538 19.392 20.3693 16.5076 20.3693C13.6233 20.3693 10.8332 21.3538 8.63737 23.1466C6.44151 24.9394 4.9834 27.4233 4.52434 30.1529C4.47734 30.4358 4.37262 30.7071 4.21623 30.9514C4.05981 31.1957 3.85476 31.408 3.61279 31.5761C3.37078 31.7445 3.09659 31.8652 2.80588 31.9318C2.51515 31.9986 2.21356 32.0097 1.91835 31.9646C1.62314 31.9195 1.34007 31.8192 1.08532 31.6692C0.830574 31.5194 0.609126 31.3228 0.43362 31.0907C0.258115 30.859 0.13199 30.5961 0.0624504 30.3172C-0.00709012 30.0386 -0.018686 29.7495 0.0283249 29.4665C0.454065 26.9242 1.51296 24.518 3.11525 22.4514C4.71756 20.3849 6.816 18.7192 9.23271 17.5955C8.17554 16.6447 7.33331 15.4958 6.75827 14.2202C6.18319 12.9446 5.88749 11.5694 5.88952 10.1797ZM33.1933 5.81753C32.5899 5.81753 32.011 6.04731 31.5845 6.45637C31.1576 6.8654 30.918 7.42015 30.918 7.99864C30.918 8.5771 31.1576 9.13186 31.5845 9.54092C32.011 9.94995 32.5899 10.1797 33.1933 10.1797C34.2196 10.1798 35.2159 10.5125 36.0204 11.1239C36.8247 11.7352 37.3899 12.5893 37.6238 13.5473C37.8577 14.5054 37.7469 15.5112 37.3095 16.4012C36.872 17.2914 36.1336 18.0135 35.2138 18.4505C34.8345 18.6313 34.5154 18.9101 34.2924 19.2553C34.0694 19.6006 33.9514 19.9987 33.9517 20.4048V21.4284C33.9511 21.9183 34.1225 22.3942 34.4383 22.7793C34.7542 23.1644 35.1962 23.4365 35.6931 23.5514C39.3336 24.3918 42.2521 27.0411 43.3442 30.4495C43.4307 30.7243 43.5733 30.9802 43.7632 31.2024C43.9534 31.4243 44.1873 31.6084 44.4518 31.7436C44.7161 31.8785 45.0058 31.9623 45.304 31.9899C45.6022 32.0176 45.9032 31.9882 46.1899 31.9041C46.4763 31.8198 46.7426 31.6822 46.9732 31.499C47.204 31.3158 47.3949 31.0907 47.5347 30.8366C47.6746 30.5827 47.7607 30.3047 47.788 30.0185C47.8157 29.7326 47.7838 29.4441 47.6946 29.1699C47.0872 27.2814 46.0855 25.5309 44.7504 24.0254C43.4152 22.5195 41.7746 21.2897 39.9282 20.4106C41.1141 19.1599 41.8959 17.6059 42.1777 15.9374C42.4599 14.269 42.2302 12.5579 41.517 11.0122C40.8034 9.4665 39.637 8.15271 38.1595 7.23051C36.6818 6.30831 34.9565 5.81742 33.1933 5.81753Z" fill="white"/>
</svg>
