<svg width="47" height="32" viewBox="0 0 47 32" fill="none" xmlns="http://www.w3.org/2000/svg">
<path fill-rule="evenodd" clip-rule="evenodd" d="M17.4168 0C18.307 0 19.1075 0.519541 19.4382 1.31189L29.0279 24.2938L32.812 15.2249C33.1427 14.4326 33.9432 13.913 34.8335 13.913H44.2676C45.47 13.913 46.4447 14.8474 46.4447 16C46.4447 17.1526 45.47 18.087 44.2676 18.087H36.3076L31.0494 30.688C30.7188 31.4805 29.9182 32 29.0279 32C28.1377 32 27.3372 31.4805 27.0066 30.688L17.4168 7.70627L13.6326 16.7751C13.3019 17.5674 12.5014 18.087 11.6112 18.087H2.1771C0.974718 18.087 0 17.1526 0 16C0 14.8474 0.974718 13.913 2.1771 13.913H10.1372L15.3954 1.31189C15.726 0.519541 16.5265 0 17.4168 0Z" fill="white"/>
</svg>
