<svg width="90" height="75" viewBox="0 0 90 75" fill="none" xmlns="http://www.w3.org/2000/svg">
<line x1="33" y1="35" x2="57" y2="35" stroke="white" stroke-width="2"/>
<line x1="33" y1="41" x2="57" y2="41" stroke="white" stroke-width="2"/>
<circle cx="3.5" cy="3.5" r="3.5" fill="white"/>
<circle cx="3.5" cy="71.5" r="3.5" fill="white"/>
<circle cx="19.5" cy="3.5" r="3.5" transform="rotate(90 19.5 3.5)" fill="white"/>
<circle cx="19.5" cy="71.5" r="3.5" transform="rotate(90 19.5 71.5)" fill="white"/>
<circle cx="3.5" cy="20.5" r="3.5" fill="white"/>
<circle cx="70.5" cy="3.5" r="3.5" transform="rotate(90 70.5 3.5)" fill="white"/>
<circle cx="70.5" cy="71.5" r="3.5" transform="rotate(90 70.5 71.5)" fill="white"/>
<circle cx="3.5" cy="37.5" r="3.5" fill="white"/>
<circle cx="53.5" cy="3.5" r="3.5" transform="rotate(90 53.5 3.5)" fill="white"/>
<circle cx="53.5" cy="71.5" r="3.5" transform="rotate(90 53.5 71.5)" fill="white"/>
<circle cx="3.5" cy="54.5" r="3.5" fill="white"/>
<circle cx="36.5" cy="3.5" r="3.5" transform="rotate(90 36.5 3.5)" fill="white"/>
<circle cx="36.5" cy="71.5" r="3.5" transform="rotate(90 36.5 71.5)" fill="white"/>
<circle cx="86.5" cy="3.5" r="3.5" fill="white"/>
<circle cx="86.5" cy="71.5" r="3.5" fill="white"/>
<circle cx="86.5" cy="20.5" r="3.5" fill="white"/>
<circle cx="86.5" cy="37.5" r="3.5" fill="white"/>
<circle cx="86.5" cy="54.5" r="3.5" fill="white"/>
<rect x="28" y="26" width="34" height="24" rx="3" stroke="white" stroke-width="4"/>
</svg>
