<?xml version="1.0" encoding="UTF-8" standalone="no"?>
<!DOCTYPE svg PUBLIC "-//W3C//DTD SVG 1.1//EN" "http://www.w3.org/Graphics/SVG/1.1/DTD/svg11.dtd">
<svg width="100%" height="100%" viewBox="0 0 396 396" version="1.1" xmlns="http://www.w3.org/2000/svg" xmlns:xlink="http://www.w3.org/1999/xlink" xml:space="preserve" xmlns:serif="http://www.serif.com/" style="fill-rule:evenodd;clip-rule:evenodd;stroke-linejoin:round;stroke-miterlimit:2;">
    <g transform="matrix(1,0,0,1,-539.278,-518.788)">
        <g transform="matrix(4.16667,0,0,4.16667,0,0)">
            <g transform="matrix(0.0247549,0,0,0.0247549,77.9069,113.493)">
                <rect x="2081.19" y="445.022" width="3837.62" height="3837.63" style="fill:rgb(19,21,24);fill-rule:nonzero;"/>
            </g>
        </g>
        <g transform="matrix(4.16667,0,0,4.16667,0,0)">
            <g transform="matrix(1,0,0,1,0,3.12)">
                <g opacity="0.75">
                    <g transform="matrix(0.24,0,0,0.181215,0,50.6462)">
                        <rect x="560.111" y="835" width="354.167" height="79.623" style="fill:white;"/>
                    </g>
                    <g transform="matrix(0.24,0,0,0.364675,-9.33336,-105.278)">
                        <ellipse cx="668.097" cy="842.5" rx="69.097" ry="38.5" style="fill:white;"/>
                    </g>
                    <g transform="matrix(0.24,0,0,0.364675,42.5,-105.278)">
                        <ellipse cx="668.097" cy="842.5" rx="69.097" ry="38.5" style="fill:white;"/>
                    </g>
                    <g transform="matrix(0.24,0,0,0.24,0,0)">
                        <path d="M914.278,851L866,851L866,789L875.677,789C842.214,773.27 799.574,760.223 799.574,760.223C783.785,754.433 777.581,738.705 775.214,729.079C797.566,713.641 796.633,686.354 796.633,686.354L796.633,672.829C819.018,644.218 796.633,639.015 796.633,639.015L796.633,606.692C797.089,606.834 797.537,607.008 797.966,607.22C800.169,604.95 803.757,603.439 804.878,600.532C805.592,598.681 804.226,596.022 804.84,594.136C805.592,591.821 808.55,590.645 808.545,588.036C808.538,585.523 805.675,585.146 804.972,583.236C804.235,581.243 805.301,578.668 804.865,576.591C804.038,572.639 801.237,569.575 798.217,566.695C795.473,564.077 791.251,561.988 789.364,558.396C787.448,554.747 788.259,551.531 783.044,550.034C779.14,548.913 775.316,549.277 771.6,547.836C767.539,546.261 764.406,544.197 760.66,542.388C747.74,536.153 733.605,535.838 719.112,536.615C719.32,539.32 722.589,540.832 724.406,542.686C720.542,543.162 716.702,541.847 712.815,542.636C709.384,543.332 706.244,545.18 702.789,546.028C696.316,547.616 691.364,548.524 685.219,551.1C679.901,553.329 673.951,555.34 670.742,560.592C666.555,567.447 673.8,569.329 678.909,567.048C672.2,572.979 663.881,580.477 660.625,589.048C658.91,593.561 658.856,598.711 664.401,599.48C667.892,599.965 677.211,597.981 680.469,596.411C680.345,596.633 680.22,596.849 680.098,597.061L676.195,598.082L676.195,639.015C676.195,639.015 653.81,644.218 676.195,672.829L676.195,686.354C676.195,686.354 675.228,714.713 698.95,729.966C696.426,739.645 690.128,754.609 674.815,760.223C674.815,760.223 631.571,773.454 598,789.335L598,841.503L560.111,841.503L560.111,864.003L914.278,864.003L914.278,851Z" style="fill:white;fill-rule:nonzero;"/>
                    </g>
                </g>
            </g>
        </g>
    </g>
</svg>
