<svg width="91" height="75" viewBox="0 0 91 75" fill="none" xmlns="http://www.w3.org/2000/svg">
<path d="M64.3506 29.1357V28.5281C64.3721 22.4483 62.442 16.5222 58.8463 11.6183C55.2506 6.71804 50.1788 3.09734 44.3706 1.29234H44.1562C41.1574 0.377338 38.0335 -0.0551457 34.8989 0.0056164C27.4359 0.416654 20.4089 3.65849 15.2549 9.06989C10.1008 14.4849 7.20567 21.6619 7.16278 29.1357C5.06827 29.872 3.25613 31.2409 1.96941 33.0531C0.686255 34.8652 0 37.0312 0 39.2508C0 41.4704 0.686255 43.6364 1.96941 45.4485C3.25613 47.2607 5.06827 48.6296 7.16278 49.3659C7.89907 56.425 11.2338 62.9587 16.5201 67.6946C21.8029 72.4305 28.6618 75.0325 35.7567 74.9932H36.5788C43.4413 74.6608 49.9643 71.9086 54.9897 67.2228C60.0151 62.5406 63.2176 56.2249 64.029 49.4016C66.1485 48.7082 67.9964 47.3679 69.3224 45.5736C70.6449 43.7758 71.374 41.6134 71.4098 39.383C71.4455 37.1527 70.7843 34.9689 69.519 33.1317C68.2537 31.2945 66.4487 29.897 64.3506 29.1357ZM36.4001 67.8447C31.2246 67.9949 26.1742 66.2685 22.171 62.9838C18.1714 59.699 15.4943 55.0775 14.6329 49.9735H56.7018C55.8297 54.8059 53.3491 59.2022 49.6641 62.4441C45.979 65.6895 41.3039 67.5945 36.4001 67.8447ZM60.7764 42.825H10.737C9.78985 42.825 8.88199 42.4497 8.21003 41.7778C7.53808 41.1094 7.16278 40.198 7.16278 39.2508C7.16278 38.3036 7.53808 37.3958 8.21003 36.7238C8.88199 36.0518 9.78985 35.6766 10.737 35.6766H17.8855C18.8327 35.6766 19.7441 35.3013 20.4125 34.6293C21.0845 33.9609 21.4597 33.0495 21.4597 32.1023C21.4597 31.1551 21.0845 30.2473 20.4125 29.5753C19.7441 28.9069 18.8327 28.5281 17.8855 28.5281H14.3113C14.4721 24.8216 15.5301 21.208 17.3994 18.0019C19.2687 14.7923 21.8887 12.0901 25.034 10.1207V21.3796C25.034 22.3268 25.4093 23.2382 26.0812 23.9066C26.7496 24.5785 27.6611 24.9538 28.6082 24.9538C29.5554 24.9538 30.4668 24.5785 31.1352 23.9066C31.8072 23.2382 32.1825 22.3268 32.1825 21.3796V7.4043C33.1547 7.24346 34.1304 7.13623 35.1133 7.08262H35.7567C36.9541 7.10049 38.1479 7.20771 39.331 7.4043V21.3796C39.331 22.3268 39.7063 23.2382 40.3782 23.9066C41.0466 24.5785 41.958 24.9538 42.9052 24.9538C43.8524 24.9538 44.7638 24.5785 45.4322 23.9066C46.1041 23.2382 46.4794 22.3268 46.4794 21.3796V10.0135C47.9949 10.8928 49.4103 11.9364 50.697 13.1231C52.7594 15.1247 54.3964 17.5194 55.5151 20.1643C56.6303 22.8129 57.2057 25.6544 57.2022 28.5281H53.6279C52.6808 28.5281 51.7693 28.9069 51.1009 29.5753C50.429 30.2473 50.0537 31.1551 50.0537 32.1023C50.0537 33.0495 50.429 33.9609 51.1009 34.6293C51.7693 35.3013 52.6808 35.6766 53.6279 35.6766H60.7764C61.7236 35.6766 62.635 36.0518 63.3034 36.7238C63.9754 37.3958 64.3506 38.3036 64.3506 39.2508C64.3506 40.198 63.9754 41.1094 63.3034 41.7778C62.635 42.4497 61.7236 42.825 60.7764 42.825Z" fill="white"/>
<path fill-rule="evenodd" clip-rule="evenodd" d="M67.3398 31.959L62.8134 41.9434C62.8134 41.9434 57.3112 46.5584 56.4681 47.4903C55.6471 48.4 54.6487 54.8122 54.2493 56.3653C53.8721 57.9185 54.0937 63.1325 54.5375 64.131C54.9812 65.1294 59.1747 69.456 59.5741 69.6779C59.9735 69.8776 62.7247 70.9426 62.9022 70.7872C63.0797 70.6097 65.0766 66.3941 65.121 65.2404C65.1654 64.0866 68.4491 67.4591 68.4491 67.4591L75.1054 71.8966C75.1054 71.8966 78.3892 73.1613 79.5429 71.8966C80.6967 70.6097 87.3086 64.131 87.3086 64.131C87.3086 64.131 90.6145 54.8121 89.5273 54.0577C88.4401 53.3033 85.0898 47.4903 85.0898 47.4903L82.8711 46.3809L77.3242 50.8184L75.1054 48.5997L76.2148 43.0528C76.2148 43.0528 76.3479 38.0384 75.1054 37.5059C73.8629 36.9512 71.3335 33.6452 70.6679 33.0684C70.0023 32.4915 67.3398 31.959 67.3398 31.959Z" fill="#3B93AD"/>
<path d="M62.8139 43.894L62.8028 43.9024L62.8139 43.894ZM84.8994 43.4989C84.7441 43.3574 84.5732 43.2328 84.3891 43.1293C84.1273 42.9835 83.8366 42.8906 83.5371 42.8547C83.2353 42.8187 82.9291 42.842 82.6385 42.9244C82.3478 43.0046 82.0771 43.1419 81.8442 43.3278C81.6112 43.5116 81.4204 43.7398 81.285 43.9975C80.5196 45.4318 79.4657 46.7077 78.1832 47.7534C78.3785 46.6993 78.4783 45.6325 78.4783 44.5636C78.4827 41.3105 77.5797 38.1144 75.8668 35.3006C74.1517 32.489 71.6823 30.1569 68.7136 28.5472C68.3874 28.3719 68.0191 28.2768 67.6419 28.2726C67.2669 28.2684 66.8964 28.3571 66.5658 28.5261C66.2352 28.6972 65.9556 28.9444 65.7515 29.2443C65.5496 29.5464 65.4298 29.8928 65.4054 30.2498C65.2811 32.2524 64.7309 34.2106 63.7901 36.0041C62.8472 37.7996 61.5314 39.3924 59.9228 40.6894L59.4125 41.0866C57.7285 42.1639 56.2397 43.4926 55.0016 45.0199C53.078 47.3288 51.7445 50.0327 51.1077 52.9182C50.4709 55.8038 50.5486 58.7908 51.3362 61.6425C52.1239 64.4922 53.5972 67.1306 55.6406 69.3444C57.6863 71.5604 60.2446 73.2904 63.1134 74.3994C63.4484 74.5304 63.8145 74.5811 64.1762 74.5452C64.5379 74.5114 64.8862 74.391 65.188 74.1967C65.4897 74.0044 65.7382 73.7425 65.909 73.4383C66.0799 73.132 66.1686 72.7898 66.1686 72.4433C66.1664 72.2194 66.1309 71.9976 66.0577 71.7843C65.5629 70.0077 65.4187 68.1572 65.6361 66.3321C67.7373 70.1028 71.1054 73.0897 75.2056 74.8156C75.7049 75.0289 76.2706 75.0585 76.7921 74.898C80.0314 73.9009 82.9491 72.1349 85.2677 69.7648C87.5863 67.3925 89.2304 64.4964 90.0425 61.351C90.8545 58.2035 90.808 54.9124 89.9094 51.7881C89.0085 48.6638 87.2846 45.8099 84.8994 43.4989ZM76.2351 70.6034C74.3004 69.6718 72.5942 68.36 71.2274 66.7588C69.8607 65.1555 68.8622 63.2987 68.2986 61.3045C68.1278 60.6328 67.9947 59.9526 67.9015 59.2682C67.8371 58.833 67.633 58.4253 67.3157 58.1063C66.9962 57.7852 66.5813 57.5677 66.1265 57.4832C65.9867 57.4578 65.8447 57.4452 65.7027 57.4452C65.3122 57.4452 64.9306 57.5423 64.5911 57.7282C64.2539 57.9141 63.9743 58.1803 63.779 58.5035C61.9397 61.5263 61.0122 64.9759 61.1054 68.4699C59.4857 67.27 58.1323 65.7787 57.1228 64.0782C56.1154 62.3777 55.4698 60.5039 55.2279 58.5647C54.9861 56.6255 55.1503 54.661 55.7116 52.7809C56.273 50.903 57.2182 49.1497 58.4962 47.6224C59.468 46.4225 60.6395 45.3832 61.9619 44.5425C62.0196 44.5087 62.075 44.4685 62.1283 44.4284C62.1283 44.4284 62.785 43.9088 62.8094 43.8982C65.969 41.3527 68.2188 37.9306 69.2394 34.1113C71.6579 36.2385 73.2687 39.0671 73.8256 42.1554C74.3825 45.2459 73.8522 48.423 72.3146 51.1966C72.1127 51.5663 72.0306 51.9845 72.0772 52.4007C72.1238 52.8147 72.2991 53.2076 72.5786 53.5287C72.8604 53.8477 73.2354 54.0822 73.6547 54.2005C74.0763 54.3188 74.5223 54.3145 74.9416 54.192C78.3407 53.1781 81.3316 51.1966 83.5105 48.5138C84.8217 50.358 85.6782 52.4577 86.0177 54.6589C86.3571 56.86 86.1685 59.1076 85.4696 61.2306C84.7707 63.3536 83.577 65.2991 81.9773 66.9215C80.3798 68.5459 78.4162 69.8028 76.2351 70.6034Z" fill="white"/>
</svg>
