<?xml version="1.0" encoding="UTF-8" standalone="no"?><!DOCTYPE svg PUBLIC "-//W3C//DTD SVG 1.1//EN" "http://www.w3.org/Graphics/SVG/1.1/DTD/svg11.dtd"><svg width="100%" height="100%" viewBox="0 0 74 27" version="1.1" xmlns="http://www.w3.org/2000/svg" xmlns:xlink="http://www.w3.org/1999/xlink" xml:space="preserve" xmlns:serif="http://www.serif.com/" style="fill-rule:evenodd;clip-rule:evenodd;stroke-linejoin:round;stroke-miterlimit:2;"><path d="M0.683,17.831c-1.545,-3.409 -0.417,-7.26 2.845,-8.732c3.581,-1.619 6.843,0.295 8.388,3.728l0.147,0.344l-9.86,4.488c1.276,2.502 3.949,3.851 6.745,2.6c1.497,-0.687 2.6,-1.864 3.115,-3.385l1.031,0.54c-0.614,1.741 -1.791,3.115 -3.753,3.998c-3.409,1.496 -7.015,0.049 -8.658,-3.581Zm3.336,-7.628c-2.772,1.275 -3.066,4.341 -2.232,6.426l8.56,-3.9c-0.933,-1.987 -3.385,-3.875 -6.328,-2.526Z" style="fill:#9ea5a7;fill-rule:nonzero;"/><path d="M15.62,5.715c0,-0.589 0.515,-1.055 1.079,-1.055c0.589,0 1.079,0.466 1.079,1.055c0,0.588 -0.49,1.079 -1.079,1.079c-0.564,-0.025 -1.079,-0.491 -1.079,-1.079Zm0.392,16.04l0,-12.95l1.398,0l0,12.95l-1.398,0Z" style="fill:#9ea5a7;fill-rule:nonzero;"/><path d="M21.752,25.042l0.809,-1.128c1.128,1.349 2.354,1.814 4.317,1.814c2.33,0 4.39,-1.177 4.39,-4.096l0,-2.06c-0.907,1.349 -2.575,2.428 -4.513,2.428c-3.434,0 -5.764,-2.6 -5.764,-6.745c0,-4.096 2.33,-6.769 5.764,-6.769c1.84,0 3.458,0.932 4.513,2.404l0,-2.085l1.423,0l0,12.827c0,3.949 -2.674,5.347 -5.813,5.347c-2.208,0.025 -3.581,-0.368 -5.126,-1.937Zm9.516,-6.622l0,-6.304c-0.76,-1.251 -2.477,-2.355 -4.268,-2.355c-2.869,-0 -4.537,2.38 -4.537,5.519c0,3.14 1.668,5.494 4.537,5.494c1.815,-0 3.532,-1.104 4.268,-2.354Z" style="fill:#9ea5a7;fill-rule:nonzero;"/><path d="M36.836,17.831c-1.546,-3.409 -0.417,-7.26 2.845,-8.732c3.581,-1.619 6.843,0.295 8.388,3.728l0.147,0.344l-9.86,4.488c1.276,2.502 3.949,3.851 6.745,2.6c1.496,-0.687 2.6,-1.864 3.115,-3.385l1.03,0.54c-0.613,1.741 -1.79,3.115 -3.752,3.998c-3.41,1.496 -7.015,0.049 -8.658,-3.581Zm3.335,-7.628c-2.771,1.275 -3.066,4.341 -2.232,6.426l8.56,-3.9c-0.932,-1.987 -3.385,-3.875 -6.328,-2.526Z" style="fill:#9ea5a7;fill-rule:nonzero;"/><path d="M60.945,21.78l0,-8.781c0,-2.502 -1.25,-3.237 -3.139,-3.237c-1.668,0 -3.385,1.054 -4.194,2.232l0,9.786l-1.423,0l0,-12.95l1.398,0l0,1.962c0.932,-1.128 2.796,-2.281 4.661,-2.281c2.624,0 4.071,1.275 4.071,4.218l0,9.051l-1.374,0Z" style="fill:#9ea5a7;fill-rule:nonzero;"/><path d="M68.671,0l0,5.175l4.979,0l0,1.324l-4.979,0l0,5.225l-1.422,0l0,-5.225l-4.979,0l0,-1.324l4.979,0l0,-5.175l1.422,0Z" style="fill:#9ea5a7;fill-rule:nonzero;"/></svg>