<?xml version="1.0" encoding="UTF-8" standalone="no"?><!DOCTYPE svg PUBLIC "-//W3C//DTD SVG 1.1//EN" "http://www.w3.org/Graphics/SVG/1.1/DTD/svg11.dtd"><svg width="100%" height="100%" viewBox="0 0 93 27" version="1.1" xmlns="http://www.w3.org/2000/svg" xmlns:xlink="http://www.w3.org/1999/xlink" xml:space="preserve" xmlns:serif="http://www.serif.com/" style="fill-rule:evenodd;clip-rule:evenodd;stroke-linejoin:round;stroke-miterlimit:2;"><path d="M12.891,26.11c-0.858,-0.241 -0.87,-0.254 -0.7,-0.77c0.081,-0.243 0.178,-0.478 0.217,-0.52c0.038,-0.043 0.274,0.03 0.523,0.163c0.563,0.3 1.321,0.334 1.559,0.07c0.2,-0.22 0.194,-0.661 -0.011,-0.914c-0.088,-0.109 -0.549,-0.396 -1.024,-0.639c-0.917,-0.468 -1.154,-0.705 -1.319,-1.319c-0.214,-0.793 0.212,-1.513 1.038,-1.759c0.597,-0.177 0.767,-0.177 1.546,0.001c0.906,0.207 0.91,0.211 0.721,0.779c-0.087,0.263 -0.178,0.478 -0.201,0.478c-0.024,0 -0.208,-0.084 -0.409,-0.187c-0.684,-0.349 -1.585,-0.172 -1.585,0.311c-0,0.366 0.279,0.623 1.076,0.991c0.857,0.396 1.064,0.557 1.29,1.002c0.2,0.394 0.195,1.201 -0.011,1.613c-0.342,0.682 -1.61,1.01 -2.71,0.7Zm4.996,0.007c-0.515,-0.183 -0.793,-0.392 -0.979,-0.731c-0.145,-0.266 -0.165,-0.579 -0.165,-2.634l-0,-2.332l1.026,0l0.047,2.146c0.048,2.221 0.096,2.494 0.456,2.608c0.61,0.194 1.339,0.013 1.757,-0.435c0.201,-0.214 0.209,-0.299 0.233,-2.271l0.026,-2.048l1.026,0l-0,5.69l-0.537,0.028l-0.536,0.028l-0,-0.285c-0,-0.331 -0.057,-0.35 -0.32,-0.107c-0.242,0.222 -0.99,0.477 -1.385,0.472c-0.165,-0.002 -0.457,-0.06 -0.649,-0.129Zm9.462,-0.066c-0.59,-0.291 -0.887,-0.73 -0.934,-1.38c-0.046,-0.639 0.163,-1.125 0.679,-1.578c0.534,-0.469 0.933,-0.601 1.844,-0.611c0.751,-0.009 0.816,-0.025 0.816,-0.196c-0,-0.338 -0.34,-0.768 -0.703,-0.888c-0.424,-0.14 -1.076,-0.062 -1.551,0.186l-0.35,0.182l-0.232,-0.389c-0.272,-0.455 -0.231,-0.544 0.379,-0.813c0.623,-0.276 1.383,-0.331 2.088,-0.15c0.662,0.17 0.943,0.382 1.24,0.939c0.176,0.331 0.204,0.572 0.247,2.115c0.045,1.619 0.063,1.761 0.258,2.025c0.245,0.33 0.273,0.646 0.063,0.726c-0.237,0.091 -0.909,-0.148 -1.118,-0.398l-0.193,-0.231l-0.255,0.201c-0.59,0.464 -1.628,0.583 -2.278,0.26Zm1.968,-1.012l0.438,-0.277l-0,-1.423l-0.745,0.034c-0.712,0.032 -0.761,0.049 -1.08,0.368c-0.46,0.46 -0.539,0.993 -0.196,1.336c0.351,0.352 0.993,0.336 1.583,-0.038Zm10.269,1.047c-1.232,-0.442 -1.914,-1.622 -1.778,-3.075c0.07,-0.755 0.298,-1.258 0.841,-1.859c0.469,-0.519 0.934,-0.737 1.787,-0.837c0.544,-0.064 1.508,0.169 1.866,0.451l0.227,0.178l-0.244,0.368c-0.133,0.202 -0.26,0.368 -0.281,0.368c-0.021,0 -0.203,-0.084 -0.404,-0.187c-0.442,-0.226 -1.287,-0.249 -1.678,-0.047c-0.631,0.326 -0.981,1.134 -0.911,2.105c0.052,0.729 0.261,1.154 0.719,1.463c0.421,0.283 1.387,0.295 1.895,0.023c0.191,-0.102 0.389,-0.186 0.439,-0.186c0.094,0 0.469,0.664 0.469,0.829c-0,0.168 -1.051,0.484 -1.763,0.531c-0.541,0.035 -0.821,0.005 -1.184,-0.125Zm5.388,0.032c-0.817,-0.268 -1.351,-0.776 -1.627,-1.547c-0.563,-1.577 -0.003,-3.305 1.285,-3.964c0.46,-0.235 0.652,-0.279 1.211,-0.276c0.404,0.002 0.835,0.069 1.1,0.17c0.812,0.31 1.466,1.319 1.466,2.26c-0,0.73 0.12,0.691 -2.108,0.691l-1.996,0l-0,0.26c-0,0.393 0.38,1.064 0.737,1.301c0.432,0.288 1.494,0.3 1.947,0.024c0.168,-0.102 0.345,-0.186 0.394,-0.186c0.05,0 0.177,0.172 0.284,0.381c0.188,0.367 0.189,0.387 0.025,0.51c-0.531,0.401 -2.014,0.606 -2.718,0.376Zm2.273,-3.762c-0.162,-0.658 -0.685,-1.049 -1.404,-1.049c-0.761,-0.001 -1.273,0.376 -1.488,1.095l-0.062,0.21l3.017,0l-0.063,-0.256Zm6.012,3.834c-0.705,-0.229 -0.932,-0.346 -0.932,-0.481c-0,-0.233 0.294,-0.951 0.389,-0.951c0.046,0 0.241,0.079 0.433,0.177c1.105,0.564 2.216,0.203 2.321,-0.755c0.072,-0.652 -0.205,-0.962 -1.37,-1.533c-0.677,-0.332 -1.081,-0.596 -1.317,-0.862c-0.947,-1.068 -0.604,-2.816 0.66,-3.36c0.735,-0.316 2.41,-0.229 2.717,0.141c0.128,0.154 -0.06,0.958 -0.239,1.027c-0.06,0.022 -0.295,-0.043 -0.522,-0.147c-0.246,-0.111 -0.616,-0.188 -0.911,-0.189c-0.426,-0.002 -0.536,0.036 -0.77,0.27c-0.228,0.229 -0.272,0.348 -0.272,0.739c-0,0.657 0.291,0.971 1.361,1.471c1.01,0.472 1.404,0.783 1.635,1.291c0.207,0.457 0.233,1.504 0.047,1.948c-0.178,0.428 -0.85,0.973 -1.4,1.136c-0.439,0.13 -1.525,0.176 -1.83,0.078Zm5.877,-0.09c-0.759,-0.276 -1.176,-0.637 -1.503,-1.301c-0.269,-0.548 -0.3,-0.694 -0.297,-1.422c0.002,-0.927 0.155,-1.434 0.612,-2.031c0.761,-0.994 2.096,-1.314 3.295,-0.789c0.827,0.361 1.371,1.29 1.325,2.26l-0.028,0.588l-2.029,0.025l-2.028,0.025l-0,0.259c-0,0.391 0.38,1.063 0.736,1.299c0.437,0.291 1.494,0.301 1.957,0.018c0.173,-0.105 0.37,-0.17 0.438,-0.144c0.167,0.064 0.438,0.604 0.379,0.756c-0.078,0.204 -1.091,0.528 -1.785,0.57c-0.458,0.028 -0.778,-0.005 -1.072,-0.113Zm2.331,-3.679c-0,-0.619 -0.614,-1.114 -1.385,-1.114c-0.815,-0.001 -1.326,0.361 -1.549,1.095l-0.063,0.21l1.499,0c1.448,0 1.498,-0.006 1.498,-0.191Zm7.841,3.619c-0.231,-0.583 -1.527,-3.684 -1.88,-4.496l-0.403,-0.928l-0.344,0.789l-0.46,-0.061c-0.593,-0.079 -0.96,0.073 -1.232,0.51c-0.197,0.316 -0.214,0.47 -0.257,2.297l-0.047,1.959l-0.536,0.028l-0.537,0.028l-0,-5.792l0.448,0c0.503,0 0.67,0.114 0.675,0.461c0.002,0.208 0.015,0.217 0.098,0.074c0.151,-0.259 0.832,-0.558 1.294,-0.569c0.233,-0.005 0.782,0 1.22,0.012l0.797,0.022l0.522,1.329c0.287,0.731 0.597,1.539 0.688,1.795c0.091,0.257 0.193,0.5 0.228,0.54c0.052,0.062 0.761,-1.625 1.353,-3.221l0.165,-0.443l0.557,0c0.681,0 0.695,-0.129 -0.218,1.973c-0.364,0.838 -0.894,2.06 -1.178,2.714c-0.401,0.925 -0.555,1.189 -0.693,1.189c-0.097,0 -0.215,-0.095 -0.26,-0.21Zm8.155,0.079c-1.355,-0.428 -1.978,-1.409 -1.893,-2.979c0.069,-1.253 0.561,-2.068 1.541,-2.547c0.736,-0.36 1.791,-0.364 2.568,-0.008c0.295,0.134 0.536,0.296 0.536,0.358c-0,0.062 -0.107,0.253 -0.238,0.424l-0.237,0.312l-0.384,-0.196c-0.509,-0.26 -1.521,-0.223 -1.912,0.069c-0.933,0.696 -0.985,2.735 -0.088,3.403c0.427,0.318 1.464,0.366 2.001,0.092c0.211,-0.108 0.419,-0.196 0.463,-0.196c0.043,0 0.169,0.188 0.281,0.418l0.204,0.419l-0.348,0.176c-0.724,0.367 -1.795,0.476 -2.494,0.255Zm5.394,0.047c-0.382,-0.098 -1.048,-0.492 -1.304,-0.77c-0.746,-0.81 -0.947,-2.427 -0.436,-3.503c0.234,-0.494 1.048,-1.284 1.477,-1.433c0.205,-0.072 0.687,-0.128 1.072,-0.125c0.891,0.007 1.463,0.263 1.918,0.858c0.39,0.511 0.525,0.976 0.488,1.679l-0.028,0.533l-2.028,0.025l-2.029,0.025l-0,0.241c-0,0.501 0.532,1.264 1.008,1.445c0.432,0.165 1.292,0.118 1.695,-0.092c0.209,-0.109 0.414,-0.198 0.454,-0.198c0.04,0 0.164,0.162 0.276,0.36c0.191,0.34 0.193,0.367 0.04,0.503c-0.409,0.362 -1.928,0.626 -2.602,0.452l-0.001,0Zm2.114,-3.745c0,-0.617 -0.615,-1.114 -1.381,-1.114c-0.754,-0.001 -1.176,0.276 -1.462,0.959l-0.144,0.346l1.493,0c1.444,0 1.494,-0.006 1.494,-0.191Zm2.611,3.697c-0.23,-0.071 -0.514,-0.16 -0.629,-0.197c-0.119,-0.037 -0.21,-0.141 -0.21,-0.24c0,-0.185 0.272,-0.923 0.341,-0.923c0.022,0 0.238,0.104 0.479,0.233c0.548,0.292 1.309,0.323 1.544,0.062c0.202,-0.222 0.197,-0.69 -0.009,-0.937c-0.09,-0.107 -0.499,-0.362 -0.909,-0.566c-0.411,-0.204 -0.815,-0.425 -0.898,-0.493c-0.324,-0.26 -0.547,-0.766 -0.547,-1.238c0,-1.17 1.026,-1.745 2.518,-1.411c0.962,0.215 0.965,0.218 0.832,0.745c-0.06,0.24 -0.145,0.458 -0.188,0.485c-0.043,0.027 -0.246,-0.037 -0.451,-0.141c-0.788,-0.402 -1.694,-0.14 -1.547,0.447c0.096,0.38 0.204,0.466 1.13,0.899c1.075,0.502 1.386,0.888 1.386,1.72c0,0.66 -0.242,1.098 -0.768,1.389c-0.493,0.273 -1.477,0.352 -2.074,0.166Zm-83.713,-0.073c-0.026,-0.067 -0.036,-1.822 -0.023,-3.899l0.025,-3.778l1.119,0l0,7.742l-0.537,0.028c-0.377,0.02 -0.552,-0.008 -0.584,-0.093Zm2.775,-2.749l0.025,-2.871l0.302,-0.024c0.242,-0.02 0.333,0.026 0.461,0.23c0.088,0.141 0.17,0.27 0.182,0.288c0.012,0.018 0.164,-0.075 0.337,-0.207c0.465,-0.355 1.156,-0.49 1.785,-0.349c0.589,0.132 0.926,0.408 1.179,0.966c0.162,0.356 0.181,0.625 0.182,2.617l0.002,2.22l-1.072,-0.056l-0.047,-2.103c-0.051,-2.295 -0.106,-2.537 -0.613,-2.664c-0.453,-0.114 -1.063,0.02 -1.351,0.295l-0.271,0.26l-0.05,4.212l-0.538,0.028l-0.537,0.028l0.024,-2.87Zm16.043,0l0.025,-2.871l0.326,-0.028c0.572,-0.049 0.746,0.037 0.746,0.369l0,0.296l0.27,-0.258c0.148,-0.142 0.431,-0.315 0.629,-0.384c0.336,-0.116 1.299,-0.118 1.415,-0.002c0.028,0.028 -0.031,0.25 -0.133,0.493l-0.184,0.442l-0.557,-0.03c-0.459,-0.026 -0.602,0.005 -0.813,0.171c-0.527,0.414 -0.576,0.625 -0.627,2.704l-0.046,1.912l-1.076,0.056l0.025,-2.87Zm9.7,0.003l0.025,-2.866l0.298,-0.034c0.244,-0.028 0.328,0.013 0.462,0.227c0.089,0.143 0.173,0.275 0.185,0.293c0.012,0.018 0.164,-0.075 0.337,-0.207c0.72,-0.549 2.008,-0.532 2.574,0.035c0.587,0.586 0.621,0.76 0.621,3.171l0,2.192l-0.504,0.029c-0.34,0.019 -0.529,-0.011 -0.582,-0.094c-0.042,-0.067 -0.078,-0.973 -0.078,-2.013c-0.002,-2.459 -0.103,-2.726 -1.031,-2.726c-0.393,0 -0.969,0.215 -1.094,0.408c-0.038,0.058 -0.09,1.071 -0.115,2.251l-0.047,2.145l-0.538,0.028l-0.537,0.028l0.024,-2.867Zm40.987,2.795c-0.034,-0.034 -0.062,-1.102 -0.062,-2.372l0,-2.311l-0.7,-0.058l0,-0.933l1.819,-0.053l0,5.79l-0.497,0c-0.274,0 -0.526,-0.028 -0.56,-0.063Zm0.184,-6.566c-0.486,-0.383 -0.239,-1.206 0.362,-1.206c0.638,0 0.924,0.714 0.469,1.17c-0.28,0.28 -0.509,0.289 -0.831,0.036Zm-3.101,-6.432c-1.268,-0.17 -1.861,-0.429 -2.454,-1.073c-0.402,-0.435 -0.404,-0.443 -0.355,-0.991c0.047,-0.509 0.258,-1.017 0.419,-1.008c0.038,0.002 0.164,0.209 0.281,0.459c0.239,0.509 0.752,0.895 1.698,1.277c1.116,0.451 4.138,0.702 6.064,0.505c1.746,-0.179 3.691,-0.527 5.211,-0.932c1.411,-0.376 1.907,-0.461 1.733,-0.296c-0.08,0.076 -1.777,0.626 -3.446,1.116c-0.976,0.287 -2.713,0.645 -3.944,0.814c-1.229,0.168 -4.339,0.245 -5.207,0.129Zm-51.759,-1.28c-0.441,-0.654 -1.364,-2.008 -2.052,-3.008c-0.689,-1 -1.673,-2.448 -2.188,-3.218l-0.937,-1.399l0.05,8.086l0.257,0.204c0.141,0.113 0.256,0.235 0.256,0.271c0,0.037 -0.399,0.067 -0.886,0.067c-0.487,0 -0.886,-0.029 -0.886,-0.065c0,-0.036 0.115,-0.185 0.256,-0.333l0.257,-0.267l0.027,-4.405l0.026,-4.405l-0.359,-0.556c-0.198,-0.305 -0.613,-0.821 -0.922,-1.145l-0.562,-0.59l-0.797,0.396l-0.797,0.395l-0.471,-0.202c-0.396,-0.171 -0.648,-0.202 -1.595,-0.202l-1.126,0l0,10.711l0.233,0.278c0.129,0.152 0.234,0.302 0.234,0.333c0,0.031 -0.525,0.057 -1.166,0.057c-0.642,0 -1.166,-0.03 -1.166,-0.067c0,-0.036 0.115,-0.158 0.256,-0.271l0.257,-0.204l0.025,-5.433l0.026,-5.433l-1.357,0.064c-0.746,0.035 -1.805,0.145 -2.352,0.244c-0.952,0.171 -1.239,0.151 -1.239,-0.088c0,-0.035 0.448,-0.287 0.996,-0.56l0.996,-0.495l0.519,0.171c1.031,0.34 6.23,0.271 8.071,-0.105c0.512,-0.105 0.663,-0.109 0.722,-0.017c0.04,0.063 0.054,0.167 0.031,0.232c-0.032,0.087 0.145,0.116 0.702,0.116l0.746,0l0.513,0.77c0.282,0.423 0.732,1.084 1,1.47c0.268,0.385 0.637,0.931 0.82,1.212c0.183,0.282 1.058,1.583 1.945,2.891c0.887,1.308 1.85,2.744 2.14,3.191c0.289,0.448 0.554,0.815 0.587,0.816c0.077,0.004 0.688,-1.051 1.619,-2.795c0.397,-0.744 0.793,-1.457 0.88,-1.585c0.087,-0.129 0.53,-0.926 0.983,-1.773c0.453,-0.846 1.021,-1.874 1.263,-2.285c0.241,-0.41 0.576,-1.008 0.744,-1.329l0.306,-0.583l0.919,0c0.506,0 0.92,0.023 0.92,0.051c0,0.028 -0.115,0.151 -0.256,0.272l-0.257,0.221l-0.028,5.068c-0.015,2.787 -0.002,5.207 0.029,5.376c0.031,0.17 0.159,0.398 0.284,0.507c0.125,0.109 0.228,0.232 0.228,0.274c0,0.042 -0.525,0.077 -1.166,0.077c-0.641,0 -1.166,-0.029 -1.166,-0.065c0,-0.036 0.106,-0.175 0.234,-0.309l0.234,-0.245l-0.024,-4.886l-0.024,-4.887l-0.746,1.371c-0.411,0.754 -1.012,1.843 -1.336,2.421c-0.325,0.577 -0.76,1.365 -0.968,1.75c-0.209,0.384 -0.472,0.867 -0.587,1.072c-1.714,3.078 -2.227,3.964 -2.294,3.964c-0.044,0 -0.44,-0.535 -0.881,-1.189Zm13.341,1.044c-0.308,-0.07 -0.874,-0.13 -1.259,-0.134l-0.7,-0.007l-0.466,-0.719c-0.55,-0.85 -0.572,-0.911 -0.36,-0.992c0.106,-0.041 0.294,0.036 0.541,0.223c0.597,0.449 1.194,0.73 2.108,0.993c0.738,0.211 0.968,0.237 1.797,0.198c1.56,-0.074 2.545,-0.524 3.092,-1.413c0.23,-0.373 0.28,-0.554 0.274,-0.979c-0.012,-0.819 -0.363,-1.379 -1.161,-1.856c-0.452,-0.27 -2.189,-0.957 -3.213,-1.271c-1.891,-0.58 -2.874,-1.314 -3.186,-2.378c-0.34,-1.163 0.17,-2.424 1.233,-3.047c1.039,-0.609 1.212,-0.641 3.464,-0.643l2.072,-0.002l0.563,0.57c0.31,0.314 0.564,0.614 0.564,0.667c0,0.221 -0.313,0.181 -0.971,-0.122c-1.069,-0.494 -2.175,-0.728 -3.107,-0.659c-1.247,0.094 -2.132,0.494 -2.638,1.192c-0.548,0.757 -0.448,1.626 0.269,2.321c0.497,0.481 1.015,0.715 2.949,1.333c3.099,0.989 4.338,2.019 4.335,3.606c-0.002,0.766 -0.217,1.255 -0.809,1.842c-1.184,1.174 -3.459,1.713 -5.391,1.277Zm14.084,0.008c-1.508,-0.279 -2.956,-0.842 -4.05,-1.576c-0.988,-0.662 -1.917,-1.875 -2.257,-2.944c-0.275,-0.866 -0.276,-2.183 -0.003,-2.941c0.779,-2.161 3.09,-3.845 6.17,-4.495c1.181,-0.249 3.328,-0.226 4.877,0.052c1.131,0.202 1.876,0.224 2.232,0.063c0.13,-0.058 0.203,0.024 0.383,0.432c0.123,0.277 0.356,0.655 0.518,0.84c0.271,0.308 0.283,0.348 0.146,0.485c-0.163,0.163 -0.185,0.155 -0.761,-0.283c-0.454,-0.346 -1.663,-0.834 -2.542,-1.027c-0.994,-0.218 -3.244,-0.265 -4.375,-0.091c-1.045,0.16 -2.187,0.589 -3.074,1.154c-1.356,0.864 -2.334,2.356 -2.419,3.691c-0.095,1.48 0.509,2.885 1.744,4.057c0.487,0.462 1.777,1.279 2.506,1.588c1.193,0.504 3.416,0.77 4.9,0.586c1.641,-0.203 2.516,-0.516 3.481,-1.245c0.352,-0.266 0.543,-0.353 0.681,-0.309c0.274,0.087 0.237,0.247 -0.142,0.613c-0.182,0.177 -0.458,0.542 -0.613,0.811c-0.257,0.449 -0.301,0.484 -0.53,0.42c-0.379,-0.106 -0.982,-0.079 -2.142,0.097c-1.256,0.19 -3.756,0.202 -4.73,0.022Zm26.436,-1.362c-2.09,-0.222 -3.445,-0.891 -3.731,-1.844c-0.147,-0.492 0.074,-1.228 0.54,-1.797c0.458,-0.558 1.848,-1.663 2.578,-2.049l0.573,-0.304l-0.66,0.698c-0.82,0.869 -1.108,1.42 -1.018,1.953c0.131,0.774 1.006,1.399 2.424,1.73c0.63,0.147 1.133,0.174 3.218,0.174c2.561,0 2.98,-0.038 5.317,-0.48c2.837,-0.537 6.873,-1.813 8.544,-2.701c1.023,-0.544 1.517,-0.83 2.027,-1.175c0.602,-0.405 0.751,-0.409 0.438,-0.009c-0.55,0.7 -2.389,1.939 -3.926,2.644c-3.583,1.642 -7.66,2.73 -11.7,3.123c-1.488,0.145 -3.46,0.161 -4.624,0.037Zm-8.388,-3.859c-0,-0.184 1.042,-1.105 1.866,-1.651c0.854,-0.566 3.202,-1.725 4.413,-2.179c1.606,-0.601 4.722,-1.476 5.986,-1.68c0.206,-0.033 0.499,-0.096 0.653,-0.14c0.154,-0.044 0.427,-0.099 0.607,-0.124c0.179,-0.024 0.767,-0.108 1.305,-0.186c3.332,-0.484 6.81,-0.194 8.369,0.697c0.635,0.363 0.888,0.727 0.94,1.35c0.088,1.064 -0.806,2.124 -2.928,3.468c-0.708,0.448 -0.761,0.365 -0.149,-0.236c0.789,-0.775 1.075,-1.246 1.084,-1.785c0.014,-0.959 -0.789,-1.582 -2.559,-1.984c-0.761,-0.173 -1.182,-0.202 -2.984,-0.206c-2.022,-0.005 -2.594,0.041 -4.664,0.373c-1.331,0.214 -2.846,0.565 -4.617,1.069c-1.305,0.372 -2.085,0.653 -3.615,1.305c-1.486,0.634 -2.265,1.041 -3.124,1.635c-0.364,0.251 -0.583,0.354 -0.583,0.274Zm24.716,-4.906c-0.256,-0.775 -1.363,-1.42 -2.89,-1.685c-2.948,-0.512 -6.137,-0.27 -10.717,0.81c-0.534,0.126 -0.985,0.215 -1.002,0.198c-0.061,-0.061 0.964,-0.464 1.972,-0.775c2.827,-0.873 5.53,-1.283 8.488,-1.289c2.63,-0.005 3.332,0.127 4.141,0.781c0.449,0.362 0.663,0.764 0.66,1.239c-0.002,0.334 -0.312,1.098 -0.445,1.098c-0.045,0 -0.139,-0.17 -0.207,-0.377Z" style="fill:#9ea5a7;fill-rule:nonzero;"/></svg>