<?xml version="1.0" encoding="UTF-8" standalone="no"?><!DOCTYPE svg PUBLIC "-//W3C//DTD SVG 1.1//EN" "http://www.w3.org/Graphics/SVG/1.1/DTD/svg11.dtd"><svg width="100%" height="100%" viewBox="0 0 177 50" version="1.1" xmlns="http://www.w3.org/2000/svg" xmlns:xlink="http://www.w3.org/1999/xlink" xml:space="preserve" xmlns:serif="http://www.serif.com/" style="fill-rule:evenodd;clip-rule:evenodd;stroke-linejoin:round;stroke-miterlimit:2;"><path d="M86.728,9.161l-5.443,15.198l-3.181,0l-3.18,-9.029l-3.245,9.029l-3.18,0l-5.422,-15.198l4.077,0l3.116,9.584l3.394,-9.584l2.733,0l3.266,9.755l3.265,-9.755l3.8,0Z" style="fill:#b2b2b2;fill-rule:nonzero;"/><path d="M98.24,13.515l-0,10.844l-3.799,0l-0,-1.473c-0.313,0.512 -0.769,0.918 -1.366,1.217c-0.598,0.284 -1.253,0.427 -1.964,0.427c-0.925,0 -1.751,-0.228 -2.476,-0.683c-0.726,-0.456 -1.295,-1.103 -1.708,-1.943c-0.399,-0.854 -0.598,-1.836 -0.598,-2.946c-0,-1.124 0.207,-2.12 0.619,-2.988c0.413,-0.868 0.982,-1.544 1.708,-2.028c0.726,-0.484 1.544,-0.726 2.455,-0.726c0.711,0 1.359,0.157 1.942,0.47c0.598,0.299 1.061,0.704 1.388,1.217l-0,-1.388l3.799,0Zm-5.934,8.133c0.683,0 1.21,-0.235 1.58,-0.704c0.37,-0.47 0.555,-1.146 0.555,-2.028c-0,-0.897 -0.185,-1.58 -0.555,-2.05c-0.37,-0.483 -0.897,-0.725 -1.58,-0.725c-0.669,0 -1.195,0.249 -1.58,0.747c-0.384,0.484 -0.576,1.174 -0.576,2.07c-0,0.869 0.185,1.537 0.555,2.007c0.37,0.455 0.904,0.683 1.601,0.683Z" style="fill:#b2b2b2;fill-rule:nonzero;"/><path d="M108.093,24.359l-3.693,-4.675l0,4.675l-3.863,0l0,-15.711l3.863,0l0,9.393l3.629,-4.505l4.568,0l-4.269,5.188l4.44,5.635l-4.675,0Z" style="fill:#b2b2b2;fill-rule:nonzero;"/><path d="M124.631,13.515l0,10.844l-3.799,0l0,-1.473c-0.314,0.512 -0.769,0.918 -1.367,1.217c-0.597,0.284 -1.252,0.427 -1.963,0.427c-0.925,0 -1.751,-0.228 -2.477,-0.683c-0.725,-0.456 -1.295,-1.103 -1.707,-1.943c-0.399,-0.854 -0.598,-1.836 -0.598,-2.946c0,-1.124 0.206,-2.12 0.619,-2.988c0.413,-0.868 0.982,-1.544 1.708,-2.028c0.726,-0.484 1.544,-0.726 2.455,-0.726c0.711,0 1.359,0.157 1.942,0.47c0.598,0.299 1.06,0.704 1.388,1.217l0,-1.388l3.799,0Zm-5.934,8.133c0.683,0 1.21,-0.235 1.58,-0.704c0.37,-0.47 0.555,-1.146 0.555,-2.028c0,-0.897 -0.185,-1.58 -0.555,-2.05c-0.37,-0.483 -0.897,-0.725 -1.58,-0.725c-0.669,0 -1.195,0.249 -1.58,0.747c-0.384,0.484 -0.576,1.174 -0.576,2.07c0,0.869 0.185,1.537 0.555,2.007c0.37,0.455 0.904,0.683 1.601,0.683Z" style="fill:#b2b2b2;fill-rule:nonzero;"/><path d="M132.307,24.53c-1.836,0 -3.273,-0.498 -4.312,-1.495c-1.039,-0.996 -1.558,-2.355 -1.558,-4.077c-0,-1.138 0.249,-2.141 0.747,-3.009c0.512,-0.868 1.224,-1.537 2.134,-2.007c0.911,-0.484 1.964,-0.726 3.16,-0.726c0.796,0 1.579,0.121 2.348,0.363c0.768,0.228 1.38,0.541 1.835,0.939l-0.982,2.669c-0.384,-0.313 -0.832,-0.562 -1.344,-0.747c-0.513,-0.185 -1.004,-0.278 -1.473,-0.278c-0.797,0 -1.409,0.228 -1.836,0.683c-0.427,0.456 -0.64,1.132 -0.64,2.028c-0,0.911 0.213,1.601 0.64,2.071c0.427,0.455 1.046,0.683 1.857,0.683c0.47,0 0.954,-0.093 1.452,-0.278c0.512,-0.185 0.96,-0.434 1.344,-0.747l0.982,2.626c-0.469,0.412 -1.095,0.732 -1.878,0.96c-0.769,0.228 -1.594,0.342 -2.476,0.342Z" style="fill:#b2b2b2;fill-rule:nonzero;"/><path d="M135.288,25.896c0.412,0.099 0.761,0.149 1.046,0.149c0.455,0 0.832,-0.135 1.131,-0.405c0.299,-0.256 0.448,-0.655 0.448,-1.196l0,-10.929l3.864,0l0,10.972c0,1.466 -0.384,2.611 -1.153,3.437c-0.754,0.825 -1.864,1.238 -3.33,1.238c-0.825,0 -1.494,-0.1 -2.006,-0.299l0,-2.967Zm6.532,-17.696l0,3.479l-4.035,0l0,-3.479l4.035,0Z" style="fill:#b2b2b2;fill-rule:nonzero;"/><path d="M154.095,19.321l-6.809,0c0.071,0.84 0.313,1.445 0.725,1.815c0.413,0.37 1.018,0.555 1.815,0.555c0.54,0 1.081,-0.086 1.622,-0.257c0.541,-0.184 1.032,-0.434 1.473,-0.747l0.982,2.562c-0.541,0.398 -1.196,0.711 -1.964,0.939c-0.768,0.228 -1.537,0.342 -2.305,0.342c-1.238,0 -2.313,-0.228 -3.224,-0.683c-0.91,-0.456 -1.608,-1.103 -2.092,-1.943c-0.483,-0.854 -0.725,-1.857 -0.725,-3.01c0,-1.095 0.227,-2.07 0.683,-2.924c0.469,-0.868 1.11,-1.544 1.921,-2.028c0.825,-0.484 1.764,-0.726 2.818,-0.726c1.024,0 1.921,0.228 2.689,0.683c0.769,0.456 1.359,1.11 1.772,1.964c0.413,0.84 0.619,1.822 0.619,2.946l0,0.512Zm-4.974,-3.458c-0.953,0 -1.551,0.555 -1.793,1.665l3.458,0c-0.142,-1.11 -0.697,-1.665 -1.665,-1.665Z" style="fill:#b2b2b2;fill-rule:nonzero;"/><rect x="156.096" y="22.16" width="2.198" height="2.199" style="fill:#b2b2b2;"/><path d="M161.122,13.579l2.647,0l0,10.78l-2.647,0l0,-10.78Zm2.796,-4.888l0,2.625l-2.967,-0l0,-2.625l2.967,-0Z" style="fill:#b2b2b2;fill-rule:nonzero;"/><path d="M172.856,13.302c2.576,0 3.864,1.48 3.864,4.44l0,6.617l-2.668,0l0,-6.489c0,-0.854 -0.164,-1.473 -0.491,-1.857c-0.327,-0.399 -0.833,-0.598 -1.516,-0.598c-0.811,0 -1.465,0.263 -1.963,0.79c-0.499,0.512 -0.748,1.195 -0.748,2.049l0,6.105l-2.647,0l0,-7.727c0,-1.139 -0.056,-2.156 -0.17,-3.053l2.497,0l0.192,1.772c0.37,-0.655 0.868,-1.16 1.495,-1.516c0.64,-0.355 1.359,-0.533 2.155,-0.533Z" style="fill:#b2b2b2;fill-rule:nonzero;"/><path d="M69.601,34.699c0.561,0.157 0.997,0.441 1.309,0.855c0.313,0.404 0.469,0.909 0.469,1.516c0,0.854 -0.285,1.516 -0.854,1.984c-0.57,0.46 -1.374,0.69 -2.412,0.69l-4.08,0l0,-9.813l3.942,0c1.001,0 1.778,0.225 2.329,0.675c0.561,0.441 0.841,1.07 0.841,1.888c0,0.524 -0.138,0.979 -0.414,1.365c-0.266,0.376 -0.643,0.657 -1.13,0.84Zm-4.451,-0.413l2.646,0c0.735,0 1.291,-0.147 1.667,-0.441c0.377,-0.294 0.565,-0.726 0.565,-1.296c0,-1.121 -0.744,-1.681 -2.232,-1.681l-2.646,0l0,3.418Zm2.866,4.52c0.772,-0 1.337,-0.142 1.695,-0.427c0.368,-0.294 0.552,-0.74 0.552,-1.337c0,-1.203 -0.749,-1.805 -2.247,-1.805l-2.866,-0l0,3.569l2.866,-0Z" style="fill:#b2b2b2;fill-rule:nonzero;"/><path d="M73.276,32.811l1.117,0l0,6.932l-1.117,0l0,-6.932Zm1.255,-2.935l0,1.267l-1.365,0l0,-1.267l1.365,0Z" style="fill:#b2b2b2;fill-rule:nonzero;"/><path d="M82.363,32.811l-0.001,6.932l-1.088,0l0,-1.199c-0.221,0.423 -0.529,0.745 -0.924,0.965c-0.395,0.221 -0.84,0.331 -1.337,0.331c-0.817,0 -1.437,-0.23 -1.86,-0.689c-0.423,-0.46 -0.634,-1.14 -0.634,-2.04l0,-4.3l1.116,0l0,4.272c0,0.625 0.129,1.085 0.386,1.379c0.258,0.294 0.648,0.441 1.172,0.441c0.615,0 1.111,-0.198 1.488,-0.593c0.377,-0.404 0.565,-0.932 0.565,-1.585l0,-3.914l1.117,0Z" style="fill:#b2b2b2;fill-rule:nonzero;"/><path d="M87.74,32.646c0.229,0 0.441,0.027 0.634,0.082l-0.028,1.02c-0.211,-0.073 -0.455,-0.11 -0.73,-0.11c-0.671,0 -1.172,0.211 -1.503,0.634c-0.321,0.413 -0.482,0.919 -0.482,1.516l0,3.955l-1.116,0l0,-4.989c0,-0.716 -0.037,-1.364 -0.111,-1.943l1.062,0l0.11,1.282c0.174,-0.469 0.455,-0.827 0.841,-1.075c0.385,-0.248 0.826,-0.372 1.323,-0.372Z" style="fill:#b2b2b2;fill-rule:nonzero;"/><path d="M92.24,39.84c-0.652,0 -1.227,-0.147 -1.723,-0.441c-0.496,-0.294 -0.882,-0.712 -1.157,-1.254c-0.267,-0.542 -0.4,-1.176 -0.4,-1.902c0,-0.726 0.133,-1.36 0.4,-1.902c0.275,-0.542 0.661,-0.96 1.157,-1.254c0.496,-0.294 1.071,-0.441 1.723,-0.441c0.652,0 1.227,0.147 1.723,0.441c0.496,0.294 0.877,0.712 1.144,1.254c0.275,0.542 0.413,1.176 0.413,1.902c0,0.726 -0.138,1.36 -0.413,1.902c-0.267,0.542 -0.648,0.96 -1.144,1.254c-0.496,0.294 -1.071,0.441 -1.723,0.441Zm0,-0.923c0.689,0 1.217,-0.226 1.585,-0.676c0.367,-0.459 0.551,-1.125 0.551,-1.998c0,-0.846 -0.188,-1.498 -0.565,-1.957c-0.377,-0.469 -0.9,-0.703 -1.571,-0.703c-0.68,0 -1.208,0.234 -1.585,0.703c-0.377,0.459 -0.565,1.111 -0.565,1.957c0,0.873 0.184,1.539 0.551,1.998c0.377,0.45 0.91,0.676 1.599,0.676Z" style="fill:#b2b2b2;fill-rule:nonzero;"/><path d="M104.313,32.646c0.607,0 1.144,0.151 1.613,0.454c0.468,0.304 0.831,0.731 1.088,1.282c0.258,0.542 0.386,1.172 0.386,1.888c0,0.717 -0.128,1.346 -0.386,1.888c-0.257,0.533 -0.62,0.947 -1.088,1.241c-0.46,0.294 -0.997,0.441 -1.613,0.441c-0.542,0 -1.015,-0.12 -1.419,-0.358c-0.405,-0.239 -0.713,-0.579 -0.924,-1.02l0,4.258l-1.116,0l0,-7.966c0,-0.716 -0.037,-1.364 -0.11,-1.943l1.061,0l0.11,1.337c0.193,-0.478 0.496,-0.845 0.91,-1.103c0.422,-0.266 0.918,-0.399 1.488,-0.399Zm-0.207,6.271c0.68,-0 1.204,-0.23 1.572,-0.69c0.376,-0.459 0.565,-1.111 0.565,-1.957c0,-0.845 -0.189,-1.502 -0.565,-1.97c-0.377,-0.478 -0.901,-0.717 -1.572,-0.717c-0.689,-0 -1.217,0.23 -1.585,0.689c-0.367,0.459 -0.551,1.116 -0.551,1.971c0,0.854 0.184,1.516 0.551,1.984c0.368,0.46 0.896,0.69 1.585,0.69Z" style="fill:#b2b2b2;fill-rule:nonzero;"/><path d="M111.984,39.84c-0.652,0 -1.226,-0.147 -1.722,-0.441c-0.497,-0.294 -0.883,-0.712 -1.158,-1.254c-0.267,-0.542 -0.4,-1.176 -0.4,-1.902c-0,-0.726 0.133,-1.36 0.4,-1.902c0.275,-0.542 0.661,-0.96 1.158,-1.254c0.496,-0.294 1.07,-0.441 1.722,-0.441c0.653,0 1.227,0.147 1.723,0.441c0.496,0.294 0.878,0.712 1.144,1.254c0.276,0.542 0.413,1.176 0.413,1.902c-0,0.726 -0.137,1.36 -0.413,1.902c-0.266,0.542 -0.648,0.96 -1.144,1.254c-0.496,0.294 -1.07,0.441 -1.723,0.441Zm-0,-0.923c0.689,0 1.218,-0.226 1.585,-0.676c0.368,-0.459 0.552,-1.125 0.552,-1.998c-0,-0.846 -0.189,-1.498 -0.566,-1.957c-0.376,-0.469 -0.9,-0.703 -1.571,-0.703c-0.68,0 -1.208,0.234 -1.585,0.703c-0.376,0.459 -0.565,1.111 -0.565,1.957c-0,0.873 0.184,1.539 0.552,1.998c0.376,0.45 0.909,0.676 1.598,0.676Z" style="fill:#b2b2b2;fill-rule:nonzero;"/><path d="M123.11,29.6l0,10.143l-1.103,0l0,-1.254c-0.202,0.432 -0.509,0.767 -0.923,1.006c-0.404,0.23 -0.877,0.345 -1.419,0.345c-0.607,0 -1.144,-0.152 -1.613,-0.455c-0.459,-0.303 -0.818,-0.726 -1.075,-1.268c-0.257,-0.551 -0.386,-1.185 -0.386,-1.902c0,-0.716 0.124,-1.341 0.372,-1.874c0.258,-0.542 0.62,-0.96 1.089,-1.254c0.469,-0.294 1.006,-0.441 1.613,-0.441c0.542,0 1.015,0.119 1.419,0.358c0.404,0.23 0.708,0.556 0.91,0.979l0,-4.383l1.116,0Zm-3.225,9.317c0.68,0 1.204,-0.23 1.571,-0.69c0.368,-0.468 0.551,-1.13 0.551,-1.984c0,-0.846 -0.183,-1.498 -0.551,-1.957c-0.367,-0.469 -0.891,-0.703 -1.571,-0.703c-0.68,0 -1.213,0.23 -1.599,0.689c-0.376,0.459 -0.565,1.107 -0.565,1.943c0,0.855 0.189,1.521 0.565,1.999c0.386,0.468 0.919,0.703 1.599,0.703Z" style="fill:#b2b2b2;fill-rule:nonzero;"/><path d="M128.493,32.646c0.23,0 0.441,0.027 0.634,0.082l-0.027,1.02c-0.211,-0.073 -0.455,-0.11 -0.731,-0.11c-0.67,0 -1.171,0.211 -1.502,0.634c-0.321,0.413 -0.482,0.919 -0.482,1.516l0,3.955l-1.117,0l0,-4.989c0,-0.716 -0.036,-1.364 -0.11,-1.943l1.061,0l0.111,1.282c0.174,-0.469 0.454,-0.827 0.84,-1.075c0.386,-0.248 0.827,-0.372 1.323,-0.372Z" style="fill:#b2b2b2;fill-rule:nonzero;"/><path d="M132.994,39.84c-0.653,0 -1.227,-0.147 -1.723,-0.441c-0.496,-0.294 -0.882,-0.712 -1.158,-1.254c-0.266,-0.542 -0.399,-1.176 -0.399,-1.902c0,-0.726 0.133,-1.36 0.399,-1.902c0.276,-0.542 0.662,-0.96 1.158,-1.254c0.496,-0.294 1.07,-0.441 1.723,-0.441c0.652,0 1.226,0.147 1.723,0.441c0.496,0.294 0.877,0.712 1.143,1.254c0.276,0.542 0.414,1.176 0.414,1.902c0,0.726 -0.138,1.36 -0.414,1.902c-0.266,0.542 -0.647,0.96 -1.143,1.254c-0.497,0.294 -1.071,0.441 -1.723,0.441Zm0,-0.923c0.689,0 1.217,-0.226 1.585,-0.676c0.367,-0.459 0.551,-1.125 0.551,-1.998c0,-0.846 -0.188,-1.498 -0.565,-1.957c-0.377,-0.469 -0.9,-0.703 -1.571,-0.703c-0.68,0 -1.208,0.234 -1.585,0.703c-0.377,0.459 -0.565,1.111 -0.565,1.957c0,0.873 0.184,1.539 0.551,1.998c0.377,0.45 0.91,0.676 1.599,0.676Zm-0.4,-7.002l1.378,-2.811l1.296,0l-1.888,2.811l-0.786,0Z" style="fill:#b2b2b2;fill-rule:nonzero;"/><path d="M143.338,38.861l0,0.882l-5.858,-0l0,-0.771l4.369,-5.279l-4.217,0l0,-0.882l5.554,0l0,0.813l-4.328,5.237l4.48,0Zm-2.233,-8.985l0,1.267l-1.365,-0l0,-1.267l1.365,-0Z" style="fill:#b2b2b2;fill-rule:nonzero;"/><path d="M151.01,32.811l-3.239,7.566c-0.339,0.791 -0.767,1.369 -1.281,1.737c-0.515,0.367 -1.149,0.62 -1.902,0.758l-0.234,-0.868c0.652,-0.147 1.143,-0.345 1.474,-0.593c0.34,-0.239 0.62,-0.611 0.841,-1.116l0.276,-0.62l-2.936,-6.864l1.171,0l2.343,5.72l2.371,-5.72l1.116,0Z" style="fill:#b2b2b2;fill-rule:nonzero;"/><path d="M50,10c0,-5.519 -4.481,-10 -10,-10l-30,0c-5.519,0 -10,4.481 -10,10l0,30c0,5.519 4.481,10 10,10l30,0c5.519,0 10,-4.481 10,-10l0,-30Zm-21.598,8.799c-1.287,0 -2.244,0.695 -2.873,2.087l-5.339,11.592c0.019,1.608 0.086,7.458 0.086,7.56c0,0.068 0.016,0.294 0.032,0.534c0.309,-0.296 0.581,-0.684 0.81,-1.176l5.714,-12.213l-0.408,11.255c0,0.901 0.215,1.592 0.644,2.073c0.429,0.492 1.036,0.737 1.82,0.737c1.026,0 1.9,-0.617 2.622,-1.852l9.671,-16.624l1.758,-0.002c0.91,0 1.623,-0.194 2.135,-0.581c0.513,-0.398 0.77,-0.942 0.77,-1.633c0,-1.025 -0.728,-1.537 -2.183,-1.537l-3.061,0c-1.193,0 -2.078,0.502 -2.653,1.506l-0.33,0.612l-7.065,12.167l0.284,-11.947l0.016,-0.173c0,-0.722 -0.226,-1.297 -0.676,-1.726c-0.45,-0.44 -1.041,-0.659 -1.774,-0.659Zm-15.593,-0c-2.229,-0 -4.23,0.858 -5.997,2.574c-1.759,1.706 -2.637,3.643 -2.637,5.809c0,1.779 0.553,3.249 1.664,4.411c1.109,1.162 2.512,1.743 4.206,1.743c1.1,-0 2.01,-0.23 2.733,-0.691c0.722,-0.471 1.083,-1.057 1.083,-1.758c0,-1.057 -0.639,-1.585 -1.916,-1.585c-0.053,-0 -0.177,0.005 -0.376,0.016c-0.2,0.01 -0.409,0.015 -0.628,0.015c-0.765,-0 -1.381,-0.236 -1.853,-0.707c-0.471,-0.471 -0.707,-1.088 -0.707,-1.852c0,-0.91 0.419,-1.81 1.256,-2.7c0.837,-0.9 1.679,-1.35 2.527,-1.35c0.952,-0 1.593,0.334 1.916,1.004c0.336,0.66 0.502,1.947 0.502,3.862l0.331,10.848c0,0.88 0.219,1.565 0.659,2.057c0.347,0.388 0.805,0.609 1.352,0.695c0.132,0.037 0.27,0.056 0.406,0.057c0.833,-0 1.519,-0.685 1.519,-1.517l0,-0.027l-0.117,-6.656l-0.004,0.007l-0.094,-5.464l-0.006,-0.5l-0.027,-1.411c-0.073,-2.29 -0.526,-3.986 -1.365,-5.074c-0.911,-1.204 -2.386,-1.806 -4.427,-1.806Zm-1.308,-2.951c1.955,-0 3.541,-1.586 3.541,-3.542c0,-1.956 -1.586,-3.541 -3.541,-3.541c-1.956,-0 -3.542,1.585 -3.542,3.541c0,1.956 1.586,3.542 3.542,3.542Z" style="fill:#b2b2b2;"/></svg>