<svg width="20" height="16" viewBox="0 0 20 16" fill="none" xmlns="http://www.w3.org/2000/svg">
<path fill-rule="evenodd" clip-rule="evenodd" d="M3 14C1.34315 14 0 12.6569 0 11V3C0 1.34315 1.34315 0 3 0H17C18.6569 0 20 1.34315 20 3V11C20 12.6569 18.6569 14 17 14H13C13.5523 14 14 14.4477 14 15C14 15.5523 13.5523 16 13 16H7C6.44772 16 6 15.5523 6 15C6 14.4477 6.44772 14 7 14H3ZM17 2H3C2.44772 2 2 2.44772 2 3V11C2 11.5523 2.44772 12 3 12H17C17.5523 12 18 11.5523 18 11V3C18 2.44772 17.5523 2 17 2Z" fill="white"/>
</svg>
