<svg width="15" height="15" viewBox="0 0 15 15" fill="none" xmlns="http://www.w3.org/2000/svg">
<path fill-rule="evenodd" clip-rule="evenodd" d="M7.5 15C11.6421 15 15 11.6421 15 7.5C15 3.35786 11.6421 0 7.5 0C3.35786 0 0 3.35786 0 7.5C0 11.6421 3.35786 15 7.5 15ZM7.50064 13.4705C10.7974 13.4705 13.47 10.7979 13.47 7.50113C13.47 4.20432 10.7974 1.53174 7.50064 1.53174C4.20384 1.53174 1.53125 4.20432 1.53125 7.50113C1.53125 10.7979 4.20384 13.4705 7.50064 13.4705ZM11.591 6.50562H9.57063C9.19988 5.73597 8.41247 5.20483 7.501 5.20483C6.233 5.20483 5.20508 6.23275 5.20508 7.50075C5.20508 8.76875 6.233 9.79667 7.501 9.79667C8.44256 9.79667 9.25175 9.22988 9.60598 8.41888H11.6091C11.1903 10.3022 9.50967 11.7104 7.5002 11.7104C5.17553 11.7104 3.29102 9.82584 3.29102 7.50118C3.29102 5.17651 5.17553 3.29199 7.5002 3.29199C9.48189 3.29199 11.1437 4.66145 11.591 6.50562Z" fill="#989898"/>
</svg>
