<svg width="68" height="75" viewBox="0 0 68 75" fill="none" xmlns="http://www.w3.org/2000/svg">
<path fill-rule="evenodd" clip-rule="evenodd" d="M36.1663 0.399708C34.5008 -0.133234 32.7106 -0.133237 31.0451 0.399703L5.84086 8.46506C2.36118 9.57856 0 12.8133 0 16.4668V33.3659C0 40.8842 1.53256 48.6442 6.25642 55.844C10.9762 63.038 18.6673 69.3468 30.4135 74.3497C32.4491 75.2168 34.7623 75.2168 36.7979 74.3497C48.5439 69.3468 56.2353 63.038 60.955 55.844C65.679 48.6442 67.2114 40.8842 67.2114 33.3659V16.4668C67.2114 12.8133 64.8504 9.57856 61.3707 8.46506L36.1663 0.399708ZM33.2399 7.25833C33.4778 7.18219 33.7336 7.18219 33.9715 7.25833L59.1758 15.3237C59.6727 15.4828 60.0102 15.9449 60.0102 16.4668V33.3659C60.0102 39.887 58.6914 46.1664 54.9338 51.8939C51.1724 57.6275 44.7513 63.135 33.976 67.7246C33.7433 67.8235 33.4681 67.8235 33.2354 67.7246C22.46 63.135 16.0392 57.6275 12.2775 51.8939C8.51977 46.1664 7.20122 39.887 7.20122 33.3659V16.4668C7.20122 15.9449 7.53853 15.4828 8.03565 15.3237L33.2399 7.25833ZM49.3538 29.911C50.76 28.5049 50.76 26.2251 49.3538 24.819C47.9477 23.4128 45.6682 23.4128 44.2621 24.819L30.0051 39.0758L25.3499 34.4206C23.9438 33.0145 21.664 33.0145 20.2579 34.4206C18.8517 35.8267 18.8517 38.1065 20.2579 39.5127L27.4591 46.7139C28.8652 48.12 31.145 48.12 32.5511 46.7139L49.3538 29.911Z" fill="white"/>
</svg>
