<svg width="31" height="34" viewBox="0 0 31 34" fill="none" xmlns="http://www.w3.org/2000/svg">
<path d="M1.5 2H29.5" stroke="#EDF1F2" stroke-width="3" stroke-linecap="round" stroke-linejoin="round"/>
<path d="M1.5 10H29.5" stroke="#EDF1F2" stroke-width="3" stroke-linecap="round" stroke-linejoin="round"/>
<path fill-rule="evenodd" clip-rule="evenodd" d="M27.873 19.5H29.5C30.3284 19.5 31 18.8284 31 18C31 17.1716 30.3284 16.5 29.5 16.5H26.4564C27.0495 17.4264 27.5283 18.4331 27.873 19.5ZM4.54364 16.5H1.5C0.671573 16.5 0 17.1716 0 18C0 18.8284 0.671573 19.5 1.5 19.5H3.127C3.47167 18.4331 3.95051 17.4264 4.54364 16.5ZM27.873 27.5C28.1819 26.5437 28.3831 25.5389 28.4621 24.5H29.5C30.3284 24.5 31 25.1716 31 26C31 26.8284 30.3284 27.5 29.5 27.5H27.873ZM3.127 27.5H1.5C0.671573 27.5 0 26.8284 0 26C0 25.1716 0.671573 24.5 1.5 24.5H2.53789C2.61692 25.5389 2.81806 26.5437 3.127 27.5Z" fill="#EDF1F2"/>
<path fill-rule="evenodd" clip-rule="evenodd" d="M25.5 23.5C25.5 29.0228 21.0228 33.5 15.5 33.5C9.97715 33.5 5.5 29.0228 5.5 23.5C5.5 17.9772 9.97715 13.5 15.5 13.5C21.0228 13.5 25.5 17.9772 25.5 23.5ZM11.2574 20.6716L12.6716 19.2574L15.5 22.0858L18.3284 19.2574L19.7426 20.6716L16.9142 23.5L19.7426 26.3284L18.3284 27.7426L15.5 24.9142L12.6716 27.7426L11.2574 26.3284L14.0858 23.5L11.2574 20.6716Z" fill="#EDF1F2"/>
</svg>
