<svg width="31" height="34" viewBox="0 0 31 34" fill="none" xmlns="http://www.w3.org/2000/svg">
<path fill-rule="evenodd" clip-rule="evenodd" d="M16.3635 10.9761C15.9776 10.3146 15.0218 10.3146 14.6359 10.9761L2.37698 31.9915C1.9881 32.6581 2.46897 33.4953 3.24076 33.4953H27.7587C28.5305 33.4953 29.0114 32.6581 28.6225 31.9915L16.3635 10.9761ZM11.2574 23.1716L12.6716 21.7574L15.5 24.5858L18.3284 21.7574L19.7427 23.1716L16.9142 26L19.7427 28.8284L18.3284 30.2426L15.5 27.4142L12.6716 30.2426L11.2574 28.8284L14.0858 26L11.2574 23.1716Z" fill="#EDF1F2"/>
<path fill-rule="evenodd" clip-rule="evenodd" d="M1.5 0.5C0.671573 0.5 0 1.17157 0 2C0 2.82843 0.671573 3.5 1.5 3.5H29.5C30.3284 3.5 31 2.82843 31 2C31 1.17157 30.3284 0.5 29.5 0.5H1.5ZM1.5 8.5C0.671573 8.5 0 9.17157 0 10C0 10.8284 0.671573 11.5 1.5 11.5H10.8574L12.0447 9.46452C12.2632 9.09 12.5273 8.7685 12.8242 8.5H1.5ZM1.5 16.5H7.9407L6.1907 19.5H1.5C0.671573 19.5 0 18.8284 0 18C0 17.1716 0.671573 16.5 1.5 16.5ZM19.5859 16.5H19.5858L21.3358 19.5H21.3359L19.5859 16.5ZM26.0024 27.5L24.2524 24.5H24.2526L26.0026 27.5H26.0024ZM16.6691 11.5L16.3635 10.9761C16.1713 10.6467 15.8378 10.4813 15.5037 10.48C15.8378 10.4813 16.1714 10.6466 16.3636 10.9761L16.6692 11.5H16.6691ZM1.5 24.5H3.27404L1.52404 27.5H1.5C0.671573 27.5 0 26.8284 0 26C0 25.1716 0.671573 24.5 1.5 24.5ZM29.5 27.5H29.4757L27.7257 24.5H29.5C30.3284 24.5 31 25.1716 31 26C31 26.8284 30.3284 27.5 29.5 27.5ZM29.5 19.5H24.809L23.059 16.5H29.5C30.3284 16.5 31 17.1716 31 18C31 18.8284 30.3284 19.5 29.5 19.5ZM29.5 11.5H20.1423L18.955 9.46452C18.7365 9.09 18.4724 8.7685 18.1755 8.5H29.5C30.3284 8.5 31 9.17157 31 10C31 10.8284 30.3284 11.5 29.5 11.5Z" fill="#EDF1F2"/>
</svg>
