<svg width="32" height="34" viewBox="0 0 32 34" fill="none" xmlns="http://www.w3.org/2000/svg">
<path d="M2 2H30" stroke="#EDF1F2" stroke-width="3" stroke-linecap="round" stroke-linejoin="round"/>
<path d="M2 10H30" stroke="#EDF1F2" stroke-width="3" stroke-linecap="round" stroke-linejoin="round"/>
<path fill-rule="evenodd" clip-rule="evenodd" d="M28.373 19.5H30C30.8284 19.5 31.5 18.8284 31.5 18C31.5 17.1716 30.8284 16.5 30 16.5H26.9564C27.5495 17.4264 28.0283 18.4331 28.373 19.5ZM5.04364 16.5H2C1.17157 16.5 0.5 17.1716 0.5 18C0.5 18.8284 1.17157 19.5 2 19.5H3.627C3.97167 18.4331 4.45051 17.4264 5.04364 16.5ZM28.373 27.5C28.6819 26.5437 28.8831 25.5389 28.9621 24.5H30C30.8284 24.5 31.5 25.1716 31.5 26C31.5 26.8284 30.8284 27.5 30 27.5H28.373ZM3.627 27.5H2C1.17157 27.5 0.5 26.8284 0.5 26C0.5 25.1716 1.17157 24.5 2 24.5H3.03789C3.11692 25.5389 3.31806 26.5437 3.627 27.5Z" fill="#EDF1F2"/>
<path fill-rule="evenodd" clip-rule="evenodd" d="M26 23.5C26 29.0228 21.5228 33.5 16 33.5C10.4772 33.5 6 29.0228 6 23.5C6 17.9772 10.4772 13.5 16 13.5C21.5228 13.5 26 17.9772 26 23.5ZM12 24.5C11.4477 24.5 11 24.0523 11 23.5C11 22.9477 11.4477 22.5 12 22.5H15V19.5C15 18.9477 15.4477 18.5 16 18.5C16.5523 18.5 17 18.9477 17 19.5V22.5H20C20.5523 22.5 21 22.9477 21 23.5C21 24.0523 20.5523 24.5 20 24.5H17V27.5C17 28.0523 16.5523 28.5 16 28.5C15.4477 28.5 15 28.0523 15 27.5V24.5H12Z" fill="#EDF1F2"/>
</svg>
