<svg width="32" height="34" viewBox="0 0 32 34" fill="none" xmlns="http://www.w3.org/2000/svg">
<path fill-rule="evenodd" clip-rule="evenodd" d="M16.8635 10.9761C16.4776 10.3146 15.5218 10.3146 15.1359 10.9761L2.87697 31.9915C2.48809 32.6581 2.96896 33.4953 3.74075 33.4953H28.2587C29.0305 33.4953 29.5113 32.6581 29.1225 31.9915L16.8635 10.9761ZM12 27C11.4477 27 11 26.5523 11 26C11 25.4477 11.4477 25 12 25H15V22C15 21.4477 15.4477 21 16 21C16.5523 21 17 21.4477 17 22V25H20C20.5523 25 21 25.4477 21 26C21 26.5523 20.5523 27 20 27H17V30C17 30.5523 16.5523 31 16 31C15.4477 31 15 30.5523 15 30V27H12Z" fill="#EDF1F2"/>
<path fill-rule="evenodd" clip-rule="evenodd" d="M2 0.5C1.17157 0.5 0.5 1.17157 0.5 2C0.5 2.82843 1.17157 3.5 2 3.5H30C30.8284 3.5 31.5 2.82843 31.5 2C31.5 1.17157 30.8284 0.5 30 0.5H2ZM2 8.5C1.17157 8.5 0.5 9.17157 0.5 10C0.5 10.8284 1.17157 11.5 2 11.5H11.3574L12.5447 9.46452C12.7632 9.09 13.0273 8.7685 13.3242 8.5H2ZM2 16.5H8.4407L6.6907 19.5H2C1.17157 19.5 0.5 18.8284 0.5 18C0.5 17.1716 1.17157 16.5 2 16.5ZM20.0859 16.5H20.0858L21.8358 19.5H21.8359L20.0859 16.5ZM26.5024 27.5L24.7524 24.5H24.7526L26.5026 27.5H26.5024ZM17.1691 11.5L16.8635 10.9761C16.6713 10.6467 16.3378 10.4813 16.0037 10.48C16.3378 10.4813 16.6714 10.6466 16.8636 10.9761L17.1692 11.5H17.1691ZM2 24.5H3.77404L2.02404 27.5H2C1.17157 27.5 0.5 26.8284 0.5 26C0.5 25.1716 1.17157 24.5 2 24.5ZM30 27.5H29.9757L28.2257 24.5H30C30.8284 24.5 31.5 25.1716 31.5 26C31.5 26.8284 30.8284 27.5 30 27.5ZM30 19.5H25.309L23.559 16.5H30C30.8284 16.5 31.5 17.1716 31.5 18C31.5 18.8284 30.8284 19.5 30 19.5ZM30 11.5H20.6423L19.455 9.46452C19.2365 9.09 18.9724 8.7685 18.6755 8.5H30C30.8284 8.5 31.5 9.17157 31.5 10C31.5 10.8284 30.8284 11.5 30 11.5Z" fill="#EDF1F2"/>
</svg>
