<svg width="20" height="20" viewBox="0 0 20 20" fill="none" xmlns="http://www.w3.org/2000/svg">
<path d="M9.25 0C5.031 0.004 2.849 0.08 1.464 1.464C0.08 2.85 0.004 5.031 0 9.25H4.914C4.55442 8.80122 4.29619 8.27997 4.157 7.722C3.62 5.57 5.57 3.62 7.722 4.157C8.294 4.3 8.812 4.563 9.25 4.914V0ZM0 10.75C0.004 14.968 0.08 17.15 1.464 18.535C2.85 19.92 5.031 19.995 9.25 20V12.123C8.85556 12.9125 8.24899 13.5764 7.49831 14.0404C6.74762 14.5045 5.88251 14.7502 5 14.75C4.80109 14.75 4.61032 14.671 4.46967 14.5303C4.32902 14.3897 4.25 14.1989 4.25 14C4.25 13.8011 4.32902 13.6103 4.46967 13.4697C4.61032 13.329 4.80109 13.25 5 13.25C5.73162 13.25 6.44185 13.0032 7.01583 12.5495C7.58981 12.0958 7.99399 11.4618 8.163 10.75H0ZM10.75 20C14.968 19.995 17.15 19.92 18.535 18.535C19.92 17.151 19.995 14.968 20 10.75H11.837C12.006 11.4618 12.4102 12.0958 12.9842 12.5495C13.5581 13.0032 14.2684 13.25 15 13.25C15.1989 13.25 15.3897 13.329 15.5303 13.4697C15.671 13.6103 15.75 13.8011 15.75 14C15.75 14.1989 15.671 14.3897 15.5303 14.5303C15.3897 14.671 15.1989 14.75 15 14.75C14.1175 14.7502 13.2524 14.5045 12.5017 14.0404C11.751 13.5764 11.1444 12.9125 10.75 12.123V20ZM20 9.25C19.995 5.031 19.92 2.849 18.535 1.464C17.151 0.08 14.968 0.004 10.75 0V4.914C11.1985 4.55458 11.7194 4.29635 12.277 4.157C14.43 3.619 16.381 5.569 15.842 7.722C15.7031 8.27988 15.4452 8.80113 15.086 9.25H20Z" fill="#FDFEFE"/>
<path d="M7.35789 5.61297C7.89817 5.7479 8.37785 6.05956 8.72066 6.4984C9.06348 6.93725 9.24976 7.4781 9.24989 8.03497V9.24997H8.03489C7.47802 9.24984 6.93717 9.06356 6.49832 8.72074C6.05947 8.37793 5.74782 7.89825 5.61289 7.35797C5.55294 7.11694 5.55635 6.8645 5.62279 6.62518C5.68924 6.38586 5.81645 6.16779 5.99208 5.99216C6.16771 5.81653 6.38577 5.68932 6.6251 5.62288C6.86442 5.55643 7.11686 5.55302 7.35789 5.61297ZM10.7499 8.03497V9.24997H11.9649C13.1099 9.24997 14.1089 8.46997 14.3869 7.35797C14.4469 7.11684 14.4435 6.86428 14.377 6.62485C14.3105 6.38542 14.1832 6.16726 14.0075 5.9916C13.8317 5.81594 13.6135 5.68876 13.374 5.62241C13.1346 5.55606 12.882 5.55281 12.6409 5.61297C12.1008 5.74809 11.6213 6.05983 11.2787 6.49866C10.9361 6.93749 10.75 7.47823 10.7499 8.03497Z" fill="#FDFEFE"/>
</svg>
