<?xml version="1.0" encoding="UTF-8" standalone="no"?><!DOCTYPE svg PUBLIC "-//W3C//DTD SVG 1.1//EN" "http://www.w3.org/Graphics/SVG/1.1/DTD/svg11.dtd"><svg width="100%" height="100%" viewBox="0 0 14 15" version="1.1" xmlns="http://www.w3.org/2000/svg" xmlns:xlink="http://www.w3.org/1999/xlink" xml:space="preserve" xmlns:serif="http://www.serif.com/" style="fill-rule:evenodd;clip-rule:evenodd;stroke-linejoin:round;stroke-miterlimit:2;"><g><path id="path252" d="M13.543,6.69l-6.69,-6.69l-6.69,6.69c-0.217,0.218 -0.217,0.576 0,0.793l6.69,6.69l6.69,-6.69c0.217,-0.217 0.217,-0.575 0,-0.793Zm-6.69,2.492l-2.095,-2.095l2.095,-2.096l2.095,2.096l-2.095,2.095Z" style="fill:#2684ff;fill-rule:nonzero;"/><path id="path254" d="M6.853,4.991c-1.363,-1.363 -1.37,-3.603 -0.015,-4.974l-4.585,4.583l2.495,2.496l2.105,-2.105Z" style="fill:url(#_Linear1);fill-rule:nonzero;"/><path id="path256" d="M8.954,7.081l-2.101,2.101c0.662,0.661 1.034,1.56 1.034,2.496c0,0.935 -0.372,1.834 -1.034,2.495l4.597,-4.596l-2.496,-2.496Z" style="fill:url(#_Linear2);fill-rule:nonzero;"/></g><defs><linearGradient id="_Linear1" x1="0" y1="0" x2="1" y2="0" gradientUnits="userSpaceOnUse" gradientTransform="matrix(-2.92594,2.92594,-2.92594,-2.92594,6.47888,2.87169)"><stop offset="0" style="stop-color:#0052cc;stop-opacity:1"/><stop offset="0.18" style="stop-color:#0052cc;stop-opacity:1"/><stop offset="1" style="stop-color:#2684ff;stop-opacity:1"/></linearGradient><linearGradient id="_Linear2" x1="0" y1="0" x2="1" y2="0" gradientUnits="userSpaceOnUse" gradientTransform="matrix(71.7525,-110.71,110.71,71.7525,185.108,434.6)"><stop offset="0" style="stop-color:#0052cc;stop-opacity:1"/><stop offset="0.18" style="stop-color:#0052cc;stop-opacity:1"/><stop offset="1" style="stop-color:#2684ff;stop-opacity:1"/></linearGradient></defs></svg>