<svg width="19" height="18" viewBox="0 0 19 18" fill="none" xmlns="http://www.w3.org/2000/svg">
<path d="M18.0351 17.4999H14.1462V10.9374C14.1462 9.90823 12.9913 9.04724 11.9622 9.04724C10.933 9.04724 10.2574 9.90823 10.2574 10.9374V17.4999H6.36849V5.83329H10.2574V7.77772C10.9013 6.73606 12.5483 6.06397 13.6844 6.06397C16.0873 6.06397 18.0351 8.04858 18.0351 10.4513V17.4999ZM4.42404 17.4999H0.535156V5.83329H4.42404V17.4999ZM2.47961 0C3.55349 0 4.42405 0.87055 4.42405 1.94443C4.42405 3.01831 3.55349 3.88886 2.47961 3.88886C1.40572 3.88886 0.535166 3.01831 0.535166 1.94443C0.535166 0.87055 1.40572 0 2.47961 0Z" fill="white"/>
</svg>
