<svg width="8" height="10" viewBox="0 0 8 10" fill="none" xmlns="http://www.w3.org/2000/svg">
<path fill-rule="evenodd" clip-rule="evenodd" d="M4.00724e-05 3.9975C4.00724e-05 1.7945 1.79454 0 4.00004 0C6.20553 0 8.00004 1.7945 8.00004 4C8.01454 7.22 4.00004 10 4.00004 10C3.99765 9.99831 3.99436 9.99598 3.99017 9.99303C3.72778 9.80801 -0.0142324 7.16944 4.00724e-05 3.9975ZM4.00004 6C5.10461 6 6.00004 5.10457 6.00004 4C6.00004 2.89543 5.10461 2 4.00004 2C2.89547 2 2.00004 2.89543 2.00004 4C2.00004 5.10457 2.89547 6 4.00004 6Z" fill="#B6BBBD"/>
</svg>
