<?xml version="1.0" encoding="UTF-8" standalone="no"?><!DOCTYPE svg PUBLIC "-//W3C//DTD SVG 1.1//EN" "http://www.w3.org/Graphics/SVG/1.1/DTD/svg11.dtd"><svg width="100%" height="100%" viewBox="0 0 15 15" version="1.1" xmlns="http://www.w3.org/2000/svg" xmlns:xlink="http://www.w3.org/1999/xlink" xml:space="preserve" xmlns:serif="http://www.serif.com/" style="fill-rule:evenodd;clip-rule:evenodd;stroke-linejoin:round;stroke-miterlimit:2;"><clipPath id="_clip1"><rect id="mattermost-icon-svgrepo-com.svg" x="0" y="0" width="14.173" height="14.173"/></clipPath><g clip-path="url(#_clip1)"><g><path d="M0.376,4.815c1.021,-3.017 3.875,-4.894 6.9,-4.812l-0.969,1.145c-1.795,0.325 -3.345,1.55 -3.954,3.349c-0.906,2.677 0.613,5.609 3.393,6.551c2.779,0.94 5.767,-0.467 6.673,-3.143c0.607,-1.793 0.126,-3.701 -1.094,-5.048l-0.074,-1.505c2.445,1.775 3.566,4.995 2.546,8.006c-1.254,3.706 -5.276,5.694 -8.982,4.439c-3.706,-1.255 -5.694,-5.276 -4.439,-8.982Zm8.769,-4.155c0.037,-0.016 0.078,-0.019 0.119,-0.005c0.039,0.013 0.07,0.04 0.089,0.074l0.004,0.006l0.004,0.007c0.009,0.018 0.017,0.039 0.02,0.064c0.008,0.049 0.011,0.165 0.012,0.284l0.001,0.032c0,0.038 0,0.075 0,0.11l0,0.03c0,0.096 -0.001,0.168 -0.001,0.168l0.028,1.048l0.041,1.21l0.052,2.103c-0,-0 -0,0 -0,0.001l-0,0.003c-0,0.001 -0,0.002 -0,0.003l-0,0.007c-0.001,0.12 -0.025,0.999 -0.649,1.61c-0.671,0.657 -1.494,0.597 -2.03,0.415c-0.536,-0.181 -1.227,-0.634 -1.361,-1.563c-0.113,-0.79 0.307,-1.454 0.435,-1.635l0.009,-0.012c0.017,-0.024 0.028,-0.037 0.028,-0.037l1.318,-1.639l0.767,-0.936l0.659,-0.816c0,-0 0.097,-0.13 0.197,-0.258l0.02,-0.025c0.033,-0.043 0.066,-0.084 0.095,-0.119l0.017,-0.02c0.024,-0.029 0.045,-0.053 0.06,-0.067c0.017,-0.016 0.034,-0.027 0.052,-0.036l0.012,-0.006l0.002,-0.001Z" style="fill:#0058cc;fill-rule:nonzero;"/></g></g></svg>