<?xml version="1.0" encoding="UTF-8" standalone="no"?><!DOCTYPE svg PUBLIC "-//W3C//DTD SVG 1.1//EN" "http://www.w3.org/Graphics/SVG/1.1/DTD/svg11.dtd"><svg width="100%" height="100%" viewBox="0 0 114 114" version="1.1" xmlns="http://www.w3.org/2000/svg" xmlns:xlink="http://www.w3.org/1999/xlink" xml:space="preserve" xmlns:serif="http://www.serif.com/" style="fill-rule:evenodd;clip-rule:evenodd;stroke-linejoin:round;stroke-miterlimit:2;"><g><g><clipPath id="_clip1"><rect x="0" y="0" width="113.386" height="56.693"/></clipPath><g clip-path="url(#_clip1)"><path d="M3.008,38.518c8.169,-24.131 31,-39.152 55.2,-38.497l-7.756,9.165c-14.356,2.595 -26.753,12.399 -31.625,26.791c-7.249,21.414 4.901,44.875 27.138,52.404c22.237,7.527 46.14,-3.73 53.389,-25.143c4.856,-14.344 1.006,-29.607 -8.75,-40.385l-0.596,-12.033c19.556,14.194 28.526,39.953 20.37,64.045c-10.038,29.649 -42.209,45.548 -71.859,35.511c-29.649,-10.037 -45.548,-42.209 -35.511,-71.858Zm70.155,-33.237c0.29,-0.125 0.624,-0.152 0.946,-0.043c0.316,0.107 0.56,0.324 0.715,0.591l0.032,0.051l0.028,0.06c0.075,0.142 0.138,0.305 0.168,0.505c0.058,0.394 0.085,1.322 0.095,2.272l0.003,0.259c0.002,0.302 0.003,0.602 0.004,0.883l-0,0.236c-0.001,0.768 -0.008,1.344 -0.008,1.344l0.223,8.386l0.33,9.68l0.41,16.822c0,-0 0,0.003 0,0.009l0.001,0.027c-0,0.006 -0,0.013 -0,0.02l-0,0.054c-0.003,0.961 -0.2,7.994 -5.19,12.882c-5.364,5.256 -11.954,4.775 -16.242,3.324c-4.287,-1.452 -9.814,-5.073 -10.883,-12.507c-0.908,-6.318 2.451,-11.63 3.479,-13.081l0.069,-0.096c0.14,-0.194 0.221,-0.296 0.221,-0.296l10.545,-13.113l6.142,-7.489l5.271,-6.526c0,-0 0.775,-1.038 1.573,-2.061l0.16,-0.204c0.265,-0.338 0.528,-0.668 0.76,-0.948l0.135,-0.162c0.197,-0.234 0.364,-0.421 0.481,-0.535c0.136,-0.133 0.276,-0.219 0.414,-0.286l0.101,-0.051l0.017,-0.007Z" style="fill:#0058cc;fill-rule:nonzero;"/></g></g></g><g><g><clipPath id="_clip2"><rect x="0" y="56.693" width="113.386" height="56.693"/></clipPath><g clip-path="url(#_clip2)"><path d="M23.904,71.679c-0,6.59 -5.322,11.916 -11.907,11.916c-6.585,-0 -11.907,-5.326 -11.907,-11.916c0,-6.59 5.322,-11.917 11.907,-11.917l11.907,0l-0,11.917Zm5.953,-0c0,-6.59 5.322,-11.917 11.907,-11.917c6.585,0 11.907,5.327 11.907,11.917l0,29.79c0,6.591 -5.322,11.917 -11.907,11.917c-6.585,-0 -11.907,-5.326 -11.907,-11.917l0,-29.79Z" style="fill:#e01e5a;fill-rule:nonzero;"/><path d="M41.764,23.833c-6.585,-0 -11.907,-5.327 -11.907,-11.917c0,-6.59 5.322,-11.916 11.907,-11.916c6.585,0 11.907,5.326 11.907,11.916l0,11.917l-11.907,-0Zm0,6.048c6.585,0 11.907,5.326 11.907,11.916c0,6.591 -5.322,11.917 -11.907,11.917l-29.857,-0c-6.585,-0 -11.907,-5.326 -11.907,-11.917c0,-6.59 5.322,-11.916 11.907,-11.916l29.857,0Z" style="fill:#36c5f0;fill-rule:nonzero;"/><path d="M89.482,41.797c-0,-6.59 5.322,-11.916 11.907,-11.916c6.585,0 11.907,5.326 11.907,11.916c-0,6.591 -5.322,11.917 -11.907,11.917l-11.907,-0l-0,-11.917Zm-5.954,0c0,6.591 -5.322,11.917 -11.906,11.917c-6.585,-0 -11.907,-5.326 -11.907,-11.917l-0,-29.881c-0,-6.59 5.322,-11.916 11.907,-11.916c6.584,0 11.906,5.326 11.906,11.916l0,29.881Z" style="fill:#2eb67d;fill-rule:nonzero;"/><path d="M71.622,89.553c6.584,0 11.906,5.326 11.906,11.916c0,6.591 -5.322,11.917 -11.906,11.917c-6.585,-0 -11.907,-5.326 -11.907,-11.917l-0,-11.916l11.907,0Zm-0,-5.958c-6.585,-0 -11.907,-5.326 -11.907,-11.916c-0,-6.59 5.322,-11.917 11.907,-11.917l29.857,0c6.585,0 11.907,5.327 11.907,11.917c-0,6.59 -5.322,11.916 -11.907,11.916l-29.857,-0Z" style="fill:#ecb22e;fill-rule:nonzero;"/></g></g></g></svg>