<?xml version="1.0" encoding="UTF-8" standalone="no"?><!DOCTYPE svg PUBLIC "-//W3C//DTD SVG 1.1//EN" "http://www.w3.org/Graphics/SVG/1.1/DTD/svg11.dtd"><svg width="100%" height="100%" viewBox="0 0 48 48" version="1.1" xmlns="http://www.w3.org/2000/svg" xmlns:xlink="http://www.w3.org/1999/xlink" xml:space="preserve" xmlns:serif="http://www.serif.com/" style="fill-rule:evenodd;clip-rule:evenodd;stroke-linejoin:round;stroke-miterlimit:2;"><g><path d="M0,5l0,29l2,0l0,-29c0,-1.656 1.344,-3 3,-3l38,0c1.656,0 3,1.344 3,3l0,38c0,1.656 -1.344,3 -3,3l-29,0l0,2l29,0c2.76,0 5,-2.24 5,-5l0,-38c0,-2.76 -2.24,-5 -5,-5l-38,0c-2.76,0 -5,2.24 -5,5Zm0,33l0,10l10,0l0,-2l-8,0l0,-8l-2,0Z" style="fill:#fff;"/><path d="M15.808,12.5c-0.236,0 -0.47,0.01 -0.701,0.03c-0.743,0.065 -1.289,0.615 -1.458,1.261l-0.289,1.106c-0.018,0.066 -0.079,0.158 -0.212,0.224c-0.232,0.114 -0.455,0.244 -0.668,0.386c-0.123,0.082 -0.233,0.09 -0.299,0.071l-1.103,-0.302c-0.644,-0.177 -1.392,0.02 -1.82,0.629c-0.268,0.383 -0.505,0.79 -0.704,1.218c-0.315,0.675 -0.111,1.422 0.363,1.891l0.815,0.806c0.05,0.048 0.098,0.147 0.088,0.294c-0.008,0.128 -0.012,0.256 -0.012,0.386c0,0.13 0.004,0.258 0.012,0.386c0.01,0.147 -0.038,0.246 -0.088,0.294l-0.815,0.806c-0.474,0.469 -0.678,1.216 -0.363,1.891c0.199,0.428 0.436,0.835 0.704,1.218c0.428,0.609 1.176,0.806 1.82,0.629l1.103,-0.302c0.066,-0.019 0.176,-0.011 0.299,0.071c0.213,0.143 0.436,0.272 0.668,0.386c0.133,0.066 0.194,0.158 0.212,0.224l0.289,1.106c0.169,0.646 0.715,1.196 1.458,1.261c0.231,0.02 0.465,0.03 0.701,0.03c0.236,0 0.47,-0.01 0.701,-0.03c0.743,-0.065 1.289,-0.615 1.458,-1.261l0.289,-1.106c0.018,-0.066 0.079,-0.158 0.212,-0.224c0.232,-0.114 0.455,-0.243 0.668,-0.386c0.123,-0.082 0.233,-0.09 0.299,-0.071l1.103,0.302c0.644,0.177 1.392,-0.02 1.82,-0.629c0.268,-0.383 0.505,-0.79 0.704,-1.218c0.315,-0.675 0.111,-1.422 -0.363,-1.891l-0.815,-0.806c-0.049,-0.048 -0.098,-0.147 -0.088,-0.294c0.008,-0.128 0.012,-0.256 0.012,-0.386c0,-0.13 -0.004,-0.258 -0.012,-0.386c-0.01,-0.147 0.039,-0.246 0.088,-0.294l0.815,-0.806c0.474,-0.469 0.678,-1.216 0.363,-1.891c-0.199,-0.428 -0.436,-0.835 -0.704,-1.218c-0.428,-0.609 -1.176,-0.806 -1.82,-0.629l-1.103,0.302c-0.066,0.019 -0.176,0.011 -0.299,-0.071c-0.213,-0.142 -0.436,-0.272 -0.668,-0.386c-0.133,-0.066 -0.194,-0.158 -0.212,-0.224l-0.289,-1.106c-0.169,-0.646 -0.715,-1.196 -1.458,-1.261c-0.231,-0.02 -0.465,-0.03 -0.701,-0.03Zm3,8c0,1.657 -1.343,3 -3,3c-1.657,0 -3,-1.343 -3,-3c0,-1.657 1.343,-3 3,-3c1.657,0 3,1.343 3,3Z" style="fill:#fff;"/><path d="M29,9c-0.133,0 -0.264,0.006 -0.394,0.017c-0.418,0.036 -0.725,0.346 -0.82,0.709l-0.163,0.622c-0.01,0.037 -0.044,0.089 -0.119,0.126c-0.131,0.064 -0.256,0.138 -0.376,0.217c-0.069,0.047 -0.131,0.051 -0.168,0.04l-0.621,-0.169c-0.362,-0.1 -0.783,0.011 -1.023,0.353c-0.151,0.216 -0.284,0.445 -0.396,0.685c-0.178,0.38 -0.063,0.8 0.204,1.064l0.458,0.454c0.028,0.027 0.055,0.082 0.05,0.165c-0.005,0.072 -0.007,0.144 -0.007,0.217c0,0.073 0.002,0.145 0.007,0.217c0.005,0.083 -0.022,0.139 -0.05,0.166l-0.458,0.453c-0.267,0.264 -0.382,0.684 -0.204,1.064c0.112,0.24 0.245,0.469 0.396,0.685c0.24,0.342 0.661,0.453 1.023,0.354l0.621,-0.17c0.037,-0.011 0.099,-0.007 0.168,0.04c0.12,0.08 0.245,0.153 0.376,0.217c0.075,0.037 0.109,0.089 0.119,0.126l0.163,0.622c0.095,0.363 0.402,0.673 0.82,0.709c0.13,0.011 0.261,0.017 0.394,0.017c0.133,0 0.264,-0.006 0.394,-0.017c0.418,-0.036 0.725,-0.346 0.82,-0.709l0.163,-0.622c0.01,-0.037 0.044,-0.089 0.119,-0.126c0.131,-0.064 0.256,-0.137 0.376,-0.217c0.069,-0.047 0.131,-0.051 0.168,-0.04l0.621,0.17c0.362,0.099 0.783,-0.012 1.023,-0.354c0.151,-0.216 0.284,-0.445 0.396,-0.685c0.178,-0.38 0.063,-0.8 -0.204,-1.064l-0.458,-0.453c-0.028,-0.027 -0.055,-0.083 -0.05,-0.166c0.005,-0.072 0.007,-0.144 0.007,-0.217c0,-0.073 -0.002,-0.145 -0.007,-0.217c-0.005,-0.083 0.022,-0.138 0.05,-0.165l0.458,-0.454c0.267,-0.264 0.382,-0.684 0.204,-1.064c-0.112,-0.24 -0.245,-0.469 -0.396,-0.685c-0.24,-0.342 -0.661,-0.453 -1.023,-0.353l-0.621,0.169c-0.037,0.011 -0.099,0.007 -0.168,-0.04c-0.12,-0.079 -0.245,-0.153 -0.376,-0.217c-0.075,-0.037 -0.109,-0.089 -0.119,-0.126l-0.163,-0.622c-0.095,-0.363 -0.402,-0.673 -0.82,-0.709c-0.13,-0.011 -0.261,-0.017 -0.394,-0.017Zm1.687,4.5c0,0.932 -0.755,1.688 -1.687,1.688c-0.932,0 -1.688,-0.756 -1.688,-1.688c0,-0.932 0.756,-1.687 1.688,-1.687c0.932,0 1.687,0.755 1.687,1.687Z" style="fill:#fff;"/><path d="M19,35.067l0,3.377c0,0.312 0.245,0.556 0.556,0.556l3.377,0c0.145,0 0.289,-0.056 0.389,-0.167l12.132,-12.12l-4.166,-4.166l-12.121,12.12c-0.111,0.111 -0.167,0.245 -0.167,0.4Zm19.676,-11.576c0.433,-0.433 0.433,-1.133 0,-1.567l-2.6,-2.599c-0.433,-0.433 -1.133,-0.433 -1.567,0l-2.033,2.033l4.166,4.166l2.034,-2.033Z" style="fill:#fff;fill-rule:nonzero;"/></g></svg>