<?xml version="1.0" encoding="UTF-8" standalone="no"?><!DOCTYPE svg PUBLIC "-//W3C//DTD SVG 1.1//EN" "http://www.w3.org/Graphics/SVG/1.1/DTD/svg11.dtd"><svg width="100%" height="100%" viewBox="0 0 48 48" version="1.1" xmlns="http://www.w3.org/2000/svg" xmlns:xlink="http://www.w3.org/1999/xlink" xml:space="preserve" xmlns:serif="http://www.serif.com/" style="fill-rule:evenodd;clip-rule:evenodd;stroke-linejoin:round;stroke-miterlimit:2;"><path d="M48,43l0,-29l-2,0l0,29c0,1.656 -1.344,3 -3,3l-38,0c-1.656,0 -3,-1.344 -3,-3l0,-38c0,-1.656 1.344,-3 3,-3l29,0l0,-2l-29,0c-2.76,0 -5,2.24 -5,5l0,38c0,2.76 2.24,5 5,5l38,0c2.76,0 5,-2.24 5,-5Zm0,-33l0,-10l-10,0l0,2l8,0l0,8l2,0Z" style="fill:#fff;"/><g><path d="M35.851,28.284c0.592,0.464 1.121,1.006 1.572,1.614c0.812,1.092 1.348,2.364 1.563,3.707c0.048,0.302 -0.026,0.611 -0.206,0.858c-0.18,0.248 -0.45,0.414 -0.752,0.461c-0.043,0.007 -0.086,0.012 -0.128,0.014l-5.607,-0c0.298,-0.63 0.403,-1.339 0.292,-2.037l0,-0.002c-0.14,-0.877 -0.37,-1.733 -0.683,-2.557c1.535,-0.251 2.907,-0.992 3.949,-2.058Zm-5.162,-10.247c0.716,0.006 1.424,0.156 2.084,0.441c0.818,0.353 1.536,0.905 2.088,1.604c0.478,0.606 0.819,1.306 1.002,2.053c0.083,0.371 0.127,0.756 0.127,1.152c0,2.795 -2.189,5.083 -4.945,5.241c-0.256,-0.449 -0.54,-0.883 -0.85,-1.3c-0.756,-1.017 -1.654,-1.914 -2.664,-2.665c0.318,-0.541 0.58,-1.115 0.779,-1.715c0.469,-1.407 0.58,-2.909 0.324,-4.37l0,-0.001c0.63,-0.277 1.325,-0.433 2.055,-0.44Z" style="fill:#fff;"/><circle cx="19.82" cy="20.063" r="7" style="fill:#fff;"/><path d="M26.32,26.14c0.865,0.639 1.633,1.405 2.279,2.274c1.05,1.414 1.744,3.06 2.023,4.799c0.062,0.391 -0.034,0.79 -0.267,1.111c-0.232,0.32 -0.583,0.534 -0.973,0.596l-0.166,0.017l-18.769,-0c-0.063,-0.002 -0.127,-0.008 -0.19,-0.018c-0.193,-0.031 -0.379,-0.099 -0.546,-0.202c-0.167,-0.102 -0.312,-0.237 -0.427,-0.395c-0.115,-0.159 -0.197,-0.339 -0.243,-0.529c-0.046,-0.191 -0.053,-0.388 -0.022,-0.582c0.279,-1.738 0.973,-3.383 2.023,-4.797c0.646,-0.868 1.414,-1.634 2.279,-2.273c1.624,1.736 3.936,2.822 6.499,2.822c2.564,-0 4.875,-1.086 6.5,-2.823Zm-6.62,-13.076l0.048,-0.001l0.116,-0l0.055,0.001c0.914,0.013 1.819,0.205 2.662,0.57c1.059,0.458 1.988,1.171 2.702,2.077c0.715,0.905 1.193,1.974 1.392,3.111c0.199,1.136 0.113,2.304 -0.251,3.398c-0.365,1.095 -0.995,2.082 -1.836,2.872l0.066,0.032c-1.257,1.201 -2.96,1.939 -4.834,1.939c-1.873,-0 -3.576,-0.738 -4.832,-1.938l0.064,-0.031c-0.693,-0.65 -1.245,-1.436 -1.622,-2.308c-0.377,-0.872 -0.571,-1.812 -0.57,-2.763c0,-1.153 0.287,-2.289 0.834,-3.304c0.548,-1.015 1.339,-1.879 2.303,-2.512c0.964,-0.634 2.071,-1.018 3.22,-1.118c0.161,-0.014 0.322,-0.022 0.483,-0.025Z" style="fill:#fff;"/></g></svg>