<?xml version="1.0" encoding="UTF-8" standalone="no"?>
<!DOCTYPE svg PUBLIC "-//W3C//DTD SVG 1.1//EN" "http://www.w3.org/Graphics/SVG/1.1/DTD/svg11.dtd">
<svg width="100%" height="100%" viewBox="0 0 48 48" version="1.1" xmlns="http://www.w3.org/2000/svg" xmlns:xlink="http://www.w3.org/1999/xlink" xml:space="preserve" xmlns:serif="http://www.serif.com/" style="fill-rule:evenodd;clip-rule:evenodd;stroke-linejoin:round;stroke-miterlimit:2;">
    <g transform="matrix(6.12323e-17,1,-1,6.12323e-17,48,0)">
        <g transform="matrix(3.06162e-16,-1,1,3.06162e-16,-2.93915e-15,48)">
            <path d="M14,2L43,2C44.656,2 46,3.344 46,5L46,43C46,44.656 44.656,46 43,46L5,46C3.344,46 2,44.656 2,43L2,14L0,14L0,43C0,45.76 2.24,48 5,48L43,48C45.76,48 48,45.76 48,43L48,5C48,2.24 45.76,0 43,0L14,-0L14,2ZM10,2L10,-0L0,-0L0,10L2,10L2,2L10,2Z" style="fill:rgb(87,97,178);"/>
        </g>
        <g transform="matrix(9.56721e-17,-1.56245,1.56245,9.56721e-17,11.5,36.4985)">
            <path d="M14.064,0C11.743,0 9.518,0.922 7.877,2.563L7.418,3.021C7.104,3.335 6.802,3.662 6.514,4L3.31,4C3.011,4 2.717,4.077 2.457,4.223C2.196,4.368 1.977,4.578 1.82,4.833L0.11,7.607C0.05,7.705 0.013,7.814 0.002,7.928C-0.009,8.042 0.006,8.157 0.047,8.265C0.087,8.372 0.151,8.468 0.235,8.547C0.318,8.625 0.419,8.683 0.528,8.717L3.63,9.671C3.667,9.722 3.709,9.771 3.754,9.816L6.183,12.244C6.229,12.29 6.277,12.332 6.328,12.369L7.282,15.471C7.316,15.58 7.374,15.681 7.452,15.764C7.531,15.848 7.627,15.912 7.734,15.952C7.842,15.993 7.957,16.008 8.071,15.997C8.185,15.986 8.294,15.949 8.392,15.889L11.166,14.182C11.421,14.025 11.631,13.806 11.777,13.546C11.922,13.285 11.999,12.991 11.999,12.692L11.999,9.485C12.337,9.197 12.664,8.895 12.978,8.581L13.436,8.122C15.077,6.482 15.999,4.256 16,1.936L16,1.75C16,1.286 15.816,0.841 15.487,0.513C15.159,0.184 14.714,0 14.25,0L14.064,0ZM10.5,10.625C10.412,10.685 10.323,10.743 10.234,10.8L7.884,12.321L8.235,13.464L10.414,12.264C10.45,12.242 10.5,10.625 10.5,10.625ZM3.678,8.116L5.2,5.766C5.258,5.676 5.317,5.588 5.376,5.5C5.376,5.5 3.758,5.55 3.736,5.586L2.536,7.765L3.678,8.116ZM12,5C12,5.265 11.895,5.52 11.707,5.707C11.52,5.895 11.265,6 11,6C10.735,6 10.48,5.895 10.293,5.707C10.105,5.52 10,5.265 10,5C10,4.735 10.105,4.48 10.293,4.293C10.48,4.105 10.735,4 11,4C11.265,4 11.52,4.105 11.707,4.293C11.895,4.48 12,4.735 12,5ZM3.56,14.56C3.707,14.423 3.826,14.257 3.908,14.073C3.99,13.889 4.034,13.691 4.037,13.489C4.041,13.288 4.004,13.088 3.928,12.901C3.853,12.714 3.741,12.544 3.598,12.402C3.456,12.259 3.286,12.147 3.099,12.072C2.912,11.996 2.712,11.959 2.511,11.963C2.31,11.966 2.111,12.011 1.927,12.092C1.743,12.174 1.577,12.293 1.44,12.44C0.706,13.17 0.393,14.772 0.29,15.443C0.284,15.479 0.287,15.516 0.298,15.551C0.309,15.586 0.328,15.618 0.354,15.644C0.38,15.67 0.412,15.689 0.447,15.7C0.482,15.711 0.519,15.714 0.555,15.708C1.226,15.605 2.828,15.292 3.56,14.56Z" style="fill:rgb(86,97,178);"/>
        </g>
    </g>
</svg>
