<?xml version="1.0" encoding="UTF-8" standalone="no"?><!DOCTYPE svg PUBLIC "-//W3C//DTD SVG 1.1//EN" "http://www.w3.org/Graphics/SVG/1.1/DTD/svg11.dtd"><svg width="100%" height="100%" viewBox="0 0 1320 214" version="1.1" xmlns="http://www.w3.org/2000/svg" xmlns:xlink="http://www.w3.org/1999/xlink" xml:space="preserve" xmlns:serif="http://www.serif.com/" style="fill-rule:evenodd;clip-rule:evenodd;stroke-linejoin:round;stroke-miterlimit:2;"><g id="g904"><rect id="rect20" x="0" y="0.002" width="101.459" height="101.458" style="fill:#9ea5a7;"/><rect id="rect22" x="112.022" y="0" width="101.457" height="101.457" style="fill:#9ea5a7;"/><rect id="rect24" x="0" y="112.062" width="101.457" height="101.457" style="fill:#9ea5a7;"/><rect id="rect26" x="112.022" y="112.062" width="101.457" height="101.457" style="fill:#9ea5a7;"/></g><g id="g927"><path id="path2" d="M352.969,123.027l-5.995,16.775l-0.341,0c-1.07,-3.93 -2.865,-9.506 -5.675,-16.592l-32.08,-80.472l-31.364,0l0,127.942l20.686,0l0,-78.65c0,-4.855 -0.105,-10.722 -0.309,-17.435c-0.106,-3.398 -0.493,-6.119 -0.586,-8.194l0.454,0c1.052,4.822 2.144,8.493 2.933,10.95l38.467,93.329l14.47,0l38.181,-94.171c0.867,-2.148 1.784,-6.338 2.628,-10.108l0.455,0c-0.5,9.32 -0.924,17.838 -0.981,22.978l0,81.301l22.067,0l0,-127.942l-30.12,0l-32.89,80.289Z" style="fill:#9ea5a7;fill-rule:nonzero;"/><rect id="rect4" x="436.754" y="78.993" width="21.568" height="91.687" style="fill:#9ea5a7;"/><path id="path6" d="M447.76,40.028c-3.554,0 -6.644,1.214 -9.189,3.602c-2.553,2.4 -3.848,5.429 -3.848,8.997c0,3.51 1.28,6.477 3.805,8.817c2.515,2.331 5.622,3.512 9.232,3.512c3.61,0 6.73,-1.181 9.273,-3.509c2.559,-2.343 3.856,-5.31 3.856,-8.82c0,-3.446 -1.265,-6.437 -3.753,-8.897c-2.488,-2.457 -5.642,-3.702 -9.376,-3.702" style="fill:#9ea5a7;fill-rule:nonzero;"/><path id="path8" d="M534.677,78.075c-4.149,-0.858 -8.2,-1.292 -12.053,-1.292c-9.898,0 -18.722,2.119 -26.228,6.306c-7.523,4.19 -13.344,10.174 -17.295,17.786c-3.947,7.594 -5.945,16.458 -5.945,26.346c0,8.665 1.942,16.611 5.771,23.62c3.839,7.023 9.266,12.512 16.139,16.321c6.869,3.799 14.8,5.731 23.58,5.731c10.25,0 19.003,-2.05 26.016,-6.092l0.285,-0.166l0,-19.755l-0.907,0.66c-3.181,2.315 -6.732,4.165 -10.551,5.493c-3.814,1.33 -7.29,2.006 -10.334,2.006c-8.463,0 -15.254,-2.649 -20.188,-7.872c-4.942,-5.228 -7.447,-12.559 -7.447,-21.798c0,-9.298 2.608,-16.829 7.76,-22.382c5.137,-5.54 11.944,-8.35 20.229,-8.35c7.094,0 13.998,2.402 20.531,7.142l0.907,0.657l0,-20.819l-0.29,-0.165c-2.46,-1.376 -5.816,-2.512 -9.98,-3.377" style="fill:#9ea5a7;fill-rule:nonzero;"/><path id="path10" d="M605.74,77.401c-5.417,0 -10.267,1.742 -14.424,5.172c-3.646,3.011 -6.279,7.141 -8.296,12.297l-0.229,0l0,-15.878l-21.566,0l0,91.687l21.566,0l0,-46.903c0,-7.976 1.81,-14.527 5.374,-19.472c3.524,-4.89 8.216,-7.369 13.95,-7.369c1.945,0 4.125,0.321 6.486,0.952c2.336,0.631 4.03,1.315 5.028,2.035l0.908,0.654l0,-21.743l-0.349,-0.147c-2.006,-0.854 -4.85,-1.285 -8.448,-1.285" style="fill:#9ea5a7;fill-rule:nonzero;"/><path id="path12" d="M664.319,76.783c-15.122,0 -27.129,4.429 -35.689,13.17c-8.56,8.733 -12.897,20.828 -12.897,35.945c0,14.355 4.237,25.899 12.588,34.314c8.354,8.411 19.724,12.679 33.786,12.679c14.653,0 26.426,-4.491 34.986,-13.35c8.553,-8.85 12.891,-20.823 12.891,-35.59c0,-14.587 -4.07,-26.217 -12.095,-34.571c-8.032,-8.359 -19.328,-12.597 -33.57,-12.597m17.148,70.597c-4.052,5.083 -10.148,7.657 -18.122,7.657c-7.923,0 -14.174,-2.624 -18.574,-7.801c-4.428,-5.203 -6.674,-12.619 -6.674,-22.047c0,-9.718 2.246,-17.33 6.674,-22.621c4.407,-5.264 10.596,-7.93 18.399,-7.93c7.567,0 13.595,2.548 17.913,7.582c4.339,5.055 6.538,12.607 6.538,22.44c0,9.96 -2.071,17.602 -6.154,22.72" style="fill:#9ea5a7;fill-rule:nonzero;"/><path id="path14" d="M757.816,116.878c-6.799,-2.732 -11.156,-4.997 -12.946,-6.73c-1.731,-1.682 -2.613,-4.055 -2.613,-7.064c0,-2.666 1.088,-4.804 3.319,-6.532c2.241,-1.739 5.367,-2.623 9.287,-2.623c3.641,0 7.364,0.574 11.063,1.7c3.694,1.125 6.946,2.634 9.659,4.479l0.895,0.608l0,-19.938l-0.348,-0.148c-2.5,-1.071 -5.797,-1.99 -9.803,-2.734c-3.996,-0.739 -7.613,-1.113 -10.76,-1.113c-10.286,-0 -18.792,2.63 -25.293,7.818c-6.535,5.218 -9.851,12.06 -9.851,20.341c0,4.304 0.717,8.128 2.125,11.365c1.414,3.257 3.61,6.127 6.527,8.529c2.885,2.38 7.354,4.879 13.269,7.424c4.969,2.042 8.678,3.775 11.038,5.141c2.302,1.335 3.936,2.681 4.855,3.989c0.9,1.281 1.358,3.031 1.358,5.196c0,6.165 -4.615,9.159 -14.105,9.159c-3.524,0 -7.539,-0.734 -11.937,-2.184c-4.404,-1.448 -8.517,-3.532 -12.223,-6.198l-0.907,-0.652l0,21.023l0.33,0.154c3.092,1.424 6.984,2.629 11.578,3.575c4.59,0.949 8.749,1.429 12.359,1.429c11.165,0 20.149,-2.645 26.706,-7.861c6.597,-5.25 9.945,-12.255 9.945,-20.828c-0,-6.181 -1.799,-11.481 -5.351,-15.753c-3.523,-4.239 -9.639,-8.134 -18.176,-11.572" style="fill:#9ea5a7;fill-rule:nonzero;"/><path id="path16" d="M839.334,76.783c-15.121,0 -27.125,4.429 -35.688,13.17c-8.557,8.733 -12.896,20.828 -12.896,35.945c-0,14.355 4.234,25.899 12.59,34.314c8.353,8.411 19.72,12.679 33.786,12.679c14.652,0 26.422,-4.491 34.981,-13.35c8.557,-8.85 12.896,-20.823 12.896,-35.59c-0,-14.587 -4.07,-26.217 -12.099,-34.571c-8.03,-8.359 -19.329,-12.597 -33.57,-12.597m17.151,70.597c-4.051,5.083 -10.151,7.657 -18.122,7.657c-7.923,0 -14.174,-2.624 -18.575,-7.801c-4.428,-5.203 -6.674,-12.619 -6.674,-22.047c0,-9.718 2.247,-17.33 6.677,-22.621c4.401,-5.264 10.591,-7.93 18.397,-7.93c7.565,0 13.595,2.548 17.914,7.582c4.338,5.055 6.538,12.607 6.538,22.44c-0,9.96 -2.076,17.602 -6.155,22.72" style="fill:#9ea5a7;fill-rule:nonzero;"/><path id="path18" d="M1000,96.582l0,-17.59l-21.843,0l0,-27.346l-0.736,0.225l-20.514,6.278l-0.404,0.125l0,20.718l-32.361,0l0,-11.542c0,-5.373 1.203,-9.486 3.574,-12.226c2.354,-2.716 5.716,-4.093 10.001,-4.093c3.085,0 6.28,0.729 9.495,2.164l0.803,0.358l0,-18.527l-0.376,-0.134c-2.996,-1.079 -7.076,-1.626 -12.131,-1.626c-6.372,0 -12.161,1.392 -17.206,4.135c-5.053,2.753 -9.027,6.682 -11.809,11.676c-2.777,4.987 -4.183,10.747 -4.183,17.122l-0,12.693l-15.21,0l0,17.59l15.21,-0l-0,74.099l21.832,0l0,-74.099l32.361,-0l0,47.089c0,19.39 9.147,29.22 27.187,29.22c2.965,0 6.088,-0.347 9.272,-1.03c3.244,-0.698 5.451,-1.396 6.751,-2.141l0.287,-0.164l-0,-17.76l-0.889,0.591c-1.179,0.793 -2.658,1.438 -4.389,1.917c-1.741,0.488 -3.19,0.732 -4.311,0.732c-4.228,-0 -7.356,-1.138 -9.296,-3.384c-1.962,-2.269 -2.958,-6.232 -2.958,-11.784l0,-43.286l21.843,-0Z" style="fill:#9ea5a7;fill-rule:nonzero;"/></g><path id="path876" d="M1052.01,165.943l0,-19.392c8.51,6.583 18.11,9.874 28.8,9.874c8.69,0 15.62,-1.927 20.78,-5.782c5.23,-3.855 7.84,-9.073 7.84,-15.656c0,-14.47 -11.33,-21.705 -33.99,-21.705l-10.12,0l0,-16.546l9.66,0c20.11,0 30.17,-6.819 30.17,-20.459c0,-12.572 -7.84,-18.859 -23.52,-18.859c-8.75,0 -16.98,3.055 -24.7,9.163l0,-18.325c8.88,-4.863 19.36,-7.294 31.45,-7.294c11.6,0 20.9,2.846 27.89,8.539c6.99,5.694 10.48,12.988 10.48,21.883c-0,16.783 -8.75,27.576 -26.25,32.38l-0,0.356c9.42,0.889 16.86,4.121 22.33,9.696c5.47,5.515 8.2,12.424 8.2,20.726c-0,11.446 -4.4,20.697 -13.21,27.754c-8.81,6.998 -20.42,10.497 -34.82,10.497c-12.94,0 -23.27,-2.283 -30.99,-6.85Z" style="fill:#9ea5a7;fill-rule:nonzero;"/><path id="path878" d="M1231.4,129.65c0,6.405 -1.09,12.246 -3.28,17.524c-2.12,5.278 -5.1,9.844 -8.93,13.699c-3.83,3.795 -8.38,6.761 -13.67,8.895c-5.22,2.076 -10.91,3.114 -17.04,3.114c-6.57,-0 -12.61,-1.245 -18.14,-3.736c-5.47,-2.491 -10.21,-6.197 -14.22,-11.12c-3.95,-4.922 -7.02,-11.03 -9.2,-18.324c-2.19,-7.354 -3.29,-15.864 -3.29,-25.53c0,-11.802 1.43,-22.269 4.29,-31.401c2.92,-9.133 6.9,-16.783 11.94,-22.951c5.04,-6.167 10.97,-10.852 17.77,-14.055c6.81,-3.202 14.16,-4.803 22.06,-4.803c4.92,-0 9.39,0.326 13.4,0.978c4.07,0.653 7.32,1.542 9.75,2.669l0,18.591c-3.1,-1.541 -6.41,-2.846 -9.94,-3.914c-3.52,-1.067 -7.56,-1.601 -12.12,-1.601c-5.1,-0 -9.81,1.008 -14.13,3.025c-4.31,2.016 -8.05,4.981 -11.21,8.895c-3.09,3.855 -5.56,8.659 -7.38,14.411c-1.76,5.693 -2.67,12.276 -2.73,19.748l0.54,-0c2.8,-4.211 6.57,-7.532 11.3,-9.963c4.81,-2.431 10.43,-3.647 16.87,-3.647c5.71,-0 10.84,0.919 15.4,2.757c4.62,1.78 8.54,4.389 11.76,7.828c3.28,3.381 5.8,7.532 7.56,12.454c1.76,4.863 2.64,10.349 2.64,16.457Zm-21.32,1.69c0,-3.677 -0.46,-7.027 -1.37,-10.052c-0.85,-3.024 -2.19,-5.604 -4.01,-7.739c-1.76,-2.194 -4.01,-3.884 -6.75,-5.07c-2.67,-1.187 -5.83,-1.78 -9.47,-1.78c-3.65,-0 -6.87,0.653 -9.66,1.957c-2.74,1.246 -5.05,2.906 -6.93,4.982c-1.88,2.076 -3.31,4.448 -4.28,7.116c-0.92,2.669 -1.37,5.397 -1.37,8.184c0,3.025 0.42,6.138 1.27,9.34c0.91,3.144 2.28,6.02 4.11,8.629c1.82,2.609 4.13,4.774 6.92,6.494c2.86,1.66 6.23,2.491 10.12,2.491c3.46,-0 6.53,-0.623 9.2,-1.869c2.68,-1.245 4.9,-2.965 6.66,-5.159c1.82,-2.194 3.19,-4.774 4.1,-7.739c0.97,-3.024 1.46,-6.286 1.46,-9.785Z" style="fill:#9ea5a7;fill-rule:nonzero;"/><path id="path880" d="M1242.73,167.723l0,-19.837c8.57,5.633 17.26,8.45 26.07,8.45c8.87,0 16.01,-2.194 21.42,-6.582c5.4,-4.448 8.11,-10.349 8.11,-17.702c0,-7.235 -2.77,-12.869 -8.3,-16.902c-5.46,-4.032 -13.33,-6.049 -23.6,-6.049c-3.53,-0 -10.67,0.356 -21.42,1.068l4.65,-67.072l64.34,-0l0,17.613l-46.75,-0l-2.19,31.935c4.19,-0.238 7.99,-0.356 11.39,-0.356c13.86,-0 24.55,3.469 32.09,10.407c7.59,6.939 11.39,16.427 11.39,28.466c0,12.632 -4.35,22.773 -13.04,30.423c-8.62,7.59 -20.5,11.386 -35.63,11.386c-12.76,0 -22.27,-1.75 -28.53,-5.248Z" style="fill:#9ea5a7;fill-rule:nonzero;"/></svg>