<?xml version="1.0" encoding="UTF-8" standalone="no"?><!DOCTYPE svg PUBLIC "-//W3C//DTD SVG 1.1//EN" "http://www.w3.org/Graphics/SVG/1.1/DTD/svg11.dtd"><svg width="100%" height="100%" viewBox="0 0 1178 338" version="1.1" xmlns="http://www.w3.org/2000/svg" xmlns:xlink="http://www.w3.org/1999/xlink" xml:space="preserve" xmlns:serif="http://www.serif.com/" style="fill-rule:evenodd;clip-rule:evenodd;stroke-linejoin:round;stroke-miterlimit:2;"><path d="M792.7,300.562l-41.5,-9.9l0,-167.1l41.5,-7.9l0,184.9Zm290.3,-39.4c-30.1,0.1 -54.5,-24.2 -54.7,-54.3l0,-0.3c0,-29.6 24.3,-53.9 54.6,-53.9c30.3,-0 54.6,24.3 54.6,53.9c0.1,30.1 -24.3,54.5 -54.3,54.6l-0.2,-0Zm94.1,-54.6c0,52 -42.1,94.1 -94.1,94.1c-52,-0 -94.1,-42.1 -94.1,-94.1c0,-51.3 42.2,-93.4 94.2,-93.4c52,-0 94,42.1 94,93.4Zm-533.9,84.2l40.8,8.5l0,-112.5c0,-54 -42.1,-73 -71.1,-73c-19.1,0 -34.9,4.6 -48.7,18.4c-14.5,-13.8 -31.6,-19.1 -45.4,-19.1c-20.4,0 -37.5,8.5 -49.4,23l0,-19.1l-41.5,7.9l0,165.8l41.5,8.5l0,-113.7c0,-18.4 13.2,-30.9 33.5,-30.9c19.1,0 32.9,12.5 32.9,30.9l0,105.3l40.8,8.5l0,-113.8c0,-18.4 13.8,-30.9 33.6,-30.9c19.1,0 32.9,12.5 32.9,30.9l0.1,105.3Zm314.7,-177.6l-24.4,3.3c-45.4,10.5 -75,25 -75,75l0,99.3l41.5,7.9l0,-101.3c0,-23 13.2,-33.6 33.6,-37.5l24.4,-3.9l-0.1,-42.8Zm-204.7,-68.5c-9.9,10.1 -9.9,26.1 0,36.2c10.1,10.4 26.8,10.5 37.1,0.4c0.1,-0.1 0.3,-0.3 0.4,-0.4c9.9,-10 9.9,-26.2 0,-36.2c-10.6,-9.9 -27,-9.9 -37.5,-0Z" style="fill:#9ea5a7;"/><path d="M73.2,0l191.5,0c40.4,0 73.2,32.8 73.2,73.2l0,191.5c0,40.4 -32.8,73.2 -73.2,73.2l-191.5,0c-40.4,0 -73.2,-32.8 -73.2,-73.2l0,-191.5c0,-40.4 32.8,-73.2 73.2,-73.2Zm161.6,42.2l-37.1,0l30.9,54.3l-68,-54.3l-37.1,0l34,66.4l-71.1,-66.4l-37.1,0l37.1,84.5l-37.1,169l37.1,0l71.1,-181.1l-34,181.1l37.1,0l68,-193.1l-30.9,193.1l37.1,0l68,-211.3l-68,-42.2Z" style="fill:#9ea5a7;fill-rule:nonzero;"/></svg>