<?xml version="1.0" encoding="UTF-8" standalone="no"?><!DOCTYPE svg PUBLIC "-//W3C//DTD SVG 1.1//EN" "http://www.w3.org/Graphics/SVG/1.1/DTD/svg11.dtd"><svg width="100%" height="100%" viewBox="0 0 270 48" version="1.1" xmlns="http://www.w3.org/2000/svg" xmlns:xlink="http://www.w3.org/1999/xlink" xml:space="preserve" xmlns:serif="http://www.serif.com/" style="fill-rule:evenodd;clip-rule:evenodd;stroke-linejoin:round;stroke-miterlimit:2;"><path d="M41.031,14.916c1.604,-0.926 3.655,-0.376 4.582,1.228l1.471,2.549c0.927,1.605 0.377,3.656 -1.227,4.582l-20.213,11.67c-0.493,0.285 -1.052,0.439 -1.622,0.449l-6.479,0.107c-0.522,0.009 -1.008,-0.267 -1.269,-0.719c-0.261,-0.452 -0.257,-1.01 0.012,-1.458l3.333,-5.558c0.293,-0.489 0.706,-0.895 1.199,-1.18l20.213,-11.67Zm2.092,2.666c-0.133,-0.229 -0.426,-0.308 -0.655,-0.176l-2.964,1.712l1.951,3.379l2.964,-1.712c0.229,-0.132 0.308,-0.425 0.175,-0.654l-1.471,-2.549Zm-4.158,6.352l-1.951,-3.379l-14.758,8.521c-0.071,0.041 -0.13,0.099 -0.172,0.169l-2.001,3.338l3.892,-0.064c0.081,-0.001 0.161,-0.023 0.232,-0.064l14.758,-8.521Z" style="fill:#9ea5a7;"/><path d="M32.8,4.8c0.212,-0 0.416,0.084 0.566,0.234c0.15,0.15 0.234,0.354 0.234,0.566l0,9.271l4.8,-2.771l0,-6.5c0,-3.091 -2.509,-5.6 -5.6,-5.6l-16.275,-0c-1.485,-0 -2.909,0.589 -3.959,1.642l-10.924,10.924c-1.053,1.05 -1.642,2.474 -1.642,3.959l0,25.875c0,1.485 0.59,2.909 1.64,3.96c1.051,1.05 2.475,1.64 3.96,1.64l27.2,0c1.485,0 2.91,-0.59 3.96,-1.64c1.05,-1.051 1.64,-2.475 1.64,-3.96l0,-10.494l-4.8,2.771l0,7.723c0,0.442 -0.358,0.8 -0.8,0.8l-27.2,0c-0.212,0 -0.416,-0.084 -0.566,-0.234c-0.15,-0.15 -0.234,-0.354 -0.234,-0.566l0,-23.2l8.8,-0c1.485,-0 2.91,-0.59 3.96,-1.64c1.05,-1.05 1.64,-2.475 1.64,-3.96l0,-8.8l13.6,-0Zm2.881,13.2l2.719,-1.57l-0,1.57l-2.719,0Zm-1.48,12l-0.601,0.347l-0,-0.347l0.601,0Zm-19.801,-23.408l-0,7.008c-0,0.442 -0.358,0.8 -0.8,0.8l-7.008,-0l7.808,-7.808Z" style="fill:#9ea5a7;"/><path d="M66.382,11.184c2.88,-0 5.11,0.597 6.688,1.792c1.6,1.195 2.4,2.976 2.4,5.344c0,2.475 -0.789,4.341 -2.368,5.6c-1.578,1.237 -3.69,1.856 -6.336,1.856l-2.528,0l0,7.552l-4.704,0l0,-22.144l6.848,0Zm-0,11.136c1.366,0 2.411,-0.309 3.136,-0.928c0.726,-0.619 1.088,-1.643 1.088,-3.072c-0,-2.496 -1.429,-3.744 -4.288,-3.744l-2.08,-0l-0,7.744l2.144,0Zm25.455,2.144c-0,0.213 -0.032,0.8 -0.096,1.76l-10.592,-0c0.149,1.536 0.565,2.624 1.248,3.264c0.683,0.64 1.611,0.96 2.784,0.96c0.725,0 1.408,-0.117 2.048,-0.352c0.64,-0.235 1.333,-0.608 2.08,-1.12l1.888,2.56c-1.899,1.536 -4.043,2.304 -6.432,2.304c-2.667,0 -4.715,-0.8 -6.144,-2.4c-1.43,-1.6 -2.144,-3.765 -2.144,-6.496c-0,-1.728 0.298,-3.275 0.896,-4.64c0.618,-1.387 1.504,-2.475 2.656,-3.264c1.173,-0.789 2.56,-1.184 4.16,-1.184c2.411,-0 4.288,0.757 5.632,2.272c1.344,1.515 2.016,3.627 2.016,6.336Zm-4.512,-1.28c-0,-2.816 -1.013,-4.224 -3.04,-4.224c-0.939,-0 -1.675,0.352 -2.208,1.056c-0.512,0.683 -0.822,1.803 -0.928,3.36l6.176,0l-0,-0.192Zm17.273,-7.328c1.493,-0 2.656,0.459 3.488,1.376c0.832,0.896 1.248,2.144 1.248,3.744l-0,12.352l-4.544,0l-0,-11.584c-0,-0.917 -0.16,-1.557 -0.48,-1.92c-0.299,-0.384 -0.757,-0.576 -1.376,-0.576c-0.64,0 -1.227,0.203 -1.76,0.608c-0.512,0.384 -1.013,0.971 -1.504,1.76l-0,11.712l-4.544,0l-0,-16.96l3.936,0l0.352,2.144c0.704,-0.875 1.472,-1.536 2.304,-1.984c0.853,-0.448 1.813,-0.672 2.88,-0.672Zm16.131,-0c1.131,-0 2.144,0.171 3.04,0.512c0.918,0.32 1.782,0.832 2.592,1.536l-1.984,2.688c-0.554,-0.427 -1.098,-0.736 -1.632,-0.928c-0.512,-0.192 -1.077,-0.288 -1.696,-0.288c-2.41,0 -3.616,1.856 -3.616,5.568c-0,1.877 0.31,3.221 0.928,4.032c0.619,0.811 1.504,1.216 2.656,1.216c0.598,-0 1.142,-0.085 1.632,-0.256c0.491,-0.192 1.067,-0.501 1.728,-0.928l1.984,2.848c-1.621,1.323 -3.477,1.984 -5.568,1.984c-1.664,0 -3.114,-0.363 -4.352,-1.088c-1.216,-0.725 -2.154,-1.749 -2.816,-3.072c-0.661,-1.344 -0.992,-2.912 -0.992,-4.704c-0,-1.792 0.331,-3.371 0.992,-4.736c0.662,-1.387 1.6,-2.464 2.816,-3.232c1.238,-0.768 2.667,-1.152 4.288,-1.152Zm12.754,0.512l0,16.96l-4.544,0l0,-16.96l4.544,0Zm-2.304,-8.736c0.81,0 1.472,0.256 1.984,0.768c0.533,0.491 0.8,1.12 0.8,1.888c0,0.768 -0.267,1.408 -0.8,1.92c-0.512,0.491 -1.174,0.736 -1.984,0.736c-0.811,0 -1.472,-0.245 -1.984,-0.736c-0.512,-0.512 -0.768,-1.152 -0.768,-1.92c0,-0.768 0.256,-1.397 0.768,-1.888c0.512,-0.512 1.173,-0.768 1.984,-0.768Zm11.015,26.208c-1.387,0 -2.464,-0.395 -3.232,-1.184c-0.768,-0.811 -1.152,-1.952 -1.152,-3.424l0,-19.616l4.544,-0.512l0,20c0,0.747 0.309,1.12 0.928,1.12c0.341,-0 0.64,-0.064 0.896,-0.192l0.928,3.232c-0.875,0.384 -1.845,0.576 -2.912,0.576Zm20.737,-23.168c1.344,-0 2.517,0.224 3.52,0.672c1.003,0.427 1.771,1.024 2.304,1.792c0.533,0.768 0.8,1.632 0.8,2.592c0,1.237 -0.373,2.336 -1.12,3.296c-0.747,0.939 -1.813,1.845 -3.2,2.72l4.672,4.352c0.683,-1.451 1.216,-3.051 1.6,-4.8l3.872,1.152c-0.789,2.347 -1.76,4.363 -2.912,6.048l3.808,3.392l-3.776,1.952l-2.656,-2.56c-1.92,1.707 -4.256,2.56 -7.008,2.56c-1.515,-0 -2.859,-0.256 -4.032,-0.768c-1.173,-0.512 -2.091,-1.227 -2.752,-2.144c-0.64,-0.939 -0.96,-2.027 -0.96,-3.264c0,-1.301 0.352,-2.432 1.056,-3.392c0.704,-0.96 1.803,-1.92 3.296,-2.88c-1.131,-1.088 -1.931,-2.016 -2.4,-2.784c-0.448,-0.789 -0.672,-1.685 -0.672,-2.688c0,-0.96 0.245,-1.835 0.736,-2.624c0.491,-0.789 1.227,-1.419 2.208,-1.888c1.003,-0.491 2.208,-0.736 3.616,-0.736Zm0.064,3.008c-0.704,-0 -1.259,0.203 -1.664,0.608c-0.384,0.405 -0.576,0.939 -0.576,1.6c0,0.597 0.149,1.152 0.448,1.664c0.299,0.491 0.811,1.088 1.536,1.792c0.832,-0.533 1.451,-1.067 1.856,-1.6c0.405,-0.555 0.608,-1.173 0.608,-1.856c0,-0.683 -0.203,-1.216 -0.608,-1.6c-0.384,-0.405 -0.917,-0.608 -1.6,-0.608Zm-0.96,10.176c-0.768,0.533 -1.333,1.088 -1.696,1.664c-0.341,0.576 -0.512,1.216 -0.512,1.92c0,0.96 0.341,1.717 1.024,2.272c0.683,0.555 1.589,0.832 2.72,0.832c1.472,-0 2.784,-0.491 3.936,-1.472l-5.472,-5.216Zm32.066,-12.672c2.88,-0 5.11,0.597 6.688,1.792c1.6,1.195 2.4,2.976 2.4,5.344c0,2.475 -0.789,4.341 -2.368,5.6c-1.578,1.237 -3.69,1.856 -6.336,1.856l-2.528,-0l0,7.552l-4.704,-0l0,-22.144l6.848,-0Zm0,11.136c1.366,-0 2.411,-0.309 3.136,-0.928c0.726,-0.619 1.088,-1.643 1.088,-3.072c0,-2.496 -1.429,-3.744 -4.288,-3.744l-2.08,-0l0,7.744l2.144,-0Zm23.36,6.304c0,0.661 0.096,1.152 0.288,1.472c0.192,0.299 0.512,0.523 0.96,0.672l-0.96,3.008c-1.003,-0.085 -1.824,-0.32 -2.464,-0.704c-0.619,-0.384 -1.099,-0.981 -1.44,-1.792c-1.109,1.707 -2.805,2.56 -5.088,2.56c-1.685,-0 -3.029,-0.48 -4.032,-1.44c-0.981,-0.981 -1.472,-2.251 -1.472,-3.808c0,-1.856 0.672,-3.275 2.016,-4.256c1.344,-0.981 3.275,-1.472 5.792,-1.472l1.952,-0l0,-0.832c0,-1.045 -0.235,-1.771 -0.704,-2.176c-0.469,-0.405 -1.248,-0.608 -2.336,-0.608c-1.195,-0 -2.688,0.299 -4.48,0.896l-1.024,-3.04c2.112,-0.832 4.203,-1.248 6.272,-1.248c2.304,-0 4,0.501 5.088,1.504c1.088,0.981 1.632,2.453 1.632,4.416l0,6.848Zm-7.456,1.952c1.28,-0 2.283,-0.629 3.008,-1.888l0,-3.232l-1.504,-0c-2.453,-0 -3.68,0.917 -3.68,2.752c0,0.747 0.181,1.333 0.544,1.76c0.384,0.405 0.928,0.608 1.632,0.608Zm21.148,-14.72c2.133,-0 3.712,0.789 4.736,2.368c1.045,1.557 1.568,3.755 1.568,6.592c0,1.728 -0.267,3.275 -0.8,4.64c-0.533,1.365 -1.312,2.443 -2.336,3.232c-1.003,0.768 -2.197,1.152 -3.584,1.152c-1.728,-0 -3.125,-0.608 -4.192,-1.824l0,7.84l-4.544,0.512l0,-24l4,-0l0.224,1.984c0.64,-0.832 1.387,-1.451 2.24,-1.856c0.875,-0.427 1.771,-0.64 2.688,-0.64Zm-1.76,14.592c2.219,-0 3.328,-1.867 3.328,-5.6c0,-2.048 -0.245,-3.499 -0.736,-4.352c-0.491,-0.853 -1.237,-1.28 -2.24,-1.28c-0.64,-0 -1.237,0.203 -1.792,0.608c-0.533,0.384 -1.003,0.907 -1.408,1.568l0,7.392c0.725,1.109 1.675,1.664 2.848,1.664Zm26.007,-5.984c0,0.213 -0.032,0.8 -0.096,1.76l-10.592,-0c0.149,1.536 0.565,2.624 1.248,3.264c0.682,0.64 1.61,0.96 2.784,0.96c0.725,-0 1.408,-0.117 2.048,-0.352c0.64,-0.235 1.333,-0.608 2.08,-1.12l1.888,2.56c-1.899,1.536 -4.043,2.304 -6.432,2.304c-2.667,-0 -4.715,-0.8 -6.144,-2.4c-1.43,-1.6 -2.144,-3.765 -2.144,-6.496c0,-1.728 0.298,-3.275 0.896,-4.64c0.618,-1.387 1.504,-2.475 2.656,-3.264c1.173,-0.789 2.56,-1.184 4.16,-1.184c2.41,-0 4.288,0.757 5.632,2.272c1.344,1.515 2.016,3.627 2.016,6.336Zm-4.512,-1.28c0,-2.816 -1.014,-4.224 -3.04,-4.224c-0.939,-0 -1.675,0.352 -2.208,1.056c-0.512,0.683 -0.822,1.803 -0.928,3.36l6.176,-0l0,-0.192Zm16.569,-7.296c0.512,-0 1.077,0.085 1.696,0.256l-0.768,4.384c-0.598,-0.149 -1.099,-0.224 -1.504,-0.224c-1.003,-0 -1.782,0.352 -2.336,1.056c-0.555,0.704 -0.992,1.771 -1.312,3.2l0,8.768l-4.544,-0l0,-16.96l3.936,-0l0.416,3.296c0.405,-1.195 0.992,-2.123 1.76,-2.784c0.789,-0.661 1.674,-0.992 2.656,-0.992Z" style="fill:#9ea5a7;fill-rule:nonzero;"/></svg>