<svg width="10" height="10" viewBox="0 0 10 10" fill="none" xmlns="http://www.w3.org/2000/svg">
<path d="M9.81629 7.83331L7.53445 5.7586C7.42659 5.66057 7.28485 5.60828 7.13916 5.61279C6.99347 5.61729 6.85523 5.67823 6.75363 5.78274L5.41034 7.1642C5.08701 7.10245 4.43698 6.89981 3.76787 6.23237C3.09875 5.5627 2.89611 4.91098 2.83604 4.5899L4.21638 3.24605C4.32102 3.14452 4.38205 3.00626 4.38655 2.86053C4.39106 2.7148 4.33868 2.57303 4.24051 2.46523L2.16637 0.183946C2.06816 0.0758082 1.93166 0.0102143 1.78586 0.00109562C1.64007 -0.00802309 1.49646 0.0400518 1.38554 0.13511L0.167437 1.17976C0.0703881 1.27716 0.0124626 1.4068 0.00464899 1.54407C-0.0037711 1.68441 -0.164314 5.00866 2.41335 7.58745C4.66208 9.83561 7.47888 10.0001 8.25465 10.0001C8.36804 10.0001 8.43764 9.99671 8.45617 9.99559C8.59342 9.98791 8.72299 9.92972 8.81992 9.83224L9.86401 8.61358C9.95944 8.50301 10.0079 8.35952 9.99896 8.21373C9.99004 8.06795 9.92449 7.93143 9.81629 7.83331Z" fill="#B6BBBD"/>
</svg>
