<svg width="10" height="10" viewBox="0 0 10 10" fill="none" xmlns="http://www.w3.org/2000/svg">
<path d="M0.77316 5.36049L0 6.13365L2.70606 7.29339L3.86635 10L4.63951 9.22684L4.25293 7.29339L6.06444 5.48188L8.03835 9.69434L8.7705 8.96219L8.11982 3.42704L9.66614 1.88018C9.77059 1.7793 9.8539 1.65863 9.91122 1.52521C9.96853 1.39179 9.9987 1.24829 9.99996 1.10308C10.0012 0.957877 9.97355 0.813875 9.91856 0.679478C9.86358 0.545081 9.78238 0.422981 9.6797 0.320302C9.57702 0.217623 9.45492 0.136421 9.32052 0.0814352C9.18612 0.0264491 9.04212 -0.0012205 8.89692 4.12898e-05C8.75171 0.00130308 8.60821 0.031471 8.47479 0.0887844C8.34137 0.146098 8.2207 0.229409 8.11982 0.333857L6.53249 1.92119L0.997344 1.26996L0.305655 1.9622L4.48531 3.96891L2.70661 5.74762L0.77316 5.36049Z" fill="#B6BBBD"/>
</svg>
