<?xml version="1.0" encoding="UTF-8" standalone="no"?>
<!DOCTYPE svg PUBLIC "-//W3C//DTD SVG 1.1//EN" "http://www.w3.org/Graphics/SVG/1.1/DTD/svg11.dtd">
<svg width="100%" height="100%" viewBox="0 0 450 400" version="1.1" xmlns="http://www.w3.org/2000/svg" xmlns:xlink="http://www.w3.org/1999/xlink" xml:space="preserve" xmlns:serif="http://www.serif.com/" style="fill-rule:evenodd;clip-rule:evenodd;stroke-linejoin:round;stroke-miterlimit:2;">
    <g transform="matrix(1,0,0,1,-1110,0)">
        <g id="Artboard1" transform="matrix(1.13636,0,0,1.0101,1110,0)">
            <rect x="0" y="0" width="396" height="396" style="fill:none;"/>
            <clipPath id="_clip1">
                <rect x="0" y="0" width="396" height="396"/>
            </clipPath>
            <g clip-path="url(#_clip1)">
                <g>
                    <g transform="matrix(0.533361,-0.600031,0.533361,0.600031,-65.9452,61.1746)">
                        <path d="M305.738,214.134C305.738,200.336 294.536,189.134 280.738,189.134L155.738,189.134C141.94,189.134 130.738,200.336 130.738,214.134L130.738,339.134C130.738,352.932 141.94,364.134 155.738,364.134L280.738,364.134C294.536,364.134 305.738,352.932 305.738,339.134L305.738,214.134Z" style="fill:rgb(127,204,200);fill-opacity:0.25;"/>
                    </g>
                    <g transform="matrix(0.533361,-0.600031,0.533361,0.600031,-65.9452,264.747)">
                        <path d="M305.738,214.134C305.738,200.336 294.536,189.134 280.738,189.134L155.738,189.134C141.94,189.134 130.738,200.336 130.738,214.134L130.738,339.134C130.738,352.932 141.94,364.134 155.738,364.134L280.738,364.134C294.536,364.134 305.738,352.932 305.738,339.134L305.738,214.134Z" style="fill:rgb(127,204,200);fill-opacity:0.25;"/>
                    </g>
                </g>
                <g transform="matrix(1,0,0,1,0,-5.57198)">
                    <g transform="matrix(0.533361,-0.600031,0.533361,0.600031,46.5312,168.533)">
                        <path d="M305.738,214.134C305.738,200.336 294.536,189.134 280.738,189.134L155.738,189.134C141.94,189.134 130.738,200.336 130.738,214.134L130.738,339.134C130.738,352.932 141.94,364.134 155.738,364.134L280.738,364.134C294.536,364.134 305.738,352.932 305.738,339.134L305.738,214.134Z" style="fill:rgb(127,204,200);fill-opacity:0.25;"/>
                    </g>
                    <g transform="matrix(0.533361,-0.600031,0.533361,0.600031,-178.422,168.533)">
                        <path d="M305.738,214.134C305.738,200.336 294.536,189.134 280.738,189.134L155.738,189.134C141.94,189.134 130.738,200.336 130.738,214.134L130.738,339.134C130.738,352.932 141.94,364.134 155.738,364.134L280.738,364.134C294.536,364.134 305.738,352.932 305.738,339.134L305.738,214.134Z" style="fill:rgb(127,204,200);fill-opacity:0.25;"/>
                    </g>
                </g>
                <g transform="matrix(0.832945,0,0,0.937063,10.2629,-58.6134)">
                    <g transform="matrix(0.886478,0,0,0.886478,-38.3931,19.5257)">
                        <path d="M116.849,282.897C125.712,282.897 132.897,279.476 132.897,275.256C132.897,271.036 125.712,267.615 116.849,267.615C107.986,267.615 100.801,271.036 100.801,275.256C100.801,279.476 107.986,282.897 116.849,282.897Z" style="fill:rgb(86,43,5);fill-rule:nonzero;"/>
                    </g>
                    <g transform="matrix(0.886478,0,0,0.886478,-38.3931,19.5257)">
                        <path d="M123.547,439.65C123.547,439.65 123.758,397.996 123.616,395.783C123.474,393.57 124.291,389.349 123.62,385.837C122.951,382.324 120.109,347.64 120.109,347.64C120.109,347.64 124.874,350.005 131.332,352.457C137.986,354.983 154.895,358.756 154.895,358.756L131.402,383.037L131.897,389.042C131.897,389.042 174.428,368.11 177.176,359.179C179.924,350.249 156.027,338.007 153.834,337.044C151.642,336.081 133.927,328.009 133.927,328.009L129.502,318.715L107.017,319.183C107.017,319.183 99.939,328.66 98.061,334.909C96.237,340.986 96.702,353.033 102.936,368.425C103.045,368.696 103.157,368.968 103.27,369.241C109.821,385.022 108.384,398.81 110.376,407.321C112.368,415.832 119.467,439.729 119.467,439.729L123.547,439.65Z" style="fill:rgb(49,135,184);"/>
                    </g>
                    <g transform="matrix(0.886478,0,0,0.886478,-38.3931,19.5257)">
                        <path d="M116.369,275.134C124.145,275.452 128.636,268.734 131.032,265.169C133.427,261.603 134.544,259.234 132.031,252.228C129.518,245.221 128.438,241.714 126.203,240.47C123.969,239.227 122.603,240.532 122.603,240.532C122.603,240.532 118.041,236.123 113.786,237.157C109.532,238.19 105.918,242.311 102.685,248.454C99.45,254.597 98.067,259.079 101.326,264.391C104.33,269.291 107.056,274.753 116.369,275.134Z" style="fill:rgb(86,43,5);fill-rule:nonzero;"/>
                    </g>
                    <g transform="matrix(0.886478,0,0,0.886478,-38.3931,19.5257)">
                        <path d="M111.483,269.75C111.483,269.75 112.119,275.721 110.864,277.344C109.611,278.968 105.254,280.324 105.254,280.324C105.254,280.324 110.933,285.888 116.412,285.475C121.89,285.061 126.183,279.968 126.183,279.968C126.183,279.968 122.423,278.75 121.541,277.056C120.658,275.362 120.55,269.062 120.55,269.062L111.483,269.75Z" style="fill:rgb(244,177,154);fill-rule:nonzero;"/>
                    </g>
                    <g transform="matrix(0.886478,0,0,0.886478,-38.3931,19.5257)">
                        <path d="M117.577,243.829C122.177,244.168 127.108,251.571 126.444,256.495C125.78,261.42 125.373,265.255 124.177,267.642C123.16,269.672 118.407,273.828 115.523,273.77C112.638,273.713 108.482,269.136 107.618,267.389C106.622,265.377 105.112,258.246 105.401,256.425C105.692,254.605 106.99,243.047 117.577,243.829Z" style="fill:rgb(244,177,154);fill-rule:nonzero;"/>
                    </g>
                    <g transform="matrix(0.886478,0,0,0.886478,-38.3931,19.5257)">
                        <path d="M120.378,247.16C120.378,247.16 117.837,251.301 112.972,254.161C108.108,257.021 105.411,257.194 105.411,257.194C105.411,257.194 101.999,254.795 104.798,249.834C107.598,244.873 112.418,239.344 117.892,240.96C123.367,242.576 128.843,247.084 128.319,251.144C127.825,254.97 127.102,257.482 126.33,257.698C126.33,257.698 123.665,254.06 122.339,251.464C121.013,248.867 120.378,247.16 120.378,247.16Z" style="fill:rgb(86,43,5);fill-rule:nonzero;"/>
                    </g>
                    <g transform="matrix(0.886478,0,0,0.886478,-38.3931,19.5257)">
                        <path d="M89,301.944L102.801,304.902C102.801,304.902 104.196,280.727 102.488,281.377C100.779,282.027 99.609,282.367 98.029,283.676C96.45,284.985 89,301.944 89,301.944Z" style="fill:rgb(252,216,67);fill-rule:nonzero;"/>
                    </g>
                    <g transform="matrix(0.886478,0,0,0.886478,-38.3931,19.5257)">
                        <path d="M130.191,280.752L131.858,305.021L145.705,302.323C145.705,302.323 136.736,283.667 134.259,282.428C131.781,281.188 130.191,280.752 130.191,280.752Z" style="fill:rgb(252,216,67);fill-rule:nonzero;"/>
                    </g>
                    <g transform="matrix(0.886478,0,0,0.886478,-38.3931,19.5257)">
                        <path d="M107.983,279.296L100.801,282.03C100.801,282.03 102.399,288.091 101.954,293.332C101.509,298.573 100.992,300.704 101.692,303.066C102.392,305.427 106.353,312.591 106.333,314.94C106.312,317.291 100,327.5 100,327.5C100,327.5 111.852,331.852 117.941,332C125.373,332.18 134,327.5 134,327.5C134,327.5 129.044,316.157 129.127,314.766C129.211,313.377 132.546,304.028 132.862,301.993C133.178,299.958 131.242,294.65 131.212,292.835C131.181,291.02 131.761,281.183 131.761,281.183L123.903,279.026C123.903,279.026 120.385,284.261 116.326,284.223C112.265,284.185 107.983,279.296 107.983,279.296Z" style="fill:rgb(252,216,67);"/>
                    </g>
                    <g transform="matrix(0.886478,0,0,0.886478,-38.3931,19.5257)">
                        <path d="M134.814,304.436L136.182,308.135C136.182,308.135 120.206,298.259 119.653,297.094C119.099,295.928 119.044,293.514 118.745,291.481C118.499,289.807 117.139,286.255 116.599,284.885C116.554,284.771 116.385,284.805 116.387,284.927L116.611,298.149C116.612,298.191 116.626,298.231 116.653,298.264C117.63,299.483 136.165,322.478 142.251,319.567C146.364,317.6 144.118,308.803 142.101,303.017L134.814,304.436Z" style="fill:rgb(244,177,154);fill-rule:nonzero;"/>
                    </g>
                    <g transform="matrix(0.886478,0,0,0.886478,-38.3931,19.5257)">
                        <path d="M114.358,291.552C114.175,293.598 114.049,296.01 113.535,297.194C113.021,298.377 97.39,308.79 97.39,308.79L98.953,304.08L91.733,302.532C89.833,308.26 87.2,318.448 91.713,320.422C97.936,323.143 115.879,299.192 116.589,298.239C116.604,298.22 116.611,298.197 116.611,298.173L116.386,284.922C116.384,284.801 116.216,284.773 116.176,284.887C115.698,286.255 114.516,289.773 114.358,291.552Z" style="fill:rgb(244,177,154);fill-rule:nonzero;"/>
                    </g>
                    <g transform="matrix(0.886478,0,0,0.886478,-38.3931,19.5257)">
                        <path d="M116.462,284.932C116.543,286.038 116.594,287.145 116.637,288.251C116.682,289.358 116.71,290.465 116.733,291.572C116.755,292.679 116.766,293.787 116.764,294.894C116.762,296.002 116.747,297.109 116.7,298.218C116.7,298.227 116.692,298.235 116.682,298.235C116.672,298.234 116.666,298.227 116.665,298.218C116.58,297.112 116.528,296.005 116.489,294.899C116.448,293.792 116.422,292.685 116.406,291.578C116.392,290.47 116.382,289.363 116.389,288.256C116.394,287.148 116.409,286.04 116.451,284.932C116.451,284.929 116.454,284.926 116.457,284.927C116.46,284.927 116.462,284.929 116.462,284.932Z" style="fill:rgb(244,177,154);fill-rule:nonzero;"/>
                    </g>
                    <g transform="matrix(0.886478,0,0,0.886478,-38.3931,19.5257)">
                        <path d="M131.364,383.01C131.364,383.01 126.192,380.262 124.352,381.809C122.513,383.355 122.238,385.068 123.035,387.589C123.832,390.111 121.85,393.844 122.378,397.593C122.907,401.342 123.483,402.201 124.563,402.463C125.645,402.724 130.168,390.621 131.24,389.556C132.311,388.489 133.112,388.385 133.112,388.385L131.364,383.01Z" style="fill:rgb(244,177,154);fill-rule:nonzero;"/>
                    </g>
                    <g transform="matrix(0.886478,0,0,0.886478,-38.3931,19.5257)">
                        <path d="M119.376,439.696L118.958,443.552C118.958,443.552 115.752,449.658 116.135,451.781C116.517,453.904 118.457,453.951 121,454C123.543,454.048 125.059,454.067 125.259,452.589C125.458,451.111 123.427,443.839 123.427,443.839L123.456,439.617L119.376,439.696Z" style="fill:rgb(244,177,154);fill-rule:nonzero;"/>
                    </g>
                    <g transform="matrix(-0.886478,-7.74984e-08,-7.74984e-08,0.886478,155.302,194.162)">
                        <ellipse cx="0" cy="0" rx="37.5" ry="25" style="fill:white;"/>
                    </g>
                    <g transform="matrix(-0.886478,-7.74984e-08,-7.74984e-08,0.886478,117.627,211.892)">
                        <circle cx="0" cy="0" r="5" style="fill:white;"/>
                    </g>
                    <g transform="matrix(-0.886478,-7.74984e-08,-7.74984e-08,0.886478,109.87,219.648)">
                        <circle cx="0" cy="0" r="3.75" style="fill:white;"/>
                    </g>
                    <g transform="matrix(-0.886478,-7.74984e-08,-7.74984e-08,0.886478,103.887,225.632)">
                        <circle cx="0" cy="0" r="2.5" style="fill:white;"/>
                    </g>
                    <g transform="matrix(0.886478,0,0,0.886478,-38.3931,19.5257)">
                        <path d="M226.821,183L223.613,209.906L210.208,209.906L207,183L226.821,183Z" style="fill:rgb(218,218,218);fill-rule:nonzero;"/>
                    </g>
                    <g transform="matrix(0.886478,0,0,0.886478,-38.3931,19.5257)">
                        <path d="M219.405,208.628L222.483,208.628L225.188,185.937L220.802,185.937L219.405,208.628Z" style="fill:rgb(142,186,19);fill-rule:nonzero;"/>
                    </g>
                    <g transform="matrix(0.886478,0,0,0.886478,-38.3931,19.5257)">
                        <path d="M214.429,208.628L211.351,208.628L208.646,185.937L213.032,185.937L214.429,208.628Z" style="fill:rgb(142,186,19);fill-rule:nonzero;"/>
                    </g>
                    <g transform="matrix(0.886478,0,0,0.886478,-38.3931,19.5257)">
                        <path d="M219.402,208.628L220.799,185.937L213.028,185.937L214.425,208.628L219.402,208.628Z" style="fill:rgb(178,221,20);fill-rule:nonzero;"/>
                    </g>
                    <g transform="matrix(0.886478,0,0,0.886478,-38.3931,19.5257)">
                        <path d="M212.693,204.571C212.693,205.299 213.283,205.889 214.011,205.889C214.738,205.889 215.328,205.299 215.328,204.571C215.328,203.844 214.738,203.254 214.011,203.254C213.283,203.254 212.693,203.844 212.693,204.571Z" style="fill:rgb(142,186,19);fill-rule:nonzero;"/>
                    </g>
                    <g transform="matrix(0.886478,0,0,0.886478,-38.3931,19.5257)">
                        <path d="M218.331,196.9C218.331,197.707 218.985,198.36 219.791,198.36C220.597,198.36 221.251,197.707 221.251,196.9C221.251,196.094 220.597,195.44 219.791,195.44C218.985,195.44 218.331,196.094 218.331,196.9Z" style="fill:rgb(142,186,19);fill-rule:nonzero;"/>
                    </g>
                    <g transform="matrix(0.886478,0,0,0.886478,-38.3931,19.5257)">
                        <path d="M216.81,202.479C216.81,202.899 217.15,203.239 217.569,203.239C217.989,203.239 218.329,202.899 218.329,202.479C218.329,202.06 217.989,201.719 217.569,201.719C217.15,201.719 216.81,202.06 216.81,202.479Z" style="fill:rgb(142,186,19);fill-rule:nonzero;"/>
                    </g>
                    <g transform="matrix(0.886478,0,0,0.886478,-38.3931,19.5257)">
                        <path d="M214.424,192.88C214.424,193.131 214.627,193.335 214.878,193.335C215.13,193.335 215.333,193.131 215.333,192.88C215.333,192.629 215.13,192.426 214.878,192.426C214.627,192.426 214.424,192.629 214.424,192.88Z" style="fill:rgb(142,186,19);fill-rule:nonzero;"/>
                    </g>
                    <g transform="matrix(0.886478,0,0,0.886478,-38.3931,19.5257)">
                        <path d="M211.075,196.743C211.075,197.028 211.305,197.259 211.59,197.259C211.874,197.259 212.105,197.028 212.105,196.743C212.105,196.459 211.874,196.228 211.59,196.228C211.305,196.228 211.075,196.459 211.075,196.743Z" style="fill:rgb(178,221,20);fill-rule:nonzero;"/>
                    </g>
                    <g transform="matrix(0.886478,0,0,0.886478,-38.3931,19.5257)">
                        <path d="M221.177,206.363C221.177,206.573 221.348,206.744 221.558,206.744C221.769,206.744 221.939,206.573 221.939,206.363C221.939,206.153 221.769,205.982 221.558,205.982C221.348,205.982 221.177,206.153 221.177,206.363Z" style="fill:rgb(178,221,20);fill-rule:nonzero;"/>
                    </g>
                    <g transform="matrix(0.886478,0,0,0.886478,-38.3931,19.5257)">
                        <path d="M212.944,200.54C212.944,200.902 213.238,201.195 213.6,201.195C213.962,201.195 214.256,200.902 214.256,200.54C214.256,200.178 213.962,199.884 213.6,199.884C213.238,199.884 212.944,200.178 212.944,200.54Z" style="fill:rgb(178,221,20);fill-rule:nonzero;"/>
                    </g>
                    <g transform="matrix(0.886478,0,0,0.886478,-38.3931,19.5257)">
                        <path d="M219.517,200.525C219.517,200.879 219.804,201.166 220.158,201.166C220.511,201.166 220.798,200.879 220.798,200.525C220.798,200.171 220.511,199.884 220.158,199.884C219.804,199.884 219.517,200.171 219.517,200.525Z" style="fill:rgb(178,221,20);fill-rule:nonzero;"/>
                    </g>
                    <g transform="matrix(0.886478,0,0,0.886478,-38.3931,19.5257)">
                        <path d="M211.814,207.284C211.814,207.505 211.994,207.685 212.215,207.685C212.437,207.685 212.616,207.505 212.616,207.284C212.616,207.062 212.437,206.882 212.215,206.882C211.994,206.882 211.814,207.062 211.814,207.284Z" style="fill:rgb(178,221,20);fill-rule:nonzero;"/>
                    </g>
                    <g transform="matrix(0.886478,0,0,0.886478,-38.3931,19.5257)">
                        <path d="M216.726,206.707C216.726,206.941 216.916,207.131 217.15,207.131C217.385,207.131 217.575,206.941 217.575,206.707C217.575,206.472 217.385,206.282 217.15,206.282C216.916,206.282 216.726,206.472 216.726,206.707Z" style="fill:rgb(142,186,19);fill-rule:nonzero;"/>
                    </g>
                    <g transform="matrix(0.886478,0,0,0.886478,-38.3931,19.5257)">
                        <path d="M217.005,190.442C217.005,190.808 217.301,191.103 217.666,191.103C218.031,191.103 218.327,190.808 218.327,190.442C218.327,190.077 218.031,189.781 217.666,189.781C217.301,189.781 217.005,190.077 217.005,190.442Z" style="fill:rgb(142,186,19);fill-rule:nonzero;"/>
                    </g>
                    <g transform="matrix(0.886478,0,0,0.886478,-38.3931,19.5257)">
                        <path d="M221.177,192.046C221.177,192.353 221.426,192.601 221.732,192.601C222.039,192.601 222.287,192.353 222.287,192.046C222.287,191.74 222.039,191.491 221.732,191.491C221.426,191.491 221.177,191.74 221.177,192.046Z" style="fill:rgb(178,221,20);fill-rule:nonzero;"/>
                    </g>
                    <g transform="matrix(0.886478,0,0,0.886478,-38.3931,19.5257)">
                        <path d="M225.133,211.573C228.402,211.573 231.673,209.15 230.88,204.228C229.85,197.831 228.065,195.789 225.133,195.789C222.201,195.789 220.416,197.831 219.386,204.228C218.593,209.15 221.863,211.573 225.133,211.573Z" style="fill:rgb(93,110,27);fill-rule:nonzero;"/>
                    </g>
                    <g transform="matrix(0.886478,0,0,0.886478,-38.3931,19.5257)">
                        <path d="M225.135,210.992C226.772,210.992 228.263,210.344 229.225,209.214C230.253,208.008 230.627,206.316 230.306,204.323C229.244,197.726 227.47,196.375 225.135,196.375C222.799,196.375 221.026,197.726 219.963,204.323C219.642,206.316 220.016,208.008 221.043,209.214C222.006,210.344 223.497,210.992 225.135,210.992Z" style="fill:rgb(173,192,60);fill-rule:nonzero;"/>
                    </g>
                    <g transform="matrix(0.886478,0,0,0.886478,-38.3931,19.5257)">
                        <path d="M225.13,210.87C226.733,210.87 228.192,210.237 229.132,209.133C230.137,207.954 230.501,206.295 230.185,204.337C229.136,197.822 227.406,196.486 225.13,196.486C222.854,196.486 221.122,197.822 220.073,204.337C219.758,206.295 220.123,207.954 221.127,209.133C222.067,210.237 223.526,210.87 225.13,210.87Z" style="fill:rgb(232,223,113);fill-rule:nonzero;"/>
                    </g>
                    <g transform="matrix(0.886478,0,0,0.886478,-38.3931,19.5257)">
                        <path d="M222.531,206.235C222.531,207.669 223.693,208.831 225.128,208.831C226.561,208.831 227.724,207.669 227.724,206.235C227.724,204.8 226.561,203.638 225.128,203.638C223.693,203.638 222.531,204.8 222.531,206.235Z" style="fill:rgb(87,43,0);fill-rule:nonzero;"/>
                    </g>
                    <g transform="matrix(-0.886478,-6.78789e-16,6.78789e-16,-0.886478,348.998,581.553)">
                        <ellipse cx="218.5" cy="317" rx="37.5" ry="25" style="fill:white;"/>
                    </g>
                    <g transform="matrix(-0.886478,-6.78789e-16,6.78789e-16,-0.886478,273.645,546.094)">
                        <circle cx="175.999" cy="297" r="5" style="fill:white;"/>
                    </g>
                    <g transform="matrix(-0.886478,-6.78789e-16,6.78789e-16,-0.886478,258.132,530.58)">
                        <circle cx="167.249" cy="288.25" r="3.75" style="fill:white;"/>
                    </g>
                    <g transform="matrix(-0.886478,-6.78789e-16,6.78789e-16,-0.886478,246.165,518.613)">
                        <circle cx="160.499" cy="281.5" r="2.5" style="fill:white;"/>
                    </g>
                    <g transform="matrix(0.886478,0,0,0.886478,-38.3931,19.5257)">
                        <path d="M218.336,330C218.157,329.988 218.015,329.838 218.015,329.656L218.015,328.145L218.659,328.145L218.659,329.656C218.659,329.838 218.516,329.988 218.336,330Z" style="fill:rgb(40,38,36);fill-rule:nonzero;"/>
                    </g>
                    <g transform="matrix(0.886478,0,0,0.886478,-38.3931,19.5257)">
                        <path d="M218.339,328.5L217.743,329.555C217.662,329.699 217.48,329.749 217.336,329.668C217.256,329.623 217.198,329.548 217.173,329.459C217.149,329.371 217.16,329.277 217.206,329.197L217.949,327.883L218.339,328.103L218.729,327.883L219.473,329.197C219.518,329.277 219.529,329.371 219.505,329.459C219.48,329.548 219.422,329.623 219.342,329.668C219.199,329.749 219.017,329.699 218.936,329.555L218.339,328.5Z" style="fill:rgb(40,38,36);fill-rule:nonzero;"/>
                    </g>
                    <g transform="matrix(0.886478,0,0,0.886478,-38.3931,19.5257)">
                        <path d="M221.41,305.623C221.41,305.858 221.277,306.081 221.051,306.188C218.734,307.277 218.974,310.642 219.047,311.304C219.048,311.326 219.051,311.368 219.051,311.391C219.051,311.735 218.773,312.015 218.429,312.015C218.101,312.015 217.834,311.763 217.807,311.443C217.718,310.609 217.443,306.505 220.521,305.059C220.833,304.913 221.204,305.047 221.351,305.358C221.39,305.445 221.41,305.534 221.41,305.623Z" style="fill:rgb(40,38,36);fill-rule:nonzero;"/>
                    </g>
                    <g transform="matrix(0.886478,0,0,0.886478,-38.3931,19.5257)">
                        <path d="M218.337,310.419L218.337,328.559C214.287,330.352 209.748,327.466 207.252,321.972C204.913,316.827 205.876,310.961 209.939,309.308C212.165,308.402 215.004,308.332 217.087,310.01C217.417,310.272 217.879,310.412 218.337,310.419Z" style="fill:rgb(178,221,20);fill-rule:nonzero;"/>
                    </g>
                    <g transform="matrix(0.886478,0,0,0.886478,-38.3931,19.5257)">
                        <path d="M229.745,316.395C229.745,318.11 229.341,319.906 228.577,321.585C226.242,326.724 222.189,329.24 218.721,327.705L218.342,327.537L217.964,327.705C214.497,329.24 210.443,326.724 208.107,321.585C207.344,319.905 206.94,318.11 206.94,316.395C206.94,313.355 208.194,311.029 210.297,310.173C212.066,309.453 214.625,309.223 216.506,310.737C217.548,311.576 219.245,311.563 220.212,310.71C222.271,308.894 224.965,309.594 226.388,310.173C228.49,311.029 229.745,313.355 229.745,316.395Z" style="fill:rgb(249,246,225);fill-rule:nonzero;"/>
                    </g>
                    <g transform="matrix(0.886478,0,0,0.886478,-38.3931,19.5257)">
                        <path d="M218.333,326.878C218.323,326.884 218.317,326.886 218.317,326.886C217.832,325.654 213.91,324.525 213.368,322.019C212.735,319.097 215.537,317.455 218.333,314.182C221.128,317.455 223.931,319.097 223.298,322.019C222.755,324.525 218.834,325.654 218.349,326.886C218.349,326.886 218.344,326.884 218.333,326.878Z" style="fill:rgb(239,222,168);fill-rule:nonzero;"/>
                    </g>
                    <g transform="matrix(0.886478,0,0,0.886478,-38.3931,19.5257)">
                        <path d="M217.507,320.532C216.637,321.128 214.359,322.015 215.38,322.981C215.976,323.545 217.697,322.417 217.507,320.532Z" style="fill:rgb(40,38,36);fill-rule:nonzero;"/>
                    </g>
                    <g transform="matrix(0.886478,0,0,0.886478,-38.3931,19.5257)">
                        <path d="M219.166,320.532C220.036,321.128 222.313,322.015 221.292,322.981C220.696,323.545 218.975,322.417 219.166,320.532Z" style="fill:rgb(40,38,36);fill-rule:nonzero;"/>
                    </g>
                    <g transform="matrix(0.886478,0,0,0.886478,-38.3931,19.5257)">
                        <path d="M229.419,321.969C226.922,327.462 222.383,330.349 218.333,328.556L218.333,310.416C218.8,310.421 219.262,310.288 219.583,310.007C221.703,308.136 224.506,308.398 226.732,309.305C230.793,310.958 231.757,316.824 229.419,321.969Z" style="fill:rgb(178,221,20);fill-rule:nonzero;"/>
                    </g>
                    <g transform="matrix(-0.886478,6.78789e-16,-6.78789e-16,-0.886478,348.998,475.176)">
                        <ellipse cx="218.5" cy="257" rx="37.5" ry="25" style="fill:white;"/>
                    </g>
                    <g transform="matrix(-0.626835,0.626835,-0.626835,-0.626835,379.188,302.334)">
                        <circle cx="169.456" cy="257.071" r="5" style="fill:white;"/>
                    </g>
                    <g transform="matrix(-0.626835,0.626835,-0.626835,-0.626835,360.416,309.983)">
                        <circle cx="157.081" cy="257" r="3.75" style="fill:white;"/>
                    </g>
                    <g transform="matrix(-0.626835,0.626835,-0.626835,-0.626835,345.972,315.966)">
                        <circle cx="147.536" cy="257" r="2.5" style="fill:white;"/>
                    </g>
                    <g transform="matrix(0.886478,0,0,0.886478,-38.3931,19.5257)">
                        <path d="M219.041,269.248C227.893,269.248 235.069,262.647 235.069,254.505L203.013,254.505C203.013,262.647 210.189,269.248 219.041,269.248Z" style="fill:rgb(127,204,200);fill-rule:nonzero;"/>
                    </g>
                    <g transform="matrix(0.886478,0,0,0.886478,-38.3931,19.5257)">
                        <path d="M219.468,254.505L219.468,269.243C228.127,269.04 235.079,262.519 235.079,254.505L219.468,254.505Z" style="fill:rgb(127,204,200);fill-rule:nonzero;"/>
                    </g>
                    <g transform="matrix(0.886478,0,0,0.886478,-38.3931,19.5257)">
                        <path d="M226.674,254.505L226.674,267.473C231.676,264.978 235.073,260.106 235.073,254.505L226.674,254.505Z" style="fill:rgb(127,204,200);fill-rule:nonzero;"/>
                    </g>
                    <g transform="matrix(0.886478,0,0,0.886478,-38.3931,19.5257)">
                        <rect x="211.498" y="267.504" width="15.182" height="1.87" style="fill:rgb(25,165,133);"/>
                    </g>
                    <g transform="matrix(0.886478,0,0,0.886478,-38.3931,19.5257)">
                        <rect x="219.468" y="267.504" width="7.212" height="1.87" style="fill:rgb(25,165,133);"/>
                    </g>
                    <g transform="matrix(0.886478,0,0,0.886478,-38.3931,19.5257)">
                        <path d="M211.487,254.505L203.013,254.505C203.013,260.135 206.444,265.027 211.487,267.51L211.487,254.505Z" style="fill:rgb(127,204,200);fill-rule:nonzero;"/>
                    </g>
                    <g transform="matrix(0.886478,0,0,0.886478,-38.3931,19.5257)">
                        <rect x="202" y="254.505" width="33.994" height="2.125" style="fill:rgb(25,165,133);"/>
                    </g>
                    <g transform="matrix(0.886478,0,0,0.886478,-38.3931,19.5257)">
                        <rect x="219.468" y="254.505" width="16.532" height="2.125" style="fill:rgb(25,165,133);"/>
                    </g>
                    <g transform="matrix(0.886478,0,0,0.886478,-38.3931,19.5257)">
                        <path d="M229.934,251.059C229.413,247.012 226.444,246.709 226.444,246.709C225.206,245.078 223.932,245.124 223.073,245.457C221.305,242.552 219.088,244.888 219.088,244.888C212.938,243.067 211.497,249.036 211.497,249.036C209.46,248.429 208.986,250.856 208.986,250.856C204.662,249.339 203.544,254.498 203.544,254.498L235.078,254.498C233.513,250.148 229.934,251.059 229.934,251.059Z" style="fill:rgb(255,233,141);fill-rule:nonzero;"/>
                    </g>
                    <g transform="matrix(0.886478,0,0,0.886478,-38.3931,19.5257)">
                        <path d="M219.466,244.566C219.228,244.741 219.088,244.889 219.088,244.889C212.938,243.068 211.497,249.036 211.497,249.036C209.46,248.429 208.986,250.857 208.986,250.857C204.662,249.34 203.544,254.498 203.544,254.498L219.466,254.498L219.466,244.566Z" style="fill:rgb(255,233,141);fill-rule:nonzero;"/>
                    </g>
                    <g transform="matrix(0.886478,0,0,0.886478,-38.3931,19.5257)">
                        <path d="M232.346,252.737L230.878,251.992L230.875,253.862L232.346,252.737Z" style="fill:rgb(25,165,133);fill-rule:nonzero;"/>
                    </g>
                    <g transform="matrix(0.886478,0,0,0.886478,-38.3931,19.5257)">
                        <path d="M224.299,253.203L225.683,253.034L224.99,251.858L224.299,253.203Z" style="fill:rgb(25,165,133);fill-rule:nonzero;"/>
                    </g>
                    <g transform="matrix(0.886478,0,0,0.886478,-38.3931,19.5257)">
                        <path d="M226.624,250.332L227.915,250.768L227.729,249.354L226.624,250.332Z" style="fill:rgb(25,165,133);fill-rule:nonzero;"/>
                    </g>
                    <g transform="matrix(0.886478,0,0,0.886478,-38.3931,19.5257)">
                        <path d="M223.887,248.685L222.257,248.134L222.485,250.055L223.887,248.685Z" style="fill:rgb(25,165,133);fill-rule:nonzero;"/>
                    </g>
                    <g transform="matrix(0.886478,0,0,0.886478,-38.3931,19.5257)">
                        <path d="M216.455,250.582L217.908,249.431L216.429,248.713L216.455,250.582Z" style="fill:rgb(25,165,133);fill-rule:nonzero;"/>
                    </g>
                    <g transform="matrix(0.886478,0,0,0.886478,-38.3931,19.5257)">
                        <path d="M211.514,253.429L212.895,253.234L212.184,252.072L211.514,253.429Z" style="fill:rgb(25,165,133);fill-rule:nonzero;"/>
                    </g>
                    <g transform="matrix(0.886478,0,0,0.886478,-38.3931,19.5257)">
                        <path d="M206.599,252.82L207.897,253.233L207.689,251.823L206.599,252.82Z" style="fill:rgb(25,165,133);fill-rule:nonzero;"/>
                    </g>
                    <g transform="matrix(0.886478,0,0,0.886478,-38.3931,19.5257)">
                        <path d="M218.896,252.946L220.276,251.55L218.637,251.03L218.896,252.946Z" style="fill:rgb(25,165,133);fill-rule:nonzero;"/>
                    </g>
                </g>
            </g>
        </g>
    </g>
</svg>
