<?xml version="1.0" encoding="UTF-8" standalone="no"?><!DOCTYPE svg PUBLIC "-//W3C//DTD SVG 1.1//EN" "http://www.w3.org/Graphics/SVG/1.1/DTD/svg11.dtd"><svg width="100%" height="100%" viewBox="0 0 1224 791" version="1.1" xmlns="http://www.w3.org/2000/svg" xmlns:xlink="http://www.w3.org/1999/xlink" xml:space="preserve" xmlns:serif="http://www.serif.com/" style="fill-rule:evenodd;clip-rule:evenodd;stroke-linejoin:round;stroke-miterlimit:2;"><rect id="Artboard1" x="0" y="0" width="1224" height="790.399" style="fill:none;"/><clipPath id="_clip1"><rect x="0" y="0" width="1224" height="790.399"/></clipPath><g clip-path="url(#_clip1)"><rect id="Page-3" serif:id="Page 3" x="0" y="-1" width="1224" height="792" style="fill:none;"/><g><g><g><rect x="0" y="-1" width="1224" height="791.446" style="fill:#010000;"/><g opacity="0.42"><rect x="-59.408" y="-82.922" width="1342.82" height="949.397" style="fill:#0c0802;"/><path d="M15.191,81.669c0,1.678 -1.361,3.039 -3.039,3.039c-1.679,0 -3.039,-1.361 -3.039,-3.039c0,-1.678 1.36,-3.039 3.039,-3.039c1.678,0 3.039,1.361 3.039,3.039" style="fill:#474752;fill-rule:nonzero;"/><path d="M37.66,309.392c-0,1.678 -1.36,3.039 -3.039,3.039c-1.679,0 -3.039,-1.361 -3.039,-3.039c-0,-1.678 1.36,-3.039 3.039,-3.039c1.679,0 3.039,1.361 3.039,3.039" style="fill:#474752;fill-rule:nonzero;"/><path d="M37.66,161.286c-0,1.678 -1.36,3.039 -3.039,3.039c-1.679,0 -3.039,-1.361 -3.039,-3.039c-0,-1.678 1.36,-3.039 3.039,-3.039c1.679,0 3.039,1.361 3.039,3.039" style="fill:#474752;fill-rule:nonzero;"/><path d="M15.758,0.601c-0,3.67 -2.975,6.646 -6.646,6.646c-3.67,0 -6.645,-2.976 -6.645,-6.646c-0,-3.67 2.975,-6.646 6.645,-6.646c3.671,0 6.646,2.976 6.646,6.646" style="fill:#474752;fill-rule:nonzero;"/><path d="M483.313,414.577c0,3.67 -2.976,6.646 -6.646,6.646c-3.67,0 -6.645,-2.976 -6.645,-6.646c0,-3.67 2.975,-6.646 6.645,-6.646c3.67,0 6.646,2.976 6.646,6.646" style="fill:#474752;fill-rule:nonzero;"/><path d="M660.96,326.278c0,3.671 -2.976,6.646 -6.646,6.646c-3.671,0 -6.646,-2.975 -6.646,-6.646c0,-3.67 2.975,-6.646 6.646,-6.646c3.67,0 6.646,2.976 6.646,6.646" style="fill:#474752;fill-rule:nonzero;"/><path d="M436.337,-2.07c0,3.671 -2.976,6.646 -6.646,6.646c-3.671,-0 -6.646,-2.975 -6.646,-6.646c0,-3.671 2.975,-6.646 6.646,-6.646c3.67,-0 6.646,2.975 6.646,6.646" style="fill:#474752;fill-rule:nonzero;"/><path d="M547.822,159.461c0,3.671 -2.975,6.646 -6.646,6.646c-3.67,0 -6.646,-2.975 -6.646,-6.646c0,-3.67 2.976,-6.646 6.646,-6.646c3.671,0 6.646,2.976 6.646,6.646" style="fill:#474752;fill-rule:nonzero;"/><path d="M789.391,427.658c0,3.67 -2.975,6.646 -6.646,6.646c-3.67,0 -6.646,-2.976 -6.646,-6.646c0,-3.67 2.976,-6.646 6.646,-6.646c3.671,0 6.646,2.976 6.646,6.646" style="fill:#474752;fill-rule:nonzero;"/><path d="M802.682,161.335c0,3.67 -2.975,6.646 -6.646,6.646c-3.67,0 -6.646,-2.976 -6.646,-6.646c0,-3.67 2.976,-6.646 6.646,-6.646c3.671,0 6.646,2.976 6.646,6.646" style="fill:#474752;fill-rule:nonzero;"/><path d="M941.294,235.339c0,3.67 -2.976,6.646 -6.646,6.646c-3.67,0 -6.646,-2.976 -6.646,-6.646c0,-3.67 2.976,-6.646 6.646,-6.646c3.67,0 6.646,2.976 6.646,6.646" style="fill:#474752;fill-rule:nonzero;"/><path d="M1072.09,130.154c0,3.67 -2.975,6.646 -6.646,6.646c-3.67,0 -6.646,-2.976 -6.646,-6.646c0,-3.67 2.976,-6.646 6.646,-6.646c3.671,0 6.646,2.976 6.646,6.646" style="fill:#474752;fill-rule:nonzero;"/><path d="M1162.56,460.191c0,3.67 -2.975,6.646 -6.646,6.646c-3.67,-0 -6.646,-2.976 -6.646,-6.646c0,-3.671 2.976,-6.646 6.646,-6.646c3.671,-0 6.646,2.975 6.646,6.646" style="fill:#474752;fill-rule:nonzero;"/><path d="M235.419,434.303c0,3.67 -2.976,6.646 -6.646,6.646c-3.67,0 -6.646,-2.976 -6.646,-6.646c0,-3.67 2.976,-6.646 6.645,-6.646c3.67,0 6.646,2.976 6.646,6.646" style="fill:#474752;fill-rule:nonzero;"/><path d="M785.702,571.306c0,3.671 -2.975,6.646 -6.646,6.646c-3.67,0 -6.646,-2.975 -6.646,-6.646c0,-3.67 2.976,-6.646 6.646,-6.646c3.671,0 6.646,2.976 6.646,6.646" style="fill:#474752;fill-rule:nonzero;"/><path d="M278.853,143.271c0,2.163 -1.753,3.916 -3.917,3.916c-2.163,-0 -3.916,-1.753 -3.916,-3.916c0,-2.163 1.753,-3.916 3.916,-3.916c2.164,-0 3.917,1.753 3.917,3.916" style="fill:#474752;fill-rule:nonzero;"/><path d="M288.228,265.72c0,2.163 -1.753,3.916 -3.916,3.916c-2.163,0 -3.917,-1.753 -3.917,-3.916c0,-2.163 1.754,-3.916 3.917,-3.916c2.163,0 3.916,1.753 3.916,3.916" style="fill:#474752;fill-rule:nonzero;"/><path d="M379.964,480.993c0,2.163 -1.753,3.916 -3.917,3.916c-2.162,0 -3.916,-1.753 -3.916,-3.916c0,-2.163 1.754,-3.916 3.916,-3.916c2.164,0 3.917,1.753 3.917,3.916" style="fill:#474752;fill-rule:nonzero;"/><path d="M226.043,49.996c0,2.163 -1.753,3.916 -3.916,3.916c-2.163,0 -3.916,-1.753 -3.916,-3.916c0,-2.163 1.753,-3.916 3.916,-3.916c2.163,0 3.916,1.753 3.916,3.916" style="fill:#474752;fill-rule:nonzero;"/><path d="M496.685,102.364c0,2.163 -1.753,3.916 -3.916,3.916c-2.163,0 -3.916,-1.753 -3.916,-3.916c0,-2.163 1.753,-3.916 3.916,-3.916c2.163,0 3.916,1.753 3.916,3.916" style="fill:#474752;fill-rule:nonzero;"/><path d="M693.938,525.261c0,2.163 -1.753,3.916 -3.916,3.916c-2.163,0 -3.917,-1.753 -3.917,-3.916c0,-2.163 1.754,-3.916 3.917,-3.916c2.163,0 3.916,1.753 3.916,3.916" style="fill:#474752;fill-rule:nonzero;"/><path d="M564.028,280.145c0,2.164 -1.753,3.916 -3.916,3.916c-2.163,0 -3.917,-1.752 -3.917,-3.916c0,-2.163 1.754,-3.916 3.917,-3.916c2.163,0 3.916,1.753 3.916,3.916" style="fill:#474752;fill-rule:nonzero;"/><path d="M958.763,348.91c0,2.163 -1.753,3.916 -3.916,3.916c-2.163,0 -3.917,-1.753 -3.917,-3.916c0,-2.163 1.754,-3.916 3.917,-3.916c2.163,0 3.916,1.753 3.916,3.916" style="fill:#474752;fill-rule:nonzero;"/><path d="M1018.14,477.077c0,2.163 -1.753,3.916 -3.916,3.916c-2.163,0 -3.917,-1.753 -3.917,-3.916c0,-2.163 1.754,-3.916 3.917,-3.916c2.163,0 3.916,1.753 3.916,3.916" style="fill:#474752;fill-rule:nonzero;"/><path d="M898.105,189.479c0,2.163 -1.753,3.916 -3.916,3.916c-2.163,0 -3.917,-1.753 -3.917,-3.916c0,-2.163 1.754,-3.916 3.917,-3.916c2.163,0 3.916,1.753 3.916,3.916" style="fill:#474752;fill-rule:nonzero;"/><path d="M1207.12,287.933c-0,2.163 -1.753,3.916 -3.916,3.916c-2.163,0 -3.917,-1.753 -3.917,-3.916c-0,-2.163 1.754,-3.916 3.917,-3.916c2.163,0 3.916,1.753 3.916,3.916" style="fill:#474752;fill-rule:nonzero;"/><path d="M326.204,343.57c0,2.163 -1.753,3.916 -3.916,3.916c-2.163,0 -3.917,-1.753 -3.917,-3.916c0,-2.163 1.754,-3.916 3.917,-3.916c2.163,0 3.916,1.753 3.916,3.916" style="fill:#474752;fill-rule:nonzero;"/><path d="M302.984,346.735c0,1.475 -1.196,2.67 -2.67,2.67c-1.475,0 -2.67,-1.195 -2.67,-2.67c0,-1.474 1.195,-2.67 2.67,-2.67c1.474,0 2.67,1.196 2.67,2.67" style="fill:#474752;fill-rule:nonzero;"/><path d="M400.731,272.675c0,1.475 -1.195,2.67 -2.669,2.67c-1.476,0 -2.671,-1.195 -2.671,-2.67c0,-1.475 1.195,-2.67 2.671,-2.67c1.474,0 2.669,1.195 2.669,2.67" style="fill:#474752;fill-rule:nonzero;"/><path d="M190.946,332.924c0,1.475 -1.196,2.67 -2.67,2.67c-1.475,-0 -2.671,-1.195 -2.671,-2.67c0,-1.475 1.196,-2.67 2.671,-2.67c1.474,-0 2.67,1.195 2.67,2.67" style="fill:#474752;fill-rule:nonzero;"/><path d="M273.691,419.835c-0,1.475 -1.195,2.67 -2.67,2.67c-1.475,-0 -2.67,-1.195 -2.67,-2.67c-0,-1.475 1.195,-2.67 2.67,-2.67c1.475,-0 2.67,1.195 2.67,2.67" style="fill:#474752;fill-rule:nonzero;"/><path d="M185.397,25.074c0,1.475 -1.196,2.67 -2.67,2.67c-1.475,0 -2.67,-1.195 -2.67,-2.67c0,-1.475 1.195,-2.67 2.67,-2.67c1.474,0 2.67,1.195 2.67,2.67" style="fill:#474752;fill-rule:nonzero;"/><path d="M520.559,340.129c0,1.475 -1.196,2.67 -2.67,2.67c-1.475,0 -2.671,-1.195 -2.671,-2.67c0,-1.475 1.196,-2.67 2.671,-2.67c1.474,0 2.67,1.195 2.67,2.67" style="fill:#474752;fill-rule:nonzero;"/><path d="M539.996,618.603c0,1.475 -1.196,2.67 -2.67,2.67c-1.475,-0 -2.67,-1.195 -2.67,-2.67c0,-1.475 1.195,-2.67 2.67,-2.67c1.474,-0 2.67,1.195 2.67,2.67" style="fill:#474752;fill-rule:nonzero;"/><path d="M435.004,682.378c-0.891,1.175 -2.565,1.406 -3.741,0.516c-1.176,-0.891 -1.406,-2.566 -0.515,-3.741c0.891,-1.176 2.565,-1.406 3.741,-0.516c1.175,0.891 1.406,2.566 0.515,3.741" style="fill:#474752;fill-rule:nonzero;"/><path d="M146.116,279.011c0,1.475 -1.195,2.67 -2.67,2.67c-1.475,0 -2.67,-1.195 -2.67,-2.67c0,-1.475 1.195,-2.67 2.67,-2.67c1.475,0 2.67,1.195 2.67,2.67" style="fill:#474752;fill-rule:nonzero;"/><path d="M100.966,224.933c-0,1.475 -1.195,2.67 -2.67,2.67c-1.475,0 -2.67,-1.195 -2.67,-2.67c-0,-1.475 1.195,-2.67 2.67,-2.67c1.475,0 2.67,1.195 2.67,2.67" style="fill:#474752;fill-rule:nonzero;"/><path d="M190.946,170.651c0,1.475 -1.196,2.67 -2.67,2.67c-1.475,0 -2.671,-1.195 -2.671,-2.67c0,-1.475 1.196,-2.67 2.671,-2.67c1.474,0 2.67,1.195 2.67,2.67" style="fill:#474752;fill-rule:nonzero;"/><path d="M316.221,175.813c0,1.475 -1.196,2.67 -2.67,2.67c-1.475,-0 -2.671,-1.195 -2.671,-2.67c0,-1.475 1.196,-2.67 2.671,-2.67c1.474,-0 2.67,1.195 2.67,2.67" style="fill:#474752;fill-rule:nonzero;"/><path d="M337.3,147.236c0,1.475 -1.196,2.67 -2.67,2.67c-1.475,0 -2.67,-1.195 -2.67,-2.67c0,-1.475 1.195,-2.67 2.67,-2.67c1.474,0 2.67,1.195 2.67,2.67" style="fill:#474752;fill-rule:nonzero;"/><path d="M140.775,601.687c0,1.474 -1.195,2.67 -2.67,2.67c-1.475,0 -2.67,-1.196 -2.67,-2.67c0,-1.475 1.195,-2.67 2.67,-2.67c1.475,0 2.67,1.195 2.67,2.67" style="fill:#474752;fill-rule:nonzero;"/><path d="M168.698,108.946c0,1.475 -1.195,2.67 -2.67,2.67c-1.475,0 -2.67,-1.195 -2.67,-2.67c0,-1.475 1.195,-2.67 2.67,-2.67c1.475,0 2.67,1.195 2.67,2.67" style="fill:#474752;fill-rule:nonzero;"/><path d="M252.496,130.154c0,1.475 -1.196,2.67 -2.67,2.67c-1.475,0 -2.671,-1.195 -2.671,-2.67c0,-1.475 1.196,-2.67 2.671,-2.67c1.474,0 2.67,1.195 2.67,2.67" style="fill:#474752;fill-rule:nonzero;"/><path d="M134.782,154.19c0,1.475 -1.195,2.67 -2.67,2.67c-1.475,0 -2.67,-1.195 -2.67,-2.67c0,-1.475 1.195,-2.67 2.67,-2.67c1.475,0 2.67,1.195 2.67,2.67" style="fill:#474752;fill-rule:nonzero;"/><path d="M61.204,484.909c0,1.475 -1.196,2.67 -2.67,2.67c-1.475,0 -2.671,-1.195 -2.671,-2.67c0,-1.475 1.196,-2.67 2.671,-2.67c1.474,0 2.67,1.195 2.67,2.67" style="fill:#474752;fill-rule:nonzero;"/><path d="M128.433,427.658c0,1.475 -1.196,2.67 -2.67,2.67c-1.475,0 -2.671,-1.195 -2.671,-2.67c0,-1.474 1.196,-2.67 2.671,-2.67c1.474,0 2.67,1.196 2.67,2.67" style="fill:#474752;fill-rule:nonzero;"/><path d="M369.105,81.669c0,1.474 -1.196,2.67 -2.67,2.67c-1.475,0 -2.67,-1.196 -2.67,-2.67c0,-1.474 1.195,-2.67 2.67,-2.67c1.474,0 2.67,1.196 2.67,2.67" style="fill:#474752;fill-rule:nonzero;"/><path d="M346.617,15.097c0,1.474 -1.196,2.67 -2.671,2.67c-1.474,0 -2.669,-1.196 -2.669,-2.67c0,-1.474 1.195,-2.67 2.669,-2.67c1.475,0 2.671,1.196 2.671,2.67" style="fill:#474752;fill-rule:nonzero;"/><path d="M718.912,72.204c-1.515,1.544 -3.994,1.568 -5.538,0.053c-1.544,-1.515 -1.568,-3.994 -0.053,-5.538c1.514,-1.544 3.994,-1.568 5.538,-0.053c1.544,1.514 1.568,3.994 0.053,5.538" style="fill:#474752;fill-rule:nonzero;"/><path d="M722.798,121.603c-1.033,1.053 -2.723,1.069 -3.776,0.036c-1.053,-1.033 -1.069,-2.723 -0.036,-3.776c1.032,-1.053 2.723,-1.069 3.776,-0.036c1.053,1.033 1.069,2.723 0.036,3.776" style="fill:#474752;fill-rule:nonzero;"/><path d="M547.058,199.162c-1.033,1.053 -2.723,1.069 -3.777,0.037c-1.052,-1.033 -1.069,-2.724 -0.036,-3.776c1.033,-1.053 2.723,-1.069 3.776,-0.037c1.053,1.033 1.069,2.724 0.037,3.776" style="fill:#474752;fill-rule:nonzero;"/><path d="M757.859,115.965c-1.033,1.053 -2.723,1.069 -3.776,0.036c-1.053,-1.033 -1.069,-2.723 -0.036,-3.776c1.032,-1.053 2.723,-1.069 3.776,-0.036c1.053,1.033 1.069,2.723 0.036,3.776" style="fill:#474752;fill-rule:nonzero;"/><path d="M670.188,15.339c-1.033,1.053 -2.723,1.069 -3.776,0.036c-1.053,-1.033 -1.069,-2.723 -0.036,-3.776c1.032,-1.053 2.723,-1.069 3.776,-0.036c1.053,1.033 1.069,2.723 0.036,3.776" style="fill:#474752;fill-rule:nonzero;"/><path d="M709.283,44.383c-1.033,1.053 -2.723,1.069 -3.776,0.036c-1.053,-1.032 -1.069,-2.723 -0.036,-3.776c1.033,-1.052 2.723,-1.069 3.776,-0.036c1.053,1.033 1.069,2.723 0.036,3.776" style="fill:#474752;fill-rule:nonzero;"/><path d="M826.478,91.433c-1.032,1.053 -2.723,1.069 -3.776,0.036c-1.053,-1.033 -1.069,-2.723 -0.036,-3.776c1.033,-1.053 2.723,-1.069 3.776,-0.036c1.053,1.033 1.069,2.723 0.036,3.776" style="fill:#474752;fill-rule:nonzero;"/><path d="M845.412,189.739c-1.033,1.053 -2.723,1.069 -3.776,0.036c-1.053,-1.032 -1.069,-2.723 -0.036,-3.776c1.032,-1.052 2.723,-1.069 3.776,-0.036c1.053,1.033 1.069,2.723 0.036,3.776" style="fill:#474752;fill-rule:nonzero;"/><path d="M725.468,208.931c-1.033,1.053 -2.723,1.069 -3.776,0.036c-1.053,-1.033 -1.069,-2.723 -0.037,-3.776c1.033,-1.052 2.724,-1.069 3.777,-0.036c1.052,1.033 1.069,2.723 0.036,3.776" style="fill:#474752;fill-rule:nonzero;"/><path d="M558.265,379.61c0,1.475 -1.196,2.67 -2.67,2.67c-1.475,0 -2.671,-1.195 -2.671,-2.67c0,-1.475 1.196,-2.67 2.671,-2.67c1.474,0 2.67,1.195 2.67,2.67" style="fill:#474752;fill-rule:nonzero;"/><path d="M623.05,562.762c-0,1.475 -1.196,2.67 -2.67,2.67c-1.475,-0 -2.67,-1.195 -2.67,-2.67c-0,-1.474 1.195,-2.67 2.67,-2.67c1.474,-0 2.67,1.196 2.67,2.67" style="fill:#474752;fill-rule:nonzero;"/><path d="M774.428,610.574c0,1.475 -1.196,2.67 -2.67,2.67c-1.475,-0 -2.67,-1.195 -2.67,-2.67c0,-1.475 1.195,-2.67 2.67,-2.67c1.474,-0 2.67,1.195 2.67,2.67" style="fill:#474752;fill-rule:nonzero;"/><path d="M860.126,488.825c0,1.475 -1.195,2.67 -2.67,2.67c-1.475,0 -2.67,-1.195 -2.67,-2.67c0,-1.475 1.195,-2.67 2.67,-2.67c1.475,0 2.67,1.195 2.67,2.67" style="fill:#474752;fill-rule:nonzero;"/><path d="M10.826,154.689c0,1.475 -1.195,2.67 -2.67,2.67c-1.475,0 -2.67,-1.195 -2.67,-2.67c0,-1.475 1.195,-2.67 2.67,-2.67c1.475,0 2.67,1.195 2.67,2.67" style="fill:#474752;fill-rule:nonzero;"/><path d="M752.654,326.278c0,1.475 -1.196,2.67 -2.67,2.67c-1.475,0 -2.67,-1.195 -2.67,-2.67c0,-1.475 1.195,-2.67 2.67,-2.67c1.474,0 2.67,1.195 2.67,2.67" style="fill:#474752;fill-rule:nonzero;"/><path d="M703.217,427.657c0,1.475 -1.195,2.67 -2.67,2.67c-1.475,0 -2.67,-1.195 -2.67,-2.67c0,-1.474 1.195,-2.67 2.67,-2.67c1.475,0 2.67,1.197 2.67,2.671" style="fill:#474752;fill-rule:nonzero;"/><path d="M894.189,394.449c0,1.475 -1.195,2.67 -2.67,2.67c-1.475,0 -2.67,-1.195 -2.67,-2.67c0,-1.475 1.195,-2.67 2.67,-2.67c1.475,0 2.67,1.195 2.67,2.67" style="fill:#474752;fill-rule:nonzero;"/><path d="M625.72,418.963c0,1.474 -1.195,2.67 -2.67,2.67c-1.475,0 -2.67,-1.196 -2.67,-2.67c0,-1.475 1.195,-2.67 2.67,-2.67c1.475,0 2.67,1.195 2.67,2.67" style="fill:#474752;fill-rule:nonzero;"/><path d="M1014.22,407.72c0,1.475 -1.196,2.67 -2.67,2.67c-1.475,0 -2.671,-1.195 -2.671,-2.67c0,-1.475 1.196,-2.67 2.671,-2.67c1.474,0 2.67,1.195 2.67,2.67" style="fill:#474752;fill-rule:nonzero;"/><path d="M1016.89,265.72c0,1.475 -1.196,2.67 -2.67,2.67c-1.475,0 -2.671,-1.195 -2.671,-2.67c0,-1.475 1.196,-2.67 2.671,-2.67c1.474,0 2.67,1.195 2.67,2.67" style="fill:#474752;fill-rule:nonzero;"/><path d="M1028.06,98.447c0,1.475 -1.195,2.67 -2.67,2.67c-1.475,0 -2.67,-1.195 -2.67,-2.67c0,-1.475 1.195,-2.67 2.67,-2.67c1.475,0 2.67,1.195 2.67,2.67" style="fill:#474752;fill-rule:nonzero;"/><path d="M880.06,241.985c-0,1.475 -1.195,2.67 -2.67,2.67c-1.475,0 -2.67,-1.195 -2.67,-2.67c-0,-1.475 1.195,-2.67 2.67,-2.67c1.475,0 2.67,1.195 2.67,2.67" style="fill:#474752;fill-rule:nonzero;"/><path d="M1133.61,81.669c-0,1.475 -1.196,2.67 -2.67,2.67c-1.475,0 -2.67,-1.195 -2.67,-2.67c-0,-1.475 1.195,-2.67 2.67,-2.67c1.474,0 2.67,1.195 2.67,2.67" style="fill:#474752;fill-rule:nonzero;"/><path d="M1112.69,250.885c0,1.475 -1.196,2.67 -2.67,2.67c-1.475,-0 -2.67,-1.195 -2.67,-2.67c0,-1.475 1.195,-2.67 2.67,-2.67c1.474,-0 2.67,1.195 2.67,2.67" style="fill:#474752;fill-rule:nonzero;"/><path d="M963.902,32.907c0,1.475 -1.195,2.67 -2.67,2.67c-1.475,-0 -2.67,-1.195 -2.67,-2.67c0,-1.475 1.195,-2.67 2.67,-2.67c1.475,-0 2.67,1.195 2.67,2.67" style="fill:#474752;fill-rule:nonzero;"/><path d="M1225.92,25.074c0,1.475 -1.195,2.67 -2.67,2.67c-1.475,0 -2.67,-1.195 -2.67,-2.67c0,-1.475 1.195,-2.67 2.67,-2.67c1.475,0 2.67,1.195 2.67,2.67" style="fill:#474752;fill-rule:nonzero;"/><path d="M1091.81,0.601c0,1.475 -1.196,2.67 -2.67,2.67c-1.475,0 -2.67,-1.195 -2.67,-2.67c0,-1.475 1.196,-2.67 2.67,-2.67c1.474,0 2.67,1.195 2.67,2.67" style="fill:#474752;fill-rule:nonzero;"/><path d="M889.849,3.271c0,1.475 -1.195,2.67 -2.67,2.67c-1.475,0 -2.67,-1.195 -2.67,-2.67c0,-1.475 1.195,-2.67 2.67,-2.67c1.475,0 2.67,1.195 2.67,2.67" style="fill:#474752;fill-rule:nonzero;"/><path d="M1094.48,193.395c0,1.475 -1.196,2.67 -2.67,2.67c-1.475,0 -2.671,-1.195 -2.671,-2.67c0,-1.474 1.196,-2.67 2.671,-2.67c1.474,0 2.67,1.196 2.67,2.67" style="fill:#474752;fill-rule:nonzero;"/><path d="M567.615,84.708c0,1.475 -1.196,2.67 -2.67,2.67c-1.475,0 -2.67,-1.195 -2.67,-2.67c0,-1.475 1.195,-2.67 2.67,-2.67c1.474,0 2.67,1.195 2.67,2.67" style="fill:#474752;fill-rule:nonzero;"/><path d="M603.658,139.355c0,1.475 -1.195,2.67 -2.67,2.67c-1.475,0 -2.67,-1.195 -2.67,-2.67c0,-1.475 1.195,-2.67 2.67,-2.67c1.475,0 2.67,1.195 2.67,2.67" style="fill:#474752;fill-rule:nonzero;"/><path d="M608.999,181.153c0,1.475 -1.196,2.67 -2.67,2.67c-1.475,0 -2.671,-1.195 -2.671,-2.67c0,-1.475 1.196,-2.67 2.671,-2.67c1.474,0 2.67,1.195 2.67,2.67" style="fill:#474752;fill-rule:nonzero;"/><path d="M1220.81,397.119c0,1.475 -1.195,2.67 -2.67,2.67c-1.475,0 -2.67,-1.195 -2.67,-2.67c0,-1.475 1.195,-2.67 2.67,-2.67c1.475,0 2.67,1.195 2.67,2.67" style="fill:#474752;fill-rule:nonzero;"/><path d="M1203.07,584.323c0,1.475 -1.196,2.67 -2.67,2.67c-1.475,0 -2.67,-1.195 -2.67,-2.67c0,-1.475 1.195,-2.67 2.67,-2.67c1.474,0 2.67,1.195 2.67,2.67" style="fill:#474752;fill-rule:nonzero;"/><path d="M1158.59,332.924c0,1.475 -1.196,2.67 -2.67,2.67c-1.475,-0 -2.67,-1.195 -2.67,-2.67c0,-1.475 1.195,-2.67 2.67,-2.67c1.474,-0 2.67,1.195 2.67,2.67" style="fill:#474752;fill-rule:nonzero;"/><path d="M1053.94,370.153c0,1.475 -1.195,2.67 -2.67,2.67c-1.475,0 -2.67,-1.195 -2.67,-2.67c0,-1.475 1.195,-2.67 2.67,-2.67c1.475,0 2.67,1.195 2.67,2.67" style="fill:#474752;fill-rule:nonzero;"/><path d="M386.328,647.866c-0.891,1.176 -2.565,1.406 -3.741,0.516c-1.176,-0.891 -1.406,-2.566 -0.516,-3.741c0.891,-1.176 2.566,-1.406 3.741,-0.516c1.175,0.891 1.407,2.566 0.516,3.741" style="fill:#474752;fill-rule:nonzero;"/><path d="M398.062,366.712c0,1.475 -1.196,2.67 -2.67,2.67c-1.475,0 -2.671,-1.195 -2.671,-2.67c0,-1.474 1.196,-2.67 2.671,-2.67c1.474,0 2.67,1.196 2.67,2.67" style="fill:#474752;fill-rule:nonzero;"/><path d="M495.44,204.391c0,1.474 -1.195,2.67 -2.67,2.67c-1.475,0 -2.671,-1.196 -2.671,-2.67c0,-1.474 1.196,-2.67 2.671,-2.67c1.475,0 2.67,1.196 2.67,2.67" style="fill:#474752;fill-rule:nonzero;"/><path d="M603.658,472.451c0,1.475 -1.195,2.67 -2.67,2.67c-1.475,0 -2.67,-1.195 -2.67,-2.67c0,-1.475 1.195,-2.67 2.67,-2.67c1.475,0 2.67,1.195 2.67,2.67" style="fill:#474752;fill-rule:nonzero;"/><path d="M182.727,614.619c0,1.475 -1.195,2.67 -2.67,2.67c-1.475,0 -2.67,-1.195 -2.67,-2.67c0,-1.475 1.195,-2.67 2.67,-2.67c1.475,0 2.67,1.195 2.67,2.67" style="fill:#474752;fill-rule:nonzero;"/><path d="M305.654,577.763c0,1.475 -1.195,2.67 -2.67,2.67c-1.475,0 -2.67,-1.195 -2.67,-2.67c0,-1.475 1.195,-2.67 2.67,-2.67c1.475,0 2.67,1.195 2.67,2.67" style="fill:#474752;fill-rule:nonzero;"/><path d="M111.344,583.455c-0,1.475 -1.195,2.67 -2.67,2.67c-1.475,0 -2.67,-1.195 -2.67,-2.67c-0,-1.475 1.195,-2.67 2.67,-2.67c1.475,0 2.67,1.195 2.67,2.67" style="fill:#474752;fill-rule:nonzero;"/><path d="M161.484,565.641c0,1.475 -1.196,2.67 -2.67,2.67c-1.475,0 -2.67,-1.195 -2.67,-2.67c0,-1.475 1.195,-2.67 2.67,-2.67c1.474,0 2.67,1.195 2.67,2.67" style="fill:#474752;fill-rule:nonzero;"/><path d="M300.313,525.261c0,1.475 -1.196,2.67 -2.67,2.67c-1.475,0 -2.67,-1.195 -2.67,-2.67c0,-1.475 1.195,-2.67 2.67,-2.67c1.474,0 2.67,1.195 2.67,2.67" style="fill:#474752;fill-rule:nonzero;"/><path d="M323.712,453.7c0,1.475 -1.196,2.67 -2.67,2.67c-1.475,0 -2.67,-1.195 -2.67,-2.67c0,-1.475 1.195,-2.67 2.67,-2.67c1.474,0 2.67,1.195 2.67,2.67" style="fill:#474752;fill-rule:nonzero;"/><path d="M286.982,628.27c0,1.475 -1.195,2.67 -2.67,2.67c-1.475,0 -2.67,-1.195 -2.67,-2.67c0,-1.475 1.195,-2.67 2.67,-2.67c1.475,0 2.67,1.195 2.67,2.67" style="fill:#474752;fill-rule:nonzero;"/><path d="M1084.27,449.784c0,2.163 -1.753,3.916 -3.917,3.916c-2.162,0 -3.916,-1.753 -3.916,-3.916c0,-2.163 1.754,-3.916 3.916,-3.916c2.164,0 3.917,1.753 3.917,3.916" style="fill:#474752;fill-rule:nonzero;"/><path d="M1161.08,11.901c0,2.163 -1.753,3.916 -3.916,3.916c-2.163,0 -3.916,-1.753 -3.916,-3.916c0,-2.163 1.753,-3.916 3.916,-3.916c2.163,0 3.916,1.753 3.916,3.916" style="fill:#474752;fill-rule:nonzero;"/><path d="M1183.21,174.567c0,2.163 -1.753,3.916 -3.916,3.916c-2.163,0 -3.917,-1.753 -3.917,-3.916c0,-2.163 1.754,-3.916 3.917,-3.916c2.163,0 3.916,1.753 3.916,3.916" style="fill:#474752;fill-rule:nonzero;"/><path d="M1219.38,222.047c0,2.163 -1.753,3.916 -3.916,3.916c-2.163,0 -3.917,-1.753 -3.917,-3.916c0,-2.163 1.754,-3.916 3.917,-3.916c2.163,0 3.916,1.753 3.916,3.916" style="fill:#474752;fill-rule:nonzero;"/><path d="M871.56,326.278c-0,2.163 -1.753,3.916 -3.916,3.916c-2.163,0 -3.916,-1.753 -3.916,-3.916c-0,-2.163 1.753,-3.916 3.916,-3.916c2.163,0 3.916,1.753 3.916,3.916" style="fill:#474752;fill-rule:nonzero;"/><path d="M940.679,580.786c-0.755,2.027 -3.01,3.057 -5.037,2.302c-2.027,-0.755 -3.058,-3.01 -2.303,-5.037c0.756,-2.027 3.011,-3.058 5.038,-2.302c2.026,0.755 3.057,3.01 2.302,5.037" style="fill:#474752;fill-rule:nonzero;"/><path d="M891.351,647.497c-0.515,1.382 -2.053,2.085 -3.435,1.57c-1.381,-0.515 -2.084,-2.053 -1.569,-3.435c0.514,-1.381 2.052,-2.084 3.434,-1.569c1.382,0.514 2.085,2.052 1.57,3.433" style="fill:#474752;fill-rule:nonzero;"/><path d="M972.111,655.258c-0.515,1.382 -2.053,2.085 -3.435,1.57c-1.381,-0.515 -2.084,-2.053 -1.569,-3.435c0.514,-1.382 2.052,-2.084 3.434,-1.57c1.382,0.515 2.085,2.053 1.57,3.435" style="fill:#474752;fill-rule:nonzero;"/><path d="M1101.1,578.724c-0.515,1.382 -2.052,2.085 -3.434,1.57c-1.382,-0.515 -2.085,-2.053 -1.57,-3.435c0.515,-1.382 2.052,-2.084 3.434,-1.57c1.382,0.515 2.085,2.053 1.57,3.435" style="fill:#474752;fill-rule:nonzero;"/><path d="M1027.09,595.569c-0.515,1.383 -2.052,2.086 -3.434,1.571c-1.382,-0.515 -2.085,-2.053 -1.57,-3.435c0.515,-1.382 2.052,-2.085 3.434,-1.57c1.382,0.515 2.085,2.053 1.57,3.434" style="fill:#474752;fill-rule:nonzero;"/><path d="M866.866,529.13c-0.755,2.027 -3.01,3.058 -5.037,2.302c-2.027,-0.755 -3.058,-3.01 -2.303,-5.037c0.756,-2.027 3.011,-3.057 5.038,-2.302c2.026,0.755 3.057,3.01 2.302,5.037" style="fill:#474752;fill-rule:nonzero;"/><path d="M745.695,476.668c0,2.163 -1.753,3.916 -3.916,3.916c-2.163,0 -3.917,-1.753 -3.917,-3.916c0,-2.163 1.754,-3.916 3.917,-3.916c2.163,0 3.916,1.753 3.916,3.916" style="fill:#474752;fill-rule:nonzero;"/><path d="M861.372,167.981c-0,2.163 -1.753,3.916 -3.916,3.916c-2.163,0 -3.917,-1.753 -3.917,-3.916c-0,-2.163 1.754,-3.916 3.917,-3.916c2.163,0 3.916,1.753 3.916,3.916" style="fill:#474752;fill-rule:nonzero;"/><path d="M954.847,136.8c0,2.163 -1.753,3.916 -3.916,3.916c-2.163,0 -3.917,-1.753 -3.917,-3.916c0,-2.163 1.754,-3.916 3.917,-3.916c2.163,0 3.916,1.753 3.916,3.916" style="fill:#474752;fill-rule:nonzero;"/><path d="M196.108,749.641c0,2.163 -1.753,3.916 -3.917,3.916c-2.162,0 -3.916,-1.753 -3.916,-3.916c0,-2.163 1.754,-3.916 3.916,-3.916c2.164,0 3.917,1.753 3.917,3.916" style="fill:#474752;fill-rule:nonzero;"/><path d="M13.029,665.784c0,2.163 -1.753,3.916 -3.917,3.916c-2.162,0 -3.916,-1.753 -3.916,-3.916c0,-2.163 1.754,-3.916 3.916,-3.916c2.164,0 3.917,1.753 3.917,3.916" style="fill:#474752;fill-rule:nonzero;"/><path d="M138.698,250.885c0,2.163 -1.753,3.916 -3.916,3.916c-2.163,-0 -3.916,-1.753 -3.916,-3.916c0,-2.163 1.753,-3.916 3.916,-3.916c2.163,-0 3.916,1.753 3.916,3.916" style="fill:#474752;fill-rule:nonzero;"/><path d="M38.537,635.443c0,2.163 -1.753,3.917 -3.916,3.917c-2.163,0 -3.917,-1.754 -3.917,-3.917c0,-2.163 1.754,-3.916 3.917,-3.916c2.163,0 3.916,1.753 3.916,3.916" style="fill:#474752;fill-rule:nonzero;"/><path d="M459.74,603.824c0,3.67 -2.975,6.646 -6.646,6.646c-3.67,-0 -6.646,-2.976 -6.646,-6.646c0,-3.67 2.976,-6.646 6.646,-6.646c3.671,-0 6.646,2.976 6.646,6.646" style="fill:#474752;fill-rule:nonzero;"/><path d="M419.773,222.047c0,1.678 -1.36,3.039 -3.039,3.039c-1.679,0 -3.039,-1.361 -3.039,-3.039c0,-1.678 1.36,-3.039 3.039,-3.039c1.679,0 3.039,1.361 3.039,3.039" style="fill:#474752;fill-rule:nonzero;"/><path d="M495.808,7.985c0,1.679 -1.361,3.04 -3.039,3.04c-1.679,-0 -3.039,-1.361 -3.039,-3.04c0,-1.678 1.36,-3.039 3.039,-3.039c1.678,0 3.039,1.361 3.039,3.039" style="fill:#474752;fill-rule:nonzero;"/><path d="M617.394,772.322c0,3.67 -2.975,6.646 -6.646,6.646c-3.67,0 -6.646,-2.976 -6.646,-6.646c0,-3.67 2.976,-6.646 6.646,-6.646c3.671,0 6.646,2.976 6.646,6.646" style="fill:#474752;fill-rule:nonzero;"/><path d="M833.168,772.322c0,3.67 -2.975,6.646 -6.646,6.646c-3.67,0 -6.646,-2.976 -6.646,-6.646c0,-3.67 2.976,-6.646 6.646,-6.646c3.671,0 6.646,2.976 6.646,6.646" style="fill:#474752;fill-rule:nonzero;"/><path d="M1102.58,741.141c0,3.67 -2.976,6.646 -6.646,6.646c-3.67,0 -6.646,-2.976 -6.646,-6.646c0,-3.67 2.976,-6.646 6.646,-6.646c3.67,0 6.646,2.976 6.646,6.646" style="fill:#474752;fill-rule:nonzero;"/><path d="M309.339,754.258c0,2.163 -1.753,3.916 -3.917,3.916c-2.163,0 -3.916,-1.753 -3.916,-3.916c0,-2.163 1.753,-3.916 3.916,-3.916c2.164,0 3.917,1.753 3.917,3.916" style="fill:#474752;fill-rule:nonzero;"/><path d="M256.528,660.983c0,2.163 -1.753,3.916 -3.916,3.916c-2.163,-0 -3.916,-1.753 -3.916,-3.916c0,-2.163 1.753,-3.916 3.916,-3.916c2.163,-0 3.916,1.753 3.916,3.916" style="fill:#474752;fill-rule:nonzero;"/><path d="M527.171,713.351c0,2.163 -1.753,3.916 -3.917,3.916c-2.162,0 -3.916,-1.753 -3.916,-3.916c0,-2.163 1.754,-3.916 3.916,-3.916c2.164,0 3.917,1.753 3.917,3.916" style="fill:#474752;fill-rule:nonzero;"/><path d="M215.883,636.062c0,1.474 -1.196,2.67 -2.67,2.67c-1.475,0 -2.671,-1.196 -2.671,-2.67c0,-1.475 1.196,-2.67 2.671,-2.67c1.474,0 2.67,1.195 2.67,2.669" style="fill:#474752;fill-rule:nonzero;"/><path d="M221.432,781.638c-0,1.474 -1.196,2.67 -2.67,2.67c-1.475,0 -2.671,-1.196 -2.671,-2.67c-0,-1.475 1.196,-2.67 2.671,-2.67c1.474,0 2.67,1.195 2.67,2.67" style="fill:#474752;fill-rule:nonzero;"/><path d="M346.706,786.8c0,1.475 -1.195,2.67 -2.67,2.67c-1.475,-0 -2.67,-1.195 -2.67,-2.67c0,-1.475 1.195,-2.67 2.67,-2.67c1.475,-0 2.67,1.195 2.67,2.67" style="fill:#474752;fill-rule:nonzero;"/><path d="M406.873,768.218c0,1.475 -1.196,2.67 -2.67,2.67c-1.475,0 -2.671,-1.195 -2.671,-2.67c0,-1.475 1.196,-2.67 2.671,-2.67c1.474,0 2.67,1.195 2.67,2.67" style="fill:#474752;fill-rule:nonzero;"/><path d="M234.735,747.787c0,1.475 -1.196,2.67 -2.67,2.67c-1.475,0 -2.671,-1.195 -2.671,-2.67c0,-1.475 1.196,-2.67 2.671,-2.67c1.474,0 2.67,1.195 2.67,2.67" style="fill:#474752;fill-rule:nonzero;"/><path d="M222.331,722.109c-0,1.475 -1.196,2.67 -2.67,2.67c-1.475,0 -2.67,-1.195 -2.67,-2.67c-0,-1.475 1.195,-2.67 2.67,-2.67c1.474,0 2.67,1.195 2.67,2.67" style="fill:#474752;fill-rule:nonzero;"/><path d="M399.591,692.656c0,1.475 -1.196,2.67 -2.67,2.67c-1.475,-0 -2.671,-1.195 -2.671,-2.67c0,-1.475 1.196,-2.67 2.671,-2.67c1.474,-0 2.67,1.195 2.67,2.67" style="fill:#474752;fill-rule:nonzero;"/><path d="M749.398,683.191c-1.515,1.544 -3.994,1.568 -5.538,0.053c-1.544,-1.515 -1.568,-3.994 -0.053,-5.538c1.514,-1.544 3.994,-1.568 5.538,-0.053c1.544,1.515 1.568,3.994 0.053,5.538" style="fill:#474752;fill-rule:nonzero;"/><path d="M753.284,732.59c-1.033,1.053 -2.723,1.069 -3.776,0.036c-1.053,-1.032 -1.069,-2.723 -0.036,-3.776c1.032,-1.052 2.723,-1.069 3.776,-0.036c1.053,1.033 1.069,2.724 0.036,3.776" style="fill:#474752;fill-rule:nonzero;"/><path d="M606.009,791.341c-1.033,1.053 -2.724,1.068 -3.776,0.035c-1.053,-1.033 -1.069,-2.722 -0.037,-3.775c1.033,-1.053 2.724,-1.07 3.776,-0.037c1.053,1.034 1.069,2.724 0.037,3.777" style="fill:#474752;fill-rule:nonzero;"/><path d="M788.345,726.952c-1.033,1.053 -2.723,1.069 -3.776,0.036c-1.053,-1.033 -1.069,-2.723 -0.036,-3.776c1.032,-1.053 2.723,-1.069 3.776,-0.036c1.052,1.033 1.068,2.723 0.036,3.776" style="fill:#474752;fill-rule:nonzero;"/><path d="M700.673,626.327c-1.032,1.053 -2.723,1.069 -3.776,0.036c-1.053,-1.033 -1.069,-2.723 -0.036,-3.776c1.033,-1.053 2.723,-1.069 3.776,-0.036c1.053,1.033 1.069,2.723 0.036,3.776" style="fill:#474752;fill-rule:nonzero;"/><path d="M739.769,655.37c-1.033,1.052 -2.723,1.069 -3.776,0.036c-1.053,-1.033 -1.069,-2.723 -0.036,-3.776c1.032,-1.053 2.723,-1.069 3.776,-0.036c1.052,1.033 1.069,2.723 0.036,3.776" style="fill:#474752;fill-rule:nonzero;"/><path d="M856.964,702.42c-1.033,1.053 -2.723,1.069 -3.776,0.036c-1.053,-1.033 -1.069,-2.723 -0.036,-3.776c1.032,-1.053 2.723,-1.069 3.776,-0.036c1.053,1.033 1.069,2.723 0.036,3.776" style="fill:#474752;fill-rule:nonzero;"/><path d="M1084.27,693.106c0,1.475 -1.196,2.67 -2.67,2.67c-1.475,0 -2.671,-1.195 -2.671,-2.67c0,-1.475 1.196,-2.67 2.671,-2.67c1.474,0 2.67,1.195 2.67,2.67" style="fill:#474752;fill-rule:nonzero;"/><path d="M1196.9,701.937c0,1.475 -1.195,2.67 -2.67,2.67c-1.475,0 -2.67,-1.195 -2.67,-2.67c0,-1.475 1.195,-2.67 2.67,-2.67c1.475,0 2.67,1.195 2.67,2.67" style="fill:#474752;fill-rule:nonzero;"/><path d="M994.387,643.894c-0,1.474 -1.196,2.67 -2.67,2.67c-1.475,0 -2.671,-1.196 -2.671,-2.67c-0,-1.475 1.196,-2.67 2.671,-2.67c1.474,0 2.67,1.195 2.67,2.67" style="fill:#474752;fill-rule:nonzero;"/><path d="M598.1,695.696c0,1.475 -1.195,2.67 -2.67,2.67c-1.475,0 -2.67,-1.195 -2.67,-2.67c0,-1.475 1.195,-2.67 2.67,-2.67c1.475,0 2.67,1.195 2.67,2.67" style="fill:#474752;fill-rule:nonzero;"/><path d="M634.144,750.342c0,1.475 -1.195,2.67 -2.67,2.67c-1.475,0 -2.67,-1.195 -2.67,-2.67c0,-1.475 1.195,-2.67 2.67,-2.67c1.475,0 2.67,1.195 2.67,2.67" style="fill:#474752;fill-rule:nonzero;"/><path d="M639.485,792.141c0,1.475 -1.196,2.67 -2.67,2.67c-1.475,0 -2.671,-1.195 -2.671,-2.67c0,-1.475 1.196,-2.67 2.671,-2.67c1.474,0 2.67,1.195 2.67,2.67" style="fill:#474752;fill-rule:nonzero;"/><path d="M1198.15,644.127c0,2.163 -1.753,3.916 -3.916,3.916c-2.163,-0 -3.917,-1.753 -3.917,-3.916c0,-2.163 1.754,-3.916 3.917,-3.916c2.163,-0 3.916,1.753 3.916,3.916" style="fill:#474752;fill-rule:nonzero;"/><path d="M1134.85,593.392c-0,2.163 -1.753,3.916 -3.916,3.916c-2.163,0 -3.917,-1.753 -3.917,-3.916c-0,-2.163 1.754,-3.916 3.917,-3.916c2.163,0 3.916,1.753 3.916,3.916" style="fill:#474752;fill-rule:nonzero;"/><path d="M1213.69,785.554c0,2.163 -1.753,3.916 -3.916,3.916c-2.163,0 -3.917,-1.753 -3.917,-3.916c0,-2.163 1.754,-3.916 3.917,-3.916c2.163,0 3.916,1.753 3.916,3.916" style="fill:#474752;fill-rule:nonzero;"/><path d="M891.858,778.968c-0,2.163 -1.753,3.916 -3.916,3.916c-2.163,0 -3.917,-1.753 -3.917,-3.916c-0,-2.163 1.754,-3.916 3.917,-3.916c2.163,0 3.916,1.753 3.916,3.916" style="fill:#474752;fill-rule:nonzero;"/><path d="M985.333,747.787c0,2.163 -1.753,3.916 -3.916,3.916c-2.163,0 -3.917,-1.753 -3.917,-3.916c0,-2.163 1.754,-3.916 3.917,-3.916c2.163,0 3.916,1.753 3.916,3.916" style="fill:#474752;fill-rule:nonzero;"/><path d="M526.294,618.972c0,1.678 -1.361,3.039 -3.04,3.039c-1.678,0 -3.038,-1.361 -3.038,-3.039c0,-1.678 1.36,-3.039 3.038,-3.039c1.679,0 3.04,1.361 3.04,3.039" style="fill:#474752;fill-rule:nonzero;"/><path d="M620.379,269.636c0,1.679 -1.361,3.04 -3.039,3.04c-1.679,0 -3.039,-1.361 -3.039,-3.04c0,-1.679 1.36,-3.039 3.039,-3.039c1.678,0 3.039,1.36 3.039,3.039" style="fill:#474752;fill-rule:nonzero;"/><path d="M644.976,-82.925l-2.083,0c-10.423,17.8 -19.703,36.314 -27.818,55.483c-24.976,59.041 -37.636,121.77 -37.636,186.427c0,25.915 2.035,51.533 6.092,76.734c0.108,0.726 0.226,1.451 0.358,2.19c6.104,36.861 16.527,72.807 31.186,107.491c24.13,57.03 58.659,108.242 102.636,152.231c43.99,43.977 95.201,78.506 152.231,102.636c59.041,24.964 121.758,37.636 186.415,37.636c64.656,0 127.374,-12.672 186.415,-37.636c13.897,-5.878 27.45,-12.374 40.633,-19.489l0,-1.999c-67.56,36.683 -144.912,57.541 -227.048,57.541c-236.782,0 -433.846,-173.291 -471.029,-399.72c-0.119,-0.726 -0.238,-1.464 -0.356,-2.189c-3.915,-24.583 -5.95,-49.773 -5.95,-75.426c0,-88.228 24.059,-170.935 65.954,-241.91" style="fill:#7a94c9;fill-rule:nonzero;"/><path d="M658.521,331.424l-5.88,-11.579c-2.861,0.742 -4.972,3.342 -4.972,6.434c0,3.67 2.974,6.646 6.645,6.646c1.597,-0 3.061,-0.563 4.207,-1.501" style="fill:#57545c;fill-rule:nonzero;"/><path d="M436.337,-2.07c0,-3.671 -2.976,-6.646 -6.646,-6.646c-3.671,-0 -6.646,2.975 -6.646,6.646c0,3.671 2.975,6.646 6.646,6.646c3.67,-0 6.646,-2.975 6.646,-6.646" style="fill:#57545c;fill-rule:nonzero;"/><path d="M547.822,159.461c0,-3.67 -2.975,-6.646 -6.646,-6.646c-3.67,0 -6.646,2.976 -6.646,6.646c0,3.671 2.976,6.646 6.646,6.646c3.671,0 6.646,-2.975 6.646,-6.646" style="fill:#57545c;fill-rule:nonzero;"/><path d="M496.685,102.364c0,-2.163 -1.753,-3.916 -3.916,-3.916c-2.163,0 -3.916,1.753 -3.916,3.916c0,2.163 1.753,3.916 3.916,3.916c2.163,0 3.916,-1.753 3.916,-3.916" style="fill:#57545c;fill-rule:nonzero;"/><path d="M564.028,280.145c0,-2.163 -1.753,-3.916 -3.916,-3.916c-2.163,0 -3.917,1.753 -3.917,3.916c0,2.164 1.754,3.916 3.917,3.916c2.163,0 3.916,-1.752 3.916,-3.916" style="fill:#57545c;fill-rule:nonzero;"/><path d="M369.105,81.669c0,-1.474 -1.196,-2.67 -2.67,-2.67c-1.475,0 -2.67,1.196 -2.67,2.67c0,1.474 1.195,2.67 2.67,2.67c1.474,0 2.67,-1.196 2.67,-2.67" style="fill:#57545c;fill-rule:nonzero;"/><path d="M346.617,15.097c0,-1.474 -1.196,-2.67 -2.671,-2.67c-1.474,0 -2.669,1.196 -2.669,2.67c0,1.474 1.195,2.67 2.669,2.67c1.475,0 2.671,-1.196 2.671,-2.67" style="fill:#57545c;fill-rule:nonzero;"/><path d="M547.822,197.293c0,-0.692 -0.268,-1.383 -0.8,-1.906c-1.053,-1.033 -2.744,-1.017 -3.777,0.036c-0.51,0.52 -0.764,1.195 -0.764,1.87c0,0.692 0.268,1.383 0.799,1.906c1.055,1.032 2.745,1.017 3.778,-0.036c0.51,-0.52 0.764,-1.195 0.764,-1.87" style="fill:#57545c;fill-rule:nonzero;"/><path d="M495.44,204.391c0,-1.474 -1.195,-2.67 -2.67,-2.67c-1.475,0 -2.671,1.196 -2.671,2.67c0,1.474 1.196,2.67 2.671,2.67c1.475,0 2.67,-1.196 2.67,-2.67" style="fill:#57545c;fill-rule:nonzero;"/><path d="M495.186,9.828l-2.479,-4.881c-1.649,0.033 -2.977,1.381 -2.977,3.038c-0,1.678 1.361,3.039 3.039,3.039c0.986,0 1.862,-0.469 2.417,-1.196" style="fill:#57545c;fill-rule:nonzero;"/><path d="M620.379,269.636c0,-1.679 -1.361,-3.039 -3.039,-3.039c-1.679,0 -3.039,1.36 -3.039,3.039c0,1.679 1.36,3.04 3.039,3.04c1.678,0 3.039,-1.361 3.039,-3.04" style="fill:#57545c;fill-rule:nonzero;"/><path d="M629.767,373.052c-21.306,-42.289 -36.509,-88.165 -44.439,-136.452c-0.119,-0.726 -0.238,-1.464 -0.357,-2.189c-0.187,-1.172 -0.369,-2.347 -0.547,-3.522c-2.755,-18.175 -4.483,-36.675 -5.122,-55.445l-1.688,-3.323c0.531,19.921 2.274,39.652 5.221,59.14c0.225,1.487 0.457,2.974 0.696,4.458c0.107,0.726 0.226,1.452 0.358,2.19c6.103,36.861 16.527,72.807 31.185,107.491c4.105,9.701 8.509,19.23 13.211,28.588l1.482,-0.936Z" style="fill:#859ccc;fill-rule:nonzero;"/><path d="M1186.48,100.361c-1.888,2.036 -3.777,4.051 -5.665,6.055l-1.297,1.377c-169.525,179.209 -342.358,238.493 -388.287,131.95c-14.036,-32.554 -14.621,-76.875 -3.888,-127.979c0.137,-0.654 0.28,-1.308 0.422,-1.967c12.474,-58.045 39.426,-124.698 77.756,-192.722l-31.984,0c-44.527,73.757 -77.376,147.04 -95.298,212.28c-0.201,0.727 -0.401,1.455 -0.597,2.183c-18.386,67.961 -20.454,127.05 -2.521,168.644c51.109,118.564 245.366,50.06 433.88,-153.005c10.037,-10.808 19.852,-21.778 29.431,-32.886c0.406,-0.464 0.807,-0.934 1.202,-1.398c30.413,-35.333 58.473,-72.001 83.774,-109.038l0,-23.514c-28.835,41.183 -61.378,81.728 -96.928,120.02" style="fill:#474752;fill-rule:nonzero;"/><path d="M1199.63,118.239c-6.245,-2.268 -12.516,-4.425 -18.819,-6.477c-61.542,-20.09 -125.737,-30.244 -191.483,-30.244c-69.343,0 -136.966,11.298 -201.567,33.625c-13.07,4.52 -26.014,9.488 -38.825,14.905c-3.581,1.514 -7.147,3.065 -10.702,4.652c-32.775,14.605 -64.416,32.169 -94.206,52.291c-23.63,15.966 -46.241,33.64 -67.508,52.76c-0.485,0.433 -0.965,0.87 -1.444,1.308c-7.665,6.925 -15.149,14.046 -22.449,21.346c-27.949,27.944 -53.319,58.699 -75.414,91.4c-22.305,33.018 -41.462,68.314 -56.942,104.908c-32.2,76.137 -48.53,157.02 -48.53,240.393c0,59.089 8.202,116.929 24.447,172.711l1.777,0c-16.039,-54.817 -24.642,-112.778 -24.642,-172.711c0,-180.486 78.025,-343.091 202.111,-455.858c0.48,-0.438 0.96,-0.87 1.445,-1.303c47.486,-42.891 101.665,-78.504 160.759,-105.061c16.208,-7.284 32.791,-13.888 49.701,-19.774c63.304,-22.031 131.275,-34.009 201.989,-34.009c66.342,0 130.263,10.543 190.185,30.038c6.351,2.062 12.659,4.23 18.914,6.498c29.426,10.649 57.818,23.481 84.977,38.297l0,-2.03c-17.485,-9.494 -35.423,-18.129 -53.683,-25.856c-9.953,-4.209 -19.985,-8.143 -30.091,-11.809" style="fill:#474752;fill-rule:nonzero;"/><path d="M1283.4,249.176c-21.334,16.634 -41.514,34.672 -60.492,54.055c-9.686,9.888 -19.038,20.109 -28.081,30.675c-2.534,2.962 -5.033,5.937 -7.496,8.947c-22.81,27.7 -43.275,57.554 -60.944,88.859c-14.005,24.844 -26.344,50.747 -36.838,77.352c-0.239,0.607 -0.465,1.214 -0.703,1.821c-3.759,9.614 -7.282,19.335 -10.554,29.128c-12.529,37.48 -21.488,76.329 -26.652,115.452c-5.212,39.503 -6.58,79.648 -4.093,119.295c1.963,31.007 6.222,61.622 12.743,91.714l1.737,0c-26.01,-119.819 -14.933,-242.85 28.117,-353.792c0.237,-0.607 0.475,-1.202 0.713,-1.809c23.334,-59.588 55.9,-115.642 96.914,-165.806c11.244,-13.755 23.131,-27.07 35.637,-39.884c18.645,-19.11 38.658,-37.136 59.992,-53.889l0,-2.118Z" style="fill:#ebbf8f;fill-rule:nonzero;"/><path d="M220.827,500.464c-1.861,-0.08 -2.921,-1.14 -3.001,-3.001l-1.579,-47.68l-1.579,47.68c-0.081,1.861 -1.141,2.921 -3.002,3.001l-47.679,1.579l47.679,1.58c1.861,0.079 2.921,1.14 3.002,3l1.579,47.68l1.579,-47.68c0.08,-1.86 1.14,-2.921 3.001,-3l47.68,-1.58l-47.68,-1.579Z" style="fill:#7a94c9;fill-rule:nonzero;"/><path d="M954.22,428.174c-1.336,-0.057 -2.097,-0.819 -2.155,-2.155l-1.134,-34.24l-1.134,34.24c-0.057,1.336 -0.819,2.098 -2.155,2.155l-34.24,1.134l34.24,1.134c1.336,0.058 2.098,0.819 2.155,2.155l1.134,34.241l1.134,-34.241c0.058,-1.336 0.819,-2.097 2.155,-2.155l34.24,-1.134l-34.24,-1.134Z" style="fill:#ebbf8f;fill-rule:nonzero;"/><path d="M1283.4,294.45c-11.351,20.597 -22.25,42.549 -32.638,65.763c-25.034,55.948 -45.964,116.82 -62.217,180.906c-9.389,37.052 -16.896,73.902 -22.441,110.205c-3.594,23.404 -6.366,46.583 -8.317,69.44c-0.262,3.022 -0.5,6.044 -0.726,9.055c-3.736,49.069 -3.522,94.915 0.619,136.655l1.582,0c-4.438,-44.549 -4.391,-93.511 0,-145.008c1.928,-22.655 4.688,-45.798 8.282,-69.274c5.556,-36.29 13.088,-73.378 22.547,-110.68c22.893,-90.286 55.114,-174.112 93.309,-243.849l0,-3.213Z" style="fill:#e8422b;fill-rule:nonzero;"/><path d="M334.054,-82.925l-1.713,0c-26.998,63.039 -66.513,129.599 -115.619,195.065c-12.398,16.539 -25.415,33.007 -38.991,49.332c-12.184,14.659 -24.821,29.199 -37.885,43.56c-63.432,69.798 -131.765,130.088 -199.254,176.409l-0,1.856c15.825,-10.84 31.769,-22.512 47.797,-34.97c52.781,-41.014 104.136,-88.871 152.622,-142.224c12.684,-13.945 24.964,-28.045 36.815,-42.275c13.564,-16.254 26.569,-32.674 39.003,-49.225c18.36,-24.428 35.482,-49.129 51.247,-73.973c26.88,-42.371 48.987,-83.79 65.978,-123.555" style="fill:#de8238;fill-rule:nonzero;"/><path d="M482.612,470.958c-0.511,0.174 -1.023,0.359 -1.53,0.543c-5.232,1.931 -10.153,4.447 -14.736,7.574c-68.847,46.911 -37.992,214.427 66.879,387.401l19.579,0c-85.219,-149.709 -108.062,-290.51 -48.224,-331.291c5.944,-4.051 12.511,-6.984 19.621,-8.84c0.543,-0.148 1.087,-0.28 1.635,-0.412c19.742,-4.662 43.54,-1.292 69.833,9.041c0.728,0.284 1.456,0.574 2.184,0.875c73.13,29.664 164.989,112.472 242.333,225.972c23.888,35.049 44.543,70.319 61.706,104.655l12.025,0c-20.849,-45.054 -47.406,-92.007 -79.163,-138.612c-84.75,-124.37 -185.381,-215.17 -265.589,-247.882c-0.764,-0.316 -1.529,-0.622 -2.294,-0.923c-32.285,-12.785 -61.173,-16.029 -84.259,-8.101" style="fill:#474752;fill-rule:nonzero;"/><path d="M978.321,529.177c0,10.801 -8.756,19.557 -19.557,19.557c-10.801,0 -19.557,-8.756 -19.557,-19.557c0,-10.801 8.756,-19.557 19.557,-19.557c10.801,0 19.557,8.756 19.557,19.557" style="fill:#e8422b;fill-rule:nonzero;"/><path d="M126.323,81.669c-0,3.153 -2.556,5.709 -5.709,5.709c-3.153,0 -5.709,-2.556 -5.709,-5.709c-0,-3.153 2.556,-5.709 5.709,-5.709c3.153,0 5.709,2.556 5.709,5.709" style="fill:#e8422b;fill-rule:nonzero;"/><path d="M1080.36,276.341c-0,4.565 -3.701,8.266 -8.266,8.266c-4.565,0 -8.266,-3.701 -8.266,-8.266c-0,-4.565 3.701,-8.266 8.266,-8.266c4.565,0 8.266,3.701 8.266,8.266" style="fill:#de8238;fill-rule:nonzero;"/><path d="M488.853,507.584c0,3.06 -2.48,5.54 -5.54,5.54c-3.06,0 -5.541,-2.48 -5.541,-5.54c0,-3.06 2.481,-5.54 5.541,-5.54c3.06,0 5.54,2.48 5.54,5.54" style="fill:#7a94c9;fill-rule:nonzero;"/><path d="M204.249,209.731c0,2.949 -2.391,5.34 -5.341,5.34c-2.949,0 -5.34,-2.391 -5.34,-5.34c0,-2.949 2.391,-5.34 5.34,-5.34c2.95,0 5.341,2.391 5.341,5.34" style="fill:#7a94c9;fill-rule:nonzero;"/><path d="M488.853,254.801c0,3.06 -2.48,5.54 -5.54,5.54c-3.06,0 -5.541,-2.48 -5.541,-5.54c0,-3.06 2.481,-5.54 5.541,-5.54c3.06,0 5.54,2.48 5.54,5.54" style="fill:#7a94c9;fill-rule:nonzero;"/><path d="M1051.54,13.469c0,4.326 -3.507,7.833 -7.833,7.833c-4.325,0 -7.832,-3.507 -7.832,-7.833c0,-4.326 3.507,-7.833 7.832,-7.833c4.326,0 7.833,3.507 7.833,7.833" style="fill:#7a94c9;fill-rule:nonzero;"/><path d="M620.031,30.236c-0,1.486 -1.205,2.69 -2.69,2.69c-1.486,0 -2.69,-1.204 -2.69,-2.69c-0,-1.485 1.204,-2.69 2.69,-2.69c1.485,0 2.69,1.205 2.69,2.69" style="fill:#7a94c9;fill-rule:nonzero;"/></g></g></g></g></g></svg>