<?xml version="1.0" encoding="UTF-8" standalone="no"?><!DOCTYPE svg PUBLIC "-//W3C//DTD SVG 1.1//EN" "http://www.w3.org/Graphics/SVG/1.1/DTD/svg11.dtd"><svg width="100%" height="100%" viewBox="0 0 91 38" version="1.1" xmlns="http://www.w3.org/2000/svg" xmlns:xlink="http://www.w3.org/1999/xlink" xml:space="preserve" xmlns:serif="http://www.serif.com/" style="fill-rule:evenodd;clip-rule:evenodd;stroke-linejoin:round;stroke-miterlimit:2;"><path d="M30.936,7.758l-11.997,-7.12c-0.716,-0.426 -1.515,-0.638 -2.314,-0.638c-0.8,0 -1.599,0.212 -2.315,0.638l-11.996,7.12c-1.432,0.85 -2.314,2.421 -2.314,4.121l0,14.242c0,1.7 0.882,3.271 2.314,4.121l11.997,7.121c0.716,0.424 1.515,0.637 2.314,0.637c0.799,0 1.598,-0.213 2.314,-0.637l11.997,-7.121c1.431,-0.85 2.314,-2.421 2.314,-4.121l0,-14.242c0,-1.7 -0.883,-3.271 -2.314,-4.121Zm-16.206,28.875l-11.997,-7.12c-1.173,-0.696 -1.902,-1.996 -1.902,-3.392l0,-14.242c0,-1.396 0.729,-2.695 1.902,-3.391l11.997,-7.121c0.575,-0.342 1.23,-0.522 1.895,-0.522c0.664,0 1.319,0.18 1.895,0.522l11.996,7.121c0.989,0.587 1.656,1.603 1.843,2.743c-0.398,-0.849 -1.295,-1.08 -2.34,-0.469l-11.35,7.01c-1.415,0.827 -2.458,1.755 -2.459,3.462l0,13.984c-0.001,1.022 0.412,1.684 1.045,1.876c-0.208,0.036 -0.418,0.061 -0.63,0.061c-0.665,0 -1.32,-0.18 -1.895,-0.522Zm6.7,-15.715c0.096,-0.049 0.176,0.012 0.177,0.138l0.01,1.034c0.433,-0.173 0.809,-0.219 1.149,-0.14c0.074,0.02 0.107,0.12 0.077,0.24l-0.228,0.915c-0.017,0.07 -0.056,0.14 -0.103,0.183c-0.02,0.02 -0.04,0.035 -0.06,0.045c-0.031,0.015 -0.061,0.02 -0.09,0.014c-0.155,-0.035 -0.525,-0.116 -1.106,0.179c-0.61,0.308 -0.823,0.838 -0.819,1.232c0.005,0.469 0.246,0.612 1.078,0.626c1.108,0.018 1.587,0.503 1.599,1.619c0.011,1.096 -0.574,2.274 -1.469,2.995l0.019,1.023c0.002,0.123 -0.078,0.264 -0.175,0.313l-0.606,0.349c-0.097,0.049 -0.177,-0.011 -0.178,-0.134l-0.011,-1.006c-0.519,0.215 -1.044,0.267 -1.38,0.132c-0.064,-0.024 -0.091,-0.118 -0.066,-0.224l0.22,-0.925c0.017,-0.073 0.056,-0.146 0.108,-0.192c0.019,-0.018 0.038,-0.032 0.057,-0.042c0.035,-0.017 0.069,-0.021 0.098,-0.01c0.362,0.122 0.825,0.065 1.27,-0.161c0.566,-0.286 0.944,-0.863 0.938,-1.436c-0.005,-0.52 -0.287,-0.736 -0.971,-0.741c-0.872,0.003 -1.684,-0.169 -1.697,-1.452c-0.011,-1.056 0.538,-2.155 1.407,-2.85l-0.011,-1.032c-0.001,-0.127 0.076,-0.267 0.176,-0.317l0.587,-0.375Zm6.361,6.581l-2.988,1.788c-0.079,0.046 -0.137,0.098 -0.137,0.193l0,0.781c0,0.096 0.064,0.136 0.143,0.089l3.033,-1.843c0.079,-0.046 0.092,-0.135 0.092,-0.23l0,-0.689c0,-0.096 -0.064,-0.135 -0.143,-0.089Z" style="fill:#9ea5a7;"/><path d="M41.276,20.07l2.644,0c0.373,0.012 0.723,0.072 1.039,0.178c0.301,0.101 0.566,0.246 0.788,0.432c0.216,0.182 0.383,0.399 0.507,0.661c0.121,0.26 0.18,0.567 0.174,0.925c0,0.338 -0.067,0.64 -0.199,0.896c-0.136,0.265 -0.315,0.482 -0.545,0.663c-0.24,0.188 -0.522,0.337 -0.837,0.444c-0.322,0.109 -0.668,0.167 -1.017,0.173l-2.554,0l0,-4.372Zm4.542,-3.896c-0.138,0.235 -0.313,0.427 -0.536,0.587c-0.23,0.165 -0.499,0.294 -0.801,0.383c-0.312,0.092 -0.636,0.142 -0.95,0.148l-2.255,0l0,-3.728l2.188,0c0.351,0.006 0.698,0.05 1.033,0.13c0.307,0.073 0.58,0.189 0.811,0.341c0.215,0.143 0.383,0.322 0.512,0.546c0.124,0.216 0.187,0.492 0.187,0.821c0,0.303 -0.062,0.555 -0.189,0.772Zm2.947,3.379c-0.299,-0.361 -0.66,-0.674 -1.072,-0.929c-0.051,-0.031 -0.102,-0.061 -0.154,-0.091c0.329,-0.22 0.621,-0.478 0.871,-0.769c0.266,-0.311 0.478,-0.666 0.63,-1.054c0.153,-0.39 0.234,-0.823 0.243,-1.293c0.009,-0.813 -0.162,-1.529 -0.507,-2.128c-0.339,-0.589 -0.801,-1.08 -1.37,-1.461c-0.553,-0.368 -1.189,-0.643 -1.892,-0.818c-0.681,-0.17 -1.387,-0.259 -2.105,-0.267l-4.802,0c-0.336,0 -0.607,0.259 -0.607,0.577l0,15.354c0,0.319 0.271,0.577 0.607,0.577l5.174,0c0.745,-0.007 1.478,-0.119 2.18,-0.333c0.713,-0.217 1.353,-0.534 1.903,-0.944c0.563,-0.42 1.018,-0.947 1.352,-1.567c0.34,-0.63 0.508,-1.359 0.499,-2.162c0,-0.52 -0.084,-1.013 -0.249,-1.465c-0.166,-0.453 -0.402,-0.865 -0.701,-1.227Z" style="fill:#9ea5a7;"/><path d="M58.603,20.424l-2.651,0l1.336,-4.117l1.315,4.117Zm0.133,-9.279c-0.08,-0.239 -0.314,-0.402 -0.578,-0.402l-1.719,0c-0.264,0 -0.497,0.161 -0.577,0.4l-5.213,15.354c-0.06,0.176 -0.027,0.367 0.087,0.517c0.114,0.149 0.297,0.237 0.491,0.237l2.051,0c0.266,0 0.501,-0.164 0.58,-0.406l1.165,-3.57l4.493,0l1.144,3.568c0.078,0.243 0.314,0.408 0.581,0.408l2.04,0c0.194,0 0.376,-0.088 0.49,-0.236c0.114,-0.149 0.147,-0.34 0.088,-0.515l-5.123,-15.355Z" style="fill:#9ea5a7;"/><path d="M76.19,20.146c-0.275,-0.352 -0.599,-0.67 -0.964,-0.946c-0.352,-0.267 -0.735,-0.508 -1.139,-0.719c-0.397,-0.207 -0.817,-0.393 -1.247,-0.554c-0.414,-0.153 -0.833,-0.294 -1.252,-0.419c-0.356,-0.104 -0.736,-0.225 -1.131,-0.361c-0.367,-0.125 -0.711,-0.284 -1.024,-0.472c-0.283,-0.17 -0.518,-0.379 -0.7,-0.622c-0.158,-0.21 -0.237,-0.471 -0.242,-0.788c0,-0.315 0.061,-0.578 0.189,-0.805c0.133,-0.236 0.306,-0.43 0.53,-0.592c0.232,-0.167 0.502,-0.295 0.804,-0.38c0.705,-0.2 1.497,-0.17 2.069,0.042c0.309,0.115 0.579,0.277 0.8,0.482c0.225,0.207 0.408,0.462 0.546,0.755c0.145,0.309 0.245,0.661 0.296,1.045c0.038,0.288 0.296,0.504 0.602,0.504l2.107,0c0.163,0 0.319,-0.062 0.433,-0.173c0.115,-0.11 0.177,-0.26 0.174,-0.415c-0.017,-0.787 -0.199,-1.514 -0.542,-2.159c-0.34,-0.636 -0.798,-1.186 -1.361,-1.636c-0.555,-0.443 -1.2,-0.79 -1.916,-1.035c-1.358,-0.462 -2.868,-0.486 -4.31,-0.06c-0.694,0.206 -1.324,0.512 -1.873,0.909c-0.56,0.405 -1.019,0.909 -1.365,1.496c-0.357,0.604 -0.538,1.295 -0.538,2.054c0,0.763 0.184,1.442 0.547,2.02c0.344,0.547 0.793,1.028 1.334,1.429c0.522,0.387 1.106,0.717 1.737,0.981c0.605,0.253 1.208,0.473 1.794,0.653c0.385,0.118 0.785,0.249 1.203,0.393c0.379,0.132 0.731,0.299 1.045,0.495c0.288,0.18 0.517,0.394 0.698,0.653c0.159,0.23 0.237,0.515 0.237,0.873c0,0.319 -0.066,0.579 -0.202,0.795c-0.149,0.237 -0.335,0.427 -0.569,0.582c-0.242,0.16 -0.525,0.28 -0.842,0.358c-0.759,0.186 -1.585,0.156 -2.236,-0.044c-0.349,-0.106 -0.66,-0.266 -0.923,-0.474c-0.264,-0.207 -0.482,-0.466 -0.651,-0.766c-0.172,-0.306 -0.287,-0.668 -0.344,-1.075c-0.04,-0.287 -0.297,-0.501 -0.602,-0.501l-2.095,0c-0.165,0 -0.322,0.063 -0.436,0.174c-0.114,0.112 -0.176,0.263 -0.171,0.419c0.025,0.823 0.234,1.571 0.621,2.224c0.379,0.638 0.878,1.185 1.484,1.628c0.595,0.436 1.279,0.774 2.03,1.005c0.745,0.228 1.516,0.344 2.294,0.344c0.695,0 1.4,-0.094 2.094,-0.28c0.706,-0.189 1.35,-0.476 1.914,-0.853c0.578,-0.387 1.056,-0.877 1.42,-1.458c0.377,-0.601 0.568,-1.308 0.568,-2.099c0,-0.518 -0.08,-1.003 -0.239,-1.439c-0.156,-0.43 -0.377,-0.829 -0.656,-1.188Z" style="fill:#9ea5a7;"/><path d="M89.642,10.743l-1.941,0c-0.335,0 -0.607,0.258 -0.607,0.577l0,6.025l-5.406,0l0,-6.025c0,-0.319 -0.272,-0.577 -0.607,-0.577l-1.93,0c-0.335,0 -0.607,0.258 -0.607,0.577l0,15.354c0,0.319 0.272,0.577 0.607,0.577l1.93,0c0.335,0 0.607,-0.258 0.607,-0.577l0,-6.52l5.406,0l0,6.52c0,0.319 0.272,0.577 0.607,0.577l1.941,0c0.335,0 0.607,-0.258 0.607,-0.577l0,-15.354c0,-0.319 -0.272,-0.577 -0.607,-0.577Z" style="fill:#9ea5a7;"/><path d="M39.856,29.913l-0.735,0l0,1.965l-0.392,0l0,-1.965l-0.73,0l0,-0.309l1.857,0l0,0.309Z" style="fill:#9ea5a7;"/><path d="M42.117,31.878l-0.385,0l0,-1.015l-0.813,0l0,1.015l-0.383,0l0,-2.274l0.383,0l0,0.951l0.813,0l0,-0.951l0.385,0l0,2.274Z" style="fill:#9ea5a7;"/><path d="M44.374,30.858l-0.984,0l0,0.714l1.152,0l0,0.305l-1.548,0l0,-2.273l1.536,0l0,0.309l-1.14,0l0,0.642l0.984,0l0,0.303Z" style="fill:#9ea5a7;"/><path d="M48.178,30.847l-0,0.725l0.43,0c0.063,-0.001 0.12,-0.011 0.171,-0.028c0.052,-0.017 0.096,-0.041 0.133,-0.071c0.037,-0.03 0.067,-0.067 0.088,-0.111c0.021,-0.043 0.032,-0.092 0.032,-0.147c-0,-0.057 -0.009,-0.108 -0.028,-0.153c-0.019,-0.046 -0.045,-0.084 -0.08,-0.115c-0.035,-0.031 -0.078,-0.056 -0.128,-0.073c-0.051,-0.017 -0.107,-0.026 -0.17,-0.027l-0.448,0Zm-0,-0.286l0.378,-0c0.059,-0.001 0.114,-0.009 0.165,-0.023c0.051,-0.014 0.095,-0.035 0.132,-0.062c0.037,-0.028 0.067,-0.062 0.089,-0.102c0.022,-0.04 0.032,-0.086 0.032,-0.138c0.001,-0.057 -0.01,-0.106 -0.03,-0.147c-0.021,-0.04 -0.051,-0.074 -0.088,-0.1c-0.038,-0.025 -0.083,-0.044 -0.134,-0.057c-0.052,-0.012 -0.108,-0.018 -0.169,-0.019l-0.375,-0l-0,0.648Zm-0.396,1.317l0,-2.275l0.764,-0c0.115,0.002 0.222,0.014 0.322,0.038c0.101,0.024 0.189,0.061 0.264,0.111c0.075,0.05 0.133,0.114 0.176,0.191c0.043,0.078 0.064,0.17 0.062,0.276c-0.001,0.113 -0.034,0.208 -0.098,0.288c-0.065,0.08 -0.152,0.142 -0.261,0.185c0.066,0.018 0.126,0.043 0.178,0.076c0.052,0.033 0.096,0.072 0.131,0.118c0.034,0.046 0.062,0.097 0.08,0.152c0.019,0.056 0.028,0.115 0.028,0.177c0,0.109 -0.021,0.204 -0.063,0.286c-0.041,0.082 -0.099,0.151 -0.173,0.206c-0.074,0.056 -0.161,0.097 -0.262,0.126c-0.102,0.029 -0.211,0.044 -0.328,0.045l-0.82,-0Z" style="fill:#9ea5a7;"/><path d="M51.415,30.594c-0.001,-0.085 -0.009,-0.171 -0.025,-0.255c-0.015,-0.084 -0.041,-0.159 -0.077,-0.225c-0.037,-0.067 -0.084,-0.12 -0.144,-0.161c-0.06,-0.041 -0.134,-0.062 -0.224,-0.062c-0.089,0 -0.163,0.021 -0.221,0.062c-0.058,0.041 -0.105,0.095 -0.14,0.161c-0.034,0.067 -0.058,0.142 -0.072,0.226c-0.014,0.084 -0.021,0.169 -0.022,0.254l0,0.293c0.001,0.086 0.009,0.17 0.023,0.255c0.014,0.083 0.038,0.159 0.073,0.226c0.034,0.067 0.081,0.121 0.139,0.163c0.059,0.042 0.133,0.063 0.222,0.063c0.089,0 0.164,-0.021 0.224,-0.063c0.059,-0.042 0.107,-0.096 0.143,-0.162c0.037,-0.067 0.062,-0.142 0.077,-0.227c0.014,-0.084 0.023,-0.169 0.024,-0.255l0,-0.293Zm0.395,0.293c-0,0.135 -0.018,0.264 -0.054,0.387c-0.036,0.123 -0.09,0.232 -0.162,0.327c-0.071,0.093 -0.161,0.168 -0.269,0.224c-0.108,0.056 -0.234,0.084 -0.378,0.084c-0.144,0 -0.269,-0.029 -0.375,-0.085c-0.106,-0.056 -0.195,-0.131 -0.265,-0.225c-0.071,-0.094 -0.124,-0.203 -0.16,-0.326c-0.035,-0.123 -0.053,-0.251 -0.053,-0.386l-0,-0.29c-0,-0.09 0.008,-0.177 0.024,-0.262c0.016,-0.086 0.039,-0.166 0.07,-0.242c0.032,-0.075 0.071,-0.145 0.117,-0.209c0.046,-0.064 0.101,-0.119 0.164,-0.165c0.063,-0.046 0.135,-0.082 0.214,-0.108c0.079,-0.025 0.166,-0.039 0.262,-0.039c0.145,0 0.271,0.028 0.379,0.085c0.107,0.056 0.197,0.131 0.27,0.225c0.072,0.095 0.126,0.204 0.162,0.328c0.036,0.123 0.054,0.252 0.054,0.387l-0,0.29Z" style="fill:#9ea5a7;"/><path d="M54.15,29.604l0.004,1.523c-0.001,0.116 -0.021,0.223 -0.059,0.319c-0.039,0.096 -0.093,0.179 -0.162,0.248c-0.068,0.068 -0.152,0.121 -0.25,0.159c-0.098,0.037 -0.208,0.056 -0.329,0.056c-0.118,0 -0.226,-0.019 -0.322,-0.056c-0.096,-0.038 -0.179,-0.09 -0.248,-0.159c-0.069,-0.068 -0.123,-0.15 -0.161,-0.247c-0.038,-0.096 -0.058,-0.203 -0.059,-0.32l0.003,-1.523l0.388,0l0.003,1.523c0.001,0.069 0.01,0.133 0.028,0.192c0.017,0.058 0.043,0.108 0.076,0.15c0.032,0.042 0.073,0.075 0.122,0.099c0.049,0.023 0.105,0.035 0.17,0.035c0.065,0 0.124,-0.012 0.174,-0.035c0.05,-0.024 0.093,-0.057 0.126,-0.099c0.034,-0.042 0.06,-0.092 0.078,-0.15c0.017,-0.059 0.026,-0.123 0.028,-0.192l0.003,-1.523l0.387,0Z" style="fill:#9ea5a7;"/><path d="M55.401,30.688l0.363,-0c0.066,-0 0.126,-0.009 0.181,-0.027c0.054,-0.018 0.102,-0.043 0.142,-0.076c0.04,-0.033 0.071,-0.072 0.093,-0.12c0.021,-0.047 0.033,-0.102 0.033,-0.163c0,-0.064 -0.011,-0.12 -0.032,-0.169c-0.021,-0.049 -0.05,-0.09 -0.089,-0.124c-0.039,-0.033 -0.086,-0.058 -0.142,-0.075c-0.056,-0.017 -0.119,-0.026 -0.188,-0.027l-0.361,-0l0,0.781Zm0.401,0.303l-0.401,0l-0,0.886l-0.394,0l-0,-2.273l0.755,0c0.123,0.001 0.236,0.015 0.34,0.044c0.103,0.029 0.193,0.072 0.268,0.128c0.076,0.057 0.134,0.128 0.176,0.213c0.042,0.086 0.062,0.185 0.062,0.3c-0,0.077 -0.01,0.147 -0.032,0.21c-0.021,0.063 -0.051,0.12 -0.089,0.171c-0.038,0.051 -0.085,0.096 -0.138,0.135c-0.054,0.038 -0.113,0.071 -0.177,0.098l0.505,0.956l-0,0.018l-0.42,0l-0.455,-0.886Z" style="fill:#9ea5a7;"/><path d="M58.953,31.878l-0.398,0l-0.778,-1.565l-0.002,1.565l-0.399,0l0,-2.274l0.399,0l0.776,1.56l0.003,-1.56l0.399,0l0,2.274Z" style="fill:#9ea5a7;"/><path d="M61.212,30.858l-0.984,0l0,0.714l1.152,0l0,0.305l-1.547,0l-0.001,-2.273l1.536,0l0,0.309l-1.14,0l0,0.642l0.984,0l0,0.303Z" style="fill:#9ea5a7;"/><rect x="62.381" y="30.73" width="1.316" height="0.301" style="fill:#9ea5a7;"/><path d="M65.135,31.029l0.548,0l-0.27,-0.891l-0.278,0.892l0,-0.001Zm0.647,0.32l-0.747,0l-0.165,0.528l-0.407,0l0.777,-2.274l0.346,0l0.763,2.274l-0.406,0l-0.161,-0.528Z" style="fill:#9ea5a7;"/><path d="M68.632,31.594c-0.04,0.045 -0.088,0.087 -0.142,0.126c-0.055,0.039 -0.117,0.072 -0.184,0.1c-0.068,0.028 -0.142,0.05 -0.221,0.065c-0.08,0.016 -0.164,0.024 -0.254,0.024c-0.144,0 -0.271,-0.027 -0.381,-0.08c-0.111,-0.053 -0.204,-0.125 -0.28,-0.217c-0.076,-0.093 -0.134,-0.202 -0.174,-0.326c-0.04,-0.125 -0.061,-0.26 -0.062,-0.403l0,-0.281c0,-0.144 0.02,-0.278 0.059,-0.403c0.04,-0.125 0.096,-0.234 0.17,-0.327c0.074,-0.093 0.165,-0.166 0.272,-0.219c0.107,-0.054 0.23,-0.081 0.368,-0.081c0.124,0 0.234,0.017 0.332,0.048c0.097,0.033 0.181,0.08 0.251,0.141c0.07,0.06 0.126,0.135 0.167,0.222c0.041,0.087 0.067,0.185 0.078,0.294l-0.388,-0c-0.009,-0.062 -0.025,-0.117 -0.046,-0.166c-0.021,-0.049 -0.048,-0.091 -0.084,-0.125c-0.035,-0.034 -0.077,-0.06 -0.127,-0.079c-0.05,-0.018 -0.108,-0.027 -0.176,-0.027c-0.084,-0 -0.155,0.019 -0.215,0.058c-0.059,0.04 -0.109,0.092 -0.148,0.158c-0.039,0.066 -0.069,0.143 -0.088,0.23c-0.018,0.087 -0.028,0.178 -0.029,0.273l0,0.284c0.001,0.094 0.011,0.185 0.03,0.271c0.019,0.087 0.05,0.163 0.091,0.229c0.041,0.066 0.094,0.119 0.158,0.159c0.065,0.039 0.142,0.06 0.233,0.061c0.038,-0 0.076,-0.002 0.115,-0.007c0.04,-0.005 0.078,-0.013 0.113,-0.023c0.035,-0.011 0.068,-0.023 0.098,-0.039c0.029,-0.017 0.053,-0.037 0.072,-0.061l0.003,-0.455l-0.432,-0l0,-0.291l0.818,-0l0.003,0.867Z" style="fill:#9ea5a7;"/><path d="M69.946,31.029l0.548,0l-0.271,-0.891l-0.277,0.892l0,-0.001Zm0.647,0.32l-0.748,0l-0.164,0.528l-0.407,0l0.777,-2.274l0.346,0l0.763,2.274l-0.406,0l-0.161,-0.528Z" style="fill:#9ea5a7;"/><path d="M71.891,29.604l1.423,0l0,0.31l-0.517,0l0,1.655l0.517,0l0,0.309l-1.423,0l0,-0.309l0.506,0l0,-1.655l-0.506,0l0,-0.31Z" style="fill:#9ea5a7;"/><path d="M75.791,31.878l-0.397,0l-0.778,-1.565l-0.002,1.565l-0.399,0l0,-2.274l0.399,0l0.775,1.56l0.004,-1.56l0.398,0l0,2.274Z" style="fill:#9ea5a7;"/><path d="M80.297,31.292c0,-0.054 -0.012,-0.102 -0.035,-0.143c-0.024,-0.041 -0.057,-0.077 -0.101,-0.109c-0.043,-0.031 -0.094,-0.058 -0.154,-0.081c-0.06,-0.024 -0.125,-0.045 -0.195,-0.066c-0.094,-0.025 -0.187,-0.058 -0.278,-0.096c-0.092,-0.039 -0.173,-0.086 -0.245,-0.141c-0.072,-0.056 -0.13,-0.121 -0.174,-0.196c-0.044,-0.074 -0.067,-0.16 -0.067,-0.258c0,-0.098 0.023,-0.186 0.067,-0.264c0.044,-0.077 0.104,-0.142 0.178,-0.197c0.075,-0.054 0.161,-0.096 0.26,-0.125c0.098,-0.029 0.201,-0.044 0.309,-0.044c0.115,0 0.222,0.017 0.323,0.051c0.1,0.034 0.187,0.082 0.262,0.142c0.075,0.061 0.135,0.134 0.178,0.219c0.044,0.085 0.066,0.179 0.068,0.282l-0.395,0c-0.005,-0.057 -0.018,-0.11 -0.038,-0.157c-0.021,-0.047 -0.049,-0.088 -0.086,-0.123c-0.036,-0.034 -0.081,-0.061 -0.134,-0.079c-0.052,-0.019 -0.113,-0.028 -0.182,-0.028c-0.059,0 -0.114,0.007 -0.164,0.021c-0.05,0.015 -0.094,0.036 -0.131,0.064c-0.036,0.028 -0.065,0.062 -0.086,0.102c-0.021,0.04 -0.031,0.084 -0.031,0.134c0,0.053 0.014,0.099 0.043,0.139c0.028,0.038 0.065,0.073 0.111,0.102c0.046,0.029 0.099,0.054 0.159,0.076c0.06,0.021 0.122,0.04 0.186,0.058c0.1,0.028 0.195,0.063 0.286,0.104c0.091,0.041 0.171,0.091 0.24,0.148c0.069,0.058 0.124,0.125 0.164,0.201c0.04,0.076 0.061,0.163 0.061,0.261c0,0.101 -0.023,0.19 -0.068,0.267c-0.044,0.077 -0.105,0.142 -0.18,0.193c-0.076,0.052 -0.163,0.092 -0.263,0.119c-0.099,0.026 -0.204,0.039 -0.312,0.039c-0.074,0 -0.146,-0.006 -0.219,-0.02c-0.072,-0.013 -0.141,-0.034 -0.207,-0.061c-0.066,-0.027 -0.128,-0.06 -0.185,-0.101c-0.057,-0.04 -0.106,-0.086 -0.149,-0.139c-0.042,-0.052 -0.075,-0.111 -0.099,-0.176c-0.024,-0.065 -0.037,-0.137 -0.038,-0.215l0.396,0c0.006,0.069 0.021,0.128 0.047,0.179c0.027,0.052 0.062,0.094 0.106,0.128c0.044,0.034 0.095,0.06 0.153,0.077c0.059,0.017 0.124,0.025 0.195,0.025c0.059,0 0.115,-0.007 0.166,-0.02c0.051,-0.014 0.096,-0.034 0.135,-0.06c0.038,-0.027 0.068,-0.06 0.09,-0.099c0.022,-0.039 0.033,-0.083 0.033,-0.133Z" style="fill:#9ea5a7;"/><path d="M83.009,31.878l-0.384,0l0,-1.015l-0.813,0l0,1.015l-0.383,0l0,-2.274l0.383,0l0,0.951l0.813,0l0,-0.951l0.384,0l0,2.274Z" style="fill:#9ea5a7;"/><path d="M85.267,30.858l-0.984,0l0,0.714l1.152,0l0,0.305l-1.548,0l0,-2.273l1.536,0l0,0.309l-1.14,0l0,0.642l0.984,0l0,0.303Z" style="fill:#9ea5a7;"/><path d="M86.704,31.572l1.139,0l-0,0.305l-1.534,0l-0,-2.273l0.395,0l-0,1.968Z" style="fill:#9ea5a7;"/><path d="M89.109,31.572l1.14,0l-0,0.305l-1.534,0l-0,-2.273l0.394,0l-0,1.968Z" style="fill:#9ea5a7;"/></svg>