<?xml version="1.0" encoding="UTF-8" standalone="no"?><!DOCTYPE svg PUBLIC "-//W3C//DTD SVG 1.1//EN" "http://www.w3.org/Graphics/SVG/1.1/DTD/svg11.dtd"><svg width="100%" height="100%" viewBox="0 0 133 36" version="1.1" xmlns="http://www.w3.org/2000/svg" xmlns:xlink="http://www.w3.org/1999/xlink" xml:space="preserve" xmlns:serif="http://www.serif.com/" style="fill-rule:evenodd;clip-rule:evenodd;stroke-linejoin:round;stroke-miterlimit:2;"><path d="M39.117,26.701l0,-16.364l2.104,0l10,13.169l0,-13.169l2,0l0,16.364l-2.104,0l-10,-13.299l0,13.299l-2,0Zm30.39,-0.649c-1.325,0.493 -2.754,0.753 -4.26,0.753c-5.922,0 -8.883,-2.831 -8.883,-8.52c0,-5.376 2.857,-8.077 8.571,-8.077c1.636,0 3.169,0.233 4.572,0.675l-0.001,1.818c-1.402,-0.545 -2.857,-0.805 -4.337,-0.805c-4.468,0 -6.701,2.13 -6.701,6.338c0,4.545 2.207,6.805 6.597,6.805c0.701,0 1.481,-0.104 2.338,-0.286l0,-5.481l2.104,0l0,6.78Zm3.376,-5.663l0,-10.052l2.104,0l0,10.052c0,3.143 1.559,4.728 4.701,4.728c3.117,0 4.702,-1.585 4.702,-4.728l0,-10.052l2.104,0l0,10.052c0,4.286 -2.26,6.442 -6.806,6.442c-4.545,0 -6.805,-2.156 -6.805,-6.442Zm19.481,-10.052l0,14.65l8.571,0l0,1.714l-10.675,0l0,-16.364l2.104,0Zm11.61,16.364l-2.208,0l8.13,-18.519l8.13,18.519l-2.338,0l-2.104,-5.143l-5.402,0l0.571,-1.714l4.13,0l-3.065,-7.403l-5.844,14.26Zm16.312,0l0,-16.364l6.987,0c3.117,0 4.675,1.299 4.675,3.923c0,2.129 -1.532,3.714 -4.571,4.727l5.61,7.714l-2.779,0l-5.195,-7.351l0,-1.376c3.117,-0.494 4.701,-1.689 4.701,-3.611c0,-1.506 -0.857,-2.259 -2.597,-2.259l-4.675,0l0,14.597l-2.156,0Z" style="fill:#9ea5a7;"/><path d="M16.753,0l17.195,5.87l-2.779,22.156l-14.416,7.974l-14.182,-7.87l-2.571,-22.156l16.753,-5.974Zm0.026,4.208l-10.441,23.221l3.896,-0.078l2.104,-5.247l9.324,0l2.286,5.299l3.714,0.078l-10.883,-23.273Zm0.026,7.455l3.533,7.376l-6.624,0l3.091,-7.376Z" style="fill:#9ea5a7;"/></svg>