<?xml version="1.0" encoding="UTF-8" standalone="no"?><!DOCTYPE svg PUBLIC "-//W3C//DTD SVG 1.1//EN" "http://www.w3.org/Graphics/SVG/1.1/DTD/svg11.dtd"><svg width="100%" height="100%" viewBox="0 0 154 50" version="1.1" xmlns="http://www.w3.org/2000/svg" xmlns:xlink="http://www.w3.org/1999/xlink" xml:space="preserve" xmlns:serif="http://www.serif.com/" style="fill-rule:evenodd;clip-rule:evenodd;stroke-linejoin:round;stroke-miterlimit:2;"><path d="M4.603,49.809c-0.032,-0.102 -1.115,-7.044 -2.407,-15.426c-2.099,-13.619 -2.327,-15.284 -2.146,-15.645c0.111,-0.222 2.798,-4.529 5.97,-9.571l5.767,-9.167l28.912,0l5.905,9.399c3.248,5.169 5.929,9.537 5.957,9.707c0.028,0.169 -1.015,7.172 -2.318,15.562l-2.37,15.253l-4.299,0.04l-4.298,0.039l-0,-0.367c-0,-0.202 0.099,-1.559 0.221,-3.016c0.122,-1.457 0.251,-2.9 0.286,-3.207l0.063,-0.558l-2.083,0c-2.057,0 -2.083,0.004 -2.083,0.333c-0,0.184 -0.105,1.64 -0.233,3.237c-0.128,1.597 -0.264,3.054 -0.302,3.239l-0.07,0.334l-17.665,0l-0.069,-0.334c-0.038,-0.185 -0.174,-1.642 -0.302,-3.239c-0.129,-1.597 -0.234,-3.053 -0.234,-3.237c-0,-0.328 -0.026,-0.333 -2.083,-0.333l-2.083,0l0.064,0.558c0.035,0.307 0.163,1.75 0.285,3.207c0.122,1.457 0.222,2.813 0.222,3.014l-0,0.364l-4.274,0c-3.288,0 -4.288,-0.043 -4.333,-0.186Zm37.165,-21.205l1.198,-9.487l-2.406,-4.8l-2.406,-4.799l-3.783,-0c-2.081,-0 -3.783,0.051 -3.781,0.112c0.001,0.061 0.101,0.748 0.222,1.525c0.12,0.778 0.22,1.531 0.222,1.674c0.002,0.243 -0.325,0.261 -4.791,0.261c-4.467,-0 -4.794,-0.018 -4.791,-0.261c0.002,-0.143 0.101,-0.896 0.222,-1.674c0.121,-0.777 0.22,-1.464 0.222,-1.525c0.002,-0.061 -1.7,-0.112 -3.781,-0.112l-3.784,-0l-2.405,4.799l-2.406,4.8l1.198,9.487l1.197,9.486l28.655,0l1.198,-9.486Zm-23.39,3.183c-0.127,-0.193 -0.33,-0.813 -0.45,-1.377c-0.12,-0.564 -0.22,-1.782 -0.221,-2.707c-0.002,-1.012 0.092,-2.097 0.236,-2.724c0.144,-0.631 0.38,-1.199 0.599,-1.443l0.361,-0.401l0.36,0.401c0.219,0.244 0.455,0.812 0.6,1.444c0.143,0.626 0.237,1.711 0.235,2.723c-0.001,0.925 -0.101,2.143 -0.221,2.707c-0.12,0.564 -0.323,1.184 -0.45,1.377c-0.128,0.193 -0.363,0.351 -0.524,0.351c-0.161,0 -0.397,-0.158 -0.525,-0.351Zm15.224,-0.329c-0.166,-0.21 -0.416,-0.887 -0.554,-1.504c-0.194,-0.866 -0.235,-1.587 -0.179,-3.152c0.053,-1.479 0.151,-2.249 0.361,-2.836c0.159,-0.443 0.405,-0.878 0.546,-0.966c0.184,-0.116 0.331,-0.116 0.519,-0.001c0.144,0.089 0.389,0.524 0.544,0.967c0.201,0.575 0.303,1.387 0.356,2.836c0.057,1.568 0.016,2.285 -0.178,3.152c-0.138,0.617 -0.388,1.294 -0.554,1.504c-0.166,0.21 -0.36,0.382 -0.43,0.382c-0.071,0 -0.265,-0.172 -0.431,-0.382Zm31.065,3c-0.412,-0.101 -1.052,-0.34 -1.423,-0.53c-0.371,-0.19 -0.898,-0.514 -1.171,-0.721c-0.273,-0.206 -0.764,-0.747 -1.091,-1.2c-0.327,-0.454 -0.736,-1.285 -0.907,-1.847c-0.244,-0.795 -0.299,-1.293 -0.248,-2.244c0.051,-0.964 0.161,-1.427 0.519,-2.184c0.251,-0.528 0.774,-1.311 1.164,-1.739c0.488,-0.536 1.065,-0.954 1.85,-1.34c1.121,-0.55 1.173,-0.56 2.872,-0.56c1.551,0 1.817,0.04 2.561,0.387c0.457,0.213 1.081,0.605 1.386,0.871c0.305,0.266 0.555,0.581 0.555,0.698c-0,0.118 -0.313,0.547 -0.695,0.952c-0.382,0.406 -0.811,0.738 -0.953,0.738c-0.143,0 -0.432,-0.135 -0.644,-0.301c-0.212,-0.165 -0.667,-0.4 -1.013,-0.521c-0.345,-0.121 -0.864,-0.22 -1.153,-0.22c-0.289,0 -0.782,0.077 -1.096,0.17c-0.314,0.093 -0.813,0.368 -1.108,0.61c-0.296,0.242 -0.685,0.718 -0.866,1.058c-0.254,0.477 -0.33,0.875 -0.333,1.745c-0.003,0.999 0.048,1.211 0.45,1.857c0.281,0.451 0.732,0.899 1.186,1.178c0.622,0.382 0.884,0.451 1.719,0.451c0.836,0 1.116,-0.074 1.845,-0.484c0.472,-0.266 0.952,-0.483 1.065,-0.483c0.114,0 0.519,0.331 0.901,0.737c0.382,0.406 0.695,0.828 0.695,0.938c-0,0.111 -0.219,0.41 -0.487,0.666c-0.268,0.256 -0.827,0.634 -1.242,0.84c-0.415,0.206 -1.056,0.443 -1.423,0.528c-0.367,0.084 -1.005,0.148 -1.417,0.143c-0.412,-0.005 -1.086,-0.092 -1.498,-0.193Zm11.913,-0.019c-0.451,-0.126 -1.103,-0.393 -1.448,-0.594c-0.344,-0.201 -0.847,-0.549 -1.115,-0.773c-0.269,-0.225 -0.739,-0.793 -1.044,-1.262c-0.306,-0.47 -0.674,-1.29 -0.82,-1.823c-0.195,-0.718 -0.242,-1.279 -0.181,-2.162c0.061,-0.892 0.195,-1.432 0.529,-2.142c0.245,-0.521 0.707,-1.235 1.025,-1.586c0.318,-0.352 0.921,-0.857 1.34,-1.124c0.419,-0.267 1.153,-0.598 1.633,-0.737c0.628,-0.181 1.238,-0.234 2.184,-0.189c1.142,0.054 1.458,0.134 2.437,0.614c0.77,0.378 1.349,0.799 1.834,1.332c0.39,0.428 0.908,1.2 1.152,1.715c0.341,0.72 0.462,1.222 0.522,2.177c0.062,0.999 0.015,1.444 -0.241,2.283c-0.194,0.635 -0.571,1.382 -0.967,1.915c-0.356,0.48 -0.913,1.054 -1.237,1.275c-0.324,0.221 -0.982,0.581 -1.464,0.799c-0.657,0.298 -1.18,0.411 -2.097,0.453c-0.805,0.038 -1.502,-0.021 -2.042,-0.171Zm2.88,-2.811c0.309,-0.11 0.805,-0.384 1.102,-0.609c0.301,-0.228 0.699,-0.746 0.897,-1.17c0.234,-0.498 0.358,-1.035 0.359,-1.548c-0,-0.432 -0.091,-1.006 -0.205,-1.276c-0.113,-0.269 -0.433,-0.747 -0.711,-1.061c-0.278,-0.315 -0.809,-0.706 -1.18,-0.869c-0.423,-0.186 -0.986,-0.293 -1.51,-0.288c-0.532,0.005 -1.05,0.117 -1.423,0.308c-0.323,0.165 -0.803,0.524 -1.067,0.797c-0.263,0.273 -0.583,0.746 -0.711,1.05c-0.128,0.304 -0.232,0.907 -0.231,1.339c0.001,0.513 0.125,1.05 0.358,1.548c0.199,0.424 0.597,0.942 0.898,1.17c0.297,0.225 0.793,0.499 1.102,0.609c0.309,0.109 0.831,0.199 1.161,0.199c0.33,-0 0.852,-0.09 1.161,-0.199Zm38.425,2.878c-0.309,-0.072 -0.977,-0.339 -1.484,-0.594c-0.508,-0.254 -1.232,-0.779 -1.611,-1.165c-0.379,-0.386 -0.871,-1.074 -1.095,-1.529c-0.224,-0.454 -0.475,-1.119 -0.558,-1.478c-0.083,-0.359 -0.153,-0.99 -0.155,-1.403c-0.002,-0.412 0.1,-1.149 0.227,-1.637c0.127,-0.488 0.447,-1.246 0.712,-1.685c0.264,-0.439 0.784,-1.067 1.154,-1.397c0.371,-0.33 1.113,-0.808 1.648,-1.062c0.908,-0.432 1.085,-0.463 2.629,-0.463c1.61,-0 1.688,0.015 2.785,0.554c0.732,0.36 1.379,0.819 1.837,1.306c0.39,0.414 0.923,1.202 1.185,1.753c0.447,0.936 0.477,1.106 0.477,2.637c-0,1.534 -0.03,1.701 -0.48,2.645c-0.292,0.612 -0.792,1.317 -1.274,1.795c-0.436,0.433 -1.171,0.964 -1.633,1.182c-0.462,0.217 -1.136,0.462 -1.498,0.545c-0.361,0.083 -1.028,0.145 -1.481,0.139c-0.453,-0.006 -1.077,-0.07 -1.385,-0.143Zm2.964,-3.018c0.415,-0.192 0.948,-0.577 1.184,-0.854c0.235,-0.278 0.519,-0.721 0.63,-0.984c0.111,-0.263 0.201,-0.866 0.199,-1.339c-0.002,-0.519 -0.114,-1.097 -0.282,-1.456c-0.152,-0.327 -0.505,-0.81 -0.783,-1.071c-0.278,-0.262 -0.774,-0.589 -1.104,-0.727c-0.33,-0.137 -0.939,-0.251 -1.353,-0.252c-0.429,-0.001 -1.043,0.125 -1.423,0.293c-0.368,0.161 -0.88,0.532 -1.138,0.824c-0.258,0.291 -0.587,0.839 -0.732,1.216c-0.191,0.497 -0.241,0.915 -0.179,1.511c0.051,0.487 0.244,1.091 0.471,1.477c0.212,0.359 0.596,0.802 0.854,0.985c0.258,0.182 0.713,0.418 1.011,0.524c0.298,0.106 0.845,0.194 1.216,0.197c0.402,0.003 0.978,-0.135 1.429,-0.344Zm10.89,2.994c-0.083,-0.103 -1.338,-2.756 -2.789,-5.896c-1.452,-3.14 -2.639,-5.789 -2.639,-5.885c-0,-0.097 0.08,-0.257 0.179,-0.355c0.109,-0.108 0.639,-0.179 1.345,-0.179c1.045,-0 1.187,0.035 1.377,0.335c0.117,0.184 0.842,1.754 1.611,3.488c0.769,1.734 1.418,3.133 1.443,3.109c0.025,-0.025 0.739,-1.578 1.586,-3.451l1.541,-3.406l1.339,-0c1.316,-0 1.339,0.006 1.382,0.373c0.028,0.236 -0.893,2.387 -2.515,5.875c-1.407,3.027 -2.659,5.655 -2.781,5.84c-0.127,0.193 -0.374,0.338 -0.575,0.338c-0.194,-0 -0.421,-0.084 -0.504,-0.186Zm-44.294,-0.294c-0.201,-0.285 -0.233,-1.099 -0.233,-5.888c-0,-3.546 0.056,-5.661 0.155,-5.845c0.147,-0.271 0.346,-0.288 3.558,-0.286c3.249,0.001 3.437,0.017 4.152,0.349c0.412,0.19 0.992,0.615 1.289,0.942c0.298,0.328 0.661,0.908 0.808,1.29c0.196,0.511 0.244,0.931 0.183,1.599c-0.057,0.634 -0.211,1.113 -0.512,1.596c-0.236,0.379 -0.71,0.892 -1.052,1.139c-0.343,0.247 -0.627,0.509 -0.632,0.582c-0.005,0.073 0.463,0.998 1.039,2.056c0.577,1.059 1.049,2.051 1.049,2.207c-0,0.155 -0.13,0.351 -0.29,0.436c-0.159,0.085 -0.762,0.154 -1.339,0.154c-0.656,-0 -1.095,-0.068 -1.171,-0.181c-0.067,-0.099 -0.634,-1.12 -1.261,-2.269l-1.141,-2.089l-1.989,-0.088l-0,2.135c-0,1.462 -0.056,2.191 -0.179,2.313c-0.105,0.104 -0.604,0.179 -1.19,0.179c-0.874,-0 -1.042,-0.045 -1.244,-0.331Zm6.361,-6.888c0.241,-0.124 0.507,-0.354 0.592,-0.511c0.085,-0.158 0.154,-0.495 0.154,-0.749c-0,-0.29 -0.133,-0.597 -0.357,-0.819c-0.197,-0.195 -0.585,-0.397 -0.862,-0.447c-0.277,-0.051 -1.099,-0.072 -1.828,-0.048l-1.325,0.046l0.007,1.302c0.004,0.716 0.011,1.335 0.014,1.376c0.004,0.041 0.718,0.075 1.588,0.075c1.116,-0 1.708,-0.066 2.017,-0.225Zm6.701,7.058c-0.242,-0.14 -0.262,-0.587 -0.262,-6.004c-0,-4.923 0.034,-5.881 0.217,-6.031c0.156,-0.129 1.016,-0.165 3.108,-0.13l2.892,0.049l1.01,0.475c0.594,0.28 1.321,0.785 1.768,1.229c0.454,0.451 0.949,1.157 1.23,1.754c0.386,0.818 0.483,1.237 0.534,2.289c0.046,0.953 -0.006,1.496 -0.198,2.086c-0.143,0.439 -0.458,1.111 -0.7,1.493c-0.242,0.383 -0.733,0.964 -1.091,1.292c-0.358,0.328 -0.925,0.735 -1.26,0.905c-0.336,0.17 -0.997,0.409 -1.47,0.531c-0.59,0.153 -1.592,0.221 -3.188,0.218c-1.301,-0.002 -2.443,-0.071 -2.59,-0.156Zm5.216,-2.736c0.406,-0.121 0.952,-0.412 1.212,-0.649c0.26,-0.237 0.623,-0.722 0.805,-1.078c0.233,-0.453 0.334,-0.917 0.337,-1.546c0.002,-0.524 -0.103,-1.147 -0.252,-1.494c-0.141,-0.327 -0.437,-0.788 -0.66,-1.023c-0.222,-0.236 -0.673,-0.552 -1.003,-0.704c-0.427,-0.197 -0.953,-0.276 -1.835,-0.279l-1.236,-0.003l-0,6.994l0.947,-0c0.52,-0 1.279,-0.098 1.685,-0.218Zm31.186,2.736c-0.144,-0.083 -0.262,-0.269 -0.262,-0.413c-0,-0.144 1.185,-2.803 2.634,-5.908c1.449,-3.106 2.707,-5.734 2.796,-5.84c0.089,-0.107 0.368,-0.173 0.619,-0.149c0.447,0.044 0.512,0.165 3.112,5.774c1.46,3.151 2.659,5.867 2.664,6.035c0.005,0.167 -0.072,0.385 -0.171,0.483c-0.103,0.103 -0.6,0.179 -1.175,0.179c-0.765,-0 -1.051,-0.062 -1.237,-0.266c-0.133,-0.146 -0.412,-0.648 -0.621,-1.116l-0.378,-0.85l-4.597,-0l-0.362,0.77c-0.2,0.424 -0.486,0.926 -0.636,1.116c-0.234,0.296 -0.406,0.345 -1.198,0.341c-0.509,-0.002 -1.044,-0.072 -1.188,-0.156Zm6.78,-4.564c-0,-0.061 -0.25,-0.673 -0.557,-1.36l-0.559,-1.248l-0.566,1.227c-0.312,0.675 -0.566,1.287 -0.566,1.36c-0,0.073 0.505,0.133 1.123,0.133c0.618,-0 1.124,-0.051 1.125,-0.112Zm5.691,-6.139c-0,-0.793 -0.033,-0.892 -0.3,-0.892c-0.202,-0 -0.299,-0.1 -0.299,-0.305c-0,-0.277 0.078,-0.301 0.849,-0.261c0.537,0.028 0.874,0.117 0.915,0.241c0.036,0.107 -0.077,0.232 -0.25,0.277c-0.276,0.072 -0.316,0.193 -0.316,0.958c-0,0.776 -0.034,0.875 -0.299,0.875c-0.267,-0 -0.3,-0.099 -0.3,-0.893Zm1.348,0.837c-0,-0.043 0.071,-0.433 0.157,-0.866c0.086,-0.434 0.189,-0.94 0.227,-1.124c0.039,-0.184 0.136,-0.335 0.215,-0.335c0.079,-0 0.29,0.284 0.468,0.631l0.324,0.632l0.308,-0.632c0.169,-0.347 0.389,-0.631 0.487,-0.631c0.104,-0 0.25,0.4 0.345,0.943c0.091,0.518 0.166,1.054 0.166,1.19c-0,0.149 -0.12,0.248 -0.3,0.248c-0.197,-0 -0.3,-0.099 -0.3,-0.288c-0,-0.159 -0.06,-0.326 -0.133,-0.371c-0.074,-0.046 -0.176,0.084 -0.228,0.288c-0.051,0.204 -0.197,0.371 -0.323,0.371c-0.127,-0 -0.308,-0.217 -0.404,-0.483l-0.174,-0.484l-0.081,0.447c-0.058,0.318 -0.178,0.46 -0.418,0.494c-0.185,0.026 -0.336,0.012 -0.336,-0.03Zm-90.63,-5.373c-0,-0.039 0.276,-0.658 0.612,-1.376l0.613,-1.305l0.586,1.249c0.322,0.687 0.586,1.306 0.586,1.376c-0,0.071 -0.094,0.128 -0.209,0.128c-0.115,-0 -0.247,-0.1 -0.295,-0.223c-0.056,-0.146 -0.289,-0.223 -0.674,-0.223c-0.384,-0 -0.618,0.077 -0.674,0.223c-0.047,0.123 -0.189,0.223 -0.316,0.223c-0.126,-0 -0.229,-0.032 -0.229,-0.072Zm1.439,-1.056c-0.05,-0.13 -0.093,-0.314 -0.095,-0.409c-0.003,-0.096 -0.104,-0.044 -0.225,0.115c-0.121,0.158 -0.22,0.343 -0.22,0.409c-0,0.066 0.142,0.12 0.316,0.12c0.226,-0 0.289,-0.066 0.224,-0.235Zm1.707,-0.137l-0,-1.265l0.651,-0c0.44,-0 0.731,0.088 0.899,0.272c0.136,0.15 0.248,0.384 0.248,0.521c-0,0.137 -0.135,0.383 -0.3,0.547c-0.165,0.163 -0.468,0.297 -0.674,0.297c-0.316,-0 -0.375,0.07 -0.375,0.447c-0,0.297 -0.075,0.446 -0.224,0.446c-0.183,-0 -0.225,-0.24 -0.225,-1.265Zm1.053,-0.225c0.165,-0.088 0.248,-0.244 0.199,-0.372c-0.047,-0.122 -0.247,-0.221 -0.444,-0.221c-0.248,-0 -0.359,0.084 -0.359,0.273c-0,0.15 0.045,0.317 0.1,0.372c0.055,0.054 0.127,0.099 0.16,0.099c0.033,-0 0.187,-0.068 0.344,-0.151Zm1.044,1.41c-0,-0.044 0.245,-0.613 0.545,-1.265c0.3,-0.652 0.596,-1.185 0.658,-1.185c0.062,-0 0.355,0.509 0.653,1.132c0.298,0.622 0.541,1.191 0.541,1.265c-0,0.073 -0.103,0.133 -0.229,0.133c-0.127,-0 -0.269,-0.1 -0.316,-0.223c-0.056,-0.144 -0.288,-0.223 -0.653,-0.223c-0.366,-0 -0.598,0.079 -0.654,0.223c-0.047,0.123 -0.189,0.223 -0.315,0.223c-0.127,-0 -0.23,-0.036 -0.23,-0.08Zm1.496,-0.924c-0.001,-0.062 -0.069,-0.212 -0.15,-0.335c-0.131,-0.199 -0.164,-0.199 -0.295,-0c-0.081,0.123 -0.149,0.273 -0.15,0.335c-0.001,0.061 0.133,0.111 0.298,0.111c0.164,-0 0.298,-0.05 0.297,-0.111Zm1.868,0.639c-0.264,-0.262 -0.368,-0.528 -0.368,-0.942c-0,-0.407 0.099,-0.665 0.337,-0.882c0.186,-0.169 0.48,-0.349 0.655,-0.402c0.174,-0.052 0.5,-0.026 0.723,0.058c0.224,0.085 0.379,0.237 0.345,0.337c-0.037,0.112 -0.269,0.166 -0.591,0.139c-0.34,-0.029 -0.617,0.041 -0.774,0.198c-0.135,0.134 -0.245,0.373 -0.245,0.53c-0,0.158 0.134,0.421 0.299,0.585c0.165,0.164 0.372,0.298 0.459,0.298c0.088,-0 0.283,-0.066 0.434,-0.146c0.197,-0.105 0.323,-0.087 0.449,0.064c0.139,0.166 0.113,0.243 -0.124,0.369c-0.165,0.087 -0.509,0.159 -0.765,0.159c-0.295,-0 -0.601,-0.134 -0.834,-0.365Zm2.628,-0.9c-0,-1 0.045,-1.265 0.215,-1.265c0.134,-0 0.233,0.184 0.263,0.484c0.042,0.441 0.095,0.488 0.608,0.53c0.553,0.045 0.562,0.037 0.562,-0.484c-0,-0.431 0.056,-0.53 0.3,-0.53c0.276,-0 0.299,0.099 0.299,1.276c-0,1.135 -0.029,1.27 -0.262,1.227c-0.173,-0.033 -0.278,-0.214 -0.309,-0.532c-0.044,-0.455 -0.081,-0.483 -0.637,-0.483c-0.574,-0 -0.589,0.014 -0.589,0.521c-0,0.364 -0.068,0.521 -0.225,0.521c-0.182,-0 -0.225,-0.24 -0.225,-1.265Zm3.296,1.265l-0,-2.53l0.836,-0c0.602,-0 0.819,0.052 0.775,0.186c-0.034,0.103 -0.309,0.207 -0.612,0.233c-0.428,0.036 -0.55,0.109 -0.55,0.334c-0,0.222 0.105,0.289 0.45,0.289c0.299,-0 0.449,0.074 0.449,0.223c-0,0.149 -0.15,0.223 -0.449,0.223c-0.35,-0 -0.45,0.067 -0.45,0.298c-0,0.248 0.1,0.298 0.599,0.298c0.433,-0 0.6,0.062 0.6,0.223c-0,0.171 -0.192,0.223 -0.824,0.223l-0.824,-0Z" style="fill:#9ea5a7;fill-rule:nonzero;"/></svg>