<?xml version="1.0" encoding="UTF-8" standalone="no"?><!DOCTYPE svg PUBLIC "-//W3C//DTD SVG 1.1//EN" "http://www.w3.org/Graphics/SVG/1.1/DTD/svg11.dtd"><svg width="100%" height="100%" viewBox="0 0 123 40" version="1.1" xmlns="http://www.w3.org/2000/svg" xmlns:xlink="http://www.w3.org/1999/xlink" xml:space="preserve" xmlns:serif="http://www.serif.com/" style="fill-rule:evenodd;clip-rule:evenodd;stroke-linejoin:round;stroke-miterlimit:2;"><path d="M40.001,19.998c-0.001,11.047 -8.956,20.002 -20.001,20.002c-10.972,-0.001 -19.999,-9.029 -20,-20.001c0,-11.045 8.955,-19.999 20,-19.999c11.044,0 19.999,8.955 19.999,20.002l0.002,-0.004Zm-10.463,7.936l-7.961,-19.159c-0.227,-0.552 -0.671,-0.845 -1.234,-0.845c-0.557,-0.015 -1.067,0.324 -1.267,0.845l-8.738,21.016l2.989,0l3.458,-8.664l10.323,8.339c0.415,0.335 0.715,0.487 1.104,0.487c0.78,0 1.461,-0.584 1.461,-1.428c0,-0.137 -0.049,-0.355 -0.136,-0.59l0.001,-0.001Zm-9.194,-15.716l5.176,12.774l-7.818,-6.146l2.642,-6.628Z" style="fill:#9ea5a7;fill-rule:nonzero;"/><path d="M67.416,25.985c-0.206,0 -0.429,-0.053 -0.584,-0.262l-6.63,-8.718l0,8.892l-1.513,0l0,-10.95c0,-0.447 0.361,-0.785 0.774,-0.785c0.24,0 0.447,0.071 0.601,0.28l6.612,8.7l0,-8.857l1.511,0l0,10.941c0,0.417 -0.343,0.76 -0.759,0.76l-0.014,0l0.002,-0.001Zm8.745,0.106c-1.51,0 -3.092,-0.313 -4.568,-0.872l0.361,-1.255c1.357,0.447 2.834,0.749 4.207,0.749c1.907,0 2.903,-0.679 2.903,-1.638c0,-0.872 -0.773,-1.308 -3.435,-2.563c-2.661,-1.257 -3.709,-2.057 -3.709,-3.627c0,-1.97 1.51,-2.771 4.362,-2.771c1.184,0 3.017,0.246 4.054,0.559l-0.24,1.289c-1.239,-0.295 -2.506,-0.453 -3.779,-0.469c-2.009,0 -2.834,0.383 -2.834,1.343c0,0.941 0.601,1.341 3.417,2.651c2.972,1.378 3.726,2.075 3.726,3.505c0,2.075 -1.958,3.104 -4.465,3.104l0,-0.005Zm7.871,-11.825l1.565,0l0,11.612l-1.565,0l0,-11.612Zm12.001,6.219l-3.882,0l0,3.941l3.882,0c1.322,0 2.13,-0.838 2.13,-2.006c0,-1.098 -0.841,-1.935 -2.13,-1.935Zm-0.756,-5.022l-3.126,0l0,3.714l3.126,0c1.253,0 2.164,-0.802 2.164,-1.918c0,-1.099 -0.79,-1.796 -2.164,-1.796Zm0.773,10.287l-4.671,0c-0.447,0 -0.79,-0.349 -0.79,-0.785l0,-10.043c0.005,-0.43 0.36,-0.782 0.79,-0.784l3.864,0c2.369,0 3.777,1.167 3.777,2.999c0,1.006 -0.584,1.917 -1.477,2.458c1.323,0.402 2.216,1.5 2.216,2.825c0,1.848 -1.528,3.33 -3.71,3.33l0.001,0Zm8.268,-0.129c-0.429,0 -0.782,-0.366 -0.782,-0.784l0,-10.839l1.564,0l0,10.2l6.238,0l0,1.412l-7.02,0.011Zm14.299,0.064c-3.196,0 -5.118,-1.184 -5.118,-3.576c0,-1.133 0.637,-2.214 1.873,-2.719c-1.005,-0.628 -1.512,-1.518 -1.512,-2.495c0,-2.162 1.668,-3.191 4.805,-3.191c1.263,0.006 2.526,0.14 3.762,0.402l-0.173,1.291c-1.305,-0.209 -2.525,-0.331 -3.709,-0.331c-2.027,0 -3.109,0.559 -3.109,1.9c0,1.064 0.997,1.9 2.32,1.9l2.69,0c0.361,0 0.659,0.297 0.659,0.659l0,0.003c0,0.383 -0.291,0.679 -0.671,0.679l-2.885,0c-1.512,0 -2.473,0.749 -2.473,1.9c0,1.691 1.562,2.197 3.52,2.197c1.065,0 2.508,-0.138 3.688,-0.418l0.223,1.272c-1.26,0.34 -2.559,0.516 -3.865,0.524l-0.025,0.003Zm-68.476,-9.12l2.738,6.858l-4.135,-3.307l1.397,-3.551Zm4.863,8.439l-4.21,-10.287c-0.121,-0.297 -0.361,-0.454 -0.653,-0.454c-0.296,-0.005 -0.565,0.177 -0.67,0.454l-4.604,11.592l1.564,-0.309l1.83,-4.651l5.458,4.477c0.22,0.179 0.378,0.261 0.585,0.261c0.004,0.001 0.008,0.001 0.012,0.001c0.417,0 0.76,-0.343 0.76,-0.76l0,-0.008c-0.007,-0.109 -0.031,-0.216 -0.072,-0.316Z" style="fill:#9ea5a7;fill-rule:nonzero;"/></svg>