<?xml version="1.0" encoding="UTF-8" standalone="no"?><!DOCTYPE svg PUBLIC "-//W3C//DTD SVG 1.1//EN" "http://www.w3.org/Graphics/SVG/1.1/DTD/svg11.dtd"><svg width="100%" height="100%" viewBox="0 0 100 54" version="1.1" xmlns="http://www.w3.org/2000/svg" xmlns:xlink="http://www.w3.org/1999/xlink" xml:space="preserve" xmlns:serif="http://www.serif.com/" style="fill-rule:evenodd;clip-rule:evenodd;stroke-linejoin:round;stroke-miterlimit:2;"><path d="M7.439,52.056c1.917,0.804 6.091,1.295 8.257,1.471c3.046,0.251 6.389,0.19 9.434,-0.024c3.941,-0.28 8.616,-0.73 12.083,-2.493c0.824,-0.421 2.311,-1.424 2.454,-2.389c-0.248,0.113 -0.462,0.338 -0.693,0.495c-6.117,4.211 -20.096,3.809 -27.313,3.295l-4.222,-0.355Zm29.056,-6.147c0.556,0.897 0.007,1.277 -0.753,1.633c-3.377,1.58 -14.8,1.877 -18.366,1.928c-3.637,0.054 -7.301,-0.09 -10.814,-0.705c-0.57,-0.1 -3.072,-0.497 -3.189,-1.162c-0.076,-0.419 0.366,-0.732 0.595,-0.873c0.809,-0.503 2.288,-0.849 3.306,-1.034c0.295,-0.054 1.006,-0.131 1.226,-0.221c-1.701,-0.25 -7.093,0.662 -8.272,2.338c-0.744,1.055 0.502,1.544 1.332,1.816c3.107,1.015 9.575,1.221 12.987,1.271c5.099,0.069 17.372,0.017 21.867,-3.074c0.265,-0.177 0.779,-0.554 0.832,-0.919c0.065,-0.455 -0.474,-0.881 -0.751,-0.998Zm12.656,-19.316l0.004,14.48c-0,2.693 -0.879,5.761 -3.579,6.644c0.156,0.327 1.32,1.522 1.63,1.982c0.915,-0.16 2.259,-0.999 2.766,-1.479c0.773,-0.731 1.25,-1.3 1.821,-2.47c1.145,-2.332 0.963,-4.803 0.963,-7.599c-0,-5.715 0.029,-11.435 -0.002,-17.151c-0.42,-0.074 -2.893,-0.026 -3.603,-0.024l-0,5.617Zm-20.898,17.401c-0.951,-0.362 -1.668,-0.78 -2.521,-1.287c-0.495,-0.294 -0.303,-0.271 -0.936,-0.115c-2.579,0.637 -6.76,0.645 -9.469,0.562c-0.696,-0.02 -2.655,-0.082 -3.05,-0.737c-0.252,-0.413 0.09,-0.715 0.223,-0.95c-1.773,0.357 -3.581,1.831 -1.112,3.06c2.777,1.378 8.614,1.393 11.653,0.852c0.866,-0.154 4.798,-1.051 5.212,-1.385Zm59.182,-15.934c0.019,0.317 0.411,1.793 0.539,2.024c0.484,-0.098 1.544,-0.547 2.709,-0.774c1.687,-0.333 4.459,-0.614 5.271,1.206c0.33,0.743 0.569,2.8 0.336,3.035c-0.145,0.107 -1.554,0.117 -1.877,0.138c-1.861,0.118 -3.402,0.26 -5.017,1.11c-1.713,0.897 -3.138,2.474 -2.785,5.254c0.322,2.525 1.673,3.63 4.198,3.945c1.856,0.232 3.316,-0.248 4.803,-1.181c0.646,-0.409 0.919,-0.76 1.141,-0.906l0.327,1.73l2.616,0.004l-0,-11.539c-0,-1.299 -0.101,-2.205 -0.694,-3.176c-1.705,-2.795 -5.642,-2.607 -8.736,-1.885c-0.725,0.168 -2.378,0.629 -2.831,1.015Zm-31.296,-0.012l0.516,2.032c0.868,-0.21 1.39,-0.518 2.697,-0.776c1.019,-0.197 2.127,-0.31 3.217,-0.168c1.099,0.139 1.713,0.552 2.089,1.366c0.191,0.411 0.294,0.896 0.348,1.403l-0.012,1.644c-0.073,0.036 -3.285,0.241 -3.746,0.298c-3.207,0.411 -6.435,2.154 -5.932,6.183c0.311,2.508 1.662,3.649 4.195,3.957c1.389,0.166 2.307,0.007 3.455,-0.48c0.486,-0.205 0.937,-0.442 1.346,-0.702c0.548,-0.34 1.028,-0.831 1.139,-0.892l0.338,1.722l2.604,-0c0.047,-0.527 0.009,-6.97 0.009,-7.687l-0,-3.854c-0,-1.244 -0.093,-2.226 -0.678,-3.149c-1.763,-2.808 -5.595,-2.675 -8.762,-1.91c-0.707,0.17 -2.389,0.633 -2.823,1.013Zm19.52,15.624l4.173,-0c0.138,-0.032 0.432,-0.705 0.512,-0.867c0.157,-0.323 0.283,-0.617 0.43,-0.94c0.281,-0.61 0.539,-1.293 0.784,-1.944c1.007,-2.697 1.821,-5.641 2.515,-8.456c0.17,-0.692 0.973,-4.038 0.973,-4.518l-3.12,-0.002c-0.68,-0.008 -0.405,-0.094 -0.586,1.294c-0.19,1.441 -0.492,2.882 -0.839,4.239c-0.254,0.99 -2.022,7.292 -2.374,7.697l-0.891,-3.375c-0.334,-1.122 -0.64,-2.204 -0.992,-3.307l-1.538,-4.893c-0.176,-0.552 -0.345,-1.141 -0.547,-1.646l-3.685,-0.009c0.015,0.327 2.422,7.848 2.584,8.377c0.44,1.434 0.868,2.749 1.301,4.155c0.423,1.388 0.918,2.819 1.3,4.195Zm20.662,-3.892c-0.224,0.128 -0.461,0.354 -0.717,0.541c-0.734,0.53 -1.646,1.019 -2.613,1.139c-2.867,0.354 -3.541,-2.603 -2.62,-4.126c0.986,-1.629 4.107,-1.539 5.959,-1.547l-0.009,3.993Zm-31.279,-0.224c-0.015,0.371 -0.889,0.866 -1.174,1.048c-1.316,0.833 -3.208,1.385 -4.441,0.15c-1.195,-1.192 -0.859,-3.421 0.43,-4.21c0.647,-0.392 1.487,-0.575 2.368,-0.65c0.703,-0.059 2.142,-0.185 2.802,-0.111l0.015,3.773Zm-35.967,-1.356c-0.736,-0.184 -1.393,-0.642 -1.844,-1.036c-0.392,-0.336 -0.258,-0.254 -1.101,-0.113c-3.037,0.507 -12.074,1.39 -14.662,0.323c-0.336,-0.138 -0.722,-0.346 -0.747,-0.741c-0.027,-0.469 0.371,-0.721 0.537,-0.977c-2.082,0.258 -4.079,2.263 -1.292,3.22c3.142,1.077 9.919,1.113 13.263,0.693c1.1,-0.142 5.003,-0.901 5.846,-1.369Zm3.474,-8.465c1.499,-0.468 3.204,-0.156 4.154,0.688c1.024,0.914 1.038,2.649 0.296,3.993c-0.988,1.791 -3.066,3.391 -4.788,4.469c-0.294,0.187 -0.579,0.327 -0.835,0.516c1.109,-0.117 3.74,-1.306 4.742,-1.923c1.277,-0.789 2.703,-1.942 3.292,-3.435c0.839,-2.118 -0.383,-3.736 -1.684,-4.501c-0.748,-0.438 -1.652,-0.699 -2.703,-0.655c-0.805,0.032 -2.11,0.351 -2.474,0.848Zm-1.385,1.649c-0.396,0.016 -0.925,0.14 -1.325,0.203c-0.462,0.068 -0.904,0.137 -1.366,0.199c-2.783,0.39 -5.868,0.703 -8.652,0.865c-2.174,0.128 -10.375,0.4 -11.599,-0.743c-0.09,-0.512 0.497,-0.835 0.859,-1.032c1.406,-0.753 2.901,-1.007 4.287,-1.441c-1.914,-0.18 -6.726,1.196 -8.465,2.284c-1.881,1.173 1.253,1.64 2.427,1.804c6.865,0.956 13.284,0.444 20.073,-0.522c1.108,-0.157 1.343,-0.093 2.098,-0.571c0.52,-0.333 1.203,-0.681 1.663,-1.046Zm-9.385,-0.217c0.543,-0.185 2.143,-1.497 2.573,-1.936c0.566,-0.587 1.529,-1.673 1.611,-2.928c0.073,-1.14 -0.711,-2.623 -1.193,-3.349c-1.517,-2.301 -2.729,-3.618 -0.674,-6.168c0.686,-0.85 1.431,-1.515 2.301,-2.234c1.042,-0.862 2.749,-2.039 3.97,-2.806l1.391,-0.894c-0.736,0.097 -2.687,0.879 -3.457,1.166c-1.034,0.389 -2.227,0.982 -3.129,1.502c-3.1,1.793 -6.151,4.597 -4.903,8.475c0.843,2.624 3.301,4.195 3.125,6.162c-0.109,1.204 -1.265,2.408 -1.615,3.01Zm-2.117,-2.077l-1.135,-1.647c-0.372,-0.543 -0.736,-1.145 -1.083,-1.745c-0.636,-1.107 -1.399,-2.51 -1.748,-3.905c-0.641,-2.554 0.936,-4.138 2.33,-5.813c0.21,-0.254 0.457,-0.493 0.684,-0.731c1.457,-1.535 3.454,-3.374 5.007,-4.888c1.581,-1.544 2.533,-3.253 2.716,-5.755c0.1,-1.305 -0.15,-4.101 -1.073,-4.606c0.273,1.961 0.338,3.291 -0.455,5.262c-0.92,2.286 -2.416,3.655 -4.154,5.005c-1.418,1.107 -3.742,3.099 -4.965,4.253c-0.793,0.752 -2.133,2.095 -2.688,3.408c-0.82,1.94 -0.007,3.209 0.872,4.564c0.419,0.648 0.845,1.199 1.292,1.778c0.522,0.676 0.984,1.141 1.403,1.67c0.44,0.56 0.982,1.076 1.464,1.608c0.298,0.33 1.237,1.334 1.533,1.542Z" style="fill:#9ea5a7;"/></svg>