<?xml version="1.0" encoding="UTF-8" standalone="no"?><!DOCTYPE svg PUBLIC "-//W3C//DTD SVG 1.1//EN" "http://www.w3.org/Graphics/SVG/1.1/DTD/svg11.dtd"><svg width="100%" height="100%" viewBox="0 0 181 31" version="1.1" xmlns="http://www.w3.org/2000/svg" xmlns:xlink="http://www.w3.org/1999/xlink" xml:space="preserve" xmlns:serif="http://www.serif.com/" style="fill-rule:evenodd;clip-rule:evenodd;stroke-linejoin:round;stroke-miterlimit:2;"><path d="M28.692,6.76c-0.18,-0.576 -0.611,-1.043 -1.151,-1.331l-10.966,-5.249c-0.288,-0.144 -0.612,-0.18 -0.899,-0.18c-0.288,-0 -0.611,-0 -0.899,0.072l-10.967,5.285c-0.539,0.252 -0.934,0.72 -1.078,1.331l-2.697,11.829c-0.108,0.611 0.036,1.223 0.396,1.726l7.586,9.385c0.432,0.431 1.043,0.719 1.654,0.755l12.081,0c0.648,0.072 1.259,-0.216 1.654,-0.755l7.587,-9.385c0.36,-0.503 0.503,-1.115 0.431,-1.726l-2.732,-11.757Z" style="fill:#9ea5a7;fill-rule:nonzero;"/><path d="M27.002,18.05c-0.036,0 -0.072,0 -0.072,-0.036c0,-0.036 -0.072,-0.036 -0.144,-0.036c-0.144,-0.036 -0.288,-0.036 -0.431,-0.036c-0.072,0 -0.144,0 -0.216,-0.036l-0.036,0c-0.396,-0.035 -0.827,-0.107 -1.223,-0.215c-0.107,-0.036 -0.215,-0.144 -0.251,-0.252c0.036,0 0,0 0,0l-0.288,-0.072c0.144,-1.043 0.072,-2.121 -0.144,-3.164c-0.251,-1.043 -0.683,-2.049 -1.258,-2.948l0.216,-0.216l0,-0.036c0,-0.108 0.036,-0.252 0.107,-0.324c0.324,-0.287 0.648,-0.503 1.007,-0.719c0.072,-0.036 0.144,-0.072 0.216,-0.108c0.144,-0.072 0.252,-0.143 0.395,-0.215c0.036,-0.036 0.072,-0.036 0.108,-0.072c0.036,-0.036 0,-0.036 0,-0.072c0.324,-0.252 0.396,-0.683 0.144,-1.007c-0.108,-0.144 -0.323,-0.252 -0.503,-0.252c-0.18,0 -0.36,0.072 -0.504,0.18l-0.036,0.036c-0.036,0.036 -0.071,0.072 -0.107,0.072c-0.108,0.108 -0.216,0.216 -0.288,0.324c-0.036,0.071 -0.108,0.107 -0.144,0.143c-0.252,0.288 -0.575,0.576 -0.899,0.791c-0.072,0.036 -0.144,0.072 -0.216,0.072c-0.035,0 -0.107,0 -0.143,-0.036l-0.036,0l-0.288,0.18c-0.288,-0.287 -0.611,-0.575 -0.899,-0.863c-1.33,-1.042 -2.984,-1.69 -4.674,-1.869l-0.036,-0.288l0,0.036c-0.108,-0.072 -0.144,-0.18 -0.18,-0.288c0,-0.395 0,-0.791 0.072,-1.222l0,-0.036c0,-0.072 0.036,-0.144 0.036,-0.216c0.036,-0.144 0.036,-0.288 0.072,-0.431l0,-0.216c0.036,-0.36 -0.252,-0.719 -0.611,-0.755c-0.216,-0.036 -0.432,0.072 -0.612,0.251c-0.143,0.144 -0.215,0.324 -0.215,0.504l0,0.18c0,0.143 0.036,0.287 0.072,0.431c0.036,0.072 0.036,0.144 0.036,0.216l0,0.036c0.071,0.395 0.071,0.791 0.071,1.222c-0.035,0.108 -0.071,0.216 -0.179,0.288l0,0.072l-0.036,0.287c-0.396,0.036 -0.791,0.108 -1.223,0.18c-1.69,0.36 -3.236,1.259 -4.422,2.517l-0.216,-0.144l-0.036,0c-0.036,0 -0.072,0.036 -0.144,0.036c-0.072,0 -0.144,-0.036 -0.216,-0.072c-0.323,-0.251 -0.647,-0.539 -0.898,-0.827c-0.036,-0.072 -0.108,-0.108 -0.144,-0.143c-0.108,-0.108 -0.18,-0.216 -0.288,-0.324c-0.036,-0.036 -0.072,-0.036 -0.108,-0.072l-0.036,-0.036c-0.144,-0.108 -0.323,-0.18 -0.503,-0.18c-0.216,0 -0.396,0.072 -0.503,0.252c-0.216,0.324 -0.144,0.755 0.143,1.007c0.036,0 0.036,0.036 0.036,0.036c0,0 0.072,0.072 0.108,0.072c0.108,0.072 0.252,0.143 0.396,0.215c0.072,0.036 0.144,0.072 0.215,0.108c0.36,0.216 0.72,0.432 1.007,0.719c0.072,0.072 0.144,0.216 0.108,0.324l0,-0.036l0.216,0.216c-0.036,0.072 -0.072,0.108 -0.108,0.18c-1.115,1.761 -1.582,3.847 -1.259,5.896l-0.287,0.072c0,0.036 -0.036,0.036 -0.036,0.036c-0.036,0.108 -0.144,0.18 -0.252,0.252c-0.395,0.108 -0.791,0.18 -1.222,0.216c-0.072,0 -0.144,0 -0.216,0.036c-0.144,0 -0.288,0.035 -0.432,0.035c-0.035,0 -0.071,0.036 -0.143,0.036c-0.036,0 -0.036,0 -0.072,0.036c-0.396,0.072 -0.647,0.432 -0.576,0.827c0.072,0.324 0.396,0.54 0.72,0.504c0.071,-0 0.107,-0 0.179,-0.036c0.036,-0 0.036,-0 0.036,-0.036c0,-0.036 0.108,-0 0.144,-0c0.144,-0.036 0.288,-0.108 0.396,-0.144c0.072,-0.036 0.143,-0.072 0.215,-0.072l0.036,-0c0.396,-0.144 0.755,-0.252 1.187,-0.324l0.036,-0c0.108,-0 0.216,0.036 0.287,0.108c0.036,-0 0.036,0.036 0.036,0.036l0.324,-0.036c0.539,1.654 1.546,3.128 2.948,4.207c0.324,0.252 0.612,0.468 0.971,0.647l-0.18,0.252c0,0.036 0.036,0.036 0.036,0.036c0.072,0.108 0.072,0.252 0.036,0.36c-0.144,0.359 -0.359,0.719 -0.575,1.042l0,0.036c-0.036,0.072 -0.072,0.108 -0.144,0.18c-0.072,0.072 -0.144,0.216 -0.252,0.36c-0.035,0.035 -0.035,0.071 -0.071,0.107c0,-0 0,0.036 -0.036,0.036c-0.18,0.36 -0.036,0.791 0.287,0.971c0.072,0.036 0.18,0.072 0.252,0.072c0.288,-0 0.539,-0.18 0.683,-0.431c0,-0 0,-0.036 0.036,-0.036c0,-0.036 0.036,-0.072 0.072,-0.108c0.036,-0.144 0.108,-0.252 0.144,-0.396l0.072,-0.215c0.108,-0.396 0.287,-0.756 0.467,-1.115c0.072,-0.108 0.18,-0.18 0.288,-0.216c0.036,-0 0.036,-0 0.036,-0.036l0.144,-0.287c1.006,0.395 2.049,0.575 3.128,0.575c0.647,-0 1.294,-0.072 1.941,-0.252c0.396,-0.072 0.791,-0.216 1.151,-0.323l0.144,0.251c0.036,-0 0.036,-0 0.036,0.036c0.108,0.036 0.215,0.108 0.287,0.216c0.18,0.36 0.36,0.719 0.468,1.115l0,0.036l0.072,0.215c0.036,0.144 0.072,0.288 0.144,0.396c0.035,0.036 0.035,0.072 0.071,0.108c0,-0 0,0.036 0.036,0.036c0.144,0.251 0.396,0.431 0.684,0.431c0.107,-0 0.179,-0.036 0.287,-0.072c0.144,-0.072 0.288,-0.216 0.324,-0.395c0.036,-0.18 0.036,-0.36 -0.036,-0.54c0,-0.036 -0.036,-0.036 -0.036,-0.036c0,-0.036 -0.036,-0.072 -0.072,-0.108c-0.072,-0.143 -0.144,-0.251 -0.252,-0.359c-0.036,-0.072 -0.072,-0.108 -0.144,-0.18l0,-0.072c-0.251,-0.323 -0.431,-0.683 -0.575,-1.042c-0.036,-0.108 -0.036,-0.252 0.036,-0.36c0,-0.036 0.036,-0.036 0.036,-0.036l-0.108,-0.288c1.834,-1.114 3.236,-2.84 3.883,-4.89l0.288,0.036c0.036,0 0.036,-0.036 0.036,-0.036c0.072,-0.072 0.18,-0.107 0.288,-0.107l0.036,0c0.395,0.071 0.791,0.179 1.15,0.323l0.036,0c0.072,0.036 0.144,0.072 0.216,0.072c0.144,0.072 0.252,0.144 0.395,0.18c0.036,0 0.072,0.036 0.144,0.036c0.036,0 0.036,0 0.072,0.036c0.072,0.036 0.108,0.036 0.18,0.036c0.324,0 0.611,-0.216 0.719,-0.504c-0.036,-0.395 -0.324,-0.683 -0.647,-0.755Zm-10.391,-1.114l-0.971,0.467l-0.971,-0.467l-0.252,-1.043l0.683,-0.863l1.079,-0l0.683,0.863l-0.251,1.043Zm5.86,-2.338c0.18,0.756 0.216,1.511 0.144,2.266l-3.416,-0.971c-0.323,-0.072 -0.503,-0.396 -0.431,-0.719c0.036,-0.108 0.072,-0.18 0.144,-0.252l2.696,-2.445c0.396,0.647 0.684,1.366 0.863,2.121Zm-1.941,-3.451l-2.949,2.085c-0.251,0.144 -0.611,0.108 -0.791,-0.144c-0.072,-0.072 -0.107,-0.144 -0.107,-0.251l-0.216,-3.632c1.582,0.18 2.984,0.863 4.063,1.942Zm-6.508,-1.834l0.719,-0.144l-0.18,3.596c0,0.323 -0.287,0.575 -0.611,0.575c-0.108,-0 -0.18,-0.036 -0.288,-0.072l-2.984,-2.121c0.935,-0.899 2.085,-1.546 3.344,-1.834Zm-4.387,3.164l2.661,2.373c0.252,0.216 0.288,0.575 0.072,0.827c-0.072,0.108 -0.144,0.144 -0.288,0.18l-3.487,1.007c-0.108,-1.51 0.251,-3.057 1.042,-4.387Zm-0.611,6.077l3.56,-0.612c0.287,-0 0.575,0.18 0.611,0.468c0.036,0.108 0.036,0.251 -0.036,0.359l-1.366,3.308c-1.259,-0.827 -2.266,-2.085 -2.769,-3.523Zm8.162,4.458c-0.503,0.108 -1.007,0.18 -1.546,0.18c-0.755,-0 -1.546,-0.144 -2.265,-0.36l1.761,-3.2c0.18,-0.215 0.468,-0.287 0.72,-0.144c0.107,0.072 0.179,0.144 0.287,0.252l1.726,3.128c-0.216,0.036 -0.431,0.072 -0.683,0.144Zm4.387,-3.128c-0.54,0.863 -1.295,1.618 -2.158,2.157l-1.402,-3.38c-0.072,-0.287 0.072,-0.575 0.324,-0.683c0.107,-0.036 0.215,-0.072 0.323,-0.072l3.596,0.612c-0.18,0.503 -0.396,0.97 -0.683,1.366Z" style="fill:#fff;fill-rule:nonzero;"/><path d="M174.205,22.473c0.503,0.036 1.043,-0.036 1.51,-0.216c0.288,-0.144 0.468,-0.467 0.432,-0.791c-0.036,-0.36 -0.252,-0.683 -0.576,-0.791c-0.539,-0.324 -1.15,-0.611 -1.761,-0.791c-0.612,-0.216 -1.151,-0.467 -1.654,-0.719c-0.468,-0.216 -0.863,-0.504 -1.259,-0.863c-0.359,-0.36 -0.611,-0.755 -0.791,-1.223c-0.216,-0.539 -0.288,-1.114 -0.288,-1.689c-0.035,-1.187 0.504,-2.338 1.439,-3.057c0.971,-0.755 2.265,-1.114 3.919,-1.114c0.791,0 1.618,0.072 2.409,0.251c0.611,0.108 1.222,0.252 1.834,0.468l-0.683,3.056c-0.504,-0.18 -0.971,-0.288 -1.475,-0.431c-0.575,-0.144 -1.186,-0.18 -1.762,-0.18c-1.222,0 -1.833,0.323 -1.833,1.007c0,0.143 0.036,0.287 0.072,0.431c0.072,0.144 0.179,0.252 0.323,0.36c0.144,0.107 0.36,0.215 0.612,0.359c0.251,0.144 0.611,0.288 1.042,0.431c0.719,0.252 1.438,0.576 2.086,0.935c0.503,0.252 0.935,0.576 1.294,1.007c0.324,0.324 0.539,0.719 0.683,1.187c0.144,0.503 0.216,1.006 0.216,1.51c0.072,1.222 -0.503,2.409 -1.546,3.092c-1.007,0.683 -2.445,1.043 -4.315,1.043c-1.043,0.036 -2.049,-0.072 -3.056,-0.324c-0.575,-0.144 -1.115,-0.323 -1.654,-0.503l0.647,-3.164c0.647,0.251 1.331,0.467 2.014,0.611c0.719,0.036 1.402,0.108 2.121,0.108Zm-19.812,-3.955c-0.036,-1.079 0.18,-2.158 0.54,-3.165c0.323,-0.862 0.827,-1.618 1.474,-2.301c0.611,-0.611 1.294,-1.078 2.085,-1.366c0.791,-0.324 1.618,-0.467 2.445,-0.467c1.942,0 3.488,0.611 4.603,1.797c1.114,1.187 1.69,2.949 1.69,5.25c0,0.216 0,0.467 -0.036,0.755c0,0.288 -0.036,0.503 -0.036,0.719l-8.773,0c0.071,0.755 0.467,1.474 1.114,1.906c0.791,0.503 1.726,0.755 2.661,0.719c0.683,0 1.402,-0.072 2.085,-0.18c0.576,-0.108 1.151,-0.288 1.69,-0.539l0.54,3.164c-0.252,0.144 -0.54,0.216 -0.827,0.323c-0.396,0.108 -0.791,0.216 -1.187,0.252c-0.431,0.072 -0.863,0.144 -1.366,0.216c-0.468,0.036 -0.971,0.072 -1.474,0.072c-1.115,0.036 -2.194,-0.144 -3.236,-0.54c-0.863,-0.323 -1.618,-0.827 -2.266,-1.474c-0.611,-0.647 -1.042,-1.438 -1.33,-2.265c-0.252,-0.971 -0.396,-1.942 -0.396,-2.876Zm9.097,-1.475c0,-0.323 -0.072,-0.647 -0.18,-0.97c-0.071,-0.324 -0.251,-0.576 -0.431,-0.827c-0.216,-0.252 -0.467,-0.468 -0.755,-0.612c-0.36,-0.179 -0.719,-0.251 -1.115,-0.251c-0.395,0 -0.755,0.072 -1.114,0.251c-0.288,0.144 -0.576,0.324 -0.791,0.576c-0.216,0.251 -0.396,0.539 -0.504,0.863c-0.108,0.323 -0.18,0.647 -0.215,0.97l5.105,0Zm-19.632,-8.917l3.884,-0.611l0,4.027l4.674,0l0,3.236l-4.674,0l0,4.818c-0.036,0.683 0.107,1.367 0.431,1.942c0.288,0.467 0.863,0.719 1.762,0.719c0.431,0 0.863,-0.036 1.258,-0.108c0.432,-0.072 0.827,-0.18 1.223,-0.323l0.539,3.02c-0.503,0.216 -1.043,0.359 -1.582,0.503c-0.683,0.144 -1.402,0.216 -2.121,0.216c-0.899,0.036 -1.798,-0.108 -2.625,-0.431c-0.647,-0.252 -1.223,-0.684 -1.654,-1.187c-0.431,-0.539 -0.719,-1.187 -0.899,-1.87c-0.18,-0.791 -0.252,-1.618 -0.216,-2.409l0,-11.542Zm-15.712,10.392c-0.036,-1.079 0.179,-2.158 0.539,-3.165c0.324,-0.862 0.827,-1.618 1.474,-2.301c0.611,-0.611 1.295,-1.078 2.086,-1.366c0.791,-0.324 1.618,-0.467 2.445,-0.467c1.941,0 3.487,0.611 4.602,1.797c1.115,1.187 1.69,2.949 1.69,5.25c0,0.216 0,0.467 -0.036,0.755c-0.036,0.288 -0.036,0.503 -0.036,0.719l-8.809,0c0.072,0.755 0.467,1.474 1.114,1.906c0.791,0.503 1.726,0.755 2.661,0.719c0.683,0 1.402,-0.072 2.086,-0.18c0.575,-0.108 1.15,-0.288 1.725,-0.539l0.54,3.164c-0.252,0.144 -0.54,0.216 -0.827,0.323c-0.396,0.108 -0.791,0.216 -1.187,0.252c-0.431,0.072 -0.863,0.144 -1.366,0.216c-0.467,0.036 -0.971,0.072 -1.474,0.072c-1.115,0.036 -2.194,-0.144 -3.236,-0.54c-0.863,-0.323 -1.618,-0.827 -2.265,-1.474c-0.612,-0.647 -1.043,-1.438 -1.331,-2.265c-0.287,-0.971 -0.431,-1.942 -0.395,-2.876Zm9.096,-1.475c0,-0.323 -0.071,-0.647 -0.179,-0.97c-0.072,-0.324 -0.252,-0.576 -0.432,-0.827c-0.215,-0.252 -0.467,-0.468 -0.755,-0.612c-0.359,-0.179 -0.719,-0.251 -1.114,-0.251c-0.396,0 -0.756,0.072 -1.115,0.251c-0.288,0.144 -0.539,0.324 -0.755,0.576c-0.216,0.251 -0.396,0.539 -0.504,0.863c-0.107,0.323 -0.179,0.647 -0.215,0.97l5.069,0Zm-23.838,-5.033c0.827,-0.216 1.69,-0.396 2.553,-0.54c1.078,-0.179 2.193,-0.251 3.272,-0.251c0.97,-0.036 1.941,0.143 2.876,0.467c0.719,0.252 1.366,0.683 1.834,1.258c0.467,0.576 0.791,1.259 0.971,1.978c0.215,0.827 0.287,1.69 0.287,2.553l0,7.73l-3.847,0l0,-7.227c0,-1.258 -0.18,-2.121 -0.503,-2.66c-0.324,-0.504 -0.935,-0.791 -1.834,-0.791c-0.288,0 -0.575,0 -0.899,0.036c-0.324,0 -0.575,0.035 -0.827,0.071l0,10.571l-3.883,0l0,-13.195Zm-2.733,2.984c-0.359,-0.072 -0.755,-0.18 -1.222,-0.252c-0.504,-0.108 -1.007,-0.144 -1.511,-0.144c-0.287,0 -0.575,0.036 -0.898,0.072c-0.252,0.036 -0.504,0.072 -0.755,0.144l0,10.463l-3.884,-0l0,-13.016c0.791,-0.287 1.618,-0.503 2.445,-0.683c1.043,-0.252 2.122,-0.359 3.164,-0.323c0.252,-0 0.504,0.036 0.755,0.036c0.288,-0 0.576,0.035 0.899,0.107c0.288,0.036 0.576,0.072 0.899,0.144c0.252,0.036 0.504,0.108 0.755,0.216l-0.647,3.236Zm-24.126,3.524c-0.036,-1.079 0.179,-2.158 0.539,-3.164c0.324,-0.863 0.827,-1.618 1.474,-2.302c0.611,-0.611 1.295,-1.078 2.086,-1.366c0.791,-0.324 1.618,-0.467 2.445,-0.467c1.941,0 3.487,0.611 4.602,1.797c1.115,1.187 1.69,2.949 1.69,5.214c0,0.216 0,0.467 -0.036,0.755c-0.036,0.288 -0.036,0.503 -0.036,0.719l-8.809,0c0.072,0.755 0.467,1.474 1.114,1.906c0.792,0.503 1.726,0.755 2.661,0.719c0.683,0 1.402,-0.072 2.086,-0.18c0.575,-0.108 1.15,-0.287 1.69,-0.503l0.539,3.164c-0.252,0.144 -0.539,0.216 -0.827,0.324c-0.396,0.107 -0.791,0.215 -1.187,0.251c-0.431,0.072 -0.863,0.144 -1.366,0.216c-0.467,0.036 -0.971,0.072 -1.474,0.072c-1.115,0.036 -2.193,-0.144 -3.236,-0.54c-0.863,-0.323 -1.618,-0.827 -2.265,-1.474c-0.612,-0.647 -1.043,-1.438 -1.331,-2.265c-0.215,-0.971 -0.359,-1.906 -0.359,-2.876Zm9.132,-1.475c0,-0.323 -0.071,-0.647 -0.179,-0.97c-0.072,-0.324 -0.252,-0.576 -0.432,-0.827c-0.215,-0.252 -0.467,-0.468 -0.755,-0.612c-0.359,-0.179 -0.719,-0.251 -1.114,-0.251c-0.396,-0 -0.756,0.072 -1.115,0.251c-0.288,0.144 -0.575,0.324 -0.791,0.576c-0.216,0.251 -0.396,0.539 -0.504,0.863c-0.107,0.323 -0.179,0.647 -0.215,0.97l5.105,-0Zm-15.425,1.259c0,-2.517 -0.934,-3.739 -2.768,-3.739c-0.396,-0 -0.791,0.035 -1.187,0.143c-0.323,0.072 -0.647,0.216 -0.935,0.396l0,7.047c0.18,0.036 0.432,0.072 0.72,0.108c0.287,0.036 0.611,0.036 0.97,0.036c0.935,0.072 1.834,-0.324 2.409,-1.079c0.54,-0.863 0.827,-1.869 0.791,-2.912Zm3.956,0.144c0,1.006 -0.144,2.013 -0.504,2.984c-0.287,0.863 -0.755,1.618 -1.366,2.265c-0.647,0.648 -1.402,1.151 -2.229,1.474c-0.971,0.36 -1.978,0.504 -3.021,0.504c-0.467,-0 -0.97,-0.036 -1.474,-0.072c-0.503,-0.036 -1.007,-0.108 -1.51,-0.144c-0.467,-0.072 -0.935,-0.144 -1.402,-0.252c-0.468,-0.072 -0.863,-0.179 -1.187,-0.323l0,-19.237l3.883,-0.611l0,6.832c0.432,-0.18 0.899,-0.324 1.367,-0.432c0.503,-0.108 1.006,-0.144 1.51,-0.144c0.899,-0 1.762,0.144 2.589,0.54c0.719,0.323 1.366,0.827 1.869,1.438c0.54,0.683 0.935,1.438 1.151,2.265c0.216,0.899 0.324,1.906 0.324,2.913Zm-16.396,6.328c-0.827,0.216 -1.69,0.395 -2.553,0.503c-1.079,0.18 -2.193,0.252 -3.272,0.252c-1.007,0.036 -1.978,-0.144 -2.913,-0.467c-0.719,-0.288 -1.33,-0.72 -1.833,-1.295c-0.468,-0.611 -0.791,-1.294 -0.971,-2.049c-0.216,-0.827 -0.288,-1.726 -0.288,-2.589l0,-7.587l3.883,-0l0,7.155c0,1.259 0.18,2.158 0.504,2.697c0.323,0.539 0.935,0.827 1.834,0.827c0.287,-0 0.575,-0 0.899,-0.036c0.323,-0.036 0.575,-0.036 0.826,-0.108l0,-10.535l3.884,-0l0,13.232Zm-22.652,-8.27c0.395,-0.431 0.755,-0.863 1.186,-1.294c0.396,-0.468 0.791,-0.899 1.187,-1.331c0.395,-0.467 0.755,-0.863 1.078,-1.258c0.324,-0.396 0.648,-0.755 0.899,-1.043l4.603,-0c-0.935,1.043 -1.834,2.086 -2.697,3.056c-0.899,0.971 -1.834,1.978 -2.877,2.985c0.576,0.539 1.115,1.078 1.618,1.69c0.54,0.647 1.079,1.294 1.618,2.013c0.504,0.683 1.007,1.402 1.439,2.086c0.431,0.683 0.791,1.33 1.078,1.905l-4.458,-0c-0.288,-0.467 -0.611,-0.935 -0.971,-1.474c-0.36,-0.539 -0.755,-1.079 -1.115,-1.654c-0.395,-0.539 -0.827,-1.079 -1.294,-1.582c-0.396,-0.467 -0.827,-0.899 -1.294,-1.258l0,6.004l-3.884,-0l0,-19.704l3.884,-0.611l0,11.47Z" style="fill:#9ea5a7;fill-rule:nonzero;"/></svg>