<?xml version="1.0" encoding="UTF-8" standalone="no"?>
<!DOCTYPE svg PUBLIC "-//W3C//DTD SVG 1.1//EN" "http://www.w3.org/Graphics/SVG/1.1/DTD/svg11.dtd">
<svg width="100%" height="100%" viewBox="0 0 450 400" version="1.1" xmlns="http://www.w3.org/2000/svg" xmlns:xlink="http://www.w3.org/1999/xlink" xml:space="preserve" xmlns:serif="http://www.serif.com/" style="fill-rule:evenodd;clip-rule:evenodd;stroke-linejoin:round;stroke-miterlimit:2;">
    <g transform="matrix(1,0,0,1,-2270,0)">
        <g transform="matrix(1.13636,0,0,1.0101,2270,0)">
            <g transform="matrix(1,0,0,1,6.04798,0)">
                <g transform="matrix(0.778176,0,0,0.875448,2.27374e-13,0)">
                    <path d="M349.438,361.311C335.572,384.235 335.432,380.56 327.364,378.354C251.647,357.647 180.343,448.894 250.411,440.63C279.801,437.163 283.977,431.392 308.911,436C326.694,439.282 338.911,422.805 356.02,420.789C400.911,415.5 392.411,432 430.878,440.846C456.411,446.718 531.411,380 436.411,368C421.999,323.273 374.318,320.18 349.438,361.311Z" style="fill:rgb(103,66,128);fill-opacity:0.1;"/>
                </g>
                <g transform="matrix(0.778176,0,0,0.875448,2.27374e-13,0)">
                    <path d="M308.508,420.281C322.375,397.357 341.343,401.833 349.411,404.039C425.128,424.746 444.98,372.065 374.911,380.329C345.521,383.796 366.578,341.686 341.644,337.078C323.861,333.796 327.967,344.128 315.535,349.289C304.952,353.682 311.627,383.949 304.508,375.5C283.911,392 250.911,366 220.911,419.242C219.323,464.969 283.629,461.411 308.508,420.281Z" style="fill:rgb(103,66,128);fill-opacity:0.1;"/>
                </g>
                <g transform="matrix(0.778176,0,0,0.875448,2.27374e-13,0)">
                    <path d="M40.911,173.5C26.758,256.939 64.352,331.393 150.715,315.862C280.259,292.566 239.475,375.687 307.338,367.419C375.201,359.151 408.867,258.715 294.058,244.647C217.518,235.269 132.143,184.553 40.911,173.5Z" style="fill:rgb(103,66,128);fill-opacity:0.1;"/>
                </g>
                <g transform="matrix(0.778176,0,0,0.875448,2.27374e-13,0)">
                    <path d="M258.804,233.597C205.591,235.865 174.849,247.28 166.578,267.841C154.172,298.682 244.309,244.077 264.782,304.771C285.255,365.466 384.643,340.179 359.814,283.834C343.262,246.271 309.592,229.526 258.804,233.597Z" style="fill:rgb(103,66,128);fill-opacity:0.1;"/>
                </g>
                <g transform="matrix(0.778176,0,0,0.875448,2.27374e-13,0)">
                    <path d="M226.119,257.222C-18.778,362.423 -10.257,43.513 178.872,105.82C370.647,168.998 326.5,13 438.803,0C481.327,0.514 502.852,22.182 501,60.5C498.036,121.827 422.589,131.46 457,196.5C478.371,236.892 496.676,261.306 499.5,318C502.537,378.967 486.266,425.941 438.803,432.63C382.503,440.564 372.328,345.885 293.402,414.188C205.359,490.381 201.275,392.479 257.763,370.4C357.133,331.563 320.518,216.67 226.119,257.222Z" style="fill:white;"/>
                </g>
                <g transform="matrix(0.778176,0,0,0.875448,2.27374e-13,0)">
                    <path d="M226.119,257.222C-18.778,362.423 -10.257,43.513 178.872,105.82C370.647,168.998 326.5,13 438.803,0C481.327,0.514 502.852,22.182 501,60.5C498.036,121.827 422.589,131.46 457,196.5C478.371,236.892 496.676,261.306 499.5,318C502.537,378.967 486.266,425.941 438.803,432.63C382.503,440.564 372.328,345.885 293.402,414.188C205.359,490.381 201.275,392.479 257.763,370.4C357.133,331.563 320.518,216.67 226.119,257.222Z" style="fill:rgb(250,129,44);fill-opacity:0.15;"/>
                </g>
            </g>
        </g>
        <g transform="matrix(1.13636,0,0,1.0101,2270,0)">
            <g transform="matrix(1,0,0,1,0,14.85)">
                <g transform="matrix(0.778176,0,0,0.97377,2.27374e-13,-34.4066)">
                    <path d="M120.5,381C187.05,381 241,367.345 241,350.5C241,333.655 187.05,320 120.5,320C53.95,320 0,333.655 0,350.5C0,367.345 53.95,381 120.5,381Z" style="fill:rgb(236,229,206);fill-rule:nonzero;"/>
                </g>
                <g transform="matrix(1,0,0,1,-4.4,-0.99)">
                    <g>
                        <g transform="matrix(0.778176,0,0,0.875448,2.27374e-13,0)">
                            <path d="M188.446,219.402L192.99,219.402C192.382,213.565 191.615,207.73 190.858,201.895L189.312,201.895C188.53,196.059 187.597,190.224 186.643,184.388L184.998,184.388C184.019,178.553 182.871,172.717 181.692,166.882L179.929,166.882C178.707,161.047 177.267,155.21 175.784,149.352L173.903,149.352C172.331,143.517 170.466,137.68 168.593,131.845L166.617,131.845C164.384,126.01 161.944,120.174 159.129,114.339L157.241,114.339C154.02,108.503 150.014,102.667 145.225,96.807L139.085,96.807C143.263,102.667 147.519,108.503 151.38,114.339L149.918,114.339C153.651,120.174 157.15,126.01 160.482,131.845L158.952,131.845C162.193,137.68 165.143,143.517 168.05,149.352L166.588,149.352C169.315,155.21 171.924,161.047 174.468,166.882L173.104,166.882C175.406,172.717 177.699,178.553 179.871,184.388L178.598,184.388C180.624,190.224 182.641,196.059 184.509,201.895L183.308,201.895C185.089,207.73 186.856,213.565 188.446,219.402ZM203.629,324.487C204.066,318.653 204.389,312.817 204.624,306.982L203.301,306.982C203.523,301.147 203.583,295.31 203.634,289.475L202.314,289.475C202.325,283.64 202.211,277.804 202.089,271.945L200.758,271.945C200.593,266.11 200.314,260.274 200.038,254.438L198.683,254.438C198.368,248.603 197.927,242.767 197.496,236.932L196.101,236.932C195.644,231.097 195.039,225.26 194.452,219.425L187.322,219.425C188.874,225.26 190.41,231.097 191.757,236.932L190.679,236.932C192.018,242.767 193.338,248.603 194.48,254.438L193.432,254.438C194.571,260.274 195.67,266.11 196.622,271.945L195.593,271.945C196.548,277.804 197.43,283.64 198.207,289.475L197.183,289.475C197.956,295.31 198.606,301.147 199.194,306.982L198.169,306.982C198.746,312.817 199.152,318.653 199.547,324.487L198.529,324.487C198.829,330.324 199.019,336.16 199.182,341.995L203.094,341.995C203.777,336.16 204.481,330.324 204.945,324.487L203.629,324.487Z" style="fill:rgb(174,134,94);"/>
                        </g>
                        <g transform="matrix(0.778176,0,0,0.875448,2.27374e-13,0)">
                            <path d="M134.671,78.366C132.011,73.198 137.408,71.475 138.926,68.371C145.343,55.245 152.97,41.868 167.024,42.139C174.007,42.274 175.573,41.268 177.58,43.239C179.587,45.21 176.72,44.958 176.72,44.958C174.776,46.798 183.789,46.875 181.685,47.945C179.583,49.012 174.421,47.766 171.307,49.311C168.195,50.855 170.875,51.621 169.902,52.332C168.928,53.043 165.412,52.419 164.467,53.311C163.522,54.204 168.621,53.275 162.537,58.342C161.139,59.505 158.694,57.997 157.498,59.361C156.037,61.032 159.455,62.776 151.478,68.949C150.494,69.709 147.322,68.672 146.284,69.334C144.602,70.408 141.201,76.647 140.277,78.536C140.029,79.042 137.22,87.718 140.042,84.202C141.528,82.349 145.137,74.671 146.872,73.103C148.699,71.455 150.404,72.25 150.753,72.124C152.626,71.455 154.147,68.637 156.075,68.259C156.748,68.126 156.961,68.745 157.34,69.352C157.34,69.352 166.081,62.906 178.522,67.327C190.962,71.748 190.372,71.222 192.699,72.052C195.027,72.879 190.512,72.293 190.174,73.042C189.422,74.711 199.051,74.783 199.149,76.793C199.245,78.804 196.391,78.492 197.856,79.06C200.895,80.236 204.043,81.265 206.777,83.112C207.58,83.656 204.801,84 203.045,83.331C202.584,83.156 202.089,83.158 204.179,84.528C206.751,86.212 206.11,88.428 205.627,87.77C205.627,87.77 201.233,82.851 202.111,86.127C203.474,91.221 202.422,92.409 202.042,91.629C201.661,90.85 200.847,86.934 199.506,88.195C198.167,89.455 200.916,92.304 196.908,89.609C192.901,86.914 191.454,84.294 190.559,87.501C189.662,90.708 189.279,88.545 186.277,87.147C183.274,85.75 183.981,87.663 177.16,86.969C172.9,86.534 173.132,77.753 172.438,79.569C170.169,85.494 169.907,85.725 168.866,85.918C166.956,86.269 166.572,86.217 165.321,86.212C163.03,86.205 162.266,80.944 161.117,81.162C159.809,81.41 163.761,87.912 161.575,86.416C161.312,86.237 159.446,86.058 158.288,85.716C155.201,84.801 154.635,84.827 154.077,86.101C153.519,87.373 152.123,85.42 149.398,86.548C146.72,87.655 138.593,90.647 140.292,90.665C143.03,90.694 142.37,91.075 145.753,89.573C147.787,88.67 147.571,89.214 150.262,89.188C152.955,89.161 155.551,87.073 157.516,87.125C161.766,87.237 157.08,90.173 160.69,91.303C164.299,92.434 167.617,87.836 176.045,94.306C179.329,96.826 188.161,95.105 184.096,98.207C182.788,99.206 180.869,102.235 181.639,102.014C182.896,101.652 184.487,100.469 185.693,100.916C190.683,102.763 204.546,107.833 199.517,108.631C198.194,108.841 196.268,109.932 198.92,110.77C201.572,111.607 204.916,111.695 204.793,113.043C204.669,114.392 201.79,111.646 201.582,113.479C201.374,115.31 210.157,118.219 210.339,119.746C210.52,121.272 208.607,120.689 208.607,120.689C207.147,119.541 208.412,122.08 210.966,123.843C212.725,125.057 217.494,126.854 216.589,128.191C215.683,129.528 213.498,126.653 212.678,127.508C211.857,128.36 218.267,133.967 217.053,134.502C215.84,135.038 214.333,132.782 212.437,131.299C210.544,129.815 209.033,129.03 205.975,127.814C205.141,127.48 207.608,129.61 207.047,130.259C206.486,130.909 206.631,129.234 204.647,127.97C202.508,126.61 202.048,126.678 198.853,123.966C195.658,121.253 194.4,118.7 193.749,119.209C191.65,120.86 193.426,125.021 189.796,118.768C187.3,114.468 186.567,115.461 186.567,115.461C186.567,115.461 187.62,117.764 186.494,118.438C185.905,118.793 178.841,111.265 170.748,106.582C169.943,106.116 171.656,111.531 169.477,110.745C166.248,109.58 163.964,104.957 162.924,104.413C157.305,101.481 158.846,106.93 150.546,101.181C142.51,95.617 141.448,101.022 142.28,102.664C143.114,104.305 147.213,112.56 146.392,113.413C145.571,114.267 144.705,114.737 143.959,113.237C143.214,111.735 141.599,107.099 141.297,110.528C141.146,112.256 139.5,111.21 143.298,115.737C147.098,120.266 146.565,122.665 146.565,122.665C146.565,122.664 150.021,127.88 148.025,127.779C146.026,127.679 144.695,121.839 142.484,122.323C140.271,122.808 138.892,120.45 142.522,125.944C146.153,131.438 150.613,130.708 151.197,135.045C151.783,139.385 155.104,136.315 155.606,141.136C156.107,145.959 156.606,144.754 158.047,150.973C158.612,153.417 156.639,155.276 157.395,157.286C158.155,159.296 160.4,161.29 159.323,162.97C157.168,166.33 156.506,167.205 156.794,168.564C157.194,170.44 157.45,178.332 153.453,168.536C152.563,166.356 151.412,165.508 150.312,163.34C148.99,160.737 148.198,156.764 147.728,155.246C145.799,149.016 146.128,145.729 145.497,146.499C144.486,147.733 146.97,153.377 141.351,145.411C135.377,136.942 131.852,111.668 133.56,108.675C134.784,106.531 132.676,105.406 130.864,108.08C129.053,110.752 129.321,112.42 128.129,117.32C127.684,119.157 126.769,121.501 125.83,123.958C125.373,125.154 123.559,118.492 123.089,119.498C122.682,120.369 124.757,126.322 124.338,127.689C123.449,130.589 122.231,133.135 121.917,134.923C121.199,139.032 122.557,141.514 121.606,142.469C120.655,143.423 120.202,139.607 119.208,140.179C118.211,140.752 117.913,141.822 118.365,145.64C118.819,149.456 118.565,150.907 118.565,150.907C118.565,150.907 117.783,150.895 116.389,149.903C114.994,148.912 116.053,152.462 116.367,154.51C116.68,156.559 118.717,155.795 115.958,160.045C115.011,161.507 112.86,156.284 111.772,158.287C110.682,160.289 111.479,164.881 110.427,165.432C108.825,166.273 109.202,163.472 108.227,168.411C107.252,173.349 106.64,174.921 106.469,173.337C106.469,173.337 106.808,171.402 105.384,164.177C103.961,156.949 103.097,158.045 103.643,154.276C104.191,150.509 105.602,148.293 105.305,147.949C104.467,146.974 103.892,147.406 102.536,149.722C100.446,153.293 99.684,154.323 99.835,152.542C99.94,151.321 99.035,142.477 103.257,139.293C106.823,136.605 105.63,130.66 105.959,130.136C106.735,128.9 105.293,128.695 104.258,128.342C102.203,127.646 108.305,126.922 108.546,126.227C109.426,123.683 106.062,124.422 106.062,124.422C106.062,124.422 107.088,121.113 110.506,118.222C113.922,115.331 109.159,118.236 109.023,117.09C108.888,115.945 111.178,113.729 112.901,110.917C114.626,108.103 120.24,101.609 122.928,100.959C125.616,100.308 129.205,98.022 128.031,97.693C126.857,97.362 119.568,97.753 117.882,99.079C116.195,100.403 113.196,108.599 112.287,109.313C111.378,110.027 110.632,108.525 110.632,108.525C110.632,108.525 112.398,105.471 110.533,105.892C108.668,106.313 107.647,110.869 105.362,114.332C103.078,117.794 103.885,118.621 102.412,119.361C100.94,120.099 100.835,121.015 101.21,117.592C101.583,114.169 102.265,111.547 101.271,112.12C100.274,112.693 100.484,111.485 99.502,114.552C98.518,117.62 99.172,118.357 98.53,120.113C97.887,121.869 97.332,123.765 97.065,122.723C96.8,121.679 98.002,118.651 96.785,118.562C95.569,118.474 95.501,117.902 95.646,120.917C95.791,123.932 94.946,122.606 93.781,126.135C92.188,130.969 93.222,127.096 90.198,130.305C87.173,133.515 86.955,133.164 86.955,133.164C86.955,133.164 88.157,130.136 87.326,129.117C86.497,128.1 85.999,131.911 84.181,134.299C83.236,135.54 83.062,136.221 82.754,135.419C82.445,134.617 82.914,132.581 83.425,130.304C83.934,128.025 84.694,123.191 85.456,119.321C85.712,118.024 83.466,121.091 82.384,121.524C81.3,121.957 80.561,121.703 81.294,120.71C82.028,119.717 85.658,116.24 86.304,115.107C86.951,113.975 86.603,114.038 85.124,113.53C83.645,113.022 84.422,111.787 85.764,111.15C87.106,110.514 87.889,110.525 88.752,109.43C89.616,108.335 84.495,108.81 85.228,107.817C85.96,106.824 89.235,101.541 90.231,100.967C91.228,100.394 92.955,102.808 94.471,101.826C95.986,100.846 97.089,100.174 95.785,99.946C94.48,99.717 91.221,99.146 91.221,99.146C91.221,99.146 94.758,94.283 105.907,91.999C117.056,89.713 122.03,86.749 124.776,88.974C127.523,91.199 127.832,94.468 129.06,92.764C129.906,91.587 134.759,92.952 129.304,90.112C122.996,86.83 127.637,86.83 120.209,86.402C112.783,85.976 112.582,87.633 111.689,84.537C111.256,83.034 109.357,82.51 112.134,81.998C114.91,81.488 116.323,81.736 115.539,81.099C114.752,80.464 112.276,79.906 109.54,80.175C106.806,80.443 103.288,80.077 103.288,80.077C103.288,80.077 96.857,79.076 102.975,78.028C109.092,76.982 108.832,77.184 108.832,77.184C108.832,77.184 108.391,75.861 105.918,75.927C103.442,75.993 101.058,76.821 99.969,76.007C98.879,75.194 94.832,73.364 94.395,72.665C93.958,71.965 88.839,64.092 89.18,62.781C90,59.63 92.497,62.993 93.266,63.745C95.754,66.174 96.87,68.114 96.87,68.114C98.731,71.554 97.661,65.51 96.96,64.391C96.259,63.272 96.212,62.267 97.429,62.355C98.644,62.443 99.713,63.378 100.158,65.947C100.605,68.517 102.252,67.435 103.942,67.046C106.607,66.432 104.191,68.834 107.189,69.608C110.189,70.382 109.543,67.029 113.729,70.628C117.915,74.226 118.767,75.435 120.735,78.27C122.702,81.107 125.583,84.478 127.806,85.863C130.027,87.249 128.08,83.579 127.048,81.868C124.532,77.69 124.139,77.371 121.513,73.174C118.888,68.976 120.898,67.086 120.923,63.103C120.946,59.119 121.02,55.657 122.88,54.475C124.582,53.388 125.733,51.921 128.935,49.615C132.136,47.31 132.044,45.922 133.52,45.807C134.996,45.692 139.728,41.037 138.179,44.13C136.631,47.225 136.21,45.468 133.413,50.585C130.614,55.703 129.187,56.823 131.01,56.645C132.832,56.465 131.31,54.369 133.908,54.473C136.393,54.571 140.023,51.814 138.445,54.145C135.631,58.298 138.589,57.16 136.431,59.899C134.274,62.635 130.33,63.239 131.133,64.266C132.258,65.704 132.01,66.289 133.354,65.651C134.696,65.016 138.341,64.345 136.657,66.292C134.974,68.241 132.803,68.795 131.815,70.616C130.824,72.437 129.874,73.391 129.403,74.805C128.932,76.217 131.298,80.618 131.298,80.618C131.298,80.618 131.54,85.644 132.541,86.318C133.543,86.992 134.315,85.134 134.351,83.645C134.388,82.155 134.769,78.555 134.671,78.366Z" style="fill:rgb(129,168,101);"/>
                        </g>
                    </g>
                    <g>
                        <g transform="matrix(0.778176,0,0,0.875448,2.27374e-13,0)">
                            <path d="M226.099,250.635C226.744,243.024 227.291,235.413 227.697,227.801L226.317,227.801C226.481,220.191 226.39,212.579 225.953,204.952L224.534,204.952C223.718,197.341 222.383,189.731 220.489,182.104L214.348,182.104C216.626,189.731 218.553,197.341 220.122,204.952L219.021,204.952C220.283,212.579 221.276,220.191 222.028,227.801L220.957,227.801C221.519,235.413 221.9,243.024 222.122,250.635L221.13,250.635C221.247,258.262 221.276,265.873 221.236,273.483L220.264,273.483C220.126,281.095 219.803,288.706 219.265,296.318L218.304,296.318C217.521,303.945 216.454,311.555 215.149,319.166L214.18,319.166C212.607,326.776 210.841,334.389 208.889,342L212.799,342C215.495,334.389 217.996,326.776 220.279,319.166L219.031,319.166C221.054,311.555 222.835,303.945 224.357,296.318L223.117,296.318C224.395,288.706 225.476,281.095 226.383,273.483L225.129,273.483C225.926,265.873 226.663,258.262 227.379,250.635L226.099,250.635Z" style="fill:rgb(174,134,94);"/>
                        </g>
                        <g transform="matrix(0.778176,0,0,0.875448,2.27374e-13,0)">
                            <path d="M215.831,163.894C214.998,158.855 219.999,158.645 222.116,156.348C231.068,146.631 241.105,136.982 252.837,140.507C258.665,142.258 260.255,141.765 261.405,143.919C262.556,146.074 260.216,145.187 260.216,145.187C258.083,146.304 265.635,148.482 263.577,148.904C261.52,149.324 257.524,147.049 254.489,147.64C251.455,148.232 253.5,149.513 252.489,149.893C251.478,150.274 248.693,148.917 247.657,149.457C246.621,149.999 251.156,150.4 244.67,153.306C243.18,153.973 241.535,152.11 240.163,152.997C238.481,154.082 240.879,156.374 232.503,159.782C231.47,160.202 229.087,158.572 228.036,158.895C226.332,159.418 221.782,163.956 220.493,165.353C220.146,165.729 215.435,172.485 218.757,170.142C220.509,168.905 225.624,163.187 227.507,162.255C229.488,161.273 230.705,162.351 231.033,162.326C232.788,162.193 234.83,160.141 236.553,160.269C237.153,160.313 237.163,160.893 237.319,161.5C237.319,161.5 246.409,158.039 255.659,164.73C264.908,171.422 264.555,170.836 266.287,172.089C268.017,173.343 264.383,171.784 263.898,172.345C262.811,173.596 270.881,175.912 270.416,177.653C269.952,179.394 267.641,178.46 268.717,179.289C270.95,181.005 273.315,182.623 275.11,184.842C275.638,185.495 273.21,185.137 271.914,184.156C271.576,183.898 271.159,183.783 272.544,185.443C274.246,187.486 273.108,189.23 272.88,188.555C272.88,188.555 270.524,183.32 270.373,186.326C270.135,191 268.93,191.769 268.821,191.014C268.714,190.257 269.091,186.72 267.623,187.483C266.157,188.248 267.693,191.326 265.057,188.084C262.422,184.842 261.919,182.263 260.296,184.795C258.672,187.327 258.937,185.388 256.795,183.49C254.652,181.591 254.728,183.393 249.187,181.202C245.724,179.832 248.303,172.381 247.227,173.768C243.714,178.302 243.43,178.44 242.503,178.359C240.806,178.213 240.496,178.077 239.446,177.781C237.524,177.239 238.31,172.564 237.286,172.48C236.12,172.385 237.675,178.869 236.245,177.078C236.073,176.864 234.552,176.274 233.673,175.71C231.328,174.204 230.847,174.094 230.033,175.051C229.217,176.01 228.575,174.013 225.98,174.339C223.43,174.658 215.792,175.311 217.214,175.724C219.507,176.391 218.847,176.563 222.098,176.071C224.051,175.775 223.721,176.19 225.99,176.798C228.259,177.404 231.007,176.23 232.643,176.733C236.183,177.824 231.449,179.236 234.175,181.049C236.899,182.86 240.934,179.708 246.258,187.212C248.333,190.135 256.218,190.733 251.962,192.433C250.592,192.979 248.158,195.12 248.865,195.11C250.02,195.097 251.676,194.459 252.57,195.123C256.258,197.869 266.529,205.451 262.088,204.956C260.919,204.825 259.003,205.305 261.004,206.643C263.005,207.981 265.791,208.838 265.321,209.963C264.851,211.087 263.177,208.065 262.506,209.582C261.834,211.1 268.424,215.644 268.162,216.99C267.898,218.338 266.45,217.39 266.45,217.39C265.536,216.068 265.91,218.533 267.577,220.64C268.725,222.088 272.243,224.743 271.119,225.673C269.996,226.605 268.941,223.635 268.019,224.172C267.098,224.709 270.961,231.004 269.796,231.177C268.631,231.35 267.978,229.069 266.788,227.357C265.599,225.646 264.544,224.622 262.307,222.865C261.695,222.384 263.19,224.782 262.543,225.206C261.894,225.63 262.473,224.232 261.149,222.688C259.721,221.024 259.314,220.974 257.368,217.908C255.421,214.839 255.055,212.364 254.372,212.648C252.159,213.565 252.522,217.539 251.172,211.342C250.241,207.083 249.356,207.76 249.356,207.76C249.356,207.76 249.615,209.975 248.487,210.288C247.896,210.453 244.004,202.363 238.478,196.465C237.928,195.878 237.899,200.908 236.281,199.726C233.883,197.974 233.219,193.485 232.493,192.778C228.568,188.955 228.387,193.975 222.972,187.116C217.734,180.478 215.374,184.85 215.629,186.446C215.883,188.045 217.086,196.062 216.165,196.6C215.244,197.136 214.388,197.336 214.169,195.878C213.951,194.422 213.852,190.078 212.669,192.94C212.072,194.38 210.974,193.101 212.935,197.862C214.899,202.622 213.801,204.547 213.801,204.547C213.801,204.547 215.288,209.816 213.637,209.261C211.987,208.707 212.453,203.403 210.463,203.3C208.473,203.197 207.955,200.856 209.514,206.404C211.073,211.951 215.017,212.371 214.332,216.216C213.646,220.063 217.269,218.216 216.381,222.454C215.494,226.694 216.241,225.781 215.762,231.436C215.575,233.657 213.412,234.785 213.501,236.679C213.593,238.575 214.94,240.805 213.578,241.989C210.857,244.358 210.062,244.949 209.938,246.178C209.765,247.875 207.837,254.683 207.137,245.372C206.98,243.3 206.244,242.306 205.909,240.195C205.506,237.66 205.918,234.079 205.935,232.671C206.006,226.893 207.175,224.161 206.435,224.671C205.25,225.488 205.806,230.895 203.246,222.771C200.527,214.131 204.425,191.701 206.672,189.544C208.282,187.996 206.816,186.541 204.569,188.402C202.323,190.264 202.096,191.751 199.766,195.661C198.891,197.127 197.488,198.916 196.032,200.797C195.323,201.711 195.608,195.592 194.94,196.341C194.361,196.99 194.489,202.566 193.767,203.637C192.232,205.907 190.518,207.798 189.772,209.252C188.053,212.598 188.517,215.036 187.461,215.63C186.402,216.224 187.06,212.855 186.067,213.111C185.075,213.368 184.534,214.212 183.877,217.58C183.223,220.95 182.615,222.131 182.615,222.131C182.615,222.131 181.963,221.937 181.061,220.763C180.157,219.588 180.084,222.871 179.793,224.696C179.5,226.519 181.418,226.345 177.947,229.332C176.755,230.359 176.366,225.392 174.907,226.848C173.446,228.304 172.87,232.415 171.839,232.641C170.264,232.984 171.341,230.679 169.182,234.672C167.024,238.665 166.083,239.864 166.369,238.47C166.369,238.47 167.179,236.897 167.943,230.385C168.709,223.875 167.687,224.608 169.168,221.516C170.649,218.423 172.435,216.86 172.282,216.497C171.84,215.467 171.242,215.701 169.473,217.363C166.749,219.927 165.829,220.628 166.441,219.141C166.857,218.122 168.499,210.349 172.91,208.618C176.634,207.155 177.246,201.793 177.664,201.423C178.652,200.549 177.496,200.035 176.721,199.492C175.186,198.415 180.507,199.225 180.897,198.688C182.327,196.719 179.3,196.563 179.3,196.563C179.3,196.563 181.062,193.975 184.716,192.304C188.37,190.633 183.582,192 183.778,190.989C183.975,189.978 186.5,188.621 188.711,186.62C190.921,184.619 197.4,180.383 199.836,180.456C202.27,180.53 205.905,179.418 205.009,178.861C204.111,178.302 197.884,176.93 196.107,177.668C194.331,178.406 189.586,184.71 188.629,185.106C187.672,185.502 187.455,184.045 187.455,184.045C187.455,184.045 189.766,181.846 188.086,181.769C186.404,181.692 184.311,185.349 181.453,187.774C178.594,190.198 179.048,191.094 177.609,191.381C176.172,191.667 175.835,192.426 177.078,189.588C178.322,186.749 179.606,184.667 178.614,184.924C177.623,185.181 178.127,184.198 176.469,186.588C174.81,188.981 175.16,189.763 174.142,191.115C173.126,192.466 172.145,193.956 172.204,193.004C172.265,192.049 174.097,189.742 173.1,189.38C172.101,189.021 172.199,188.515 171.502,191.127C170.807,193.738 170.458,192.405 168.52,195.15C165.87,198.909 167.79,195.841 164.379,197.876C160.968,199.91 160.879,199.559 160.879,199.559C160.879,199.559 162.71,197.252 162.289,196.187C161.868,195.124 160.416,198.265 158.242,199.88C157.11,200.72 156.779,201.261 156.739,200.504C156.697,199.746 157.642,198.116 158.69,196.288C159.737,194.46 161.687,190.505 163.377,187.375C163.942,186.327 161.226,188.423 160.199,188.538C159.17,188.655 158.617,188.266 159.504,187.588C160.389,186.911 164.382,184.791 165.232,183.972C166.082,183.155 165.773,183.129 164.669,182.348C163.565,181.567 164.551,180.694 165.852,180.464C167.153,180.235 167.806,180.427 168.828,179.694C169.85,178.96 165.422,178.165 166.306,177.488C167.192,176.81 171.377,173.063 172.368,172.806C173.36,172.548 174.157,175.017 175.695,174.533C177.234,174.05 178.344,173.734 177.309,173.233C176.277,172.733 173.694,171.481 173.694,171.481C173.694,171.481 177.985,168.153 187.97,168.811C197.954,169.469 202.938,168.1 204.64,170.645C206.343,173.191 205.716,176.057 207.21,174.888C208.24,174.081 211.947,176.384 208.134,172.679C203.726,168.395 207.625,169.483 201.502,167.378C195.38,165.272 194.761,166.642 194.852,163.788C194.894,162.401 193.442,161.508 195.913,161.721C198.383,161.936 199.504,162.478 199.017,161.75C198.53,161.024 196.6,159.965 194.232,159.555C191.861,159.144 189.006,158.007 189.006,158.007C189.006,158.007 183.873,155.644 189.297,156.182C194.72,156.72 194.447,156.832 194.447,156.832C194.447,156.832 194.435,155.599 192.339,155.075C190.242,154.551 188.014,154.701 187.321,153.751C186.626,152.8 183.723,150.288 183.546,149.588C183.368,148.886 181.205,140.958 181.848,139.917C183.392,137.415 184.576,140.876 185.019,141.698C186.449,144.358 186.859,146.276 186.859,146.276C187.49,149.654 188.23,144.237 187.945,143.117C187.662,141.996 187.893,141.125 188.892,141.485C189.889,141.845 190.534,142.894 190.212,145.197C189.889,147.499 191.564,146.957 193.092,147.021C195.495,147.122 192.812,148.607 195.123,149.971C197.433,151.337 197.799,148.32 200.339,152.375C202.879,156.432 203.267,157.664 204.151,160.55C205.033,163.435 206.54,166.991 208.029,168.696C209.519,170.4 208.879,166.807 208.477,165.103C207.497,160.941 207.254,160.578 206.188,156.376C205.122,152.172 207.322,151.026 208.424,147.628C209.525,144.228 210.527,141.287 212.408,140.71C214.134,140.181 215.499,139.195 218.815,137.975C222.129,136.755 222.428,135.548 223.697,135.794C224.969,136.04 230.207,133.172 228.068,135.453C225.928,137.733 226.05,136.134 222.312,139.854C218.573,143.572 217.069,144.197 218.65,144.469C220.229,144.744 219.519,142.596 221.674,143.292C223.734,143.959 227.533,142.452 225.573,144.074C222.084,146.965 224.876,146.687 222.321,148.522C219.764,150.355 216.287,149.947 216.685,151.015C217.239,152.506 216.873,152.949 218.174,152.719C219.475,152.488 222.718,152.77 220.775,154.041C218.83,155.311 216.859,155.277 215.534,156.601C214.208,157.926 213.152,158.52 212.371,159.617C211.592,160.713 212.386,165.03 212.386,165.03C212.386,165.03 211.224,169.383 211.884,170.194C212.541,171.004 213.695,169.597 214.13,168.332C214.564,167.068 215.861,164.08 215.831,163.894Z" style="fill:rgb(129,168,101);"/>
                        </g>
                    </g>
                </g>
                <g transform="matrix(0.820431,-0.0807507,0.0717784,0.922985,-2358.09,504.672)">
                    <g transform="matrix(1,0,0,1,2871.89,-72)">
                        <path d="M179.061,128.223L128.003,97.184L126.565,98.97L173.794,127.631C174.558,127.7 175.331,127.794 176.115,127.93C177.111,128.104 178.09,128.187 179.061,128.223Z" style="fill:rgb(77,77,77);fill-rule:nonzero;"/>
                    </g>
                    <g transform="matrix(1,0,0,1,2871.89,-72)">
                        <path d="M202.353,116.007C201.948,117.334 201.297,118.214 200.514,118.983C200.291,119.201 200.058,119.411 199.817,119.618C198.701,120.579 197.363,121.486 196.184,123.173C195.664,123.917 195.7,125 194.55,125.533C194.364,125.62 192.976,125.973 191.845,125.331C184.932,126.074 174.189,128.139 168.442,127.024L168.435,127.026C164.961,127.023 159.772,124.118 150.812,124.676C143.202,125.15 135.716,123.884 128.439,123.294L122.269,123.173L123.861,118.988L130.815,114.828L135.89,115.564L138.768,115.983L141.92,116.441C141.92,116.463 147.04,117.345 149.862,117.18C151.281,117.096 153,117.265 154.53,117.67C161.119,119.416 170.618,121.848 185.428,121.954C190.735,121.667 196.439,119.429 200.208,116.184C201.222,115.31 201.082,114.663 202.423,114.526C202.904,114.476 202.576,115.278 202.353,116.007Z" style="fill:rgb(233,144,143);"/>
                    </g>
                    <g transform="matrix(1,0,0,1,2871.89,-72)">
                        <path d="M202.331,116.007C201.926,117.334 201.275,118.214 200.493,118.983C198.436,120.374 195.95,122.525 193.445,123.199C189.697,124.209 185.809,123.363 181.882,123.402C177.361,124.035 181.916,124.52 164.669,122.043C150.634,121.927 144.906,121.025 141.973,120.137C139.136,119.276 134.99,119.754 133.466,118.644C131.248,118.603 132.244,116.353 135.868,115.564L138.746,115.983L141.898,116.441C141.898,116.463 147.018,117.345 149.84,117.18C151.259,117.096 152.978,117.265 154.508,117.67C161.097,119.416 170.597,121.848 185.406,121.954C190.713,121.667 196.418,119.429 200.187,116.184C201.2,115.31 201.06,114.663 202.401,114.526C202.882,114.476 202.554,115.278 202.331,116.007Z" style="fill:rgb(233,144,143);"/>
                    </g>
                    <g transform="matrix(1,0,0,1,2871.89,-72)">
                        <path d="M192.661,127.24C192.513,127.276 192.37,127.308 192.228,127.335C192.18,127.344 192.133,127.353 192.085,127.362L191.944,127.385C191.879,127.395 191.813,127.405 191.748,127.413C191.194,127.49 190.645,127.51 190.095,127.496C190.02,127.493 189.946,127.491 189.871,127.488C189.779,127.485 189.687,127.48 189.597,127.475C189.469,127.468 189.34,127.458 189.213,127.45L189.205,127.448C189.07,127.437 188.936,127.425 188.8,127.413C188.462,127.38 188.121,127.342 187.777,127.302C187.684,127.291 187.59,127.279 187.497,127.269C187.382,127.256 187.267,127.242 187.152,127.23C185.233,127.01 183.824,127.129 182.739,127.278C181.793,127.41 181.093,127.566 180.517,127.543C180.008,127.522 179.599,127.365 179.204,126.932C179.159,126.884 179.114,126.831 179.07,126.776C178.644,126.232 178.581,124.901 178.357,124.288C178.222,124.089 178.082,123.894 177.938,123.705C173.467,117.844 165.049,117.014 161.482,114.516C159.314,112.998 155.123,108.851 154.659,106.397C154.588,106.026 154.603,105.694 154.721,105.417C153.631,105.658 151.635,106.846 150.715,107.402L150.394,107.598C150.076,107.795 149.765,107.991 149.468,108.18C148.486,108.806 146.983,109.822 146.983,109.822C146.159,110.373 145.361,110.913 144.587,111.44C137.257,116.436 132.268,120.223 127.822,122.295C127.743,122.332 127.664,122.369 127.585,122.404C127.233,122.563 126.883,122.713 126.535,122.851C126.329,122.933 126.122,123.011 125.917,123.086C123.507,123.963 121.138,124.32 118.426,124.127C118.346,124.121 118.264,124.115 118.182,124.108C118.066,124.097 117.95,124.087 117.833,124.076C117.494,124.043 117.151,124.002 116.8,123.951L116.782,123.949C116.434,123.899 116.08,123.84 115.719,123.774C115.229,123.683 114.727,123.578 114.211,123.457C113.837,123.369 113.454,123.274 113.064,123.171C111.312,116.712 115.815,110.686 121.254,108.973C123.373,107.707 127.499,105.911 132.473,104.101C139.08,101.695 147.183,99.265 154.061,98.022C158.22,97.27 159.726,98.504 161.798,101.557C165.958,107.801 171.451,112.226 177.048,117.438C182.175,122.214 186.975,124.486 187.808,124.729C189.078,125.098 191.522,125.816 192.601,126.416C192.746,126.498 192.866,126.576 192.955,126.651C192.968,126.662 192.981,126.672 192.992,126.683C193.011,126.701 193.028,126.718 193.043,126.735C193.053,126.746 193.062,126.757 193.07,126.768C193.079,126.779 193.086,126.789 193.093,126.8C193.208,126.979 193.095,127.131 192.661,127.24Z" style="fill:rgb(242,153,152);"/>
                    </g>
                    <g transform="matrix(1,0,0,1,2871.89,-72)">
                        <path d="M192.687,127.243C192.539,127.279 192.396,127.311 192.254,127.338C192.206,127.347 192.159,127.356 192.112,127.365L191.97,127.388C191.905,127.398 191.839,127.408 191.774,127.416C191.218,127.491 190.667,127.511 190.121,127.499C190.046,127.497 189.972,127.494 189.897,127.491C189.805,127.488 189.713,127.483 189.623,127.478C189.495,127.471 189.366,127.461 189.239,127.453L189.231,127.452C189.096,127.441 188.962,127.429 188.826,127.416C188.48,127.385 188.14,127.345 187.803,127.306C187.71,127.295 187.616,127.282 187.523,127.273C187.408,127.259 187.293,127.245 187.178,127.233C186.74,127.183 186.31,127.138 185.892,127.112C184.656,127.017 183.633,127.141 182.766,127.281C181.879,127.425 181.158,127.587 180.543,127.546C180.041,127.513 179.615,127.348 179.23,126.935C179.185,126.887 179.141,126.834 179.096,126.78C178.684,126.232 178.826,124.81 178.383,124.291C178.248,124.092 178.108,123.897 177.964,123.708C173.493,117.847 165.076,117.017 161.508,114.519C159.34,113.001 155.149,108.854 154.685,106.4C154.638,106.04 154.655,105.709 154.748,105.42C153.657,105.661 151.661,106.849 150.741,107.405L150.42,107.601C150.103,107.798 149.792,107.994 149.494,108.183C148.513,108.809 147.009,109.825 147.009,109.825C146.186,110.376 145.388,110.916 144.614,111.443C137.478,116.315 132.354,120.207 127.848,122.299C127.769,122.335 127.69,122.372 127.611,122.407C127.259,122.566 126.91,122.716 126.561,122.854C126.355,122.936 126.148,123.014 125.943,123.089C123.531,123.962 121.16,124.32 118.452,124.13C118.372,124.125 118.29,124.118 118.209,124.111C118.093,124.1 117.977,124.09 117.859,124.08C117.521,124.045 117.177,124.004 116.826,123.954L116.809,123.952C116.461,123.902 116.106,123.843 115.745,123.778C115.256,123.686 114.753,123.581 114.237,123.46L114.269,123.444C115.032,123.074 116.293,123.12 117.154,122.933C122.351,121.804 127.074,119.104 131.314,116.657C160.08,100.057 152.849,103.472 159.741,109.774C164.577,114.197 169.842,115.853 174.531,119.113C176.694,120.617 178.155,122.757 180.238,124.343C183.463,126.8 184.924,126.492 189.196,126.884C191.13,127.064 191.199,126.828 192.627,126.419C192.772,126.501 192.892,126.579 192.981,126.654C192.994,126.665 193.007,126.675 193.018,126.686C193.037,126.704 193.054,126.721 193.069,126.738C193.079,126.749 193.088,126.76 193.096,126.771C193.105,126.782 193.113,126.792 193.119,126.803C193.234,126.982 193.122,127.134 192.687,127.243Z" style="fill:rgb(242,153,152);"/>
                    </g>
                    <g transform="matrix(1,0,0,1,2871.89,-72)">
                        <path d="M121.486,108.914C115.164,110.73 111.875,117.816 113.089,123.174C110.921,123.266 103.59,122.631 103.59,121.213C103.59,120.098 107.986,118.601 109.242,117.574C112.158,115.183 115.945,110.877 121.486,108.914Z" style="fill:rgb(104,37,133);"/>
                    </g>
                    <g transform="matrix(1,0,0,1,2871.89,-72)">
                        <path d="M42.235,121.744C46.698,121.963 50.268,124.728 54.475,125.936C62.065,127.897 69.491,126.088 80.382,122.808C82.347,122.215 82.518,122.058 83.39,122.058C84.181,122.058 85.088,122.064 86.33,123.134C87.637,124.259 91.027,126.35 93.755,126.35C98.376,126.35 102.123,123.47 105.562,120.591C110.548,116.402 119.333,109.519 124.729,104.621C125.707,104.981 125.94,104.812 126.219,104.491C126.476,104.2 126.275,103.432 125.949,103.162C132.763,93.364 146.746,79.799 153.067,51.185C154.041,51.605 154.508,50.627 154.462,50.284C154.418,49.956 154.015,49.371 153.335,49.492C152.638,47.026 152.688,44.238 152.321,41.714C150.778,31.1 146.55,19.547 140.182,10.387C139.836,9.888 140.403,9.331 140.089,9.092C139.959,8.993 139.672,9 139.373,9.008C139.072,9.015 138.758,9.023 138.572,8.924C131.381,5.111 116.444,0 98.891,0C72.2,0 47.52,13.81 38.259,27.243C37.136,28.871 36.317,31.15 35.314,32.785C34.035,34.871 32.214,36.462 30.444,38.555C26.764,42.905 24.894,47.37 23.397,52.535C21.874,57.789 18.028,55.91 16.04,68.27C13.648,83.147 17.273,94.739 18.275,101.83C19.168,108.154 19.329,115.969 26.665,121.685C32.119,125.936 41.169,121.743 42.235,121.743L42.235,121.744Z" style="fill:rgb(164,125,181);"/>
                    </g>
                    <g transform="matrix(1,0,0,1,2871.89,-72)">
                        <path d="M136.758,8.588C122.049,7.456 107.712,7.479 92.669,12.756C66.779,21.839 50.686,42.608 50.686,42.608C48.595,41.854 56.656,20.465 68.095,10.614C74.553,5.053 83,0.959 93.703,0.467C102.032,0.084 121.541,1.034 136.758,8.588L136.758,8.588Z" style="fill:rgb(164,125,181);"/>
                    </g>
                    <g transform="matrix(1,0,0,1,2871.89,-72)">
                        <path d="M79.226,2.855C52.201,15.446 50.576,39.923 48.136,41.836C44.711,33.792 45.561,21.69 52.525,15.075C56.61,11.193 72.871,3.706 79.225,2.855L79.226,2.855Z" style="fill:rgb(255,199,160);"/>
                    </g>
                    <g transform="matrix(1,0,0,1,2871.89,-72)">
                        <path d="M137.858,9.819C147.867,19.991 151.784,38.674 152.152,49.228C111.744,34.979 67.55,38.933 52.845,43.824C53.049,41.547 84.586,1.081 137.858,9.819L137.858,9.819Z" style="fill:rgb(255,199,160);"/>
                    </g>
                    <g transform="matrix(1,0,0,1,2871.89,-72)">
                        <path d="M47.105,41.549C47.255,42.06 46.837,43.302 46.478,43.754C44.365,43.978 43.262,42.643 41.862,41.366C39.326,39.052 35.799,36.425 36.498,32.371C37.468,26.74 46.184,19.113 50.505,15.965C46.382,22.208 45.527,27.054 45.527,32C45.527,35.134 46.028,38.305 47.105,41.549Z" style="fill:rgb(164,125,181);"/>
                    </g>
                    <g transform="matrix(1,0,0,1,2871.89,-72)">
                        <path d="M44.1,45.23C43.477,45.586 42.332,45.837 41.973,45.947C35.775,47.837 30.203,49.63 24.516,52.646C24.812,46.561 30.729,37.583 35.75,33.465C35.75,38.049 42.746,41.645 44.1,45.23Z" style="fill:rgb(255,199,160);"/>
                    </g>
                    <g transform="matrix(1,0,0,1,2871.89,-72)">
                        <path d="M148.835,49.561C152.965,50.886 151.869,52.002 150.891,55.445C145.158,75.627 138.835,84.429 124.991,102.492C99.403,85.765 62.974,56.408 57.599,51.952C56.013,50.637 51.382,48.011 52.527,46.203C54.808,42.601 112.431,37.875 148.835,49.561Z" style="fill:rgb(164,125,181);"/>
                    </g>
                    <g transform="matrix(1,0,0,1,2871.89,-72)">
                        <path d="M93.932,125.608C82.312,124.833 47.116,85.22 48.265,54.145C48.385,50.916 48.877,51.282 50.907,49.229C84.83,77.508 95.174,86.707 123.889,104.177C111.189,115.081 99.843,126.002 93.933,125.608L93.932,125.608Z" style="fill:rgb(255,199,160);"/>
                    </g>
                    <g transform="matrix(1,0,0,1,2871.89,-72)">
                        <path d="M40.521,52.108C39.631,52.908 38.787,53.747 37.951,54.59C27.14,65.494 19.819,79.003 17.88,93.313C15.769,83.251 14.584,71.856 18.49,62.013C21.091,55.457 26.37,52.28 32.613,49.967C35.022,49.076 37.581,48.33 40.171,47.533C41.264,47.197 43.821,46.019 44.247,47.574C44.683,49.161 42.189,50.607 40.521,52.108L40.521,52.108Z" style="fill:rgb(164,125,181);"/>
                    </g>
                    <g transform="matrix(1,0,0,1,2871.89,-72)">
                        <path d="M46.517,54.468C46.517,93.494 81.222,121.595 81.286,121.706C74.04,124.011 63.138,128.054 53.641,124.895C51.384,124.145 49.434,122.874 47.248,122.031C43.101,120.43 41.56,122.597 36.837,110.948C28.892,91.353 36.093,65.105 43.073,53.148C43.611,52.226 44.756,49.465 46.328,50.527C47.426,51.269 46.126,53.388 46.517,54.468L46.517,54.468Z" style="fill:rgb(164,125,181);"/>
                    </g>
                    <g transform="matrix(1,0,0,1,2871.89,-72)">
                        <path d="M40.684,121.709C37.757,122.365 32.281,123.728 29.362,122.44C11.591,114.596 17.057,69.368 43.458,50.885C31.216,71.331 25.818,99.794 40.684,121.709Z" style="fill:rgb(255,199,160);"/>
                    </g>
                    <g transform="matrix(1,0,0,1,2871.89,-72)">
                        <path d="M47.581,50.1C45.201,50.1 44.142,47.602 45.474,46.511C45.533,46.463 45.598,46.441 45.668,46.441C45.96,46.441 46.336,46.813 46.688,47.186C47.039,47.559 47.366,47.931 47.559,47.931C47.671,47.931 47.737,47.806 47.737,47.483C47.737,46.495 43.71,45.795 44.73,44.51C44.937,44.25 45.192,44.148 45.479,44.148C46.02,44.148 46.674,44.514 47.324,44.881C47.973,45.247 48.618,45.614 49.142,45.614C49.352,45.614 49.543,45.555 49.706,45.414C51.163,44.16 46.546,44.827 47.384,43.504C47.633,43.112 48.273,42.922 48.998,42.922C50.186,42.922 51.601,43.431 51.893,44.39C52.572,46.62 51.145,49.285 48.572,49.965C48.221,50.058 47.889,50.1 47.581,50.1Z" style="fill:rgb(164,125,181);fill-rule:nonzero;"/>
                    </g>
                </g>
            </g>
        </g>
    </g>
</svg>
