<svg width="17" height="17" viewBox="0 0 17 17" fill="none" xmlns="http://www.w3.org/2000/svg">
<path d="M15 12V9.4C15.3562 9.21797 15.6915 8.99767 16 8.743V12C16 12.5304 15.7893 13.0391 15.4142 13.4142C15.0391 13.7893 14.5304 14 14 14H9V16H12.5C12.6326 16 12.7598 16.0527 12.8536 16.1464C12.9473 16.2402 13 16.3674 13 16.5C13 16.6326 12.9473 16.7598 12.8536 16.8536C12.7598 16.9473 12.6326 17 12.5 17H3.5C3.36739 17 3.24021 16.9473 3.14645 16.8536C3.05268 16.7598 3 16.6326 3 16.5C3 16.3674 3.05268 16.2402 3.14645 16.1464C3.24021 16.0527 3.36739 16 3.5 16H7V14H2C1.46957 14 0.960859 13.7893 0.585786 13.4142C0.210714 13.0391 0 12.5304 0 12V3C0 2.46957 0.210714 1.96086 0.585786 1.58579C0.960859 1.21071 1.46957 1 2 1H8.257C8.00231 1.30847 7.78201 1.64378 7.6 2H2C1.73478 2 1.48043 2.10536 1.29289 2.29289C1.10536 2.48043 1 2.73478 1 3V12C1 12.2652 1.10536 12.5196 1.29289 12.7071C1.48043 12.8946 1.73478 13 2 13H14C14.2652 13 14.5196 12.8946 14.7071 12.7071C14.8946 12.5196 15 12.2652 15 12Z" fill="#2685FF"/>
<path d="M17 4.5C17 5.69347 16.5259 6.83807 15.682 7.68198C14.8381 8.52589 13.6935 9 12.5 9C11.3065 9 10.1619 8.52589 9.31802 7.68198C8.47411 6.83807 8 5.69347 8 4.5C8 3.30653 8.47411 2.16193 9.31802 1.31802C10.1619 0.474106 11.3065 0 12.5 0C13.6935 0 14.8381 0.474106 15.682 1.31802C16.5259 2.16193 17 3.30653 17 4.5ZM12.5 1.96875C12.5 1.89416 12.4704 1.82262 12.4176 1.76988C12.3649 1.71713 12.2933 1.6875 12.2188 1.6875C12.1442 1.6875 12.0726 1.71713 12.0199 1.76988C11.9671 1.82262 11.9375 1.89416 11.9375 1.96875V5.0625C11.9375 5.11207 11.9506 5.16076 11.9755 5.20364C12.0004 5.24651 12.0362 5.28204 12.0792 5.30663L14.048 6.43163C14.1126 6.46654 14.1883 6.4748 14.2589 6.45464C14.3295 6.43448 14.3895 6.3875 14.4259 6.32374C14.4624 6.25997 14.4724 6.18449 14.4539 6.11341C14.4354 6.04234 14.3899 5.98131 14.327 5.94337L12.5 4.89938V1.96875Z" fill="#2685FF"/>
</svg>
