<svg width="20" height="15" viewBox="0 0 20 15" fill="none" xmlns="http://www.w3.org/2000/svg">
<path fill-rule="evenodd" clip-rule="evenodd" d="M2.18762 0C0.979513 0 0.000152591 0.979359 0.000152591 2.18746V3.10716C-5.11073e-05 3.11844 -5.06198e-05 3.12971 0.000152591 3.14097V12.8123C0.000152591 14.0204 0.979512 14.9998 2.18762 14.9998H17.8123C19.0205 14.9998 19.9998 14.0204 19.9998 12.8123V3.14076C20.0001 3.12965 20.0001 3.11851 19.9998 3.10737V2.18746C19.9998 0.979359 19.0205 0 17.8123 0H2.18762ZM18.1248 2.58782V2.18746C18.1248 2.01488 17.985 1.87497 17.8123 1.87497H2.18762C2.01503 1.87497 1.87512 2.01488 1.87512 2.18746V2.58782L9.99998 7.35067L18.1248 2.58782ZM1.87512 4.7612V12.8123C1.87512 12.9849 2.01503 13.1248 2.18762 13.1248H17.8123C17.985 13.1248 18.1248 12.9849 18.1248 12.8123V4.7612L10.4741 9.24613C10.1813 9.41775 9.81865 9.41775 9.52588 9.24613L1.87512 4.7612Z" fill="#656565"/>
</svg>
