<svg width="61" height="40" viewBox="0 0 61 40" fill="none" xmlns="http://www.w3.org/2000/svg">
<path fill-rule="evenodd" clip-rule="evenodd" d="M20.9236 5.45433C18.9121 5.45433 16.983 6.2203 15.5607 7.58374C14.1383 8.94723 13.3392 10.7964 13.3392 12.7247C13.3392 14.6529 14.1383 16.5021 15.5607 17.8656C16.983 19.229 18.9121 19.995 20.9236 19.995C22.9351 19.995 24.8642 19.229 26.2866 17.8656C27.7089 16.5021 28.508 14.6529 28.508 12.7247C28.508 10.7964 27.7089 8.94723 26.2866 7.58374C24.8642 6.2203 22.9351 5.45433 20.9236 5.45433ZM7.65097 12.7247C7.6507 10.6158 8.19727 8.53994 9.24152 6.68378C10.2858 4.82766 11.795 3.24945 13.6333 2.0911C15.4717 0.932754 17.5816 0.230619 19.7733 0.0478792C21.965 -0.134897 24.1697 0.207428 26.1891 1.04403C28.2085 1.88066 29.9794 3.18533 31.3423 4.84075C32.7052 6.49614 33.6175 8.45033 33.9972 10.5275C34.3768 12.6048 34.2118 14.7399 33.5171 16.7409C32.8224 18.7418 31.6197 20.5459 30.0173 21.9907C33.0391 23.396 35.6628 25.4793 37.6657 28.0638C39.6688 30.6483 40.9919 33.6578 41.5228 36.8368C41.6411 37.5511 41.4583 38.2814 41.0147 38.8667C40.5713 39.4519 39.9035 39.8442 39.1584 39.9576C38.4132 40.071 37.6514 39.8958 37.0409 39.4705C36.4303 39.0455 36.0209 38.4054 35.9027 37.6911C35.3289 34.2791 33.5063 31.1743 30.7615 28.9333C28.0167 26.6923 24.529 25.4616 20.9236 25.4616C17.3182 25.4616 13.8306 26.6923 11.0858 28.9333C8.34095 31.1743 6.51832 34.2791 5.94448 37.6911C5.88574 38.0448 5.75484 38.3839 5.55935 38.6893C5.36382 38.9946 5.10751 39.26 4.80504 39.4701C4.50254 39.6806 4.1598 39.8315 3.79641 39.9147C3.43299 39.9983 3.05602 40.0121 2.687 39.9558C2.31798 39.8994 1.96416 39.774 1.64572 39.5864C1.32728 39.3992 1.05047 39.1535 0.831088 38.8634C0.611706 38.5737 0.45405 38.2451 0.367125 37.8965C0.2802 37.5482 0.265705 37.1869 0.324469 36.8332C0.856644 33.6553 2.18027 30.6476 4.18313 28.0642C6.18601 25.4811 8.80906 23.399 11.83 21.9944C10.5085 20.8058 9.4557 19.3698 8.7369 17.7753C8.01805 16.1808 7.64843 14.4617 7.65097 12.7247ZM41.7807 7.27192C41.0264 7.27192 40.3029 7.55913 39.7697 8.07046C39.2361 8.58174 38.9365 9.27519 38.9365 9.9983C38.9365 10.7214 39.2361 11.4148 39.7697 11.9261C40.3029 12.4374 41.0264 12.7247 41.7807 12.7247C43.0636 12.7248 44.3089 13.1407 45.3146 13.9048C46.3199 14.669 47.0264 15.7366 47.3188 16.9341C47.6112 18.1317 47.4727 19.3889 46.9259 20.5016C46.3791 21.6142 45.4561 22.5169 44.3063 23.0631C43.8322 23.2892 43.4333 23.6376 43.1546 24.0692C42.8759 24.5008 42.7283 24.9983 42.7287 25.506V26.7855C42.728 27.3979 42.9422 27.9927 43.337 28.4741C43.7318 28.9556 44.2843 29.2956 44.9054 29.4392C49.4561 30.4898 53.1041 33.8014 54.4693 38.0619C54.5774 38.4054 54.7556 38.7253 54.993 39.003C55.2308 39.2804 55.5232 39.5105 55.8539 39.6795C56.1842 39.8482 56.5463 39.9529 56.9191 39.9874C57.2918 40.0219 57.668 39.9852 58.0264 39.8802C58.3844 39.7747 58.7173 39.6028 59.0055 39.3738C59.2941 39.1448 59.5326 38.8634 59.7075 38.5457C59.8823 38.2283 59.99 37.8808 60.0241 37.5231C60.0586 37.1658 60.0188 36.8052 59.9073 36.4624C59.1481 34.1017 57.8959 31.9137 56.227 30.0317C54.5581 28.1493 52.5073 26.6121 50.1993 25.5132C51.6817 23.9499 52.6589 22.0074 53.0112 19.9218C53.3639 17.8362 53.0768 15.6974 52.1853 13.7653C51.2934 11.8331 49.8353 10.1909 47.9885 9.03814C46.1413 7.88539 43.9847 7.27177 41.7807 7.27192Z" fill="white"/>
</svg>
