<svg width="32" height="32" viewBox="0 0 32 32" fill="none" xmlns="http://www.w3.org/2000/svg">
<path fill-rule="evenodd" clip-rule="evenodd" d="M12 1.5H27C28.932 1.5 30.5 3.068 30.5 5V27C30.5 28.932 28.932 30.5 27 30.5H5C3.068 30.5 1.5 28.932 1.5 27V12H0V27C0 29.76 2.24 32 5 32H27C29.76 32 32 29.76 32 27V5C32 2.24 29.76 0 27 0H12V1.5ZM8 1.5V0H0V8H1.5V1.5H8Z" fill="#5761B2"/>
<path d="M19.6 9C18.208 9 16.872 9.61798 16 10.5946C15.128 9.61798 13.792 9 12.4 9C9.936 9 8 10.8463 8 13.1962C8 16.0801 10.72 18.43 14.84 22.0005L16 23L17.16 21.9929C21.28 18.43 24 16.0801 24 13.1962C24 10.8463 22.064 9 19.6 9Z" fill="#5761B2"/>
</svg>
