<?xml version="1.0" encoding="UTF-8" standalone="no"?><!DOCTYPE svg PUBLIC "-//W3C//DTD SVG 1.1//EN" "http://www.w3.org/Graphics/SVG/1.1/DTD/svg11.dtd"><svg width="100%" height="100%" viewBox="0 0 198 51" version="1.1" xmlns="http://www.w3.org/2000/svg" xmlns:xlink="http://www.w3.org/1999/xlink" xml:space="preserve" xmlns:serif="http://www.serif.com/" style="fill-rule:evenodd;clip-rule:evenodd;stroke-linejoin:round;stroke-miterlimit:2;"><g><g><path d="M50,0l-50,0l0,50l50,0l-0,-50Zm-33.195,19.881l12.286,-12.88l11.723,-0l-15.976,16.238l16.995,19.762l-10.971,0l-11.736,-13.956l-2.321,2.359l0,11.597l-8.638,0l0,-36l8.638,-0l0,12.88Z" style="fill:#546065;"/></g><g><path d="M80.981,16.42l4.744,0l-12.533,12.826l0,-4.714l7.789,-8.112Zm-4.216,7.848l9.487,11.157l-4.451,0l-7.438,-8.902l2.402,-2.255Zm-6.765,-7.848l3.485,0l-0,19.005l-3.485,0l0,-19.005Z" style="fill:#546065;fill-rule:nonzero;"/><path d="M86.78,21.223l3.601,-0l3.075,10.776l-0.351,-0l2.899,-10.015l3.133,-0l2.899,10.044l-0.351,0l3.075,-10.805l3.455,-0l-4.685,14.202l-3.397,0l-2.899,-9.429l0.527,-0l-2.841,9.429l-3.426,0l-4.714,-14.202Z" style="fill:#546065;fill-rule:nonzero;"/><path d="M113.369,18.616c-0.674,0 -1.198,-0.178 -1.574,-0.534c-0.376,-0.356 -0.564,-0.852 -0.564,-1.486c0,-0.615 0.188,-1.106 0.564,-1.472c0.376,-0.366 0.9,-0.549 1.574,-0.549c0.663,0 1.186,0.183 1.567,0.549c0.38,0.366 0.571,0.857 0.571,1.472c-0,0.634 -0.191,1.13 -0.571,1.486c-0.381,0.356 -0.904,0.534 -1.567,0.534Zm-1.728,16.809l0,-14.261l3.456,0l-0,14.261l-3.456,0Z" style="fill:#546065;fill-rule:nonzero;"/><path d="M126.254,35.835c-1.162,0 -2.248,-0.298 -3.258,-0.893c-1.01,-0.596 -1.828,-1.455 -2.453,-2.577c-0.625,-1.123 -0.937,-2.475 -0.937,-4.056c0,-1.572 0.308,-2.916 0.923,-4.034c0.615,-1.117 1.415,-1.974 2.401,-2.569c0.986,-0.596 2.035,-0.893 3.148,-0.893c0.918,-0 1.762,0.229 2.533,0.688c0.771,0.458 1.391,1.163 1.859,2.115c0.469,0.952 0.703,2.175 0.703,3.668l-1.288,0c-0,-0.713 -0.144,-1.32 -0.432,-1.823c-0.288,-0.502 -0.673,-0.885 -1.157,-1.149c-0.483,-0.264 -1.017,-0.395 -1.603,-0.395c-0.693,-0 -1.31,0.175 -1.852,0.527c-0.542,0.351 -0.969,0.856 -1.281,1.515c-0.313,0.659 -0.469,1.442 -0.469,2.35c-0,0.996 0.183,1.818 0.549,2.467c0.366,0.65 0.83,1.133 1.391,1.45c0.561,0.317 1.135,0.476 1.72,0.476c0.537,-0 1.045,-0.12 1.523,-0.359c0.479,-0.239 0.866,-0.584 1.164,-1.032c0.298,-0.449 0.447,-0.991 0.447,-1.625l0.673,-0c0,1.21 -0.141,2.276 -0.424,3.198c-0.283,0.923 -0.739,1.646 -1.369,2.167c-0.63,0.523 -1.467,0.784 -2.511,0.784Zm8.053,6.94c-1.592,-0.4 -2.726,-1.025 -3.404,-1.874c-0.679,-0.849 -1.018,-2.03 -1.018,-3.543l-0,-12.621l1.23,-3.514l2.225,-0l0,16.398c0,0.576 0.059,1.028 0.176,1.354c0.117,0.328 0.32,0.584 0.608,0.769c0.287,0.185 0.68,0.356 1.178,0.513l-0.995,2.518Z" style="fill:#546065;fill-rule:nonzero;"/><path d="M139.636,35.425l0,-15.93c0,-1.025 0.2,-1.86 0.6,-2.504c0.4,-0.644 0.93,-1.12 1.589,-1.428c0.659,-0.307 1.374,-0.461 2.145,-0.461c0.479,0 0.971,0.034 1.479,0.103c0.508,0.068 1,0.151 1.479,0.249l-0.674,2.665c-0.244,-0.088 -0.498,-0.159 -0.761,-0.213c-0.264,-0.053 -0.517,-0.08 -0.762,-0.08c-0.273,-0 -0.531,0.051 -0.776,0.153c-0.244,0.103 -0.444,0.281 -0.6,0.535c-0.156,0.253 -0.234,0.6 -0.234,1.039l-0,15.872l-3.485,0Zm-2.108,-11.918l-0,-2.284l8.199,-0l0,2.284l-8.199,-0Zm12.05,11.918l-0,-20.088l3.455,-0l0,20.088l-3.455,0Z" style="fill:#546065;fill-rule:nonzero;"/><path d="M160.515,18.616c-0.673,0 -1.198,-0.178 -1.574,-0.534c-0.376,-0.356 -0.564,-0.852 -0.564,-1.486c0,-0.615 0.188,-1.106 0.564,-1.472c0.376,-0.366 0.901,-0.549 1.574,-0.549c0.664,0 1.186,0.183 1.567,0.549c0.38,0.366 0.571,0.857 0.571,1.472c-0,0.634 -0.191,1.13 -0.571,1.486c-0.381,0.356 -0.903,0.534 -1.567,0.534Zm-1.728,16.809l0,-14.261l3.456,0l-0,14.261l-3.456,0Z" style="fill:#546065;fill-rule:nonzero;"/><path d="M173.488,35.835c-1.191,0 -2.297,-0.31 -3.316,-0.93c-1.021,-0.62 -1.845,-1.493 -2.475,-2.621c-0.629,-1.127 -0.945,-2.452 -0.945,-3.975c0,-1.61 0.316,-2.974 0.945,-4.092c0.63,-1.118 1.454,-1.965 2.475,-2.541c1.019,-0.576 2.125,-0.863 3.316,-0.863c0.927,-0 1.744,0.148 2.452,0.446c0.708,0.298 1.311,0.698 1.808,1.201c0.498,0.503 0.889,1.061 1.172,1.676c0.283,0.615 0.464,1.235 0.541,1.86l-3.484,0.088c-0.157,-0.625 -0.447,-1.142 -0.871,-1.552c-0.425,-0.41 -0.974,-0.615 -1.648,-0.615c-0.556,-0 -1.078,0.153 -1.566,0.461c-0.488,0.307 -0.886,0.783 -1.193,1.427c-0.308,0.645 -0.462,1.479 -0.462,2.504c0,0.976 0.144,1.789 0.432,2.438c0.288,0.649 0.676,1.137 1.164,1.464c0.488,0.327 1.03,0.491 1.625,0.491c0.879,-0 1.518,-0.213 1.918,-0.638c0.4,-0.424 0.601,-0.993 0.601,-1.705l3.484,0c0,1.005 -0.229,1.923 -0.688,2.753c-0.458,0.829 -1.132,1.491 -2.02,1.983c-0.889,0.493 -1.977,0.74 -3.265,0.74Z" style="fill:#546065;fill-rule:nonzero;"/><path d="M183.605,35.425l0,-20.088l3.456,-0l-0,20.088l-3.456,0Zm2.987,-8.814l6.091,-5.388l4.685,-0l-10.776,8.96l-0,-3.572Zm6.911,8.814l-6.355,-9.049l3.28,-0.79l7.292,9.839l-4.217,0Z" style="fill:#546065;fill-rule:nonzero;"/></g></g></svg>