<svg width="250" height="384" viewBox="0 0 250 384" fill="none" xmlns="http://www.w3.org/2000/svg">
<path fill-rule="evenodd" clip-rule="evenodd" d="M0.000396729 0H92.2798C105.01 0 117.219 5.0572 126.221 14.0593C135.224 23.0614 140.282 35.2709 140.282 48.0018V198.865C140.282 211.596 135.224 223.805 126.221 232.807C117.219 241.809 105.01 246.866 92.2798 246.866H4.80679L0.000396729 251.671V205.722H92.2798C94.0984 205.722 95.8429 205 97.1293 203.714C98.4158 202.427 99.1372 200.683 99.1372 198.865V48.0018C99.1372 46.1832 98.4158 44.439 97.1293 43.1528C95.8429 41.8669 94.0984 41.1444 92.2798 41.1444H0.000396729V0ZM206.848 98.012C208.134 99.2982 208.856 101.042 208.856 102.861V253.724C208.856 255.542 208.134 257.287 206.848 258.573C205.561 259.86 203.817 260.581 201.998 260.581H174.569C169.113 260.581 163.879 262.748 160.023 266.607C156.163 270.464 153.996 275.698 153.996 281.153V341.224L93.1027 280.331C91.2183 278.309 88.9471 276.688 86.4236 275.563C83.9011 274.439 81.1771 273.835 78.4147 273.786C75.6525 273.736 72.9087 274.247 70.3471 275.281C67.7854 276.315 65.4586 277.854 63.5051 279.809C61.5515 281.762 60.0116 284.088 58.977 286.65C57.9423 289.212 57.4341 291.955 57.4829 294.717C57.5314 297.48 58.1362 300.203 59.2606 302.727C60.3849 305.25 62.006 307.521 64.0273 309.406L126.923 372.302C132.514 377.889 139.632 381.691 147.383 383.233C155.135 384.774 163.166 383.982 170.468 380.959C177.77 377.936 184.01 372.815 188.401 366.246C192.793 359.676 195.138 351.952 195.141 344.049V301.726H201.998C214.728 301.726 226.937 296.668 235.94 287.665C244.942 278.663 250 266.454 250 253.724V102.861C250 76.364 228.495 54.8592 201.998 54.8592H188.283C182.828 54.8592 177.594 57.0267 173.737 60.8847C169.878 64.7426 167.711 69.9754 167.711 75.4314C167.711 80.8874 169.878 86.1202 173.737 89.9781C177.594 93.8361 182.828 96.0036 188.283 96.0036H201.998C203.817 96.0036 205.561 96.7261 206.848 98.012Z" fill="#5F67AA"/>
</svg>
