<svg width="16" height="16" viewBox="0 0 16 16" fill="none" xmlns="http://www.w3.org/2000/svg">
<path fill-rule="evenodd" clip-rule="evenodd" d="M6.04374 6.26564C6.2663 6.11727 6.39998 5.86748 6.39998 5.6V2.4C6.39998 1.07452 5.32547 0 3.99999 0H0.799998C0.358171 0 0 0.358172 0 0.8C0 8.7529 7.24708 16 15.2 16C15.6418 16 16 15.6418 16 15.2V12C16 10.6745 14.9254 9.6 13.6 9.6H10.4C10.1325 9.6 9.8827 9.73368 9.73433 9.95624L8.21006 12.2427C6.54989 11.1692 5.09538 9.75134 3.97658 8.11917L3.75734 7.78992L6.04374 6.26564ZM10.828 11.2H13.5999C14.0417 11.2 14.3999 11.5581 14.3999 12V14.3722C12.8501 14.265 11.3376 13.8505 9.92689 13.1932L9.60317 13.0373L10.828 11.2ZM1.62777 1.60001H4.00002C4.44185 1.60001 4.80002 1.95818 4.80002 2.40001V5.17186L2.96273 6.39673C2.21509 4.89477 1.74325 3.26902 1.62777 1.60001Z" fill="#656565"/>
</svg>
