<svg width="250" height="384" viewBox="0 0 250 384" fill="none" xmlns="http://www.w3.org/2000/svg">
<path fill-rule="evenodd" clip-rule="evenodd" d="M0 0H158V50H229.5C240.822 50 250 59.1782 250 70.5V133C250 137.59 248.459 142.048 245.625 145.659L196.558 208.159C192.672 213.109 186.727 216 180.433 216H147.015C126.356 268.321 78.5743 306.971 21 314.617V343H75.5C86.8218 343 96 352.178 96 363.5C96 374.822 86.8218 384 75.5 384H0.5H0V275C64.6173 275 117 222.617 117 158V41H0V0ZM158 158V91H209V125.914L170.465 175H157.096C157.694 169.415 158 163.743 158 158Z" fill="#5F67AA"/>
</svg>
