<?xml version="1.0" encoding="UTF-8" standalone="no"?><!DOCTYPE svg PUBLIC "-//W3C//DTD SVG 1.1//EN" "http://www.w3.org/Graphics/SVG/1.1/DTD/svg11.dtd"><svg width="100%" height="100%" viewBox="0 0 15 15" version="1.1" xmlns="http://www.w3.org/2000/svg" xmlns:xlink="http://www.w3.org/1999/xlink" xml:space="preserve" xmlns:serif="http://www.serif.com/" style="fill-rule:evenodd;clip-rule:evenodd;stroke-linejoin:round;stroke-miterlimit:2;"><path d="M7.5,15c4.142,0 7.5,-3.358 7.5,-7.5c0,-4.142 -3.358,-7.5 -7.5,-7.5c-4.142,0 -7.5,3.358 -7.5,7.5c0,4.142 3.358,7.5 7.5,7.5Zm0.001,-1.53c3.296,0 5.969,-2.672 5.969,-5.969c0,-3.297 -2.673,-5.969 -5.969,-5.969c-3.297,-0 -5.97,2.672 -5.97,5.969c0,3.297 2.673,5.969 5.97,5.969Zm4.09,-6.964l-2.02,-0c-0.371,-0.77 -1.159,-1.301 -2.07,-1.301c-1.268,-0 -2.296,1.028 -2.296,2.296c0,1.268 1.028,2.296 2.296,2.296c0.942,-0 1.751,-0.567 2.105,-1.378l2.003,-0c-0.419,1.883 -2.099,3.291 -4.109,3.291c-2.324,0 -4.209,-1.884 -4.209,-4.209c0,-2.324 1.885,-4.209 4.209,-4.209c1.982,-0 3.644,1.369 4.091,3.214Z" style="fill:#b6bbbd;"/></svg>