<?xml version="1.0" encoding="UTF-8" standalone="no"?><!DOCTYPE svg PUBLIC "-//W3C//DTD SVG 1.1//EN" "http://www.w3.org/Graphics/SVG/1.1/DTD/svg11.dtd"><svg width="100%" height="100%" viewBox="0 0 48 48" version="1.1" xmlns="http://www.w3.org/2000/svg" xmlns:xlink="http://www.w3.org/1999/xlink" xml:space="preserve" xmlns:serif="http://www.serif.com/" style="fill-rule:evenodd;clip-rule:evenodd;stroke-linejoin:round;stroke-miterlimit:2;"><g><path d="M0,5l0,29l2,0l0,-29c0,-1.656 1.344,-3 3,-3l38,0c1.656,0 3,1.344 3,3l0,38c0,1.656 -1.344,3 -3,3l-29,0l0,2l29,0c2.76,0 5,-2.24 5,-5l0,-38c0,-2.76 -2.24,-5 -5,-5l-38,0c-2.76,0 -5,2.24 -5,5Zm0,33l0,10l10,0l0,-2l-8,0l0,-8l-2,0Z" style="fill:#5d65a8;"/></g><g><g><path d="M14.278,11.514l-2.778,0l0,24.972l25,-0l0,-2.778l-22.223,0l0,-22.194Z" style="fill:#5d65a8;fill-rule:nonzero;"/><path d="M25.389,25.375l-4.166,-2.778l-5.556,5.555l-0,4.167l19.444,0l-0,-15.277l-9.722,8.333Z" style="fill:#5d65a8;fill-rule:nonzero;"/></g></g></svg>