<?xml version="1.0" encoding="UTF-8" standalone="no"?><!DOCTYPE svg PUBLIC "-//W3C//DTD SVG 1.1//EN" "http://www.w3.org/Graphics/SVG/1.1/DTD/svg11.dtd"><svg width="100%" height="100%" viewBox="0 0 48 48" version="1.1" xmlns="http://www.w3.org/2000/svg" xmlns:xlink="http://www.w3.org/1999/xlink" xml:space="preserve" xmlns:serif="http://www.serif.com/" style="fill-rule:evenodd;clip-rule:evenodd;stroke-linejoin:round;stroke-miterlimit:2;"><g><path d="M-0,5l-0,29l2,0l-0,-29c-0,-1.656 1.344,-3 3,-3l38,0c1.656,0 3,1.344 3,3l-0,38c-0,1.656 -1.344,3 -3,3l-29,0l-0,2l29,0c2.76,0 5,-2.24 5,-5l-0,-38c-0,-2.76 -2.24,-5 -5,-5l-38,0c-2.76,0 -5,2.24 -5,5Zm-0,33l-0,10l10,0l-0,-2l-8,0l-0,-8l-2,0Z" style="fill:#5d65a8;"/></g><g><g><path d="M12.333,9.017l-3.333,-0l-0,29.966l30,0l0,-3.333l-26.667,-0l0,-26.633Z" style="fill:#5d65a8;fill-rule:nonzero;"/><path d="M25.667,25.65l-5,-3.333l-6.667,6.666l-0,5l23.333,0l0,-18.333l-11.666,10Z" style="fill:#5d65a8;fill-rule:nonzero;"/></g></g></svg>