<svg width="250" height="384" viewBox="0 0 250 384" fill="none" xmlns="http://www.w3.org/2000/svg">
<path fill-rule="evenodd" clip-rule="evenodd" d="M-3.84191e-06 0.000193564C14.6236 -0.0284032 29.0816 3.11194 42.3782 9.20713C54.421 14.7276 65.2493 22.5519 74.2597 32.2234C83.2701 22.5519 94.0984 14.7276 106.141 9.20713C119.567 3.05287 134.176 -0.0889968 148.945 0.0019182C204.665 0.00877943 249.91 45.8332 249.91 102.083C249.91 138.844 232.189 175.834 198.017 212.578C201.761 212.733 205.488 213.28 209.137 214.215C215.753 215.911 221.981 218.851 227.489 222.875H227.589L228.662 223.693C235.984 229.282 241.762 236.643 245.453 245.083C249.144 253.523 250.626 262.763 249.759 271.934C248.892 281.104 245.704 289.903 240.497 297.501C235.289 305.1 228.233 311.247 219.993 315.364L219.927 315.397L218.917 315.856L139.484 349.656L139.461 349.667C138.471 350.101 137.445 350.446 136.394 350.698L136.368 350.704L5.62945 383.389C4.01477 383.795 2.35595 384.001 0.690807 384H0.688885H-3.84191e-06V342.862L124.955 311.619L201.97 278.826L201.967 278.816C204.936 277.256 207.223 274.654 208.388 271.51C209.553 268.366 209.514 264.902 208.279 261.785C207.044 258.667 204.7 256.117 201.697 254.624C198.695 253.132 195.246 252.802 192.015 253.699L191.98 253.709L191.26 253.894L54.289 285.398L54.2767 285.401L54.2643 285.403C52.7816 285.735 51.2673 285.904 49.748 285.908L49.7368 285.908L-3.84191e-06 285.908V245.232H41.5624C47.0082 245.232 52.2309 243.068 56.0817 239.218C59.9325 235.367 62.0958 230.144 62.0958 224.698C62.0958 219.252 59.9325 214.03 56.0817 210.179C52.2309 206.328 47.0082 204.165 41.5624 204.165H-3.84191e-06V163.488H41.562C50.7997 163.487 59.9178 165.577 68.233 169.601C76.5481 173.626 83.8446 179.48 89.5755 186.725C95.3064 193.97 99.3231 202.418 101.325 211.436C102.872 218.409 103.184 225.583 102.262 232.633L118.198 228.969C148.176 206.491 170.942 184.267 186.213 162.902C201.603 141.371 209.234 120.927 209.234 102.083C209.234 68.767 181.509 40.6784 148.932 40.6784H148.903L148.874 40.678C137.005 40.5043 125.354 43.8745 115.411 50.3576C105.473 56.8373 97.6929 66.1323 93.0634 77.0551C91.5299 80.7757 88.927 83.958 85.5839 86.1989C82.2341 88.4443 78.2924 89.6432 74.2597 89.6432C70.227 89.6432 66.2853 88.4443 62.9356 86.1989C59.5925 83.9581 56.9896 80.7757 55.4561 77.0551C50.8266 66.1323 43.0461 56.8373 33.1083 50.3576C23.2641 43.939 11.7461 40.5717 -3.84191e-06 40.6739V0.000193564ZM188.205 217.039C205.238 199.83 218.531 182.666 228.044 165.593C219.343 181.21 207.48 196.902 192.484 212.635C191.085 214.102 189.658 215.57 188.205 217.039ZM97.5648 236.469C98.1817 233.534 98.5654 230.563 98.7159 227.582C98.6145 229.593 98.4072 231.598 98.0935 233.592C97.9421 234.554 97.7658 235.513 97.5648 236.469Z" fill="#5F67AA"/>
</svg>
