<?xml version="1.0" encoding="UTF-8" standalone="no"?>
<!DOCTYPE svg PUBLIC "-//W3C//DTD SVG 1.1//EN" "http://www.w3.org/Graphics/SVG/1.1/DTD/svg11.dtd">
<svg width="100%" height="100%" viewBox="0 0 48 48" version="1.1" xmlns="http://www.w3.org/2000/svg" xmlns:xlink="http://www.w3.org/1999/xlink" xml:space="preserve" xmlns:serif="http://www.serif.com/" style="fill-rule:evenodd;clip-rule:evenodd;stroke-linejoin:round;stroke-miterlimit:2;">
    <g transform="matrix(-1,1.22465e-16,-1.22465e-16,-1,26.25,45.3777)">
        <g id="path2" transform="matrix(0.127,0,0,0.127,-3.55271e-15,7.86749)">
            <path d="M0,1.772C0,0.794 0.794,0 1.772,0L33.661,0C34.639,0 35.433,0.794 35.433,1.772L35.433,33.661C35.433,34.639 34.639,35.433 33.661,35.433L1.772,35.433C0.794,35.433 0,34.639 0,33.661L0,1.772Z" style="fill:white;"/>
        </g>
        <g id="path4" transform="matrix(0.127,0,0,0.130835,7.10543e-15,-3.74443)">
            <path d="M0,159.47C0,158.492 0.794,157.698 1.772,157.698L33.661,157.698C34.639,157.698 35.433,158.492 35.433,159.47L35.433,293.504C35.433,294.482 34.639,295.276 33.661,295.276L1.772,295.276C0.794,295.276 0,294.482 0,293.504L0,159.47Z" style="fill:white;"/>
        </g>
    </g>
    <g transform="matrix(1.2,0,0,1.5,-9.6,0)">
        <rect x="38" y="0" width="10" height="2" style="fill:white;"/>
    </g>
    <g transform="matrix(7.34788e-17,1.2,-1.5,9.18485e-17,48,-45.6)">
        <rect x="38" y="0" width="10" height="2" style="fill:white;"/>
    </g>
    <path d="M30,3L30,0L5,0C2.24,0 0,2.24 0,5L0,43C0,45.76 2.24,48 5,48L43,48C45.76,48 48,45.76 48,43L48,18L45,18L45,43C45,44.104 44.104,45 43,45L5,45C3.896,45 3,44.104 3,43L3,5C3,3.896 3.896,3 5,3L30,3Z" style="fill:white;"/>
</svg>
