<svg width="71" height="32" viewBox="0 0 71 32" fill="none" xmlns="http://www.w3.org/2000/svg">
<path fill-rule="evenodd" clip-rule="evenodd" d="M34.9885 3.50218e-07C35.3186 -0.000202996 35.642 0.0881485 35.9224 0.255057C36.2027 0.421966 36.4287 0.660766 36.5748 0.944429L41.0106 9.56404L50.9335 10.9468C51.26 10.9922 51.5666 11.1243 51.8186 11.328C52.0708 11.5317 52.2586 11.799 52.3604 12.0996C52.4625 12.4002 52.4748 12.7222 52.3958 13.0292C52.3171 13.3361 52.1502 13.6158 51.914 13.8366L44.7346 20.547L46.4293 30.0184C46.4852 30.3299 46.4491 30.6503 46.3249 30.9434C46.2007 31.2364 45.9935 31.4901 45.7267 31.6761C45.4599 31.862 45.1441 31.9728 44.815 31.9956C44.486 32.0184 44.1569 31.9526 43.8649 31.8056L34.9885 27.3319L26.1121 31.8056C25.8203 31.9524 25.4915 32.0182 25.1627 31.9953C24.834 31.9725 24.5184 31.862 24.2517 31.6765C23.985 31.4908 23.7777 31.2373 23.6534 30.9447C23.529 30.6521 23.4924 30.3322 23.5477 30.0206L25.2448 20.5447L18.0607 13.8366C17.8239 13.6159 17.6564 13.336 17.5771 13.0288C17.4978 12.7215 17.5099 12.3991 17.6119 12.098C17.714 11.797 17.902 11.5294 18.1546 11.3255C18.4072 11.1216 18.7143 10.9896 19.0412 10.9445L28.9641 9.56404L33.4023 0.944429C33.5484 0.660766 33.7744 0.421966 34.0547 0.255057C34.3351 0.0881485 34.6585 -0.000202996 34.9885 3.50218e-07ZM34.9885 5.52423L31.7241 11.8618C31.5973 12.1079 31.4101 12.3208 31.1786 12.4821C30.947 12.6435 30.678 12.7485 30.3948 12.7882L23.0952 13.8049L28.3748 18.7395C28.5802 18.9312 28.7339 19.1679 28.8226 19.4293C28.9113 19.6907 28.9324 19.9688 28.8839 20.2397L27.6395 27.2077L34.1659 23.918C34.4196 23.7901 34.7019 23.7235 34.9885 23.7235C35.2751 23.7235 35.5574 23.7901 35.8111 23.918L42.34 27.2077L41.0907 20.2397C41.0424 19.9688 41.0634 19.6907 41.152 19.4293C41.2409 19.1679 41.3946 18.9312 41.5999 18.7395L46.8795 13.8072L39.5823 12.7905C39.299 12.7508 39.0301 12.6457 38.7985 12.4844C38.5669 12.323 38.3797 12.1102 38.253 11.8641L34.9885 5.52197V5.52423Z" fill="white"/>
<path fill-rule="evenodd" clip-rule="evenodd" d="M8.73157 16C8.89658 15.9999 9.05832 16.0441 9.19849 16.1275C9.33866 16.211 9.45165 16.3304 9.5247 16.4722L11.7426 20.782L16.7041 21.4734C16.8673 21.4961 17.0206 21.5621 17.1466 21.664C17.2727 21.7659 17.3666 21.8995 17.4175 22.0498C17.4686 22.2001 17.4747 22.3611 17.4352 22.5146C17.3958 22.6681 17.3124 22.8079 17.1943 22.9183L13.6046 26.2735L14.452 31.0092C14.4799 31.165 14.4619 31.3252 14.3998 31.4717C14.3377 31.6182 14.2341 31.7451 14.1007 31.838C13.9673 31.931 13.8093 31.9864 13.6448 31.9978C13.4803 32.0092 13.3158 31.9763 13.1698 31.9028L8.73157 29.666L4.29337 31.9028C4.14746 31.9762 3.98303 32.0091 3.81866 31.9977C3.65429 31.9863 3.49652 31.931 3.36316 31.8383C3.22981 31.7454 3.12617 31.6187 3.06399 31.4724C3.00178 31.3261 2.98348 31.1661 3.01117 31.0103L3.85968 26.2724L0.267636 22.9183C0.149275 22.8079 0.0655231 22.668 0.0258704 22.5144C-0.0137836 22.3607 -0.00775204 22.1995 0.0432791 22.049C0.0943114 21.8985 0.188303 21.7647 0.314606 21.6627C0.440907 21.5608 0.594465 21.4948 0.757887 21.4723L5.71934 20.782L7.93845 16.4722C8.01149 16.3304 8.12449 16.211 8.26466 16.1275C8.40483 16.0441 8.56657 15.9999 8.73157 16ZM8.73157 18.7621L7.09936 21.9309C7.03598 22.0539 6.94237 22.1604 6.8266 22.2411C6.71081 22.3217 6.57632 22.3743 6.43469 22.3941L2.78489 22.9025L5.42472 25.3697C5.52742 25.4656 5.60427 25.584 5.64862 25.7147C5.69297 25.8453 5.70349 25.9844 5.67927 26.1198L5.05703 29.6038L8.32028 27.959C8.44712 27.8951 8.58828 27.8617 8.73157 27.8617C8.87488 27.8617 9.01602 27.8951 9.14287 27.959L12.4073 29.6038L11.7827 26.1198C11.7585 25.9844 11.769 25.8453 11.8133 25.7147C11.8577 25.584 11.9346 25.4656 12.0372 25.3697L14.6771 22.9036L11.0285 22.3952C10.8868 22.3754 10.7523 22.3229 10.6366 22.2422C10.5208 22.1615 10.4272 22.0551 10.3638 21.9321L8.73157 18.761V18.7621Z" fill="white"/>
<path fill-rule="evenodd" clip-rule="evenodd" d="M61.3077 16C61.4728 15.9999 61.6345 16.0441 61.7747 16.1275C61.9148 16.211 62.0278 16.3304 62.1009 16.4722L64.3188 20.782L69.2802 21.4734C69.4435 21.4961 69.5968 21.5621 69.7228 21.664C69.8489 21.7659 69.9428 21.8995 69.9937 22.0498C70.0447 22.2001 70.0509 22.3611 70.0114 22.5146C69.972 22.6681 69.8886 22.8079 69.7705 22.9183L66.1808 26.2735L67.0281 31.0092C67.0561 31.165 67.038 31.3252 66.9759 31.4717C66.9138 31.6182 66.8102 31.7451 66.6768 31.838C66.5434 31.931 66.3855 31.9864 66.221 31.9978C66.0565 32.0092 65.892 31.9763 65.7459 31.9028L61.3077 29.666L56.8695 31.9028C56.7236 31.9762 56.5592 32.0091 56.3948 31.9977C56.2305 31.9863 56.0727 31.931 55.9393 31.8383C55.806 31.7454 55.7023 31.6187 55.6402 31.4724C55.578 31.3261 55.5597 31.1661 55.5873 31.0103L56.4359 26.2724L52.8438 22.9183C52.7254 22.8079 52.6417 22.668 52.602 22.5144C52.5624 22.3607 52.5684 22.1995 52.6195 22.049C52.6705 21.8985 52.7645 21.7647 52.8908 21.6627C53.0171 21.5608 53.1706 21.4948 53.3341 21.4723L58.2955 20.782L60.5146 16.4722C60.5877 16.3304 60.7007 16.211 60.8408 16.1275C60.981 16.0441 61.1427 15.9999 61.3077 16ZM61.3077 18.7621L59.6755 21.9309C59.6122 22.0539 59.5185 22.1604 59.4028 22.2411C59.287 22.3217 59.1525 22.3743 59.0109 22.3941L55.3611 22.9025L58.0009 25.3697C58.1036 25.4656 58.1804 25.584 58.2248 25.7147C58.2691 25.8453 58.2797 25.9844 58.2554 26.1198L57.6332 29.6038L60.8964 27.959C61.0233 27.8951 61.1644 27.8617 61.3077 27.8617C61.451 27.8617 61.5922 27.8951 61.719 27.959L64.9835 29.6038L64.3588 26.1198C64.3347 25.9844 64.3452 25.8453 64.3895 25.7147C64.4339 25.584 64.5108 25.4656 64.6134 25.3697L67.2532 22.9036L63.6046 22.3952C63.463 22.3754 63.3285 22.3229 63.2127 22.2422C63.0969 22.1615 63.0033 22.0551 62.94 21.9321L61.3077 18.761V18.7621Z" fill="white"/>
</svg>
