<?xml version="1.0" encoding="UTF-8" standalone="no"?><!DOCTYPE svg PUBLIC "-//W3C//DTD SVG 1.1//EN" "http://www.w3.org/Graphics/SVG/1.1/DTD/svg11.dtd"><svg width="100%" height="100%" viewBox="0 0 30 30" version="1.1" xmlns="http://www.w3.org/2000/svg" xmlns:xlink="http://www.w3.org/1999/xlink" xml:space="preserve" xmlns:serif="http://www.serif.com/" style="fill-rule:evenodd;clip-rule:evenodd;stroke-linejoin:round;stroke-miterlimit:2;"><path d="M15,7c-1.989,0 -3.897,0.765 -5.303,2.127c-1.407,1.363 -2.197,3.21 -2.197,5.136c0,4.006 4.227,5.123 4.525,9.858l5.949,-0c0.298,-4.735 4.526,-5.852 4.526,-9.858c0,-1.926 -0.79,-3.773 -2.197,-5.136c-1.406,-1.362 -3.314,-2.127 -5.303,-2.127Zm0,23c2.029,0 2.66,-1.066 2.857,-1.729l-5.714,0c0.197,0.664 0.828,1.729 2.857,1.729Zm-2.946,-2.766l5.892,-0l0,-2.074l-5.892,-0l-0,2.074Z" style="fill:#5f67aa;fill-rule:nonzero;"/><path d="M15.75,0.75c0,-0.414 -0.336,-0.75 -0.75,-0.75c-0.414,0 -0.75,0.336 -0.75,0.75l0,3.5c0,0.414 0.336,0.75 0.75,0.75c0.414,-0 0.75,-0.336 0.75,-0.75l0,-3.5Z" style="fill:#5f67aa;"/><path d="M0.75,14.25c-0.414,0 -0.75,0.336 -0.75,0.75c0,0.414 0.336,0.75 0.75,0.75l3.5,0c0.414,0 0.75,-0.336 0.75,-0.75c0,-0.414 -0.336,-0.75 -0.75,-0.75l-3.5,0Z" style="fill:#5f67aa;"/><path d="M25.75,14.25c-0.414,0 -0.75,0.336 -0.75,0.75c0,0.414 0.336,0.75 0.75,0.75l3.5,0c0.414,0 0.75,-0.336 0.75,-0.75c0,-0.414 -0.336,-0.75 -0.75,-0.75l-3.5,0Z" style="fill:#5f67aa;"/><path d="M5.282,4.22c-0.292,-0.293 -0.767,-0.293 -1.06,-0c-0.293,0.292 -0.293,0.767 -0,1.06l2.475,2.475c0.292,0.293 0.768,0.293 1.06,0c0.293,-0.293 0.293,-0.768 0,-1.061l-2.475,-2.474Z" style="fill:#5f67aa;"/><path d="M25.778,5.28c0.293,-0.293 0.293,-0.768 0,-1.06c-0.293,-0.293 -0.768,-0.293 -1.06,-0l-2.475,2.474c-0.293,0.293 -0.293,0.768 -0,1.061c0.292,0.293 0.768,0.293 1.06,0l2.475,-2.475Z" style="fill:#5f67aa;"/></svg>