<?xml version="1.0" encoding="UTF-8" standalone="no"?><!DOCTYPE svg PUBLIC "-//W3C//DTD SVG 1.1//EN" "http://www.w3.org/Graphics/SVG/1.1/DTD/svg11.dtd"><svg width="100%" height="100%" viewBox="0 0 30 30" version="1.1" xmlns="http://www.w3.org/2000/svg" xmlns:xlink="http://www.w3.org/1999/xlink" xml:space="preserve" xmlns:serif="http://www.serif.com/" style="fill-rule:evenodd;clip-rule:evenodd;stroke-linejoin:round;stroke-miterlimit:2;"><path d="M12.21,0c1.061,0 1.665,1.056 1.665,2.117l0,6.499l-1.342,0c-0.458,-1.131 -1.562,-1.875 -2.782,-1.875c-1.645,0 -3,1.354 -3,3c0,1.646 1.355,3 3,3c1.22,0 2.324,-0.744 2.782,-1.875l1.342,0l0,16.347c0,0.894 -0.378,1.784 -1.174,2.19c-0.723,0.378 -1.525,0.578 -2.34,0.582c-2.265,0 -3.95,-1.146 -5.035,-2.502c-0.751,-0.936 -1.274,-2.033 -1.53,-3.205c-0.7,-0.207 -1.349,-0.56 -1.903,-1.035c-1.065,-0.917 -1.893,-2.387 -1.893,-4.553c-0,-1.133 0.081,-2.12 0.285,-2.949l6.315,0c1.017,0 1.86,0.75 2.003,1.726c-1.12,0.464 -1.854,1.561 -1.854,2.773c0,1.645 1.355,3 3,3c1.646,-0 3,-1.355 3,-3c0,-1.225 -0.749,-2.332 -1.886,-2.786c-0.163,-2.222 -2.036,-3.963 -4.263,-3.963l-5.04,0c0.225,-0.186 0.475,-0.338 0.742,-0.453c-0.154,-0.551 -0.244,-1.119 -0.267,-1.691c-0.049,-1.102 0.116,-2.249 0.443,-3.271c0.324,-1.005 0.837,-1.985 1.557,-2.661c0.452,-0.44 1.024,-0.736 1.644,-0.851c0.298,-1.26 1.059,-2.301 2.029,-3.055c1.247,-0.972 2.88,-1.509 4.5,-1.509m3.917,22.491l2.475,0c2.345,0 4.275,-1.93 4.275,-4.275l-0,-2.692c1.131,-0.458 1.875,-1.562 1.875,-2.782c-0,-1.645 -1.354,-3 -3,-3c-1.646,0 -3,1.355 -3,3c-0,1.22 0.744,2.324 1.875,2.782l-0,2.692c-0,1.111 -0.914,2.025 -2.025,2.025l-2.475,0l-0,-18.124c-0,-1.061 0.604,-2.117 1.665,-2.117c1.623,0 3.255,0.537 4.501,1.509c0.971,0.754 1.731,1.797 2.03,3.056c0.63,0.105 1.191,0.425 1.644,0.85c0.72,0.677 1.233,1.655 1.557,2.661c0.327,1.022 0.492,2.169 0.442,3.272c-0.025,0.564 -0.108,1.14 -0.267,1.69l0.099,0.045c0.555,0.261 1.005,0.671 1.341,1.215c0.638,1.028 0.863,2.507 0.863,4.392c-0,2.168 -0.828,3.639 -1.893,4.553c-0.555,0.475 -1.204,0.828 -1.905,1.035c-0.255,1.172 -0.778,2.269 -1.529,3.205c-1.084,1.356 -2.769,2.502 -5.035,2.502c-0.815,-0.004 -1.618,-0.203 -2.34,-0.58c-0.795,-0.408 -1.173,-1.298 -1.173,-2.192l-0,-4.722Zm-7.125,-12.75c-0,-0.411 0.339,-0.75 0.75,-0.75c0.411,0 0.75,0.339 0.75,0.75c-0,0.411 -0.339,0.75 -0.75,0.75c-0.411,0 -0.75,-0.339 -0.75,-0.75m0.75,9.75c-0.411,0 -0.75,0.339 -0.75,0.75c-0,0.411 0.339,0.75 0.75,0.75c0.411,0 0.75,-0.339 0.75,-0.75c-0,-0.411 -0.339,-0.75 -0.75,-0.75m11.25,-6.75c-0,0.411 0.339,0.75 0.75,0.75c0.411,0 0.75,-0.339 0.75,-0.75c-0,-0.411 -0.339,-0.75 -0.75,-0.75c-0.411,0 -0.75,0.339 -0.75,0.75" style="fill:#5f67aa;fill-rule:nonzero;"/></svg>