<svg width="32" height="32" viewBox="0 0 32 32" fill="none" xmlns="http://www.w3.org/2000/svg">
<path d="M13.0833 8C12.6192 8 12.1741 8.18061 11.8459 8.5021C11.5177 8.82359 11.3333 9.25963 11.3333 9.71429H10.4583C10.0716 9.71429 9.70063 9.8648 9.42714 10.1327C9.15365 10.4006 9 10.764 9 11.1429V13.4286C9.00001 14.0858 9.25693 14.7181 9.71799 15.1956C10.1791 15.6731 10.8093 15.9595 11.4792 15.996C11.7128 16.8834 12.213 17.6816 12.915 18.2873C13.6171 18.893 14.4886 19.2782 15.4167 19.3931V20.5714H13.375C12.8335 20.5714 12.3142 20.7821 11.9313 21.1572C11.5484 21.5323 11.3333 22.041 11.3333 22.5714V23.1429C11.3333 23.3702 11.4255 23.5882 11.5896 23.7489C11.7537 23.9097 11.9763 24 12.2083 24H19.7917C20.0237 24 20.2463 23.9097 20.4104 23.7489C20.5745 23.5882 20.6667 23.3702 20.6667 23.1429V22.5714C20.6667 22.041 20.4516 21.5323 20.0687 21.1572C19.6858 20.7821 19.1665 20.5714 18.625 20.5714H16.5833V19.3931C17.5114 19.2782 18.3829 18.893 19.085 18.2873C19.787 17.6816 20.2872 16.8834 20.5208 15.996C21.1907 15.9595 21.8209 15.6731 22.282 15.1956C22.7431 14.7181 23 14.0858 23 13.4286V11.1429C23 10.764 22.8464 10.4006 22.5729 10.1327C22.2994 9.8648 21.9284 9.71429 21.5417 9.71429H20.6667C20.6667 9.25963 20.4823 8.82359 20.1541 8.5021C19.8259 8.18061 19.3808 8 18.9167 8H13.0833ZM20.6667 14.8286V10.8571H21.5417C21.619 10.8571 21.6932 10.8872 21.7479 10.9408C21.8026 10.9944 21.8333 11.0671 21.8333 11.1429V13.4286C21.8334 13.7579 21.7173 14.0771 21.5047 14.3323C21.2921 14.5874 20.9961 14.7627 20.6667 14.8286ZM11.3333 10.8571V14.8286C11.0039 14.7627 10.7079 14.5874 10.4953 14.3323C10.2827 14.0771 10.1666 13.7579 10.1667 13.4286V11.1429C10.1667 11.0671 10.1974 10.9944 10.2521 10.9408C10.3068 10.8872 10.381 10.8571 10.4583 10.8571H11.3333Z" fill="#5761B2"/>
<path fill-rule="evenodd" clip-rule="evenodd" d="M20 30.5L5 30.5C3.068 30.5 1.5 28.932 1.5 27L1.5 5C1.5 3.068 3.068 1.5 5 1.5L27 1.5C28.932 1.5 30.5 3.068 30.5 5L30.5 20L32 20L32 5C32 2.24 29.76 1.95827e-07 27 4.37114e-07L5 2.36041e-06C2.24 2.6017e-06 -2.6017e-06 2.24 -2.36041e-06 5L-4.37114e-07 27C-1.95827e-07 29.76 2.24 32 5 32L20 32L20 30.5ZM24 30.5L24 32L32 32L32 24L30.5 24L30.5 30.5L24 30.5Z" fill="#5761B2"/>
</svg>
