<svg width="32" height="32" viewBox="0 0 32 32" fill="none" xmlns="http://www.w3.org/2000/svg">
<path d="M21.252 13.9998H16.5016V15.75C16.5016 16.9907 15.4921 18.0002 14.2514 18.0002C13.0107 18.0002 12.0012 16.9907 12.0012 15.75V11.9497L9.97292 13.1685C9.36975 13.5279 9.00097 14.1811 9.00097 14.8812V16.3594L6.50076 17.8033C6.02259 18.0783 5.85695 18.6909 6.1351 19.169L8.63531 23.5006C8.91033 23.9788 9.52289 24.1413 10.0011 23.8663L13.2326 22.0005H17.5017C18.6049 22.0005 19.5019 21.1036 19.5019 20.0003H20.0019C20.5551 20.0003 21.002 19.5534 21.002 19.0003V17.0001H21.252C21.6677 17.0001 22.0021 16.6657 22.0021 16.25V14.7499C22.0021 14.3342 21.6677 13.9998 21.252 13.9998ZM25.868 12.831L23.3678 8.49937C23.0928 8.0212 22.4802 7.85869 22.0021 8.13371L18.7705 9.99949H15.5765C15.2015 9.99949 14.8358 10.1058 14.5171 10.3026L13.4701 10.9558C13.1763 11.1371 13.0013 11.459 13.0013 11.8028V15.75C13.0013 16.4407 13.5607 17.0001 14.2514 17.0001C14.9421 17.0001 15.5015 16.4407 15.5015 15.75V12.9997H21.252C22.2177 12.9997 23.0021 13.7842 23.0021 14.7499V15.6406L25.5024 14.1967C25.9805 13.9186 26.143 13.3091 25.868 12.831Z" fill="#5761B2"/>
<path fill-rule="evenodd" clip-rule="evenodd" d="M1.5 20L1.5 5C1.5 3.068 3.068 1.5 5 1.5L27 1.5C28.932 1.5 30.5 3.068 30.5 5L30.5 27C30.5 28.932 28.932 30.5 27 30.5L12 30.5L12 32L27 32C29.76 32 32 29.76 32 27L32 5C32 2.24 29.76 3.54884e-07 27 3.21972e-07L5 5.96244e-08C2.24 2.67117e-08 3.54884e-07 2.24 3.21972e-07 5L1.43099e-07 20L1.5 20ZM1.5 24L9.5399e-08 24L0 32L8 32L8 30.5L1.5 30.5L1.5 24Z" fill="#5761B2"/>
</svg>
