<svg width="32" height="32" viewBox="0 0 32 32" fill="none" xmlns="http://www.w3.org/2000/svg">
<path fill-rule="evenodd" clip-rule="evenodd" d="M30.5 12L30.5 27C30.5 28.932 28.932 30.5 27 30.5L5 30.5C3.068 30.5 1.5 28.932 1.5 27L1.5 5C1.5 3.068 3.068 1.5 5 1.5L20 1.5L20 -5.24537e-07L5 -1.18021e-06C2.24 -1.30085e-06 -9.79135e-08 2.24 -2.18557e-07 5L-1.18021e-06 27C-1.30085e-06 29.76 2.24 32 5 32L27 32C29.76 32 32 29.76 32 27L32 12L30.5 12ZM30.5 8L32 8L32 0L24 -3.49691e-07L24 1.5L30.5 1.5L30.5 8Z" fill="#5761B2"/>
<path fill-rule="evenodd" clip-rule="evenodd" d="M19.1747 15.9427C19.5942 15.329 19.8182 14.6075 19.8182 13.8695C19.8182 12.8798 19.4159 11.9306 18.6999 11.2308C17.9838 10.531 17.0126 10.1378 16 10.1378C15.2448 10.1378 14.5066 10.3567 13.8787 10.7667C13.2508 11.1768 12.7614 11.7596 12.4725 12.4414C12.1835 13.1233 12.1079 13.8736 12.2552 14.5975C12.4025 15.3213 12.7662 15.9863 13.3001 16.5081C13.8341 17.03 14.5145 17.3854 15.2551 17.5294C15.9958 17.6734 16.7635 17.5995 17.4612 17.3171C18.1588 17.0346 18.7552 16.5563 19.1747 15.9427ZM21.4273 16.3675C21.8045 15.5863 22.0001 14.7333 22 13.8695C22.0009 12.8812 21.7463 11.9087 21.2597 11.0423C20.7731 10.176 20.0704 9.44384 19.2168 8.91398C18.3632 8.38413 17.3864 8.07372 16.3772 8.0116C15.3679 7.94947 14.359 8.13765 13.4441 8.55865C12.5292 8.97964 11.7381 9.61979 11.1441 10.4196C10.5501 11.2195 10.1727 12.1531 10.0467 13.1337C9.92078 14.1143 10.0505 15.1101 10.4237 16.0286C10.797 16.9471 11.4018 17.7585 12.1818 18.3874V23.4651C12.1813 23.5561 12.2048 23.6456 12.2502 23.7251C12.2957 23.8045 12.3613 23.871 12.4409 23.9182C12.5198 23.9667 12.6102 23.9946 12.7033 23.9993C12.7964 24.004 12.8891 23.9852 12.9727 23.9449L16 22.4589L19.0273 23.9449C19.1047 23.9783 19.1881 23.9964 19.2727 23.9982C19.4174 23.9982 19.5561 23.942 19.6584 23.8421C19.7607 23.7421 19.8182 23.6065 19.8182 23.4651V18.3874C20.5005 17.8385 21.0501 17.1486 21.4273 16.3675ZM20.0818 11.204C20.6212 11.9929 20.9091 12.9206 20.9091 13.8695C20.9073 15.1414 20.3895 16.3607 19.4693 17.2601C18.549 18.1595 17.3014 18.6655 16 18.6673C15.0291 18.6673 14.0799 18.3859 13.2727 17.8587C12.4654 17.3315 11.8361 16.5822 11.4646 15.7055C11.093 14.8288 10.9958 13.8642 11.1852 12.9335C11.3747 12.0028 11.8422 11.1479 12.5287 10.4769C13.2153 9.80592 14.09 9.34897 15.0423 9.16385C15.9946 8.97873 16.9816 9.07374 17.8786 9.43687C18.7756 9.80001 19.5423 10.415 20.0818 11.204ZM18.6618 12.7059L17.9559 12L15.3724 14.5882L13.9559 13.1765L13.25 13.8824L15.3724 16L18.6618 12.7059Z" fill="#5761B2"/>
</svg>
