<?xml version="1.0" encoding="UTF-8" standalone="no"?><!DOCTYPE svg PUBLIC "-//W3C//DTD SVG 1.1//EN" "http://www.w3.org/Graphics/SVG/1.1/DTD/svg11.dtd"><svg width="100%" height="100%" viewBox="0 0 30 26" version="1.1" xmlns="http://www.w3.org/2000/svg" xmlns:xlink="http://www.w3.org/1999/xlink" xml:space="preserve" xmlns:serif="http://www.serif.com/" style="fill-rule:evenodd;clip-rule:evenodd;stroke-linejoin:round;stroke-miterlimit:2;"><path d="M22.876,9.75l-7.125,-0l0,2.844c0,2.016 -1.514,3.656 -3.375,3.656c-1.861,0 -3.375,-1.64 -3.375,-3.656l0,-6.176l-3.042,1.981c-0.905,0.584 -1.458,1.645 -1.458,2.783l0,2.402l-3.75,2.346c-0.717,0.447 -0.966,1.443 -0.548,2.22l3.75,7.038c0.412,0.778 1.331,1.042 2.048,0.595l4.847,-3.032l6.403,-0c1.655,-0 3,-1.458 3,-3.251l0.75,0c0.83,0 1.5,-0.726 1.5,-1.625l0,-3.25l0.375,0c0.624,0 1.125,-0.543 1.125,-1.219l0,-2.437c0,-0.676 -0.501,-1.219 -1.125,-1.219Zm6.923,-1.9l-3.75,-7.039c-0.412,-0.777 -1.331,-1.041 -2.048,-0.594l-4.847,3.032l-4.79,0c-0.563,0 -1.111,0.173 -1.589,0.493l-1.571,1.061c-0.44,0.295 -0.703,0.818 -0.703,1.377l0,6.414c0,1.122 0.839,2.031 1.875,2.031c1.036,0 1.875,-0.909 1.875,-2.031l0,-4.469l8.625,-0c1.448,-0 2.625,1.274 2.625,2.844l-0,1.447l3.75,-2.346c0.717,-0.452 0.961,-1.443 0.548,-2.22Z" style="fill:#5f67aa;fill-rule:nonzero;"/></svg>