<svg width="32" height="32" viewBox="0 0 32 32" fill="none" xmlns="http://www.w3.org/2000/svg">
<path d="M16.0528 8C14.7127 8 13.4275 8.53235 12.4799 9.47993C11.5323 10.4275 11 11.7127 11 13.0528C11 15.839 13.8476 16.6164 14.0483 19.9101H18.0566C18.2572 16.6164 21.1056 15.839 21.1056 13.0528C21.1056 11.7127 20.5732 10.4275 19.6256 9.47993C18.6781 8.53235 17.3929 8 16.0528 8ZM16.0528 24C17.4199 24 17.8451 23.2587 17.9779 22.7974H14.1277C14.2605 23.2594 14.6856 24 16.0528 24ZM14.0678 22.0756H18.0378V20.6327H14.0678V22.0756Z" fill="#5761B2"/>
<path fill-rule="evenodd" clip-rule="evenodd" d="M30.5 12L30.5 27C30.5 28.932 28.932 30.5 27 30.5L5 30.5C3.068 30.5 1.5 28.932 1.5 27L1.5 5C1.5 3.068 3.068 1.5 5 1.5L20 1.5L20 -5.24537e-07L5 -1.18021e-06C2.24 -1.30085e-06 -9.79135e-08 2.24 -2.18557e-07 5L-1.18021e-06 27C-1.30085e-06 29.76 2.24 32 5 32L27 32C29.76 32 32 29.76 32 27L32 12L30.5 12ZM30.5 8L32 8L32 0L24 -3.49691e-07L24 1.5L30.5 1.5L30.5 8Z" fill="#5761B2"/>
</svg>
