<?xml version="1.0" encoding="UTF-8" standalone="no"?><!DOCTYPE svg PUBLIC "-//W3C//DTD SVG 1.1//EN" "http://www.w3.org/Graphics/SVG/1.1/DTD/svg11.dtd"><svg width="100%" height="100%" viewBox="0 0 30 30" version="1.1" xmlns="http://www.w3.org/2000/svg" xmlns:xlink="http://www.w3.org/1999/xlink" xml:space="preserve" xmlns:serif="http://www.serif.com/" style="fill-rule:evenodd;clip-rule:evenodd;stroke-linejoin:round;stroke-miterlimit:2;"><path d="M20.953,14.198c0.786,-1.151 1.206,-2.504 1.206,-3.888c0,-1.855 -0.754,-3.635 -2.097,-4.947c-1.342,-1.312 -3.163,-2.05 -5.062,-2.05c-1.416,0 -2.8,0.411 -3.977,1.18c-1.178,0.769 -2.095,1.861 -2.637,3.14c-0.542,1.278 -0.684,2.685 -0.408,4.042c0.277,1.357 0.959,2.604 1.96,3.583c1.001,0.978 2.277,1.645 3.665,1.915c1.389,0.27 2.829,0.131 4.137,-0.398c1.308,-0.53 2.426,-1.427 3.213,-2.577Zm-0.962,-6.069l-1.324,-1.324l-4.844,4.853l-2.656,-2.647l-1.323,1.324l3.979,3.97l6.168,-6.176Z" style="fill:#5f67aa;"/><path d="M29.887,24.612l-5.476,-10.149c0.559,-1.271 0.871,-2.675 0.871,-4.153c0,-5.694 -4.606,-10.31 -10.288,-10.31c-5.684,0 -10.29,4.616 -10.29,10.31c0,1.513 0.328,2.949 0.912,4.243l-5.501,10.054c-0.177,0.323 -0.148,0.722 0.074,1.017c0.222,0.294 0.598,0.432 0.956,0.348l4.698,-1.08l1.607,4.487c0.126,0.349 0.443,0.591 0.812,0.618c0.024,0.002 0.046,0.003 0.069,0.003c0.344,-0 0.662,-0.191 0.824,-0.495l4.788,-8.937c0.349,0.035 0.699,0.053 1.05,0.053c0.325,-0 0.646,-0.017 0.964,-0.047l4.891,8.938c0.176,0.323 0.527,0.514 0.893,0.485c0.368,-0.03 0.684,-0.271 0.808,-0.618l1.608,-4.488l4.698,1.08c0.36,0.087 0.732,-0.053 0.954,-0.346c0.223,-0.292 0.253,-0.689 0.078,-1.013l0,-0Zm-23.303,-14.302c0,-4.646 3.773,-8.426 8.41,-8.426c4.637,-0 8.409,3.78 8.409,8.426c-0,4.647 -3.772,8.428 -8.409,8.428c-4.638,-0 -8.41,-3.781 -8.41,-8.428" style="fill:#5f67aa;fill-rule:nonzero;"/></svg>