<?xml version="1.0" encoding="UTF-8" standalone="no"?>
<!DOCTYPE svg PUBLIC "-//W3C//DTD SVG 1.1//EN" "http://www.w3.org/Graphics/SVG/1.1/DTD/svg11.dtd">
<svg width="100%" height="100%" viewBox="0 0 32 32" version="1.1" xmlns="http://www.w3.org/2000/svg" xmlns:xlink="http://www.w3.org/1999/xlink" xml:space="preserve" xmlns:serif="http://www.serif.com/" style="fill-rule:evenodd;clip-rule:evenodd;stroke-linejoin:round;stroke-miterlimit:2;">
    <path d="M9.214,19.959L9.214,22.786L12.041,22.786L20.381,14.439L17.553,11.612L9.214,19.959ZM24,20.796L20.796,24L16.875,20.079L18.209,18.745L18.963,19.499L20.826,17.629L21.896,18.699L20.796,19.77L21.595,20.524L22.665,19.468L24,20.796ZM11.936,15.118L8,11.205L11.205,8L12.532,9.335L10.669,11.205L11.476,12.004L13.331,10.134L14.402,11.205L13.331,12.268L14.085,13.022L11.936,15.118ZM22.567,12.23C22.862,11.936 22.862,11.476 22.567,11.167L20.803,9.433C20.524,9.139 20.034,9.139 19.74,9.433L18.353,10.812L21.18,13.64L22.567,12.23Z" style="fill:rgb(87,97,178);fill-rule:nonzero;"/>
    <g transform="matrix(6.12323e-17,1,-1,6.12323e-17,32,2.98122e-08)">
        <path d="M1.5,20L1.5,5C1.5,3.068 3.068,1.5 5,1.5L27,1.5C28.932,1.5 30.5,3.068 30.5,5L30.5,27C30.5,28.932 28.932,30.5 27,30.5L12,30.5L12,32L27,32C29.76,32 32,29.76 32,27L32,5C32,2.24 29.76,0 27,0L5,0C2.24,0 0,2.24 0,5L0,20L1.5,20ZM1.5,24L0,24L0,32L8,32L8,30.5L1.5,30.5L1.5,24Z" style="fill:rgb(87,97,178);"/>
    </g>
</svg>
