<?xml version="1.0" encoding="UTF-8" standalone="no"?><!DOCTYPE svg PUBLIC "-//W3C//DTD SVG 1.1//EN" "http://www.w3.org/Graphics/SVG/1.1/DTD/svg11.dtd"><svg width="100%" height="100%" viewBox="0 0 30 30" version="1.1" xmlns="http://www.w3.org/2000/svg" xmlns:xlink="http://www.w3.org/1999/xlink" xml:space="preserve" xmlns:serif="http://www.serif.com/" style="fill-rule:evenodd;clip-rule:evenodd;stroke-linejoin:round;stroke-miterlimit:2;"><path d="M21.816,15c0.155,-0 0.307,0.041 0.438,0.12c0.131,0.078 0.237,0.19 0.306,0.323l2.079,4.04l4.651,0.648c0.154,0.022 0.297,0.084 0.415,0.179c0.119,0.095 0.207,0.221 0.254,0.362c0.048,0.141 0.054,0.292 0.017,0.435c-0.037,0.144 -0.115,0.275 -0.226,0.379l-3.365,3.145l0.794,4.44c0.026,0.146 0.009,0.296 -0.049,0.434c-0.058,0.137 -0.155,0.256 -0.28,0.343c-0.125,0.087 -0.273,0.139 -0.428,0.15c-0.154,0.011 -0.308,-0.02 -0.445,-0.089l-4.161,-2.097l-4.161,2.097c-0.136,0.069 -0.29,0.1 -0.445,0.089c-0.154,-0.011 -0.302,-0.063 -0.427,-0.15c-0.125,-0.087 -0.222,-0.206 -0.28,-0.343c-0.058,-0.137 -0.076,-0.287 -0.05,-0.433l0.796,-4.442l-3.368,-3.144c-0.111,-0.104 -0.189,-0.235 -0.226,-0.379c-0.038,-0.144 -0.032,-0.295 0.016,-0.436c0.048,-0.141 0.136,-0.267 0.254,-0.362c0.119,-0.096 0.263,-0.158 0.416,-0.179l4.651,-0.647l2.081,-4.04c0.068,-0.133 0.174,-0.245 0.306,-0.323c0.131,-0.079 0.283,-0.12 0.437,-0.12Z" style="fill:#5f67aa;"/><path d="M14.581,24.876l-5.501,-0l-0.498,-3.98c-0.269,-0.104 -0.523,-0.229 -0.761,-0.374c-0.238,-0.145 -0.471,-0.3 -0.7,-0.466l-3.701,1.555l-3.42,-5.908l3.203,-2.426c-0.021,-0.145 -0.031,-0.284 -0.031,-0.419l-0,-0.839c-0,-0.136 0.01,-0.276 0.031,-0.421l-3.203,-2.425l3.42,-5.908l3.701,1.555c0.228,-0.166 0.466,-0.322 0.715,-0.467c0.249,-0.145 0.497,-0.269 0.746,-0.373l0.498,-3.98l6.84,0l0.498,3.98c0.269,0.104 0.524,0.228 0.762,0.373c0.239,0.145 0.472,0.301 0.699,0.467l3.701,-1.555l3.42,5.908l-3.203,2.425c0.021,0.145 0.031,0.285 0.031,0.421l0,0.838c0,0.047 -0.002,0.095 -0.007,0.143l-0.005,0c-0.516,-0 -1.022,0.14 -1.46,0.401c-0.001,0 -0.001,0 -0.001,0c-0.457,0.272 -0.822,0.664 -1.06,1.126l-1.606,3.118c0,0 -3.624,0.504 -3.624,0.504c-0.513,0.071 -0.997,0.282 -1.396,0.604c-0.416,0.336 -0.724,0.779 -0.892,1.275c-0,0.001 -0,0.001 -0,0.001c-0.173,0.511 -0.193,1.057 -0.059,1.578c0,0 0,0 0,0c0.132,0.51 0.407,0.976 0.8,1.342l2.063,1.927Zm1.506,-1.331l-2.206,-2.059c-0.111,-0.104 -0.189,-0.235 -0.226,-0.379c-0.038,-0.144 -0.032,-0.295 0.016,-0.436c0.048,-0.141 0.136,-0.267 0.254,-0.362c0.119,-0.096 0.263,-0.158 0.416,-0.179l4.651,-0.647l2.081,-4.04c0.068,-0.133 0.174,-0.245 0.306,-0.323c0.131,-0.079 0.283,-0.12 0.437,-0.12c0.155,-0 0.307,0.041 0.438,0.12c0.131,0.078 0.237,0.19 0.306,0.323l1.204,2.34l-2.215,3.828l-3.67,-1.555c-0.228,0.166 -0.466,0.321 -0.715,0.466c-0.249,0.145 -0.497,0.27 -0.746,0.374l-0.331,2.649Zm-3.525,-6.754c1.203,0 2.229,-0.425 3.079,-1.275c0.849,-0.85 1.274,-1.876 1.274,-3.078c0,-1.203 -0.425,-2.229 -1.274,-3.079c-0.85,-0.849 -1.876,-1.274 -3.079,-1.274c-1.223,-0 -2.254,0.425 -3.094,1.274c-0.84,0.85 -1.26,1.876 -1.259,3.079c-0,1.202 0.42,2.228 1.26,3.078c0.84,0.85 1.871,1.275 3.093,1.275Zm12.407,-1.088l-0.014,0.023l-0.029,-0.055l0.043,0.032Z" style="fill:#5f67aa;fill-rule:nonzero;"/></svg>