<?xml version="1.0" encoding="UTF-8" standalone="no"?>
<!DOCTYPE svg PUBLIC "-//W3C//DTD SVG 1.1//EN" "http://www.w3.org/Graphics/SVG/1.1/DTD/svg11.dtd">
<svg width="100%" height="100%" viewBox="0 0 488 438" version="1.1" xmlns="http://www.w3.org/2000/svg" xmlns:xlink="http://www.w3.org/1999/xlink" xml:space="preserve" xmlns:serif="http://www.serif.com/" style="fill-rule:evenodd;clip-rule:evenodd;stroke-linejoin:round;stroke-miterlimit:2;">
    <g transform="matrix(1,0,0,1,0,0.000433278)">
        <g transform="matrix(1,0,0,1,-30,-31.6006)">
            <g transform="matrix(0.921316,0,0,1,1.90078,0)">
                <path d="M491.136,348.562C491.136,348.562 456.95,455.198 339.057,453.103C339.057,453.103 392.428,415.805 389.056,377.061C389.056,377.061 300.364,454.356 229.407,426.81C229.407,426.81 298.116,408.021 355.738,335.099C355.738,335.099 253.031,420.217 121.653,344.822C121.653,344.822 198.947,336.994 252.533,289.508C252.533,289.508 127.538,334.337 30.499,215.738C30.499,215.738 207.031,213.688 265.781,186.615C292.531,174.288 317.31,165.769 329.643,146.929C349.798,116.136 292.246,29.271 292.244,31.648C404.66,70.524 377.053,161.767 487.526,230.101C582.347,288.753 572.864,420.97 523.949,468.601C523.066,436.882 528.443,365.78 491.136,348.562Z" style="fill:rgb(3,35,54);fill-opacity:0.15;"/>
            </g>
        </g>
        <g transform="matrix(1,0,0,1,-30,-31.6006)">
            <g transform="matrix(1,0,0,1,1,-6.39962)">
                <path d="M147.909,438.902C147.154,437.905 147.425,433.796 147.909,431.862L153.86,431.862C155.244,433.796 157.615,438.556 156.621,439.365C155.628,440.174 149.044,440.398 147.909,438.902Z" style="fill:rgb(25,25,38);fill-rule:nonzero;"/>
                <path d="M182.086,431.762C182.086,431.762 181.475,432.827 181.239,434.955C181.012,437.007 181.149,437.441 181.831,438.197C182.514,438.954 198.005,438.901 198.005,438.901C198.005,438.901 198.826,437.327 196.334,435.636C193.843,433.946 187.556,431.878 187.556,431.878L182.086,431.762Z" style="fill:rgb(25,25,38);fill-rule:nonzero;"/>
                <path d="M152.093,310.368C152.093,310.368 141.167,319.513 139.57,326.922C136.265,342.261 146.471,431.862 146.471,431.862L155.133,431.862L162.224,350.577C162.224,350.577 170.168,368.729 173.315,379.919C175.504,387.705 179.481,425.044 181.407,431.862L190.032,431.762C190.032,431.762 191.851,388.656 191.157,378.567C190.338,366.676 173.474,311.214 173.474,311.214L152.093,310.368Z" style="fill:rgb(3,35,54);fill-rule:nonzero;"/>
                <path d="M165.793,232.955C165.793,232.955 169.108,232.889 165.793,231.686C162.478,230.482 155.146,228.804 150.715,231.268C146.284,233.732 145.86,237.839 146.374,239.737C146.888,241.634 149.631,247.126 150.172,249.091C150.713,251.055 151.406,254.058 151.406,254.058L161.153,250.696L166.355,237.111L165.793,232.955Z" style="fill:rgb(89,34,0);fill-rule:nonzero;"/>
                <path d="M176.56,317.919C176.757,320.814 180.596,330.659 180.803,334.047C176.522,335.528 168.477,336.255 163.44,336.883C154.093,338.046 150.143,337.45 143.581,337.565C143.821,333.929 140.525,323.798 140.593,319.1C140.68,313.161 134.526,268.271 134.526,268.271C134.526,268.271 134.959,268.069 137.3,266.76C139.64,265.452 148.544,261.541 148.544,261.541L162.87,261.541L175.965,268.186C175.965,268.186 176.3,314.094 176.56,317.919Z" style="fill:rgb(150,36,49);fill-rule:nonzero;"/>
                <path d="M146.879,262.167C146.879,262.167 151.984,282.904 153.535,302.789C155.085,322.673 151.08,334.92 149.18,336.565C147.28,338.207 137.585,337.55 136.763,336.565C135.941,335.577 139.064,318.323 139.064,313.229C139.064,308.134 135.941,288.067 135.941,288.067L134.505,267.255L146.879,262.167Z" style="fill:rgb(150,36,49);fill-rule:nonzero;"/>
                <path d="M163.837,261.963C164.184,262.974 163.914,266.234 157.449,266.988C152.103,267.611 146.904,262.168 146.904,262.168C148.075,261.721 151.052,259.857 151.287,256.678C151.683,251.321 151.3,247.667 151.3,247.667L162.336,252.873C162.336,252.873 162.334,257.581 163.837,261.963Z" style="fill:rgb(249,203,187);fill-rule:nonzero;"/>
                <path d="M162.293,258.194C157.437,259.404 152.591,252.992 151.821,250.52C151.051,248.047 148.49,238.578 157.818,235.958C160.131,235.308 166.174,235.835 166.566,237.661C166.865,239.059 167.67,245.269 167.779,246.976C167.889,248.683 168.327,256.69 162.293,258.194Z" style="fill:rgb(249,203,188);fill-rule:nonzero;"/>
                <path d="M150.946,244.071C150.946,244.071 148.261,242.228 147.626,244.758C146.991,247.288 151.525,248.78 151.525,248.78L150.946,244.071Z" style="fill:rgb(249,203,187);fill-rule:nonzero;"/>
                <path d="M152.274,244.372C152.274,244.372 152.396,244.124 152.274,245.093C152.129,246.249 151.148,246.129 151.148,246.129C151.148,246.129 150.277,242.245 150.299,241.072C150.322,239.899 151.562,236.126 155.262,234.457C158.963,232.788 162.603,232.124 164.56,232.493C166.517,232.862 168.561,233.489 168.685,234.457C168.816,235.481 166.65,235.427 166.65,235.427C166.65,235.427 171.32,236.195 167.797,237.348C164.275,238.501 160.487,236.325 156.415,237.98C152.343,239.634 152.251,243.174 152.274,244.372Z" style="fill:rgb(89,34,0);fill-rule:nonzero;"/>
                <path d="M175.944,267.264C178.19,271.983 178.23,265.294 183.63,285.783C183.633,285.287 183.639,284.796 183.647,284.312C183.783,275.953 184.529,269.469 184.093,268.372C183.542,266.985 190.294,268.485 190.284,269.747C190.252,273.5 194.801,300.831 185.037,300.886C177.767,300.927 176.82,288.241 176.82,288.241L175.944,267.264Z" style="fill:rgb(249,203,188);fill-rule:nonzero;"/>
                <path d="M163.801,261.962C163.801,261.962 171.721,279.603 171.721,290.322C171.721,301.041 173.561,330.731 174.876,333.031C176.19,335.332 180.803,334.054 180.803,334.054C180.803,334.054 177.526,309.203 177.68,305.259C177.834,301.315 177.304,284.591 176.964,279.506C176.624,274.422 175.932,267.265 175.932,267.265L163.801,261.962Z" style="fill:rgb(150,36,49);fill-rule:nonzero;"/>
                <path d="M134.514,267.255C134.514,267.255 125.997,275.51 121.021,285.979C120.489,287.1 130.063,294.575 130.063,294.575L135.95,288.067C135.95,288.067 137.928,284.97 137.22,278.446C136.513,271.922 134.514,267.255 134.514,267.255Z" style="fill:rgb(150,36,49);fill-rule:nonzero;"/>
                <path d="M184.078,268.372C184.078,268.372 182.558,267.367 182.177,265.015C181.796,262.662 181.936,261.192 181.239,259.919C180.134,257.9 181.625,256.851 183.2,259.919C184.318,262.097 184.066,262.368 184.066,262.368C184.066,262.368 185.284,257.237 189.468,258.698C193.652,260.159 193.356,262.154 192.778,263.977C192.183,265.857 190.251,269.567 190.251,269.567L184.078,268.372Z" style="fill:rgb(249,203,187);fill-rule:nonzero;"/>
                <path d="M183.754,255.881L183.699,255.876L183.754,255.881L183.699,255.876L183.754,255.881C183.753,255.891 183.739,256.065 183.739,256.352C183.739,256.713 183.762,257.252 183.862,257.859C184.01,258.771 184.334,259.83 184.978,260.691C185.301,261.122 185.701,261.507 186.208,261.815C186.715,262.122 187.331,262.355 188.097,262.469C188.418,262.517 188.725,262.539 189.019,262.539C190.092,262.538 191,262.248 191.781,261.805C192.95,261.142 193.824,260.12 194.396,259.259C194.683,258.829 194.894,258.441 195.032,258.164C195.101,258.025 195.152,257.914 195.185,257.839C195.202,257.801 195.213,257.773 195.221,257.755L195.229,257.735L195.231,257.731L195.283,257.752L195.231,257.732L195.231,257.731L195.283,257.752L195.231,257.732L196.237,258.127C196.223,258.16 195.701,259.493 194.549,260.854C193.972,261.534 193.235,262.222 192.315,262.745C191.397,263.268 190.292,263.621 189.019,263.621C188.67,263.621 188.31,263.594 187.938,263.539C186.744,263.363 185.788,262.919 185.054,262.323C184.503,261.876 184.077,261.348 183.751,260.796C183.261,259.966 182.992,259.081 182.84,258.293C182.689,257.504 182.658,256.809 182.657,256.352C182.657,256.008 182.676,255.798 182.677,255.785L183.754,255.881Z" style="fill:rgb(3,35,54);fill-rule:nonzero;"/>
                <path d="M190.894,265.401C190.284,265.314 190.563,263.78 190.563,263.78C190.563,263.78 190.067,265.677 189.019,265.622C187.971,265.567 188.467,263.78 188.467,263.78C188.467,263.78 188.087,265.567 187.008,265.346C185.93,265.125 186.371,263.305 186.371,263.305C186.371,263.305 185.709,264.668 184.827,264.207C183.944,263.746 183.889,258.844 185.875,258.344C187.86,257.845 191.001,258.189 192.229,259.457C193.457,260.726 193.093,261.514 192.586,263.081C192.078,264.647 191.666,265.511 190.894,265.401Z" style="fill:rgb(249,203,188);fill-rule:nonzero;"/>
                <path d="M175.959,267.264C177.05,267.979 181.441,272.414 183.317,278.788C183.742,280.233 184.037,281.777 184.136,283.4C181.77,285.713 179.283,287.888 177.419,289.162L175.959,267.264Z" style="fill:rgb(150,36,49);"/>
                <path d="M183.613,285.784L183.771,279.548L186.083,279.965L186.546,283.365L184.692,285.683L183.613,285.784Z" style="fill:rgb(249,203,187);"/>
                <path d="M181.499,253.303C181.671,254.76 180.925,256.047 179.832,256.176C178.739,256.306 177.712,255.23 177.54,253.772C177.367,252.315 178.113,251.029 179.206,250.899C180.299,250.77 181.326,251.846 181.499,253.303Z" style="fill:rgb(3,35,54);fill-rule:nonzero;"/>
                <path d="M211.063,237.372L179.238,250.899L179.864,256.176L213.969,261.887L211.063,237.372Z" style="fill:rgb(3,35,54);"/>
                <path d="M214.492,249.394C215.295,256.164 215.134,261.748 214.132,261.867C213.13,261.986 211.668,256.594 210.865,249.824C210.062,243.055 210.224,237.471 211.225,237.352C212.227,237.233 213.69,242.625 214.492,249.394Z" style="fill:rgb(165,165,165);fill-rule:nonzero;"/>
                <path d="M218.563,240.328L224.308,238.01C224.691,237.856 225.127,238.041 225.281,238.424C225.435,238.806 225.25,239.242 224.867,239.396L219.122,241.714C218.739,241.868 218.304,241.683 218.149,241.3C217.995,240.918 218.18,240.482 218.563,240.328Z" style="fill:rgb(50,50,50);fill-rule:nonzero;"/>
                <path d="M221.325,250.021L230.494,249.457C230.906,249.431 231.261,249.745 231.286,250.157C231.311,250.569 230.998,250.923 230.586,250.949L221.417,251.513C221.005,251.538 220.65,251.225 220.625,250.813C220.599,250.401 220.913,250.046 221.325,250.021Z" style="fill:rgb(50,50,50);fill-rule:nonzero;"/>
                <path d="M221.556,260.161L227.153,262.148C227.542,262.286 227.745,262.713 227.607,263.102C227.469,263.491 227.042,263.695 226.653,263.557L221.056,261.569C220.667,261.431 220.464,261.004 220.602,260.615C220.74,260.226 221.167,260.023 221.556,260.161Z" style="fill:rgb(50,50,50);fill-rule:nonzero;"/>
                <path d="M127.177,279.908C125.418,282.279 122.332,283.127 120.014,287.197L107.767,262.63L104.169,265.856L109.824,287.997L118.276,301.9C122.135,300.898 131.362,293.136 133.579,287.997L127.177,279.908Z" style="fill:rgb(249,203,187);"/>
                <path d="M122.035,298.23C122.035,298.23 120.003,297.897 119.283,289.46C118.562,281.022 107.673,263.914 107.768,262.631C107.864,261.348 108.173,259.73 107.145,258.931C106.116,258.132 102.755,258.779 101.931,258.424C101.437,258.211 100.949,257.869 100.825,257.269C100.565,256.007 101.006,254.153 100.511,254.012C99.78,253.806 99.102,256.28 99.142,257.948C99.171,259.147 100.165,259.94 100.165,259.94C100.165,259.94 99.755,260.223 98.981,259.099C98.207,257.975 97.825,253.932 96.969,254.316C95.891,254.798 96.426,259.118 96.426,259.118C96.426,259.118 95.881,255.222 95.126,255.697C94.187,256.289 94.456,260.152 95.279,261.477C95.815,262.339 97.38,263.381 97.38,263.381C97.38,263.381 95.346,263.185 94.764,262.671C94.081,262.067 94.387,260.11 93.549,260.523C92.501,261.038 93.116,263.606 94.043,264.451C94.869,265.205 104.171,265.855 104.171,265.855C104.171,265.855 110.089,290.623 112.284,296.268C114.239,301.299 118.018,301.986 118.278,301.9C120.064,300.584 121.315,299.264 122.035,298.23Z" style="fill:rgb(249,203,187);fill-rule:nonzero;"/>
                <path d="M134.481,267.406C134.481,267.406 125.407,275.279 120.379,285.859C119.841,286.991 129.672,294.857 129.672,294.857C131.966,293.132 134.003,290.893 135.932,288.437C135.932,288.437 137.931,285.307 137.216,278.715C136.501,272.122 134.481,267.406 134.481,267.406Z" style="fill:rgb(150,36,49);fill-rule:nonzero;"/>
                <path d="M42.905,304.83C43.489,303.27 45.227,302.48 46.787,303.064C48.346,303.648 49.137,305.386 48.553,306.946C47.968,308.505 46.231,309.296 44.671,308.712C43.111,308.127 42.321,306.389 42.905,304.83ZM49.368,307.251C50.121,305.241 49.102,303.001 47.092,302.248C45.082,301.495 42.842,302.514 42.089,304.524C41.404,306.353 42.186,308.372 43.847,309.288L43.463,310.311C43.214,310.395 43.003,310.586 42.903,310.852L41.058,315.778C40.883,316.246 41.12,316.767 41.588,316.942C42.056,317.117 42.577,316.88 42.752,316.412L44.597,311.486C44.697,311.221 44.663,310.938 44.53,310.711L44.913,309.688C46.767,310.088 48.683,309.08 49.368,307.251Z" style="fill:rgb(150,36,49);fill-opacity:0.75;fill-rule:nonzero;"/>
                <path d="M45,295.422C37.513,295.422 31.422,301.513 31.422,309C31.422,316.487 37.513,322.578 45,322.578C52.487,322.578 58.578,316.487 58.578,309C58.578,301.513 52.487,295.422 45,295.422ZM45,324C42.975,324 41.011,323.603 39.161,322.821C37.375,322.066 35.771,320.984 34.393,319.607C33.016,318.229 31.934,316.625 31.179,314.839C30.397,312.989 30,311.025 30,309C30,306.975 30.397,305.011 31.179,303.161C31.934,301.375 33.016,299.771 34.393,298.393C35.771,297.016 37.375,295.935 39.161,295.179C41.011,294.397 42.975,294 45,294C47.025,294 48.989,294.397 50.839,295.179C52.625,295.935 54.229,297.016 55.607,298.393C56.984,299.771 58.065,301.375 58.821,303.161C59.603,305.011 60,306.975 60,309C60,311.025 59.603,312.989 58.821,314.839C58.065,316.625 56.984,318.229 55.607,319.607C54.229,320.984 52.625,322.066 50.839,322.821C48.989,323.603 47.025,324 45,324Z" style="fill:rgb(3,35,54);fill-opacity:0.5;fill-rule:nonzero;"/>
                <path d="M45,248.422C37.513,248.422 31.422,254.513 31.422,262C31.422,269.487 37.513,275.578 45,275.578C52.487,275.578 58.578,269.487 58.578,262C58.578,254.513 52.487,248.422 45,248.422ZM45,277C42.975,277 41.011,276.603 39.161,275.821C37.375,275.065 35.771,273.984 34.393,272.606C33.016,271.229 31.935,269.625 31.179,267.839C30.397,265.989 30,264.025 30,262C30,259.975 30.397,258.011 31.179,256.161C31.935,254.375 33.016,252.771 34.393,251.394C35.771,250.016 37.375,248.935 39.161,248.179C41.011,247.397 42.975,247 45,247C47.024,247 48.989,247.397 50.839,248.179C52.625,248.935 54.229,250.016 55.606,251.394C56.984,252.771 58.065,254.375 58.821,256.161C59.603,258.011 60,259.975 60,262C60,264.025 59.603,265.989 58.821,267.839C58.065,269.625 56.984,271.229 55.606,272.606C54.229,273.984 52.625,275.065 50.839,275.821C48.989,276.603 47.024,277 45,277Z" style="fill:rgb(3,35,54);fill-opacity:0.5;fill-rule:nonzero;"/>
                <path d="M48.641,257L40.359,257C37.952,257 36,258.952 36,261.359C36,262.876 36.775,264.211 37.951,264.992L37.735,267.947L39.422,265.616C39.724,265.682 40.037,265.718 40.359,265.718L48.641,265.718C51.048,265.718 53,263.766 53,261.359C53,258.952 51.048,257 48.641,257Z" style="fill:rgb(150,36,49);fill-opacity:0.75;fill-rule:nonzero;"/>
                <path d="M42.262,261.631C42.262,261.98 41.979,262.262 41.631,262.262C41.282,262.262 41,261.98 41,261.631C41,261.283 41.282,261 41.631,261C41.979,261 42.262,261.283 42.262,261.631Z" style="fill:white;fill-rule:nonzero;"/>
                <path d="M45.812,261.631C45.812,261.98 45.529,262.262 45.181,262.262C44.833,262.262 44.55,261.98 44.55,261.631C44.55,261.283 44.833,261 45.181,261C45.529,261 45.812,261.283 45.812,261.631Z" style="fill:white;fill-rule:nonzero;"/>
                <path d="M49.362,261.631C49.362,261.98 49.079,262.262 48.731,262.262C48.383,262.262 48.1,261.98 48.1,261.631C48.1,261.283 48.383,261 48.731,261C49.079,261 49.362,261.283 49.362,261.631Z" style="fill:white;fill-rule:nonzero;"/>
                <path d="M72,342.422C64.513,342.422 58.422,348.513 58.422,356C58.422,363.487 64.513,369.578 72,369.578C79.487,369.578 85.578,363.487 85.578,356C85.578,348.513 79.487,342.422 72,342.422ZM72,371C69.975,371 68.011,370.603 66.161,369.821C64.375,369.065 62.771,367.984 61.393,366.606C60.016,365.229 58.934,363.625 58.179,361.839C57.397,359.989 57,358.025 57,356C57,353.975 57.397,352.011 58.179,350.161C58.934,348.375 60.016,346.771 61.393,345.393C62.771,344.016 64.375,342.934 66.161,342.179C68.011,341.397 69.975,341 72,341C74.025,341 75.989,341.397 77.839,342.179C79.625,342.934 81.229,344.016 82.606,345.393C83.984,346.771 85.065,348.375 85.821,350.161C86.603,352.011 87,353.975 87,356C87,358.025 86.603,359.989 85.821,361.839C85.065,363.625 83.984,365.229 82.606,366.606C81.229,367.984 79.625,369.065 77.839,369.821C75.989,370.603 74.025,371 72,371Z" style="fill:rgb(3,35,54);fill-opacity:0.5;fill-rule:nonzero;"/>
                <path d="M79.919,358.633C79.919,360.492 78.411,362 76.551,362L67.368,362C65.508,362 64,360.492 64,358.633L64,353.367C64,351.507 65.508,350 67.368,350L76.551,350C78.411,350 79.919,351.507 79.919,353.367L79.919,358.633Z" style="fill:rgb(150,36,49);fill-opacity:0.75;fill-rule:nonzero;"/>
                <path d="M70,353L74.517,355.608L70,358.216L70,353Z" style="fill:white;fill-rule:nonzero;"/>
                <path d="M72,201.422C64.513,201.422 58.422,207.513 58.422,215C58.422,222.487 64.513,228.578 72,228.578C79.487,228.578 85.578,222.487 85.578,215C85.578,207.513 79.487,201.422 72,201.422ZM72,230C69.975,230 68.011,229.603 66.161,228.821C64.375,228.065 62.771,226.984 61.393,225.607C60.016,224.229 58.934,222.625 58.179,220.839C57.397,218.989 57,217.025 57,215C57,212.975 57.397,211.011 58.179,209.161C58.934,207.375 60.016,205.771 61.393,204.393C62.771,203.016 64.375,201.935 66.161,201.179C68.011,200.397 69.975,200 72,200C74.025,200 75.989,200.397 77.839,201.179C79.625,201.935 81.229,203.016 82.607,204.393C83.984,205.771 85.065,207.375 85.821,209.161C86.603,211.011 87,212.975 87,215C87,217.025 86.603,218.989 85.821,220.839C85.065,222.625 83.984,224.229 82.607,225.607C81.229,226.984 79.625,228.065 77.839,228.821C75.989,229.603 74.025,230 72,230Z" style="fill:rgb(3,35,54);fill-opacity:0.5;fill-rule:nonzero;"/>
                <rect x="64.922" y="221.419" width="14.155" height="1.557" style="fill:rgb(150,36,49);fill-opacity:0.75;"/>
                <rect x="64.922" y="212.573" width="2.467" height="8.21" style="fill:rgb(150,36,49);fill-opacity:0.75;"/>
                <rect x="68.834" y="207.024" width="2.467" height="13.758" style="fill:rgb(150,36,49);fill-opacity:0.75;"/>
                <rect x="72.712" y="214.66" width="2.467" height="6.122" style="fill:rgb(150,36,49);fill-opacity:0.75;"/>
                <rect x="76.624" y="213.705" width="2.467" height="7.078" style="fill:rgb(150,36,49);fill-opacity:0.75;"/>
            </g>
        </g>
    </g>
</svg>
