<?xml version="1.0" encoding="UTF-8" standalone="no"?>
<!DOCTYPE svg PUBLIC "-//W3C//DTD SVG 1.1//EN" "http://www.w3.org/Graphics/SVG/1.1/DTD/svg11.dtd">
<svg width="100%" height="100%" viewBox="0 0 450 400" version="1.1" xmlns="http://www.w3.org/2000/svg" xmlns:xlink="http://www.w3.org/1999/xlink" xml:space="preserve" xmlns:serif="http://www.serif.com/" style="fill-rule:evenodd;clip-rule:evenodd;stroke-linejoin:round;stroke-miterlimit:2;">
    <g transform="matrix(1,0,0,1,-2815,1.15984e-13)">
        <g transform="matrix(1.13636,0,0,1.0101,2815,0)">
            <g transform="matrix(0.72,0,0,0.883929,0,-1.14824e-13)">
                <path d="M83.061,309.307C85.676,309.307 88.262,309.177 90.815,308.934C74.132,315.228 62.296,331.005 62.296,349.484C62.296,373.497 82.271,392.963 106.913,392.963C131.554,392.963 151.53,373.497 151.53,349.484C151.53,342.328 149.745,335.583 146.602,329.63C148.357,330.842 150.165,331.99 152.023,333.07C153.786,343.093 160.208,351.836 169.379,357.703C167.284,360.616 166.122,363.782 166.122,367.096C166.122,381.382 187.48,392.963 213.826,392.963C240.172,392.963 261.53,381.382 261.53,367.096C261.53,361.655 258.424,356.608 253.132,352.443C265.682,342.558 276.303,327.543 283.872,309.148C285.394,309.25 286.925,309.307 288.468,309.307C319.732,309.307 346.873,287.961 360.502,256.652C364.196,258.616 368.03,260.224 371.981,261.44C371.536,263.126 371.16,264.836 370.851,266.57C355.74,271.112 345.152,281.636 345.152,293.897C345.152,310.311 364.122,323.617 387.524,323.617C387.895,323.617 388.262,323.605 388.632,323.597C390.467,325.476 392.414,327.251 394.463,328.915C390.668,330.742 387.188,332.991 384.118,335.596C379.787,330.103 373.753,326.11 366.847,324.46C360.735,315.578 345.917,309.307 328.596,309.307C305.814,309.307 287.346,320.149 287.346,333.523C287.346,346.851 305.685,357.659 328.355,357.736C328.651,363.848 330.582,369.513 333.705,374.277C330.294,379.694 328.315,386.097 328.315,392.963C328.315,412.416 344.145,428.187 363.672,428.187C364.035,428.187 364.394,428.17 364.754,428.159C368.042,439.619 378.495,448 390.891,448C405.924,448 418.111,435.679 418.111,420.482C418.111,415.174 416.62,410.219 414.045,406.016C415.386,406.111 416.74,406.172 418.111,406.172C421.838,406.172 425.463,405.799 428.947,405.114C423.877,409.503 420.917,414.791 420.917,420.482C420.917,435.679 442.023,448 468.059,448C494.097,448 515.204,435.679 515.204,420.482C515.204,412.938 509.996,406.106 501.578,401.135C519.963,393.209 532.602,376.756 532.602,357.74C532.602,356.902 532.574,356.07 532.529,355.242C543.002,352.245 550,346.843 550,340.678C550,332.671 538.203,325.956 522.292,324.118C522.438,320.54 522.427,316.923 522.248,313.279C521.243,292.51 515.114,274.514 505.821,261.644C499.793,238.518 481.23,220.198 457.504,213.797C464.213,198.845 468.059,181.461 468.059,162.909C468.059,107.166 433.363,61.948 390.477,61.649C386.187,44.806 362.504,31.921 333.927,31.921C332.709,31.921 331.5,31.948 330.301,31.994C329.086,31.948 327.863,31.921 326.631,31.921C319.734,31.921 313.097,32.66 306.881,34.021C298.412,13.894 280.408,0 259.565,0C234.043,0 212.78,20.833 208.068,48.435C185.699,48.483 165.849,59.74 153.387,77.117C149.944,75.652 146.311,74.85 142.55,74.85C124.091,74.85 108.614,93.76 104.403,119.244C98.918,114.928 91.506,112.275 83.342,112.275C66.449,112.275 52.755,123.611 52.755,137.592C52.755,139.859 53.12,142.055 53.795,144.145C22.364,156.302 0,187.467 0,224C0,271.114 37.188,309.307 83.061,309.307Z" style="fill:rgb(22,28,49);fill-opacity:0.05;fill-rule:nonzero;"/>
            </g>
        </g>
        <g transform="matrix(1.13636,0,0,1.0101,2815,0)">
            <g transform="matrix(0.785714,0,0,0.883929,0,10.2863)">
                <path d="M222.282,359.654C220.385,359.654 219.436,358.403 218.673,357.396C217.941,356.431 217.482,355.885 216.565,355.885C215.652,355.885 215.193,356.431 214.463,357.396C213.701,358.403 212.753,359.654 210.857,359.654C208.962,359.654 208.013,358.403 207.252,357.396C206.522,356.431 206.064,355.885 205.151,355.885C204.237,355.885 203.78,356.431 203.05,357.396C202.288,358.403 201.341,359.654 199.445,359.654C197.55,359.654 196.604,358.403 195.843,357.396C195.114,356.431 194.656,355.885 193.745,355.885C192.832,355.885 192.374,356.431 191.644,357.396C190.882,358.403 189.935,359.654 188.039,359.654C186.144,359.654 185.197,358.403 184.434,357.396C183.704,356.431 183.246,355.885 182.333,355.885C181.421,355.885 180.963,356.431 180.233,357.396C179.472,358.403 178.524,359.654 176.63,359.654C174.736,359.654 173.789,358.403 173.027,357.396C172.299,356.431 171.841,355.885 170.929,355.885C170.016,355.885 169.559,356.431 168.829,357.396C168.067,358.403 167.119,359.654 165.225,359.654C163.331,359.654 162.384,358.401 161.623,357.396C160.894,356.431 160.438,355.885 159.526,355.885C158.614,355.885 158.157,356.431 157.427,357.396C156.666,358.403 155.719,359.654 153.825,359.654C151.931,359.654 150.984,358.401 150.224,357.394C149.495,356.43 149.038,355.885 148.129,355.885C147.217,355.885 146.76,356.431 146.03,357.396C145.269,358.403 144.321,359.654 142.427,359.654C140.534,359.654 139.588,358.401 138.827,357.396C138.098,356.43 137.642,355.885 136.732,355.885C135.823,355.885 135.366,356.43 134.638,357.396C133.879,358.401 132.932,359.654 131.04,359.654C129.147,359.654 128.2,358.401 127.44,357.396C126.711,356.431 126.254,355.885 125.344,355.885C124.432,355.885 123.975,356.431 123.246,357.396C122.485,358.403 121.538,359.654 119.644,359.654C117.749,359.654 116.803,358.401 116.042,357.396C115.312,356.43 114.856,355.885 113.945,355.885C113.032,355.885 112.575,356.431 111.846,357.396C111.085,358.403 110.137,359.654 108.244,359.654C106.35,359.654 105.402,358.401 104.642,357.396C103.913,356.431 103.456,355.885 102.545,355.885C101.633,355.885 101.175,356.431 100.446,357.396C99.685,358.403 98.737,359.654 96.844,359.654C94.95,359.654 94.003,358.401 93.243,357.396C92.514,356.431 92.057,355.885 91.146,355.885C90.235,355.885 89.778,356.431 89.049,357.396C88.288,358.403 87.342,359.654 85.448,359.654C83.554,359.654 82.608,358.403 81.846,357.396C81.117,356.431 80.659,355.885 79.748,355.885C78.837,355.885 78.38,356.431 77.651,357.396C76.891,358.401 75.943,359.654 74.05,359.654C72.156,359.654 71.21,358.401 70.449,357.396C69.721,356.431 69.264,355.885 68.354,355.885C67.443,355.885 66.986,356.431 66.257,357.396C65.497,358.401 64.55,359.654 62.657,359.654C60.762,359.654 59.815,358.401 59.054,357.396C58.325,356.431 57.867,355.885 56.956,355.885C56.045,355.885 55.588,356.431 54.859,357.396C54.098,358.403 53.152,359.654 51.259,359.654C49.366,359.654 48.419,358.401 47.659,357.396C46.93,356.43 46.473,355.885 45.564,355.885C44.654,355.885 44.198,356.43 43.468,357.396C42.708,358.401 41.762,359.654 39.869,359.654C37.976,359.654 37.028,358.401 36.268,357.396C35.539,356.43 35.082,355.885 34.172,355.885C33.26,355.885 32.803,356.431 32.074,357.396C31.313,358.403 30.366,359.654 28.472,359.654C26.58,359.654 25.633,358.401 24.873,357.396C24.144,356.43 23.687,355.885 22.778,355.885C21.869,355.885 21.412,356.43 20.683,357.394C19.924,358.401 18.978,359.654 17.085,359.654C15.192,359.654 14.246,358.401 13.486,357.394C12.758,356.43 12.302,355.885 11.392,355.885C10.483,355.885 10.026,356.43 9.297,357.396C8.536,358.401 7.59,359.654 5.697,359.654C3.804,359.654 2.858,358.403 2.097,357.396C1.368,356.431 0.911,355.885 0,355.885L0,354C1.894,354 2.841,355.254 3.601,356.259C4.33,357.225 4.787,357.77 5.697,357.77C6.607,357.77 7.064,357.225 7.793,356.259C8.553,355.254 9.499,354 11.392,354C13.285,354 14.231,355.254 14.991,356.26C15.719,357.225 16.176,357.77 17.085,357.77C17.995,357.77 18.451,357.225 19.18,356.26C19.939,355.254 20.885,354 22.778,354C24.671,354 25.617,355.254 26.378,356.259C27.106,357.225 27.563,357.77 28.472,357.77C29.384,357.77 29.841,357.225 30.569,356.259C31.331,355.254 32.277,354 34.172,354C36.066,354 37.012,355.252 37.772,356.259C38.501,357.223 38.958,357.77 39.869,357.77C40.779,357.77 41.235,357.225 41.965,356.259C42.725,355.254 43.671,354 45.564,354C47.457,354 48.403,355.254 49.163,356.259C49.892,357.225 50.349,357.77 51.259,357.77C52.169,357.77 52.626,357.225 53.354,356.259C54.115,355.254 55.062,354 56.956,354C58.849,354 59.797,355.252 60.558,356.259C61.287,357.223 61.745,357.77 62.657,357.77C63.567,357.77 64.024,357.223 64.753,356.259C65.513,355.254 66.46,354 68.354,354C70.247,354 71.193,355.254 71.954,356.259C72.683,357.223 73.14,357.77 74.05,357.77C74.961,357.77 75.418,357.223 76.147,356.259C76.907,355.254 77.854,354 79.748,354C81.643,354 82.589,355.252 83.35,356.259C84.08,357.223 84.537,357.77 85.448,357.77C86.359,357.77 86.815,357.225 87.544,356.259C88.305,355.254 89.252,354 91.146,354C93.039,354 93.987,355.254 94.747,356.259C95.476,357.223 95.933,357.77 96.844,357.77C97.756,357.77 98.213,357.223 98.942,356.259C99.703,355.254 100.65,354 102.545,354C104.439,354 105.386,355.254 106.147,356.259C106.875,357.223 107.332,357.77 108.244,357.77C109.155,357.77 109.613,357.223 110.341,356.259C111.103,355.254 112.05,354 113.945,354C115.838,354 116.784,355.252 117.546,356.259C118.275,357.223 118.733,357.77 119.644,357.77C120.555,357.77 121.013,357.223 121.742,356.259C122.503,355.252 123.449,354 125.344,354C127.238,354 128.184,355.254 128.944,356.259C129.673,357.223 130.13,357.77 131.04,357.77C131.949,357.77 132.406,357.225 133.134,356.26C133.893,355.254 134.84,354 136.732,354C138.625,354 139.571,355.254 140.332,356.259C141.061,357.225 141.518,357.77 142.427,357.77C143.339,357.77 143.796,357.223 144.526,356.259C145.287,355.252 146.234,354 148.129,354C150.022,354 150.968,355.252 151.728,356.259C152.457,357.223 152.914,357.77 153.825,357.77C154.737,357.77 155.194,357.223 155.923,356.259C156.685,355.252 157.632,354 159.526,354C161.42,354 162.368,355.254 163.128,356.259C163.857,357.223 164.313,357.77 165.225,357.77C166.137,357.77 166.595,357.223 167.325,356.259C168.086,355.252 169.034,354 170.929,354C172.823,354 173.771,355.254 174.532,356.259C175.261,357.223 175.718,357.77 176.63,357.77C177.542,357.77 178,357.223 178.73,356.259C179.491,355.252 180.439,354 182.333,354C184.229,354 185.176,355.252 185.938,356.259C186.668,357.223 187.126,357.77 188.039,357.77C188.953,357.77 189.41,357.223 190.14,356.259C190.902,355.252 191.849,354 193.745,354C195.64,354 196.586,355.252 197.347,356.259C198.076,357.223 198.533,357.77 199.445,357.77C200.358,357.77 200.816,357.223 201.546,356.259C202.308,355.252 203.255,354 205.151,354C207.046,354 207.994,355.252 208.755,356.259C209.485,357.223 209.943,357.77 210.857,357.77C211.771,357.77 212.229,357.223 212.959,356.259C213.721,355.252 214.669,354 216.565,354C218.463,354 219.412,355.252 220.175,356.259C220.907,357.223 221.367,357.77 222.282,357.77C223.198,357.77 223.658,357.223 224.39,356.259C225.153,355.252 226.102,354 228,354L228,355.885C227.083,355.885 226.624,356.431 225.892,357.396C225.129,358.403 224.18,359.654 222.282,359.654Z" style="fill:rgb(40,184,206);fill-rule:nonzero;"/>
            </g>
        </g>
        <g transform="matrix(1.13636,0,0,1.0101,2815,0)">
            <g transform="matrix(0.785714,0,0,0.883929,0,10.2863)">
                <path d="M450.282,359.654C448.385,359.654 447.436,358.403 446.673,357.396C445.941,356.431 445.482,355.885 444.565,355.885C443.652,355.885 443.193,356.431 442.463,357.396C441.701,358.403 440.753,359.654 438.857,359.654C436.962,359.654 436.013,358.403 435.252,357.396C434.522,356.431 434.064,355.885 433.151,355.885C432.237,355.885 431.78,356.431 431.05,357.396C430.288,358.403 429.341,359.654 427.445,359.654C425.55,359.654 424.604,358.403 423.843,357.396C423.114,356.431 422.656,355.885 421.745,355.885C420.832,355.885 420.374,356.431 419.644,357.396C418.882,358.403 417.935,359.654 416.039,359.654C414.144,359.654 413.197,358.403 412.434,357.396C411.704,356.431 411.246,355.885 410.333,355.885C409.421,355.885 408.963,356.431 408.233,357.396C407.472,358.403 406.524,359.654 404.63,359.654C402.736,359.654 401.789,358.403 401.027,357.396C400.299,356.431 399.841,355.885 398.929,355.885C398.016,355.885 397.559,356.431 396.829,357.396C396.067,358.403 395.119,359.654 393.225,359.654C391.331,359.654 390.384,358.401 389.623,357.396C388.894,356.431 388.438,355.885 387.526,355.885C386.614,355.885 386.157,356.431 385.427,357.396C384.666,358.403 383.719,359.654 381.825,359.654C379.931,359.654 378.984,358.401 378.224,357.394C377.495,356.43 377.038,355.885 376.129,355.885C375.217,355.885 374.76,356.431 374.03,357.396C373.269,358.403 372.321,359.654 370.427,359.654C368.534,359.654 367.588,358.401 366.827,357.396C366.098,356.43 365.642,355.885 364.732,355.885C363.823,355.885 363.366,356.43 362.638,357.396C361.879,358.401 360.932,359.654 359.04,359.654C357.147,359.654 356.2,358.401 355.44,357.396C354.711,356.431 354.254,355.885 353.344,355.885C352.432,355.885 351.975,356.431 351.246,357.396C350.485,358.403 349.538,359.654 347.644,359.654C345.749,359.654 344.803,358.401 344.042,357.396C343.312,356.43 342.856,355.885 341.945,355.885C341.032,355.885 340.575,356.431 339.846,357.396C339.085,358.403 338.137,359.654 336.244,359.654C334.35,359.654 333.402,358.401 332.642,357.396C331.913,356.431 331.456,355.885 330.545,355.885C329.633,355.885 329.175,356.431 328.446,357.396C327.685,358.403 326.737,359.654 324.844,359.654C322.95,359.654 322.003,358.401 321.243,357.396C320.514,356.431 320.057,355.885 319.146,355.885C318.235,355.885 317.778,356.431 317.049,357.396C316.288,358.403 315.342,359.654 313.448,359.654C311.554,359.654 310.608,358.403 309.846,357.396C309.117,356.431 308.659,355.885 307.748,355.885C306.837,355.885 306.38,356.431 305.651,357.396C304.891,358.401 303.943,359.654 302.05,359.654C300.156,359.654 299.21,358.401 298.449,357.396C297.721,356.431 297.264,355.885 296.354,355.885C295.443,355.885 294.986,356.431 294.257,357.396C293.497,358.401 292.55,359.654 290.657,359.654C288.762,359.654 287.815,358.401 287.054,357.396C286.325,356.431 285.867,355.885 284.956,355.885C284.045,355.885 283.588,356.431 282.859,357.396C282.098,358.403 281.152,359.654 279.259,359.654C277.366,359.654 276.419,358.401 275.659,357.396C274.93,356.43 274.473,355.885 273.564,355.885C272.654,355.885 272.198,356.43 271.468,357.396C270.708,358.401 269.762,359.654 267.869,359.654C265.976,359.654 265.028,358.401 264.268,357.396C263.539,356.43 263.082,355.885 262.172,355.885C261.26,355.885 260.803,356.431 260.074,357.396C259.313,358.403 258.366,359.654 256.472,359.654C254.58,359.654 253.633,358.401 252.873,357.396C252.144,356.43 251.687,355.885 250.778,355.885C249.869,355.885 249.412,356.43 248.683,357.394C247.924,358.401 246.978,359.654 245.085,359.654C243.192,359.654 242.246,358.401 241.486,357.394C240.758,356.43 240.302,355.885 239.392,355.885C238.482,355.885 238.026,356.43 237.297,357.396C236.536,358.401 235.59,359.654 233.697,359.654C231.804,359.654 230.858,358.403 230.097,357.396C229.368,356.431 228.911,355.885 228,355.885L228,354C229.894,354 230.841,355.254 231.601,356.259C232.33,357.225 232.787,357.77 233.697,357.77C234.607,357.77 235.064,357.225 235.793,356.259C236.553,355.254 237.499,354 239.392,354C241.285,354 242.231,355.254 242.991,356.26C243.719,357.225 244.176,357.77 245.085,357.77C245.994,357.77 246.451,357.225 247.18,356.26C247.939,355.254 248.885,354 250.778,354C252.671,354 253.617,355.254 254.377,356.259C255.106,357.225 255.563,357.77 256.472,357.77C257.384,357.77 257.841,357.225 258.569,356.259C259.331,355.254 260.277,354 262.172,354C264.065,354 265.012,355.252 265.772,356.259C266.501,357.223 266.958,357.77 267.869,357.77C268.779,357.77 269.235,357.225 269.965,356.259C270.725,355.254 271.671,354 273.564,354C275.456,354 276.403,355.254 277.163,356.259C277.892,357.225 278.349,357.77 279.259,357.77C280.169,357.77 280.626,357.225 281.354,356.259C282.115,355.254 283.062,354 284.956,354C286.849,354 287.797,355.252 288.558,356.259C289.287,357.223 289.745,357.77 290.657,357.77C291.567,357.77 292.024,357.223 292.753,356.259C293.513,355.254 294.46,354 296.354,354C298.247,354 299.193,355.254 299.954,356.259C300.683,357.223 301.14,357.77 302.05,357.77C302.961,357.77 303.418,357.223 304.147,356.259C304.907,355.254 305.854,354 307.748,354C309.643,354 310.589,355.252 311.35,356.259C312.08,357.223 312.537,357.77 313.448,357.77C314.359,357.77 314.815,357.225 315.544,356.259C316.305,355.254 317.252,354 319.146,354C321.039,354 321.987,355.254 322.747,356.259C323.476,357.223 323.933,357.77 324.844,357.77C325.756,357.77 326.213,357.223 326.942,356.259C327.703,355.254 328.65,354 330.545,354C332.439,354 333.386,355.254 334.147,356.259C334.875,357.223 335.332,357.77 336.244,357.77C337.155,357.77 337.613,357.223 338.341,356.259C339.103,355.254 340.05,354 341.945,354C343.838,354 344.784,355.252 345.546,356.259C346.275,357.223 346.733,357.77 347.644,357.77C348.555,357.77 349.013,357.223 349.742,356.259C350.503,355.252 351.449,354 353.344,354C355.238,354 356.184,355.254 356.944,356.259C357.673,357.223 358.13,357.77 359.04,357.77C359.949,357.77 360.406,357.225 361.134,356.26C361.893,355.254 362.84,354 364.732,354C366.625,354 367.571,355.254 368.332,356.259C369.061,357.225 369.518,357.77 370.427,357.77C371.339,357.77 371.796,357.223 372.526,356.259C373.287,355.252 374.234,354 376.129,354C378.022,354 378.968,355.252 379.728,356.259C380.457,357.223 380.914,357.77 381.825,357.77C382.737,357.77 383.194,357.223 383.923,356.259C384.685,355.252 385.632,354 387.526,354C389.42,354 390.368,355.254 391.128,356.259C391.857,357.223 392.313,357.77 393.225,357.77C394.137,357.77 394.595,357.223 395.325,356.259C396.086,355.252 397.034,354 398.929,354C400.823,354 401.771,355.254 402.532,356.259C403.261,357.223 403.718,357.77 404.63,357.77C405.542,357.77 406,357.223 406.73,356.259C407.491,355.252 408.439,354 410.333,354C412.229,354 413.176,355.252 413.938,356.259C414.668,357.223 415.126,357.77 416.039,357.77C416.953,357.77 417.41,357.223 418.14,356.259C418.902,355.252 419.849,354 421.745,354C423.64,354 424.586,355.252 425.347,356.259C426.076,357.223 426.533,357.77 427.445,357.77C428.358,357.77 428.816,357.223 429.546,356.259C430.308,355.252 431.255,354 433.151,354C435.046,354 435.994,355.252 436.755,356.259C437.485,357.223 437.943,357.77 438.857,357.77C439.771,357.77 440.229,357.223 440.959,356.259C441.721,355.252 442.669,354 444.565,354C446.463,354 447.412,355.252 448.175,356.259C448.907,357.223 449.367,357.77 450.282,357.77C451.198,357.77 451.658,357.223 452.39,356.259C453.153,355.252 454.102,354 456,354L456,355.885C455.083,355.885 454.624,356.431 453.892,357.396C453.129,358.403 452.18,359.654 450.282,359.654Z" style="fill:rgb(40,184,206);fill-rule:nonzero;"/>
            </g>
        </g>
        <g transform="matrix(1.13636,0,0,1.0101,2815,0)">
            <g transform="matrix(0.88,0,0,0.99,-2462.24,0)">
                <path d="M2915.89,314.638L2918.02,314.969L2918.33,308.447L2918.6,308.447L2918.6,314.197L2920.15,314.54C2920.58,314.633 2920.89,314.993 2920.93,315.424L2938.48,318.162L2939.72,320.077L2967.82,322.359L2967.82,321.947L2941.57,319.822L2941.68,318.421L2967.82,320.536L2967.82,320.366C2967.82,319.038 2968.9,317.962 2970.22,317.962L2976.25,317.962C2977.01,317.962 2977.62,318.576 2977.62,319.331L2977.62,321.329L3004.48,323.503L3004.37,324.904L2977.62,322.74L2977.62,323.155L3007.16,325.554L3009.09,308.447L3009.11,308.448L3009.11,308.447L3012.77,308.591L3012.77,308.592L3014.64,308.666L3015.4,305.926L3018.13,306.681L3017.55,308.78L3018.07,308.801L3018,313.998L3022.56,313.998L3022.56,326.805L3025.65,327.056C3026.07,328.731 3026.12,330.129 3025.73,331.471C3025.75,331.471 3025.76,331.471 3025.76,331.471C3025.25,333.29 3023.94,335.003 3021.68,337.151L3021.65,337.176L2940.76,335.833C2936.6,334.481 2932.7,332.498 2929.19,329.997L2929.22,329.997C2923.65,326.052 2919.05,320.797 2915.89,314.638Z" style="fill:rgb(162,164,173);fill-rule:nonzero;stroke:rgb(162,164,173);stroke-width:1px;"/>
            </g>
        </g>
        <g transform="matrix(1.13636,0,0,1.0101,2815,0)">
            <g transform="matrix(0.785714,0,0,0.883929,0,10.2863)">
                <path d="M222.282,368.654C220.385,368.654 219.436,367.403 218.673,366.396C217.941,365.431 217.482,364.885 216.565,364.885C215.652,364.885 215.193,365.431 214.463,366.396C213.701,367.403 212.753,368.654 210.857,368.654C208.962,368.654 208.013,367.403 207.252,366.396C206.522,365.431 206.064,364.885 205.151,364.885C204.237,364.885 203.78,365.431 203.05,366.396C202.288,367.403 201.341,368.654 199.445,368.654C197.55,368.654 196.604,367.403 195.843,366.396C195.114,365.431 194.656,364.885 193.745,364.885C192.832,364.885 192.374,365.431 191.644,366.396C190.882,367.403 189.935,368.654 188.039,368.654C186.144,368.654 185.197,367.403 184.434,366.396C183.704,365.431 183.246,364.885 182.333,364.885C181.421,364.885 180.963,365.431 180.233,366.396C179.472,367.403 178.524,368.654 176.63,368.654C174.736,368.654 173.789,367.403 173.027,366.396C172.299,365.431 171.841,364.885 170.929,364.885C170.016,364.885 169.559,365.431 168.829,366.396C168.067,367.403 167.119,368.654 165.225,368.654C163.331,368.654 162.384,367.401 161.623,366.396C160.894,365.431 160.438,364.885 159.526,364.885C158.614,364.885 158.157,365.431 157.427,366.396C156.666,367.403 155.719,368.654 153.825,368.654C151.931,368.654 150.984,367.401 150.224,366.394C149.495,365.43 149.038,364.885 148.129,364.885C147.217,364.885 146.76,365.431 146.03,366.396C145.269,367.403 144.321,368.654 142.427,368.654C140.534,368.654 139.588,367.401 138.827,366.396C138.098,365.43 137.642,364.885 136.732,364.885C135.823,364.885 135.366,365.43 134.638,366.396C133.879,367.401 132.932,368.654 131.04,368.654C129.147,368.654 128.2,367.401 127.44,366.396C126.711,365.431 126.254,364.885 125.344,364.885C124.432,364.885 123.975,365.431 123.246,366.396C122.485,367.403 121.538,368.654 119.644,368.654C117.749,368.654 116.803,367.401 116.042,366.396C115.312,365.43 114.856,364.885 113.945,364.885C113.032,364.885 112.575,365.431 111.846,366.396C111.085,367.403 110.137,368.654 108.244,368.654C106.35,368.654 105.402,367.401 104.642,366.396C103.913,365.431 103.456,364.885 102.545,364.885C101.633,364.885 101.175,365.431 100.446,366.396C99.685,367.403 98.737,368.654 96.844,368.654C94.95,368.654 94.003,367.401 93.243,366.396C92.514,365.431 92.057,364.885 91.146,364.885C90.235,364.885 89.778,365.431 89.049,366.396C88.288,367.403 87.342,368.654 85.448,368.654C83.554,368.654 82.608,367.403 81.846,366.396C81.117,365.431 80.659,364.885 79.748,364.885C78.837,364.885 78.38,365.431 77.651,366.396C76.891,367.401 75.943,368.654 74.05,368.654C72.156,368.654 71.21,367.401 70.449,366.396C69.721,365.431 69.264,364.885 68.354,364.885C67.443,364.885 66.986,365.431 66.257,366.396C65.497,367.401 64.55,368.654 62.657,368.654C60.762,368.654 59.815,367.401 59.054,366.396C58.325,365.431 57.867,364.885 56.956,364.885C56.045,364.885 55.588,365.431 54.859,366.396C54.098,367.403 53.152,368.654 51.259,368.654C49.366,368.654 48.419,367.401 47.659,366.396C46.93,365.43 46.473,364.885 45.564,364.885C44.654,364.885 44.198,365.43 43.468,366.396C42.708,367.401 41.762,368.654 39.869,368.654C37.976,368.654 37.028,367.401 36.268,366.396C35.539,365.43 35.082,364.885 34.172,364.885C33.26,364.885 32.803,365.431 32.074,366.396C31.313,367.403 30.366,368.654 28.472,368.654C26.58,368.654 25.633,367.401 24.873,366.396C24.144,365.43 23.687,364.885 22.778,364.885C21.869,364.885 21.412,365.43 20.683,366.394C19.924,367.401 18.978,368.654 17.085,368.654C15.192,368.654 14.246,367.401 13.486,366.394C12.758,365.43 12.302,364.885 11.392,364.885C10.483,364.885 10.026,365.43 9.297,366.396C8.536,367.401 7.59,368.654 5.697,368.654C3.804,368.654 2.858,367.403 2.097,366.396C1.368,365.431 0.911,364.885 0,364.885L0,363C1.894,363 2.841,364.254 3.601,365.259C4.33,366.225 4.787,366.77 5.697,366.77C6.607,366.77 7.064,366.225 7.793,365.259C8.553,364.254 9.499,363 11.392,363C13.285,363 14.231,364.254 14.991,365.26C15.719,366.225 16.176,366.77 17.085,366.77C17.995,366.77 18.451,366.225 19.18,365.26C19.939,364.254 20.885,363 22.778,363C24.671,363 25.617,364.254 26.378,365.259C27.106,366.225 27.563,366.77 28.472,366.77C29.384,366.77 29.841,366.225 30.569,365.259C31.331,364.254 32.277,363 34.172,363C36.066,363 37.012,364.252 37.772,365.259C38.501,366.223 38.958,366.77 39.869,366.77C40.779,366.77 41.235,366.225 41.965,365.259C42.725,364.254 43.671,363 45.564,363C47.457,363 48.403,364.254 49.163,365.259C49.892,366.225 50.349,366.77 51.259,366.77C52.169,366.77 52.626,366.225 53.354,365.259C54.115,364.254 55.062,363 56.956,363C58.849,363 59.797,364.252 60.558,365.259C61.287,366.223 61.745,366.77 62.657,366.77C63.567,366.77 64.024,366.223 64.753,365.259C65.513,364.254 66.46,363 68.354,363C70.247,363 71.193,364.254 71.954,365.259C72.683,366.223 73.14,366.77 74.05,366.77C74.961,366.77 75.418,366.223 76.147,365.259C76.907,364.254 77.854,363 79.748,363C81.643,363 82.589,364.252 83.35,365.259C84.08,366.223 84.537,366.77 85.448,366.77C86.359,366.77 86.815,366.225 87.544,365.259C88.305,364.254 89.252,363 91.146,363C93.039,363 93.987,364.254 94.747,365.259C95.476,366.223 95.933,366.77 96.844,366.77C97.756,366.77 98.213,366.223 98.942,365.259C99.703,364.254 100.65,363 102.545,363C104.439,363 105.386,364.254 106.147,365.259C106.875,366.223 107.332,366.77 108.244,366.77C109.155,366.77 109.613,366.223 110.341,365.259C111.103,364.254 112.05,363 113.945,363C115.838,363 116.784,364.252 117.546,365.259C118.275,366.223 118.733,366.77 119.644,366.77C120.555,366.77 121.013,366.223 121.742,365.259C122.503,364.252 123.449,363 125.344,363C127.238,363 128.184,364.254 128.944,365.259C129.673,366.223 130.13,366.77 131.04,366.77C131.949,366.77 132.406,366.225 133.134,365.26C133.893,364.254 134.84,363 136.732,363C138.625,363 139.571,364.254 140.332,365.259C141.061,366.225 141.518,366.77 142.427,366.77C143.339,366.77 143.796,366.223 144.526,365.259C145.287,364.252 146.234,363 148.129,363C150.022,363 150.968,364.252 151.728,365.259C152.457,366.223 152.914,366.77 153.825,366.77C154.737,366.77 155.194,366.223 155.923,365.259C156.685,364.252 157.632,363 159.526,363C161.42,363 162.368,364.254 163.128,365.259C163.857,366.223 164.313,366.77 165.225,366.77C166.137,366.77 166.595,366.223 167.325,365.259C168.086,364.252 169.034,363 170.929,363C172.823,363 173.771,364.254 174.532,365.259C175.261,366.223 175.718,366.77 176.63,366.77C177.542,366.77 178,366.223 178.73,365.259C179.491,364.252 180.439,363 182.333,363C184.229,363 185.176,364.252 185.938,365.259C186.668,366.223 187.126,366.77 188.039,366.77C188.953,366.77 189.41,366.223 190.14,365.259C190.902,364.252 191.849,363 193.745,363C195.64,363 196.586,364.252 197.347,365.259C198.076,366.223 198.533,366.77 199.445,366.77C200.358,366.77 200.816,366.223 201.546,365.259C202.308,364.252 203.255,363 205.151,363C207.046,363 207.994,364.252 208.755,365.259C209.485,366.223 209.943,366.77 210.857,366.77C211.771,366.77 212.229,366.223 212.959,365.259C213.721,364.252 214.669,363 216.565,363C218.463,363 219.412,364.252 220.175,365.259C220.907,366.223 221.367,366.77 222.282,366.77C223.198,366.77 223.658,366.223 224.39,365.259C225.153,364.252 226.102,363 228,363L228,364.885C227.083,364.885 226.624,365.431 225.892,366.396C225.129,367.403 224.18,368.654 222.282,368.654Z" style="fill:rgb(40,184,206);fill-rule:nonzero;"/>
            </g>
        </g>
        <g transform="matrix(1.13636,0,0,1.0101,2815,0)">
            <g transform="matrix(0.785714,0,0,0.883929,0,10.2863)">
                <path d="M450.282,368.654C448.385,368.654 447.436,367.403 446.673,366.396C445.941,365.431 445.482,364.885 444.565,364.885C443.652,364.885 443.193,365.431 442.463,366.396C441.701,367.403 440.753,368.654 438.857,368.654C436.962,368.654 436.013,367.403 435.252,366.396C434.522,365.431 434.064,364.885 433.151,364.885C432.237,364.885 431.78,365.431 431.05,366.396C430.288,367.403 429.341,368.654 427.445,368.654C425.55,368.654 424.604,367.403 423.843,366.396C423.114,365.431 422.656,364.885 421.745,364.885C420.832,364.885 420.374,365.431 419.644,366.396C418.882,367.403 417.935,368.654 416.039,368.654C414.144,368.654 413.197,367.403 412.434,366.396C411.704,365.431 411.246,364.885 410.333,364.885C409.421,364.885 408.963,365.431 408.233,366.396C407.472,367.403 406.524,368.654 404.63,368.654C402.736,368.654 401.789,367.403 401.027,366.396C400.299,365.431 399.841,364.885 398.929,364.885C398.016,364.885 397.559,365.431 396.829,366.396C396.067,367.403 395.119,368.654 393.225,368.654C391.331,368.654 390.384,367.401 389.623,366.396C388.894,365.431 388.438,364.885 387.526,364.885C386.614,364.885 386.157,365.431 385.427,366.396C384.666,367.403 383.719,368.654 381.825,368.654C379.931,368.654 378.984,367.401 378.224,366.394C377.495,365.43 377.038,364.885 376.129,364.885C375.217,364.885 374.76,365.431 374.03,366.396C373.269,367.403 372.321,368.654 370.427,368.654C368.534,368.654 367.588,367.401 366.827,366.396C366.098,365.43 365.642,364.885 364.732,364.885C363.823,364.885 363.366,365.43 362.638,366.396C361.879,367.401 360.932,368.654 359.04,368.654C357.147,368.654 356.2,367.401 355.44,366.396C354.711,365.431 354.254,364.885 353.344,364.885C352.432,364.885 351.975,365.431 351.246,366.396C350.485,367.403 349.538,368.654 347.644,368.654C345.749,368.654 344.803,367.401 344.042,366.396C343.312,365.43 342.856,364.885 341.945,364.885C341.032,364.885 340.575,365.431 339.846,366.396C339.085,367.403 338.137,368.654 336.244,368.654C334.35,368.654 333.402,367.401 332.642,366.396C331.913,365.431 331.456,364.885 330.545,364.885C329.633,364.885 329.175,365.431 328.446,366.396C327.685,367.403 326.737,368.654 324.844,368.654C322.95,368.654 322.003,367.401 321.243,366.396C320.514,365.431 320.057,364.885 319.146,364.885C318.235,364.885 317.778,365.431 317.049,366.396C316.288,367.403 315.342,368.654 313.448,368.654C311.554,368.654 310.608,367.403 309.846,366.396C309.117,365.431 308.659,364.885 307.748,364.885C306.837,364.885 306.38,365.431 305.651,366.396C304.891,367.401 303.943,368.654 302.05,368.654C300.156,368.654 299.21,367.401 298.449,366.396C297.721,365.431 297.264,364.885 296.354,364.885C295.443,364.885 294.986,365.431 294.257,366.396C293.497,367.401 292.55,368.654 290.657,368.654C288.762,368.654 287.815,367.401 287.054,366.396C286.325,365.431 285.867,364.885 284.956,364.885C284.045,364.885 283.588,365.431 282.859,366.396C282.098,367.403 281.152,368.654 279.259,368.654C277.366,368.654 276.419,367.401 275.659,366.396C274.93,365.43 274.473,364.885 273.564,364.885C272.654,364.885 272.198,365.43 271.468,366.396C270.708,367.401 269.762,368.654 267.869,368.654C265.976,368.654 265.028,367.401 264.268,366.396C263.539,365.43 263.082,364.885 262.172,364.885C261.26,364.885 260.803,365.431 260.074,366.396C259.313,367.403 258.366,368.654 256.472,368.654C254.58,368.654 253.633,367.401 252.873,366.396C252.144,365.43 251.687,364.885 250.778,364.885C249.869,364.885 249.412,365.43 248.683,366.394C247.924,367.401 246.978,368.654 245.085,368.654C243.192,368.654 242.246,367.401 241.486,366.394C240.758,365.43 240.302,364.885 239.392,364.885C238.482,364.885 238.026,365.43 237.297,366.396C236.536,367.401 235.59,368.654 233.697,368.654C231.804,368.654 230.858,367.403 230.097,366.396C229.368,365.431 228.911,364.885 228,364.885L228,363C229.894,363 230.841,364.254 231.601,365.259C232.33,366.225 232.787,366.77 233.697,366.77C234.607,366.77 235.064,366.225 235.793,365.259C236.553,364.254 237.499,363 239.392,363C241.285,363 242.231,364.254 242.991,365.26C243.719,366.225 244.176,366.77 245.085,366.77C245.994,366.77 246.451,366.225 247.18,365.26C247.939,364.254 248.885,363 250.778,363C252.671,363 253.617,364.254 254.377,365.259C255.106,366.225 255.563,366.77 256.472,366.77C257.384,366.77 257.841,366.225 258.569,365.259C259.331,364.254 260.277,363 262.172,363C264.065,363 265.012,364.252 265.772,365.259C266.501,366.223 266.958,366.77 267.869,366.77C268.779,366.77 269.235,366.225 269.965,365.259C270.725,364.254 271.671,363 273.564,363C275.456,363 276.403,364.254 277.163,365.259C277.892,366.225 278.349,366.77 279.259,366.77C280.169,366.77 280.626,366.225 281.354,365.259C282.115,364.254 283.062,363 284.956,363C286.849,363 287.797,364.252 288.558,365.259C289.287,366.223 289.745,366.77 290.657,366.77C291.567,366.77 292.024,366.223 292.753,365.259C293.513,364.254 294.46,363 296.354,363C298.247,363 299.193,364.254 299.954,365.259C300.683,366.223 301.14,366.77 302.05,366.77C302.961,366.77 303.418,366.223 304.147,365.259C304.907,364.254 305.854,363 307.748,363C309.643,363 310.589,364.252 311.35,365.259C312.08,366.223 312.537,366.77 313.448,366.77C314.359,366.77 314.815,366.225 315.544,365.259C316.305,364.254 317.252,363 319.146,363C321.039,363 321.987,364.254 322.747,365.259C323.476,366.223 323.933,366.77 324.844,366.77C325.756,366.77 326.213,366.223 326.942,365.259C327.703,364.254 328.65,363 330.545,363C332.439,363 333.386,364.254 334.147,365.259C334.875,366.223 335.332,366.77 336.244,366.77C337.155,366.77 337.613,366.223 338.341,365.259C339.103,364.254 340.05,363 341.945,363C343.838,363 344.784,364.252 345.546,365.259C346.275,366.223 346.733,366.77 347.644,366.77C348.555,366.77 349.013,366.223 349.742,365.259C350.503,364.252 351.449,363 353.344,363C355.238,363 356.184,364.254 356.944,365.259C357.673,366.223 358.13,366.77 359.04,366.77C359.949,366.77 360.406,366.225 361.134,365.26C361.893,364.254 362.84,363 364.732,363C366.625,363 367.571,364.254 368.332,365.259C369.061,366.225 369.518,366.77 370.427,366.77C371.339,366.77 371.796,366.223 372.526,365.259C373.287,364.252 374.234,363 376.129,363C378.022,363 378.968,364.252 379.728,365.259C380.457,366.223 380.914,366.77 381.825,366.77C382.737,366.77 383.194,366.223 383.923,365.259C384.685,364.252 385.632,363 387.526,363C389.42,363 390.368,364.254 391.128,365.259C391.857,366.223 392.313,366.77 393.225,366.77C394.137,366.77 394.595,366.223 395.325,365.259C396.086,364.252 397.034,363 398.929,363C400.823,363 401.771,364.254 402.532,365.259C403.261,366.223 403.718,366.77 404.63,366.77C405.542,366.77 406,366.223 406.73,365.259C407.491,364.252 408.439,363 410.333,363C412.229,363 413.176,364.252 413.938,365.259C414.668,366.223 415.126,366.77 416.039,366.77C416.953,366.77 417.41,366.223 418.14,365.259C418.902,364.252 419.849,363 421.745,363C423.64,363 424.586,364.252 425.347,365.259C426.076,366.223 426.533,366.77 427.445,366.77C428.358,366.77 428.816,366.223 429.546,365.259C430.308,364.252 431.255,363 433.151,363C435.046,363 435.994,364.252 436.755,365.259C437.485,366.223 437.943,366.77 438.857,366.77C439.771,366.77 440.229,366.223 440.959,365.259C441.721,364.252 442.669,363 444.565,363C446.463,363 447.412,364.252 448.175,365.259C448.907,366.223 449.367,366.77 450.282,366.77C451.198,366.77 451.658,366.223 452.39,365.259C453.153,364.252 454.102,363 456,363L456,364.885C455.083,364.885 454.624,365.431 453.892,366.396C453.129,367.403 452.18,368.654 450.282,368.654Z" style="fill:rgb(40,184,206);fill-rule:nonzero;"/>
            </g>
        </g>
        <g transform="matrix(1.13636,0,0,1.0101,2815,0)">
            <g transform="matrix(0.785714,0,0,0.883929,0,10.2863)">
                <path d="M75.417,203.929L80.258,212.3L74.296,222.605L75.417,203.929ZM72.734,190.802L80.749,190.802L80.749,199.809L72.734,199.809L72.734,190.802ZM90.286,199.809L89.099,199.809C89.099,199.806 88.335,199.809 88.335,199.809L82.271,199.809L82.271,190.802L90.282,190.802L90.286,199.809ZM82.271,306.672L91.208,323.089L82.271,323.089L82.271,306.672ZM80.478,303.377L80.749,303.876L80.749,323.089L69.699,323.089L80.478,303.377ZM79.532,301.636L68.328,322.131L70.547,285.135L79.532,301.636ZM72.317,255.626L79.893,266.611L70.899,279.239L72.317,255.626ZM80.128,238.928L72.624,250.483L73.905,229.141L80.128,238.928ZM80.749,225.29L74.678,225.29L80.749,214.788L80.749,225.29ZM80.749,201.919L80.749,209.801L76.205,201.952L80.749,201.919ZM82.271,208.811L82.271,201.911L86.276,201.884L82.271,208.811ZM82.271,212.437L82.271,212.154L87.686,202.791L88.473,223.158L82.271,212.437ZM82.271,239.144L82.271,238.753L88.692,228.863L89.53,250.561L82.271,239.144ZM82.271,267.04L82.271,266.246L89.731,255.777L90.635,279.167L82.271,267.04ZM82.271,300.098L90.839,284.437L92.273,321.561L82.271,303.196L82.271,300.098ZM80.749,283.195L80.749,299.416L80.48,299.904L71.381,283.195L80.749,283.195ZM80.749,281.139L71.663,281.139L80.749,268.386L80.749,281.139ZM80.749,254.374L80.749,264.833L73.533,254.374L80.749,254.374ZM80.749,252.312L73.462,252.312L80.749,241.095L80.749,252.312ZM80.749,236.745L74.774,227.346L80.749,227.346L80.749,236.745ZM88.613,254.374L82.271,263.27L82.271,254.374L88.613,254.374ZM82.271,252.312L82.271,242.298L88.636,252.312L82.271,252.312ZM89.618,283.195L82.271,296.631L82.271,283.195L89.618,283.195ZM82.271,281.139L82.271,270.06L89.91,281.139L82.271,281.139ZM82.271,225.29L82.271,215.784L87.767,225.29L82.271,225.29ZM87.644,227.346L82.271,235.622L82.271,227.346L87.644,227.346ZM93.863,323.089L89.18,201.873L91.811,201.873L91.811,188.743L85.136,188.743L85.136,187.683C85.136,185.625 83.919,183.856 82.271,183.856L82.271,180L80.371,180L80.371,183.856C78.72,183.856 77.505,185.629 77.505,187.683L77.505,188.743L71.209,188.743L71.209,201.873L74.012,201.873L72.589,225.56L66.737,323.089L63.772,323.089L63.772,326.947L96.009,326.947L96.009,323.089L93.863,323.089Z" style="fill:rgb(22,28,49);"/>
            </g>
        </g>
        <g transform="matrix(1.13636,0,0,1.0101,2815,0)">
            <g transform="matrix(0.785714,0,0,0.883929,0,10.2863)">
                <path d="M75.417,203.929L80.258,212.3L74.296,222.605L75.417,203.929ZM72.734,190.802L80.749,190.802L80.749,199.809L72.734,199.809L72.734,190.802ZM90.286,199.809L89.099,199.809C89.099,199.806 88.335,199.809 88.335,199.809L82.271,199.809L82.271,190.802L90.282,190.802L90.286,199.809ZM82.271,306.672L91.208,323.089L82.271,323.089L82.271,306.672ZM80.478,303.377L80.749,303.876L80.749,323.089L69.699,323.089L80.478,303.377ZM79.532,301.636L68.328,322.131L70.547,285.135L79.532,301.636ZM72.317,255.626L79.893,266.611L70.899,279.239L72.317,255.626ZM80.128,238.928L72.624,250.483L73.905,229.141L80.128,238.928ZM80.749,225.29L74.678,225.29L80.749,214.788L80.749,225.29ZM80.749,201.919L80.749,209.801L76.205,201.952L80.749,201.919ZM82.271,208.811L82.271,201.911L86.276,201.884L82.271,208.811ZM82.271,212.437L82.271,212.154L87.686,202.791L88.473,223.158L82.271,212.437ZM82.271,239.144L82.271,238.753L88.692,228.863L89.53,250.561L82.271,239.144ZM82.271,267.04L82.271,266.246L89.731,255.777L90.635,279.167L82.271,267.04ZM82.271,300.098L90.839,284.437L92.273,321.561L82.271,303.196L82.271,300.098ZM80.749,283.195L80.749,299.416L80.48,299.904L71.381,283.195L80.749,283.195ZM80.749,281.139L71.663,281.139L80.749,268.386L80.749,281.139ZM80.749,254.374L80.749,264.833L73.533,254.374L80.749,254.374ZM80.749,252.312L73.462,252.312L80.749,241.095L80.749,252.312ZM80.749,236.745L74.774,227.346L80.749,227.346L80.749,236.745ZM88.613,254.374L82.271,263.27L82.271,254.374L88.613,254.374ZM82.271,252.312L82.271,242.298L88.636,252.312L82.271,252.312ZM89.618,283.195L82.271,296.631L82.271,283.195L89.618,283.195ZM82.271,281.139L82.271,270.06L89.91,281.139L82.271,281.139ZM82.271,225.29L82.271,215.784L87.767,225.29L82.271,225.29ZM87.644,227.346L82.271,235.622L82.271,227.346L87.644,227.346ZM93.863,323.089L89.18,201.873L91.811,201.873L91.811,188.743L85.136,188.743L85.136,187.683C85.136,185.625 83.919,183.856 82.271,183.856L82.271,180L80.371,180L80.371,183.856C78.72,183.856 77.505,185.629 77.505,187.683L77.505,188.743L71.209,188.743L71.209,201.873L74.012,201.873L72.589,225.56L66.737,323.089L63.772,323.089L63.772,326.947L96.009,326.947L96.009,323.089L93.863,323.089Z" style="fill:white;fill-opacity:0.25;"/>
            </g>
        </g>
        <g transform="matrix(1.13636,0,0,1.0101,2815,0)">
            <g transform="matrix(0.785714,0,0,0.883929,0,10.2863)">
                <rect x="87.848" y="291.058" width="51.402" height="36.269" style="fill:rgb(22,28,49);fill-rule:nonzero;"/>
            </g>
        </g>
        <g transform="matrix(1.13636,0,0,1.0101,2815,0)">
            <g transform="matrix(0.785714,0,0,0.883929,0,10.2863)">
                <path d="M154.497,241.506L155.731,237.508L160.543,241.253L154.513,242.254L154.497,241.506ZM153.8,246.085L150.766,243.82L153.621,240.6L153.8,246.085ZM150.749,277.281L154.405,274.898L154.506,279.721L150.749,277.281ZM150.011,283.015L150.089,278.003L154.094,280.599L150.011,283.015ZM150.545,248.861L150.607,244.886L153.056,246.717L150.545,248.861ZM150.639,250.013L153.826,247.292L153.939,252.689L150.639,250.013ZM150.434,255.922L150.51,251.119L153.114,253.231L150.434,255.922ZM150.65,257.004L153.959,253.681L154.077,259.263L150.65,257.004ZM150.33,262.519L150.402,257.995L153.443,259.997L150.33,262.519ZM150.621,263.494L154.106,260.673L154.215,265.843L150.621,263.494ZM150.227,269.329L150.3,264.432L153.687,266.649L150.227,269.329ZM154.129,273.924L150.112,276.549L150.196,271.049L154.129,273.924ZM150.647,270.198L154.247,267.415L154.363,272.917L150.647,270.198ZM151.01,237.661L152.909,239.865L150.644,242.569L150.72,237.7L151.01,237.661ZM150.847,236.093L153.526,233.049L153.597,236.435L151.396,236.73L150.847,236.093ZM150.845,229.691L152.789,232.515L150.763,234.821L150.845,229.691ZM153.458,229.816L153.504,232.007L151.954,229.758L153.458,229.816ZM153.659,239.352L152.077,237.519L153.616,237.313L153.659,239.352ZM162.801,236.084L161.2,240.415L156.681,236.903L162.801,236.084ZM169.271,239.804L162.367,240.949L164.135,236.189L169.271,239.804ZM172.299,234.815L170.171,239.163L165.315,235.747L172.299,234.815ZM177.575,238.423L171.429,239.442L173.479,235.26L177.575,238.423ZM180.854,233.669L178.636,237.903L174.294,234.547L180.854,233.669ZM185.655,237.079L179.977,238.024L181.962,234.242L185.655,237.079ZM189.73,232.482L186.809,236.626L182.644,233.429L189.73,232.482ZM194.284,235.645L188.256,236.647L190.62,233.292L194.284,235.645ZM197.837,231.397L195.629,235.296L190.987,232.314L197.837,231.397ZM202.106,234.345L197.117,235.173L198.858,232.102L202.106,234.345ZM206.656,230.217L203.39,233.972L199.368,231.193L206.656,230.217ZM211.589,232.768L205.015,233.861L207.554,230.941L211.589,232.768ZM215.914,228.979L213.103,232.402L207.914,230.049L215.914,228.979ZM221.178,231.175L214.74,232.247L216.869,229.657L221.178,231.175ZM220.016,228.431L220.666,230.013L217.236,228.803L220.016,228.431ZM223.264,231.995L221.138,227.815L220.36,227.503L154.388,236.33L154.241,229.305L149.827,228.346L149.353,237.003L146,237.452L146.908,238.21L149.304,237.889L146.845,282.775L149.986,284.64L149.993,284.156L154.542,281.466L154.668,287.421L155.47,287.897L154.561,244.597L223.264,231.995Z" style="fill:rgb(22,28,49);fill-rule:nonzero;"/>
            </g>
        </g>
        <g transform="matrix(1.13636,0,0,1.0101,2815,0)">
            <g transform="matrix(0.785714,0,0,0.883929,0,10.2863)">
                <path d="M154.497,241.506L155.731,237.508L160.543,241.253L154.513,242.254L154.497,241.506ZM153.8,246.085L150.766,243.82L153.621,240.6L153.8,246.085ZM150.749,277.281L154.405,274.898L154.506,279.721L150.749,277.281ZM150.011,283.015L150.089,278.003L154.094,280.599L150.011,283.015ZM150.545,248.861L150.607,244.886L153.056,246.717L150.545,248.861ZM150.639,250.013L153.826,247.292L153.939,252.689L150.639,250.013ZM150.434,255.922L150.51,251.119L153.114,253.231L150.434,255.922ZM150.65,257.004L153.959,253.681L154.077,259.263L150.65,257.004ZM150.33,262.519L150.402,257.995L153.443,259.997L150.33,262.519ZM150.621,263.494L154.106,260.673L154.215,265.843L150.621,263.494ZM150.227,269.329L150.3,264.432L153.687,266.649L150.227,269.329ZM154.129,273.924L150.112,276.549L150.196,271.049L154.129,273.924ZM150.647,270.198L154.247,267.415L154.363,272.917L150.647,270.198ZM151.01,237.661L152.909,239.865L150.644,242.569L150.72,237.7L151.01,237.661ZM150.847,236.093L153.526,233.049L153.597,236.435L151.396,236.73L150.847,236.093ZM150.845,229.691L152.789,232.515L150.763,234.821L150.845,229.691ZM153.458,229.816L153.504,232.007L151.954,229.758L153.458,229.816ZM153.659,239.352L152.077,237.519L153.616,237.313L153.659,239.352ZM162.801,236.084L161.2,240.415L156.681,236.903L162.801,236.084ZM169.271,239.804L162.367,240.949L164.135,236.189L169.271,239.804ZM172.299,234.815L170.171,239.163L165.315,235.747L172.299,234.815ZM177.575,238.423L171.429,239.442L173.479,235.26L177.575,238.423ZM180.854,233.669L178.636,237.903L174.294,234.547L180.854,233.669ZM185.655,237.079L179.977,238.024L181.962,234.242L185.655,237.079ZM189.73,232.482L186.809,236.626L182.644,233.429L189.73,232.482ZM194.284,235.645L188.256,236.647L190.62,233.292L194.284,235.645ZM197.837,231.397L195.629,235.296L190.987,232.314L197.837,231.397ZM202.106,234.345L197.117,235.173L198.858,232.102L202.106,234.345ZM206.656,230.217L203.39,233.972L199.368,231.193L206.656,230.217ZM211.589,232.768L205.015,233.861L207.554,230.941L211.589,232.768ZM215.914,228.979L213.103,232.402L207.914,230.049L215.914,228.979ZM221.178,231.175L214.74,232.247L216.869,229.657L221.178,231.175ZM220.016,228.431L220.666,230.013L217.236,228.803L220.016,228.431ZM223.264,231.995L221.138,227.815L220.36,227.503L154.388,236.33L154.241,229.305L149.827,228.346L149.353,237.003L146,237.452L146.908,238.21L149.304,237.889L146.845,282.775L149.986,284.64L149.993,284.156L154.542,281.466L154.668,287.421L155.47,287.897L154.561,244.597L223.264,231.995Z" style="fill:white;fill-opacity:0.25;fill-rule:nonzero;"/>
            </g>
        </g>
        <g transform="matrix(1.13636,0,0,1.0101,2815,0)">
            <g transform="matrix(0.785714,0,0,0.883929,0,10.2863)">
                <path d="M143.377,279.778L143.377,328.241L183.867,300.752L184.201,300.752L184.201,279.778L143.377,279.778Z" style="fill:rgb(22,28,49);"/>
            </g>
        </g>
        <g transform="matrix(1.13636,0,0,1.0101,2815,0)">
            <g transform="matrix(0.785714,0,0,0.883929,0,10.2863)">
                <path d="M80.804,354.103L80.804,342.59L85.786,342.59L80.804,354.103ZM85.786,367.449L80.804,355.911L80.804,355.865L85.786,344.327L85.786,367.449ZM78.703,354.233L73.53,342.59L78.703,342.59L78.703,354.233ZM73.53,367.756L73.53,344.02L78.655,355.888L73.53,367.756ZM156.229,326.576L156.229,318.549L107.621,318.549L107.621,326.576L52.014,326.576L52.014,319L3,319L3,326.576L0,326.576C0,331.59 4.065,335.655 9.079,335.655L55.526,335.655L55.526,342.59L56.401,342.59L54.635,373.818L56.371,374.205L58.158,342.59L72.704,342.59L72.704,374.489L73.53,374.489L73.53,369.186L78.703,357.543L78.703,374.489L80.804,374.489L80.804,357.673L85.786,368.887L85.786,374.489L86.612,374.489L86.612,342.59L101.476,342.59L103.263,374.205L104.999,373.818L103.233,342.59L103.981,342.59L103.981,335.655L150.555,335.655C155.569,335.655 159.634,331.59 159.634,326.576L156.229,326.576Z" style="fill:rgb(22,28,49);"/>
            </g>
        </g>
        <g transform="matrix(1.13636,0,0,1.0101,2815,0)">
            <g transform="matrix(0.785714,0,0,0.883929,0,10.2863)">
                <rect x="87.848" y="291.058" width="25.559" height="31.843" style="fill:rgb(22,28,49);fill-rule:nonzero;"/>
            </g>
        </g>
        <g transform="matrix(1.13636,0,0,1.0101,2815,0)">
            <g transform="matrix(0.785714,0,0,0.883929,0,10.2863)">
                <path d="M222.282,377.309C220.385,377.309 219.436,376.057 218.673,375.05C217.941,374.086 217.482,373.539 216.565,373.539C215.652,373.539 215.193,374.086 214.463,375.05C213.701,376.057 212.753,377.309 210.857,377.309C208.962,377.309 208.013,376.057 207.252,375.05C206.522,374.086 206.064,373.539 205.151,373.539C204.237,373.539 203.78,374.086 203.05,375.05C202.288,376.057 201.341,377.309 199.445,377.309C197.55,377.309 196.604,376.057 195.843,375.05C195.114,374.086 194.656,373.539 193.745,373.539C192.832,373.539 192.374,374.086 191.644,375.05C190.882,376.057 189.935,377.309 188.039,377.309C186.144,377.309 185.197,376.057 184.434,375.05C183.704,374.086 183.246,373.539 182.333,373.539C181.421,373.539 180.963,374.086 180.233,375.05C179.472,376.057 178.524,377.309 176.63,377.309C174.736,377.309 173.789,376.057 173.027,375.05C172.299,374.086 171.841,373.539 170.929,373.539C170.016,373.539 169.559,374.086 168.829,375.05C168.067,376.057 167.119,377.309 165.225,377.309C163.331,377.309 162.384,376.055 161.623,375.05C160.894,374.086 160.438,373.539 159.526,373.539C158.614,373.539 158.157,374.086 157.427,375.05C156.666,376.057 155.719,377.309 153.825,377.309C151.931,377.309 150.984,376.055 150.224,375.049C149.495,374.084 149.038,373.539 148.129,373.539C147.217,373.539 146.76,374.086 146.03,375.05C145.269,376.057 144.321,377.309 142.427,377.309C140.534,377.309 139.588,376.055 138.827,375.05C138.098,374.084 137.642,373.539 136.732,373.539C135.823,373.539 135.366,374.084 134.638,375.05C133.879,376.055 132.932,377.309 131.04,377.309C129.147,377.309 128.2,376.055 127.44,375.05C126.711,374.086 126.254,373.539 125.344,373.539C124.432,373.539 123.975,374.086 123.246,375.05C122.485,376.057 121.538,377.309 119.644,377.309C117.749,377.309 116.803,376.055 116.042,375.05C115.312,374.084 114.856,373.539 113.945,373.539C113.032,373.539 112.575,374.086 111.846,375.05C111.085,376.057 110.137,377.309 108.244,377.309C106.35,377.309 105.402,376.055 104.642,375.05C103.913,374.086 103.456,373.539 102.545,373.539C101.633,373.539 101.175,374.086 100.446,375.05C99.685,376.057 98.737,377.309 96.844,377.309C94.95,377.309 94.003,376.055 93.243,375.05C92.514,374.086 92.057,373.539 91.146,373.539C90.235,373.539 89.778,374.086 89.049,375.05C88.288,376.057 87.342,377.309 85.448,377.309C83.554,377.309 82.608,376.057 81.846,375.05C81.117,374.086 80.659,373.539 79.748,373.539C78.837,373.539 78.38,374.086 77.651,375.05C76.891,376.055 75.943,377.309 74.05,377.309C72.156,377.309 71.21,376.055 70.449,375.05C69.721,374.086 69.264,373.539 68.354,373.539C67.443,373.539 66.986,374.086 66.257,375.05C65.497,376.055 64.55,377.309 62.657,377.309C60.762,377.309 59.815,376.055 59.054,375.05C58.325,374.086 57.867,373.539 56.956,373.539C56.045,373.539 55.588,374.086 54.859,375.05C54.098,376.057 53.152,377.309 51.259,377.309C49.366,377.309 48.419,376.055 47.659,375.05C46.93,374.084 46.473,373.539 45.564,373.539C44.654,373.539 44.198,374.084 43.468,375.05C42.708,376.055 41.762,377.309 39.869,377.309C37.976,377.309 37.028,376.055 36.268,375.05C35.539,374.084 35.082,373.539 34.172,373.539C33.26,373.539 32.803,374.086 32.074,375.05C31.313,376.057 30.366,377.309 28.472,377.309C26.58,377.309 25.633,376.055 24.873,375.05C24.144,374.084 23.687,373.539 22.778,373.539C21.869,373.539 21.412,374.084 20.683,375.049C19.924,376.055 18.978,377.309 17.085,377.309C15.192,377.309 14.246,376.055 13.486,375.049C12.758,374.084 12.302,373.539 11.392,373.539C10.483,373.539 10.026,374.084 9.297,375.05C8.536,376.055 7.59,377.309 5.697,377.309C3.804,377.309 2.858,376.057 2.097,375.05C1.368,374.086 0.911,373.539 0,373.539L0,371.654C1.894,371.654 2.841,372.908 3.601,373.913C4.33,374.879 4.787,375.424 5.697,375.424C6.607,375.424 7.064,374.879 7.793,373.913C8.553,372.908 9.499,371.654 11.392,371.654C13.285,371.654 14.231,372.908 14.991,373.915C15.719,374.879 16.176,375.424 17.085,375.424C17.995,375.424 18.451,374.879 19.18,373.915C19.939,372.908 20.885,371.654 22.778,371.654C24.671,371.654 25.617,372.908 26.378,373.913C27.106,374.879 27.563,375.424 28.472,375.424C29.384,375.424 29.841,374.879 30.569,373.913C31.331,372.908 32.277,371.654 34.172,371.654C36.066,371.654 37.012,372.906 37.772,373.913C38.501,374.877 38.958,375.424 39.869,375.424C40.779,375.424 41.235,374.879 41.965,373.913C42.725,372.908 43.671,371.654 45.564,371.654C47.457,371.654 48.403,372.908 49.163,373.913C49.892,374.879 50.349,375.424 51.259,375.424C52.169,375.424 52.626,374.879 53.354,373.913C54.115,372.908 55.062,371.654 56.956,371.654C58.849,371.654 59.797,372.906 60.558,373.913C61.287,374.877 61.745,375.424 62.657,375.424C63.567,375.424 64.024,374.877 64.753,373.913C65.513,372.908 66.46,371.654 68.354,371.654C70.247,371.654 71.193,372.908 71.954,373.913C72.683,374.877 73.14,375.424 74.05,375.424C74.961,375.424 75.418,374.877 76.147,373.913C76.907,372.908 77.854,371.654 79.748,371.654C81.643,371.654 82.589,372.906 83.35,373.913C84.08,374.877 84.537,375.424 85.448,375.424C86.359,375.424 86.815,374.879 87.544,373.913C88.305,372.908 89.252,371.654 91.146,371.654C93.039,371.654 93.987,372.908 94.747,373.913C95.476,374.877 95.933,375.424 96.844,375.424C97.756,375.424 98.213,374.877 98.942,373.913C99.703,372.908 100.65,371.654 102.545,371.654C104.439,371.654 105.386,372.908 106.147,373.913C106.875,374.877 107.332,375.424 108.244,375.424C109.155,375.424 109.613,374.877 110.341,373.913C111.103,372.908 112.05,371.654 113.945,371.654C115.838,371.654 116.784,372.906 117.546,373.913C118.275,374.877 118.733,375.424 119.644,375.424C120.555,375.424 121.013,374.877 121.742,373.913C122.503,372.906 123.449,371.654 125.344,371.654C127.238,371.654 128.184,372.908 128.944,373.913C129.673,374.877 130.13,375.424 131.04,375.424C131.949,375.424 132.406,374.879 133.134,373.915C133.893,372.908 134.84,371.654 136.732,371.654C138.625,371.654 139.571,372.908 140.332,373.913C141.061,374.879 141.518,375.424 142.427,375.424C143.339,375.424 143.796,374.877 144.526,373.913C145.287,372.906 146.234,371.654 148.129,371.654C150.022,371.654 150.968,372.906 151.728,373.913C152.457,374.877 152.914,375.424 153.825,375.424C154.737,375.424 155.194,374.877 155.923,373.913C156.685,372.906 157.632,371.654 159.526,371.654C161.42,371.654 162.368,372.908 163.128,373.913C163.857,374.877 164.313,375.424 165.225,375.424C166.137,375.424 166.595,374.877 167.325,373.913C168.086,372.906 169.034,371.654 170.929,371.654C172.823,371.654 173.771,372.908 174.532,373.913C175.261,374.877 175.718,375.424 176.63,375.424C177.542,375.424 178,374.877 178.73,373.913C179.491,372.906 180.439,371.654 182.333,371.654C184.229,371.654 185.176,372.906 185.938,373.913C186.668,374.877 187.126,375.424 188.039,375.424C188.953,375.424 189.41,374.877 190.14,373.913C190.902,372.906 191.849,371.654 193.745,371.654C195.64,371.654 196.586,372.906 197.347,373.913C198.076,374.877 198.533,375.424 199.445,375.424C200.358,375.424 200.816,374.877 201.546,373.913C202.308,372.906 203.255,371.654 205.151,371.654C207.046,371.654 207.994,372.906 208.755,373.913C209.485,374.877 209.943,375.424 210.857,375.424C211.771,375.424 212.229,374.877 212.959,373.913C213.721,372.906 214.669,371.654 216.565,371.654C218.463,371.654 219.412,372.906 220.175,373.913C220.907,374.877 221.367,375.424 222.282,375.424C223.198,375.424 223.658,374.877 224.39,373.913C225.153,372.906 226.102,371.654 228,371.654L228,373.539C227.083,373.539 226.624,374.086 225.892,375.05C225.129,376.057 224.18,377.309 222.282,377.309Z" style="fill:rgb(40,184,206);fill-rule:nonzero;"/>
            </g>
        </g>
        <g transform="matrix(1.13636,0,0,1.0101,2815,0)">
            <g transform="matrix(0.785714,0,0,0.883929,0,10.2863)">
                <path d="M450.282,377.309C448.385,377.309 447.436,376.057 446.673,375.05C445.941,374.086 445.482,373.539 444.565,373.539C443.652,373.539 443.193,374.086 442.463,375.05C441.701,376.057 440.753,377.309 438.857,377.309C436.962,377.309 436.013,376.057 435.252,375.05C434.522,374.086 434.064,373.539 433.151,373.539C432.237,373.539 431.78,374.086 431.05,375.05C430.288,376.057 429.341,377.309 427.445,377.309C425.55,377.309 424.604,376.057 423.843,375.05C423.114,374.086 422.656,373.539 421.745,373.539C420.832,373.539 420.374,374.086 419.644,375.05C418.882,376.057 417.935,377.309 416.039,377.309C414.144,377.309 413.197,376.057 412.434,375.05C411.704,374.086 411.246,373.539 410.333,373.539C409.421,373.539 408.963,374.086 408.233,375.05C407.472,376.057 406.524,377.309 404.63,377.309C402.736,377.309 401.789,376.057 401.027,375.05C400.299,374.086 399.841,373.539 398.929,373.539C398.016,373.539 397.559,374.086 396.829,375.05C396.067,376.057 395.119,377.309 393.225,377.309C391.331,377.309 390.384,376.055 389.623,375.05C388.894,374.086 388.438,373.539 387.526,373.539C386.614,373.539 386.157,374.086 385.427,375.05C384.666,376.057 383.719,377.309 381.825,377.309C379.931,377.309 378.984,376.055 378.224,375.049C377.495,374.084 377.038,373.539 376.129,373.539C375.217,373.539 374.76,374.086 374.03,375.05C373.269,376.057 372.321,377.309 370.427,377.309C368.534,377.309 367.588,376.055 366.827,375.05C366.098,374.084 365.642,373.539 364.732,373.539C363.823,373.539 363.366,374.084 362.638,375.05C361.879,376.055 360.932,377.309 359.04,377.309C357.147,377.309 356.2,376.055 355.44,375.05C354.711,374.086 354.254,373.539 353.344,373.539C352.432,373.539 351.975,374.086 351.246,375.05C350.485,376.057 349.538,377.309 347.644,377.309C345.749,377.309 344.803,376.055 344.042,375.05C343.312,374.084 342.856,373.539 341.945,373.539C341.032,373.539 340.575,374.086 339.846,375.05C339.085,376.057 338.137,377.309 336.244,377.309C334.35,377.309 333.402,376.055 332.642,375.05C331.913,374.086 331.456,373.539 330.545,373.539C329.633,373.539 329.175,374.086 328.446,375.05C327.685,376.057 326.737,377.309 324.844,377.309C322.95,377.309 322.003,376.055 321.243,375.05C320.514,374.086 320.057,373.539 319.146,373.539C318.235,373.539 317.778,374.086 317.049,375.05C316.288,376.057 315.342,377.309 313.448,377.309C311.554,377.309 310.608,376.057 309.846,375.05C309.117,374.086 308.659,373.539 307.748,373.539C306.837,373.539 306.38,374.086 305.651,375.05C304.891,376.055 303.943,377.309 302.05,377.309C300.156,377.309 299.21,376.055 298.449,375.05C297.721,374.086 297.264,373.539 296.354,373.539C295.443,373.539 294.986,374.086 294.257,375.05C293.497,376.055 292.55,377.309 290.657,377.309C288.762,377.309 287.815,376.055 287.054,375.05C286.325,374.086 285.867,373.539 284.956,373.539C284.045,373.539 283.588,374.086 282.859,375.05C282.098,376.057 281.152,377.309 279.259,377.309C277.366,377.309 276.419,376.055 275.659,375.05C274.93,374.084 274.473,373.539 273.564,373.539C272.654,373.539 272.198,374.084 271.468,375.05C270.708,376.055 269.762,377.309 267.869,377.309C265.976,377.309 265.028,376.055 264.268,375.05C263.539,374.084 263.082,373.539 262.172,373.539C261.26,373.539 260.803,374.086 260.074,375.05C259.313,376.057 258.366,377.309 256.472,377.309C254.58,377.309 253.633,376.055 252.873,375.05C252.144,374.084 251.687,373.539 250.778,373.539C249.869,373.539 249.412,374.084 248.683,375.049C247.924,376.055 246.978,377.309 245.085,377.309C243.192,377.309 242.246,376.055 241.486,375.049C240.758,374.084 240.302,373.539 239.392,373.539C238.482,373.539 238.026,374.084 237.297,375.05C236.536,376.055 235.59,377.309 233.697,377.309C231.804,377.309 230.858,376.057 230.097,375.05C229.368,374.086 228.911,373.539 228,373.539L228,371.654C229.894,371.654 230.841,372.908 231.601,373.913C232.33,374.879 232.787,375.424 233.697,375.424C234.607,375.424 235.064,374.879 235.793,373.913C236.553,372.908 237.499,371.654 239.392,371.654C241.285,371.654 242.231,372.908 242.991,373.915C243.719,374.879 244.176,375.424 245.085,375.424C245.994,375.424 246.451,374.879 247.18,373.915C247.939,372.908 248.885,371.654 250.778,371.654C252.671,371.654 253.617,372.908 254.377,373.913C255.106,374.879 255.563,375.424 256.472,375.424C257.384,375.424 257.841,374.879 258.569,373.913C259.331,372.908 260.277,371.654 262.172,371.654C264.065,371.654 265.012,372.906 265.772,373.913C266.501,374.877 266.958,375.424 267.869,375.424C268.779,375.424 269.235,374.879 269.965,373.913C270.725,372.908 271.671,371.654 273.564,371.654C275.456,371.654 276.403,372.908 277.163,373.913C277.892,374.879 278.349,375.424 279.259,375.424C280.169,375.424 280.626,374.879 281.354,373.913C282.115,372.908 283.062,371.654 284.956,371.654C286.849,371.654 287.797,372.906 288.558,373.913C289.287,374.877 289.745,375.424 290.657,375.424C291.567,375.424 292.024,374.877 292.753,373.913C293.513,372.908 294.46,371.654 296.354,371.654C298.247,371.654 299.193,372.908 299.954,373.913C300.683,374.877 301.14,375.424 302.05,375.424C302.961,375.424 303.418,374.877 304.147,373.913C304.907,372.908 305.854,371.654 307.748,371.654C309.643,371.654 310.589,372.906 311.35,373.913C312.08,374.877 312.537,375.424 313.448,375.424C314.359,375.424 314.815,374.879 315.544,373.913C316.305,372.908 317.252,371.654 319.146,371.654C321.039,371.654 321.987,372.908 322.747,373.913C323.476,374.877 323.933,375.424 324.844,375.424C325.756,375.424 326.213,374.877 326.942,373.913C327.703,372.908 328.65,371.654 330.545,371.654C332.439,371.654 333.386,372.908 334.147,373.913C334.875,374.877 335.332,375.424 336.244,375.424C337.155,375.424 337.613,374.877 338.341,373.913C339.103,372.908 340.05,371.654 341.945,371.654C343.838,371.654 344.784,372.906 345.546,373.913C346.275,374.877 346.733,375.424 347.644,375.424C348.555,375.424 349.013,374.877 349.742,373.913C350.503,372.906 351.449,371.654 353.344,371.654C355.238,371.654 356.184,372.908 356.944,373.913C357.673,374.877 358.13,375.424 359.04,375.424C359.949,375.424 360.406,374.879 361.134,373.915C361.893,372.908 362.84,371.654 364.732,371.654C366.625,371.654 367.571,372.908 368.332,373.913C369.061,374.879 369.518,375.424 370.427,375.424C371.339,375.424 371.796,374.877 372.526,373.913C373.287,372.906 374.234,371.654 376.129,371.654C378.022,371.654 378.968,372.906 379.728,373.913C380.457,374.877 380.914,375.424 381.825,375.424C382.737,375.424 383.194,374.877 383.923,373.913C384.685,372.906 385.632,371.654 387.526,371.654C389.42,371.654 390.368,372.908 391.128,373.913C391.857,374.877 392.313,375.424 393.225,375.424C394.137,375.424 394.595,374.877 395.325,373.913C396.086,372.906 397.034,371.654 398.929,371.654C400.823,371.654 401.771,372.908 402.532,373.913C403.261,374.877 403.718,375.424 404.63,375.424C405.542,375.424 406,374.877 406.73,373.913C407.491,372.906 408.439,371.654 410.333,371.654C412.229,371.654 413.176,372.906 413.938,373.913C414.668,374.877 415.126,375.424 416.039,375.424C416.953,375.424 417.41,374.877 418.14,373.913C418.902,372.906 419.849,371.654 421.745,371.654C423.64,371.654 424.586,372.906 425.347,373.913C426.076,374.877 426.533,375.424 427.445,375.424C428.358,375.424 428.816,374.877 429.546,373.913C430.308,372.906 431.255,371.654 433.151,371.654C435.046,371.654 435.994,372.906 436.755,373.913C437.485,374.877 437.943,375.424 438.857,375.424C439.771,375.424 440.229,374.877 440.959,373.913C441.721,372.906 442.669,371.654 444.565,371.654C446.463,371.654 447.412,372.906 448.175,373.913C448.907,374.877 449.367,375.424 450.282,375.424C451.198,375.424 451.658,374.877 452.39,373.913C453.153,372.906 454.102,371.654 456,371.654L456,373.539C455.083,373.539 454.624,374.086 453.892,375.05C453.129,376.057 452.18,377.309 450.282,377.309Z" style="fill:rgb(40,184,206);fill-rule:nonzero;"/>
            </g>
        </g>
        <g transform="matrix(1.13636,0,0,1.0101,2815,0)">
            <g transform="matrix(0.785714,0,0,0.883929,0,10.2863)">
                <path d="M222.215,385.963C220.319,385.963 219.369,384.712 218.606,383.705C217.875,382.74 217.416,382.193 216.499,382.193C215.586,382.193 215.128,382.74 214.398,383.705C213.636,384.712 212.688,385.963 210.793,385.963C208.898,385.963 207.95,384.712 207.189,383.705C206.459,382.74 206.001,382.193 205.089,382.193C204.175,382.193 203.718,382.74 202.988,383.705C202.226,384.712 201.279,385.963 199.384,385.963C197.49,385.963 196.545,384.712 195.783,383.705C195.054,382.74 194.597,382.193 193.686,382.193C192.773,382.193 192.315,382.74 191.586,383.705C190.824,384.712 189.877,385.963 187.982,385.963C186.087,385.963 185.14,384.712 184.378,383.705C183.648,382.74 183.191,382.193 182.278,382.193C181.366,382.193 180.909,382.74 180.179,383.705C179.418,384.712 178.47,385.963 176.576,385.963C174.683,385.963 173.736,384.712 172.975,383.705C172.246,382.74 171.789,382.193 170.877,382.193C169.965,382.193 169.507,382.74 168.778,383.705C168.016,384.712 167.068,385.963 165.175,385.963C163.281,385.963 162.335,384.71 161.574,383.705C160.845,382.74 160.389,382.193 159.478,382.193C158.566,382.193 158.109,382.74 157.38,383.705C156.619,384.712 155.672,385.963 153.778,385.963C151.885,385.963 150.938,384.71 150.179,383.703C149.45,382.738 148.993,382.193 148.084,382.193C147.172,382.193 146.715,382.74 145.986,383.705C145.225,384.712 144.278,385.963 142.384,385.963C140.491,385.963 139.546,384.71 138.785,383.705C138.056,382.738 137.6,382.193 136.691,382.193C135.781,382.193 135.325,382.738 134.597,383.705C133.838,384.71 132.892,385.963 131.001,385.963C129.108,385.963 128.161,384.71 127.401,383.705C126.672,382.74 126.216,382.193 125.306,382.193C124.395,382.193 123.937,382.74 123.209,383.705C122.447,384.712 121.502,385.963 119.607,385.963C117.713,385.963 116.768,384.71 116.006,383.705C115.277,382.738 114.821,382.193 113.91,382.193C112.998,382.193 112.541,382.74 111.812,383.705C111.051,384.712 110.104,385.963 108.211,385.963C106.318,385.963 105.37,384.71 104.611,383.705C103.882,382.74 103.425,382.193 102.514,382.193C101.602,382.193 101.145,382.74 100.416,383.705C99.655,384.712 98.707,385.963 96.814,385.963C94.921,385.963 93.975,384.71 93.215,383.705C92.486,382.74 92.029,382.193 91.118,382.193C90.207,382.193 89.751,382.74 89.022,383.705C88.262,384.712 87.315,385.963 85.422,385.963C83.528,385.963 82.583,384.712 81.821,383.705C81.092,382.74 80.635,382.193 79.724,382.193C78.813,382.193 78.356,382.74 77.627,383.705C76.867,384.71 75.92,385.963 74.027,385.963C72.134,385.963 71.188,384.71 70.428,383.705C69.699,382.74 69.243,382.193 68.333,382.193C67.423,382.193 66.966,382.74 66.237,383.705C65.477,384.71 64.531,385.963 62.638,385.963C60.744,385.963 59.797,384.71 59.036,383.705C58.307,382.74 57.849,382.193 56.939,382.193C56.028,382.193 55.571,382.74 54.842,383.705C54.082,384.712 53.136,385.963 51.243,385.963C49.351,385.963 48.405,384.71 47.645,383.705C46.916,382.738 46.459,382.193 45.55,382.193C44.641,382.193 44.184,382.738 43.455,383.705C42.695,384.71 41.749,385.963 39.857,385.963C37.964,385.963 37.017,384.71 36.257,383.705C35.528,382.738 35.071,382.193 34.161,382.193C33.25,382.193 32.793,382.74 32.064,383.705C31.303,384.712 30.357,385.963 28.464,385.963C26.572,385.963 25.626,384.71 24.866,383.705C24.137,382.738 23.68,382.193 22.771,382.193C21.862,382.193 21.405,382.738 20.677,383.703C19.918,384.71 18.972,385.963 17.08,385.963C15.188,385.963 14.241,384.71 13.482,383.703C12.755,382.738 12.298,382.193 11.389,382.193C10.479,382.193 10.023,382.738 9.294,383.705C8.534,384.71 7.588,385.963 5.696,385.963C3.803,385.963 2.857,384.712 2.096,383.705C1.367,382.74 0.911,382.193 0,382.193L0,380.309C1.893,380.309 2.84,381.562 3.6,382.567C4.329,383.533 4.786,384.078 5.696,384.078C6.605,384.078 7.061,383.533 7.79,382.567C8.551,381.562 9.497,380.309 11.389,380.309C13.281,380.309 14.227,381.562 14.986,382.569C15.714,383.534 16.171,384.078 17.08,384.078C17.989,384.078 18.446,383.534 19.174,382.569C19.933,381.562 20.879,380.309 22.771,380.309C24.663,380.309 25.609,381.562 26.369,382.567C27.098,383.533 27.555,384.078 28.464,384.078C29.375,384.078 29.832,383.533 30.56,382.567C31.321,381.562 32.268,380.309 34.161,380.309C36.055,380.309 37,381.56 37.761,382.567C38.489,383.531 38.946,384.078 39.857,384.078C40.766,384.078 41.223,383.533 41.952,382.567C42.712,381.562 43.658,380.309 45.55,380.309C47.442,380.309 48.388,381.562 49.148,382.567C49.877,383.533 50.334,384.078 51.243,384.078C52.153,384.078 52.61,383.533 53.338,382.567C54.099,381.562 55.046,380.309 56.939,380.309C58.831,380.309 59.778,381.56 60.54,382.567C61.269,383.531 61.726,384.078 62.638,384.078C63.548,384.078 64.004,383.531 64.734,382.567C65.493,381.562 66.44,380.309 68.333,380.309C70.226,380.309 71.172,381.562 71.932,382.567C72.661,383.531 73.117,384.078 74.027,384.078C74.939,384.078 75.395,383.531 76.124,382.567C76.884,381.562 77.831,380.309 79.724,380.309C81.618,380.309 82.564,381.56 83.325,382.567C84.054,383.531 84.511,384.078 85.422,384.078C86.333,384.078 86.789,383.533 87.518,382.567C88.278,381.562 89.225,380.309 91.118,380.309C93.011,380.309 93.958,381.562 94.718,382.567C95.447,383.531 95.904,384.078 96.814,384.078C97.726,384.078 98.183,383.531 98.912,382.567C99.673,381.562 100.62,380.309 102.514,380.309C104.407,380.309 105.354,381.562 106.114,382.567C106.843,383.531 107.299,384.078 108.211,384.078C109.122,384.078 109.579,383.531 110.308,382.567C111.069,381.562 112.016,380.309 113.91,380.309C115.803,380.309 116.749,381.56 117.51,382.567C118.239,383.531 118.697,384.078 119.607,384.078C120.518,384.078 120.976,383.531 121.705,382.567C122.466,381.56 123.412,380.309 125.306,380.309C127.199,380.309 128.145,381.562 128.905,382.567C129.634,383.531 130.09,384.078 131.001,384.078C131.909,384.078 132.366,383.534 133.093,382.569C133.852,381.562 134.799,380.309 136.691,380.309C138.583,380.309 139.529,381.562 140.289,382.567C141.018,383.533 141.475,384.078 142.384,384.078C143.296,384.078 143.752,383.531 144.482,382.567C145.243,381.56 146.19,380.309 148.084,380.309C149.976,380.309 150.922,381.56 151.682,382.567C152.411,383.531 152.867,384.078 153.778,384.078C154.69,384.078 155.147,383.531 155.876,382.567C156.637,381.56 157.584,380.309 159.478,380.309C161.371,380.309 162.318,381.562 163.078,382.567C163.807,383.531 164.263,384.078 165.175,384.078C166.087,384.078 166.544,383.531 167.274,382.567C168.035,381.56 168.983,380.309 170.877,380.309C172.771,380.309 173.718,381.562 174.479,382.567C175.207,383.531 175.665,384.078 176.576,384.078C177.488,384.078 177.946,383.531 178.675,382.567C179.436,381.56 180.384,380.309 182.278,380.309C184.173,380.309 185.12,381.56 185.882,382.567C186.612,383.531 187.069,384.078 187.982,384.078C188.895,384.078 189.353,383.531 190.082,382.567C190.844,381.56 191.791,380.309 193.686,380.309C195.58,380.309 196.526,381.56 197.287,382.567C198.016,383.531 198.473,384.078 199.384,384.078C200.297,384.078 200.755,383.531 201.484,382.567C202.246,381.56 203.194,380.309 205.089,380.309C206.983,380.309 207.93,381.56 208.692,382.567C209.422,383.531 209.879,384.078 210.793,384.078C211.706,384.078 212.165,383.531 212.894,382.567C213.656,381.56 214.604,380.309 216.499,380.309C218.397,380.309 219.346,381.56 220.109,382.567C220.84,383.531 221.3,384.078 222.215,384.078C223.131,384.078 223.59,383.531 224.322,382.567C225.084,381.56 226.033,380.309 227.931,380.309L227.931,382.193C227.014,382.193 226.555,382.74 225.823,383.705C225.06,384.712 224.112,385.963 222.215,385.963Z" style="fill:rgb(40,184,206);fill-rule:nonzero;"/>
            </g>
        </g>
        <g transform="matrix(1.13636,0,0,1.0101,2815,0)">
            <g transform="matrix(0.785714,0,0,0.883929,0,10.2863)">
                <path d="M222.282,385.963C220.385,385.963 219.436,384.712 218.673,383.705C217.941,382.74 217.482,382.193 216.565,382.193C215.652,382.193 215.193,382.74 214.463,383.705C213.701,384.712 212.753,385.963 210.857,385.963C208.962,385.963 208.013,384.712 207.252,383.705C206.522,382.74 206.064,382.193 205.151,382.193C204.237,382.193 203.78,382.74 203.05,383.705C202.288,384.712 201.341,385.963 199.445,385.963C197.55,385.963 196.604,384.712 195.843,383.705C195.114,382.74 194.656,382.193 193.745,382.193C192.832,382.193 192.374,382.74 191.644,383.705C190.882,384.712 189.935,385.963 188.039,385.963C186.144,385.963 185.197,384.712 184.434,383.705C183.704,382.74 183.246,382.193 182.333,382.193C181.421,382.193 180.963,382.74 180.233,383.705C179.472,384.712 178.524,385.963 176.63,385.963C174.736,385.963 173.789,384.712 173.027,383.705C172.299,382.74 171.841,382.193 170.929,382.193C170.016,382.193 169.559,382.74 168.829,383.705C168.067,384.712 167.119,385.963 165.225,385.963C163.331,385.963 162.384,384.71 161.623,383.705C160.894,382.74 160.438,382.193 159.526,382.193C158.614,382.193 158.157,382.74 157.427,383.705C156.666,384.712 155.719,385.963 153.825,385.963C151.931,385.963 150.984,384.71 150.224,383.703C149.495,382.738 149.038,382.193 148.129,382.193C147.217,382.193 146.76,382.74 146.03,383.705C145.269,384.712 144.321,385.963 142.427,385.963C140.534,385.963 139.588,384.71 138.827,383.705C138.098,382.738 137.642,382.193 136.732,382.193C135.823,382.193 135.366,382.738 134.638,383.705C133.879,384.71 132.932,385.963 131.04,385.963C129.147,385.963 128.2,384.71 127.44,383.705C126.711,382.74 126.254,382.193 125.344,382.193C124.432,382.193 123.975,382.74 123.246,383.705C122.485,384.712 121.538,385.963 119.644,385.963C117.749,385.963 116.803,384.71 116.042,383.705C115.312,382.738 114.856,382.193 113.945,382.193C113.032,382.193 112.575,382.74 111.846,383.705C111.085,384.712 110.137,385.963 108.244,385.963C106.35,385.963 105.402,384.71 104.642,383.705C103.913,382.74 103.456,382.193 102.545,382.193C101.633,382.193 101.175,382.74 100.446,383.705C99.685,384.712 98.737,385.963 96.844,385.963C94.95,385.963 94.003,384.71 93.243,383.705C92.514,382.74 92.057,382.193 91.146,382.193C90.235,382.193 89.778,382.74 89.049,383.705C88.288,384.712 87.342,385.963 85.448,385.963C83.554,385.963 82.608,384.712 81.846,383.705C81.117,382.74 80.659,382.193 79.748,382.193C78.837,382.193 78.38,382.74 77.651,383.705C76.891,384.71 75.943,385.963 74.05,385.963C72.156,385.963 71.21,384.71 70.449,383.705C69.721,382.74 69.264,382.193 68.354,382.193C67.443,382.193 66.986,382.74 66.257,383.705C65.497,384.71 64.55,385.963 62.657,385.963C60.762,385.963 59.815,384.71 59.054,383.705C58.325,382.74 57.867,382.193 56.956,382.193C56.045,382.193 55.588,382.74 54.859,383.705C54.098,384.712 53.152,385.963 51.259,385.963C49.366,385.963 48.419,384.71 47.659,383.705C46.93,382.738 46.473,382.193 45.564,382.193C44.654,382.193 44.198,382.738 43.468,383.705C42.708,384.71 41.762,385.963 39.869,385.963C37.976,385.963 37.028,384.71 36.268,383.705C35.539,382.738 35.082,382.193 34.172,382.193C33.26,382.193 32.803,382.74 32.074,383.705C31.313,384.712 30.366,385.963 28.472,385.963C26.58,385.963 25.633,384.71 24.873,383.705C24.144,382.738 23.687,382.193 22.778,382.193C21.869,382.193 21.412,382.738 20.683,383.703C19.924,384.71 18.978,385.963 17.085,385.963C15.192,385.963 14.246,384.71 13.486,383.703C12.758,382.738 12.302,382.193 11.392,382.193C10.483,382.193 10.026,382.738 9.297,383.705C8.536,384.71 7.59,385.963 5.697,385.963C3.804,385.963 2.858,384.712 2.097,383.705C1.368,382.74 0.911,382.193 0,382.193L0,380.309C1.894,380.309 2.841,381.562 3.601,382.567C4.33,383.533 4.787,384.078 5.697,384.078C6.607,384.078 7.064,383.533 7.793,382.567C8.553,381.562 9.499,380.309 11.392,380.309C13.285,380.309 14.231,381.562 14.991,382.569C15.719,383.534 16.176,384.078 17.085,384.078C17.995,384.078 18.451,383.534 19.18,382.569C19.939,381.562 20.885,380.309 22.778,380.309C24.671,380.309 25.617,381.562 26.378,382.567C27.106,383.533 27.563,384.078 28.472,384.078C29.384,384.078 29.841,383.533 30.569,382.567C31.331,381.562 32.277,380.309 34.172,380.309C36.066,380.309 37.012,381.56 37.772,382.567C38.501,383.531 38.958,384.078 39.869,384.078C40.779,384.078 41.235,383.533 41.965,382.567C42.725,381.562 43.671,380.309 45.564,380.309C47.457,380.309 48.403,381.562 49.163,382.567C49.892,383.533 50.349,384.078 51.259,384.078C52.169,384.078 52.626,383.533 53.354,382.567C54.115,381.562 55.062,380.309 56.956,380.309C58.849,380.309 59.797,381.56 60.558,382.567C61.287,383.531 61.745,384.078 62.657,384.078C63.567,384.078 64.024,383.531 64.753,382.567C65.513,381.562 66.46,380.309 68.354,380.309C70.247,380.309 71.193,381.562 71.954,382.567C72.683,383.531 73.14,384.078 74.05,384.078C74.961,384.078 75.418,383.531 76.147,382.567C76.907,381.562 77.854,380.309 79.748,380.309C81.643,380.309 82.589,381.56 83.35,382.567C84.08,383.531 84.537,384.078 85.448,384.078C86.359,384.078 86.815,383.533 87.544,382.567C88.305,381.562 89.252,380.309 91.146,380.309C93.039,380.309 93.987,381.562 94.747,382.567C95.476,383.531 95.933,384.078 96.844,384.078C97.756,384.078 98.213,383.531 98.942,382.567C99.703,381.562 100.65,380.309 102.545,380.309C104.439,380.309 105.386,381.562 106.147,382.567C106.875,383.531 107.332,384.078 108.244,384.078C109.155,384.078 109.613,383.531 110.341,382.567C111.103,381.562 112.05,380.309 113.945,380.309C115.838,380.309 116.784,381.56 117.546,382.567C118.275,383.531 118.733,384.078 119.644,384.078C120.555,384.078 121.013,383.531 121.742,382.567C122.503,381.56 123.449,380.309 125.344,380.309C127.238,380.309 128.184,381.562 128.944,382.567C129.673,383.531 130.13,384.078 131.04,384.078C131.949,384.078 132.406,383.534 133.134,382.569C133.893,381.562 134.84,380.309 136.732,380.309C138.625,380.309 139.571,381.562 140.332,382.567C141.061,383.533 141.518,384.078 142.427,384.078C143.339,384.078 143.796,383.531 144.526,382.567C145.287,381.56 146.234,380.309 148.129,380.309C150.022,380.309 150.968,381.56 151.728,382.567C152.457,383.531 152.914,384.078 153.825,384.078C154.737,384.078 155.194,383.531 155.923,382.567C156.685,381.56 157.632,380.309 159.526,380.309C161.42,380.309 162.368,381.562 163.128,382.567C163.857,383.531 164.313,384.078 165.225,384.078C166.137,384.078 166.595,383.531 167.325,382.567C168.086,381.56 169.034,380.309 170.929,380.309C172.823,380.309 173.771,381.562 174.532,382.567C175.261,383.531 175.718,384.078 176.63,384.078C177.542,384.078 178,383.531 178.73,382.567C179.491,381.56 180.439,380.309 182.333,380.309C184.229,380.309 185.176,381.56 185.938,382.567C186.668,383.531 187.126,384.078 188.039,384.078C188.953,384.078 189.41,383.531 190.14,382.567C190.902,381.56 191.849,380.309 193.745,380.309C195.64,380.309 196.586,381.56 197.347,382.567C198.076,383.531 198.533,384.078 199.445,384.078C200.358,384.078 200.816,383.531 201.546,382.567C202.308,381.56 203.255,380.309 205.151,380.309C207.046,380.309 207.994,381.56 208.755,382.567C209.485,383.531 209.943,384.078 210.857,384.078C211.771,384.078 212.229,383.531 212.959,382.567C213.721,381.56 214.669,380.309 216.565,380.309C218.463,380.309 219.412,381.56 220.175,382.567C220.907,383.531 221.367,384.078 222.282,384.078C223.198,384.078 223.658,383.531 224.39,382.567C225.153,381.56 226.102,380.309 228,380.309L228,382.193C227.083,382.193 226.624,382.74 225.892,383.705C225.129,384.712 224.18,385.963 222.282,385.963Z" style="fill:rgb(40,184,206);fill-rule:nonzero;"/>
            </g>
        </g>
        <g transform="matrix(1.13636,0,0,1.0101,2815,0)">
            <g transform="matrix(0.785714,0,0,0.883929,0,10.2863)">
                <path d="M450.282,385.963C448.385,385.963 447.436,384.712 446.673,383.705C445.941,382.74 445.482,382.193 444.565,382.193C443.652,382.193 443.193,382.74 442.463,383.705C441.701,384.712 440.753,385.963 438.857,385.963C436.962,385.963 436.013,384.712 435.252,383.705C434.522,382.74 434.064,382.193 433.151,382.193C432.237,382.193 431.78,382.74 431.05,383.705C430.288,384.712 429.341,385.963 427.445,385.963C425.55,385.963 424.604,384.712 423.843,383.705C423.114,382.74 422.656,382.193 421.745,382.193C420.832,382.193 420.374,382.74 419.644,383.705C418.882,384.712 417.935,385.963 416.039,385.963C414.144,385.963 413.197,384.712 412.434,383.705C411.704,382.74 411.246,382.193 410.333,382.193C409.421,382.193 408.963,382.74 408.233,383.705C407.472,384.712 406.524,385.963 404.63,385.963C402.736,385.963 401.789,384.712 401.027,383.705C400.299,382.74 399.841,382.193 398.929,382.193C398.016,382.193 397.559,382.74 396.829,383.705C396.067,384.712 395.119,385.963 393.225,385.963C391.331,385.963 390.384,384.71 389.623,383.705C388.894,382.74 388.438,382.193 387.526,382.193C386.614,382.193 386.157,382.74 385.427,383.705C384.666,384.712 383.719,385.963 381.825,385.963C379.931,385.963 378.984,384.71 378.224,383.703C377.495,382.738 377.038,382.193 376.129,382.193C375.217,382.193 374.76,382.74 374.03,383.705C373.269,384.712 372.321,385.963 370.427,385.963C368.534,385.963 367.588,384.71 366.827,383.705C366.098,382.738 365.642,382.193 364.732,382.193C363.823,382.193 363.366,382.738 362.638,383.705C361.879,384.71 360.932,385.963 359.04,385.963C357.147,385.963 356.2,384.71 355.44,383.705C354.711,382.74 354.254,382.193 353.344,382.193C352.432,382.193 351.975,382.74 351.246,383.705C350.485,384.712 349.538,385.963 347.644,385.963C345.749,385.963 344.803,384.71 344.042,383.705C343.312,382.738 342.856,382.193 341.945,382.193C341.032,382.193 340.575,382.74 339.846,383.705C339.085,384.712 338.137,385.963 336.244,385.963C334.35,385.963 333.402,384.71 332.642,383.705C331.913,382.74 331.456,382.193 330.545,382.193C329.633,382.193 329.175,382.74 328.446,383.705C327.685,384.712 326.737,385.963 324.844,385.963C322.95,385.963 322.003,384.71 321.243,383.705C320.514,382.74 320.057,382.193 319.146,382.193C318.235,382.193 317.778,382.74 317.049,383.705C316.288,384.712 315.342,385.963 313.448,385.963C311.554,385.963 310.608,384.712 309.846,383.705C309.117,382.74 308.659,382.193 307.748,382.193C306.837,382.193 306.38,382.74 305.651,383.705C304.891,384.71 303.943,385.963 302.05,385.963C300.156,385.963 299.21,384.71 298.449,383.705C297.721,382.74 297.264,382.193 296.354,382.193C295.443,382.193 294.986,382.74 294.257,383.705C293.497,384.71 292.55,385.963 290.657,385.963C288.762,385.963 287.815,384.71 287.054,383.705C286.325,382.74 285.867,382.193 284.956,382.193C284.045,382.193 283.588,382.74 282.859,383.705C282.098,384.712 281.152,385.963 279.259,385.963C277.366,385.963 276.419,384.71 275.659,383.705C274.93,382.738 274.473,382.193 273.564,382.193C272.654,382.193 272.198,382.738 271.468,383.705C270.708,384.71 269.762,385.963 267.869,385.963C265.976,385.963 265.028,384.71 264.268,383.705C263.539,382.738 263.082,382.193 262.172,382.193C261.26,382.193 260.803,382.74 260.074,383.705C259.313,384.712 258.366,385.963 256.472,385.963C254.58,385.963 253.633,384.71 252.873,383.705C252.144,382.738 251.687,382.193 250.778,382.193C249.869,382.193 249.412,382.738 248.683,383.703C247.924,384.71 246.978,385.963 245.085,385.963C243.192,385.963 242.246,384.71 241.486,383.703C240.758,382.738 240.302,382.193 239.392,382.193C238.482,382.193 238.026,382.738 237.297,383.705C236.536,384.71 235.59,385.963 233.697,385.963C231.804,385.963 230.858,384.712 230.097,383.705C229.368,382.74 228.911,382.193 228,382.193L228,380.309C229.894,380.309 230.841,381.562 231.601,382.567C232.33,383.533 232.787,384.078 233.697,384.078C234.607,384.078 235.064,383.533 235.793,382.567C236.553,381.562 237.499,380.309 239.392,380.309C241.285,380.309 242.231,381.562 242.991,382.569C243.719,383.534 244.176,384.078 245.085,384.078C245.994,384.078 246.451,383.534 247.18,382.569C247.939,381.562 248.885,380.309 250.778,380.309C252.671,380.309 253.617,381.562 254.377,382.567C255.106,383.533 255.563,384.078 256.472,384.078C257.384,384.078 257.841,383.533 258.569,382.567C259.331,381.562 260.277,380.309 262.172,380.309C264.065,380.309 265.012,381.56 265.772,382.567C266.501,383.531 266.958,384.078 267.869,384.078C268.779,384.078 269.235,383.533 269.965,382.567C270.725,381.562 271.671,380.309 273.564,380.309C275.456,380.309 276.403,381.562 277.163,382.567C277.892,383.533 278.349,384.078 279.259,384.078C280.169,384.078 280.626,383.533 281.354,382.567C282.115,381.562 283.062,380.309 284.956,380.309C286.849,380.309 287.797,381.56 288.558,382.567C289.287,383.531 289.745,384.078 290.657,384.078C291.567,384.078 292.024,383.531 292.753,382.567C293.513,381.562 294.46,380.309 296.354,380.309C298.247,380.309 299.193,381.562 299.954,382.567C300.683,383.531 301.14,384.078 302.05,384.078C302.961,384.078 303.418,383.531 304.147,382.567C304.907,381.562 305.854,380.309 307.748,380.309C309.643,380.309 310.589,381.56 311.35,382.567C312.08,383.531 312.537,384.078 313.448,384.078C314.359,384.078 314.815,383.533 315.544,382.567C316.305,381.562 317.252,380.309 319.146,380.309C321.039,380.309 321.987,381.562 322.747,382.567C323.476,383.531 323.933,384.078 324.844,384.078C325.756,384.078 326.213,383.531 326.942,382.567C327.703,381.562 328.65,380.309 330.545,380.309C332.439,380.309 333.386,381.562 334.147,382.567C334.875,383.531 335.332,384.078 336.244,384.078C337.155,384.078 337.613,383.531 338.341,382.567C339.103,381.562 340.05,380.309 341.945,380.309C343.838,380.309 344.784,381.56 345.546,382.567C346.275,383.531 346.733,384.078 347.644,384.078C348.555,384.078 349.013,383.531 349.742,382.567C350.503,381.56 351.449,380.309 353.344,380.309C355.238,380.309 356.184,381.562 356.944,382.567C357.673,383.531 358.13,384.078 359.04,384.078C359.949,384.078 360.406,383.534 361.134,382.569C361.893,381.562 362.84,380.309 364.732,380.309C366.625,380.309 367.571,381.562 368.332,382.567C369.061,383.533 369.518,384.078 370.427,384.078C371.339,384.078 371.796,383.531 372.526,382.567C373.287,381.56 374.234,380.309 376.129,380.309C378.022,380.309 378.968,381.56 379.728,382.567C380.457,383.531 380.914,384.078 381.825,384.078C382.737,384.078 383.194,383.531 383.923,382.567C384.685,381.56 385.632,380.309 387.526,380.309C389.42,380.309 390.368,381.562 391.128,382.567C391.857,383.531 392.313,384.078 393.225,384.078C394.137,384.078 394.595,383.531 395.325,382.567C396.086,381.56 397.034,380.309 398.929,380.309C400.823,380.309 401.771,381.562 402.532,382.567C403.261,383.531 403.718,384.078 404.63,384.078C405.542,384.078 406,383.531 406.73,382.567C407.491,381.56 408.439,380.309 410.333,380.309C412.229,380.309 413.176,381.56 413.938,382.567C414.668,383.531 415.126,384.078 416.039,384.078C416.953,384.078 417.41,383.531 418.14,382.567C418.902,381.56 419.849,380.309 421.745,380.309C423.64,380.309 424.586,381.56 425.347,382.567C426.076,383.531 426.533,384.078 427.445,384.078C428.358,384.078 428.816,383.531 429.546,382.567C430.308,381.56 431.255,380.309 433.151,380.309C435.046,380.309 435.994,381.56 436.755,382.567C437.485,383.531 437.943,384.078 438.857,384.078C439.771,384.078 440.229,383.531 440.959,382.567C441.721,381.56 442.669,380.309 444.565,380.309C446.463,380.309 447.412,381.56 448.175,382.567C448.907,383.531 449.367,384.078 450.282,384.078C451.198,384.078 451.658,383.531 452.39,382.567C453.153,381.56 454.102,380.309 456,380.309L456,382.193C455.083,382.193 454.624,382.74 453.892,383.705C453.129,384.712 452.18,385.963 450.282,385.963Z" style="fill:rgb(40,184,206);fill-rule:nonzero;"/>
            </g>
        </g>
    </g>
</svg>
