<svg width="106" height="35" viewBox="0 0 106 35" fill="none" xmlns="http://www.w3.org/2000/svg">
<path d="M72.0655 34.2031C71.7363 34.4282 71.3902 34.6057 71.0275 34.7356C70.6647 34.8655 70.2745 34.9304 69.8569 34.9304C69.4972 34.9304 69.1557 34.89 68.8326 34.8092C68.5095 34.7255 68.2107 34.6086 67.9364 34.4585C67.662 34.3084 67.4151 34.128 67.1956 33.9173C66.9761 33.7066 66.7887 33.4743 66.6332 33.2203C66.4808 32.9634 66.3634 32.6878 66.2811 32.3934C66.1988 32.099 66.1576 31.7945 66.1576 31.4799C66.1576 31.1652 66.1988 30.8607 66.2811 30.5663C66.3664 30.2719 66.4868 29.9977 66.6423 29.7438C66.7978 29.4869 66.9853 29.2531 67.2048 29.0424C67.4273 28.8317 67.6757 28.6513 67.9501 28.5012C68.2244 28.3511 68.5201 28.2357 68.8372 28.1549C69.1573 28.0711 69.4941 28.0293 69.8477 28.0293C70.2806 28.0293 70.683 28.0942 71.0549 28.2241C71.4268 28.3511 71.7637 28.5373 72.0655 28.7826V29.6095H72.0472C71.9192 29.471 71.7713 29.344 71.6037 29.2286C71.436 29.1131 71.2561 29.015 71.0641 28.9342C70.872 28.8504 70.6724 28.7855 70.4651 28.7393C70.2608 28.6931 70.0551 28.6701 69.8478 28.6701C69.4271 28.6701 69.0353 28.7422 68.6726 28.8865C68.3129 29.028 68.0004 29.2242 67.7352 29.4753C67.473 29.7264 67.2673 30.0237 67.1179 30.3672C66.9685 30.7107 66.8938 31.0815 66.8938 31.4799C66.8938 31.7367 66.9289 31.985 66.999 32.2245C67.0691 32.4612 67.1682 32.6849 67.2962 32.8956C67.4243 33.1034 67.5782 33.2924 67.758 33.4627C67.941 33.633 68.1422 33.7802 68.3616 33.9043C68.5811 34.0256 68.8174 34.1208 69.0704 34.1901C69.3265 34.2565 69.5917 34.2896 69.8661 34.2896C70.0551 34.2896 70.2517 34.268 70.4559 34.2247C70.6602 34.1814 70.8598 34.1208 71.0549 34.0429C71.25 33.9649 71.4329 33.8711 71.6037 33.7615C71.7744 33.6489 71.9222 33.5233 72.0472 33.3848H72.0655V34.2031Z" fill="#CCCCCC"/>
<path d="M74.4908 34.8216V28.137H75.2088V34.2111H77.4676V34.8216H74.4908Z" fill="#CCCCCC"/>
<path d="M86.2924 31.4796C86.2924 31.7942 86.2497 32.0987 86.1643 32.3931C86.079 32.6875 85.957 32.9632 85.7985 33.22C85.6431 33.474 85.4541 33.7064 85.2315 33.9171C85.012 34.1278 84.7651 34.3082 84.4908 34.4583C84.2194 34.6083 83.9253 34.7252 83.6082 34.8089C83.2942 34.8898 82.9635 34.9302 82.616 34.9302C82.2624 34.9302 81.9255 34.8898 81.6054 34.8089C81.2853 34.7252 80.9881 34.6083 80.7138 34.4583C80.4424 34.3082 80.1955 34.1278 79.973 33.9171C79.7504 33.7064 79.5614 33.474 79.406 33.22C79.2505 32.9632 79.1301 32.6875 79.0447 32.3931C78.9594 32.0987 78.9167 31.7942 78.9167 31.4796C78.9167 31.165 78.9594 30.8605 79.0447 30.5661C79.1301 30.2717 79.2505 29.9975 79.406 29.7435C79.5645 29.4866 79.755 29.2528 79.9775 29.0421C80.2001 28.8314 80.447 28.651 80.7183 28.501C80.9927 28.3509 81.2884 28.2354 81.6054 28.1546C81.9255 28.0709 82.2593 28.0291 82.6068 28.0291C82.9543 28.0291 83.2851 28.0709 83.5991 28.1546C83.9161 28.2354 84.2103 28.3509 84.4816 28.501C84.756 28.651 85.0044 28.8314 85.2269 29.0421C85.4495 29.2528 85.64 29.4866 85.7985 29.7435C85.957 29.9975 86.079 30.2717 86.1643 30.5661C86.2497 30.8576 86.2924 31.1621 86.2924 31.4796ZM85.5653 31.4796C85.5653 31.0928 85.4876 30.7292 85.3321 30.3886C85.1766 30.0451 84.9648 29.7449 84.6965 29.4881C84.4283 29.2312 84.1143 29.0277 83.7545 28.8776C83.3979 28.7275 83.0153 28.6525 82.6068 28.6525C82.1861 28.6525 81.7944 28.7246 81.4316 28.869C81.0719 29.0133 80.7595 29.2124 80.4943 29.4664C80.2321 29.7204 80.0263 30.0206 79.877 30.3669C79.7276 30.7104 79.6529 31.0813 79.6529 31.4796C79.6529 31.7365 79.688 31.9847 79.7581 32.2243C79.8282 32.4638 79.9272 32.689 80.0553 32.8997C80.1833 33.1075 80.3373 33.298 80.5171 33.4711C80.697 33.6443 80.8967 33.793 81.1161 33.9171C81.3356 34.0412 81.5719 34.1379 81.8249 34.2071C82.0779 34.2735 82.3416 34.3067 82.616 34.3067C83.0336 34.3067 83.4223 34.236 83.782 34.0946C84.1417 33.9503 84.4526 33.7526 84.7148 33.5015C84.98 33.2503 85.1873 32.9531 85.3367 32.6096C85.4891 32.2632 85.5653 31.8866 85.5653 31.4796Z" fill="#CCCCCC"/>
<path d="M90.7114 34.9991H90.4873L87.6111 28.137H88.4068L90.6154 33.5704H90.6382L92.856 28.137H93.6242L90.7114 34.9991Z" fill="#CCCCCC"/>
<path d="M95.5763 34.8216V28.137H99.0697V28.7474H96.2942V30.9901H98.992V31.5832H96.2942V34.2111H99.0697V34.8216H95.5763Z" fill="#CCCCCC"/>
<path d="M104.733 34.8216L102.51 31.7694H102.323V34.8216H101.605V28.137H102.913C103.312 28.137 103.656 28.1788 103.946 28.2625C104.239 28.3462 104.48 28.466 104.669 28.6219C104.858 28.7777 104.998 28.9697 105.089 29.1977C105.181 29.4228 105.226 29.6782 105.226 29.964C105.226 30.2151 105.184 30.4445 105.098 30.6524C105.016 30.8602 104.893 31.0406 104.728 31.1935C104.566 31.3436 104.365 31.4663 104.124 31.5615C103.884 31.6539 103.605 31.7116 103.288 31.7347L105.565 34.8216H104.733ZM104.49 29.99C104.49 29.7821 104.457 29.6003 104.39 29.4445C104.326 29.2857 104.222 29.1529 104.079 29.0461C103.935 28.9394 103.751 28.8585 103.525 28.8037C103.303 28.7489 103.033 28.7214 102.716 28.7214H102.323V31.2325H102.903C103.163 31.2325 103.39 31.2036 103.585 31.1459C103.783 31.0882 103.949 31.0059 104.083 30.8991C104.217 30.7923 104.318 30.6625 104.385 30.5095C104.455 30.3565 104.49 30.1833 104.49 29.99Z" fill="#CCCCCC"/>
<path d="M3.01166 28.0298C3.42836 28.0298 3.7693 28.0929 4.03448 28.2192C4.30597 28.3392 4.54589 28.4812 4.75424 28.6454C4.88052 28.7401 4.97523 28.7527 5.03837 28.6833C5.10782 28.6075 5.15517 28.4339 5.18042 28.1624H5.39825C5.38562 28.396 5.37615 28.6801 5.36983 29.0147C5.36352 29.3494 5.36037 29.7913 5.36037 30.3406H5.14255C5.09835 30.0691 5.0573 29.8545 5.01942 29.6966C4.98154 29.5325 4.93419 29.3936 4.87737 29.2799C4.82686 29.1663 4.75741 29.0526 4.66902 28.939C4.47329 28.6801 4.22706 28.4938 3.93031 28.3802C3.63357 28.2602 3.32103 28.2003 2.99272 28.2003C2.68334 28.2003 2.40238 28.2792 2.14983 28.437C1.90359 28.5885 1.68893 28.8095 1.50583 29.1C1.32905 29.3904 1.19015 29.7408 1.08913 30.1512C0.994425 30.5616 0.947073 31.0225 0.947073 31.5339C0.947073 32.0643 1.00073 32.5346 1.10806 32.945C1.2154 33.3491 1.36378 33.69 1.55319 33.9679C1.74892 34.2457 1.9762 34.4572 2.23506 34.6024C2.50024 34.7413 2.78437 34.8107 3.08743 34.8107C3.37154 34.8107 3.66828 34.7539 3.97766 34.6403C4.28703 34.5266 4.53011 34.3435 4.7069 34.091C4.8458 33.9079 4.9405 33.709 4.99101 33.4943C5.04783 33.2797 5.09835 32.9798 5.14255 32.5946H5.36037C5.36037 33.1692 5.36352 33.6332 5.36983 33.9868C5.37615 34.334 5.38562 34.6276 5.39825 34.8676H5.18042C5.15517 34.5961 5.11097 34.4256 5.04783 34.3561C4.99101 34.2867 4.89314 34.2962 4.75424 34.3846C4.52063 34.5487 4.27125 34.6939 4.00607 34.8202C3.74721 34.9402 3.41258 35.0002 3.00218 35.0002C2.40238 35.0002 1.87519 34.8644 1.4206 34.5929C0.972324 34.3214 0.621907 33.93 0.369358 33.4186C0.123123 32.9072 0 32.2916 0 31.5718C0 30.8647 0.12944 30.2459 0.388302 29.7156C0.647167 29.1852 1.00073 28.7717 1.449 28.4749C1.90359 28.1782 2.42448 28.0298 3.01166 28.0298V28.0298Z" fill="#CCCCCC"/>
<path d="M11.3554 34.867V34.6776C11.5701 34.665 11.7311 34.6398 11.8384 34.6019C11.9521 34.564 12.0278 34.4882 12.0657 34.3746C12.1036 34.2609 12.1225 34.0905 12.1225 33.8632V29.1657C12.1225 28.9321 12.1036 28.7617 12.0657 28.6543C12.0278 28.5407 11.9521 28.4649 11.8384 28.427C11.7311 28.3828 11.5701 28.3576 11.3554 28.3513V28.1619C11.5006 28.1682 11.6837 28.1745 11.9047 28.1808C12.1257 28.1871 12.3435 28.1903 12.5582 28.1903C12.8044 28.1903 13.0349 28.1871 13.2495 28.1808C13.4642 28.1745 13.6378 28.1682 13.7704 28.1619V28.3513C13.5557 28.3576 13.3916 28.3829 13.2779 28.427C13.1706 28.4649 13.098 28.5407 13.0601 28.6543C13.0222 28.7617 13.0033 28.9321 13.0033 29.1657V33.8632C13.0033 34.0905 13.0222 34.2609 13.0601 34.3746C13.098 34.4882 13.1706 34.564 13.2779 34.6019C13.3916 34.6398 13.5557 34.665 13.7704 34.6776V34.867C13.6378 34.8544 13.4642 34.8481 13.2495 34.8481C13.0349 34.8418 12.8044 34.8386 12.5582 34.8386C12.3435 34.8386 12.1257 34.8418 11.9047 34.8481C11.6837 34.8481 11.5006 34.8544 11.3554 34.867ZM7.3967 34.867V34.6776C7.61137 34.665 7.77236 34.6398 7.87969 34.6019C7.99334 34.564 8.06911 34.4882 8.10699 34.3746C8.14488 34.2609 8.16382 34.0905 8.16382 33.8632V29.1657C8.16382 28.9321 8.14488 28.7617 8.10699 28.6543C8.06911 28.5407 7.99334 28.4649 7.87969 28.427C7.77236 28.3828 7.61137 28.3576 7.3967 28.3513V28.1619C7.52929 28.1682 7.70291 28.1745 7.91758 28.1808C8.13225 28.1871 8.3627 28.1903 8.60893 28.1903C8.82991 28.1903 9.04774 28.1871 9.2624 28.1808C9.48338 28.1745 9.66648 28.1682 9.8117 28.1619V28.3513C9.59703 28.3576 9.43287 28.3829 9.31923 28.427C9.21189 28.4649 9.13928 28.5407 9.1014 28.6543C9.06352 28.7617 9.04458 28.9321 9.04458 29.1657V33.8632C9.04458 34.0905 9.06352 34.2609 9.1014 34.3746C9.13928 34.4882 9.21189 34.564 9.31923 34.6019C9.43287 34.6398 9.59703 34.665 9.8117 34.6776V34.867C9.66648 34.8544 9.48338 34.8481 9.2624 34.8481C9.04774 34.8418 8.82991 34.8386 8.60893 34.8386C8.3627 34.8386 8.13225 34.8418 7.91758 34.8481C7.70291 34.8481 7.52929 34.8544 7.3967 34.867ZM8.71311 31.5902V31.4008H12.454V31.5902H8.71311Z" fill="#CCCCCC"/>
<path d="M15.5634 28.1619C15.696 28.1682 15.8696 28.1745 16.0843 28.1808C16.299 28.1871 16.5105 28.1903 16.7188 28.1903C17.0156 28.1903 17.2997 28.1871 17.5712 28.1808C17.8427 28.1745 18.0352 28.1713 18.1489 28.1713C18.9129 28.1713 19.4843 28.3292 19.8631 28.6448C20.2419 28.9605 20.4313 29.352 20.4313 29.8192C20.4313 30.0086 20.3934 30.2107 20.3177 30.4253C20.2419 30.64 20.1093 30.842 19.9199 31.0314C19.7368 31.2209 19.4842 31.3787 19.1622 31.505C18.8402 31.6249 18.433 31.6849 17.9405 31.6849H17.0314V31.4955H17.8458C18.2941 31.4955 18.6351 31.426 18.8687 31.2871C19.1086 31.1419 19.2696 30.9525 19.3517 30.7189C19.4401 30.479 19.4842 30.2138 19.4842 29.9234C19.4842 29.4246 19.3643 29.0395 19.1244 28.768C18.8908 28.4902 18.4867 28.3513 17.9121 28.3513C17.6217 28.3513 17.4323 28.4049 17.3439 28.5123C17.2555 28.6196 17.2113 28.8374 17.2113 29.1657V33.8632C17.2113 34.0904 17.2302 34.2609 17.2681 34.3746C17.306 34.4882 17.3786 34.564 17.486 34.6019C17.5996 34.6397 17.7638 34.665 17.9784 34.6776V34.867C17.8332 34.8544 17.6501 34.8481 17.4291 34.8481C17.2145 34.8418 16.9966 34.8386 16.7757 34.8386C16.5294 34.8386 16.299 34.8418 16.0843 34.8481C15.8696 34.8481 15.696 34.8544 15.5634 34.867V34.6776C15.7781 34.665 15.9391 34.6397 16.0464 34.6019C16.1601 34.564 16.2358 34.4882 16.2737 34.3746C16.3116 34.2609 16.3305 34.0904 16.3305 33.8632V29.1657C16.3305 28.9321 16.3116 28.7617 16.2737 28.6543C16.2358 28.5407 16.1601 28.4649 16.0464 28.427C15.9391 28.3828 15.7781 28.3576 15.5634 28.3513V28.1619ZM17.0692 31.5239C17.4102 31.5366 17.6785 31.5523 17.8742 31.5713C18.07 31.5839 18.2278 31.5965 18.3478 31.6092C18.474 31.6218 18.594 31.6376 18.7077 31.6565C19.1307 31.726 19.4337 31.8554 19.6168 32.0448C19.8063 32.2279 19.9452 32.5152 20.0335 32.9066L20.2703 33.8726C20.3334 34.1504 20.3966 34.3525 20.4597 34.4788C20.5292 34.5987 20.6333 34.6555 20.7723 34.6492C20.8796 34.6429 20.968 34.6082 21.0374 34.5451C21.1132 34.4819 21.1921 34.3967 21.2742 34.2893L21.4163 34.3935C21.2837 34.5892 21.1448 34.7408 20.9996 34.8481C20.8606 34.9491 20.6618 34.9996 20.4029 34.9996C20.1693 34.9996 19.9641 34.9302 19.7873 34.7913C19.6105 34.6524 19.4779 34.3809 19.3895 33.9768L19.1812 33.0298C19.1244 32.7583 19.0581 32.5247 18.9823 32.3289C18.9129 32.1269 18.8118 31.969 18.6792 31.8554C18.553 31.7418 18.3636 31.6849 18.111 31.6849H17.0882L17.0692 31.5239Z" fill="#CCCCCC"/>
<path d="M25.1093 28.1619V28.3513C24.8946 28.3576 24.7305 28.3829 24.6168 28.427C24.5095 28.4649 24.4369 28.5407 24.399 28.6543C24.3611 28.7617 24.3422 28.9321 24.3422 29.1657V33.8632C24.3422 34.0905 24.3611 34.2609 24.399 34.3746C24.4369 34.4882 24.5095 34.564 24.6168 34.6019C24.7305 34.6398 24.8946 34.665 25.1093 34.6776V34.867C24.9641 34.8544 24.781 34.8481 24.56 34.8481C24.3453 34.8418 24.1275 34.8386 23.9065 34.8386C23.6603 34.8386 23.4299 34.8418 23.2152 34.8481C23.0005 34.8481 22.8269 34.8544 22.6943 34.867V34.6776C22.909 34.665 23.07 34.6398 23.1773 34.6019C23.2909 34.564 23.3667 34.4882 23.4046 34.3746C23.4425 34.2609 23.4614 34.0905 23.4614 33.8632V29.1657C23.4614 28.9321 23.4425 28.7617 23.4046 28.6543C23.3667 28.5407 23.2909 28.4649 23.1773 28.427C23.07 28.3828 22.909 28.3576 22.6943 28.3513V28.1619C22.8269 28.1682 23.0005 28.1745 23.2152 28.1808C23.4299 28.1871 23.6603 28.1903 23.9065 28.1903C24.1275 28.1903 24.3453 28.1871 24.56 28.1808C24.781 28.1745 24.9641 28.1682 25.1093 28.1619Z" fill="#CCCCCC"/>
<path d="M28.9293 28.0576C29.245 28.0576 29.485 28.0955 29.6491 28.1713C29.8133 28.2407 29.9585 28.3196 30.0848 28.408C30.1605 28.4522 30.2205 28.487 30.2647 28.5122C30.3152 28.5312 30.3626 28.5406 30.4067 28.5406C30.5078 28.5406 30.5772 28.4017 30.6151 28.1239H30.8329C30.8266 28.2313 30.8171 28.3607 30.8045 28.5122C30.7982 28.6574 30.7919 28.8532 30.7856 29.0994C30.7856 29.3393 30.7856 29.6582 30.7856 30.0559H30.5677C30.5488 29.7529 30.4825 29.4624 30.3689 29.1846C30.2552 28.9068 30.0879 28.6795 29.8669 28.5027C29.6522 28.326 29.3681 28.2376 29.0146 28.2376C28.6799 28.2376 28.4021 28.3386 28.1812 28.5406C27.9665 28.7427 27.8592 29.0078 27.8592 29.3362C27.8592 29.6203 27.9318 29.8602 28.077 30.0559C28.2222 30.2453 28.4148 30.419 28.6547 30.5768C28.9009 30.7283 29.1661 30.8925 29.4502 31.0693C29.7785 31.2713 30.069 31.4734 30.3215 31.6754C30.5804 31.8711 30.7824 32.089 30.9276 32.3289C31.0791 32.5688 31.1549 32.8592 31.1549 33.2002C31.1549 33.6042 31.0634 33.9389 30.8803 34.2041C30.6972 34.4692 30.4541 34.6681 30.151 34.8007C29.848 34.9333 29.5133 34.9996 29.1471 34.9996C28.8125 34.9996 28.5473 34.9617 28.3516 34.8859C28.1559 34.8102 27.9886 34.7312 27.8497 34.6492C27.7108 34.5608 27.6034 34.5166 27.5277 34.5166C27.4267 34.5166 27.3572 34.6555 27.3193 34.9333H27.1015C27.1141 34.8007 27.1204 34.646 27.1204 34.4692C27.1267 34.2861 27.1299 34.0494 27.1299 33.7589C27.1362 33.4685 27.1394 33.1023 27.1394 32.6603H27.3572C27.3825 33.0392 27.4519 33.3927 27.5656 33.7211C27.6855 34.0494 27.8655 34.3145 28.1054 34.5166C28.3516 34.7123 28.6768 34.8102 29.0809 34.8102C29.3902 34.8102 29.6712 34.7123 29.9237 34.5166C30.1826 34.3145 30.312 33.9925 30.312 33.5506C30.312 33.1654 30.1763 32.8466 29.9048 32.594C29.6333 32.3415 29.2766 32.0826 28.8346 31.8175C28.5379 31.6344 28.2601 31.4481 28.0012 31.2587C27.7423 31.0693 27.534 30.8515 27.3761 30.6052C27.2246 30.3527 27.1489 30.0496 27.1489 29.696C27.1489 29.3235 27.2309 29.0173 27.3951 28.7774C27.5656 28.5312 27.7865 28.3512 28.058 28.2376C28.3295 28.1176 28.62 28.0576 28.9293 28.0576L28.9293 28.0576Z" fill="#CCCCCC"/>
<path d="M35.6034 28.1143L37.9142 34.0713C38.0089 34.3112 38.1163 34.4722 38.2362 34.5543C38.3562 34.63 38.4667 34.6711 38.5677 34.6774V34.8668C38.4414 34.8542 38.2868 34.8479 38.1037 34.8479C37.9206 34.8415 37.7375 34.8384 37.5544 34.8384C37.3081 34.8384 37.0777 34.8415 36.863 34.8479C36.6483 34.8479 36.4747 34.8542 36.3421 34.8668V34.6774C36.6641 34.6648 36.8693 34.6111 36.9577 34.5164C37.0461 34.4154 37.0272 34.2039 36.9009 33.8819L35.1394 29.175L35.2909 29.0518L33.643 33.3326C33.5104 33.6735 33.4473 33.9418 33.4536 34.1376C33.4599 34.327 33.5325 34.4627 33.6714 34.5448C33.8103 34.6269 34.0123 34.6711 34.2775 34.6774V34.8668C34.1007 34.8542 33.9145 34.8479 33.7188 34.8479C33.5294 34.8415 33.3526 34.8384 33.1884 34.8384C33.0306 34.8384 32.8948 34.8415 32.7812 34.8479C32.6738 34.8479 32.5728 34.8542 32.4781 34.8668V34.6774C32.6044 34.6458 32.7338 34.5732 32.8664 34.4596C32.999 34.3396 33.119 34.1376 33.2263 33.8534L35.4519 28.1143C35.4771 28.1143 35.5024 28.1143 35.5276 28.1143C35.5529 28.1143 35.5782 28.1143 35.6034 28.1143ZM36.7588 32.1393V32.3287H33.9366L34.0313 32.1393H36.7588Z" fill="#CCCCCC"/>
<path d="M45.6691 28.1619V28.3513C45.4545 28.3576 45.2903 28.3892 45.1767 28.446C45.0693 28.5028 44.9967 28.5944 44.9588 28.7206C44.9209 28.8469 44.902 29.0268 44.902 29.2605V34.9144C44.8641 34.9144 44.8262 34.9144 44.7884 34.9144C44.7568 34.9144 44.7221 34.9144 44.6842 34.9144L40.7065 28.768V33.7685C40.7065 33.9958 40.7255 34.1757 40.7634 34.3083C40.8075 34.4346 40.8896 34.5261 41.0096 34.5829C41.1359 34.6334 41.3221 34.665 41.5684 34.6776V34.867C41.4547 34.8544 41.3063 34.8481 41.1232 34.8481C40.9401 34.8418 40.7665 34.8386 40.6024 34.8386C40.4445 34.8386 40.2835 34.8418 40.1194 34.8481C39.9615 34.8481 39.8289 34.8544 39.7216 34.867V34.6776C39.9363 34.665 40.0973 34.6334 40.2046 34.5829C40.3182 34.5261 40.394 34.4346 40.4319 34.3083C40.4698 34.1757 40.4887 33.9958 40.4887 33.7685V29.1657C40.4887 28.9321 40.4698 28.7617 40.4319 28.6543C40.394 28.5407 40.3182 28.4649 40.2046 28.427C40.0973 28.3828 39.9363 28.3576 39.7216 28.3513V28.1619C39.8289 28.1682 39.9615 28.1745 40.1194 28.1808C40.2835 28.1871 40.4445 28.1903 40.6024 28.1903C40.7413 28.1903 40.8738 28.1871 41.0001 28.1808C41.1264 28.1745 41.24 28.1682 41.3411 28.1619L44.6842 33.3139V29.2605C44.6842 29.0268 44.6621 28.8469 44.6179 28.7206C44.58 28.5944 44.4979 28.5028 44.3717 28.446C44.2517 28.3892 44.0686 28.3576 43.8224 28.3513V28.1619C43.936 28.1682 44.0844 28.1745 44.2675 28.1808C44.4569 28.1871 44.6305 28.1903 44.7884 28.1903C44.9525 28.1903 45.1135 28.1871 45.2714 28.1808C45.4355 28.1745 45.5681 28.1682 45.6691 28.1619Z" fill="#CCCCCC"/>
<path d="M53.3365 28.1619V28.3513C53.1218 28.3576 52.9577 28.3892 52.844 28.446C52.7367 28.5028 52.6641 28.5944 52.6262 28.7206C52.5883 28.8469 52.5694 29.0268 52.5694 29.2605V34.9144C52.5315 34.9144 52.4936 34.9144 52.4557 34.9144C52.4242 34.9144 52.3894 34.9144 52.3515 34.9144L48.3739 28.768V33.7685C48.3739 33.9958 48.3928 34.1757 48.4307 34.3083C48.4749 34.4346 48.557 34.5261 48.6769 34.5829C48.8032 34.6334 48.9895 34.665 49.2357 34.6776V34.867C49.1221 34.8544 48.9737 34.8481 48.7906 34.8481C48.6075 34.8418 48.4339 34.8386 48.2697 34.8386C48.1119 34.8386 47.9509 34.8418 47.7867 34.8481C47.6289 34.8481 47.4963 34.8544 47.3889 34.867V34.6776C47.6036 34.665 47.7646 34.6334 47.8719 34.5829C47.9856 34.5261 48.0614 34.4346 48.0992 34.3083C48.1371 34.1757 48.1561 33.9958 48.1561 33.7685V29.1657C48.1561 28.9321 48.1371 28.7617 48.0992 28.6543C48.0614 28.5407 47.9856 28.4649 47.8719 28.427C47.7646 28.3828 47.6036 28.3576 47.3889 28.3513V28.1619C47.4963 28.1682 47.6289 28.1745 47.7867 28.1808C47.9509 28.1871 48.1119 28.1903 48.2697 28.1903C48.4086 28.1903 48.5412 28.1871 48.6675 28.1808C48.7937 28.1745 48.9074 28.1682 49.0084 28.1619L52.3515 33.3139V29.2605C52.3515 29.0268 52.3294 28.8469 52.2853 28.7206C52.2474 28.5944 52.1653 28.5028 52.039 28.446C51.9191 28.3892 51.736 28.3576 51.4897 28.3513V28.1619C51.6034 28.1682 51.7517 28.1745 51.9348 28.1808C52.1242 28.1871 52.2979 28.1903 52.4557 28.1903C52.6199 28.1903 52.7809 28.1871 52.9387 28.1808C53.1029 28.1745 53.2355 28.1682 53.3365 28.1619Z" fill="#CCCCCC"/>
<path d="M59.782 28.1619C59.7568 28.3828 59.7378 28.5975 59.7252 28.8059C59.7189 29.0142 59.7157 29.1721 59.7157 29.2794C59.7157 29.393 59.7189 29.5035 59.7252 29.6109C59.7315 29.7119 59.7378 29.7971 59.7442 29.8666H59.5263C59.4884 29.4941 59.4348 29.2005 59.3653 28.9858C59.2959 28.7648 59.1759 28.6101 59.0054 28.5217C58.8413 28.427 58.5919 28.3797 58.2573 28.3797H57.4712C57.2565 28.3797 57.0924 28.3986 56.9787 28.4365C56.8714 28.4681 56.7988 28.5407 56.7609 28.6543C56.723 28.7617 56.7041 28.9321 56.7041 29.1657V33.8632C56.7041 34.0905 56.723 34.2609 56.7609 34.3746C56.7988 34.4882 56.8714 34.564 56.9787 34.6019C57.0924 34.6334 57.2565 34.6492 57.4712 34.6492H58.1626C58.5603 34.6492 58.8602 34.5956 59.0623 34.4882C59.2706 34.3809 59.419 34.2073 59.5074 33.9673C59.6021 33.7211 59.6715 33.3896 59.7157 32.9729H59.9336C59.9146 33.1434 59.9052 33.3707 59.9052 33.6548C59.9052 33.7748 59.9083 33.9484 59.9146 34.1757C59.9272 34.3967 59.9462 34.6271 59.9714 34.867C59.6494 34.8544 59.2864 34.8481 58.8823 34.8481C58.4783 34.8418 58.1184 34.8386 57.8027 34.8386C57.6133 34.8386 57.3607 34.8386 57.045 34.8386C56.7357 34.8386 56.4042 34.8418 56.0506 34.8481C55.6971 34.8481 55.3656 34.8544 55.0562 34.867V34.6776C55.2709 34.665 55.4319 34.6398 55.5392 34.6019C55.6529 34.564 55.7286 34.4882 55.7665 34.3746C55.8044 34.2609 55.8233 34.0905 55.8233 33.8632V29.1657C55.8233 28.9321 55.8044 28.7617 55.7665 28.6543C55.7286 28.5407 55.6529 28.4649 55.5392 28.427C55.4319 28.3828 55.2709 28.3576 55.0562 28.3513V28.1619C55.3656 28.1682 55.6971 28.1745 56.0506 28.1808C56.4042 28.1871 56.7357 28.1903 57.045 28.1903C57.3607 28.1903 57.6133 28.1903 57.8027 28.1903C58.0931 28.1903 58.4214 28.1903 58.7876 28.1903C59.1601 28.184 59.4916 28.1745 59.782 28.1619ZM58.1531 31.4008C58.1531 31.4008 58.1531 31.4324 58.1531 31.4955C58.1531 31.5587 58.1531 31.5902 58.1531 31.5902H56.42C56.42 31.5902 56.42 31.5587 56.42 31.4955C56.42 31.4324 56.42 31.4008 56.42 31.4008H58.1531ZM58.4277 30.1507C58.4025 30.5106 58.3899 30.7852 58.3899 30.9746C58.3962 31.164 58.3993 31.3377 58.3993 31.4955C58.3993 31.6534 58.4025 31.827 58.4088 32.0164C58.4151 32.2058 58.4309 32.4805 58.4562 32.8403H58.2383C58.2131 32.6383 58.1815 32.4426 58.1436 32.2532C58.112 32.0574 58.0363 31.8996 57.9163 31.7796C57.8027 31.6534 57.6069 31.5902 57.3291 31.5902V31.4008C57.6069 31.4008 57.7995 31.3282 57.9069 31.183C58.0205 31.0378 58.0931 30.8673 58.1247 30.6716C58.1563 30.4758 58.1847 30.3022 58.2099 30.1507H58.4277Z" fill="#CCCCCC"/>
<path d="M52.2086 4.81763C52.915 4.81763 53.4929 4.92338 53.9424 5.13489C54.4027 5.33583 54.8094 5.57377 55.1626 5.84874C55.3766 6.00737 55.5372 6.02853 55.6442 5.91219C55.7619 5.78529 55.8422 5.49446 55.885 5.03971H56.2543C56.2329 5.43101 56.2168 5.9069 56.2061 6.46741C56.1954 7.02791 56.19 7.7682 56.19 8.68827H55.8208C55.7459 8.23352 55.6763 7.87395 55.6121 7.60957C55.5479 7.3346 55.4676 7.10194 55.3713 6.91158C55.2856 6.72122 55.1679 6.53086 55.0181 6.3405C54.6863 5.90691 54.2689 5.59493 53.7658 5.40457C53.2628 5.20363 52.733 5.10317 52.1764 5.10317C51.652 5.10317 51.1757 5.23536 50.7476 5.49975C50.3302 5.75356 49.9663 6.1237 49.6559 6.61018C49.3562 7.09665 49.1208 7.68359 48.9495 8.371C48.789 9.05841 48.7087 9.83043 48.7087 10.687C48.7087 11.5754 48.7997 12.3633 48.9816 13.0507C49.1636 13.7275 49.4151 14.2986 49.7362 14.7639C50.068 15.2292 50.4533 15.5835 50.8921 15.8267C51.3416 16.0594 51.8233 16.1757 52.337 16.1757C52.8186 16.1757 53.3217 16.0806 53.8461 15.8902C54.3705 15.6998 54.7826 15.3932 55.0823 14.9701C55.3178 14.6634 55.4783 14.3303 55.5639 13.9707C55.6602 13.6112 55.7459 13.1088 55.8208 12.4637H56.19C56.19 13.4261 56.1954 14.2034 56.2061 14.7956C56.2168 15.3773 56.2329 15.8691 56.2543 16.2709H55.885C55.8422 15.8162 55.7673 15.5306 55.6602 15.4143C55.5639 15.298 55.398 15.3138 55.1626 15.4619C54.7666 15.7369 54.3438 15.9801 53.8943 16.1916C53.4555 16.3925 52.8882 16.493 52.1925 16.493C51.1757 16.493 50.282 16.2656 49.5114 15.8109C48.7515 15.3561 48.1575 14.7005 47.7294 13.8438C47.312 12.9872 47.1033 11.9561 47.1033 10.7505C47.1033 9.56604 47.3227 8.52963 47.7615 7.64129C48.2003 6.75295 48.7997 6.06025 49.5596 5.5632C50.3302 5.06615 51.2132 4.81763 52.2086 4.81763Z" fill="#CCCCCC"/>
<path d="M52.3492 0C50.2873 0.00016866 48.2685 0.590362 46.5312 1.70089C44.7939 2.81141 43.4106 4.39589 42.5448 6.26721L43.1765 6.55957C43.9866 4.80892 45.2807 3.32664 46.9061 2.28782C48.5315 1.24899 50.4202 0.697002 52.3492 0.697038C55.0298 0.697038 57.6006 1.76188 59.496 3.65732C61.3914 5.55276 62.4563 8.12353 62.4563 10.8041C62.4563 13.4846 61.3914 16.0554 59.496 17.9508C57.6006 19.8463 55.0298 20.9111 52.3492 20.9111C50.4192 20.9112 48.5295 20.3587 46.9035 19.3188C45.2775 18.2789 43.9832 16.7952 43.1737 15.0431L42.5414 15.3352C43.4066 17.2081 44.79 18.7941 46.5281 19.9058C48.2661 21.0174 50.2861 21.6081 52.3492 21.6082C55.2147 21.6082 57.9627 20.4699 59.9889 18.4437C62.015 16.4176 63.1533 13.6695 63.1533 10.8041C63.1533 7.93866 62.015 5.1906 59.9889 3.16444C57.9627 1.13828 55.2147 1.84866e-07 52.3492 0ZM42.4114 15.0428C42.4185 15.0593 42.4256 15.0757 42.4328 15.0922C42.4257 15.0757 42.4187 15.0593 42.4117 15.0428C42.4116 15.0428 42.4115 15.0428 42.4113 15.0428H42.4114Z" fill="#CCCCCC"/>
</svg>
