<?xml version="1.0" encoding="UTF-8" standalone="no"?><!DOCTYPE svg PUBLIC "-//W3C//DTD SVG 1.1//EN" "http://www.w3.org/Graphics/SVG/1.1/DTD/svg11.dtd"><svg width="100%" height="100%" viewBox="0 0 58 35" version="1.1" xmlns="http://www.w3.org/2000/svg" xmlns:xlink="http://www.w3.org/1999/xlink" xml:space="preserve" xmlns:serif="http://www.serif.com/" style="fill-rule:evenodd;clip-rule:evenodd;stroke-linejoin:round;stroke-miterlimit:2;"><path d="M0.107,34.821c0.059,-0.099 0.592,-1.072 1.184,-2.164c0.593,-1.091 1.744,-3.212 2.56,-4.712c0.816,-1.501 2.213,-4.074 3.106,-5.719l1.623,-2.99l2.323,0l0.397,2.77c0.916,6.395 1.825,12.701 1.851,12.842l0.028,0.152l-2.348,0l-0.236,-1.658c-0.13,-0.911 -0.249,-1.705 -0.264,-1.764c-0.027,-0.104 -0.101,-0.106 -2.979,-0.092l-2.952,0.014l-1.984,3.5l-2.416,0l0.107,-0.179Zm9.94,-5.468c0.031,-0.031 -0.794,-6.68 -0.833,-6.717c-0.015,-0.014 -0.429,0.71 -0.92,1.608c-0.49,0.899 -1.306,2.39 -1.812,3.315c-0.506,0.925 -0.932,1.712 -0.946,1.75c-0.026,0.067 4.444,0.111 4.511,0.044Zm20.12,2.853c-0.241,-0.015 -0.341,-0.043 -0.325,-0.089c0.014,-0.036 0.083,-0.37 0.154,-0.742l0.129,-0.675l0.279,0.042c0.648,0.097 0.996,0.005 1.279,-0.339c0.377,-0.459 0.397,-0.144 -0.236,-3.643c-0.312,-1.728 -0.569,-3.161 -0.57,-3.183c-0.001,-0.023 0.402,-0.042 0.896,-0.042l0.898,0l0.265,2.246c0.146,1.236 0.277,2.284 0.292,2.329c0.027,0.084 0.448,-0.757 1.939,-3.872l0.336,-0.703l0.916,0c0.741,0 0.911,0.014 0.888,0.074c-0.015,0.04 -0.36,0.667 -0.767,1.392c-0.406,0.725 -1.345,2.404 -2.086,3.731c-1.469,2.632 -1.607,2.847 -2.001,3.112c-0.459,0.308 -1.235,0.431 -2.286,0.362Zm-8.23,-2.113c-1.296,-0.219 -1.897,-1.386 -1.318,-2.562c0.399,-0.81 1.134,-1.146 2.898,-1.322c1.542,-0.155 1.847,-0.32 1.775,-0.958c-0.11,-0.979 -2.136,-0.923 -2.384,0.065l-0.037,0.148l-1.65,-0l0.036,-0.179c0.292,-1.434 2.153,-2.249 4.134,-1.809c1.622,0.359 1.798,0.973 1.127,3.918c-0.289,1.269 -0.346,1.603 -0.351,2.053l-0.005,0.537l-1.736,-0l0,-0.618l-0.204,0.18c-0.52,0.457 -1.472,0.684 -2.285,0.547Zm1.602,-1.16c0.589,-0.127 0.939,-0.525 1.227,-1.396c0.227,-0.691 0.227,-0.679 -0.004,-0.56c-0.093,0.049 -0.375,0.113 -0.625,0.144c-1.331,0.161 -1.521,0.215 -1.788,0.501c-0.664,0.717 0.089,1.547 1.19,1.311Zm23.736,1.159c-1.497,-0.235 -2.198,-1.096 -2.199,-2.698c-0.001,-2.429 1.439,-4 3.657,-3.989c1.654,0.008 2.682,0.746 2.797,2.008l0.03,0.327l-1.715,-0l-0.037,-0.219c-0.15,-0.889 -1.381,-1.135 -2.153,-0.43c-0.82,0.75 -1.122,2.658 -0.532,3.359c0.589,0.699 1.796,0.41 2.244,-0.538l0.141,-0.298l0.853,-0c1,-0 0.955,-0.05 0.597,0.665c-0.69,1.379 -2.082,2.064 -3.683,1.813Zm6.75,0.021c-1.411,-0.187 -2.205,-0.882 -2.205,-1.93l0,-0.293l1.598,-0l0,0.17c0,0.624 0.827,1.058 1.674,0.879c0.499,-0.105 0.724,-0.337 0.724,-0.748c0,-0.452 -0.145,-0.557 -1.261,-0.913c-1.751,-0.557 -2.087,-0.846 -2.097,-1.806c-0.014,-1.196 0.92,-1.957 2.551,-2.08c1.686,-0.127 2.771,0.508 2.906,1.7l0.036,0.317l-0.834,-0c-0.801,-0 -0.833,-0.004 -0.833,-0.112c0,-0.197 -0.215,-0.543 -0.4,-0.644c-0.458,-0.249 -1.485,-0.056 -1.635,0.307c-0.183,0.441 0.045,0.641 1.145,1.005c1.742,0.578 2.176,0.971 2.179,1.973c0.005,1.452 -1.597,2.435 -3.548,2.175Zm-14.855,-0.077c-0.813,-0.106 -1.238,-0.511 -1.237,-1.182c0,-0.151 0.181,-1.138 0.402,-2.192c0.221,-1.053 0.39,-1.928 0.375,-1.942c-0.014,-0.015 -0.27,-0.027 -0.569,-0.027c-0.298,-0 -0.54,-0.019 -0.539,-0.042c0.001,-0.022 0.058,-0.276 0.127,-0.564l0.124,-0.524l0.573,-0.028l0.573,-0.027l0.384,-1.902l0.872,-0c0.48,-0 0.872,0.009 0.872,0.019c0,0.027 -0.323,1.636 -0.359,1.786c-0.029,0.124 -0.024,0.124 0.606,0.124c0.349,-0 0.634,0.019 0.632,0.042c-0.001,0.022 -0.058,0.277 -0.127,0.565l-0.124,0.523l-0.603,0.016c-0.331,0.009 -0.621,0.034 -0.643,0.057c-0.097,0.096 -0.758,3.536 -0.706,3.672c0.097,0.254 0.287,0.325 0.779,0.292c0.323,-0.023 0.436,-0.014 0.419,0.033c-0.013,0.035 -0.08,0.325 -0.15,0.643c-0.07,0.318 -0.142,0.594 -0.16,0.613c-0.055,0.058 -1.17,0.091 -1.521,0.045Zm-26.024,-0.176c0.037,-0.147 1.304,-6.273 1.304,-6.304c0,-0.011 0.372,-0.021 0.827,-0.021c0.941,-0 0.879,-0.043 0.744,0.522c-0.099,0.413 -0.103,0.412 0.236,0.086c1.052,-1.014 3.041,-1.029 3.602,-0.026c0.338,0.604 0.325,0.768 -0.286,3.687l-0.457,2.18l-0.872,-0c-0.48,-0 -0.873,-0.011 -0.873,-0.024c0,-0.013 0.163,-0.8 0.362,-1.75c0.596,-2.842 0.598,-2.864 0.376,-3.129c-0.43,-0.511 -1.36,-0.397 -1.932,0.236c-0.374,0.413 -0.496,0.785 -0.919,2.792l-0.395,1.875l-1.748,-0l0.031,-0.124Zm14.036,0.08c0,-0.025 0.076,-0.391 0.169,-0.813c0.092,-0.423 0.377,-1.736 0.632,-2.918c0.255,-1.183 0.688,-3.186 0.961,-4.453c0.274,-1.267 0.498,-2.314 0.498,-2.328c0,-0.014 -0.165,-0.1 -0.366,-0.191c-2.465,-1.118 -3.966,-4.009 -3.462,-6.667c0.946,-4.985 7.019,-6.831 10.521,-3.198c3.743,3.883 1.034,10.374 -4.356,10.435l-0.667,0.008l-0.282,1.295c-0.155,0.713 -0.631,2.908 -1.058,4.878c-0.427,1.971 -0.801,3.676 -0.831,3.789l-0.054,0.207l-0.853,-0c-0.468,-0 -0.852,-0.02 -0.852,-0.044Zm5.815,-11.307c3.512,-0.924 4.992,-5.127 2.836,-8.053c-2.485,-3.371 -7.795,-2.472 -9.057,1.534c-1.202,3.813 2.352,7.537 6.221,6.519Zm-3.886,-4.385c0,-0.015 0.013,-0.028 0.028,-0.028c0.015,-0 0.027,0.013 0.027,0.028c0,0.015 -0.012,0.027 -0.027,0.027c-0.015,-0 -0.028,-0.012 -0.028,-0.027Zm12.524,15.612c0.013,-0.068 0.319,-1.519 0.679,-3.224l0.654,-3.101l0.871,-0c0.518,-0 0.871,0.022 0.871,0.053c0,0.029 -0.108,0.556 -0.239,1.171c-0.132,0.616 -0.435,2.043 -0.675,3.172l-0.437,2.053l-1.749,-0l0.025,-0.124Zm1.559,-7.441c0.016,-0.068 0.086,-0.384 0.157,-0.703l0.127,-0.578l0.89,-0.015c0.702,-0.012 0.886,-0.001 0.868,0.055c-0.013,0.038 -0.076,0.318 -0.141,0.621c-0.065,0.303 -0.13,0.595 -0.145,0.648c-0.025,0.086 -0.116,0.096 -0.907,0.096l-0.879,-0l0.03,-0.124Zm-42.123,-4.12c0.012,-0.045 0.874,-4.181 1.917,-9.191l1.897,-9.108l3.115,0.001c4.555,0.001 5.554,0.213 6.789,1.439c1.741,1.729 1.084,5.6 -1.21,7.123c-1.258,0.836 -2.051,0.972 -5.678,0.973c-1.476,0.001 -2.713,0.02 -2.748,0.042c-0.036,0.023 -0.517,2.013 -1.069,4.423l-1.003,4.381l-1.015,-0c-0.875,-0 -1.013,-0.012 -0.995,-0.083Zm10.201,-10.99c1.508,-0.445 2.486,-2.01 2.234,-3.575c-0.239,-1.485 -1.348,-1.915 -4.936,-1.915l-1.663,-0l-0.038,0.179c-0.021,0.099 -0.308,1.343 -0.638,2.765c-0.33,1.421 -0.6,2.608 -0.6,2.635c-0,0.102 5.277,0.019 5.641,-0.089Zm-5.255,11.062c-0,-0.006 0.138,-0.675 0.306,-1.488c0.168,-0.813 0.453,-2.197 0.633,-3.076c0.18,-0.879 0.341,-1.654 0.357,-1.722c0.029,-0.125 1.681,-0.207 1.68,-0.083c-0,0.023 -0.05,0.247 -0.11,0.499c-0.139,0.578 -0.136,0.703 0.008,0.43c0.257,-0.488 0.876,-0.937 1.486,-1.077c0.276,-0.064 1.152,-0.079 1.152,-0.02c-0,0.021 -0.079,0.407 -0.176,0.856l-0.175,0.818l-0.252,-0.044c-0.761,-0.13 -1.372,0.023 -1.801,0.452c-0.511,0.511 -0.619,0.822 -1.099,3.154l-0.263,1.279l-0.873,0.016c-0.48,0.009 -0.873,0.012 -0.873,0.006Zm5.071,-0.05c-0,-0.052 0.657,-3.198 1.154,-5.522c0.093,-0.433 0.168,-0.799 0.168,-0.813c-0,-0.014 0.4,-0.025 0.889,-0.025c0.819,-0 0.886,0.007 0.863,0.096c-0.013,0.053 -0.32,1.49 -0.681,3.194l-0.657,3.098l-0.868,0.016c-0.603,0.012 -0.868,-0.002 -0.868,-0.044Zm3.031,0.009c-0,-0.029 0.222,-1.12 0.493,-2.425c0.271,-1.306 0.564,-2.721 0.651,-3.145l0.159,-0.772l0.837,-0.015c0.46,-0.008 0.836,0.004 0.835,0.027c-0.002,0.024 -0.038,0.192 -0.082,0.374c-0.117,0.483 -0.11,0.489 0.212,0.167c1.048,-1.048 3.053,-1.001 3.437,0.081l0.094,0.263l0.223,-0.241c1.018,-1.097 2.993,-1.13 3.679,-0.061c0.241,0.376 0.275,0.916 0.107,1.724c-0.062,0.301 -0.276,1.313 -0.474,2.25c-0.198,0.936 -0.36,1.723 -0.36,1.747c-0,0.025 -0.397,0.052 -0.882,0.061c-0.485,0.009 -0.882,0.006 -0.882,-0.006c-0,-0.013 0.148,-0.732 0.328,-1.599c0.623,-2.994 0.615,-2.94 0.484,-3.199c-0.276,-0.545 -1.133,-0.511 -1.712,0.069c-0.432,0.432 -0.551,0.775 -0.988,2.848l-0.394,1.871l-0.871,0.016c-0.647,0.013 -0.87,-0 -0.87,-0.049c-0,-0.063 0.4,-2.022 0.691,-3.379c0.201,-0.941 0.215,-1.103 0.117,-1.337c-0.255,-0.61 -1.217,-0.56 -1.791,0.095c-0.426,0.484 -0.527,0.827 -1.165,3.943c-0.065,0.318 -0.129,0.616 -0.142,0.661c-0.028,0.097 -1.734,0.127 -1.734,0.031Zm-1.539,-7.127c0.003,-0.053 0.071,-0.382 0.152,-0.731l0.147,-0.633l0.868,-0.016c0.712,-0.012 0.868,-0.001 0.868,0.062c-0,0.101 -0.273,1.311 -0.309,1.369c-0.063,0.102 -1.731,0.053 -1.726,-0.051Z" style="fill:#9ea5a7;fill-rule:nonzero;"/></svg>