<svg width="93" height="27" viewBox="0 0 93 27" fill="none" xmlns="http://www.w3.org/2000/svg">
<path d="M12.89 26.4855C12.0318 26.2442 12.0195 26.2307 12.1901 25.7153C12.2707 25.4718 12.3683 25.2374 12.4069 25.1946C12.4455 25.1517 12.6809 25.2252 12.9301 25.3578C13.4935 25.6577 14.2508 25.692 14.4893 25.4284C14.6888 25.208 14.6835 24.7669 14.4784 24.5144C14.3898 24.4053 13.9287 24.1176 13.4539 23.8751C12.537 23.4068 12.3001 23.17 12.1348 22.5561C11.9213 21.7632 12.3466 21.0431 13.1733 20.7975C13.7697 20.6204 13.9405 20.6205 14.7186 20.7981C15.6253 21.0051 15.6289 21.009 15.4402 21.5773C15.353 21.8398 15.2623 22.0546 15.2388 22.0546C15.2152 22.0546 15.0314 21.9707 14.8303 21.8681C14.1463 21.5191 13.2446 21.696 13.2446 22.179C13.2446 22.545 13.5237 22.802 14.3208 23.1703C15.178 23.5663 15.385 23.727 15.6112 24.1719C15.8115 24.5659 15.8057 25.373 15.5996 25.785C15.2584 26.4669 13.9902 26.7948 12.89 26.4855ZM17.8858 26.4922C17.3715 26.3087 17.0928 26.1005 16.9075 25.7613C16.7619 25.4949 16.7423 25.1825 16.7423 23.1272V20.7954H17.2553H17.7683L17.815 22.9407C17.8632 25.1616 17.911 25.4348 18.2715 25.5492C18.8813 25.7427 19.6097 25.5623 20.0283 25.1141C20.2286 24.8996 20.2372 24.8155 20.2615 22.8434L20.2867 20.7954H20.7997H21.3127V23.6402V26.485L20.7763 26.513L20.24 26.541V26.2565C20.24 25.9255 20.1834 25.9065 19.9196 26.1492C19.6779 26.3715 18.9299 26.6262 18.5346 26.6208C18.3696 26.6186 18.0777 26.5607 17.8858 26.4922ZM27.3477 26.4264C26.7581 26.1346 26.4615 25.6959 26.4145 25.0462C26.3683 24.4072 26.5774 23.9211 27.0935 23.468C27.6272 22.9994 28.0256 22.8674 28.9374 22.8568C29.688 22.8482 29.7533 22.8325 29.7532 22.6609C29.753 22.3227 29.4125 21.893 29.0498 21.7733C28.6256 21.6333 27.9739 21.7114 27.4987 21.959L27.1489 22.1414L26.9169 21.7523C26.6452 21.2967 26.6863 21.2085 27.2963 20.9387C27.9195 20.663 28.6794 20.6084 29.3836 20.7889C30.0462 20.9586 30.3267 21.1711 30.6238 21.7281C30.8 22.0587 30.8282 22.2997 30.8712 23.8428C30.9163 25.4618 30.9344 25.6042 31.1295 25.8676C31.3742 26.198 31.4016 26.5137 31.1925 26.5939C30.9552 26.6849 30.2828 26.4456 30.0739 26.1957L29.8811 25.965L29.626 26.1657C29.0359 26.6298 27.9985 26.7486 27.3477 26.4264ZM29.3158 25.4144L29.7538 25.1367V24.4252V23.7138L29.0085 23.7476C28.2969 23.7799 28.2481 23.7966 27.929 24.1157C27.4686 24.5761 27.3903 25.1094 27.7329 25.4519C28.0845 25.8036 28.7262 25.7884 29.3158 25.4144ZM39.5854 26.461C38.3534 26.0187 37.6711 24.8391 37.8068 23.3859C37.8773 22.6306 38.1047 22.1282 38.6482 21.5267C39.1172 21.0078 39.5817 20.7902 40.435 20.6899C40.9794 20.626 41.9431 20.8587 42.3015 21.1406L42.5279 21.3187L42.2844 21.6867C42.1505 21.889 42.0238 22.0546 42.0029 22.0546C41.9821 22.0546 41.8004 21.9707 41.5993 21.8681C41.1569 21.6423 40.3122 21.6188 39.9206 21.8213C39.2898 22.1475 38.9403 22.955 39.0098 23.9257C39.0619 24.6551 39.2708 25.0797 39.7294 25.3888C40.1504 25.6725 41.116 25.6845 41.6237 25.4124C41.8151 25.3098 42.013 25.2258 42.0634 25.2258C42.1567 25.2258 42.532 25.8899 42.532 26.0549C42.532 26.2232 41.4812 26.5395 40.769 26.5856C40.2284 26.6206 39.9477 26.591 39.5854 26.461ZM44.9733 26.4926C44.1563 26.2254 43.6217 25.7172 43.3462 24.946C42.7829 23.369 43.3428 21.6411 44.6307 20.982C45.0906 20.7466 45.2831 20.7027 45.8417 20.7058C46.2463 20.708 46.6766 20.7746 46.9424 20.8761C47.7535 21.1858 48.4082 22.1953 48.4082 23.1362C48.4082 23.8662 48.5285 23.8268 46.2996 23.8268H44.3042V24.0868C44.3042 24.4797 44.6844 25.1514 45.0409 25.3883C45.4731 25.6756 46.5346 25.6885 46.988 25.412C47.156 25.3096 47.3335 25.2258 47.3825 25.2258C47.4316 25.2258 47.5593 25.3976 47.6663 25.6074C47.8536 25.9745 47.8546 25.9938 47.6915 26.1168C47.1597 26.5179 45.6772 26.7228 44.9733 26.4926ZM47.2461 22.7308C47.0844 22.0733 46.5611 21.6824 45.8417 21.6819C45.081 21.6813 44.5692 22.0583 44.3543 22.7775L44.2916 22.9873H45.8004H47.3091L47.2461 22.7308ZM53.2583 26.5649C52.5529 26.3364 52.3256 26.2193 52.3256 26.084C52.3256 25.8511 52.6197 25.1326 52.7151 25.1326C52.7615 25.1326 52.9561 25.2125 53.1476 25.3102C54.2532 25.8742 55.3643 25.513 55.4693 24.5554C55.5408 23.9028 55.2636 23.5926 54.0988 23.0219C53.4217 22.6902 53.018 22.4259 52.7819 22.1598C51.8346 21.0924 52.1784 19.3438 53.4423 18.8001C54.1771 18.484 55.8517 18.5708 56.1589 18.941C56.2866 19.0948 56.0992 19.8988 55.9196 19.9677C55.8602 19.9905 55.6254 19.9247 55.3977 19.8214C55.1523 19.71 54.7817 19.6328 54.487 19.6316C54.0608 19.6298 53.9514 19.6683 53.7175 19.9022C53.4889 20.1308 53.4449 20.2501 53.4449 20.6412C53.4449 21.2978 53.7358 21.6123 54.8056 22.1122C55.8164 22.5845 56.2101 22.8954 56.4408 23.4032C56.6484 23.8602 56.6739 24.9069 56.4883 25.3511C56.3096 25.779 55.6379 26.3237 55.0876 26.4871C54.649 26.6174 53.5629 26.6635 53.2583 26.5649ZM59.135 26.4755C58.3762 26.1989 57.9593 25.8377 57.6324 25.1736C57.3627 24.6257 57.3321 24.4801 57.3345 23.7519C57.3374 22.8249 57.4904 22.3176 57.9468 21.7215C58.7078 20.7275 60.0428 20.4075 61.2418 20.9316C62.0686 21.293 62.6129 22.2216 62.5668 23.1923L62.5389 23.7801L60.5102 23.8053L58.4816 23.8304V24.0886C58.4816 24.4799 58.8624 25.1519 59.2182 25.3883C59.6552 25.6788 60.7119 25.6886 61.1746 25.4065C61.3476 25.301 61.5448 25.236 61.6127 25.2621C61.7798 25.3262 62.0508 25.8657 61.9924 26.018C61.9142 26.222 60.9008 26.5456 60.2071 26.5882C59.7492 26.6163 59.429 26.5827 59.135 26.4755ZM61.4663 22.7962C61.4663 22.1768 60.8517 21.6824 60.0813 21.6819C59.2661 21.6813 58.755 22.0428 58.5325 22.7775L58.469 22.9873H59.9676C61.4162 22.9873 61.4663 22.9809 61.4663 22.7962ZM69.3067 26.4151C69.076 25.832 67.7797 22.7309 67.4273 21.919L67.0244 20.9906L66.8523 21.3853L66.6802 21.78L66.2198 21.7189C65.6266 21.6402 65.2597 21.7921 64.9881 22.2288C64.7915 22.5449 64.7743 22.6987 64.7308 24.5263L64.6842 26.485L64.1478 26.513L63.6115 26.541V23.6449V20.7488H64.0592C64.5625 20.7488 64.7295 20.8631 64.7336 21.2105C64.7361 21.4177 64.7488 21.4272 64.8319 21.2845C64.9829 21.0252 65.6636 20.7258 66.1263 20.7151C66.3591 20.7097 66.908 20.7151 67.3461 20.7271L68.1426 20.7488L68.6649 22.0779C68.9522 22.8089 69.2617 23.6169 69.3529 23.8734C69.444 24.1299 69.5465 24.3727 69.5808 24.4128C69.6335 24.4746 70.3421 22.7881 70.9343 21.1918L71.0986 20.7488H71.6557C72.3366 20.7488 72.3508 20.6205 71.438 22.7221C71.0739 23.5605 70.5438 24.7816 70.2602 25.4357C69.8588 26.3613 69.7051 26.6249 69.5671 26.6249C69.4696 26.6249 69.3524 26.5305 69.3067 26.4151ZM77.4624 26.4945C76.1075 26.066 75.4838 25.0846 75.5693 23.5154C75.6375 22.2622 76.1305 21.447 77.11 20.9678C77.8458 20.6078 78.9008 20.6045 79.6776 20.9597C79.9726 21.0945 80.2139 21.2557 80.2139 21.3178C80.2139 21.3799 80.107 21.5709 79.9763 21.7423L79.7387 22.0538L79.3548 21.858C78.846 21.5985 77.8339 21.6351 77.4427 21.9272C76.5102 22.6234 76.4578 24.6618 77.3552 25.3302C77.7824 25.6483 78.8189 25.6958 79.356 25.4218C79.5673 25.314 79.7754 25.2258 79.8186 25.2258C79.8617 25.2258 79.9885 25.4143 80.1004 25.6445L80.3038 26.0632L79.9557 26.2393C79.2316 26.6057 78.1606 26.7153 77.4624 26.4945ZM82.8565 26.5413C82.4737 26.4426 81.8078 26.0494 81.5517 25.771C80.8063 24.9607 80.6051 23.344 81.1157 22.2678C81.35 21.7741 82.1644 20.9844 82.5934 20.8348C82.798 20.7635 83.2803 20.7075 83.665 20.7103C84.5556 20.7168 85.1284 20.973 85.5827 21.5679C85.9729 22.079 86.1081 22.5438 86.0713 23.2474L86.0434 23.7801L84.0148 23.8053L81.9861 23.8304V24.071C81.9861 24.5723 82.5179 25.3348 82.9939 25.5163C83.4257 25.6809 84.2863 25.6342 84.6888 25.4245C84.8984 25.3152 85.1028 25.2258 85.1431 25.2258C85.1833 25.2258 85.3073 25.3878 85.4186 25.5858C85.6099 25.9262 85.6121 25.9535 85.4591 26.089C85.0504 26.4511 83.5306 26.7152 82.8565 26.5413ZM84.9708 22.7962C84.9708 22.1786 84.3561 21.6824 83.5904 21.6819C82.836 21.6813 82.4135 21.9585 82.1283 22.641L81.9836 22.9873H83.4772C84.9207 22.9873 84.9708 22.9809 84.9708 22.7962ZM87.5824 26.4935C87.3516 26.4217 87.0683 26.333 86.9528 26.2965C86.8341 26.2589 86.743 26.1547 86.743 26.0563C86.743 25.871 87.0154 25.1326 87.0838 25.1326C87.1063 25.1326 87.3217 25.2375 87.5626 25.3658C88.1112 25.6578 88.8715 25.6886 89.107 25.4284C89.3085 25.2057 89.3041 24.7381 89.0981 24.4914C89.0083 24.3839 88.5991 24.1291 88.1887 23.9252C87.7783 23.7213 87.3744 23.4996 87.2911 23.4325C86.9674 23.1716 86.7437 22.6658 86.7437 22.1945C86.7437 21.0243 87.7698 20.4491 89.2617 20.7831C90.224 20.9985 90.2271 21.0013 90.0943 21.5285C90.034 21.7683 89.9492 21.9864 89.906 22.0131C89.8627 22.0398 89.6597 21.9761 89.4548 21.8716C88.6674 21.4699 87.761 21.7319 87.9083 22.3187C88.0038 22.6991 88.112 22.7853 89.0378 23.2179C90.1131 23.7204 90.4241 24.1062 90.4241 24.9376C90.4241 25.5978 90.182 26.0359 89.6563 26.3269C89.1631 26.6 88.1786 26.6791 87.5824 26.4935ZM3.86858 26.4196C3.84296 26.3529 3.83297 24.5984 3.84639 22.5208L3.87079 18.7434H4.43042H4.99005V22.6142V26.485L4.45261 26.513C4.07619 26.5326 3.90121 26.5047 3.86858 26.4196ZM6.64428 23.6706L6.66895 20.8002L6.97075 20.7757C7.21264 20.7561 7.30423 20.8019 7.43219 21.0065C7.52 21.1469 7.60179 21.2765 7.61395 21.2945C7.62611 21.3125 7.77774 21.2192 7.95091 21.0871C8.4161 20.7323 9.10652 20.5973 9.7359 20.7382C10.3248 20.87 10.6617 21.146 10.9152 21.7044C11.0768 22.0604 11.0955 22.3295 11.0973 24.3211L11.0994 26.541L10.5631 26.513L10.0267 26.485L9.98011 24.3819C9.92922 22.0873 9.87352 21.8452 9.36711 21.7181C8.91397 21.6044 8.30352 21.7377 8.01602 22.0131L7.745 22.2728L7.71997 24.3789L7.69494 26.485L7.15728 26.513L6.61961 26.5411L6.64428 23.6706ZM22.6871 23.6706L22.7117 20.8002L23.0382 20.772C23.6097 20.7227 23.7844 20.8091 23.7844 21.1411V21.4366L24.0537 21.1786C24.2018 21.0367 24.4851 20.8643 24.6833 20.7955C25.0194 20.6787 25.9821 20.6769 26.098 20.7928C26.1264 20.8212 26.0667 21.0433 25.9652 21.2863L25.7808 21.7281L25.224 21.6976C24.7652 21.6725 24.6221 21.7027 24.4105 21.8691C23.8838 22.2834 23.8351 22.4938 23.7844 24.5729L23.7377 26.485L23.2001 26.513L22.6624 26.5411L22.6871 23.6706ZM32.3874 23.6743L32.412 20.8076L32.71 20.7736C32.9543 20.7457 33.0375 20.7867 33.1715 21.0007C33.2614 21.1443 33.3449 21.2765 33.357 21.2945C33.3692 21.3125 33.5208 21.2192 33.694 21.0871C34.4137 20.5381 35.7021 20.5555 36.2684 21.1219C36.8551 21.7085 36.8891 21.8821 36.8891 24.2931V26.485L36.3849 26.5137C36.0447 26.5331 35.8556 26.5027 35.8034 26.4204C35.7608 26.3534 35.7254 25.4472 35.7246 24.4067C35.7228 21.9477 35.6221 21.6815 34.6941 21.6815C34.3012 21.6815 33.7254 21.8961 33.5997 22.0893C33.5621 22.1472 33.5103 23.1599 33.4847 24.3398L33.438 26.485L32.9004 26.513L32.3627 26.5411L32.3874 23.6743V23.6743ZM73.374 26.4695C73.3398 26.4353 73.3118 25.3675 73.3118 24.0967V21.786L72.962 21.7571L72.6123 21.7281V21.2618V20.7954L73.5217 20.7687L74.4311 20.742V23.6369V26.5317H73.9336C73.66 26.5317 73.4082 26.5037 73.374 26.4695ZM73.5576 19.9026C73.0715 19.5203 73.3189 18.6968 73.9197 18.6968C74.5577 18.6968 74.8441 19.4115 74.3887 19.867C74.109 20.1466 73.8803 20.1564 73.5576 19.9026V19.9026ZM70.4566 13.4709C69.1888 13.3009 68.5958 13.0416 68.0025 12.3979C67.6014 11.9629 67.5987 11.9551 67.6483 11.4074C67.6945 10.8981 67.9056 10.3903 68.0674 10.3994C68.1047 10.4015 68.2312 10.608 68.3484 10.8582C68.5869 11.367 69.1003 11.7532 70.0464 12.1353C71.1623 12.5861 74.1838 12.8374 76.11 12.6398C77.8557 12.4606 79.8007 12.1127 81.3206 11.7078C82.7321 11.3318 83.2284 11.2471 83.0541 11.4123C82.9737 11.4884 81.277 12.0377 79.6077 12.528C78.6321 12.8146 76.895 13.173 75.6636 13.3417C74.4349 13.5101 71.3245 13.5873 70.4566 13.4709ZM18.6981 12.1911C18.2574 11.537 17.3337 10.1834 16.6456 9.18307C15.9574 8.18272 14.9727 6.73468 14.4575 5.96518L13.5206 4.5661L13.5459 8.60902L13.5711 12.6519L13.8276 12.8564C13.9687 12.9689 14.0841 13.0908 14.0841 13.1273C14.0841 13.1639 13.6853 13.1938 13.198 13.1938C12.7106 13.1938 12.3119 13.1646 12.3119 13.1289C12.3119 13.0932 12.4273 12.9436 12.5684 12.7964L12.8249 12.5288L12.8516 8.12414L12.8784 3.7195L12.5185 3.16345C12.3205 2.85762 11.9058 2.34211 11.5969 2.01788L11.0353 1.42837L10.2379 1.82383L9.44056 2.21928L8.97018 2.01693C8.57397 1.84648 8.32238 1.81458 7.37452 1.81458H6.24923V7.17056V12.5265L6.48241 12.8037C6.61065 12.9561 6.71559 13.1062 6.71559 13.1373C6.71559 13.1683 6.19093 13.1938 5.54969 13.1938C4.90844 13.1938 4.38378 13.1639 4.38378 13.1273C4.38378 13.0908 4.49921 12.9688 4.64028 12.8564L4.89678 12.6519L4.92232 7.21898L4.94785 1.78607L3.59116 1.85018C2.84498 1.88543 1.78643 1.99508 1.23883 2.09383C0.287437 2.2654 0 2.24513 0 2.00648C0 1.97069 0.448105 1.71866 0.995788 1.44641L1.99158 0.951421L2.51146 1.12246C3.54212 1.46155 8.74069 1.39348 10.5816 1.01679C11.0937 0.912003 11.2452 0.908397 11.3035 0.999603C11.344 1.06309 11.358 1.1675 11.3345 1.23163C11.3026 1.31874 11.4802 1.34822 12.0371 1.34822H12.7825L13.2955 2.11771C13.5776 2.54093 14.0279 3.20248 14.296 3.58781C14.5642 3.97314 14.9332 4.51878 15.1159 4.80034C15.2987 5.08191 16.174 6.38257 17.0611 7.69071C17.9482 8.99885 18.9109 10.4351 19.2005 10.8824C19.4901 11.3297 19.7545 11.697 19.7881 11.6985C19.8651 11.7022 20.4764 10.6466 21.407 8.90325C21.8041 8.15941 22.2002 7.44588 22.2873 7.31763C22.3744 7.18938 22.8166 6.3919 23.2699 5.54546C23.7232 4.69901 24.2914 3.67069 24.5325 3.26029C24.7736 2.8499 25.1085 2.25179 25.2767 1.93117L25.5825 1.34822H26.5023C27.0081 1.34822 27.422 1.37121 27.422 1.39933C27.422 1.42744 27.3066 1.5497 27.1655 1.67101L26.909 1.89158L26.8811 6.95972C26.8658 9.7472 26.8786 12.1666 26.9096 12.3361C26.9406 12.5057 27.0686 12.7336 27.194 12.8426C27.3194 12.9517 27.422 13.0753 27.422 13.1173C27.422 13.1594 26.8973 13.1938 26.2561 13.1938C25.6148 13.1938 25.0902 13.1646 25.0902 13.1289C25.0902 13.0932 25.1955 12.9541 25.3242 12.8198L25.5582 12.5755L25.5341 7.68877L25.5099 2.80202L24.7637 4.17278C24.3533 4.9267 23.7521 6.01616 23.4278 6.59381C23.1034 7.17146 22.6677 7.95887 22.4595 8.34362C22.2513 8.72836 21.9875 9.21105 21.8732 9.41625C20.1592 12.4938 19.6462 13.3803 19.5792 13.3803C19.5353 13.3803 19.1388 12.8452 18.6981 12.1911ZM32.0389 13.2349C31.7311 13.1655 31.1645 13.1054 30.7798 13.1015L30.0802 13.0943L29.6139 12.3746C29.0637 11.5254 29.0415 11.4643 29.2539 11.3828C29.3598 11.3422 29.5475 11.4195 29.7948 11.6057C30.392 12.0552 30.9893 12.3365 31.9028 12.5986C32.6407 12.8103 32.8714 12.8357 33.7 12.7967C35.2597 12.7233 36.2447 12.2733 36.792 11.3841C37.0215 11.0112 37.072 10.8304 37.0658 10.4047C37.0537 9.58574 36.7034 9.02586 35.9045 8.54884C35.4532 8.27932 33.716 7.59228 32.6918 7.27825C30.8009 6.69844 29.8179 5.96447 29.5061 4.89955C29.1657 3.7369 29.6761 2.47573 30.7392 1.8527C31.778 1.24397 31.9509 1.21189 34.2034 1.21002L36.2745 1.20831L36.8383 1.77845C37.1484 2.09203 37.4021 2.39184 37.4021 2.44469C37.4021 2.66572 37.0885 2.62628 36.4312 2.32261C35.3624 1.8288 34.2564 1.59454 33.324 1.66448C32.0771 1.758 31.1917 2.15799 30.6858 2.85631C30.1376 3.61312 30.2384 4.4824 30.955 5.17668C31.4516 5.65783 31.9699 5.89209 33.9044 6.50973C37.0032 7.49911 38.2415 8.52941 38.2386 10.1158C38.2371 10.8816 38.0223 11.3712 37.4301 11.9581C36.2457 13.1319 33.9705 13.6708 32.0389 13.2349V13.2349ZM46.123 13.2427C44.6145 12.9638 43.1673 12.4007 42.0725 11.6667C41.0851 11.0048 40.1556 9.79206 39.8164 8.72343C39.5414 7.85707 39.5399 6.5405 39.8131 5.78228C40.5919 3.62054 42.9032 1.93676 45.9831 1.28738C47.1644 1.03832 49.3106 1.06085 50.8597 1.33858C51.991 1.54141 52.7357 1.56272 53.0923 1.40248C53.2224 1.34405 53.295 1.42589 53.4755 1.83398C53.598 2.11096 53.831 2.48881 53.9933 2.67365C54.264 2.98193 54.276 3.02209 54.1389 3.15919C53.9757 3.32235 53.9539 3.31422 53.3784 2.87612C52.9241 2.53028 51.7154 2.0421 50.8355 1.84908C49.8421 1.63117 47.5919 1.58422 46.4612 1.75783C45.4156 1.91838 44.2744 2.34698 43.3869 2.91249C42.0313 3.77623 41.0534 5.26801 40.9677 6.60301C40.8727 8.08345 41.4768 9.48827 42.7121 10.6599C43.1994 11.1221 44.4893 11.9393 45.2182 12.2476C46.4113 12.7523 48.634 13.0185 50.118 12.8345C51.7586 12.631 52.6338 12.3179 53.5987 11.5895C53.9515 11.3231 54.1421 11.2365 54.2797 11.2802C54.5539 11.3673 54.5171 11.5268 54.1384 11.893C53.9556 12.0698 53.6797 12.4348 53.5253 12.7041C53.2679 13.1532 53.2239 13.1881 52.9949 13.1239C52.6159 13.0176 52.0129 13.0448 50.8534 13.2207C49.597 13.4112 47.0971 13.4229 46.123 13.2427V13.2427ZM72.5589 11.8814C70.4686 11.6595 69.1135 10.9896 68.8281 10.0372C68.6806 9.54489 68.9018 8.80939 69.3684 8.24022C69.8262 7.68189 71.2157 6.57678 71.9456 6.19055L72.519 5.88717L71.8595 6.58511C71.0387 7.45364 70.7513 8.00477 70.8413 8.53752C70.9722 9.31207 71.8473 9.93684 73.2652 10.268C73.8947 10.415 74.3978 10.4422 76.4831 10.4422C79.0436 10.4422 79.4629 10.4044 81.7996 9.96222C84.6367 9.42536 88.6733 8.14923 90.3436 7.26109C91.3671 6.71689 91.8613 6.43062 92.3714 6.08638C92.9727 5.68067 93.1217 5.67743 92.8086 6.07686C92.2595 6.77742 90.4203 8.01608 88.883 8.72069C85.2998 10.363 81.2234 11.4514 77.1826 11.8445C75.6954 11.9892 73.7226 12.005 72.5589 11.8814ZM64.1712 8.02187C64.1712 7.83836 65.2126 6.91665 66.0366 6.37087C66.8909 5.80501 69.2393 4.6458 70.4505 4.19208C72.0558 3.59071 75.1721 2.71606 76.4364 2.51199C76.6416 2.47887 76.9354 2.41596 77.0893 2.37218C77.2432 2.3284 77.516 2.2727 77.6956 2.24839C77.8751 2.22408 78.4628 2.14016 79.0014 2.0619C82.3334 1.5778 85.8115 1.86751 87.3696 2.75891C88.0048 3.12236 88.2583 3.48626 88.3099 4.10882C88.3982 5.17307 87.5036 6.23273 85.3824 7.57662C84.6739 8.02549 84.6206 7.94166 85.2327 7.34094C86.0224 6.56586 86.3085 6.09467 86.3166 5.55574C86.331 4.59675 85.5276 3.97371 83.7583 3.57187C82.9974 3.39906 82.5757 3.36994 80.7736 3.36577C78.7519 3.3611 78.1797 3.40693 76.11 3.73933C74.7795 3.953 73.2641 4.30377 71.493 4.80805C70.1877 5.1797 69.4085 5.46105 67.8779 6.11334C66.392 6.74656 65.6126 7.15436 64.7541 7.74784C64.3901 7.9995 64.1712 8.1024 64.1712 8.02187ZM88.8866 3.11554C88.6311 2.34116 87.5245 1.69612 85.9968 1.43099C83.049 0.919415 79.86 1.16055 75.2797 2.24133C74.7461 2.36724 74.2955 2.45625 74.2784 2.43913C74.2171 2.37786 75.2418 1.97489 76.2499 1.66386C79.0773 0.791462 81.7797 0.381145 84.7376 0.375152C87.3681 0.369826 88.0703 0.502142 88.8793 1.15568C89.3282 1.5183 89.5423 1.92027 89.5391 2.39453C89.5368 2.72876 89.2273 3.49347 89.0943 3.49347C89.0487 3.49347 88.9552 3.3234 88.8866 3.11554Z" fill="#CCCCCC"/>
</svg>
