<svg width="90" height="35" viewBox="0 0 90 35" fill="none" xmlns="http://www.w3.org/2000/svg">
<path d="M9.49186 21.7798C7.94666 18.3706 9.0749 14.5199 12.337 13.0482C15.9179 11.4295 19.18 13.3426 20.7252 16.7763L20.8723 17.1197L11.0125 21.6081C12.2879 24.1098 14.9614 25.4589 17.7574 24.208C19.2536 23.5212 20.3573 22.3439 20.8723 20.8233L21.9025 21.3628C21.2893 23.1042 20.112 24.4778 18.1499 25.3607C14.7406 26.8569 11.1352 25.4098 9.49186 21.7798ZM12.8275 14.1519C10.056 15.4273 9.76166 18.4932 10.5956 20.578L19.1555 16.6782C18.2234 14.6915 15.7707 12.803 12.8275 14.1519Z" fill="#CCCCCC"/>
<path d="M24.4288 9.66354C24.4288 9.0749 24.9439 8.60889 25.508 8.60889C26.0966 8.60889 26.5872 9.0749 26.5872 9.66354C26.5872 10.2522 26.0966 10.7427 25.508 10.7427C24.9439 10.7182 24.4288 10.2522 24.4288 9.66354ZM24.8212 25.7042V12.7539H26.2193V25.7042H24.8212Z" fill="#CCCCCC"/>
<path d="M30.5606 28.9907L31.37 27.8625C32.4982 29.2115 33.7245 29.6775 35.6867 29.6775C38.0167 29.6775 40.077 28.5002 40.077 25.5815V23.5212C39.1695 24.8702 37.5017 25.9494 35.5641 25.9494C32.1303 25.9494 29.8002 23.3495 29.8002 19.2045C29.8002 15.1085 32.1303 12.4351 35.5641 12.4351C37.4036 12.4351 39.0223 13.3671 40.077 14.8387V12.7539H41.4996V25.5815C41.4996 29.5303 38.8261 30.9284 35.6867 30.9284C33.4793 30.9529 32.1058 30.5605 30.5606 28.9907ZM40.077 22.3685V16.065C39.3167 14.8142 37.5998 13.7105 35.8093 13.7105C32.9397 13.7105 31.2718 16.0896 31.2718 19.229C31.2718 22.3685 32.9397 24.7231 35.8093 24.7231C37.6243 24.7231 39.3412 23.6193 40.077 22.3685Z" fill="#CCCCCC"/>
<path d="M45.6446 21.7798C44.0994 18.3706 45.2276 14.5199 48.4897 13.0482C52.0706 11.4295 55.3327 13.3426 56.8779 16.7763L57.0251 17.1197L47.1652 21.6081C48.4406 24.1098 51.1141 25.4589 53.9101 24.208C55.4063 23.5212 56.51 22.3439 57.0251 20.8233L58.0552 21.3628C57.442 23.1042 56.2647 24.4778 54.3026 25.3607C50.8933 26.8569 47.2879 25.4098 45.6446 21.7798ZM48.9802 14.1519C46.2087 15.4273 45.9144 18.4932 46.7483 20.578L55.3082 16.6782C54.3762 14.6915 51.9235 12.803 48.9802 14.1519Z" fill="#CCCCCC"/>
<path d="M69.7545 25.7043V16.9481C69.7545 14.4464 68.5036 13.7106 66.6151 13.7106C64.9472 13.7106 63.2304 14.7652 62.421 15.9425V25.7288H60.9984V12.7786H62.3964V14.7407C63.3285 13.6125 65.1925 12.4597 67.0566 12.4597C69.6809 12.4597 71.128 13.7351 71.128 16.6783V25.7288H69.7545V25.7043Z" fill="#CCCCCC"/>
<path d="M77.4804 3.94873V9.12391H82.4594V10.4484H77.4804V15.6726H76.0579V10.4484H71.0789V9.12391H76.0579V3.94873H77.4804Z" fill="#CCCCCC"/>
<path d="M89.4741 34.9999H0V0H89.4741V34.9999ZM1.07918 33.8962H88.3704V1.07919H1.07918V33.8962Z" fill="#CCCCCC"/>
</svg>
