<svg width="125" height="35" viewBox="0 0 125 35" fill="none" xmlns="http://www.w3.org/2000/svg">
<g clip-path="url(#clip0_5010_22779)">
<path d="M83.0837 22.2269H79.6657L79.6667 11.8649H82.9167C85.7837 11.8649 87.9347 13.9899 87.9347 17.0699C87.9347 20.1249 85.8797 22.2269 83.0837 22.2269ZM82.9877 8.68995H75.8907L75.8897 25.402H82.8447C88.1267 25.402 91.7827 21.9639 91.7827 17.0459C91.7827 12.1039 88.1737 8.68995 82.9877 8.68995ZM105.284 18.4069C105.284 20.8179 103.803 22.2749 101.556 22.2749C99.3097 22.2749 97.7327 20.8179 97.7327 18.4069V8.68995H93.9567L93.9557 18.4069C93.9567 22.8229 96.9197 25.569 101.556 25.569C106.169 25.569 109.061 22.8239 109.061 18.4069V8.68995H105.284V18.4069ZM116.109 13.1069C116.109 12.1989 116.97 11.7459 118.236 11.7459C119.574 11.7459 121.677 12.4139 123.446 13.4649L124.904 10.3369C123.231 9.23895 120.888 8.52295 118.547 8.52295C114.675 8.52295 112.07 10.4329 112.07 13.4649C112.07 19.3859 120.984 17.5479 120.984 20.6989C120.984 21.7249 120.052 22.2979 118.499 22.2979C116.73 22.2979 114.292 21.3189 112.572 19.7909L111.066 22.8709C112.954 24.4709 115.703 25.5219 118.451 25.5219C122.156 25.5219 124.999 23.7549 124.999 20.4839C125.023 14.4669 116.109 16.1859 116.109 13.1069ZM54.6237 8.68995H50.1547L46.6407 13.7989L43.1517 8.68995H38.7547L44.3467 16.8549L38.3477 25.402H42.7697L46.6407 19.8399L50.5847 25.402H55.1017L49.0547 16.6879L54.6237 8.68995ZM64.4677 22.2749C61.6717 22.2749 59.3057 19.9829 59.3057 17.0459C59.3057 14.1089 61.6487 11.8649 64.4677 11.8649C67.2647 11.8649 69.5347 14.1089 69.5347 17.0459C69.5347 19.9829 67.2647 22.2749 64.4677 22.2749ZM64.4207 8.56995C59.3057 8.56995 55.4347 12.1749 55.4347 17.0459C55.4347 21.8919 59.3057 25.569 64.4207 25.569C69.5347 25.569 73.4067 21.8689 73.4067 17.0459C73.4057 12.1999 69.5347 8.56995 64.4207 8.56995Z" fill="#DBDDDE"/>
<path d="M25.569 0L12.785 8.523V17.046L25.569 8.523V0ZM0 17.046L6.392 21.308L0 25.569V34.092L19.177 21.308L12.785 17.046L0 8.523V17.046ZM25.569 34.092V25.569L19.177 21.308L15.626 27.462L25.569 34.092Z" fill="#DBDDDE"/>
</g>
<defs>
<clipPath id="clip0_5010_22779">
<rect width="125" height="35" fill="white"/>
</clipPath>
</defs>
</svg>
