<?xml version="1.0" encoding="UTF-8" standalone="no"?><!DOCTYPE svg PUBLIC "-//W3C//DTD SVG 1.1//EN" "http://www.w3.org/Graphics/SVG/1.1/DTD/svg11.dtd"><svg width="100%" height="100%" viewBox="0 0 78 35" version="1.1" xmlns="http://www.w3.org/2000/svg" xmlns:xlink="http://www.w3.org/1999/xlink" xml:space="preserve" xmlns:serif="http://www.serif.com/" style="fill-rule:evenodd;clip-rule:evenodd;stroke-linejoin:round;stroke-miterlimit:2;"><path d="M19.496,10.605c-0.041,-0.033 -0.402,-0.312 -0.984,-0.624c-0.018,-0.011 -0.041,-0.022 -0.063,-0.033c-0.014,-0.011 -0.033,-0.018 -0.047,-0.026c-0.118,-0.061 -0.237,-0.118 -0.358,-0.172c-0.435,0.205 -1.031,0.305 -1.735,0.114c-0.59,-0.158 -1.002,-0.647 -1.19,-0.9c-0.66,-0.081 -1.713,-0.283 -1.713,-0.283l2.328,0c0.951,-0.026 1.234,0.051 1.872,0.305c0.217,0.084 0.501,0.279 0.792,0.521c0.018,0.015 0.033,0.03 0.048,0.041l0.062,0.051c0.369,0.312 0.733,0.683 0.988,1.006" style="fill:#b2b2b2;"/><path d="M36.679,5.208c-2.535,-2.692 -11.922,-5.112 -17.824,-5.207l-0.073,-0c-5.91,0.095 -15.293,2.515 -17.828,5.207c-0.833,0.885 -0.973,1.759 -0.947,2.336c0.203,4.245 2.085,9.206 5.6,14.74c2.851,4.491 7.98,8.821 10.783,11.002c0.348,0.27 0.712,0.519 1.091,0.745l0.063,0.037l1.271,0.933l1.263,-0.926l0.052,-0.033c0.213,-0.128 0.578,-0.345 1.039,-0.705c2.269,-1.762 7.877,-6.368 10.849,-11.053c3.515,-5.534 5.401,-10.495 5.604,-14.74c0.03,-0.581 -0.11,-1.455 -0.943,-2.336l0,-0Zm-9.948,8.181c-0.01,-0.155 -0.025,-0.309 -0.044,-0.463c-0.015,-0.077 -0.029,-0.147 -0.04,-0.213c-0.019,-0.073 -0.041,-0.143 -0.063,-0.205c-0.062,-0.165 -0.14,-0.324 -0.232,-0.474l-0.21,-0.309c-0.03,-0.033 -0.055,-0.069 -0.085,-0.102c-0.029,-0.034 -0.055,-0.067 -0.088,-0.1c-0.15,-0.167 -0.314,-0.32 -0.49,-0.459c-0.074,-0.055 -0.144,-0.11 -0.221,-0.158l-0.221,-0.143l-0.284,-0.154c-0.041,-0.018 -0.081,-0.04 -0.125,-0.059l-0.383,-0.15c-0.045,-0.015 -0.085,-0.03 -0.129,-0.041l-0.387,-0.095l-0.383,-0.052l-0.866,-0.025c-0.195,-0.004 -0.347,-0 -0.464,-0c-0.317,0.007 -2.005,0.095 -2.005,0.095l1.286,-0.587l-0.549,-0.823c-0.044,-0.062 -0.084,-0.125 -0.125,-0.184c-0.004,-0.003 -0.004,-0.007 -0.007,-0.011c-0,-0.003 -0.004,-0.003 -0.008,-0.011c-0.007,-0.011 -0.014,-0.018 -0.025,-0.033l-0.004,-0.003c-0.011,-0.015 -0.022,-0.03 -0.037,-0.044c-0.097,-0.117 -0.2,-0.229 -0.309,-0.335c-0.062,-0.06 -0.126,-0.117 -0.192,-0.172c-0.055,-0.044 -0.114,-0.092 -0.173,-0.132c-0.089,-0.068 -0.183,-0.13 -0.28,-0.184c-0.004,-0.004 -0.008,-0.004 -0.008,-0.007c-0.04,-0.023 -0.077,-0.041 -0.117,-0.063c-0.124,-0.063 -0.255,-0.111 -0.391,-0.143l-0.523,-0.096c-0.158,-0.022 -0.317,-0.042 -0.475,-0.058c-0.207,-0.019 -0.435,-0.037 -0.686,-0.051l-0.21,-0.012c-0.243,-0.011 -0.508,-0.022 -0.792,-0.025c-0.63,-0.015 -1.282,0.007 -1.945,0.033l-1.043,0.036c-0.718,0.03 -1.436,0.048 -2.147,0.03c-0.126,-0.004 -0.255,-0.008 -0.38,-0.015c-0.634,-0.026 -1.282,-0.092 -1.927,-0.224l-0.295,-0.066c-0.119,-0.027 -0.237,-0.058 -0.353,-0.095l-0.435,-0.144c-0.059,-0.022 -0.121,-0.044 -0.177,-0.066c-0.117,-0.044 -0.232,-0.095 -0.35,-0.147l-0.342,-0.169l-0.336,-0.19c-0.055,-0.034 -0.11,-0.067 -0.162,-0.103c-0.055,-0.037 -0.11,-0.07 -0.162,-0.11c-0.055,-0.037 -0.11,-0.078 -0.162,-0.118l0,0.158c0,0.011 0,0.022 0.004,0.033c-0,0.033 0.003,0.066 0.003,0.106c0,0.022 0.004,0.044 0.004,0.067c0.041,0.554 0.188,1.652 0.741,2.566l0.081,0.133c0.173,0.259 0.384,0.492 0.626,0.69c0.004,0.004 0.007,0.007 0.011,0.007l0.022,0.011c0.01,0.008 0.022,0.014 0.033,0.019c0.004,-0 0.008,0.003 0.011,0.007c0.238,0.133 0.484,0.251 0.737,0.352l0.155,0.059c0.236,0.085 0.494,0.155 0.755,0.184c0.007,-0 0.011,0.004 0.015,0.004l0.004,-0c-0,-0 -0.461,0.011 -0.568,0.011c-0.486,0.003 -1.135,0.033 -1.68,0.139c-0.026,0.023 -0.053,0.045 -0.081,0.066c-0.545,0.474 -1.134,1.201 -1.967,2.49l-0.339,0.532c-0,0 0.626,-0.683 0.682,-0.741c0.795,-0.878 1.775,-1.465 2.291,-1.657c0,0 -0.792,0.735 -1.591,2.464c-0.145,0.313 -0.274,0.633 -0.387,0.959c2.166,-2.596 4.704,-3.536 4.9,-3.602l-0.004,0.003c-0.011,0.008 -0.019,0.019 -0.03,0.03c-2.648,2.445 -3.606,5.181 -3.927,7.146c0.678,-1.241 1.761,-2.244 2.329,-2.552c-0,-0 -0.675,0.833 -1.213,2.658c-0.165,0.562 -0.265,1.058 -0.32,1.473c-0.004,0.018 0.335,0.459 0.335,0.459c1.393,-2.96 3.485,-4.682 4.384,-5.321c0,-0 0.004,-0 0.004,-0.004c0.394,-0.319 0.641,-0.47 0.641,-0.47c-2.045,2.192 -2.888,4.495 -3.201,6.338c0.688,-1.52 1.561,-2.541 2.007,-3.004c0.247,-0.29 0.413,-0.44 0.431,-0.459c-1.823,2.876 -1.687,5.564 -1.389,7.055l0.465,0.51c0.022,-0.081 0.084,-0.279 0.107,-0.356c0.957,-3.25 2.866,-5.247 3.4,-5.758l0.553,-0.573c-0.126,0.176 -1.463,2.141 -1.618,5.791c-0.04,0.973 -0.11,2.09 0.177,3.239l0.446,0.456c-0.125,-1.745 0.321,-3.496 0.7,-4.198c-0,0 -0.137,1.318 0.534,3.584c0.339,1.142 0.744,1.968 1.068,2.516c0.229,0.385 1.308,1.623 1.912,2.306c0.082,0.092 0.152,0.173 0.214,0.239c0.019,0.01 0.122,0.128 0.155,0.154c0.033,-0.026 0.122,-0.085 0.188,-0.125c0.121,-0.074 0.298,-0.176 0.516,-0.327l0.335,-0.246c0.044,-0.037 0.092,-0.07 0.14,-0.11c0.004,-0.004 0.011,-0.008 0.015,-0.011c-2.148,-1.851 -3.441,-5.013 -3.482,-5.112c0.917,1.362 2.796,2.659 3.677,3.221c-0.152,-0.155 -0.3,-0.314 -0.442,-0.478l-0.328,-0.382l-0.361,-0.466l-0.273,-0.386l-0.379,-0.602l-0.173,-0.305l-0.255,-0.51l-0.184,-0.422c-0.022,-0.052 -0.04,-0.103 -0.062,-0.158c-0.056,-0.14 -0.107,-0.282 -0.151,-0.426l-0.1,-0.327l-0.114,-0.437c-0.008,-0.026 -0.011,-0.055 -0.019,-0.085c-0.047,-0.213 -0.085,-0.429 -0.114,-0.646c-0.007,-0.039 -0.012,-0.078 -0.015,-0.117c-0.007,-0.07 -0.018,-0.14 -0.022,-0.213l-0.033,-0.441l-0.007,-0.408c-0,-0.139 0.003,-0.282 0.007,-0.422l0.037,-0.635c0.007,-0.07 0.015,-0.14 0.018,-0.213c0.085,-0.837 0.244,-1.671 0.487,-2.464c-0.803,0.668 -1.525,1.358 -1.912,1.935c0.04,-0.096 1.182,-2.886 3.098,-4.759c0.155,-0.151 1.054,-0.929 1.205,-1.05c0.608,-0.485 1.315,-0.819 2.118,-0.944l0.406,-0.041c0.803,-0.051 1.411,-0.066 1.893,-0.047c0.044,-0 0.085,0.003 0.125,0.007c0.398,0.018 0.708,0.062 0.973,0.143c0.026,0.008 0.052,0.015 0.074,0.022c0.342,0.114 0.589,0.276 0.851,0.492c0.055,0.048 0.114,0.096 0.173,0.147c0,0 0.007,-0.062 0.015,-0.161c0.011,-0.268 0.044,-0.845 0.014,-1.381Zm3.424,7.716c-1.968,3.103 -5.214,6.202 -7.737,8.369l-0.991,-0.999c-0.156,-0.155 -0.306,-0.315 -0.45,-0.481l-0.28,-0.323l-0.309,-0.4l-0.225,-0.316l-0.324,-0.533l-0.184,-0.334c-0.057,-0.107 -0.111,-0.216 -0.162,-0.326l-0.207,-0.496l-0.162,-0.478l-0.143,-0.547l-0.1,-0.554c-0.004,-0.011 -0.004,-0.026 -0.007,-0.044l-0.037,-0.338c-0.004,-0.03 -0.004,-0.059 -0.007,-0.099l-0.004,-0.022c-0,-0.019 -0,-0.037 -0.004,-0.059l-0.007,-0.353c-0,-0.121 0.004,-0.239 0.007,-0.374c0.004,-0.121 0.011,-0.239 0.019,-0.371l0.033,-0.364c0.121,-1.23 0.423,-2.387 0.88,-3.352l0.155,-0.313c0.011,-0.025 0.026,-0.051 0.041,-0.073l0.106,-0.184l0.31,-0.47l0.221,-0.282c0.033,-0.041 0.066,-0.078 0.107,-0.122c0.199,-0.216 0.405,-0.411 0.633,-0.55c0.719,-0.434 1.632,-0.761 2.436,-0.746c0.803,0.015 1.709,0.176 2.427,0.76c0.826,0.687 1.349,1.267 1.622,1.689l0.228,0.397l0.339,-3.518c0.026,-0.331 0.062,-0.977 0.029,-1.619l-0.066,-0.639l-0.063,-0.309c-0.033,-0.141 -0.075,-0.279 -0.125,-0.415c-0.097,-0.263 -0.221,-0.515 -0.368,-0.753c-0.059,-0.095 -0.121,-0.189 -0.184,-0.282l-0.255,-0.331c-0.044,-0.055 -0.092,-0.11 -0.133,-0.154c-0.215,-0.237 -0.451,-0.456 -0.703,-0.654c-0.097,-0.076 -0.196,-0.148 -0.299,-0.217c-0.033,-0.025 -0.069,-0.047 -0.106,-0.069l-0.21,-0.132l-0.431,-0.232c-0.048,-0.025 -0.1,-0.047 -0.14,-0.066l-0.417,-0.169l-0.309,-0.103l-0.357,-0.095l-0.398,-0.074l-0.409,-0.047l-0.914,-0.026c-0.124,-0.183 -0.246,-0.367 -0.368,-0.551l-0.402,-0.543c-0.113,-0.128 -0.231,-0.252 -0.354,-0.371c-0.091,-0.09 -0.185,-0.175 -0.283,-0.257l-0.321,-0.25c-0.064,-0.047 -0.131,-0.091 -0.199,-0.132l-0.04,-0.037l-0.332,-0.176l-0.018,-0.008c-0.244,-0.123 -0.501,-0.216 -0.767,-0.279l-0.534,-0.102l-0.681,-0.085c-0.252,-0.023 -0.504,-0.042 -0.756,-0.059c0,0 -0.191,-0.011 -0.224,-0.011c-0.258,-0.011 -0.538,-0.022 -0.833,-0.025c-0.147,-0.004 -0.298,-0.004 -0.449,-0.004c-0.549,-0 -1.117,0.018 -1.603,0.037l-1.035,0.04c-0.457,0.018 -0.991,0.037 -1.507,0.037c-0.177,-0 -0.357,-0.004 -0.542,-0.007l-0.346,-0.012c-0.619,-0.025 -1.161,-0.088 -1.647,-0.187l-0.044,-0.007l-0.107,-0.026c-0.022,-0.004 -0.044,-0.011 -0.074,-0.018l-0.379,-0.1l-0.416,-0.146l-0.303,-0.129c-0.022,-0.011 -0.044,-0.018 -0.069,-0.033l-0.188,-0.095c-0.015,-0.008 -0.026,-0.015 -0.041,-0.022l-0.177,-0.103c-0.033,-0.019 -0.062,-0.041 -0.095,-0.059l-0.236,-0.165l-0.236,-0.177c3.467,-1.211 8.194,-2.207 11.889,-2.265c6.668,0.106 16.696,3.261 16.604,5.236c-0.085,1.994 -0.655,6.442 -5.253,13.683Zm-26.829,-8.288c-0.876,-2.538 -1.064,-4.315 -1.116,-5.376c-0.029,-0.592 0.844,-1.286 2.259,-1.969l-0,0.709l0.014,0.308c0.052,0.705 0.247,2.071 0.966,3.269c-0.63,0.609 -1.448,1.575 -2.045,2.882l-0.078,0.177Z" style="fill:#b2b2b2;"/><path d="M19.496,10.605c-0.041,-0.033 -0.402,-0.312 -0.984,-0.624c-0.018,-0.011 -0.041,-0.022 -0.063,-0.033c-0.014,-0.011 -0.033,-0.018 -0.047,-0.026c-0.118,-0.061 -0.237,-0.118 -0.358,-0.172c-0.435,0.205 -1.031,0.305 -1.735,0.114c-0.59,-0.158 -1.002,-0.647 -1.19,-0.9c-0.66,-0.081 -1.713,-0.283 -1.713,-0.283l2.328,0c0.951,-0.026 1.234,0.051 1.872,0.305c0.217,0.084 0.501,0.279 0.792,0.521c0.018,0.015 0.033,0.03 0.048,0.041l0.062,0.051c0.369,0.312 0.733,0.683 0.988,1.006" style="fill:#b2b2b2;"/><path d="M53.644,22.264c-0.202,-0.104 -0.423,-0.193 -0.663,-0.27c-0.239,-0.076 -0.474,-0.114 -0.703,-0.114c-0.316,-0 -0.57,0.073 -0.761,0.221c-0.185,0.147 -0.278,0.343 -0.278,0.588c0,0.186 0.06,0.344 0.18,0.475c0.12,0.125 0.278,0.234 0.475,0.327c0.196,0.093 0.4,0.18 0.613,0.262c0.186,0.071 0.368,0.15 0.548,0.237c0.18,0.087 0.341,0.196 0.483,0.327c0.147,0.131 0.262,0.292 0.343,0.483c0.087,0.191 0.131,0.428 0.131,0.711c0,0.311 -0.079,0.595 -0.237,0.851c-0.153,0.256 -0.374,0.458 -0.663,0.605c-0.289,0.148 -0.632,0.221 -1.03,0.221c-0.262,0 -0.513,-0.03 -0.753,-0.09c-0.234,-0.06 -0.452,-0.136 -0.654,-0.229c-0.202,-0.098 -0.382,-0.199 -0.54,-0.302l0.352,-0.622c0.131,0.093 0.281,0.183 0.45,0.27c0.169,0.082 0.346,0.15 0.531,0.204c0.186,0.049 0.366,0.074 0.54,0.074c0.186,-0 0.368,-0.033 0.548,-0.098c0.186,-0.071 0.338,-0.177 0.458,-0.319c0.12,-0.142 0.18,-0.33 0.18,-0.565c0,-0.201 -0.054,-0.368 -0.163,-0.499c-0.104,-0.136 -0.243,-0.25 -0.418,-0.343c-0.174,-0.098 -0.359,-0.186 -0.556,-0.262c-0.185,-0.071 -0.373,-0.147 -0.564,-0.229c-0.191,-0.087 -0.368,-0.191 -0.532,-0.311c-0.163,-0.125 -0.294,-0.278 -0.392,-0.458c-0.099,-0.18 -0.148,-0.398 -0.148,-0.654c0,-0.311 0.074,-0.581 0.221,-0.81c0.153,-0.234 0.36,-0.417 0.622,-0.548c0.262,-0.136 0.562,-0.21 0.9,-0.221c0.381,0 0.717,0.047 1.006,0.139c0.294,0.093 0.553,0.207 0.777,0.344l-0.303,0.605Z" style="fill:#b2b2b2;fill-rule:nonzero;"/><path d="M59.689,26.681c-0.098,0.066 -0.232,0.139 -0.401,0.221c-0.169,0.082 -0.368,0.15 -0.597,0.205c-0.223,0.054 -0.469,0.082 -0.736,0.082c-0.458,-0.006 -0.872,-0.088 -1.243,-0.246c-0.366,-0.158 -0.676,-0.373 -0.933,-0.646c-0.256,-0.273 -0.455,-0.586 -0.597,-0.941c-0.136,-0.36 -0.204,-0.741 -0.204,-1.145c-0,-0.442 0.071,-0.848 0.212,-1.219c0.148,-0.376 0.352,-0.7 0.614,-0.973c0.262,-0.278 0.57,-0.494 0.924,-0.646c0.36,-0.153 0.753,-0.229 1.178,-0.229c0.354,-0 0.676,0.049 0.965,0.147c0.289,0.093 0.537,0.204 0.744,0.335l-0.319,0.737c-0.163,-0.11 -0.362,-0.213 -0.597,-0.311c-0.229,-0.098 -0.485,-0.148 -0.769,-0.148c-0.289,0 -0.561,0.058 -0.817,0.172c-0.257,0.115 -0.483,0.276 -0.679,0.483c-0.197,0.207 -0.352,0.45 -0.467,0.728c-0.109,0.272 -0.163,0.567 -0.163,0.883c-0,0.322 0.049,0.622 0.147,0.9c0.104,0.273 0.248,0.51 0.434,0.712c0.19,0.201 0.419,0.36 0.687,0.474c0.267,0.114 0.567,0.172 0.899,0.172c0.3,-0 0.567,-0.047 0.802,-0.139c0.234,-0.093 0.428,-0.197 0.581,-0.311l0.335,0.703Z" style="fill:#b2b2b2;fill-rule:nonzero;"/><path d="M60.649,24.17c0,-0.409 0.076,-0.793 0.229,-1.153c0.158,-0.365 0.376,-0.687 0.654,-0.965c0.278,-0.284 0.597,-0.505 0.957,-0.663c0.366,-0.163 0.758,-0.245 1.178,-0.245c0.415,-0 0.802,0.082 1.162,0.245c0.365,0.158 0.687,0.379 0.965,0.663c0.283,0.278 0.504,0.6 0.662,0.965c0.159,0.36 0.238,0.744 0.238,1.153c-0,0.42 -0.079,0.813 -0.238,1.178c-0.158,0.365 -0.379,0.687 -0.662,0.965c-0.278,0.273 -0.6,0.488 -0.965,0.646c-0.36,0.153 -0.747,0.229 -1.162,0.229c-0.42,0 -0.812,-0.076 -1.178,-0.229c-0.36,-0.152 -0.679,-0.365 -0.957,-0.638c-0.278,-0.272 -0.496,-0.591 -0.654,-0.957c-0.153,-0.365 -0.229,-0.763 -0.229,-1.194Zm0.818,0.008c-0,0.311 0.057,0.603 0.172,0.876c0.114,0.267 0.272,0.504 0.474,0.711c0.202,0.207 0.436,0.371 0.704,0.491c0.267,0.114 0.556,0.172 0.867,0.172c0.305,-0 0.591,-0.058 0.859,-0.172c0.267,-0.12 0.498,-0.284 0.695,-0.491c0.196,-0.207 0.351,-0.444 0.466,-0.711c0.115,-0.273 0.172,-0.568 0.172,-0.884c-0,-0.311 -0.057,-0.602 -0.172,-0.875c-0.115,-0.278 -0.273,-0.521 -0.474,-0.728c-0.202,-0.207 -0.437,-0.368 -0.704,-0.483c-0.267,-0.119 -0.553,-0.18 -0.859,-0.18c-0.311,0 -0.6,0.061 -0.867,0.18c-0.267,0.12 -0.501,0.284 -0.703,0.491c-0.202,0.207 -0.357,0.45 -0.466,0.728c-0.109,0.273 -0.164,0.565 -0.164,0.875Z" style="fill:#b2b2b2;fill-rule:nonzero;"/><path d="M69.601,21.209c0.3,-0 0.575,0.041 0.826,0.122c0.256,0.077 0.477,0.194 0.663,0.352c0.19,0.153 0.338,0.344 0.441,0.573c0.109,0.223 0.164,0.485 0.164,0.785c-0,0.234 -0.036,0.463 -0.106,0.687c-0.066,0.224 -0.178,0.428 -0.336,0.613c-0.158,0.18 -0.365,0.328 -0.621,0.442c-0.251,0.109 -0.562,0.164 -0.933,0.164l-0.875,-0l-0,2.176l-0.794,-0l0,-5.914l1.571,-0Zm0.082,2.977c0.234,0 0.428,-0.035 0.58,-0.106c0.159,-0.071 0.281,-0.161 0.369,-0.27c0.087,-0.115 0.149,-0.237 0.188,-0.368c0.038,-0.131 0.057,-0.254 0.057,-0.368c-0,-0.12 -0.022,-0.243 -0.066,-0.368c-0.038,-0.131 -0.103,-0.251 -0.196,-0.36c-0.087,-0.109 -0.204,-0.199 -0.352,-0.27c-0.141,-0.071 -0.316,-0.107 -0.523,-0.107l-0.916,0l-0,2.217l0.859,0Zm0.973,0.45l1.546,2.487l-0.916,-0l-1.571,-2.463l0.941,-0.024Z" style="fill:#b2b2b2;fill-rule:nonzero;"/><path d="M73.414,21.209l3.844,-0l0.001,0.76l-3.052,0l0.001,1.8l2.723,-0l0,0.761l-2.724,-0l0.001,1.832l3.165,-0l0,0.761l-3.959,-0l0,-5.914Z" style="fill:#b2b2b2;fill-rule:nonzero;"/><path d="M37.937,27.295l2.716,-6.257l0.065,-0l2.716,6.257l-1.375,0l-1.734,-4.401l0.859,-0.589l-2.077,4.99l-1.17,0Zm1.857,-2.176l1.807,0l0.418,0.998l-2.593,0l0.368,-0.998Z" style="fill:#b2b2b2;fill-rule:nonzero;"/><path d="M40.518,20.833l-2.893,6.666l1.618,0l0.49,-1.178l1.723,0l0.464,1.178l1.825,0l-2.298,-5.294l-0.109,-0.253l-0.486,-1.119l-0.334,-0Zm0.167,0.643l0.309,0.712l-0.88,0.603l0.571,-1.315Zm0.544,1.253l1.893,4.361l-0.924,0l-0.303,-0.769l0.43,0l-0.588,-1.406l-0.396,-0l-0.497,-1.262l0.385,-0.924Zm-1.141,0.122l0.315,0.798l-0.527,1.266l-0.225,-0l-0.049,0.134l-0.47,1.272l0.158,0l-0.32,0.769l-0.721,0l1.839,-4.239Zm0.642,0.014l-0.101,0.242l-0.054,-0.136l0.155,-0.106Zm-0.112,1.331l0.284,0.719l-0.583,-0l0.299,-0.719Zm-0.469,1.128l0.914,-0l0.232,0.588l-1.392,0l0.246,-0.588Z" style="fill:#b2b2b2;fill-rule:nonzero;"/><path d="M44.303,27.295l0,-6.02l1.8,-0c0.605,-0 1.12,0.09 1.546,0.27c0.425,0.179 0.766,0.419 1.022,0.719c0.262,0.3 0.453,0.636 0.573,1.006c0.12,0.371 0.18,0.745 0.18,1.121c-0,0.447 -0.082,0.851 -0.246,1.211c-0.158,0.354 -0.376,0.66 -0.654,0.916c-0.278,0.251 -0.6,0.444 -0.965,0.581c-0.366,0.13 -0.753,0.196 -1.162,0.196l-2.094,-0Zm1.186,-1.145l0.704,-0c0.3,-0 0.572,-0.039 0.818,-0.115c0.245,-0.082 0.455,-0.199 0.629,-0.352c0.18,-0.152 0.317,-0.343 0.409,-0.572c0.099,-0.235 0.148,-0.502 0.148,-0.802c-0,-0.392 -0.066,-0.711 -0.197,-0.957c-0.125,-0.251 -0.283,-0.444 -0.474,-0.581c-0.185,-0.136 -0.376,-0.229 -0.573,-0.278c-0.196,-0.054 -0.362,-0.081 -0.499,-0.081l-0.965,-0l0,3.738Z" style="fill:#b2b2b2;fill-rule:nonzero;"/><path d="M44.099,21.07l-0,6.429l2.298,0c0.431,0 0.843,-0.069 1.231,-0.208l0.002,-0.001c0.388,-0.144 0.733,-0.352 1.031,-0.62l0.001,-0.002c0.298,-0.275 0.534,-0.604 0.702,-0.982l0.001,-0.001c0.176,-0.388 0.263,-0.822 0.263,-1.294c0,-0.398 -0.063,-0.793 -0.19,-1.183c-0.128,-0.396 -0.333,-0.757 -0.611,-1.076c-0.28,-0.327 -0.649,-0.586 -1.099,-0.776c-0.457,-0.193 -1,-0.286 -1.625,-0.286l-2.004,0Zm0.409,0.409l1.594,0c0.585,0 1.074,0.088 1.467,0.254c0.401,0.17 0.713,0.392 0.947,0.665l0,0l0.001,0.001c0.244,0.28 0.421,0.59 0.532,0.935c0.114,0.351 0.17,0.703 0.17,1.057c-0,0.423 -0.077,0.795 -0.227,1.126l-0,0.001l-0.001,0c-0.147,0.331 -0.348,0.612 -0.605,0.849c-0,0 -0,0 -0.001,0.001c-0.258,0.232 -0.555,0.411 -0.897,0.539c-0.342,0.122 -0.704,0.183 -1.091,0.183l-1.889,0l-0,-5.611Zm0.777,0.728l-0,4.147l0.908,0c0.317,0 0.61,-0.04 0.878,-0.124l0.002,0l0.002,-0.001c0.268,-0.089 0.502,-0.219 0.699,-0.391c0.204,-0.174 0.361,-0.393 0.465,-0.65c0.109,-0.262 0.162,-0.557 0.162,-0.879c0,-0.414 -0.068,-0.765 -0.219,-1.05c-0.137,-0.273 -0.315,-0.494 -0.535,-0.652l-0.001,-0.001c-0.203,-0.149 -0.418,-0.254 -0.642,-0.31c-0.206,-0.057 -0.387,-0.089 -0.55,-0.089l-1.169,0Zm0.408,0.409l0.761,0c0.109,0 0.26,0.023 0.444,0.075l0.003,0.001l0.003,-0c0.167,0.042 0.334,0.121 0.501,0.244l0.001,0.002l0.001,0c0.16,0.115 0.297,0.279 0.41,0.506l0.003,0.005c0.11,0.205 0.172,0.491 0.172,0.86c0,0.278 -0.045,0.518 -0.131,0.723l-0.001,0.002c-0.081,0.201 -0.197,0.362 -0.352,0.494l-0.002,0.002c-0.152,0.133 -0.336,0.237 -0.558,0.311c-0.223,0.069 -0.474,0.105 -0.755,0.105l-0.499,-0l-0.001,-3.33Z" style="fill:#b2b2b2;fill-rule:nonzero;"/></svg>