<?xml version="1.0" encoding="UTF-8" standalone="no"?><!DOCTYPE svg PUBLIC "-//W3C//DTD SVG 1.1//EN" "http://www.w3.org/Graphics/SVG/1.1/DTD/svg11.dtd"><svg width="100%" height="100%" viewBox="0 0 111 36" version="1.1" xmlns="http://www.w3.org/2000/svg" xmlns:xlink="http://www.w3.org/1999/xlink" xml:space="preserve" xmlns:serif="http://www.serif.com/" style="fill-rule:evenodd;clip-rule:evenodd;stroke-linejoin:round;stroke-miterlimit:2;"><g><path d="M20.538,29.026c-4.14,-0.063 -8.753,-3.643 -8.753,-9.524l0,-19.502l-1.373,0l0,10.39c-5.967,1.299 -10.412,6.24 -10.412,12.153c0,6.895 6.03,12.481 13.495,12.481c5.67,0 10.506,-3.252 12.502,-7.845c-1.278,1.109 -3.463,1.88 -5.459,1.847" style="fill:#9ea5a7;fill-rule:nonzero;"/><path d="M13.579,10.063c0.57,-0.075 7.486,0.021 11.52,6.135c1.362,2.058 0.033,4.635 -4.065,4.773c-1.457,0.042 -6.684,-1.279 -7.455,-10.908" style="fill:#9ea5a7;fill-rule:nonzero;"/></g><g><path d="M61.205,13.782c-4.466,-0 -8.988,1.84 -8.988,8.485l-0,9.001l3.992,0l0,-8.932c0,-4.482 2.885,-5.51 4.996,-5.51c2.111,-0 4.994,1.042 4.994,5.51l-0,8.932l3.992,0l-0,-8.988c0.013,-6.644 -4.507,-8.498 -8.986,-8.498" style="fill:#9ea5a7;fill-rule:nonzero;"/><path d="M32.997,22.768c0,4.222 1.841,8.5 8.487,8.5l8.121,0l-0,-2.979l-7.092,0c-4.481,0 -5.361,-3.45 -5.361,-5.521c0,-2.058 0.88,-5.562 5.361,-5.562l7.092,-0l-0,-2.939l-8.121,0c-6.646,0 -8.487,4.278 -8.487,8.501" style="fill:#9ea5a7;fill-rule:nonzero;"/><path d="M86.488,21.578l-9.637,-0c-0,-1.449 0.094,-5.184 4.779,-5.184c5.535,-0.014 4.858,5.184 4.858,5.184m-9.651,2.57l13.915,-0l0,-1.257c0,-7.568 -4.967,-9.096 -9.475,-9.096c-6.347,0 -8.689,4.533 -8.689,8.742l0,0.244c0,4.224 1.854,8.501 8.485,8.501l9.178,-0l0,-2.977l-8.136,-0c-3.734,-0.029 -4.967,-2.167 -5.278,-4.157" style="fill:#9ea5a7;fill-rule:nonzero;"/><path d="M103.205,21.441l-2.248,0c-2.098,0 -3.411,-0.662 -3.411,-2.164c0,-1.463 1.029,-2.045 3.167,-2.071l8.825,-0l0,-2.939l-8.784,0c-3.574,0 -7.62,0.597 -7.62,4.996c0,4.804 5.387,4.737 6.984,4.737l2.246,-0c2.113,-0 3.412,0.662 3.412,2.165c0,1.449 -1.028,2.044 -3.168,2.071l-8.825,-0l-0,2.938l8.784,0c3.574,0 7.622,-0.597 7.622,-4.996c-0.014,-4.817 -5.401,-4.737 -6.984,-4.737" style="fill:#9ea5a7;fill-rule:nonzero;"/></g></svg>