<svg width="133" height="48" viewBox="0 0 133 48" fill="none" xmlns="http://www.w3.org/2000/svg">
<path d="M31.1797 21.8384H40.8602C40.8602 21.8384 41.2432 20.3831 39.5192 18.2014C36.1138 14.6824 32.2886 17.0162 32.2886 17.0162C30.4129 18.0108 28.004 22.144 29.4172 28.075C31.1797 34.0073 37.9514 35.228 42.159 33.8509C44.9439 32.9399 46.5495 30.9314 47.3221 29.6715C47.5706 28.6523 47.7479 27.633 47.8597 26.6197H31.1797V21.8384Z" fill="#9EA5A7"/>
<path d="M22.7181 0.0349768C12.5029 0.578326 3.38927 7.64804 0.742552 18.0849C-2.51614 30.9314 5.25446 43.9981 18.0998 47.2574C27.2264 49.5726 36.481 46.3211 42.2305 39.6372C39.7025 40.2415 36.7438 40.2818 33.5327 39.1753C22.7789 35.462 20.8083 25.5104 23.4878 18.5468C26.1638 11.5826 35.534 8.33658 42.0381 13.0048C47.6128 17.0029 47.919 24.1262 47.888 26.0901C48.9139 14.5659 41.49 3.6665 29.915 0.727726C27.5065 0.116949 25.0755 -0.0904078 22.7181 0.0349768ZM11.0183 21.2023C12.7238 21.2023 14.0972 22.5769 14.0972 24.2812C14.0972 25.9866 12.7238 27.3601 11.0183 27.3601C9.31414 27.3601 7.90096 25.9866 7.90096 24.2812C7.90098 22.5769 9.31414 21.2023 11.0183 21.2023Z" fill="#9EA5A7"/>
<path d="M119.626 10.8494C117.716 10.9245 115.764 11.239 114.161 11.85C110.801 13.2247 109.119 16.4948 109.119 19.9321H115.2C115.047 18.1762 116.366 16.5801 117.586 16.122C118.123 15.8946 118.861 15.7371 119.626 15.7371C121.152 15.6618 122.713 16.0522 123.783 17.0456C124.471 17.7317 124.666 18.6313 124.437 19.6242C124.053 21.228 122.299 21.7805 119.626 22.1643C118.709 22.3158 117.651 22.397 116.509 22.5491C113.302 22.9311 108.724 24.5125 107.657 29.1687C107.275 31.0028 107.566 34.3836 110.39 36.5966C112.299 38.0488 114.987 38.7145 117.048 38.6363C117.965 38.6363 118.9 38.5587 119.665 38.4054C121.8 37.9484 123.452 36.9688 125.053 35.6729C125.13 36.0547 125.518 37.4847 125.822 37.8666H132.25C131.259 35.8822 131.403 33.0035 131.403 31.4009V23.1649C131.328 21.0271 131.322 18.8774 130.864 16.8917C130.404 14.9055 128.666 11.6149 123.013 10.9263C121.945 10.8512 120.771 10.8494 119.626 10.8494ZM124.822 24.5889C124.822 25.1999 124.896 29.5584 124.514 30.4003C123.825 32.2313 121.915 33.2922 119.626 33.5177C119.17 33.5928 118.656 33.6698 118.125 33.5946C116.598 33.5946 115.312 32.8543 114.777 31.7088C114.165 30.5632 114.547 29.3955 114.931 28.7069C115.847 27.1043 117.447 26.8163 119.665 26.3593C120.349 26.2841 121.098 26.126 121.935 25.8974C123.616 25.5156 123.982 25.1999 124.822 24.5889Z" fill="#9EA5A7"/>
<path d="M74.966 14.5963C72.2929 11.6174 68.1689 10.3178 63.9698 10.9288C60.1518 11.5404 57.4031 13.6787 55.4938 16.7329C54.5004 18.4894 53.8142 20.4752 53.5076 22.3844C52.8966 27.0437 54.1949 34.831 62.3672 37.8859C66.1834 39.3381 70.9958 38.8029 74.6604 36.1299C76.7219 34.6025 78.7863 31.1658 78.9367 29.028H72.1414C71.9111 29.9451 71.3778 31.1658 70.1553 32.0829C67.4052 34.0673 64.2746 32.7714 62.9 31.7762C60.8392 30.2488 60.1518 27.7292 60.0755 24.1403C60.0755 22.2323 60.6095 19.178 62.2139 17.7257C63.9698 16.2742 66.1081 15.8941 68.1689 16.5039C70.3856 17.1918 72.0645 19.6351 71.9112 21.8487H62.2902V26.6617H78.9367C79.09 24.904 78.7863 23.2251 78.4797 21.6207C77.9456 19.2544 76.4946 16.3511 74.966 14.5963Z" fill="#9EA5A7"/>
<path d="M94.6692 21.6975C92.6065 21.3157 90.2402 21.2388 89.0196 19.8659C88.4843 19.2543 88.4843 18.1851 88.7893 17.5735C89.6298 15.894 91.6925 15.3587 93.677 15.5103C95.4329 15.5103 97.0373 16.428 97.7241 17.9554C98.0307 18.5669 98.1077 19.2542 98.1822 19.941H103.832C103.909 17.7256 102.993 15.4351 101.619 13.9835C99.8617 12.1517 95.7377 10.2425 90.6239 11.0062C87.8721 11.3869 84.2076 12.9924 82.9839 16.5795C81.9146 19.941 82.9839 22.994 85.0458 24.5985C87.6436 26.5865 92.5314 27.1187 94.5171 27.5786C96.8081 28.0357 97.9525 28.3424 98.3343 29.6383C98.5648 30.4802 98.4878 31.4724 97.9525 32.161C96.5015 34.0672 93.5236 34.2206 91.1573 33.532C89.1717 32.9247 88.331 31.319 87.9491 29.1783H81.9928C81.9928 31.1657 82.6032 32.5427 83.5972 34.1454C84.8944 36.208 87.1855 37.8857 90.5458 38.4209C94.2103 39.0343 97.9525 38.5743 100.168 37.3535C101.466 36.5868 102.46 35.5976 103.3 34.5272C104.521 32.9998 105.591 29.1783 103.68 25.8198C102.001 22.9183 98.1822 22.3085 94.6692 21.6975Z" fill="#9EA5A7"/>
</svg>
