<svg width="78" height="35" viewBox="0 0 78 35" fill="none" xmlns="http://www.w3.org/2000/svg">
<path fill-rule="evenodd" clip-rule="evenodd" d="M19.4958 10.6055C19.4551 10.5723 19.0942 10.2932 18.5122 9.98116C18.4938 9.97012 18.4715 9.95908 18.4494 9.94804C18.4347 9.93699 18.4163 9.92963 18.4016 9.92227C18.2842 9.86117 18.165 9.80368 18.0441 9.74989C17.6094 9.9554 17.0127 10.0546 16.3088 9.86358C15.7195 9.70572 15.3068 9.2174 15.1189 8.96383C14.4594 8.88306 13.4057 8.68123 13.4057 8.68123H15.7342C16.6847 8.65546 16.9683 8.73235 17.6057 8.98591C17.8231 9.07037 18.1067 9.26504 18.3979 9.50736C18.4163 9.52208 18.431 9.53681 18.4457 9.54785L18.5083 9.59918C18.8768 9.91143 19.2414 10.2822 19.4958 10.6053" fill="#CCCCCC"/>
<mask id="mask0_902_1353" style="mask-type:alpha" maskUnits="userSpaceOnUse" x="0" y="0" width="38" height="35">
<path d="M0.00421143 0H37.6259V34.9999H0.00421143V0Z" fill="white"/>
</mask>
<g mask="url(#mask0_902_1353)">
<path fill-rule="evenodd" clip-rule="evenodd" d="M30.1546 21.105C28.1874 24.208 24.9415 27.3072 22.4179 29.474L21.4268 28.475C21.2712 28.3202 21.1213 28.1597 20.9773 27.9941C20.9331 27.9427 20.889 27.8912 20.8409 27.8399L20.8262 27.8215C20.7892 27.7765 20.7511 27.7324 20.7121 27.6892L20.6974 27.6708C20.6458 27.6086 20.5941 27.546 20.5426 27.4763L20.5278 27.4542C20.4837 27.3988 20.4408 27.3425 20.399 27.2853L20.388 27.2706C20.3436 27.2082 20.2959 27.1459 20.2552 27.0872L20.1632 26.9549C20.108 26.8741 20.0563 26.7933 20.0047 26.7052L19.9863 26.6757C19.9679 26.6463 19.9495 26.617 19.9272 26.5766L19.9052 26.5363C19.8904 26.5105 19.8757 26.4847 19.8573 26.4555L19.8389 26.4224C19.8205 26.3894 19.8021 26.36 19.78 26.3195L19.7653 26.294C19.743 26.2568 19.7221 26.2188 19.7027 26.1801L19.6547 26.088C19.5977 25.9807 19.5436 25.8718 19.4925 25.7615L19.4042 25.5594L19.3306 25.3832C19.3175 25.3516 19.3052 25.3198 19.2937 25.2877L19.2864 25.2656C19.246 25.1587 19.2078 25.051 19.1721 24.9425L19.1647 24.9167C19.1537 24.8799 19.1389 24.8396 19.1242 24.7883C19.1095 24.7441 19.0985 24.7002 19.0837 24.656C19.0577 24.5661 19.0343 24.4755 19.0136 24.3842L19.0028 24.3403L18.9952 24.3108L18.9878 24.2777L18.9805 24.2409C18.9426 24.0633 18.9107 23.8846 18.8848 23.7049L18.8811 23.6865C18.8774 23.6757 18.8774 23.661 18.8737 23.6425L18.87 23.6131C18.8664 23.5691 18.859 23.5252 18.8553 23.4773L18.8516 23.4442C18.848 23.4039 18.8443 23.3671 18.8406 23.3229L18.8369 23.3045C18.8332 23.2753 18.8332 23.2458 18.8296 23.2056L18.8257 23.1835C18.8257 23.1651 18.8257 23.1467 18.8222 23.1248L18.8185 22.9998C18.8148 22.9264 18.8148 22.8493 18.8148 22.7722C18.8148 22.651 18.8185 22.5334 18.8222 22.3976C18.8257 22.2766 18.8332 22.159 18.8406 22.0267C18.8443 21.968 18.848 21.9054 18.8553 21.8467C18.859 21.788 18.8664 21.7257 18.8737 21.6631C18.9952 20.4331 19.2974 19.2763 19.7543 18.3105L19.7653 18.2884C19.78 18.2553 19.7947 18.226 19.8168 18.1856L19.8389 18.1379C19.8536 18.1085 19.8686 18.0792 19.8868 18.0424L19.9088 17.9982C19.9201 17.9727 19.9348 17.9469 19.9495 17.9248L19.9716 17.8846C19.99 17.8514 20.0048 17.822 20.0232 17.7925L20.0563 17.7414L20.3436 17.3042L20.3659 17.2713C20.3843 17.2455 20.4027 17.2198 20.4248 17.1903L20.4689 17.1316L20.5869 16.9885C20.6201 16.948 20.6532 16.9114 20.6937 16.8672C20.8926 16.6505 21.099 16.456 21.3274 16.3165C22.0458 15.883 22.9594 15.5562 23.7626 15.571C24.5657 15.5857 25.4722 15.7472 26.1903 16.331C27.0157 17.0179 27.5387 17.5981 27.8115 18.0203L28.0399 18.417L28.3604 15.09C28.3604 15.09 28.3677 15.0201 28.3788 14.899C28.4045 14.5684 28.4414 13.9222 28.4082 13.2795C28.3965 13.0767 28.3757 12.8745 28.3456 12.6736L28.342 12.6406C28.3236 12.5378 28.3052 12.4423 28.2831 12.3505L28.2794 12.3321C28.2463 12.1912 28.2044 12.0526 28.154 11.917C28.0568 11.6544 27.9334 11.4023 27.7858 11.1644C27.7265 11.0688 27.665 10.9745 27.6015 10.8816C27.5548 10.8138 27.5057 10.7476 27.4543 10.6833C27.4173 10.6391 27.3841 10.5953 27.3473 10.551C27.303 10.496 27.2553 10.441 27.2144 10.3968C26.9988 10.1595 26.7634 9.94089 26.511 9.74324C26.4141 9.66744 26.3145 9.59514 26.2124 9.52648C26.1793 9.50092 26.1425 9.47883 26.1057 9.45675L26.0284 9.40542C25.9879 9.37965 25.9435 9.35389 25.8957 9.32465C25.8147 9.2768 25.73 9.22915 25.6304 9.17762C25.5789 9.14817 25.5235 9.12241 25.4867 9.10421L25.4646 9.09317C25.4168 9.0676 25.3652 9.04552 25.3245 9.02711C25.2005 8.97001 25.0739 8.91856 24.9452 8.87293L24.9084 8.85821L24.7683 8.81036C24.7131 8.79195 24.6579 8.77355 24.599 8.75515C24.5362 8.73695 24.4737 8.71854 24.4256 8.70402C24.365 8.68624 24.3036 8.6715 24.2416 8.65985C24.1759 8.64353 24.1095 8.63009 24.0426 8.61957L23.98 8.60853C23.9322 8.60116 23.8841 8.5938 23.8436 8.58644C23.7225 8.56769 23.6009 8.55296 23.4788 8.54227L23.4346 8.53859C23.3757 8.53512 23.3205 8.53143 23.2614 8.53143L22.7494 8.51671H22.6795C22.6243 8.51303 22.569 8.51303 22.521 8.51303C22.3974 8.32998 22.2746 8.14635 22.1527 7.96214L21.7732 7.44437L21.7511 7.41861C21.638 7.29052 21.52 7.16684 21.3973 7.04787C21.3063 6.95835 21.2117 6.8726 21.1137 6.79082C21.0252 6.71721 20.9405 6.65116 20.8704 6.59963C20.8443 6.58041 20.8186 6.56084 20.7931 6.54094C20.7285 6.49434 20.6621 6.45027 20.5941 6.40884L20.5536 6.37203L20.3696 6.27306C20.3215 6.24729 20.2775 6.22521 20.2221 6.19576L20.2037 6.1884C19.9602 6.06539 19.7029 5.97176 19.4373 5.90948C19.3563 5.89107 19.2751 5.87267 19.2017 5.85795C19.1675 5.85065 19.1331 5.84451 19.0985 5.83954L19.0506 5.83218C19.0506 5.83218 18.9326 5.81378 18.9032 5.80662L18.7778 5.78822C18.6122 5.76613 18.4281 5.74405 18.2216 5.72217C17.9701 5.69939 17.7184 5.67983 17.4664 5.66348C17.4664 5.66348 17.2748 5.65223 17.2415 5.65223C16.9838 5.64139 16.7037 5.63035 16.409 5.62667C16.2618 5.62299 16.1105 5.62299 15.9596 5.62299C15.4105 5.62299 14.8432 5.64139 14.357 5.6598L13.8192 5.68168C13.657 5.68904 13.4948 5.6964 13.3216 5.70008C12.8648 5.71849 12.3307 5.73689 11.8148 5.73689C11.6381 5.73689 11.4575 5.73321 11.2733 5.72953L10.9269 5.71849C10.3081 5.69272 9.7664 5.63035 9.28012 5.53117L9.23595 5.52381L9.19915 5.51277L9.12901 5.49805C9.10692 5.49437 9.08484 5.48721 9.05539 5.47964L9.01122 5.4688C8.93004 5.4504 8.85274 5.42832 8.77177 5.40623L8.72739 5.39171L8.67586 5.38047L8.57648 5.34754L8.49918 5.32178L8.36279 5.27413C8.33334 5.26309 8.30021 5.25205 8.25952 5.23385C8.17854 5.2044 8.09756 5.16759 8.00554 5.12731L7.95749 5.10522C7.93541 5.09418 7.91332 5.08682 7.88756 5.0721L7.85811 5.05737L7.79165 5.02445L7.75116 5.00237L7.69963 4.9766C7.68491 4.96924 7.67386 4.96208 7.65914 4.95451L7.60025 4.92159C7.5708 4.90687 7.54115 4.88846 7.50434 4.86638L7.48226 4.85186C7.44913 4.83346 7.41968 4.81137 7.38656 4.79297L7.36815 4.78213C7.33503 4.76005 7.30537 4.74164 7.26489 4.7122L7.24648 4.69768C7.21335 4.67559 7.18023 4.65351 7.15078 4.62774L6.9148 4.45147C10.3817 3.23967 15.1087 2.24442 18.8038 2.18574C25.4722 2.29227 35.5003 5.44672 35.4083 7.42229C35.3234 9.41626 34.7525 13.8635 30.1546 21.105ZM3.32643 12.8167C2.44979 10.279 2.26186 8.50178 2.21012 7.44069C2.18068 6.84931 3.05405 6.15527 4.46871 5.47208V6.18083C4.46871 6.21396 4.47239 6.25077 4.47239 6.27285L4.47607 6.34627C4.47607 6.40127 4.47954 6.45628 4.48343 6.48941C4.53496 7.19449 4.73025 8.56047 5.44862 9.75755C4.81879 10.3671 4.00083 11.3331 3.40373 12.6404L3.32643 12.8167ZM36.6792 5.20767C34.1445 2.51639 24.7575 0.0964729 18.8553 0.000976562H18.7817C12.8722 0.0962684 3.48859 2.51619 0.95395 5.20808C0.121271 6.09311 -0.0188043 6.96689 0.00716582 7.54355C0.20961 11.7887 2.09234 16.7496 5.60709 22.2837C8.45828 26.7751 13.5869 31.1046 16.3904 33.2856C16.7382 33.5564 17.1024 33.8054 17.4809 34.0312L17.5435 34.068L18.8146 35.0007L20.0784 34.0752L20.1297 34.0422C20.3434 33.9136 20.7084 33.6971 21.1687 33.3372C23.4381 31.5745 29.0456 26.9694 32.0185 22.2837C35.5332 16.7498 37.4194 11.7885 37.6221 7.54355C37.6517 6.96321 37.5117 6.08943 36.679 5.20808L36.6792 5.20767Z" fill="#CCCCCC"/>
</g>
<path fill-rule="evenodd" clip-rule="evenodd" d="M26.7314 13.3888C26.7208 13.2342 26.706 13.0799 26.687 12.9261C26.6723 12.849 26.6578 12.7793 26.6468 12.7132C26.6284 12.6396 26.6061 12.5701 26.584 12.5075C26.5216 12.3427 26.4439 12.1841 26.3519 12.0339C26.3111 11.9643 26.2668 11.8969 26.2192 11.8319C26.1936 11.7951 26.1676 11.7621 26.1419 11.7253C26.1124 11.6922 26.0867 11.6556 26.0572 11.6225C26.0278 11.5893 26.002 11.5564 25.9687 11.5233C25.819 11.3564 25.655 11.2029 25.4787 11.0644C25.4051 11.0092 25.3352 10.954 25.2579 10.9063C25.2211 10.8808 25.1802 10.855 25.1434 10.8292C25.1083 10.8064 25.0727 10.7844 25.0366 10.7632C24.9765 10.7267 24.9151 10.6924 24.8526 10.6603C24.8192 10.6419 24.7861 10.6274 24.753 10.609C24.7125 10.5906 24.672 10.5685 24.6278 10.5501C24.5358 10.5098 24.4436 10.473 24.3514 10.4364C24.3182 10.4254 24.2814 10.4107 24.2446 10.3996C24.2005 10.3849 24.1598 10.3702 24.1158 10.3593C24.0714 10.3446 24.0273 10.3336 23.9866 10.3225C23.9424 10.3115 23.8982 10.3004 23.8577 10.2933C23.8136 10.282 23.7731 10.2749 23.7289 10.2638C23.6858 10.2568 23.6428 10.2495 23.5999 10.2418C23.5152 10.227 23.4304 10.2197 23.3457 10.2123C23.2978 10.2086 23.2537 10.2052 23.2093 10.2052C23.0803 10.2018 22.9514 10.198 22.8224 10.1939C22.7893 10.1939 22.7562 10.1939 22.7267 10.1902H22.6531C22.5903 10.1867 22.5314 10.1867 22.4799 10.1867C22.2846 10.1831 22.1335 10.1867 22.0157 10.1867C21.6987 10.1939 20.0115 10.282 20.0115 10.282L21.2973 9.69454L20.855 9.03363L20.7483 8.87209C20.7041 8.80951 20.6636 8.74735 20.6229 8.68846C20.6194 8.68478 20.6194 8.68109 20.6158 8.67741C20.6158 8.67373 20.6121 8.67373 20.6084 8.66637C20.601 8.65533 20.5937 8.64797 20.5826 8.63324L20.579 8.62956C20.5677 8.61484 20.5567 8.60032 20.5422 8.5856C20.4452 8.46854 20.3418 8.35692 20.2326 8.25126C20.1712 8.19102 20.1073 8.1335 20.0409 8.07888C19.9857 8.03471 19.9268 7.98685 19.8677 7.94657C19.779 7.87868 19.6854 7.81731 19.5878 7.76294C19.5841 7.75926 19.5804 7.75926 19.5804 7.75558C19.5399 7.73349 19.5029 7.71529 19.4627 7.69321C19.3387 7.62992 19.2076 7.58185 19.0721 7.55007C19.0093 7.53534 18.9433 7.52062 18.8731 7.50958L18.8179 7.49854C18.803 7.49506 18.7882 7.49117 18.7735 7.49117C18.737 7.48325 18.7002 7.47711 18.6631 7.47277C18.6247 7.46839 18.5866 7.46225 18.5488 7.45437C18.3908 7.43163 18.2323 7.41207 18.0736 7.39568C17.8672 7.37727 17.6388 7.35887 17.3885 7.34455L17.1783 7.33331C16.9352 7.32227 16.6699 7.31143 16.3863 7.30754C15.7565 7.29302 15.1042 7.31511 14.441 7.34067C14.2754 7.34803 14.1095 7.35171 13.9437 7.35907C13.7631 7.36644 13.5826 7.3738 13.3985 7.37748C12.68 7.40672 11.9616 7.42512 11.2506 7.40672C11.1252 7.40324 10.9964 7.39936 10.8711 7.392C10.2373 7.36644 9.58891 7.30018 8.94436 7.16808C8.90573 7.16166 8.8675 7.15306 8.82984 7.14232C8.76934 7.13068 8.70919 7.11725 8.64949 7.10203C8.53023 7.07537 8.41219 7.04351 8.29572 7.00653C8.24368 6.99227 8.19212 6.97631 8.14113 6.95868C8.13008 6.95521 8.11536 6.95153 8.10432 6.94785C8.05626 6.93312 8.0123 6.9184 7.96424 6.9C7.93112 6.88895 7.89431 6.87791 7.86118 6.86319C7.80229 6.84131 7.73951 6.81922 7.6843 6.79714C7.56651 6.75317 7.4522 6.70185 7.33442 6.65032C7.27532 6.62455 7.21643 6.59899 7.16122 6.56954C7.10285 6.54388 7.04622 6.51444 6.99169 6.48141C6.93996 6.45564 6.88843 6.4262 6.8369 6.39695C6.77432 6.36383 6.71543 6.32722 6.65633 6.29062C6.60112 6.25749 6.54591 6.22436 6.49438 6.18756C6.43916 6.15075 6.38375 6.11783 6.33222 6.07754C6.27701 6.04073 6.22179 6.00025 6.17006 5.95996V6.11783C6.17006 6.12887 6.17006 6.13991 6.17374 6.15095C6.17374 6.18388 6.17742 6.217 6.17742 6.25729C6.17742 6.27937 6.1811 6.30146 6.1811 6.32354C6.22159 6.87791 6.36903 7.97581 6.92155 8.89029L7.00274 9.02259C7.17639 9.28229 7.38745 9.51492 7.62909 9.71295C7.63277 9.71663 7.63645 9.72031 7.64013 9.72031L7.66221 9.73135C7.67244 9.73885 7.68357 9.74504 7.69534 9.74975C7.69902 9.74975 7.7027 9.75343 7.70638 9.75711C7.94432 9.88994 8.1904 10.0076 8.44316 10.1094C8.4726 10.1205 8.49837 10.1315 8.52802 10.1426C8.5501 10.1499 8.57587 10.161 8.59795 10.1683C8.83373 10.2528 9.09159 10.3225 9.35313 10.3518C9.36049 10.3518 9.36438 10.3557 9.36806 10.3557H9.37154C9.37154 10.3557 8.91103 10.3667 8.80428 10.3667C8.31801 10.3702 7.66937 10.3996 7.1242 10.5062C7.09796 10.5291 7.07095 10.5511 7.04323 10.5722C6.49806 11.046 5.90852 11.773 5.07604 13.0621C5.03167 13.1316 4.9875 13.1978 4.94312 13.2713C4.87687 13.3741 4.80693 13.4843 4.737 13.5943C4.737 13.5943 5.36335 12.9114 5.41856 12.8527C6.21423 11.975 7.19434 11.3875 7.71006 11.1963C7.71006 11.1963 6.91808 11.9308 6.11853 13.6604C5.97381 13.9734 5.84469 14.2933 5.73163 14.619C7.89799 12.0226 10.4363 11.0826 10.6316 11.0166L10.6279 11.0202C10.6169 11.0276 10.6095 11.0386 10.5985 11.0495C7.94952 13.4952 6.99169 16.2312 6.67106 18.1958C7.34914 16.9545 8.43211 15.9521 8.99957 15.6435C8.99957 15.6435 8.32537 16.4772 7.78736 18.3023C7.62172 18.864 7.52214 19.3597 7.46693 19.7746C7.46325 19.793 7.80229 20.2339 7.80229 20.2339C9.19486 17.2741 11.2874 15.5517 12.1863 14.9127C12.1863 14.9127 12.19 14.9127 12.19 14.909C12.5843 14.5896 12.8311 14.4391 12.8311 14.4391C10.7862 16.6312 9.94267 18.9338 9.6296 20.7772C10.3185 19.2571 11.1915 18.2362 11.6373 17.7733C11.8843 17.4833 12.0501 17.3328 12.0685 17.3144C10.2447 20.1897 10.3811 22.8777 10.6794 24.3687L11.1436 24.8793C11.1659 24.7983 11.2285 24.6001 11.2506 24.5231C12.2084 21.2731 14.1169 19.2755 14.651 18.7648L15.2036 18.1921C15.0784 18.3683 13.7411 20.3331 13.5863 23.9832C13.5458 24.9562 13.4758 26.0727 13.7631 27.2221L14.2089 27.6775C14.0838 25.9332 14.5296 24.1816 14.9089 23.4802C14.9089 23.4802 14.7725 24.7983 15.443 27.0642C15.7821 28.2061 16.1874 29.0324 16.5115 29.5795C16.7399 29.9651 17.8194 31.2027 18.4234 31.8857C18.5046 31.9777 18.5748 32.0585 18.6373 32.1245C18.6557 32.1354 18.7588 32.2529 18.7919 32.2787C18.8253 32.2529 18.9136 32.1943 18.9801 32.154C19.1015 32.0803 19.2784 31.9775 19.4958 31.8268C19.5473 31.7904 19.6025 31.7536 19.6541 31.7131C19.7093 31.6728 19.7684 31.6288 19.8309 31.581C19.8751 31.5442 19.923 31.5113 19.9708 31.4708C19.9747 31.4671 19.9821 31.4634 19.9857 31.4597C17.8378 29.6091 16.5448 26.4471 16.5041 26.3481C17.4214 27.7104 19.3005 29.0067 20.1808 29.5686C20.029 29.4137 19.8815 29.2545 19.7387 29.0911C19.68 29.0251 19.6209 28.959 19.5657 28.8928C19.5142 28.8306 19.4588 28.768 19.4109 28.7094C19.3483 28.6286 19.2821 28.5515 19.2193 28.467C19.1604 28.3934 19.1015 28.3163 19.05 28.2429C18.9948 28.1658 18.9357 28.0887 18.8803 28.0077L18.7772 27.8574C18.711 27.7581 18.6447 27.6591 18.5821 27.5562C18.5488 27.5047 18.5193 27.4534 18.4901 27.4057C18.4568 27.3542 18.4273 27.3029 18.3979 27.255C18.3683 27.2069 18.34 27.1579 18.3132 27.1082C18.2836 27.053 18.2541 27.0019 18.2247 26.9503C18.2061 26.9168 18.1889 26.8825 18.1731 26.8475C18.103 26.7152 18.0368 26.5757 17.9705 26.4399C17.9558 26.4031 17.9372 26.3663 17.9224 26.3297C17.9006 26.2784 17.8746 26.2269 17.8525 26.1718L17.7863 26.0175C17.7642 25.9661 17.7458 25.9148 17.7237 25.8596C17.6678 25.7196 17.6174 25.5775 17.5726 25.4336C17.5542 25.3784 17.5358 25.3234 17.521 25.2721C17.5026 25.2169 17.4877 25.1619 17.473 25.1069C17.4397 24.9965 17.4102 24.8851 17.3846 24.7727C17.3773 24.7396 17.3662 24.703 17.3589 24.6699C17.3515 24.6441 17.3478 24.6147 17.3405 24.5854C17.2928 24.3718 17.2546 24.1562 17.2262 23.9392C17.2194 23.9003 17.2145 23.8611 17.2114 23.8217C17.2041 23.7519 17.193 23.682 17.1894 23.6086C17.1857 23.5534 17.1783 23.5022 17.1746 23.447L17.1636 23.3074C17.1599 23.2597 17.1599 23.2156 17.1562 23.1679C17.1562 23.1239 17.1525 23.08 17.1525 23.0393C17.1489 22.9475 17.1489 22.8559 17.1489 22.7604C17.1489 22.6209 17.1525 22.4776 17.1562 22.3379C17.1599 22.1984 17.1673 22.0553 17.1783 21.9119C17.182 21.8424 17.1894 21.7725 17.193 21.7027C17.2004 21.633 17.2078 21.5633 17.2114 21.4897C17.2963 20.6525 17.4548 19.819 17.6979 19.0256C16.8947 19.694 16.1726 20.3844 15.7857 20.9609C15.8262 20.8654 16.9683 18.0745 18.8842 16.2018C19.0387 16.0513 19.9377 15.2726 20.0888 15.1515C20.6967 14.6669 21.4041 14.3326 22.2073 14.2078C22.2736 14.1968 22.3435 14.1894 22.4136 14.182C22.4417 14.1779 22.47 14.1755 22.4983 14.1747C22.5351 14.171 22.5719 14.1673 22.6126 14.1673C23.4156 14.116 24.0236 14.1013 24.5062 14.1195C24.5503 14.1195 24.5908 14.1232 24.6315 14.127C25.0293 14.1454 25.3386 14.1894 25.6041 14.2702C25.6298 14.2775 25.6556 14.2849 25.6777 14.2923C26.0202 14.406 26.2672 14.5675 26.5288 14.7843C26.584 14.8321 26.6431 14.8798 26.702 14.9311C26.702 14.9311 26.7093 14.8687 26.7167 14.7695C26.7277 14.5017 26.7609 13.925 26.7314 13.3888Z" fill="white"/>
<path fill-rule="evenodd" clip-rule="evenodd" d="M19.4958 10.6055C19.4551 10.5723 19.0942 10.2932 18.5122 9.98116C18.4938 9.97012 18.4715 9.95908 18.4494 9.94804C18.4347 9.93699 18.4163 9.92963 18.4016 9.92227C18.2842 9.86117 18.165 9.80368 18.0441 9.74989C17.6094 9.9554 17.0127 10.0546 16.3088 9.86358C15.7195 9.70572 15.3068 9.2174 15.1189 8.96383C14.4594 8.88306 13.4057 8.68123 13.4057 8.68123H15.7342C16.6847 8.65546 16.9683 8.73235 17.6057 8.98591C17.8231 9.07037 18.1067 9.26504 18.3979 9.50736C18.4163 9.52208 18.431 9.53681 18.4457 9.54785L18.5083 9.59918C18.8768 9.91143 19.2414 10.2822 19.4958 10.6053" fill="#CCCCCC"/>
<path d="M53.644 22.2642C53.4423 22.1605 53.2214 22.0706 52.9815 21.9942C52.7416 21.9179 52.5071 21.8797 52.2781 21.8797C51.9618 21.8797 51.7082 21.9533 51.5174 22.1006C51.332 22.2478 51.2392 22.4441 51.2392 22.6895C51.2392 22.8749 51.2992 23.033 51.4192 23.1639C51.5392 23.2893 51.6973 23.3984 51.8936 23.4911C52.0899 23.5838 52.2944 23.671 52.5071 23.7528C52.6925 23.8237 52.8752 23.9028 53.0551 23.99C53.2351 24.0773 53.3959 24.1863 53.5377 24.3172C53.6849 24.4481 53.7995 24.609 53.8812 24.7998C53.9685 24.9907 54.0121 25.2279 54.0121 25.5114C54.0121 25.8223 53.9331 26.1058 53.7749 26.3621C53.6222 26.6184 53.4014 26.8202 53.1124 26.9674C52.8234 27.1146 52.4798 27.1882 52.0817 27.1882C51.82 27.1882 51.5692 27.1583 51.3292 27.0983C51.0947 27.0383 50.8766 26.9619 50.6749 26.8692C50.4731 26.7711 50.2931 26.6702 50.135 26.5666L50.4867 25.945C50.6176 26.0377 50.7676 26.1276 50.9366 26.2149C51.1057 26.2967 51.2829 26.3648 51.4683 26.4194C51.6537 26.4684 51.8336 26.493 52.0081 26.493C52.1935 26.493 52.3762 26.4603 52.5562 26.3948C52.7416 26.3239 52.8942 26.2176 53.0142 26.0758C53.1342 25.934 53.1942 25.7459 53.1942 25.5114C53.1942 25.3097 53.1396 25.1434 53.0306 25.0125C52.927 24.8762 52.7879 24.7616 52.6134 24.6689C52.4389 24.5708 52.2535 24.4835 52.0572 24.4072C51.8718 24.3363 51.6837 24.26 51.4928 24.1782C51.302 24.0909 51.1247 23.9873 50.9611 23.8673C50.7976 23.7419 50.6667 23.5892 50.5685 23.4093C50.4704 23.2293 50.4213 23.0112 50.4213 22.7549C50.4213 22.4441 50.4949 22.1742 50.6421 21.9451C50.7948 21.7107 51.002 21.528 51.2638 21.3971C51.5255 21.2608 51.8255 21.1872 52.1635 21.1763C52.5453 21.1763 52.8806 21.2226 53.1696 21.3153C53.4641 21.408 53.7231 21.5225 53.9467 21.6589L53.644 22.2642Z" fill="#CCCCCC"/>
<path d="M59.689 26.6814C59.5909 26.7468 59.4573 26.8204 59.2882 26.9022C59.1192 26.984 58.9201 27.0522 58.6911 27.1067C58.4675 27.1612 58.2222 27.1885 57.955 27.1885C57.4969 27.183 57.0825 27.1012 56.7117 26.9431C56.3463 26.785 56.0355 26.5696 55.7792 26.2969C55.5229 26.0243 55.3239 25.7107 55.1821 25.3563C55.0458 24.9964 54.9776 24.6147 54.9776 24.2111C54.9776 23.7694 55.0485 23.3632 55.1903 22.9924C55.3375 22.6161 55.542 22.2917 55.8037 22.019C56.0655 21.7409 56.3736 21.5255 56.728 21.3728C57.0879 21.2201 57.4805 21.1438 57.9059 21.1438C58.2603 21.1438 58.5821 21.1929 58.8711 21.291C59.1601 21.3837 59.4082 21.4955 59.6154 21.6264L59.2964 22.3626C59.1328 22.2535 58.9338 22.1499 58.6993 22.0517C58.4703 21.9536 58.214 21.9045 57.9304 21.9045C57.6414 21.9045 57.3688 21.9618 57.1125 22.0763C56.8562 22.1908 56.6299 22.3516 56.4336 22.5589C56.2373 22.7661 56.0818 23.0087 55.9673 23.2868C55.8583 23.5595 55.8037 23.854 55.8037 24.1702C55.8037 24.492 55.8528 24.7919 55.951 25.07C56.0546 25.3426 56.1991 25.5798 56.3845 25.7816C56.5753 25.9834 56.8044 26.1415 57.0716 26.256C57.3388 26.3705 57.6387 26.4278 57.9713 26.4278C58.2712 26.4278 58.5384 26.3814 58.7729 26.2887C59.0074 26.196 59.201 26.0924 59.3537 25.9779L59.689 26.6814Z" fill="#CCCCCC"/>
<path d="M60.649 24.1702C60.649 23.7613 60.7253 23.3768 60.878 23.0169C61.0362 22.6516 61.2543 22.3298 61.5324 22.0517C61.8105 21.7682 62.1295 21.5473 62.4894 21.3892C62.8547 21.2256 63.2474 21.1438 63.6672 21.1438C64.0817 21.1438 64.4688 21.2256 64.8287 21.3892C65.1941 21.5473 65.5158 21.7682 65.7939 22.0517C66.0775 22.3298 66.2983 22.6516 66.4565 23.0169C66.6146 23.3768 66.6937 23.7613 66.6937 24.1702C66.6937 24.5901 66.6146 24.9827 66.4565 25.3481C66.2983 25.7134 66.0775 26.0352 65.7939 26.3133C65.5158 26.5859 65.1941 26.8013 64.8287 26.9595C64.4688 27.1121 64.0817 27.1885 63.6672 27.1885C63.2474 27.1885 62.8547 27.1121 62.4894 26.9595C62.1295 26.8068 61.8105 26.5941 61.5324 26.3215C61.2543 26.0488 61.0362 25.7298 60.878 25.3644C60.7253 24.9991 60.649 24.601 60.649 24.1702ZM61.4669 24.1784C61.4669 24.4892 61.5242 24.781 61.6387 25.0536C61.7532 25.3208 61.9114 25.558 62.1131 25.7652C62.3149 25.9725 62.5494 26.1361 62.8166 26.256C63.0838 26.3705 63.3728 26.4278 63.6836 26.4278C63.989 26.4278 64.2753 26.3705 64.5425 26.256C64.8097 26.1361 65.0414 25.9725 65.2377 25.7652C65.434 25.558 65.5894 25.3208 65.704 25.0536C65.8185 24.781 65.8757 24.4865 65.8757 24.1702C65.8757 23.8594 65.8185 23.5677 65.704 23.295C65.5894 23.0169 65.4313 22.7743 65.2295 22.567C65.0278 22.3598 64.7933 22.199 64.5261 22.0844C64.2589 21.9645 63.9726 21.9045 63.6672 21.9045C63.3564 21.9045 63.0674 21.9645 62.8002 22.0844C62.533 22.2044 62.2985 22.368 62.0968 22.5752C61.895 22.7824 61.7396 23.0251 61.6305 23.3032C61.5215 23.5759 61.4669 23.8676 61.4669 24.1784Z" fill="#CCCCCC"/>
<path d="M69.6009 21.2087C69.9008 21.2087 70.1762 21.2496 70.427 21.3314C70.6833 21.4078 70.9041 21.525 71.0895 21.6832C71.2804 21.8358 71.4276 22.0267 71.5312 22.2557C71.6403 22.4793 71.6948 22.741 71.6948 23.041C71.6948 23.2754 71.6594 23.5045 71.5885 23.728C71.5231 23.9516 71.4113 24.1561 71.2531 24.3415C71.095 24.5215 70.8878 24.6687 70.6315 24.7832C70.3807 24.8923 70.0698 24.9468 69.699 24.9468H68.8238V27.1226H68.0304V21.2087H69.6009ZM69.6827 24.1861C69.9171 24.1861 70.1107 24.1507 70.2634 24.0798C70.4215 24.0089 70.5442 23.9189 70.6315 23.8098C70.7187 23.6953 70.7814 23.5726 70.8196 23.4418C70.8578 23.3109 70.8769 23.1882 70.8769 23.0737C70.8769 22.9537 70.8551 22.831 70.8114 22.7056C70.7733 22.5747 70.7078 22.4548 70.6151 22.3457C70.5279 22.2366 70.4106 22.1467 70.2634 22.0758C70.1216 22.0049 69.9471 21.9694 69.7399 21.9694H68.8238V24.1861H69.6827ZM70.656 24.636L72.202 27.1226H71.2859L69.7154 24.6605L70.656 24.636Z" fill="#CCCCCC"/>
<path d="M73.4141 21.2087H77.2585V21.9694H74.2075V23.7689H76.9313V24.5296H74.2075V26.3619H77.373V27.1226H73.4141V21.2087Z" fill="#CCCCCC"/>
<path d="M37.9369 27.295L40.6525 21.0376H40.7179L43.4336 27.295H42.0594L40.3253 22.8944L41.1842 22.3054L39.1066 27.295H37.9369ZM39.7936 25.1192H41.6013L42.0185 26.1171H39.4256L39.7936 25.1192Z" fill="#CCCCCC"/>
<path d="M40.5181 20.833L37.6253 27.4993H37.9368H39.2428L39.7333 26.3215H41.4559L41.92 27.4993H43.7452L41.4475 22.2049L41.3377 21.9521L40.852 20.833H40.5181ZM40.685 21.4756L40.9942 22.1877L40.1143 22.7912L40.685 21.4756ZM41.229 22.7293L43.1217 27.0903H42.1983L41.8952 26.3215H42.3254L41.7374 24.9148H41.3413L40.8444 23.6535L41.229 22.7293ZM40.0884 22.8511L40.4031 23.6495L39.8759 24.9148H39.651L39.6019 25.0486L39.1322 26.3215H39.2904L38.9701 27.0903H38.2488L40.0884 22.8511ZM40.7298 22.8651L40.6287 23.1072L40.5752 22.971L40.7298 22.8651ZM40.6184 24.1963L40.9015 24.9148H40.3192L40.6184 24.1963ZM40.1487 25.3238H41.0625L41.2945 25.9125H39.9034L40.1487 25.3238Z" fill="#CCCCCC"/>
<path d="M44.3032 27.2948V21.2747H46.1027C46.7079 21.2747 47.2233 21.3646 47.6486 21.5446C48.0739 21.7245 48.4147 21.9645 48.671 22.2644C48.9328 22.5643 49.1236 22.8997 49.2436 23.2705C49.3636 23.6413 49.4236 24.0148 49.4236 24.3911C49.4236 24.8382 49.3418 25.2417 49.1782 25.6016C49.02 25.9561 48.8019 26.2615 48.5238 26.5178C48.2457 26.7686 47.924 26.9622 47.5586 27.0985C47.1933 27.2294 46.8061 27.2948 46.3971 27.2948H44.3032ZM45.4892 26.1497H46.1926C46.4926 26.1497 46.7652 26.1115 47.0106 26.0352C47.256 25.9534 47.4659 25.8361 47.6404 25.6834C47.8204 25.5308 47.9567 25.3399 48.0494 25.1109C48.1476 24.8764 48.1966 24.6092 48.1966 24.3093C48.1966 23.9167 48.1312 23.5977 48.0003 23.3523C47.8749 23.1014 47.7168 22.9078 47.5259 22.7715C47.3405 22.6352 47.1496 22.5425 46.9533 22.4934C46.757 22.4389 46.5907 22.4116 46.4544 22.4116H45.4892V26.1497Z" fill="#CCCCCC"/>
<path d="M44.0988 21.0704V27.4994H44.3032H46.3973C46.828 27.4994 47.2396 27.4304 47.6278 27.2913L47.629 27.2909L47.6302 27.2905C48.0182 27.1458 48.3632 26.9382 48.6607 26.6699L48.6615 26.669L48.6623 26.6682C48.9605 26.3935 49.1956 26.0645 49.3644 25.6865L49.3648 25.6853C49.5413 25.2966 49.628 24.8629 49.628 24.3913C49.628 23.9933 49.5645 23.5979 49.4383 23.2079C49.3101 22.8116 49.1048 22.4512 48.8265 22.1319C48.547 21.8049 48.1778 21.5464 47.7285 21.3563C47.2711 21.1628 46.7282 21.0703 46.1026 21.0703L44.0988 21.0704ZM44.5077 21.4794H46.1025C46.6875 21.4794 47.1758 21.567 47.5691 21.7334C47.9704 21.9032 48.2825 22.1248 48.5156 22.3976L48.5165 22.3984L48.5169 22.3992C48.7613 22.6793 48.9377 22.9891 49.0493 23.3338C49.163 23.6853 49.219 24.0369 49.219 24.3914C49.219 24.8136 49.1425 25.1864 48.9921 25.5173L48.9917 25.5181L48.9913 25.5185C48.844 25.8488 48.6434 26.1297 48.3858 26.3672C48.3857 26.3673 48.3856 26.3674 48.3854 26.3676C48.1273 26.6001 47.8298 26.7792 47.488 26.9068C47.1459 27.0291 46.7839 27.0905 46.3973 27.0905H44.5077V21.4794ZM45.2846 22.2075V26.3544H45.489H46.1928C46.51 26.3544 46.8035 26.3139 47.0714 26.2305L47.0735 26.2301L47.0755 26.2293C47.3427 26.1403 47.5773 26.0098 47.7737 25.8383C47.9781 25.6645 48.1347 25.4447 48.2386 25.1885C48.3483 24.9257 48.4011 24.6311 48.4011 24.3094C48.4011 23.8951 48.3332 23.5436 48.1818 23.2586C48.0451 22.986 47.8673 22.7647 47.6471 22.6068L47.6462 22.6064C47.4431 22.4572 47.2285 22.3523 47.0044 22.2961C46.798 22.239 46.617 22.2074 46.4544 22.2074L45.2846 22.2075ZM45.6935 22.6164H46.4544C46.5634 22.6164 46.7139 22.6395 46.8985 22.6907L46.9013 22.6916L46.9037 22.692C47.0715 22.7339 47.2378 22.8135 47.4049 22.9364L47.4057 22.9376L47.407 22.9384C47.5668 23.0526 47.7041 23.2171 47.8175 23.4441L47.8188 23.4465L47.82 23.4489C47.9296 23.6543 47.9921 23.9396 47.9921 24.3095C47.9921 24.5872 47.9469 24.8266 47.8607 25.0324L47.8603 25.0333L47.8599 25.0345C47.7786 25.2355 47.6628 25.3965 47.5081 25.5277L47.5068 25.529L47.5056 25.5302C47.3537 25.6631 47.1698 25.7666 46.9477 25.8409C46.7254 25.9098 46.4745 25.9456 46.1928 25.9456H45.6936L45.6935 22.6164Z" fill="#CCCCCC"/>
</svg>
