<?xml version="1.0" encoding="UTF-8" standalone="no"?><!DOCTYPE svg PUBLIC "-//W3C//DTD SVG 1.1//EN" "http://www.w3.org/Graphics/SVG/1.1/DTD/svg11.dtd"><svg width="100%" height="100%" viewBox="0 0 125 35" version="1.1" xmlns="http://www.w3.org/2000/svg" xmlns:xlink="http://www.w3.org/1999/xlink" xml:space="preserve" xmlns:serif="http://www.serif.com/" style="fill-rule:evenodd;clip-rule:evenodd;stroke-linejoin:round;stroke-miterlimit:2;"><path d="M83.084,22.227l-3.418,0l0.001,-10.362l3.25,0c2.867,0 5.018,2.125 5.018,5.205c0,3.055 -2.055,5.157 -4.851,5.157Zm-0.096,-13.537l-7.097,0l-0.001,16.712l6.955,0c5.282,0 8.938,-3.438 8.938,-8.356c0,-4.942 -3.609,-8.356 -8.795,-8.356Zm22.296,9.717c0,2.411 -1.481,3.868 -3.728,3.868c-2.246,0 -3.823,-1.457 -3.823,-3.868l0,-9.717l-3.776,0l-0.001,9.717c0.001,4.416 2.964,7.162 7.6,7.162c4.613,0 7.505,-2.745 7.505,-7.162l0,-9.717l-3.777,0l0,9.717Zm10.825,-5.3c0,-0.908 0.861,-1.361 2.127,-1.361c1.338,0 3.441,0.668 5.21,1.719l1.458,-3.128c-1.673,-1.098 -4.016,-1.814 -6.357,-1.814c-3.872,0 -6.477,1.91 -6.477,4.942c0,5.921 8.914,4.083 8.914,7.234c0,1.026 -0.932,1.599 -2.485,1.599c-1.769,0 -4.207,-0.979 -5.927,-2.507l-1.506,3.08c1.888,1.6 4.637,2.651 7.385,2.651c3.705,0 6.548,-1.767 6.548,-5.038c0.024,-6.017 -8.89,-4.298 -8.89,-7.377Zm-61.485,-4.417l-4.469,0l-3.514,5.109l-3.489,-5.109l-4.397,0l5.592,8.165l-5.999,8.547l4.422,0l3.871,-5.562l3.944,5.562l4.517,0l-6.047,-8.714l5.569,-7.998Zm9.844,13.585c-2.796,0 -5.162,-2.292 -5.162,-5.229c0,-2.937 2.343,-5.181 5.162,-5.181c2.797,0 5.067,2.244 5.067,5.181c0,2.937 -2.27,5.229 -5.067,5.229Zm-0.047,-13.705c-5.115,0 -8.986,3.605 -8.986,8.476c0,4.846 3.871,8.523 8.986,8.523c5.114,0 8.986,-3.7 8.986,-8.523c-0.001,-4.846 -3.872,-8.476 -8.986,-8.476Z" style="fill:#9ea5a7;fill-rule:nonzero;"/><path d="M25.569,0l-12.784,8.523l0,8.523l12.784,-8.523l0,-8.523Zm-25.569,17.046l6.392,4.262l-6.392,4.261l0,8.523l19.177,-12.784l-6.392,-4.262l-12.785,-8.523l0,8.523Zm25.569,17.046l0,-8.523l-6.392,-4.261l-3.551,6.154l9.943,6.63Z" style="fill:#9ea5a7;fill-rule:nonzero;"/></svg>