<svg width="177" height="50" viewBox="0 0 177 50" fill="none" xmlns="http://www.w3.org/2000/svg">
<path d="M86.7281 9.16053L81.2849 24.359H78.1043L74.9237 15.3296L71.6791 24.359H68.4986L63.0767 9.16053H67.1538L70.2703 18.7449L73.6643 9.16053H76.3966L79.6626 18.9157L82.9285 9.16053H86.7281Z" fill="#CCCCCC"/>
<path d="M98.2404 13.5151V24.359H94.4408V22.8861C94.1277 23.3984 93.6723 23.804 93.0746 24.1028C92.4769 24.3874 91.8223 24.5297 91.1108 24.5297C90.1858 24.5297 89.3604 24.302 88.6346 23.8466C87.9088 23.3913 87.3396 22.7438 86.9269 21.9042C86.5285 21.0503 86.3292 20.0684 86.3292 18.9584C86.3292 17.8342 86.5356 16.838 86.9483 15.9699C87.361 15.1019 87.9302 14.4259 88.656 13.9421C89.3817 13.4582 90.2 13.2163 91.1108 13.2163C91.8223 13.2163 92.4698 13.3728 93.0533 13.6859C93.651 13.9847 94.1135 14.3903 94.4408 14.9026V13.5151H98.2404ZM92.3061 21.648C92.9892 21.648 93.5158 21.4132 93.8858 20.9436C94.2558 20.474 94.4408 19.798 94.4408 18.9157C94.4408 18.0192 94.2558 17.3361 93.8858 16.8665C93.5158 16.3826 92.9892 16.1407 92.3061 16.1407C91.6373 16.1407 91.1108 16.3897 90.7265 16.8878C90.3423 17.3717 90.1502 18.0619 90.1502 18.9584C90.1502 19.8265 90.3352 20.4953 90.7052 20.9649C91.0752 21.4203 91.6088 21.648 92.3061 21.648Z" fill="#CCCCCC"/>
<path d="M108.093 24.359L104.4 19.6842V24.359H100.537V8.64822H104.4V18.0405L108.029 13.5365H112.597L108.328 18.7236L112.768 24.359H108.093Z" fill="#CCCCCC"/>
<path d="M124.631 13.5151V24.359H120.832V22.8861C120.518 23.3984 120.063 23.804 119.465 24.1028C118.868 24.3874 118.213 24.5297 117.502 24.5297C116.577 24.5297 115.751 24.302 115.025 23.8466C114.3 23.3913 113.73 22.7438 113.318 21.9042C112.919 21.0503 112.72 20.0684 112.72 18.9584C112.72 17.8342 112.926 16.838 113.339 15.9699C113.752 15.1019 114.321 14.4259 115.047 13.9421C115.773 13.4582 116.591 13.2163 117.502 13.2163C118.213 13.2163 118.861 13.3728 119.444 13.6859C120.042 13.9847 120.504 14.3903 120.832 14.9026V13.5151H124.631ZM118.697 21.648C119.38 21.648 119.907 21.4132 120.277 20.9436C120.647 20.474 120.832 19.798 120.832 18.9157C120.832 18.0192 120.647 17.3361 120.277 16.8665C119.907 16.3826 119.38 16.1407 118.697 16.1407C118.028 16.1407 117.502 16.3897 117.117 16.8878C116.733 17.3717 116.541 18.0619 116.541 18.9584C116.541 19.8265 116.726 20.4953 117.096 20.9649C117.466 21.4203 118 21.648 118.697 21.648Z" fill="#CCCCCC"/>
<path d="M132.307 24.5297C130.471 24.5297 129.034 24.0316 127.995 23.0355C126.956 22.0393 126.437 20.6803 126.437 18.9584C126.437 17.8199 126.686 16.8167 127.184 15.9486C127.696 15.0805 128.408 14.4117 129.318 13.9421C130.229 13.4582 131.282 13.2163 132.478 13.2163C133.274 13.2163 134.057 13.3372 134.826 13.5792C135.594 13.8069 136.206 14.1199 136.661 14.5184L135.679 17.1867C135.295 16.8736 134.847 16.6245 134.335 16.4395C133.822 16.2545 133.331 16.162 132.862 16.162C132.065 16.162 131.453 16.3897 131.026 16.8451C130.599 17.3005 130.386 17.9765 130.386 18.873C130.386 19.7838 130.599 20.474 131.026 20.9436C131.453 21.399 132.072 21.6267 132.883 21.6267C133.353 21.6267 133.837 21.5342 134.335 21.3492C134.847 21.1642 135.295 20.9151 135.679 20.602L136.661 23.2276C136.192 23.6403 135.566 23.9605 134.783 24.1882C134.014 24.4159 133.189 24.5297 132.307 24.5297Z" fill="#CCCCCC"/>
<path d="M135.288 25.8959C135.7 25.9955 136.049 26.0453 136.334 26.0453C136.789 26.0453 137.166 25.9101 137.465 25.6397C137.764 25.3836 137.913 24.9851 137.913 24.4443V13.5151H141.777V24.487C141.777 25.9528 141.393 27.0984 140.624 27.9238C139.87 28.7491 138.76 29.1618 137.294 29.1618C136.469 29.1618 135.8 29.0622 135.288 28.863V25.8959ZM141.82 8.19995V11.6794H137.785V8.19995H141.82Z" fill="#CCCCCC"/>
<path d="M154.095 19.3213H147.286C147.357 20.1609 147.599 20.7657 148.011 21.1357C148.424 21.5057 149.029 21.6907 149.826 21.6907C150.366 21.6907 150.907 21.6053 151.448 21.4345C151.989 21.2495 152.48 21.0005 152.921 20.6874L153.903 23.249C153.362 23.6474 152.707 23.9605 151.939 24.1882C151.171 24.4159 150.402 24.5297 149.634 24.5297C148.396 24.5297 147.321 24.302 146.41 23.8466C145.5 23.3913 144.802 22.7438 144.318 21.9042C143.835 21.0503 143.593 20.047 143.593 18.8944C143.593 17.7986 143.82 16.8238 144.276 15.9699C144.745 15.1019 145.386 14.4259 146.197 13.9421C147.022 13.4582 147.961 13.2163 149.015 13.2163C150.039 13.2163 150.936 13.444 151.704 13.8994C152.473 14.3547 153.063 15.0094 153.476 15.8632C153.889 16.7028 154.095 17.6847 154.095 18.809V19.3213ZM149.121 15.8632C148.168 15.8632 147.57 16.4182 147.328 17.5282H150.786C150.644 16.4182 150.089 15.8632 149.121 15.8632Z" fill="#CCCCCC"/>
<path d="M158.294 22.1603V24.359H156.096V22.1603H158.294Z" fill="#CCCCCC"/>
<path d="M161.122 13.5792H163.769V24.359H161.122V13.5792ZM163.918 8.69091V11.3165H160.951V8.69091H163.918Z" fill="#CCCCCC"/>
<path d="M172.856 13.3017C175.432 13.3017 176.72 14.7817 176.72 17.7417V24.359H174.052V17.8697C174.052 17.0159 173.888 16.3969 173.561 16.0126C173.234 15.6142 172.728 15.4149 172.045 15.4149C171.234 15.4149 170.58 15.6782 170.082 16.2047C169.583 16.717 169.334 17.4001 169.334 18.254V24.359H166.687V16.6317C166.687 15.4932 166.631 14.4757 166.517 13.5792H169.014L169.206 15.3509C169.576 14.6963 170.074 14.1911 170.701 13.8353C171.341 13.4796 172.06 13.3017 172.856 13.3017Z" fill="#CCCCCC"/>
<path d="M69.6011 34.6993C70.1616 34.8555 70.598 35.1403 70.9104 35.5537C71.2228 35.958 71.379 36.4634 71.379 37.0698C71.379 37.9243 71.0942 38.5858 70.5245 39.0544C69.9549 39.5138 69.1509 39.7435 68.1127 39.7435H64.0332V29.9307H67.9749C68.9764 29.9307 69.7527 30.1558 70.304 30.606C70.8645 31.047 71.1447 31.6764 71.1447 32.4941C71.1447 33.0179 71.0069 33.4727 70.7313 33.8586C70.4648 34.2353 70.0881 34.5155 69.6011 34.6993ZM65.1495 34.2858H67.7957C68.5307 34.2858 69.0866 34.1388 69.4633 33.8448C69.84 33.5508 70.0284 33.1189 70.0284 32.5493C70.0284 31.4283 69.2842 30.8679 67.7957 30.8679H65.1495V34.2858ZM68.0162 38.8063C68.788 38.8063 69.3531 38.6639 69.7114 38.3791C70.0789 38.085 70.2627 37.6394 70.2627 37.0422C70.2627 35.8386 69.5139 35.2368 68.0162 35.2368H65.1495V38.8063H68.0162Z" fill="#CCCCCC"/>
<path d="M73.2763 32.8111H74.3927V39.7435H73.2763V32.8111ZM74.5305 29.8756V31.1435H73.1661V29.8756H74.5305Z" fill="#CCCCCC"/>
<path d="M82.3625 32.8111V39.7435H81.2738V38.5444C81.0532 38.9671 80.7454 39.2887 80.3504 39.5092C79.9553 39.7297 79.5097 39.84 79.0135 39.84C78.1958 39.84 77.5756 39.6103 77.1529 39.1509C76.7303 38.6915 76.519 38.0115 76.519 37.1111V32.8111H77.6353V37.0835C77.6353 37.7083 77.7639 38.1677 78.0212 38.4618C78.2785 38.7558 78.669 38.9028 79.1927 38.9028C79.8083 38.9028 80.3044 38.7052 80.6811 38.3101C81.0578 37.9059 81.2462 37.3776 81.2462 36.7252V32.8111H82.3625Z" fill="#CCCCCC"/>
<path d="M87.7396 32.6457C87.9693 32.6457 88.1806 32.6733 88.3735 32.7284L88.346 33.7483C88.1347 33.6748 87.8912 33.638 87.6155 33.638C86.9448 33.638 86.4441 33.8494 86.1133 34.272C85.7917 34.6855 85.6309 35.1908 85.6309 35.788V39.7435H84.5146V34.7544C84.5146 34.0377 84.4778 33.39 84.4043 32.8111H85.4655L85.5758 34.0929C85.7504 33.6243 86.0306 33.2659 86.4165 33.0179C86.8024 32.7698 87.2434 32.6457 87.7396 32.6457Z" fill="#CCCCCC"/>
<path d="M92.2399 39.84C91.5876 39.84 91.0133 39.6929 90.5172 39.3989C90.021 39.1049 89.6351 38.6869 89.3595 38.1448C89.093 37.6027 88.9598 36.9687 88.9598 36.2428C88.9598 35.517 89.093 34.883 89.3595 34.3409C89.6351 33.7988 90.021 33.3808 90.5172 33.0868C91.0133 32.7927 91.5876 32.6457 92.2399 32.6457C92.8923 32.6457 93.4665 32.7927 93.9627 33.0868C94.4588 33.3808 94.8401 33.7988 95.1066 34.3409C95.3822 34.883 95.5201 35.517 95.5201 36.2428C95.5201 36.9687 95.3822 37.6027 95.1066 38.1448C94.8401 38.6869 94.4588 39.1049 93.9627 39.3989C93.4665 39.6929 92.8923 39.84 92.2399 39.84ZM92.2399 38.9166C92.929 38.9166 93.4573 38.6915 93.8249 38.2412C94.1924 37.7818 94.3762 37.1157 94.3762 36.2428C94.3762 35.3975 94.1878 34.7452 93.8111 34.2858C93.4344 33.8172 92.9107 33.5829 92.2399 33.5829C91.56 33.5829 91.0317 33.8172 90.655 34.2858C90.2783 34.7452 90.0899 35.3975 90.0899 36.2428C90.0899 37.1157 90.2737 37.7818 90.6412 38.2412C91.0179 38.6915 91.5508 38.9166 92.2399 38.9166Z" fill="#CCCCCC"/>
<path d="M104.313 32.6457C104.92 32.6457 105.457 32.7973 105.926 33.1005C106.394 33.4037 106.757 33.831 107.014 34.3823C107.272 34.9244 107.4 35.5537 107.4 36.2704C107.4 36.9871 107.272 37.6165 107.014 38.1585C106.757 38.6915 106.394 39.1049 105.926 39.3989C105.466 39.6929 104.929 39.84 104.313 39.84C103.771 39.84 103.298 39.7205 102.894 39.4816C102.489 39.2427 102.181 38.9028 101.97 38.4618V42.7204H100.854V34.7544C100.854 34.0377 100.817 33.39 100.744 32.8111H101.805L101.915 34.148C102.108 33.6702 102.411 33.3027 102.825 33.0454C103.247 32.779 103.743 32.6457 104.313 32.6457ZM104.106 38.9166C104.786 38.9166 105.31 38.6869 105.678 38.2275C106.054 37.7681 106.243 37.1157 106.243 36.2704C106.243 35.4251 106.054 34.7682 105.678 34.2996C105.301 33.8218 104.777 33.5829 104.106 33.5829C103.417 33.5829 102.889 33.8126 102.521 34.272C102.154 34.7314 101.97 35.3884 101.97 36.2428C101.97 37.0973 102.154 37.7589 102.521 38.2275C102.889 38.6869 103.417 38.9166 104.106 38.9166Z" fill="#CCCCCC"/>
<path d="M111.984 39.84C111.332 39.84 110.758 39.6929 110.262 39.3989C109.765 39.1049 109.379 38.6869 109.104 38.1448C108.837 37.6027 108.704 36.9687 108.704 36.2428C108.704 35.517 108.837 34.883 109.104 34.3409C109.379 33.7988 109.765 33.3808 110.262 33.0868C110.758 32.7927 111.332 32.6457 111.984 32.6457C112.637 32.6457 113.211 32.7927 113.707 33.0868C114.203 33.3808 114.585 33.7988 114.851 34.3409C115.127 34.883 115.264 35.517 115.264 36.2428C115.264 36.9687 115.127 37.6027 114.851 38.1448C114.585 38.6869 114.203 39.1049 113.707 39.3989C113.211 39.6929 112.637 39.84 111.984 39.84ZM111.984 38.9166C112.673 38.9166 113.202 38.6915 113.569 38.2412C113.937 37.7818 114.121 37.1157 114.121 36.2428C114.121 35.3975 113.932 34.7452 113.555 34.2858C113.179 33.8172 112.655 33.5829 111.984 33.5829C111.304 33.5829 110.776 33.8172 110.399 34.2858C110.023 34.7452 109.834 35.3975 109.834 36.2428C109.834 37.1157 110.018 37.7818 110.386 38.2412C110.762 38.6915 111.295 38.9166 111.984 38.9166Z" fill="#CCCCCC"/>
<path d="M123.11 29.5999V39.7435H122.007V38.4893C121.805 38.9212 121.498 39.2565 121.084 39.4954C120.68 39.7251 120.207 39.84 119.665 39.84C119.058 39.84 118.521 39.6883 118.052 39.3851C117.593 39.0819 117.234 38.6593 116.977 38.1172C116.72 37.5659 116.591 36.9319 116.591 36.2153C116.591 35.4986 116.715 34.8738 116.963 34.3409C117.221 33.7988 117.583 33.3808 118.052 33.0868C118.521 32.7927 119.058 32.6457 119.665 32.6457C120.207 32.6457 120.68 32.7652 121.084 33.0041C121.488 33.2338 121.792 33.5599 121.994 33.9826V29.5999H123.11ZM119.885 38.9166C120.565 38.9166 121.089 38.6869 121.456 38.2275C121.824 37.7589 122.007 37.0973 122.007 36.2428C122.007 35.3975 121.824 34.7452 121.456 34.2858C121.089 33.8172 120.565 33.5829 119.885 33.5829C119.205 33.5829 118.672 33.8126 118.286 34.272C117.91 34.7314 117.721 35.3792 117.721 36.2153C117.721 37.0698 117.91 37.7359 118.286 38.2137C118.672 38.6823 119.205 38.9166 119.885 38.9166Z" fill="#CCCCCC"/>
<path d="M128.493 32.6457C128.723 32.6457 128.934 32.6733 129.127 32.7284L129.1 33.7483C128.889 33.6748 128.645 33.638 128.369 33.638C127.699 33.638 127.198 33.8494 126.867 34.272C126.546 34.6855 126.385 35.1908 126.385 35.788V39.7435H125.268V34.7544C125.268 34.0377 125.232 33.39 125.158 32.8111H126.219L126.33 34.0929C126.504 33.6243 126.784 33.2659 127.17 33.0179C127.556 32.7698 127.997 32.6457 128.493 32.6457Z" fill="#CCCCCC"/>
<path d="M132.994 39.84C132.341 39.84 131.767 39.6929 131.271 39.3989C130.775 39.1049 130.389 38.6869 130.113 38.1448C129.847 37.6027 129.714 36.9687 129.714 36.2428C129.714 35.517 129.847 34.883 130.113 34.3409C130.389 33.7988 130.775 33.3808 131.271 33.0868C131.767 32.7927 132.341 32.6457 132.994 32.6457C133.646 32.6457 134.22 32.7927 134.717 33.0868C135.213 33.3808 135.594 33.7988 135.86 34.3409C136.136 34.883 136.274 35.517 136.274 36.2428C136.274 36.9687 136.136 37.6027 135.86 38.1448C135.594 38.6869 135.213 39.1049 134.717 39.3989C134.22 39.6929 133.646 39.84 132.994 39.84ZM132.994 38.9166C133.683 38.9166 134.211 38.6915 134.579 38.2412C134.946 37.7818 135.13 37.1157 135.13 36.2428C135.13 35.3975 134.942 34.7452 134.565 34.2858C134.188 33.8172 133.665 33.5829 132.994 33.5829C132.314 33.5829 131.786 33.8172 131.409 34.2858C131.032 34.7452 130.844 35.3975 130.844 36.2428C130.844 37.1157 131.028 37.7818 131.395 38.2412C131.772 38.6915 132.305 38.9166 132.994 38.9166ZM132.594 31.9153L133.972 29.1038H135.268L133.38 31.9153H132.594Z" fill="#CCCCCC"/>
<path d="M143.338 38.8614V39.7435H137.48V38.9717L141.849 33.6932H137.632V32.8111H143.186V33.6243L138.858 38.8614H143.338ZM141.105 29.8756V31.1435H139.74V29.8756H141.105Z" fill="#CCCCCC"/>
<path d="M151.01 32.8111L147.771 40.3775C147.432 41.1676 147.004 41.7465 146.49 42.114C145.975 42.4815 145.341 42.7342 144.588 42.872L144.354 42.0037C145.006 41.8567 145.497 41.6592 145.828 41.4111C146.168 41.1722 146.448 40.8001 146.669 40.2948L146.945 39.6746L144.009 32.8111H145.18L147.523 38.5307L149.894 32.8111H151.01Z" fill="#CCCCCC"/>
<path fill-rule="evenodd" clip-rule="evenodd" d="M49.9999 10C49.9999 4.48081 45.5191 0 39.9999 0H9.99998C4.48082 0 0 4.48081 0 10V40C0 45.519 4.48082 50 9.99998 50H39.9999C45.5191 50 49.9999 45.519 49.9999 40V10Z" fill="url(#paint0_linear_444_107)"/>
<path d="M28.4022 18.7988C27.1151 18.7988 26.1577 19.4941 25.5295 20.8862L20.1904 32.4782C20.209 34.0858 20.2761 39.936 20.2761 40.0381C20.2761 40.106 20.2918 40.3323 20.3075 40.5721C20.6173 40.2759 20.8886 39.8875 21.1178 39.3964L26.8316 27.1826L26.424 38.4383C26.424 39.3385 26.6389 40.0296 27.0679 40.5114C27.497 41.0033 28.1038 41.2482 28.8883 41.2482C29.9142 41.2482 30.788 40.6314 31.5104 39.3964L41.1806 22.7716L42.9389 22.7701C43.8491 22.7701 44.5615 22.576 45.0741 22.189C45.5867 21.7914 45.8437 21.2474 45.8437 20.5564C45.8437 19.5312 45.1162 19.0187 43.6613 19.0187H40.5995C39.4066 19.0187 38.5221 19.5206 37.9467 20.525L37.6169 21.1368L30.5524 33.3041L30.8358 21.3574L30.8515 21.1839C30.8515 20.4621 30.6259 19.8868 30.1762 19.4577C29.7257 19.018 29.1346 18.7988 28.4022 18.7988Z" fill="white"/>
<path d="M12.8085 18.7988C10.5797 18.7988 8.57948 19.6569 6.81156 21.3733C5.05309 23.0792 4.1748 25.0158 4.1748 27.1823C4.1748 28.9615 4.72821 30.4314 5.83883 31.5932C6.94755 32.7548 8.35094 33.3364 10.0452 33.3364C11.1445 33.3364 12.0549 33.1056 12.7783 32.6451C13.4998 32.1742 13.8606 31.5885 13.8606 30.8874C13.8606 29.8302 13.2221 29.3019 11.9453 29.3019C11.8924 29.3019 11.7678 29.3074 11.5694 29.3178C11.3692 29.3281 11.1596 29.3334 10.9405 29.3334C10.1755 29.3334 9.55976 29.0973 9.08756 28.6265C8.61724 28.1554 8.38115 27.5385 8.38115 26.7745C8.38115 25.8639 8.80046 24.9641 9.6372 24.0744C10.4739 23.1744 11.3163 22.7243 12.1644 22.7243C13.1164 22.7243 13.7567 23.0585 14.0797 23.7282C14.4159 24.3876 14.5821 25.6748 14.5821 27.5901L14.9126 38.4384C14.9126 39.3176 15.1317 40.0035 15.5718 40.4953C15.9194 40.8829 16.3765 41.1037 16.9242 41.1896C17.0564 41.2272 17.1943 41.2465 17.3303 41.2472C18.1632 41.2472 18.8489 40.5624 18.8489 39.73C18.8489 39.7209 18.8489 39.7118 18.8489 39.7028L18.7318 33.0466L18.728 33.054L18.6336 27.5901L18.6279 27.0903L18.6014 25.6795C18.5278 23.3892 18.0745 21.6932 17.2358 20.6047C16.3254 19.4012 14.8503 18.7988 12.8085 18.7988Z" fill="white"/>
<path d="M11.5005 15.8477C13.4564 15.8477 15.0421 14.2621 15.0421 12.3062C15.0421 10.3503 13.4564 8.76465 11.5005 8.76465C9.54455 8.76465 7.95898 10.3503 7.95898 12.3062C7.95898 14.2621 9.54455 15.8477 11.5005 15.8477Z" fill="white"/>
<defs>
<linearGradient id="paint0_linear_444_107" x1="24.9999" y1="0" x2="24.9999" y2="50" gradientUnits="userSpaceOnUse">
<stop stop-color="#CCCCCC"/>
<stop offset="1" stop-color="#CCCCCC"/>
</linearGradient>
</defs>
</svg>
