<?xml version="1.0" encoding="UTF-8" standalone="no"?><!DOCTYPE svg PUBLIC "-//W3C//DTD SVG 1.1//EN" "http://www.w3.org/Graphics/SVG/1.1/DTD/svg11.dtd"><svg width="100%" height="100%" viewBox="0 0 1446 400" version="1.1" xmlns="http://www.w3.org/2000/svg" xmlns:xlink="http://www.w3.org/1999/xlink" xml:space="preserve" xmlns:serif="http://www.serif.com/" style="fill-rule:evenodd;clip-rule:evenodd;stroke-linejoin:round;stroke-miterlimit:2;"><g id="Layer-1" serif:id="Layer 1"><g id="g954"><path id="path2520" d="M463.562,184.752l0,0.001c0.001,61.397 50.524,111.919 111.921,111.919l107.336,0c2.532,0 4.585,-2.053 4.585,-4.585l0,-107.334c0.001,-61.394 -50.514,-111.915 -111.907,-111.923l-0.013,0c-61.398,0 -111.922,50.524 -111.922,111.922Zm111.934,-80.116c43.944,0.004 80.102,36.165 80.102,80.109l0,80.109l-80.115,-0c-43.941,-0.004 -80.098,-36.16 -80.102,-80.101l0,-0.008c0,-43.947 36.162,-80.109 80.109,-80.109l0.006,-0Zm10.922,90.919l34.188,-0c0.552,-0 1,-0.448 1,-1l0,-19.607c0,-0.552 -0.448,-1 -1,-1l-34.188,-0l0,-34.713c0,-0.552 -0.448,-1 -1,-1l-19.782,-0c-0.552,-0 -1,0.448 -1,1l0,34.713l-33.925,-0c-0.552,-0 -1,0.448 -1,1l0,19.607c0,0.552 0.448,1 1,1l33.925,-0l0,34.713c0,0.552 0.448,1 1,1l19.782,-0c0.552,-0 1,-0.448 1,-1l0,-34.713Z" style="fill:#b2b2b2;fill-rule:nonzero;"/><path id="path889" d="M0.816,15.833l-0,266.128c-0,8.728 7.068,15.799 15.8,15.799c8.791,0 15.598,-7.012 15.598,-15.799l0,-91.475c0,-30.885 21.205,-60.92 43.717,-75.804c8.777,-5.791 18.942,-9.181 29.124,-9.181c40.541,0 50.579,38.877 50.58,80.322l-0.202,95.784c-0.335,10.449 7.807,15.749 15.8,15.749c8.066,0 15.598,-5.231 15.598,-15.395c0,0.017 0.202,-96.122 0.202,-96.122c0,-60.383 -22.686,-111.94 -82.18,-111.94c-17.013,0 -32.481,5.529 -46.136,14.483c-10.241,6.706 -18.994,15.041 -26.503,24.525l0,-96.73c0.335,-10.522 -7.549,-15.739 -15.598,-15.739c-8.007,0 -15.8,5.251 -15.8,15.395Z" style="fill:#b2b2b2;fill-rule:nonzero;"/><path id="path892" d="M331.573,299.935l0.058,0.057c32.958,0 65.256,-15.072 86.209,-40.61c2.058,-2.481 3.661,-6.661 3.661,-9.999c0,-8.793 -6.807,-15.8 -15.598,-15.8c-4.137,0 -9.826,2.618 -12.417,5.891c-14.864,18.131 -38.556,29.119 -62.058,29.119c-41.156,0 -73.438,-31.212 -80.264,-69.399l161.43,-0.245c8.123,0 12.358,-4.2 14.499,-10.516c1.258,-3.712 1.492,-8.601 1.492,-13.381c0,-56.92 -46.599,-102.622 -102.419,-102.622c-60.528,0 -107.68,52.279 -107.68,111.931c0,62.932 49.946,115.542 113.087,115.574Zm65.628,-124.195l0.007,0l-0.007,-0.008l-0,0.008Zm-0.436,-8.109l-145.185,0.23c7.176,-35.008 36.484,-63.906 74.384,-63.906c36.317,0 66.919,27.743 70.801,63.676Z" style="fill:#b2b2b2;fill-rule:nonzero;"/><path id="path895" d="M738.182,0.446c-8.73,0 -15.8,7.07 -15.8,15.8l0,264.913c0,8.734 7.071,15.802 15.8,15.802c8.791,0 15.598,-7.009 15.598,-15.802l0,-264.913c0,-8.789 -6.807,-15.8 -15.598,-15.8Z" style="fill:#b2b2b2;fill-rule:nonzero;"/><path id="path898" d="M884.366,297.508l0.047,0.058c14.431,0 27.488,-5.519 37.5,-13.196c3.309,-2.519 6.431,-8.386 6.431,-12.523c0,-8.728 -7.068,-15.8 -15.8,-15.8c-2.761,0 -6.763,1.389 -9.13,2.956l-0.231,0.152l-0.22,0.168c-5.517,4.219 -12.015,6.63 -19.966,6.63c-5.09,0 -8.966,-1.245 -11.682,-3.887c-4.77,-4.64 -6.113,-12.481 -6.113,-21.801l-0.059,0.059l0.036,-0.116l0.021,-0.177l0.002,-0.002l0.382,-134.59l34.615,0c8.791,0 15.598,-7.007 15.598,-15.8c0,-8.849 -6.745,-15.597 -15.598,-15.597l-34.39,0l0,-44.306c0,-8.789 -6.806,-15.8 -15.597,-15.8c-8.732,0 -15.801,7.07 -15.801,15.8l0,44.306l-33.377,0c-8.732,0 -15.801,7.07 -15.801,15.8c0,8.793 7.01,15.597 15.801,15.597l33.152,0l-0.382,134.555l0,1.439c0,16.339 4.407,30.085 12.605,39.83c8.511,10.116 21.126,16.235 37.957,16.245Zm-0.005,-0.006c-0.346,-0.428 -2.36,-2.91 -4.288,-5.057c-1.928,-2.147 -3.77,-3.958 -3.77,-3.044c0,7.024 7.362,8.024 8.058,8.101Z" style="fill:#b2b2b2;fill-rule:nonzero;"/><path id="path901" d="M1443.12,95.652c0.75,-1.818 1.23,-4.536 1.23,-6.148c-0,-8.849 -6.75,-15.597 -15.6,-15.597c-6.26,0 -12.51,4.583 -14.63,9.987c-0.95,2.377 -48.18,120.182 -66.28,165.345l-77.44,-165.889c-2.18,-4.983 -8.45,-9.443 -14.28,-9.443c-8.73,0 -15.8,7.07 -15.8,15.8c-0,2.085 0.77,5.006 1.6,6.735c-0.01,-0.018 89.76,192.656 89.76,192.656l-12.66,31.741c-8.96,22.224 -22.11,47.326 -50.96,47.326c-8.79,0 -15.6,7.009 -15.6,15.802c-0,8.851 6.75,15.598 15.6,15.598c43.19,0 67.12,-35.316 79.97,-66.99l-0,-0.013c0.01,-0.014 95.12,-237 95.12,-237l-0.03,0.09Z" style="fill:#b2b2b2;fill-rule:nonzero;"/><path id="path904" d="M959.797,15.833l0,266.128c0,8.728 7.068,15.799 15.8,15.799c8.791,0 15.598,-7.012 15.598,-15.799l0,-91.475c0,-30.885 21.205,-60.92 43.715,-75.804c8.78,-5.791 18.95,-9.181 29.13,-9.181c40.54,0 50.58,38.877 50.58,80.322l-0.21,95.78c-0.34,10.449 7.8,15.753 15.8,15.753c8.07,0 15.6,-5.231 15.6,-15.395c0,0.018 0.21,-96.122 0.21,-96.122c0,-60.383 -22.69,-111.94 -82.19,-111.94c-17.01,0 -32.47,5.529 -46.13,14.483c-10.24,6.706 -18.996,15.041 -26.505,24.525l0,-96.726c0.345,-10.522 -7.548,-15.743 -15.598,-15.743c-8.007,0 -15.8,5.251 -15.8,15.395Z" style="fill:#b2b2b2;fill-rule:nonzero;"/><path id="path907" d="M1193.27,0.446c-8.73,0 -15.8,7.07 -15.8,15.8l0,264.913c0,8.733 7.07,15.802 15.8,15.802c8.79,0 15.6,-7.009 15.6,-15.802l0,-264.913c0,-8.789 -6.81,-15.8 -15.6,-15.8Z" style="fill:#b2b2b2;fill-rule:nonzero;"/></g></g></svg>