<svg width="16" height="18" viewBox="0 0 16 18" fill="none" xmlns="http://www.w3.org/2000/svg">
<path d="M12.1429 12.3214C11.25 13.0357 10 13.5714 8.75 13.5714C5.89286 13.5714 3.92857 11.4286 3.92857 8.57143C3.92857 5.71428 5.89286 3.75 8.75 3.75C10 3.75 11.25 4.10714 12.1429 5L12.6786 5.53571L15.5357 2.85714L14.8214 2.32143C13.2143 0.892854 11.0714 0 8.75 0C3.75 0 0 3.75 0 8.75C0 13.75 3.75 17.5 8.75 17.5C11.0714 17.5 13.2143 16.6071 14.8214 15.1786L15.5357 14.6429L12.6786 11.7857L12.1429 12.3214Z" fill="white"/>
<path d="M8.57199 11.6071C10.1499 11.6071 11.4291 10.3279 11.4291 8.74997C11.4291 7.17201 10.1499 5.89282 8.57199 5.89282C6.99403 5.89282 5.71484 7.17201 5.71484 8.74997C5.71484 10.3279 6.99403 11.6071 8.57199 11.6071Z" fill="white"/>
</svg>
