<?xml version="1.0" encoding="UTF-8" standalone="no"?><!DOCTYPE svg PUBLIC "-//W3C//DTD SVG 1.1//EN" "http://www.w3.org/Graphics/SVG/1.1/DTD/svg11.dtd"><svg width="100%" height="100%" viewBox="0 0 180 40" version="1.1" xmlns="http://www.w3.org/2000/svg" xmlns:xlink="http://www.w3.org/1999/xlink" xml:space="preserve" xmlns:serif="http://www.serif.com/" style="fill-rule:evenodd;clip-rule:evenodd;stroke-linejoin:round;stroke-miterlimit:2;"><g><rect x="22.909" y="16.105" width="3.818" height="23.145" style="fill:#fff;"/><path d="M39.537,31.404c0.065,1.099 -0.327,2.174 -1.073,2.945c-0.745,0.772 -1.772,1.165 -2.814,1.077c-2.237,0 -2.611,-2.159 -2.611,-3.479l0,-9.413l-3.759,0l0,9.388c-0.089,2.037 0.598,4.027 1.909,5.527c1.2,1.173 2.789,1.802 4.426,1.752c1.408,0.028 2.786,-0.431 3.922,-1.308l0,1.357l3.735,0l0,-16.716l-3.735,0l0,8.87Z" style="fill:#fff;fill-rule:nonzero;"/><path d="M52.056,17.391l-3.566,0l-0,5.703l-2.671,0l-0,3.807l2.671,0l-0,12.349l3.566,0l-0,-12.349l2.672,0l-0,-3.807l-2.672,0l-0,-5.703Z" style="fill:#fff;fill-rule:nonzero;"/><path d="M66.927,34.348c-0.824,0.785 -1.895,1.219 -3.004,1.216c-1.19,0.038 -2.342,-0.447 -3.182,-1.338c-0.839,-0.892 -1.292,-2.111 -1.25,-3.368c-0.047,-1.25 0.407,-2.463 1.251,-3.34c0.843,-0.878 1.998,-1.338 3.181,-1.269c1.107,-0.012 2.182,0.398 3.027,1.155l0.552,0.511l2.475,-2.614l-0.622,-0.584c-1.491,-1.414 -3.428,-2.19 -5.432,-2.177c-2.114,-0.085 -4.167,0.761 -5.668,2.335c-1.502,1.575 -2.317,3.737 -2.252,5.971c-0.05,2.238 0.767,4.401 2.262,5.987c1.495,1.587 3.539,2.459 5.658,2.415c2.021,0.023 3.977,-0.758 5.478,-2.188l0.599,-0.596l-2.544,-2.651l-0.529,0.535Z" style="fill:#fff;fill-rule:nonzero;"/><path d="M82.345,24.877c-2.041,-2.029 -5.238,-2.208 -7.484,-0.418l0,-8.354l-3.588,0l0,23.145l3.588,0l0,-8.679c0,-3.486 2.472,-3.823 3.338,-3.823c2.175,0 2.107,2.08 2.107,3.323l0,9.179l3.668,0l0,-9.156c0.16,-1.891 -0.426,-3.768 -1.629,-5.217Z" style="fill:#fff;fill-rule:nonzero;"/><path d="M64.018,33.464c1.406,0 2.546,-1.152 2.546,-2.572c0,-1.42 -1.14,-2.571 -2.546,-2.571c-1.406,0 -2.545,1.151 -2.545,2.571c0,1.42 1.139,2.572 2.545,2.572Z" style="fill:#fff;fill-rule:nonzero;"/><path d="M17.104,33.308c-1.502,1.474 -3.563,2.299 -5.709,2.284c-4.416,0 -7.663,-3.312 -7.663,-7.89c0,-4.579 3.209,-7.926 7.625,-7.926c2.136,-0.006 4.184,0.812 5.685,2.271l0.61,0.586l2.687,-2.582l-0.585,-0.586c-2.191,-2.171 -5.212,-3.385 -8.359,-3.359c-6.506,0.036 -11.395,5.009 -11.395,11.62c-0,6.611 4.976,11.524 11.395,11.524c3.156,0.021 6.184,-1.197 8.384,-3.371l0.585,-0.574l-2.638,-2.594l-0.622,0.597Z" style="fill:#fff;fill-rule:nonzero;"/></g><g><path d="M107.199,12.706l-3.757,2.498c-0.207,0.142 -0.472,0.132 -0.67,-0.027c-0.197,-0.158 -0.287,-0.433 -0.226,-0.693l0.964,-4.678l-3.304,-3.176c-0.182,-0.176 -0.251,-0.454 -0.176,-0.707c0.075,-0.253 0.281,-0.433 0.522,-0.457l4.355,-0.402l1.743,-4.403c0.091,-0.248 0.311,-0.411 0.554,-0.411c0.244,0 0.463,0.163 0.554,0.411l1.715,4.413l4.354,0.403c0.24,0.027 0.442,0.208 0.515,0.461c0.073,0.252 0.003,0.528 -0.178,0.703l-3.294,3.175l0.963,4.678c0.054,0.261 -0.038,0.533 -0.236,0.69c-0.197,0.157 -0.461,0.169 -0.67,0.03l-3.728,-2.508Z" style="fill:#fff;fill-rule:nonzero;"/><path d="M123.486,12.706l-3.757,2.498c-0.207,0.142 -0.473,0.132 -0.67,-0.027c-0.197,-0.158 -0.287,-0.433 -0.226,-0.693l0.964,-4.678l-3.305,-3.176c-0.182,-0.176 -0.251,-0.454 -0.175,-0.707c0.075,-0.253 0.281,-0.433 0.522,-0.457l4.354,-0.402l1.744,-4.403c0.091,-0.248 0.31,-0.411 0.554,-0.411c0.243,0 0.463,0.163 0.554,0.411l1.715,4.413l4.354,0.403c0.24,0.027 0.442,0.208 0.515,0.461c0.073,0.252 0.003,0.528 -0.178,0.703l-3.295,3.175l0.964,4.678c0.054,0.261 -0.039,0.533 -0.236,0.69c-0.198,0.157 -0.461,0.169 -0.67,0.03l-3.728,-2.508Z" style="fill:#fff;fill-rule:nonzero;"/><path d="M139.773,12.706l-3.758,2.498c-0.206,0.142 -0.472,0.132 -0.669,-0.027c-0.198,-0.158 -0.287,-0.433 -0.227,-0.693l0.964,-4.678l-3.304,-3.176c-0.182,-0.176 -0.251,-0.454 -0.175,-0.707c0.075,-0.253 0.281,-0.433 0.522,-0.457l4.354,-0.402l1.743,-4.403c0.091,-0.248 0.31,-0.411 0.555,-0.411c0.244,0 0.463,0.163 0.554,0.411l1.715,4.413l4.354,0.403c0.239,0.027 0.441,0.208 0.514,0.461c0.074,0.252 0.004,0.528 -0.178,0.703l-3.294,3.175l0.964,4.678c0.053,0.261 -0.039,0.533 -0.236,0.69c-0.198,0.157 -0.462,0.169 -0.67,0.03l-3.728,-2.508Z" style="fill:#fff;fill-rule:nonzero;"/><path d="M156.06,12.706l-3.757,2.498c-0.207,0.142 -0.474,0.132 -0.67,-0.027c-0.198,-0.158 -0.287,-0.433 -0.226,-0.693l0.963,-4.678l-3.304,-3.176c-0.182,-0.176 -0.252,-0.454 -0.176,-0.707c0.075,-0.253 0.281,-0.433 0.523,-0.457l4.354,-0.402l1.743,-4.403c0.092,-0.248 0.311,-0.411 0.555,-0.411c0.243,0 0.462,0.163 0.553,0.411l1.716,4.413l4.354,0.403c0.24,0.027 0.441,0.208 0.514,0.461c0.073,0.252 0.003,0.528 -0.177,0.703l-3.296,3.175l0.964,4.678c0.055,0.261 -0.039,0.533 -0.235,0.69c-0.198,0.157 -0.461,0.169 -0.67,0.03l-3.728,-2.508Z" style="fill:#fff;fill-rule:nonzero;"/><path d="M172.347,12.706l-3.757,2.498c-0.208,0.142 -0.474,0.132 -0.67,-0.027c-0.198,-0.158 -0.288,-0.433 -0.226,-0.693l0.962,-4.678l-3.304,-3.176c-0.181,-0.176 -0.25,-0.454 -0.175,-0.707c0.076,-0.253 0.281,-0.433 0.523,-0.457l4.354,-0.402l1.742,-4.403c0.093,-0.248 0.312,-0.411 0.555,-0.411c0.244,0 0.463,0.163 0.554,0.411l1.715,4.413l4.354,0.403c0.24,0.027 0.442,0.208 0.515,0.461c0.073,0.252 0.003,0.528 -0.177,0.703l-3.295,3.175l0.963,4.678c0.055,0.261 -0.039,0.533 -0.236,0.69c-0.198,0.157 -0.46,0.169 -0.67,0.03l-3.727,-2.508Z" style="fill:#fff;fill-rule:nonzero;"/></g><g><path d="M114.752,39.116l0,-3.953l2.246,0l2.075,3.953l1.353,0l0,-0.081l-2.246,-4.147c0.573,-0.224 1.021,-0.562 1.343,-1.014c0.321,-0.452 0.482,-0.982 0.482,-1.59c0,-0.958 -0.29,-1.687 -0.87,-2.188c-0.58,-0.501 -1.408,-0.752 -2.485,-0.752l-3.165,0l0,9.772l1.267,0Zm0,-5.007l1.937,0c0.626,0 1.124,-0.165 1.494,-0.496c0.37,-0.332 0.555,-0.775 0.555,-1.329c0,-0.604 -0.176,-1.067 -0.529,-1.39c-0.352,-0.322 -0.861,-0.485 -1.526,-0.49l-1.931,0l0,3.705Zm14.054,5.007l0,-1.054l-4.813,0l0,-3.463l4.143,0l0,-1.054l-4.143,0l0,-3.14l4.747,0l0,-1.061l-6.008,0l0,9.772l6.074,0Zm9.805,-9.772l-3.546,9.772l-1.116,0l-3.539,-9.772l1.372,0l2.719,8.06l2.731,-8.06l1.379,0Zm3.593,9.772l0,-9.772l-1.261,0l0,9.772l1.261,0Zm9.339,-1.054l0,1.054l-6.074,0l0,-9.772l6.008,0l0,1.061l-4.747,0l0,3.14l4.143,0l0,1.054l-4.143,0l0,3.463l4.813,0Zm5.281,1.054l2.042,-7.121l0.15,-0.745l0.151,0.745l1.97,7.121l1.149,0l2.319,-9.772l-1.267,0l-1.485,6.685l-0.203,1.315l-0.263,-1.181l-1.845,-6.819l-1.063,0l-1.892,6.819l-0.269,1.161l-0.184,-1.289l-1.509,-6.691l-1.261,0l2.311,9.772l1.149,0Zm15.597,-0.581c-0.605,0.477 -1.412,0.715 -2.423,0.715c-0.657,0 -1.271,-0.129 -1.839,-0.386c-0.569,-0.257 -1.007,-0.609 -1.317,-1.057c-0.309,-0.447 -0.463,-0.955 -0.463,-1.523l1.268,0c0,0.59 0.214,1.057 0.641,1.399c0.426,0.342 0.996,0.513 1.71,0.513c0.665,0 1.175,-0.138 1.529,-0.416c0.355,-0.277 0.532,-0.655 0.532,-1.134c0,-0.479 -0.164,-0.849 -0.492,-1.111c-0.329,-0.262 -0.925,-0.52 -1.786,-0.775c-1.081,-0.318 -1.868,-0.708 -2.36,-1.171c-0.493,-0.463 -0.74,-1.035 -0.74,-1.715c0,-0.769 0.302,-1.406 0.904,-1.909c0.602,-0.503 1.384,-0.755 2.347,-0.755c0.657,0 1.243,0.13 1.755,0.389c0.515,0.26 0.914,0.617 1.196,1.074c0.283,0.456 0.424,0.955 0.424,1.497l-1.267,0c0,-0.591 -0.184,-1.055 -0.552,-1.393c-0.367,-0.338 -0.886,-0.507 -1.556,-0.507c-0.622,0 -1.107,0.14 -1.455,0.42c-0.347,0.279 -0.522,0.667 -0.522,1.164c0,0.398 0.165,0.735 0.497,1.01c0.329,0.275 0.892,0.527 1.687,0.755c0.794,0.228 1.415,0.48 1.865,0.755c0.448,0.275 0.78,0.596 0.998,0.963c0.216,0.367 0.324,0.799 0.324,1.296c0,0.791 -0.301,1.426 -0.905,1.902Z" style="fill:#fff;"/></g><g><g><path d="M0.25,0.358l2.683,0c0.609,0 1.123,0.091 1.542,0.272c0.423,0.181 0.744,0.448 0.963,0.802c0.223,0.351 0.334,0.783 0.334,1.297c0,0.361 -0.076,0.692 -0.228,0.992c-0.148,0.297 -0.364,0.55 -0.646,0.76c-0.278,0.206 -0.612,0.359 -1.002,0.461l-0.3,0.113l-2.522,0l-0.011,-0.851l1.904,0c0.386,0 0.707,-0.065 0.963,-0.195c0.256,-0.134 0.449,-0.313 0.579,-0.537c0.13,-0.225 0.194,-0.472 0.194,-0.743c0,-0.304 -0.061,-0.57 -0.183,-0.798c-0.123,-0.227 -0.316,-0.403 -0.579,-0.526c-0.26,-0.126 -0.596,-0.19 -1.008,-0.19l-1.609,0l0,7.041l-1.074,0l0,-7.898Zm4.737,7.898l-1.97,-3.58l1.119,-0.006l1.998,3.52l0,0.066l-1.147,0Z" style="fill:#fff;fill-rule:nonzero;"/><path d="M1.574,5.305l1.504,0l1.69,3.071c0.044,0.08 0.128,0.13 0.219,0.13l1.147,0c0,0 0.25,-0.023 0.25,-0.252l0,-0.074c-0.002,-0.039 -0.013,-0.078 -0.032,-0.113l-1.766,-3.109c0.167,-0.08 0.32,-0.172 0.461,-0.276c0,0 0,-0.001 0.001,-0.001c0.314,-0.234 0.554,-0.517 0.719,-0.847c0.17,-0.334 0.255,-0.703 0.255,-1.105c0,-0.567 -0.126,-1.042 -0.372,-1.429c-0.245,-0.397 -0.603,-0.698 -1.076,-0.9c-0.447,-0.192 -0.993,-0.292 -1.641,-0.292l-2.683,0c-0.138,0 -0.25,0.112 -0.25,0.25l0,7.898c0,0.138 0.112,0.25 0.25,0.25l1.074,0c0.139,0 0.25,-0.112 0.25,-0.25l0,-2.951Zm2.763,-0.783c0.15,-0.069 0.287,-0.15 0.412,-0.242c0.25,-0.186 0.44,-0.409 0.572,-0.671l0,-0.001c0.135,-0.266 0.201,-0.559 0.201,-0.879c0,-0.46 -0.095,-0.848 -0.295,-1.163c0,0 -0.001,-0.001 -0.001,-0.002c-0.193,-0.312 -0.477,-0.545 -0.849,-0.704c0,0 0,-0.001 -0.001,-0.001c-0.392,-0.169 -0.873,-0.251 -1.443,-0.251l-2.433,0l0,7.398l0.574,0l-0,-2.701c-0.137,0 -0.248,-0.109 -0.25,-0.246l-0.011,-0.852c-0.001,-0.067 0.025,-0.131 0.072,-0.179c0.047,-0.047 0.111,-0.074 0.178,-0.074l0.011,0l-0,-2.739c-0,-0.138 0.112,-0.25 0.25,-0.25l1.609,0c0.457,0 0.829,0.075 1.117,0.215c0.315,0.148 0.543,0.36 0.69,0.633c0.141,0.262 0.213,0.567 0.213,0.916c-0,0.317 -0.076,0.606 -0.228,0.868c-0.153,0.264 -0.378,0.476 -0.679,0.633c-0.001,0.001 -0.002,0.001 -0.003,0.002c-0.182,0.092 -0.394,0.157 -0.635,0.192l0.726,-0.004c0.081,0 0.156,0.038 0.203,0.102Zm-0.222,0.618c-0.047,0.014 -0.094,0.027 -0.142,0.04l-0.282,0.107c-0.017,0.006 -0.032,0.01 -0.045,0.013l1.489,2.706l0.607,0l-1.627,-2.866Zm-0.253,-0.218l-0.015,0l0.049,0.27l-0.034,-0.27Zm-0.96,-0.468l-1.328,0l-0,0.351l1.229,0l-0.005,-0.009c-0.043,-0.077 -0.041,-0.171 0.003,-0.247c0.024,-0.041 0.06,-0.074 0.101,-0.095Zm-1.328,-0.5l1.393,0c0.339,0 0.623,-0.053 0.848,-0.168c0.211,-0.11 0.371,-0.255 0.477,-0.44c0.108,-0.186 0.161,-0.392 0.161,-0.617c-0,-0.259 -0.049,-0.485 -0.153,-0.679c-0.098,-0.182 -0.254,-0.32 -0.465,-0.418c-0.001,-0.001 -0.003,-0.001 -0.004,-0.002c-0.231,-0.113 -0.531,-0.165 -0.898,-0.165l-1.359,0l-0,2.489Z" style="fill:#fff;"/></g><g><path d="M13.784,7.404l0,0.852l-4.293,0l0,-0.852l4.293,0Zm-4.076,-7.046l0,7.898l-1.074,0l0,-7.898l1.074,0Zm3.508,3.396l0,0.851l-3.725,0l0,-0.851l3.725,0Zm0.512,-3.396l0,0.857l-4.237,0l0,-0.857l4.237,0Z" style="fill:#fff;fill-rule:nonzero;"/><path d="M8.634,8.506l5.15,0c0.138,0 0.25,-0.112 0.25,-0.25l0,-0.852c0,-0.138 -0.112,-0.25 -0.25,-0.25l-3.826,0l0,-2.299l3.258,0c0.138,0 0.25,-0.112 0.25,-0.25l0,-0.851c0,-0.138 -0.112,-0.25 -0.25,-0.25l-3.258,0l0,-2.039l3.77,0c0.138,0 0.25,-0.112 0.25,-0.25l0,-0.857c0,-0.138 -0.112,-0.25 -0.25,-0.25l-5.094,0c-0.138,0 -0.25,0.112 -0.25,0.25l0,7.898c0,0.138 0.112,0.25 0.25,0.25Zm1.324,-0.852l3.576,0l0,0.352l-3.576,0l0,-0.352Zm-0.717,-7.046l-0.357,0l0,7.398l0.357,0l0,-0.602c0,-0.127 0.095,-0.232 0.217,-0.248l0,-2.303c-0.122,-0.016 -0.217,-0.121 -0.217,-0.248l0,-0.851c0,-0.127 0.095,-0.232 0.217,-0.248l0,-2.043c-0.122,-0.016 -0.217,-0.121 -0.217,-0.248l0,-0.607Zm0.717,3.396l3.008,0l0,0.351l-3.008,0l0,-0.351Zm0,-3.396l3.52,0l0,0.357l-3.52,0l0,-0.357Z" style="fill:#fff;"/></g><g><path d="M19.679,7.057l2.389,-6.699l1.163,0l-3.001,7.898l-0.829,0l0.278,-1.199Zm-2.232,-6.699l2.366,6.699l0.295,1.199l-0.83,0l-2.994,-7.898l1.163,0Z" style="fill:#fff;fill-rule:nonzero;"/><path d="M19.278,8.506l0.952,0c0.104,0 0.197,-0.065 0.234,-0.162l3.001,-7.897c0.029,-0.077 0.018,-0.163 -0.028,-0.231c-0.047,-0.067 -0.124,-0.108 -0.206,-0.108l-1.163,0c-0.106,0 -0.2,0.067 -0.236,0.166l-2.084,5.847l-2.065,-5.846c-0.036,-0.1 -0.13,-0.167 -0.236,-0.167l-1.163,0c-0.083,0 -0.16,0.041 -0.206,0.108c-0.047,0.068 -0.057,0.154 -0.028,0.231l2.995,7.897c0.036,0.097 0.13,0.162 0.233,0.162Zm0.473,-0.654l-0.035,0.154l0.073,0l-0.038,-0.154Zm0.261,-0.983l2.232,-6.261l0.625,0l-2.662,7.006l-0.158,-0.64l-0.037,-0.105Zm-0.531,-0.001l-2.211,-6.26l-0.624,0l2.651,6.991l0.139,-0.599c0.002,-0.009 0.005,-0.018 0.008,-0.027l0.037,-0.105Z" style="fill:#fff;"/></g><g><rect x="25.731" y="0.358" width="1.074" height="7.897" style="fill:#fff;"/><path d="M27.055,0.358c0,-0.138 -0.112,-0.25 -0.25,-0.25l-1.074,0c-0.138,0 -0.25,0.112 -0.25,0.25l0,7.898c0,0.138 0.112,0.25 0.25,0.25l1.074,0c0.138,0 0.25,-0.112 0.25,-0.25l0,-7.898Zm-0.5,0.25l0,7.398l-0.574,0l0,-7.398l0.574,0Z" style="fill:#fff;"/></g><g><path d="M34.455,7.404l0,0.852l-4.292,0l0,-0.852l4.292,0Zm-4.075,-7.046l0,7.898l-1.075,0l0,-7.898l1.075,0Zm3.507,3.396l0,0.851l-3.724,0l0,-0.851l3.724,0Zm0.512,-3.396l0,0.857l-4.236,0l0,-0.857l4.236,0Z" style="fill:#fff;fill-rule:nonzero;"/><path d="M29.305,8.506l5.15,0c0.138,0 0.25,-0.112 0.25,-0.25l0,-0.852c0,-0.138 -0.112,-0.25 -0.25,-0.25l-3.825,0l0,-2.299l3.257,0c0.138,0 0.25,-0.112 0.25,-0.25l0,-0.851c0,-0.138 -0.112,-0.25 -0.25,-0.25l-3.257,0l0,-2.039l3.769,0c0.138,0 0.25,-0.112 0.25,-0.25l0,-0.857c0,-0.138 -0.112,-0.25 -0.25,-0.25l-5.094,0c-0.138,0 -0.25,0.112 -0.25,0.25l0,7.898c0,0.138 0.112,0.25 0.25,0.25Zm1.325,-0.852l3.575,0l0,0.352l-3.575,0l0,-0.352Zm-0.717,-7.046l-0.358,0l0,7.398l0.358,0l0,-0.602c0,-0.127 0.094,-0.232 0.217,-0.248l0,-2.303c-0.123,-0.016 -0.217,-0.121 -0.217,-0.248l0,-0.851c0,-0.127 0.094,-0.232 0.217,-0.248l0,-2.043c-0.123,-0.016 -0.217,-0.121 -0.217,-0.248l0,-0.607Zm0.717,3.396l3.007,0l0,0.351l-3.007,0l0,-0.351Zm0,-3.396l3.519,0l0,0.357l-3.519,0l0,-0.357Z" style="fill:#fff;"/></g><g><path d="M39.688,5.869l1.609,-5.511l0.779,0l-0.451,2.143l-1.731,5.755l-0.774,0l0.568,-2.387Zm-1.664,-5.511l1.28,5.403l0.384,2.495l-0.768,0l-1.965,-7.898l1.069,0Zm6.134,5.397l1.253,-5.397l1.074,0l-1.959,7.898l-0.769,0l0.401,-2.501Zm-1.965,-5.397l1.564,5.511l0.568,2.387l-0.774,0l-1.67,-5.755l-0.456,-2.143l0.768,0Z" style="fill:#fff;fill-rule:nonzero;"/><path d="M42.193,0.108l-0.896,0c-0.111,0 -0.209,0.074 -0.24,0.18l-1.542,5.281l-1.248,-5.268c-0.027,-0.113 -0.128,-0.193 -0.243,-0.193l-1.069,0c-0.077,0 -0.15,0.036 -0.197,0.096c-0.048,0.061 -0.064,0.14 -0.046,0.215l1.965,7.897c0.028,0.111 0.128,0.19 0.243,0.19l0.974,0c0.11,0 0.208,-0.073 0.239,-0.178l1.618,-5.378l1.56,5.375c0.031,0.107 0.129,0.181 0.24,0.181l0.975,0c0.115,0 0.215,-0.079 0.242,-0.19l1.96,-7.897c0.018,-0.075 0.001,-0.154 -0.046,-0.215c-0.047,-0.06 -0.12,-0.096 -0.197,-0.096l-1.074,0c-0.117,0 -0.218,0.081 -0.244,0.194l-1.228,5.292l-1.505,-5.304c-0.031,-0.107 -0.129,-0.182 -0.241,-0.182Zm-3.176,7.502l-1.742,-7.002l0.551,0l1.232,5.201l0.153,0.988l-0.194,0.813Zm5.411,-0.001l-0.187,-0.788l0.163,-1.018l1.205,-5.195l0.557,0l-1.738,7.001Zm-4.498,-1.676l-0.21,0.884l0.117,0.761l1.546,-5.139l0.114,-0.544l-0.164,-0.769l-1.403,4.807Zm2.232,-4.769l-0.154,0.73l0.116,0.546l1.49,5.133l0.117,-0.733l-0.216,-0.908l-1.353,-4.768Zm-0.428,-0.556l0.017,0.081l0.017,-0.081l-0.034,0Z" style="fill:#fff;"/></g><g><path d="M54.135,7.404l0,0.852l-4.292,0l0,-0.852l4.292,0Zm-4.075,-7.046l0,7.898l-1.075,0l0,-7.898l1.075,0Zm3.507,3.396l0,0.851l-3.724,0l0,-0.851l3.724,0Zm0.512,-3.396l0,0.857l-4.236,0l0,-0.857l4.236,0Z" style="fill:#fff;fill-rule:nonzero;"/><path d="M48.985,8.506l5.15,0c0.138,0 0.25,-0.112 0.25,-0.25l0,-0.852c0,-0.138 -0.112,-0.25 -0.25,-0.25l-3.825,0l0,-2.299l3.257,0c0.138,0 0.25,-0.112 0.25,-0.25l0,-0.851c0,-0.138 -0.112,-0.25 -0.25,-0.25l-3.257,0l0,-2.039l3.769,0c0.138,0 0.25,-0.112 0.25,-0.25l0,-0.857c0,-0.138 -0.112,-0.25 -0.25,-0.25l-5.094,0c-0.138,0 -0.25,0.112 -0.25,0.25l0,7.898c0,0.138 0.112,0.25 0.25,0.25Zm1.325,-0.852l3.575,0l0,0.352l-3.575,0l0,-0.352Zm-0.717,-7.046l-0.358,0l0,7.398l0.358,0l0,-0.602c0,-0.127 0.094,-0.232 0.217,-0.248l0,-2.303c-0.123,-0.016 -0.217,-0.121 -0.217,-0.248l0,-0.851c0,-0.127 0.094,-0.232 0.217,-0.248l0,-2.043c-0.123,-0.016 -0.217,-0.121 -0.217,-0.248l0,-0.607Zm0.717,3.396l3.007,0l0,0.351l-3.007,0l0,-0.351Zm0,-3.396l3.519,0l0,0.357l-3.519,0l0,-0.357Z" style="fill:#fff;"/></g><g><path d="M58.828,8.256l-1.692,0l0.011,-0.852l1.681,0c0.579,0 1.061,-0.117 1.447,-0.352c0.386,-0.239 0.676,-0.572 0.869,-0.998c0.196,-0.431 0.295,-0.933 0.295,-1.508l0,-0.483c0,-0.452 -0.056,-0.853 -0.167,-1.204c-0.112,-0.354 -0.275,-0.653 -0.49,-0.895c-0.215,-0.246 -0.479,-0.432 -0.791,-0.559c-0.308,-0.126 -0.662,-0.19 -1.063,-0.19l-1.826,0l0,-0.857l1.826,0c0.531,0 1.015,0.087 1.453,0.261c0.438,0.17 0.815,0.417 1.13,0.743c0.319,0.322 0.564,0.712 0.735,1.171c0.171,0.456 0.256,0.969 0.256,1.541l0,0.472c0,0.571 -0.085,1.086 -0.256,1.545c-0.171,0.456 -0.418,0.845 -0.74,1.167c-0.32,0.321 -0.706,0.569 -1.158,0.743c-0.449,0.17 -0.956,0.255 -1.52,0.255Zm-1.119,-7.898l0,7.898l-1.074,0l0,-7.898l1.074,0Z" style="fill:#fff;fill-rule:nonzero;"/><path d="M56.635,8.506l2.193,0c0.597,0 1.133,-0.092 1.608,-0.271l0.001,-0.001c0.487,-0.187 0.902,-0.454 1.246,-0.8c0.347,-0.346 0.613,-0.764 0.797,-1.255c0.181,-0.486 0.272,-1.03 0.272,-1.633c0,0.138 -0.112,0.25 -0.25,0.25c0,0 0.25,-0.028 0.25,-0.261l0,-0.461c0,-0.604 -0.091,-1.146 -0.272,-1.628c-0.183,-0.494 -0.447,-0.913 -0.79,-1.259c-0.34,-0.351 -0.746,-0.618 -1.218,-0.801c-0.465,-0.184 -0.98,-0.278 -1.544,-0.278l-2.293,0c-0.139,0 -0.25,0.112 -0.25,0.25l0,7.898c0,0.138 0.111,0.25 0.25,0.25Zm0.25,-0.5l0.004,0l0.008,-0.605c0.002,-0.137 0.113,-0.247 0.25,-0.247l0.312,0l0,-5.689l-0.357,0c-0.093,0 -0.175,-0.051 -0.217,-0.127l0,6.668Zm1.074,-7.398l0.969,0c0.497,0 0.951,0.081 1.361,0.243c0,0 0.001,0.001 0.002,0.001c0.403,0.156 0.75,0.384 1.041,0.684c0,0.001 0.001,0.001 0.002,0.002c0.294,0.297 0.52,0.658 0.678,1.083c0.161,0.43 0.24,0.914 0.24,1.453l0.25,0.25l-0.25,-0.25l0,0.472c0,0.539 -0.079,1.025 -0.24,1.458c-0.158,0.42 -0.385,0.78 -0.683,1.077c0,0 -0.001,0 -0.001,0.001c-0.295,0.297 -0.651,0.525 -1.069,0.685c-0.423,0.16 -0.9,0.239 -1.431,0.239l-0.869,0l0,-0.352l0.869,0c0.631,0 1.156,-0.133 1.577,-0.389c0.001,0 0.001,-0.001 0.002,-0.001c0.428,-0.265 0.75,-0.634 0.964,-1.107c0.21,-0.46 0.318,-0.997 0.318,-1.611l-0.001,0l0.001,-0.011l0,-0.459c0,-0.004 0,-0.009 -0.001,-0.013l0.001,0c0,-0.48 -0.061,-0.907 -0.179,-1.279c-0.123,-0.391 -0.304,-0.719 -0.541,-0.986c-0.24,-0.274 -0.535,-0.483 -0.883,-0.624c-0.336,-0.138 -0.721,-0.209 -1.158,-0.209l-0.969,0l0,-0.357Zm-0.57,7.398l0.07,0l0,-0.352l-0.066,0l-0.004,0.352Zm0.57,-0.852l0.869,0c0.526,0 0.966,-0.102 1.317,-0.316c0.343,-0.212 0.599,-0.508 0.771,-0.888c0.183,-0.401 0.273,-0.869 0.273,-1.404l0,-0.483l0.25,0.25l-0.25,-0.25c0,-0.424 -0.051,-0.8 -0.156,-1.129c-0.1,-0.318 -0.245,-0.587 -0.438,-0.804c0,-0.001 -0.001,-0.001 -0.001,-0.001c-0.19,-0.217 -0.422,-0.381 -0.697,-0.492l-0.001,0c-0.28,-0.116 -0.603,-0.172 -0.968,-0.172l-0.969,0l0,5.689Zm-0.607,-6.546l0,0.357l0.107,-0l0,-0.357l-0.107,-0Z" style="fill:#fff;"/></g></g><g><g><path d="M75.015,4.058l0,0.498c0,0.594 -0.076,1.125 -0.228,1.595c-0.152,0.47 -0.371,0.87 -0.657,1.199c-0.286,0.329 -0.629,0.58 -1.03,0.754c-0.397,0.173 -0.842,0.26 -1.336,0.26c-0.479,0 -0.919,-0.087 -1.319,-0.26c-0.397,-0.174 -0.743,-0.425 -1.036,-0.754c-0.289,-0.329 -0.514,-0.729 -0.673,-1.199c-0.16,-0.47 -0.24,-1.001 -0.24,-1.595l0,-0.498c0,-0.594 0.078,-1.123 0.234,-1.59c0.16,-0.47 0.384,-0.869 0.674,-1.198c0.289,-0.333 0.633,-0.586 1.03,-0.76c0.4,-0.173 0.84,-0.26 1.319,-0.26c0.493,0 0.939,0.087 1.336,0.26c0.401,0.174 0.744,0.427 1.03,0.76c0.289,0.329 0.51,0.728 0.662,1.198c0.156,0.467 0.234,0.996 0.234,1.59Zm-1.063,0.498l-0,-0.509c-0,-0.47 -0.05,-0.886 -0.151,-1.248c-0.096,-0.361 -0.239,-0.665 -0.428,-0.911c-0.189,-0.246 -0.421,-0.432 -0.696,-0.559c-0.271,-0.126 -0.579,-0.19 -0.924,-0.19c-0.334,0 -0.636,0.064 -0.908,0.19c-0.267,0.127 -0.497,0.313 -0.69,0.559c-0.189,0.246 -0.336,0.55 -0.439,0.911c-0.104,0.362 -0.156,0.778 -0.156,1.248l-0,0.509c-0,0.474 0.052,0.894 0.156,1.259c0.103,0.362 0.252,0.667 0.445,0.917c0.197,0.245 0.428,0.432 0.696,0.558c0.271,0.127 0.573,0.19 0.907,0.19c0.349,0 0.659,-0.063 0.93,-0.19c0.271,-0.126 0.499,-0.313 0.684,-0.558c0.19,-0.25 0.333,-0.555 0.429,-0.917c0.097,-0.365 0.145,-0.785 0.145,-1.259Z" style="fill:#fff;fill-rule:nonzero;"/><path d="M68.246,4.058l0,0.487l0.001,0.012l-0.001,-0.001c0,0.624 0.085,1.182 0.253,1.676c0.171,0.503 0.412,0.93 0.723,1.283c0,0 0,0.001 0.001,0.001c0.317,0.357 0.691,0.629 1.122,0.817c0.431,0.187 0.904,0.281 1.419,0.281c0.531,0 1.009,-0.095 1.436,-0.281c0.435,-0.189 0.808,-0.462 1.119,-0.819c0.306,-0.353 0.543,-0.782 0.706,-1.286c0.159,-0.493 0.24,-1.05 0.24,-1.672c0,0.139 -0.112,0.25 -0.25,0.25c0,0 0.25,-0.027 0.25,-0.261l0,-0.487c0,-0.623 -0.083,-1.178 -0.246,-1.668c-0.164,-0.504 -0.401,-0.931 -0.711,-1.284c-0.311,-0.361 -0.684,-0.636 -1.119,-0.825c-0.427,-0.186 -0.906,-0.281 -1.436,-0.281c-0.515,0 -0.988,0.094 -1.419,0.281l-0.001,0c-0.43,0.189 -0.803,0.463 -1.117,0.824c-0.31,0.352 -0.552,0.78 -0.723,1.283l0,0.001c-0.164,0.49 -0.247,1.046 -0.247,1.669Zm6.52,0.499l-0.001,-0.001c0,0.565 -0.071,1.071 -0.216,1.518c-0.141,0.436 -0.343,0.807 -0.608,1.112c-0.261,0.3 -0.574,0.53 -0.94,0.688c-0.001,0 -0.001,0.001 -0.001,0.001c-0.367,0.16 -0.779,0.239 -1.236,0.239c-0.442,0 -0.849,-0.079 -1.22,-0.239c-0.363,-0.16 -0.679,-0.39 -0.947,-0.691c-0.269,-0.305 -0.476,-0.677 -0.625,-1.113c-0.151,-0.446 -0.225,-0.949 -0.226,-1.511l-0.001,0.008l0.001,-0.496l0,-0.014c0,-0.564 0.073,-1.067 0.221,-1.51c0.148,-0.436 0.356,-0.808 0.625,-1.113l0,-0.001c0.265,-0.304 0.578,-0.536 0.941,-0.694c0.371,-0.161 0.778,-0.24 1.22,-0.24c0.456,0 0.869,0.079 1.236,0.239c0,0 0,0.001 0.001,0.001c0.365,0.158 0.679,0.389 0.939,0.693c0.001,0 0.002,0.001 0.002,0.002c0.268,0.304 0.472,0.675 0.612,1.11c0.001,0.001 0.001,0.002 0.001,0.003c0.148,0.443 0.221,0.946 0.221,1.51l0.25,0.25l-0.25,-0.25l0,0.487l0.001,0.012Zm-0.564,-0.001l0,-0.509c0,-0.495 -0.054,-0.932 -0.159,-1.313c-0.106,-0.397 -0.265,-0.729 -0.472,-0.998c-0.214,-0.279 -0.478,-0.49 -0.789,-0.633c-0.302,-0.141 -0.644,-0.214 -1.029,-0.214c-0.373,0 -0.711,0.072 -1.013,0.214l-0.002,0c-0.301,0.143 -0.562,0.353 -0.779,0.631c-0.001,0 -0.001,0.001 -0.002,0.002c-0.207,0.268 -0.368,0.599 -0.482,0.994c-0.11,0.382 -0.165,0.821 -0.165,1.317l0,0.509c0,0.5 0.055,0.942 0.165,1.327l0,0.001c0.114,0.395 0.277,0.728 0.488,1c0.001,0.002 0.002,0.003 0.003,0.004c0.221,0.277 0.483,0.485 0.784,0.628l0.001,0.001c0.302,0.141 0.64,0.213 1.013,0.213c0.389,0 0.734,-0.072 1.036,-0.213c0.307,-0.144 0.567,-0.355 0.778,-0.635c0.207,-0.273 0.365,-0.607 0.471,-1.003c0.101,-0.384 0.153,-0.825 0.153,-1.323Zm-0.5,0.001c-0,0.449 -0.045,0.847 -0.136,1.194c-0.088,0.327 -0.215,0.604 -0.387,0.829l-0,0.001c-0.16,0.212 -0.357,0.373 -0.591,0.483c-0.24,0.112 -0.515,0.166 -0.824,0.166c-0.295,0 -0.562,-0.055 -0.801,-0.166c-0.233,-0.11 -0.434,-0.273 -0.606,-0.487c-0.174,-0.226 -0.307,-0.503 -0.401,-0.831c-0.098,-0.345 -0.146,-0.742 -0.146,-1.19l-0,-0.509c-0,-0.444 0.048,-0.837 0.146,-1.179c0.094,-0.328 0.225,-0.604 0.397,-0.827c0.167,-0.213 0.367,-0.375 0.599,-0.485c0.239,-0.112 0.506,-0.167 0.801,-0.167c0.305,0 0.578,0.055 0.818,0.167l0.001,0c0.238,0.11 0.439,0.271 0.603,0.484l-0,0.001c0.171,0.221 0.298,0.496 0.385,0.823c-0,0 -0,0.001 0.001,0.002c0.094,0.342 0.141,0.736 0.141,1.181l-0,0.51Z" style="fill:#fff;"/></g><g><path d="M83.75,0.358l0,7.898l-1.08,0l-4.081,-6.091l0,6.091l-1.074,0l0,-7.898l1.074,0l4.098,6.108l0,-6.108l1.063,0Z" style="fill:#fff;fill-rule:nonzero;"/><path d="M84,0.358c0,-0.138 -0.112,-0.25 -0.25,-0.25l-1.063,0c-0.138,0 -0.25,0.112 -0.25,0.25l0,5.286l-3.64,-5.425c-0.046,-0.069 -0.124,-0.111 -0.208,-0.111l-1.074,0c-0.138,0 -0.25,0.112 -0.25,0.25l0,7.898c0,0.138 0.112,0.25 0.25,0.25l1.074,0c0.139,0 0.25,-0.112 0.25,-0.25l0,-5.269l3.623,5.408c0.047,0.069 0.125,0.111 0.208,0.111l1.08,0c0.138,0 0.25,-0.112 0.25,-0.25l0,-7.898Zm-0.5,0.25l0,7.398l-0.697,0l-4.006,-5.981c-0.061,-0.091 -0.175,-0.132 -0.28,-0.1c-0.106,0.032 -0.178,0.13 -0.178,0.24l0,5.841l-0.574,0l0,-7.398l0.691,0l4.023,5.997c0.061,0.091 0.175,0.132 0.281,0.1c0.105,-0.032 0.177,-0.129 0.177,-0.239l0,-5.858l0.563,0Z" style="fill:#fff;"/></g></g><path d="M106.293,31.688l-1.196,0.094c-0.107,-0.472 -0.258,-0.815 -0.454,-1.029c-0.325,-0.343 -0.726,-0.514 -1.203,-0.514c-0.383,-0 -0.719,0.107 -1.008,0.32c-0.379,0.276 -0.677,0.679 -0.896,1.209c-0.218,0.53 -0.331,1.285 -0.34,2.265c0.289,-0.441 0.643,-0.768 1.062,-0.982c0.418,-0.214 0.857,-0.321 1.316,-0.321c0.801,0 1.484,0.295 2.047,0.885c0.564,0.59 0.845,1.353 0.845,2.288c0,0.615 -0.132,1.186 -0.397,1.714c-0.265,0.527 -0.629,0.932 -1.092,1.212c-0.464,0.281 -0.989,0.421 -1.577,0.421c-1.002,-0 -1.819,-0.369 -2.451,-1.106c-0.633,-0.737 -0.949,-1.951 -0.949,-3.643c-0,-1.893 0.35,-3.269 1.049,-4.129c0.61,-0.748 1.432,-1.122 2.465,-1.122c0.77,-0 1.401,0.216 1.893,0.648c0.493,0.432 0.788,1.029 0.886,1.79Zm-4.91,4.222c-0,0.414 0.088,0.81 0.264,1.189c0.176,0.379 0.422,0.667 0.738,0.865c0.316,0.198 0.648,0.297 0.995,0.297c0.508,0 0.944,-0.204 1.309,-0.614c0.366,-0.41 0.548,-0.967 0.548,-1.67c0,-0.677 -0.18,-1.21 -0.541,-1.6c-0.361,-0.39 -0.815,-0.585 -1.363,-0.585c-0.543,0 -1.004,0.195 -1.382,0.585c-0.379,0.39 -0.568,0.901 -0.568,1.533Z" style="fill:#fff;fill-rule:nonzero;"/></svg>