<svg width="16" height="13" viewBox="0 0 16 13" fill="none" xmlns="http://www.w3.org/2000/svg">
<path fill-rule="evenodd" clip-rule="evenodd" d="M1.75009 0C0.783611 0 0.000122073 0.848792 0.000122073 1.89583V2.69292C-4.08858e-05 2.70269 -4.04958e-05 2.71246 0.000122073 2.72222V11.1042C0.000122073 12.1512 0.78361 13 1.75009 13H14.2499C15.2164 13 15.9998 12.1512 15.9998 11.1042V2.72204C16 2.71241 16 2.70275 15.9998 2.6931V1.89583C15.9998 0.848792 15.2164 0 14.2499 0H1.75009ZM14.4999 2.24281V1.89583C14.4999 1.74626 14.388 1.625 14.2499 1.625H1.75009C1.61202 1.625 1.5001 1.74626 1.5001 1.89583V2.24281L7.99999 6.37068L14.4999 2.24281ZM1.5001 4.12644V11.1042C1.5001 11.2538 1.61202 11.375 1.75009 11.375H14.2499C14.388 11.375 14.4999 11.2538 14.4999 11.1042V4.12644L8.37927 8.01344C8.14505 8.16218 7.85492 8.16218 7.6207 8.01344L1.5001 4.12644Z" fill="#989898"/>
</svg>
