<?xml version="1.0" encoding="UTF-8" standalone="no"?><!DOCTYPE svg PUBLIC "-//W3C//DTD SVG 1.1//EN" "http://www.w3.org/Graphics/SVG/1.1/DTD/svg11.dtd"><svg width="100%" height="100%" viewBox="0 0 10 10" version="1.1" xmlns="http://www.w3.org/2000/svg" xmlns:xlink="http://www.w3.org/1999/xlink" xml:space="preserve" xmlns:serif="http://www.serif.com/" style="fill-rule:evenodd;clip-rule:evenodd;stroke-linejoin:round;stroke-miterlimit:2;"><path d="M9.816,7.833l-2.282,-2.074c-0.107,-0.098 -0.249,-0.151 -0.395,-0.146c-0.146,0.004 -0.284,0.065 -0.385,0.17l-1.344,1.381c-0.323,-0.062 -0.973,-0.264 -1.642,-0.932c-0.669,-0.669 -0.872,-1.321 -0.932,-1.642l1.38,-1.344c0.105,-0.101 0.166,-0.24 0.171,-0.385c0.004,-0.146 -0.048,-0.288 -0.146,-0.396l-2.075,-2.281c-0.098,-0.108 -0.234,-0.174 -0.38,-0.183c-0.146,-0.009 -0.29,0.039 -0.4,0.134l-1.219,1.045c-0.097,0.097 -0.155,0.227 -0.162,0.364c-0.009,0.14 -0.169,3.465 2.408,6.043c2.249,2.249 5.066,2.413 5.842,2.413c0.113,0 0.183,-0.003 0.201,-0.004c0.137,-0.008 0.267,-0.066 0.364,-0.164l1.044,-1.218c0.095,-0.111 0.144,-0.254 0.135,-0.4c-0.009,-0.146 -0.075,-0.283 -0.183,-0.381Z" style="fill:#546065;fill-rule:nonzero;"/></svg>