<svg width="16" height="16" viewBox="0 0 16 16" fill="none" xmlns="http://www.w3.org/2000/svg">
<path fill-rule="evenodd" clip-rule="evenodd" d="M11.3356 4.91619C11.3356 5.73125 10.9841 6.51292 10.3583 7.08925C9.7326 7.6656 8.88389 7.98938 7.99896 7.98938C7.11402 7.98938 6.26533 7.6656 5.63959 7.08925C5.01383 6.51292 4.66229 5.73125 4.66229 4.91619C4.66229 4.10113 5.01383 3.31944 5.63959 2.74311C6.26533 2.16677 7.11402 1.84299 7.99896 1.84299C8.88389 1.84299 9.7326 2.16677 10.3583 2.74311C10.9841 3.31944 11.3356 4.10113 11.3356 4.91619ZM11.417 8.69375C12.2596 8.04671 12.8653 7.17631 13.1518 6.20095C13.4383 5.22558 13.3914 4.19263 13.0178 3.24262C12.6443 2.29261 11.962 1.47167 11.0639 0.891459C10.1657 0.311265 9.09532 0 7.99829 0C6.90126 0 5.83086 0.311265 4.93272 0.891459C4.03459 1.47167 3.3523 2.29261 2.97873 3.24262C2.60514 4.19263 2.55838 5.22558 2.84481 6.20095C3.13124 7.17631 3.73696 8.04671 4.57954 8.69375C3.26568 9.26586 2.14547 10.1563 1.33884 11.2697C0.532208 12.3832 0.0695188 13.6776 0.000302971 15.0147C-0.00613012 15.2556 0.0900994 15.4893 0.268411 15.6656C0.446709 15.842 0.692901 15.9471 0.954282 15.9583C1.21565 15.9696 1.47141 15.8861 1.66679 15.7258C1.86218 15.5655 1.98166 15.3412 1.99963 15.1007C2.0724 13.6803 2.73624 12.3403 3.85336 11.3588C4.97048 10.3773 6.45507 9.82969 7.99896 9.82969C9.54285 9.82969 11.0274 10.3773 12.1446 11.3588C13.2617 12.3403 13.9255 13.6803 13.9983 15.1007C14.0016 15.2236 14.0314 15.3444 14.0861 15.4564C14.1408 15.5684 14.2193 15.6692 14.3169 15.7528C14.4144 15.8365 14.5292 15.9014 14.6543 15.9437C14.7795 15.9859 14.9125 16.0048 15.0457 15.999C15.1789 15.9933 15.3095 15.9631 15.4298 15.9102C15.5501 15.8574 15.6578 15.783 15.7464 15.6913C15.8352 15.5996 15.903 15.4925 15.9461 15.3764C15.9893 15.2602 16.0068 15.1371 15.9976 15.0147C15.9282 13.6775 15.4653 12.3829 14.6585 11.2695C13.8516 10.156 12.7312 9.26569 11.417 8.69375Z" fill="#989898"/>
</svg>
