<?xml version="1.0" encoding="UTF-8" standalone="no"?><!DOCTYPE svg PUBLIC "-//W3C//DTD SVG 1.1//EN" "http://www.w3.org/Graphics/SVG/1.1/DTD/svg11.dtd"><svg width="100%" height="100%" viewBox="0 0 34 30" version="1.1" xmlns="http://www.w3.org/2000/svg" xmlns:xlink="http://www.w3.org/1999/xlink" xml:space="preserve" xmlns:serif="http://www.serif.com/" style="fill-rule:evenodd;clip-rule:evenodd;stroke-linejoin:round;stroke-miterlimit:2;"><path d="M31.074,3.49c-0.67,-2.512 -3.252,-4 -5.764,-3.329l-0.906,0.241c-1.006,0.27 -1.6,1.306 -1.329,2.306l1.441,5.376l-6.37,1.653l-0.371,-1.065c-0.264,-0.753 -0.976,-1.259 -1.776,-1.259c-0.8,0 -1.512,0.506 -1.776,1.259l-0.8,2.294l-7.776,2.012l-0,-2.271c-0,-0.782 -0.63,-1.412 -1.412,-1.412c-0.782,0 -1.412,0.63 -1.412,1.412l0,15.529l-0.941,-0c-1.041,-0 -1.882,0.841 -1.882,1.882c-0,1.041 0.841,1.882 1.882,1.882l30.116,-0c1.041,-0 1.882,-0.841 1.882,-1.882c0,-1.041 -0.841,-1.882 -1.882,-1.882l-8.076,-0l-3.923,-11.206l-3.659,0.947l1.618,4.612l-3.918,-0l1.547,-4.412l-4.388,1.136l-3.123,8.923l-2.429,-0l-0,-9.365l19.845,-5.146l1.483,5.529c0.27,1.006 1.3,1.6 2.305,1.329l0.912,-0.241c2.512,-0.671 4,-3.253 3.329,-5.764l-2.447,-9.088Zm-19.01,22.746l0.659,-1.883l6.552,0l0.659,1.883l-7.87,-0Z" style="fill:#5f67aa;fill-rule:nonzero;"/></svg>