<?xml version="1.0" encoding="UTF-8" standalone="no"?><!DOCTYPE svg PUBLIC "-//W3C//DTD SVG 1.1//EN" "http://www.w3.org/Graphics/SVG/1.1/DTD/svg11.dtd"><svg width="100%" height="100%" viewBox="0 0 12 13" version="1.1" xmlns="http://www.w3.org/2000/svg" xmlns:xlink="http://www.w3.org/1999/xlink" xml:space="preserve" xmlns:serif="http://www.serif.com/" style="fill-rule:evenodd;clip-rule:evenodd;stroke-linejoin:round;stroke-miterlimit:2;"><rect id="Artboard1" x="0" y="0" width="12" height="12.336" style="fill:none;"/><clipPath id="_clip1"><rect id="Artboard11" serif:id="Artboard1" x="0" y="0" width="12" height="12.336"/></clipPath><g clip-path="url(#_clip1)"><path d="M10.588,6.772c0.025,-0.193 0.038,-0.392 0.038,-0.604c-0,-0.206 -0.013,-0.411 -0.045,-0.604l1.305,-1.015c0.115,-0.095 0.148,-0.26 0.077,-0.392l-1.234,-2.133c-0.075,-0.133 -0.236,-0.193 -0.379,-0.142l-1.536,0.617c-0.321,-0.244 -0.662,-0.45 -1.041,-0.604l-0.231,-1.632c-0.023,-0.151 -0.155,-0.264 -0.308,-0.263l-2.468,0c-0.154,0 -0.276,0.109 -0.302,0.263l-0.231,1.632c-0.379,0.154 -0.726,0.366 -1.041,0.604l-1.536,-0.617c-0.141,-0.051 -0.302,0 -0.379,0.142l-1.227,2.133c-0.077,0.135 -0.051,0.302 0.077,0.392l1.305,1.015c-0.033,0.193 -0.058,0.405 -0.058,0.604c-0,0.199 0.013,0.411 0.045,0.604l-1.305,1.015c-0.115,0.095 -0.148,0.26 -0.077,0.392l1.234,2.133c0.077,0.142 0.238,0.187 0.379,0.142l1.536,-0.617c0.321,0.244 0.662,0.45 1.041,0.604l0.231,1.632c0.032,0.154 0.154,0.263 0.308,0.263l2.468,0c0.154,0 0.282,-0.109 0.302,-0.263l0.231,-1.632c0.379,-0.154 0.726,-0.36 1.041,-0.604l1.536,0.617c0.141,0.051 0.302,0 0.379,-0.142l1.233,-2.133c0.077,-0.141 0.045,-0.302 -0.077,-0.392l-1.291,-1.015Zm-4.588,1.709c-1.272,0 -2.313,-1.041 -2.313,-2.313c-0,-1.272 1.041,-2.313 2.313,-2.313c1.272,0 2.313,1.041 2.313,2.313c-0,1.272 -1.041,2.313 -2.313,2.313Z" style="fill:#5f67aa;fill-rule:nonzero;"/></g></svg>