<?xml version="1.0" encoding="UTF-8" standalone="no"?><!DOCTYPE svg PUBLIC "-//W3C//DTD SVG 1.1//EN" "http://www.w3.org/Graphics/SVG/1.1/DTD/svg11.dtd"><svg width="100%" height="100%" viewBox="0 0 12 12" version="1.1" xmlns="http://www.w3.org/2000/svg" xmlns:xlink="http://www.w3.org/1999/xlink" xml:space="preserve" xmlns:serif="http://www.serif.com/" style="fill-rule:evenodd;clip-rule:evenodd;stroke-linejoin:round;stroke-miterlimit:2;"><path d="M3.952,3.462l-3.484,0.505l-0.062,0.012c-0.239,0.064 -0.406,0.281 -0.406,0.528c0,0.148 0.06,0.289 0.166,0.392l2.524,2.457l-0.595,3.471l-0.007,0.06c-0.001,0.011 -0.001,0.022 -0.001,0.032c0,0.3 0.246,0.547 0.546,0.547c0.088,0 0.176,-0.022 0.254,-0.063l3.116,-1.639l3.11,1.639l0.054,0.025c0.064,0.025 0.132,0.038 0.2,0.038c0.3,0 0.547,-0.247 0.547,-0.546c-0,-0.031 -0.003,-0.062 -0.008,-0.093l-0.596,-3.471l2.525,-2.457l0.043,-0.047c0.079,-0.097 0.122,-0.219 0.122,-0.344c-0,-0.27 -0.2,-0.502 -0.468,-0.541l-3.484,-0.505l-1.558,-3.157c-0.092,-0.186 -0.282,-0.305 -0.49,-0.305c-0.207,-0 -0.398,0.119 -0.49,0.305l-1.558,3.157Z" style="fill:#5f67aa;fill-rule:nonzero;"/></svg>