<?xml version="1.0" encoding="UTF-8" standalone="no"?>
<!DOCTYPE svg PUBLIC "-//W3C//DTD SVG 1.1//EN" "http://www.w3.org/Graphics/SVG/1.1/DTD/svg11.dtd">
<svg width="100%" height="100%" viewBox="0 0 450 400" version="1.1" xmlns="http://www.w3.org/2000/svg" xmlns:xlink="http://www.w3.org/1999/xlink" xml:space="preserve" xmlns:serif="http://www.serif.com/" style="fill-rule:evenodd;clip-rule:evenodd;stroke-linejoin:round;stroke-miterlimit:2;">
    <g transform="matrix(1,0,0,1,-0.000275931,0.000219192)">
        <g transform="matrix(1,0,0,1,-28,-15.0001)">
            <g transform="matrix(1.01144,0,0,1.01144,-0.320401,-0.17164)">
                <g transform="matrix(1.12379,0,0,1,-3.4662,-1.24345e-14)">
                    <path d="M65.297,104.422C65.297,104.422 206.446,-21.581 271.032,25.556C335.618,72.694 282.618,123.232 310.685,124.2C338.752,125.169 395.179,73.735 419.977,129.054C444.776,184.373 343.173,251.057 361.304,253.9C379.435,256.743 409.93,246.74 409.93,267.526C409.93,288.312 323.44,370.723 265.01,365.041C206.58,359.359 290.94,303.054 256.749,308.186C222.559,313.319 164.151,392.463 117.832,344.334C71.514,296.206 158.65,207.427 120,219.937C56.383,240.527 -18.564,185.774 65.297,104.422Z" style="fill:rgb(210,247,242);fill-rule:nonzero;"/>
                </g>
                <g transform="matrix(1,0,0,1,-105.789,42.5123)">
                    <path d="M245.05,92.192L230.324,83.514L230.324,100.87L245.05,92.192ZM248.74,92.192C248.74,93.424 248.135,94.657 246.924,95.371L232.199,104.049C229.738,105.497 226.635,103.724 226.635,100.87L226.635,83.514C226.635,80.66 229.738,78.885 232.199,80.335L246.924,89.013C248.135,89.727 248.74,90.96 248.74,92.192Z" style="fill:rgb(212,31,235);fill-rule:nonzero;"/>
                </g>
                <g transform="matrix(1,0,0,1,133.501,-9.75459)">
                    <path d="M259.214,179.238L245.297,189.161L261.153,196.219L259.214,179.238ZM260.716,175.867C261.841,176.367 262.721,177.422 262.88,178.819L264.819,195.801C265.142,198.638 262.26,200.752 259.651,199.59L243.797,192.531C241.188,191.369 240.83,187.814 243.155,186.156L257.072,176.232C258.216,175.417 259.589,175.365 260.716,175.867Z" style="fill:rgb(221,131,190);fill-rule:nonzero;"/>
                </g>
                <g transform="matrix(-0.5,0.866025,-0.866025,-0.5,539.645,-56.7241)">
                    <path d="M259.214,179.238L245.297,189.161L261.153,196.219L259.214,179.238ZM260.716,175.867C261.841,176.367 262.721,177.422 262.88,178.819L264.819,195.801C265.142,198.638 262.26,200.752 259.651,199.59L243.797,192.531C241.188,191.369 240.83,187.814 243.155,186.156L257.072,176.232C258.216,175.417 259.589,175.365 260.716,175.867Z" style="fill:rgb(221,131,190);fill-rule:nonzero;"/>
                </g>
                <g transform="matrix(1,0,0,1,119.274,12.0904)">
                    <path d="M146.856,145.802L134.873,157.991L151.713,162.19L146.856,145.802ZM147.749,142.223C148.944,142.52 149.994,143.406 150.392,144.755L155.25,161.142C156.061,163.88 153.591,166.461 150.82,165.771L133.981,161.572C131.21,160.882 130.241,157.442 132.241,155.405L144.225,143.216C145.21,142.214 146.551,141.925 147.749,142.223Z" style="fill:rgb(124,227,212);fill-rule:nonzero;"/>
                </g>
                <g transform="matrix(1,0,0,1,-5.34616,-6.7703)">
                    <path d="M264.218,274.523L257.674,258.726L247.227,272.592L264.216,274.523L264.218,274.523ZM267.166,276.744C266.422,277.73 265.197,278.351 263.799,278.191L246.81,276.259C243.972,275.938 242.559,272.653 244.279,270.37L254.726,256.505C256.445,254.223 259.993,254.675 261.085,257.313L267.627,273.112C268.166,274.411 267.907,275.761 267.166,276.744Z" style="fill:rgb(212,31,235);fill-rule:nonzero;"/>
                </g>
                <g transform="matrix(1,0,0,1,-2.01171,96.8913)">
                    <path d="M347.246,185.253L347.992,202.338L362.553,192.88L347.246,185.253ZM345.235,182.157C346.268,181.486 347.634,181.322 348.892,181.949L364.198,189.575C366.755,190.848 366.958,194.418 364.564,195.975L350.002,205.434C347.606,206.989 344.427,205.353 344.304,202.499L343.558,185.413C343.497,184.01 344.2,182.829 345.235,182.157Z" style="fill:rgb(124,227,212);fill-rule:nonzero;"/>
                </g>
                <path d="M169.362,262.654C179.773,264.628 189.145,270.256 195.779,278.519L191.875,287.229C191.875,287.229 169.921,282.183 169.921,277.99C169.927,276.372 169.362,262.654 169.362,262.654Z" style="fill:rgb(221,131,190);fill-rule:nonzero;"/>
                <path d="M173.691,250.482C174.06,249.833 174.687,247.472 178.498,248.885C182.31,250.298 182.57,244.577 183.347,245.134C184.315,246.666 184.031,248.691 182.681,249.898C181.04,251.165 175.08,251.348 175.681,254.493C176.283,257.639 205.463,277.766 203.002,283.33C200.54,288.894 194.724,289.816 189.787,285.998C184.85,282.179 168.748,259.179 173.691,250.482Z" style="fill:rgb(220,171,158);fill-rule:nonzero;"/>
                <path d="M157.581,239.677C157.581,239.677 157.397,234.408 154.949,234.908C152.501,235.408 150.724,240.586 152.041,242.494C153.358,244.401 157.627,244.082 157.581,239.677Z" style="fill:rgb(220,171,158);fill-rule:nonzero;"/>
                <path d="M226.093,382.525L227.145,391.253C228.571,391.253 243.798,390.301 243.957,389.349C244.116,388.397 232.22,386.892 232.22,386.892C232.264,385.489 232.213,384.084 232.061,382.689C231.864,382.226 226.093,382.525 226.093,382.525Z" style="fill:rgb(56,58,69);fill-rule:nonzero;"/>
                <path d="M203.084,397.341L200.779,405.828C202.102,406.364 216.569,411.202 217.075,410.381C217.58,409.56 207.113,403.693 207.113,403.693C207.683,402.411 208.161,401.088 208.546,399.738C208.544,399.232 203.084,397.341 203.084,397.341Z" style="fill:rgb(56,58,69);fill-rule:nonzero;"/>
                <path d="M159.403,261.76C159.403,261.76 148.166,261.059 142.548,265.265C136.931,269.471 138.685,350.604 138.685,350.604L174.853,342.176C174.853,342.176 177.312,267.372 172.746,264.211C168.18,261.051 159.403,261.76 159.403,261.76Z" style="fill:rgb(221,131,190);fill-rule:nonzero;"/>
                <path d="M138.696,339.644C138.696,339.644 198.041,291.538 218.056,312.606C238.071,333.674 232.805,385.645 232.805,385.645L224.378,385.645C224.378,385.645 221.218,326.652 207.522,323.492C193.826,320.332 179.528,337.303 179.528,337.303C179.528,337.303 200.499,332.973 212.088,343.859C220.179,351.46 209.629,402.501 209.629,402.501L201.201,402.501C201.201,402.501 207.893,350.198 196.119,350.54C184.345,350.881 138.696,350.54 138.696,350.54L138.696,339.644Z" style="fill:rgb(124,227,212);fill-rule:nonzero;"/>
                <path d="M129.843,294.265C129.843,294.265 127.321,323.105 134,323.349C140.678,323.592 163.582,311.101 165.833,310.68C169.555,309.987 173.376,312.756 173.765,312.427C174.155,312.099 173.297,307.247 165.298,306.059C158.711,305.081 141.407,312.11 140.093,309.293C138.78,306.476 144.217,265.179 144.217,265.179C144.217,265.179 129.377,270.073 129.843,294.265Z" style="fill:rgb(220,171,158);fill-rule:nonzero;"/>
                <path d="M128.023,290.355C128.023,290.355 128.392,308.879 130.027,317.637C131.416,325.097 134.051,322.789 135.954,323.529C136.508,323.745 160.07,317.332 161.21,313.246C161.362,312.748 161.439,312.231 161.439,311.711C161.439,308.824 159.065,306.45 156.178,306.45L156.082,306.45C153.372,306.247 141.83,309.922 141.967,309.174C143.398,301.306 141.332,295.076 141.967,294.368C143.937,292.174 150.514,262.293 150.514,262.293C150.514,262.293 133.944,262.657 128.023,290.355Z" style="fill:rgb(221,131,190);fill-rule:nonzero;"/>
                <path d="M172.74,227.483C172.74,227.483 178.965,248.099 170.185,250.558C161.406,253.017 163.007,243.714 163.359,245.47C163.712,247.226 165.942,261.694 165.942,261.694C165.942,261.694 161.496,267.361 153.115,262.456C151.781,261.673 156.687,239.091 157.701,227.625C158.148,222.618 169.578,221.578 172.74,227.483Z" style="fill:rgb(220,171,158);fill-rule:nonzero;"/>
                <path d="M128.637,246.906C133.71,238.767 142.577,242.584 142.77,234.876C142.964,227.168 151.703,215.505 167.383,220.001C174.889,222.154 174.594,227.041 167.621,226.875C160.647,226.709 160.409,232.123 159.828,234.876C159.247,237.628 157.452,240.704 156.968,239.239C155.136,233.684 152.897,236.536 152.897,236.536C152.897,236.536 150.227,240.899 152.897,242.17C155.566,243.441 156.627,241.918 156.968,243.744C157.31,245.57 159.247,256.577 151.604,256.898C143.96,257.219 146.573,261.842 138.188,263.585C129.803,265.329 124.02,254.313 128.637,246.906Z" style="fill:rgb(247,248,215);fill-rule:nonzero;"/>
                <path d="M179.33,258.805C180.718,259.702 182.037,260.704 183.271,261.803C184,262.388 183.236,261.661 189.062,266.441C192.329,269.179 195.596,271.306 197.165,274.005C197.631,274.804 197.246,273.968 199.209,276.221C200.659,277.769 203.741,281.311 203.059,283.18L202.511,284.401L200.961,286.598C199.95,288.072 199.382,288.321 198.327,288.469C197.314,288.546 196.297,288.546 195.286,288.469L191.685,287.364L190.339,286.598C190.339,286.598 177.233,274.863 179.33,271.23C180.138,269.834 179.33,258.805 179.33,258.805Z" style="fill:rgb(221,131,190);fill-rule:nonzero;"/>
            </g>
        </g>
    </g>
</svg>
