<svg width="29" height="34" viewBox="0 0 29 34" fill="none" xmlns="http://www.w3.org/2000/svg">
<path d="M24.5 8C25.2956 8 26.0587 7.68393 26.6213 7.12132C27.1839 6.55871 27.5 5.79565 27.5 5C27.5 4.20435 27.1839 3.44129 26.6213 2.87868C26.0587 2.31607 25.2956 2 24.5 2C23.7044 2 22.9413 2.31607 22.3787 2.87868C21.8161 3.44129 21.5 4.20435 21.5 5C21.5 5.79565 21.8161 6.55871 22.3787 7.12132C22.9413 7.68393 23.7044 8 24.5 8ZM5 8C5.79565 8 6.55871 7.68393 7.12132 7.12132C7.68393 6.55871 8 5.79565 8 5C8 4.20435 7.68393 3.44129 7.12132 2.87868C6.55871 2.31607 5.79565 2 5 2C4.20435 2 3.44129 2.31607 2.87868 2.87868C2.31607 3.44129 2 4.20435 2 5C2 5.79565 2.31607 6.55871 2.87868 7.12132C3.44129 7.68393 4.20435 8 5 8ZM5 32C5.79565 32 6.55871 31.6839 7.12132 31.1213C7.68393 30.5587 8 29.7956 8 29C8 28.2044 7.68393 27.4413 7.12132 26.8787C6.55871 26.3161 5.79565 26 5 26C4.20435 26 3.44129 26.3161 2.87868 26.8787C2.31607 27.4413 2 28.2044 2 29C2 29.7956 2.31607 30.5587 2.87868 31.1213C3.44129 31.6839 4.20435 32 5 32Z" stroke="#EDF1F2" stroke-width="3" stroke-linecap="round" stroke-linejoin="round"/>
<path d="M5 8V26V23.75C5 17.75 24.5 17 24.5 11V8" stroke="#EDF1F2" stroke-width="3" stroke-linecap="round" stroke-linejoin="round"/>
</svg>
