<svg width="28" height="34" viewBox="0 0 28 34" fill="none" xmlns="http://www.w3.org/2000/svg">
<path d="M7.08773 31.9977V26.2472C4.04443 25.1923 2 21.6495 2 17.486C2 15.0051 2.56012 12.4123 5.31402 12.4123H12.2991C12.9206 12.4129 13.5211 12.6366 13.9915 13.0428C14.4618 13.4489 14.7706 14.0105 14.8616 14.6252C14.9527 15.24 14.8199 15.867 14.4875 16.392C14.1551 16.9171 13.6452 17.3053 13.0506 17.486L9.0598 18.6972C11.0996 18.6972 13.6061 20.6343 13.5524 23.1432M20.8899 32V26.2472C20.8899 26.2472 22.2599 25.5633 23.6905 24.1934C26.4468 21.5538 26.8062 17.381 26.0617 13.6375C25.812 12.3913 25.4549 11.1263 24.9484 10.0621M4.21013 12.2419V7.84032C4.21013 6.92518 4.57367 6.04752 5.22077 5.40041C5.86787 4.75331 6.74554 4.38977 7.66068 4.38977C8.57582 4.38977 9.45348 4.75331 10.1006 5.40041C10.7477 6.04752 11.1112 6.92518 11.1112 7.84032V12.2419" stroke="#EDF1F2" stroke-width="3" stroke-linecap="round" stroke-linejoin="round"/>
<path d="M11.111 11.3364V5.54383C11.099 5.08284 11.1795 4.62411 11.3476 4.1947C11.5158 3.7653 11.7682 3.37391 12.09 3.04362C12.4118 2.71333 12.7965 2.45082 13.2214 2.27158C13.6463 2.09234 14.1028 2 14.5639 2C15.0251 2 15.4815 2.09234 15.9064 2.27158C16.3313 2.45082 16.716 2.71333 17.0378 3.04362C17.3597 3.37391 17.6121 3.7653 17.7802 4.1947C17.9483 4.62411 18.0288 5.08284 18.0168 5.54383V11.3364C18.0159 12.2054 17.6875 13.0421 17.097 13.6797C16.5066 14.3173 15.6975 14.7089 14.8311 14.7764" stroke="#EDF1F2" stroke-width="3" stroke-linecap="round" stroke-linejoin="round"/>
<path d="M18.0163 7.84267C18.0043 7.38199 18.0847 6.92357 18.2527 6.49445C18.4208 6.06533 18.673 5.6742 18.9946 5.34413C19.3162 5.01406 19.7006 4.75173 20.1252 4.57261C20.5498 4.39349 21.006 4.30121 21.4669 4.30121C21.9277 4.30121 22.3839 4.39349 22.8085 4.57261C23.2331 4.75173 23.6175 5.01406 23.9391 5.34413C24.2607 5.6742 24.513 6.06533 24.681 6.49445C24.849 6.92357 24.9294 7.38199 24.9174 7.84267V10.8066C24.9294 11.2673 24.849 11.7257 24.681 12.1548C24.513 12.584 24.2607 12.9751 23.9391 13.3052C23.6175 13.6352 23.2331 13.8976 22.8085 14.0767C22.3839 14.2558 21.9277 14.3481 21.4669 14.3481C21.006 14.3481 20.5498 14.2558 20.1252 14.0767C19.7006 13.8976 19.3162 13.6352 18.9946 13.3052C18.673 12.9751 18.4208 12.584 18.2527 12.1548C18.0847 11.7257 18.0043 11.2673 18.0163 10.8066V7.84267Z" stroke="#EDF1F2" stroke-width="3" stroke-linecap="round" stroke-linejoin="round"/>
</svg>
