<svg width="30" height="34" viewBox="0 0 30 34" fill="none" xmlns="http://www.w3.org/2000/svg">
<path d="M16.3189 15.5577H22.228M16.3189 23.5631H22.228M28 29.6923C28 30.3043 27.751 30.8913 27.3077 31.3241C26.8644 31.7569 26.2632 32 25.6364 32H4.36364C3.73676 32 3.13556 31.7569 2.69229 31.3241C2.24903 30.8913 2 30.3043 2 29.6923V4.30769C2 3.69565 2.24903 3.10868 2.69229 2.67591C3.13556 2.24313 3.73676 2 4.36364 2H17.5669C18.1937 2.00013 18.7948 2.24335 19.238 2.67615L27.3075 10.5546C27.7508 10.9873 27.9999 11.5742 28 12.1862V29.6923Z" stroke="#EDF1F2" stroke-width="3" stroke-linecap="round" stroke-linejoin="round"/>
<path d="M7.05615 23.4315L8.99 25.3653L12.2138 20.8538M7.05615 15.283L8.99 17.2169L12.2138 12.7053" stroke="#EDF1F2" stroke-width="3" stroke-linecap="round" stroke-linejoin="round"/>
</svg>
