<svg width="30" height="34" viewBox="0 0 30 34" fill="none" xmlns="http://www.w3.org/2000/svg">
<path d="M5 8C5.79565 8 6.55871 7.68393 7.12132 7.12132C7.68393 6.55871 8 5.79565 8 5C8 4.20435 7.68393 3.44129 7.12132 2.87868C6.55871 2.31607 5.79565 2 5 2C4.20435 2 3.44129 2.31607 2.87868 2.87868C2.31607 3.44129 2 4.20435 2 5C2 5.79565 2.31607 6.55871 2.87868 7.12132C3.44129 7.68393 4.20435 8 5 8ZM5 32C5.79565 32 6.55871 31.6839 7.12132 31.1213C7.68393 30.5587 8 29.7956 8 29C8 28.2044 7.68393 27.4413 7.12132 26.8787C6.55871 26.3161 5.79565 26 5 26C4.20435 26 3.44129 26.3161 2.87868 26.8787C2.31607 27.4413 2 28.2044 2 29C2 29.7956 2.31607 30.5587 2.87868 31.1213C3.44129 31.6839 4.20435 32 5 32Z" stroke="#EDF1F2" stroke-width="3" stroke-linejoin="round"/>
<path d="M5 8V26V17.006" stroke="#EDF1F2" stroke-width="3" stroke-linecap="round" stroke-linejoin="round"/>
<path fill-rule="evenodd" clip-rule="evenodd" d="M30 7.5C30 11.366 26.866 14.5 23 14.5C19.134 14.5 16 11.366 16 7.5C16 3.63401 19.134 0.5 23 0.5C26.866 0.5 30 3.63401 30 7.5ZM19 8.5C18.4477 8.5 18 8.05228 18 7.5C18 6.94772 18.4477 6.5 19 6.5H22V3.5C22 2.94772 22.4477 2.5 23 2.5C23.5523 2.5 24 2.94772 24 3.5V6.5H27C27.5523 6.5 28 6.94772 28 7.5C28 8.05228 27.5523 8.5 27 8.5H24V11.5C24 12.0523 23.5523 12.5 23 12.5C22.4477 12.5 22 12.0523 22 11.5V8.5H19Z" fill="#EDF1F2"/>
<path d="M5 25V24.5C5 22.2909 6.79086 20.5 9 20.5H19C21.2091 20.5 23 18.7091 23 16.5V14" stroke="#EDF1F2" stroke-width="3" stroke-linejoin="bevel"/>
</svg>
