<svg width="33" height="34" viewBox="0 0 33 34" fill="none" xmlns="http://www.w3.org/2000/svg">
<path d="M2.00592 15.5576C1.98699 15.3396 2.01358 15.1201 2.08401 14.9129C2.15444 14.7057 2.26717 14.5154 2.41504 14.3541C2.56291 14.1928 2.7427 14.064 2.943 13.9758C3.14329 13.8877 3.35972 13.8422 3.57855 13.8421H5.59355C6.01231 13.8421 6.41392 14.0085 6.71003 14.3046C7.00614 14.6007 7.1725 15.0023 7.1725 15.4211V30.4211C7.1725 30.8398 7.00614 31.2414 6.71003 31.5375C6.41392 31.8336 6.01231 32 5.59355 32H3.57934C3.18415 32.0001 2.8033 31.852 2.51199 31.585C2.22068 31.3179 2.0401 30.9513 2.00592 30.5576V15.5576ZM10.9093 14.9276C10.9093 14.2676 11.3199 13.6771 11.9159 13.396C13.2178 12.7818 15.4354 11.5479 16.4357 9.87973C17.7249 7.72921 17.968 3.84421 18.0075 2.95447C18.013 2.82973 18.0099 2.705 18.0264 2.58184C18.2404 1.04 21.2159 2.84079 22.3567 4.745C22.9764 5.77763 23.0554 7.13473 22.9907 8.195C22.9204 9.32868 22.588 10.4237 22.262 11.5116L21.5672 13.8303H29.1386C29.3825 13.8302 29.6231 13.8868 29.8416 13.9954C30.06 14.104 30.2503 14.2617 30.3976 14.4562C30.5448 14.6507 30.645 14.8767 30.6902 15.1164C30.7355 15.3562 30.7245 15.6031 30.6583 15.8379L26.4188 30.8505C26.3252 31.1816 26.126 31.4731 25.8516 31.6806C25.5771 31.8881 25.2424 32.0002 24.8983 32H12.4883C12.0695 32 11.6679 31.8336 11.3718 31.5375C11.0757 31.2414 10.9093 30.8398 10.9093 30.4211V14.9276Z" stroke="#EDF1F2" stroke-width="3" stroke-linecap="round" stroke-linejoin="round"/>
</svg>
