<svg width="19" height="18" viewBox="0 0 19 18" fill="none" xmlns="http://www.w3.org/2000/svg">
<path fill-rule="evenodd" clip-rule="evenodd" d="M9.28509 0C4.45219 0 0.535156 4.01621 0.535156 8.97149C0.535156 12.9346 3.04153 16.2978 6.51904 17.4851C6.9568 17.5661 7.11471 17.2899 7.11471 17.0525C7.11471 16.8393 7.1077 16.2744 7.10506 15.5269C4.67063 16.0684 4.15654 14.3234 4.15654 14.3234C3.76002 13.2872 3.1854 13.0111 3.1854 13.0111C2.39147 12.4543 3.24593 12.4669 3.24593 12.4669C4.12496 12.5299 4.58553 13.3916 4.58553 13.3916C5.36631 14.7624 6.63484 14.3666 7.13138 14.1372C7.21121 13.5571 7.4393 13.1613 7.68845 12.9373C5.74617 12.7116 3.70387 11.9416 3.70387 8.50285C3.70387 7.52511 4.04513 6.72277 4.6022 6.09673C4.51359 5.86915 4.21094 4.95618 4.68905 3.72208C4.68905 3.72208 5.42333 3.48012 7.09454 4.64046C7.7946 4.44167 8.54116 4.34183 9.28421 4.33823C10.029 4.34183 10.7765 4.44167 11.4739 4.64046C13.146 3.47922 13.8794 3.72208 13.8794 3.72208C14.3575 4.95618 14.0575 5.86915 13.9662 6.09673C14.5277 6.72277 14.8646 7.52421 14.8646 8.50285C14.8646 11.9506 12.8205 12.708 10.8712 12.9301C11.1826 13.2072 11.4634 13.7541 11.4634 14.5906C11.4634 15.7905 11.4528 16.7584 11.4528 17.0525C11.4528 17.2926 11.609 17.5715 12.0555 17.4833C15.5313 16.2942 18.035 12.9337 18.035 8.97149C18.035 4.01621 14.118 0 9.28509 0Z" fill="white"/>
</svg>
