<svg width="75" height="75" viewBox="0 0 75 75" fill="none" xmlns="http://www.w3.org/2000/svg">
<path fill-rule="evenodd" clip-rule="evenodd" d="M22.5 22.5V7.5C22.5 3.35786 25.8579 0 30 0H45C49.1421 0 52.5 3.35786 52.5 7.5V22.5H67.5C71.6421 22.5 75 25.8579 75 30V45C75 49.1421 71.6421 52.5 67.5 52.5H52.5V67.5C52.5 71.6421 49.1421 75 45 75H30C25.8579 75 22.5 71.6421 22.5 67.5V52.5H7.5C3.35786 52.5 0 49.1421 0 45V30C0 25.8579 3.35786 22.5 7.5 22.5H22.5ZM30 7.5V26.25C30 28.3211 28.3211 30 26.25 30H7.5V45H26.25C28.3211 45 30 46.6789 30 48.75V67.5H45V48.75C45 46.6789 46.6789 45 48.75 45H67.5V30H48.75C46.6789 30 45 28.3211 45 26.25V7.5H30Z" fill="white"/>
</svg>
