<?xml version="1.0" encoding="UTF-8" standalone="no"?>
<!DOCTYPE svg PUBLIC "-//W3C//DTD SVG 1.1//EN" "http://www.w3.org/Graphics/SVG/1.1/DTD/svg11.dtd">
<svg width="100%" height="100%" viewBox="0 0 450 400" version="1.1" xmlns="http://www.w3.org/2000/svg" xmlns:xlink="http://www.w3.org/1999/xlink" xml:space="preserve" xmlns:serif="http://www.serif.com/" style="fill-rule:evenodd;clip-rule:evenodd;">
    <g transform="matrix(1,0,0,1,-1722,0)">
        <g transform="matrix(1.13636,0,0,1.0101,1722,0)">
            <g transform="matrix(0.935902,0,0,0.903065,9.26042,38.3792)">
                <g opacity="0.75">
                    <g transform="matrix(1.23317,0.385247,-0.247285,0.956619,27.8398,-176.907)">
                        <path d="M204,247.998L162,264.661L204,278.998L204,247.998Z" style="fill:rgb(239,242,255);fill-rule:nonzero;"/>
                    </g>
                    <g transform="matrix(0.647729,0,-9.17347e-08,0.815408,38.9495,40.0861)">
                        <ellipse cx="384.03" cy="261.046" rx="193.8" ry="175.351" style="fill:rgb(239,242,255);"/>
                    </g>
                </g>
            </g>
        </g>
        <g transform="matrix(1.13636,0,0,1.0101,1722,0)">
            <g transform="matrix(1,0,0,1,-4.14844e-05,1.06581e-14)">
                <g opacity="0.5">
                    <g transform="matrix(-0.910625,1.02445,-0.622254,-0.700036,708.208,19.3107)">
                        <path d="M204,247.998L162,264.661L204,278.998L204,247.998Z" style="fill:rgb(239,242,255);fill-rule:nonzero;"/>
                    </g>
                    <g transform="matrix(0.455681,0,-6.4536e-08,0.482597,132.694,-41.3561)">
                        <ellipse cx="384.03" cy="261.046" rx="193.8" ry="175.351" style="fill:rgb(239,242,255);"/>
                    </g>
                </g>
            </g>
        </g>
        <g transform="matrix(1.13636,0,0,1.0101,1722,0)">
            <g transform="matrix(0.88,0,0,0.99,-24.64,-9.9e-05)">
                <g>
                    <g transform="matrix(-1,0,0,1,103,264.972)">
                        <rect x="0" y="0" width="70" height="90" style="fill:rgb(227,228,245);"/>
                    </g>
                    <g transform="matrix(-1,0,0,1,108,259.972)">
                        <path d="M80,2C80,0.896 79.104,0 78,0L2,0C0.896,0 0,0.896 0,2L0,3C0,4.104 0.896,5 2,5L78,5C79.104,5 80,4.104 80,3L80,2Z" style="fill:rgb(34,142,194);"/>
                    </g>
                    <g transform="matrix(-1,0,0,1,102,256.972)">
                        <path d="M30,1.5C30,0.672 29.328,0 28.5,0L1.5,0C0.672,0 0,0.672 0,1.5C0,2.328 0.672,3 1.5,3L28.5,3C29.328,3 30,2.328 30,1.5Z"/>
                    </g>
                    <g transform="matrix(-0.258819,-0.965926,-0.965926,0.258819,74,257.95)">
                        <path d="M30,1C30,0.448 29.552,0 29,0L1,0C0.448,0 0,0.448 0,1C0,1.552 0.448,2 1,2L29,2C29.552,2 30,1.552 30,1Z"/>
                    </g>
                    <g transform="matrix(1,0,0,1,28,-103.026)">
                        <path d="M11.5,342.998L9.5,342.998L9.5,359.498C9.5,359.774 9.724,359.998 10,359.998L11,359.998C11.276,359.998 11.5,359.774 11.5,359.498L11.5,342.998Z" style="fill:rgb(170,202,218);fill-rule:nonzero;"/>
                    </g>
                    <g transform="matrix(1,0,0,1,28,-103.026)">
                        <path d="M12,348.248L9,348.248C8.586,348.248 8.25,348.584 8.25,348.998L8.25,362.498C8.25,362.636 8.362,362.748 8.5,362.748L12.5,362.748C12.638,362.748 12.75,362.636 12.75,362.498L12.75,348.998C12.75,348.584 12.414,348.248 12,348.248Z" style="fill:none;fill-rule:nonzero;stroke:rgb(174,174,174);stroke-width:0.5px;"/>
                    </g>
                    <g transform="matrix(1,0,0,1,28,-103.026)">
                        <path d="M32.111,354.998C32.111,353.893 31.216,352.998 30.111,352.998L19.148,352.998L19.148,356.998L30.111,356.998C31.216,356.998 32.111,356.103 32.111,354.998Z" style="fill:rgb(238,121,34);fill-rule:nonzero;"/>
                    </g>
                    <g transform="matrix(1,0,0,1,28,-103.026)">
                        <path d="M31.741,354.998C31.741,354.077 30.994,353.331 30.074,353.331L19.148,353.331L19.148,356.664L30.074,356.664C30.994,356.664 31.741,355.918 31.741,354.998Z" style="fill:white;fill-rule:nonzero;"/>
                    </g>
                    <g transform="matrix(-1,0,0,1,47.3335,250.302)">
                        <rect x="0" y="0" width="1.111" height="3.33" style="fill:rgb(239,242,255);"/>
                    </g>
                    <g transform="matrix(1,0,0,1,28,-103.026)">
                        <path d="M36,359.498C36,358.117 34.881,356.998 33.5,356.998L16.556,356.998L16.556,362.998L33.5,362.998C34.881,362.998 36,361.879 36,360.498L36,359.498Z" style="fill:rgb(34,142,194);fill-rule:nonzero;"/>
                    </g>
                    <g transform="matrix(1,0,0,1,28,-103.026)">
                        <path d="M35.444,359.498C35.444,358.393 34.549,357.498 33.444,357.498L16.555,357.498L16.555,362.498L33.444,362.498C34.549,362.498 35.444,361.603 35.444,360.498L35.444,359.498Z" style="fill:white;fill-rule:nonzero;"/>
                    </g>
                    <g transform="matrix(-1,0,0,1,45.1113,254.472)">
                        <rect x="0" y="0" width="1.111" height="5" style="fill:rgb(239,242,255);"/>
                    </g>
                </g>
                <g transform="matrix(1,0,0,1,4.2332,0)">
                    <g transform="matrix(1,0,0,1,26.0225,-103.026)">
                        <path d="M166.688,408.683L105.224,411.389L124.359,345.672L153.352,362.294L166.688,408.683Z" style="fill:rgb(169,172,188);"/>
                    </g>
                    <g transform="matrix(1,0,0,1,26.0225,-103.026)">
                        <path d="M147.733,452.746L139.518,452.746L135.459,374.465L131.806,452.746L124.108,452.746L115.261,356.49L155.307,357.07L147.733,452.746Z" style="fill:rgb(34,142,194);"/>
                    </g>
                    <g transform="matrix(1,0,0,1,26.0225,-103.026)">
                        <path d="M145.816,452.748C147.569,452.748 151.291,453.819 152.775,454.681C156.299,456.727 155.481,457.58 155.481,457.58L141.292,457.58C140.973,457.58 140.686,457.388 140.565,457.093C140.063,455.856 140.009,454.582 140.553,453.258C140.679,452.951 140.978,452.752 141.309,452.752C142.592,452.748 145.816,452.748 145.816,452.748Z"/>
                    </g>
                    <g transform="matrix(1,0,0,1,26.0225,-103.026)">
                        <path d="M129.769,452.748C131.521,452.748 135.244,453.819 136.727,454.681C140.252,456.727 139.433,457.58 139.433,457.58L125.244,457.58C124.926,457.58 124.639,457.388 124.518,457.093C124.016,455.856 123.962,454.582 124.506,453.258C124.632,452.951 124.93,452.752 125.262,452.752C126.545,452.748 129.769,452.748 129.769,452.748Z"/>
                    </g>
                    <g transform="matrix(1,0,0,1,26.0225,-103.026)">
                        <path d="M146.72,355.175L151.806,415.859L166.688,408.707L156.638,332.94L143.952,319.986L146.72,355.175" style="fill:rgb(230,234,255);"/>
                    </g>
                    <g transform="matrix(1,0,0,1,26.0225,-103.026)">
                        <path d="M129.731,323.479L131.415,416.232L105.225,411.4L116.629,318.43C116.629,318.43 128.954,314.592 128.999,315.144C129.045,315.697 129.731,323.479 129.731,323.479Z" style="fill:rgb(230,234,255);"/>
                    </g>
                    <g transform="matrix(1,0,0,1,26.0225,-103.026)">
                        <path d="M177.711,310.707L171.913,305.295C167.602,309.751 163.42,314.468 159.349,319.405C157.701,309.087 154.366,299.382 150.072,290.026C150.072,290.026 147.963,282.913 139.538,281.715C131.112,280.517 125.462,281.164 121.659,284.227C118.173,287.035 116.177,289.79 112.188,301.816C110.534,306.804 106.961,318.15 106.427,323.955C105.043,338.993 106.389,354.859 107.356,363.861L115.927,362.831L115.667,327.136L116.633,318.439L156.257,333.708L159.349,331.775C166.372,325.542 172.613,318.624 177.711,310.707Z" style="fill:rgb(230,234,255);"/>
                    </g>
                    <g transform="matrix(1,0,0,1,26.0225,-103.026)">
                        <path d="M129.622,287.609C129.622,291.33 132.264,294.351 135.517,294.351C138.771,294.351 141.413,291.33 141.413,287.609C141.413,283.888 138.771,280.867 135.517,280.867C132.264,280.867 129.622,283.888 129.622,287.609Z" style="fill:rgb(217,143,100);"/>
                    </g>
                    <g transform="matrix(1,0,0,1,26.0225,-103.026)">
                        <path d="M141.346,286.789L147.052,358.879L129.901,359.5L129.599,287.176C133.408,288.818 137.283,289.367 141.346,286.789Z" style="fill:rgb(34,142,194);"/>
                    </g>
                    <g transform="matrix(1,0,0,1,26.0225,-103.026)">
                        <path d="M115.817,347.723L115.927,362.842L113.738,363.105C113.738,363.105 113.702,365.916 114.314,366.384C114.926,366.853 118.116,368.367 117.6,369.67C117.083,370.973 115.015,368.851 115.087,369.863C115.111,370.196 115.218,370.723 115.319,371.303L133.312,371.303L133.312,347.723L115.817,347.723ZM106.078,347.723L102,347.723L102,371.303L108.506,371.303C108.541,369.635 108.794,365.791 108.515,365.031C108.182,364.124 108.143,364.071 107.823,363.815L107.355,363.871C106.908,359.704 106.379,354.067 106.078,347.723Z" style="fill:rgb(238,121,34);"/>
                    </g>
                    <g transform="matrix(1,0,0,1,26.0225,-103.026)">
                        <path d="M124.579,356.942C124.579,356.169 125.207,355.541 125.981,355.541L128.783,355.541C129.557,355.541 130.185,356.169 130.185,356.942L130.185,362.064C130.185,362.838 129.557,363.466 128.783,363.466L125.981,363.466C125.207,363.466 124.579,362.838 124.579,362.064L124.579,356.942Z" style="fill:white;fill-opacity:0.5;"/>
                    </g>
                    <g transform="matrix(1,0,0,1,26.0225,-103.026)">
                        <path d="M122.648,355.541L122.648,363.466" style="fill:none;fill-rule:nonzero;stroke:white;stroke-opacity:0.5;stroke-width:0.5px;stroke-linecap:round;stroke-linejoin:round;stroke-miterlimit:1.5;"/>
                    </g>
                    <g transform="matrix(1,0,0,1,26.0225,-103.026)">
                        <path d="M121.11,355.541L121.11,363.466" style="fill:none;fill-rule:nonzero;stroke:white;stroke-opacity:0.5;stroke-width:0.5px;stroke-linecap:round;stroke-linejoin:round;stroke-miterlimit:1.5;"/>
                    </g>
                    <g transform="matrix(1,0,0,1,26.0225,-103.026)">
                        <path d="M119.572,355.541L119.572,363.466" style="fill:none;fill-rule:nonzero;stroke:white;stroke-opacity:0.5;stroke-width:0.5px;stroke-linecap:round;stroke-linejoin:round;stroke-miterlimit:1.5;"/>
                    </g>
                    <g transform="matrix(1,0,0,1,26.0225,-103.026)">
                        <path d="M176.205,309.296C176.205,309.296 179.246,308.674 180.432,306.464C181.619,304.255 178.952,302.492 178.886,301.245C178.821,299.999 180.257,297.924 179.466,297.766C178.675,297.608 178.062,297.311 176.011,300.859C175.785,301.249 174.972,301.518 174.054,303.178C173.399,304.362 173.76,306.613 173.861,307.108C173.962,307.603 176.205,309.296 176.205,309.296Z" style="fill:rgb(217,143,100);"/>
                    </g>
                    <g transform="matrix(1,0,0,1,26.0225,-103.026)">
                        <path d="M113.757,363.104C113.757,363.104 113.721,365.914 114.333,366.383C114.945,366.852 118.135,368.366 117.618,369.669C117.102,370.972 115.034,368.85 115.106,369.862C115.178,370.874 116.025,373.688 115.106,374.308C114.187,374.928 112.671,374.878 112.013,374.888C111.623,374.893 108.707,373.401 108.534,371.988C108.442,371.24 108.867,365.938 108.534,365.03C108.201,364.122 108.162,364.07 107.842,363.814C107.521,363.559 113.757,363.104 113.757,363.104Z" style="fill:rgb(217,143,100);"/>
                    </g>
                    <g transform="matrix(1,0,0,1,26.0225,-103.026)">
                        <path d="M142.7,285.761C142.7,285.761 143.818,281.235 135.031,280.927C127.989,280.681 126.619,285.978 126.527,287.303C126.368,289.596 126.527,311.273 126.527,311.273" style="fill:none;fill-rule:nonzero;stroke:black;stroke-width:0.5px;stroke-linecap:round;stroke-linejoin:round;stroke-miterlimit:1.5;"/>
                    </g>
                    <g transform="matrix(1,0,0,1,26.0225,-103.026)">
                        <path d="M147.584,316.29C146.944,316.29 146.425,315.424 146.425,314.357C146.425,313.289 146.944,312.424 147.584,312.424C148.225,312.424 148.744,313.289 148.744,314.357C148.744,315.424 148.225,316.29 147.584,316.29Z" style="fill:rgb(174,174,174);fill-rule:nonzero;"/>
                    </g>
                    <g transform="matrix(1,0,0,1,26.0225,-103.026)">
                        <path d="M143.534,315.136C142.894,315.136 142.374,314.271 142.374,313.203C142.374,312.136 142.894,311.271 143.534,311.271C144.175,311.271 144.694,312.136 144.694,313.203C144.694,314.271 144.175,315.136 143.534,315.136Z" style="fill:rgb(174,174,174);fill-rule:nonzero;"/>
                    </g>
                    <g transform="matrix(1,0,0,1,26.0225,-103.026)">
                        <path d="M148.725,314.836C148.725,314.836 151.587,315.014 151.851,311.858C152.116,308.702 149.725,292.916 149.725,292.916" style="fill:none;fill-rule:nonzero;stroke:rgb(174,174,174);stroke-width:0.5px;stroke-linecap:round;stroke-linejoin:round;stroke-miterlimit:1.5;"/>
                    </g>
                    <g transform="matrix(1,0,0,1,26.0225,-103.026)">
                        <path d="M142.387,313.216C142.387,313.216 138.996,312.958 138.328,308.578C137.659,304.197 136.781,294.274 136.781,294.274" style="fill:none;fill-rule:nonzero;stroke:rgb(174,174,174);stroke-width:0.5px;stroke-linecap:round;stroke-linejoin:round;stroke-miterlimit:1.5;"/>
                    </g>
                    <g transform="matrix(1,0,0,1,26.0225,-103.026)">
                        <path d="M149.718,292.918C149.718,292.918 149.129,285.602 142.76,285.766C136.391,285.931 136.528,290.589 136.768,294.271" style="fill:none;fill-rule:nonzero;stroke:black;stroke-width:0.5px;stroke-linecap:round;stroke-linejoin:round;stroke-miterlimit:1.5;"/>
                    </g>
                    <g transform="matrix(1,0,0,1,26.0225,-103.026)">
                        <path d="M126.459,314.082C124.911,314.082 123.656,312.827 123.656,311.279C123.656,309.731 124.911,308.477 126.459,308.477C128.007,308.477 129.262,309.731 129.262,311.279C129.262,312.827 128.007,314.082 126.459,314.082Z" style="fill-rule:nonzero;"/>
                    </g>
                    <g transform="matrix(1,0,0,1,26.0225,-103.026)">
                        <path d="M126.736,272.644C126.736,272.644 119.735,267.644 121.705,257.162C122.006,255.558 122.504,254.928 123.047,254.434C130.144,247.989 127.662,255.159 127.662,255.159L126.736,272.644Z" style="fill:rgb(50,50,50);"/>
                    </g>
                    <g transform="matrix(1,0,0,1,26.0225,-103.026)">
                        <path d="M135.516,278.424C129.485,278.424 124.596,272.28 124.596,264.701C124.596,257.122 129.485,250.978 135.516,250.978C141.548,250.978 146.437,257.122 146.437,264.701C146.437,272.28 141.548,278.424 135.516,278.424Z" style="fill:rgb(217,143,100);fill-rule:nonzero;"/>
                    </g>
                    <g transform="matrix(1,0,0,1,26.0225,-103.026)">
                        <path d="M126.736,256.645C126.736,256.645 129.889,256.2 134.365,258.376C141.367,261.78 146.984,257.145 147.454,254.923C148.057,252.07 147.983,246.915 143.597,245.943C137.736,244.645 138.236,249.645 131.736,248.645C129.336,247.645 126.251,249.221 125.496,252.795C124.851,255.842 126.736,256.645 126.736,256.645Z" style="fill:rgb(50,50,50);"/>
                    </g>
                    <g transform="matrix(1,0,0,1,26.0225,-103.026)">
                        <rect x="131.449" y="276.689" width="8.118" height="9.084" style="fill:rgb(217,143,100);"/>
                    </g>
                    <g transform="matrix(1,0,0,1,26.0225,-103.026)">
                        <path d="M123.528,262.805C122.493,262.944 121.844,264.483 122.079,266.242C122.315,268 123.346,269.315 124.381,269.176C125.416,269.037 126.065,267.498 125.83,265.739C125.594,263.981 124.563,262.666 123.528,262.805Z" style="fill:rgb(217,143,100);"/>
                    </g>
                </g>
            </g>
        </g>
    </g>
</svg>
