<?xml version="1.0" encoding="UTF-8" standalone="no"?><!DOCTYPE svg PUBLIC "-//W3C//DTD SVG 1.1//EN" "http://www.w3.org/Graphics/SVG/1.1/DTD/svg11.dtd"><svg width="100%" height="100%" viewBox="0 0 132 75" version="1.1" xmlns="http://www.w3.org/2000/svg" xmlns:xlink="http://www.w3.org/1999/xlink" xml:space="preserve" xmlns:serif="http://www.serif.com/" style="fill-rule:evenodd;clip-rule:evenodd;stroke-linejoin:round;stroke-miterlimit:2;"><path d="M99.324,61.643c-0.705,-0.405 -1.49,-0.609 -2.354,-0.609c-1.064,-0 -1.893,0.21 -2.482,0.63c-0.592,0.42 -1.029,0.895 -1.307,1.426l-0.239,0l0,-1.776l-1.158,-0l0,13.686l1.196,0l0,-5.685l0.239,-0c0.172,0.318 0.417,0.63 0.73,0.936c0.312,0.307 0.717,0.554 1.216,0.75c0.499,0.192 1.1,0.289 1.805,0.289c0.878,-0 1.669,-0.204 2.375,-0.61c0.703,-0.405 1.263,-0.983 1.674,-1.736c0.414,-0.749 0.619,-1.639 0.619,-2.663l-0,-0.239c-0,-1.038 -0.21,-1.928 -0.628,-2.672c-0.42,-0.746 -0.98,-1.321 -1.686,-1.727Zm-77.241,7.371c-0.333,0 -0.607,0.108 -0.817,0.318c-0.213,0.213 -0.321,0.488 -0.321,0.82c0,0.333 0.108,0.604 0.321,0.817c0.21,0.213 0.484,0.321 0.817,0.321c0.332,-0 0.604,-0.108 0.817,-0.321c0.212,-0.213 0.32,-0.484 0.32,-0.817c0,-0.332 -0.108,-0.607 -0.32,-0.82c-0.213,-0.21 -0.485,-0.318 -0.817,-0.318Zm36.945,0c-0.333,0 -0.607,0.108 -0.817,0.318c-0.213,0.213 -0.321,0.488 -0.321,0.82c0,0.333 0.108,0.604 0.321,0.817c0.21,0.213 0.484,0.321 0.817,0.321c0.332,-0 0.604,-0.108 0.817,-0.321c0.213,-0.213 0.32,-0.484 0.32,-0.817c0,-0.332 -0.107,-0.607 -0.32,-0.82c-0.213,-0.21 -0.485,-0.318 -0.817,-0.318Zm69.721,-5.715c-0.677,-0.3 -1.45,-0.449 -2.313,-0.449l-1.097,0l-0,-0.198l5.603,-3.813l0,-1.793l-9.573,-0l0,1.117l8.337,-0l-0,0.198l-5.665,3.85l-0,1.678l2.053,-0c0.665,-0 1.275,0.102 1.826,0.309c0.552,0.204 0.992,0.522 1.319,0.948c0.324,0.423 0.487,0.983 0.487,1.674l-0,0.12c-0,0.93 -0.318,1.703 -0.957,2.313c-0.639,0.612 -1.531,0.919 -2.675,0.919c-1.128,-0 -2.047,-0.321 -2.75,-0.969c-0.706,-0.644 -1.059,-1.531 -1.059,-2.663l-0,-0.4l-1.237,0l0,0.38c0,1.012 0.216,1.872 0.648,2.584c0.434,0.712 1.032,1.254 1.797,1.628c0.764,0.37 1.633,0.557 2.601,0.557c0.986,-0 1.844,-0.181 2.576,-0.54c0.729,-0.359 1.295,-0.86 1.695,-1.505c0.399,-0.645 0.598,-1.4 0.598,-2.263l-0,-0.202c-0,-0.863 -0.199,-1.584 -0.598,-2.164c-0.4,-0.578 -0.939,-1.015 -1.616,-1.316Zm-53.802,0.858c-0.613,-0.286 -1.284,-0.516 -2.016,-0.688l-1.274,-0.318c-0.639,-0.161 -1.196,-0.342 -1.666,-0.54c-0.472,-0.198 -0.84,-0.467 -1.1,-0.799c-0.256,-0.33 -0.388,-0.776 -0.388,-1.336c0,-0.837 0.315,-1.479 0.948,-1.925c0.63,-0.444 1.433,-0.668 2.404,-0.668c0.677,-0 1.289,0.108 1.835,0.321c0.545,0.212 0.977,0.545 1.298,0.997c0.318,0.452 0.478,1.044 0.478,1.774l0,0.939l1.278,-0l-0,-0.939c-0,-0.931 -0.219,-1.707 -0.651,-2.325c-0.431,-0.619 -1.018,-1.085 -1.756,-1.406c-0.738,-0.318 -1.563,-0.479 -2.482,-0.479c-0.919,0 -1.724,0.149 -2.415,0.45c-0.692,0.3 -1.234,0.729 -1.625,1.286c-0.391,0.56 -0.589,1.216 -0.589,1.975c-0,0.758 0.172,1.38 0.519,1.867c0.347,0.484 0.82,0.878 1.418,1.175c0.598,0.301 1.274,0.549 2.033,0.75l1.277,0.318c0.639,0.16 1.199,0.344 1.686,0.548c0.485,0.207 0.864,0.478 1.138,0.82c0.271,0.338 0.408,0.787 0.408,1.344c0,0.838 -0.312,1.526 -0.939,2.066c-0.624,0.539 -1.514,0.808 -2.672,0.808c-1.143,-0 -2.085,-0.31 -2.823,-0.928c-0.738,-0.618 -1.106,-1.572 -1.106,-2.861l0,-0.38l-1.278,0l0,0.38c0,1.117 0.225,2.036 0.68,2.762c0.449,0.723 1.071,1.263 1.855,1.616c0.785,0.35 1.675,0.528 2.672,0.528c0.983,-0 1.844,-0.164 2.573,-0.49c0.732,-0.324 1.301,-0.788 1.706,-1.386c0.406,-0.598 0.61,-1.304 0.61,-2.115c-0,-0.81 -0.187,-1.464 -0.56,-1.966c-0.373,-0.495 -0.864,-0.889 -1.476,-1.175Zm-21.445,-1.955c-0.65,-0.379 -1.383,-0.569 -2.193,-0.569c-0.706,0 -1.296,0.099 -1.768,0.301c-0.47,0.198 -0.846,0.443 -1.126,0.738c-0.28,0.291 -0.493,0.592 -0.639,0.895l-0.239,0l-0,-5.405l7.779,0l0,-1.117l-9.016,-0l0,7.441l1.835,-0c0.134,-0.254 0.309,-0.516 0.531,-0.788c0.219,-0.271 0.519,-0.504 0.907,-0.697c0.385,-0.195 0.869,-0.291 1.456,-0.291c1.009,-0 1.825,0.326 2.444,0.977c0.618,0.653 0.927,1.531 0.927,2.634l0,0.16c0,1.158 -0.323,2.062 -0.968,2.713c-0.645,0.653 -1.54,0.977 -2.684,0.977c-1.064,0 -1.933,-0.297 -2.613,-0.898c-0.677,-0.598 -1.018,-1.497 -1.018,-2.693l-0,-0.198l-1.237,-0l0,0.26c0,0.915 0.204,1.723 0.61,2.424c0.405,0.697 0.974,1.242 1.706,1.633c0.729,0.394 1.59,0.589 2.573,0.589c1.009,0 1.878,-0.207 2.605,-0.618c0.723,-0.411 1.28,-0.977 1.674,-1.695c0.391,-0.717 0.589,-1.543 0.589,-2.473l0,-0.202c0,-0.956 -0.192,-1.785 -0.58,-2.482c-0.385,-0.697 -0.904,-1.237 -1.555,-1.616Zm33.085,-0.598c-0.697,-0.379 -1.499,-0.569 -2.403,-0.569c-0.931,-0 -1.759,0.21 -2.486,0.627c-0.723,0.42 -1.292,1.006 -1.703,1.756c-0.414,0.753 -0.618,1.628 -0.618,2.625l-0,0.24c-0,0.983 0.204,1.855 0.618,2.613c0.411,0.758 0.986,1.345 1.724,1.765c0.738,0.417 1.607,0.627 2.605,0.627c0.863,-0 1.575,-0.134 2.135,-0.408c0.557,-0.272 1.012,-0.619 1.365,-1.039c0.353,-0.417 0.627,-0.846 0.828,-1.286l-1.076,-0.479c-0.268,0.598 -0.65,1.106 -1.149,1.517c-0.499,0.411 -1.199,0.619 -2.103,0.619c-1.065,-0 -1.946,-0.33 -2.643,-0.989c-0.7,-0.657 -1.068,-1.59 -1.109,-2.8l8.258,-0l0,-0.639c0,-0.986 -0.198,-1.832 -0.598,-2.544c-0.399,-0.712 -0.948,-1.257 -1.645,-1.636Zm30.222,-4.309c-0.726,-0.353 -1.566,-0.528 -2.523,-0.528c-0.957,-0 -1.811,0.181 -2.564,0.548c-0.752,0.365 -1.339,0.898 -1.765,1.596c-0.425,0.697 -0.638,1.551 -0.638,2.564l-0,0.259l1.196,0l-0,-0.259c-0,-1.211 0.353,-2.112 1.058,-2.704c0.703,-0.593 1.608,-0.887 2.713,-0.887c1.036,-0 1.89,0.277 2.564,0.837c0.671,0.557 1.006,1.324 1.006,2.293l0,0.081c0,0.692 -0.14,1.263 -0.42,1.716c-0.277,0.452 -0.668,0.822 -1.166,1.108c-0.499,0.286 -1.074,0.528 -1.724,0.726l-0.998,0.321c-0.878,0.266 -1.639,0.572 -2.284,0.916c-0.644,0.347 -1.149,0.808 -1.508,1.388c-0.359,0.578 -0.537,1.366 -0.537,2.363l0,1.377l9.755,-0l-0,-1.117l-8.518,-0l0,-0.461c0,-0.718 0.132,-1.278 0.4,-1.683c0.265,-0.406 0.647,-0.732 1.146,-0.98c0.499,-0.245 1.106,-0.482 1.826,-0.706l0.998,-0.301c0.863,-0.28 1.613,-0.6 2.252,-0.968c0.638,-0.365 1.134,-0.837 1.487,-1.415c0.353,-0.577 0.528,-1.321 0.528,-2.225l0,-0.178c0,-0.837 -0.198,-1.572 -0.598,-2.205c-0.399,-0.63 -0.962,-1.123 -1.686,-1.476Zm-100.401,-0c-0.724,-0.353 -1.567,-0.528 -2.523,-0.528c-0.957,-0 -1.812,0.181 -2.564,0.548c-0.753,0.365 -1.339,0.898 -1.765,1.596c-0.426,0.697 -0.639,1.551 -0.639,2.564l0,0.259l1.196,0l-0,-0.259c-0,-1.211 0.353,-2.112 1.059,-2.704c0.703,-0.593 1.607,-0.887 2.713,-0.887c1.038,-0 1.89,0.277 2.563,0.837c0.671,0.557 1.007,1.324 1.007,2.293l-0,0.081c-0,0.692 -0.14,1.263 -0.42,1.716c-0.277,0.452 -0.668,0.822 -1.167,1.108c-0.499,0.286 -1.073,0.528 -1.724,0.726l-0.997,0.321c-0.878,0.266 -1.64,0.572 -2.284,0.916c-0.645,0.347 -1.15,0.808 -1.508,1.388c-0.359,0.578 -0.537,1.366 -0.537,2.363l-0,1.377l9.754,-0l-0,-1.117l-8.517,-0l-0,-0.461c-0,-0.718 0.131,-1.278 0.399,-1.683c0.266,-0.406 0.648,-0.732 1.147,-0.98c0.498,-0.245 1.105,-0.482 1.826,-0.706l0.997,-0.301c0.864,-0.28 1.613,-0.6 2.252,-0.968c0.639,-0.365 1.135,-0.837 1.488,-1.415c0.353,-0.577 0.528,-1.321 0.528,-2.225l-0,-0.178c-0,-0.837 -0.199,-1.572 -0.598,-2.205c-0.4,-0.63 -0.963,-1.123 -1.686,-1.476Zm-16.408,5.695l1.397,-0l3.051,-5.186l0.26,-0l-0,13.204l1.237,0l-0,-13.963l-2.413,0l-3.532,5.945Zm37.104,-0l1.398,-0l3.051,-5.186l0.259,-0l0,13.204l1.237,0l-0,-13.963l-2.412,0l-3.533,5.945Zm63.297,3.251c-0,1.236 -0.341,2.208 -1.027,2.914c-0.685,0.705 -1.578,1.055 -2.684,1.055c-1.09,0 -1.98,-0.35 -2.671,-1.055c-0.692,-0.706 -1.039,-1.678 -1.039,-2.914l0,-0.158c0,-1.237 0.347,-2.208 1.039,-2.914c0.691,-0.703 1.581,-1.056 2.671,-1.056c1.106,0 1.999,0.353 2.684,1.056c0.686,0.706 1.027,1.677 1.027,2.914l-0,0.158Zm-65.373,-0.937l-8.938,0l0,1.118l8.938,-0l-0,-1.118Zm45.565,0.08c0.146,-1.05 0.54,-1.858 1.175,-2.424c0.639,-0.566 1.444,-0.849 2.416,-0.849c0.983,0 1.788,0.283 2.412,0.849c0.627,0.566 0.965,1.374 1.018,2.424l-7.021,0Zm-62.999,-38.238l-16.916,3.291l0,16.804l36.573,-0.006l-19.657,-20.089Zm86.616,17.393l-0.478,0l-6.817,-22.527l-0.012,-0.041l-7.572,0l0,25.269l3.958,0l0,-22.606l0.476,0l6.817,22.565l0.011,0.041l7.576,0l-0,-25.269l-3.959,0l0,22.568Zm-20.359,-22.568l-3.993,-0l-0,25.269l3.993,0l0,-25.269Zm-8.07,0.063l0.012,-0.064l-3.996,-0l-2.984,22.533l-0.481,0l-3.871,-22.486l-0.009,-0.047l-6.887,-0l-3.879,22.533l-0.479,0l-3.013,-22.484l-0.008,-0.049l-3.994,-0l3.711,25.222l0.008,0.047l6.922,0l3.92,-22.857l0.479,0l3.944,22.81l0.008,0.047l6.887,0l3.71,-25.205Zm53.293,2.503c-1.788,-1.701 -4.396,-2.567 -7.748,-2.567l-8.021,-0l-0,25.269l8.021,-0c3.352,-0 5.96,-0.858 7.748,-2.55c1.788,-1.691 2.695,-4.287 2.695,-7.712l-0,-4.708c-0,-3.427 -0.907,-6.026 -2.695,-7.732Zm-1.333,12.548c-0,2.153 -0.528,3.798 -1.567,4.883c-1.038,1.088 -2.657,1.636 -4.813,1.636l-4.063,0l0,-17.965l4.063,0c2.156,0 3.775,0.54 4.813,1.601c1.039,1.062 1.567,2.707 1.567,4.883l-0,4.962Zm-90.492,3.088l0,-39.828l-8.724,0l-6.298,22.539l15.022,17.289Zm-13.91,-39.827l-22.659,-0l0,24.636l15.556,-3.993l7.103,-20.643Zm46.73,17.463c5.516,-0 6.703,-3.865 6.703,-6.362l0,-11.105l-3.229,0l0,11.204c0,0.971 -0.321,3.378 -3.474,3.378c-2.695,-0 -3.474,-1.78 -3.474,-3.378l-0,-11.204l-3.229,0l-0,11.105c-0,2.497 1.155,6.362 6.703,6.362Zm35.763,-6.264c-0,0.971 -0.321,3.378 -3.474,3.378c-2.693,-0 -3.471,-1.776 -3.471,-3.378l-0,-11.204l-3.232,0l-0,11.108c-0,2.494 1.155,6.359 6.703,6.359c5.519,-0 6.703,-3.865 6.703,-6.359l-0,-11.108l-3.229,0l-0,11.204Zm-19.472,6.263c5.052,-0 6.531,-3.218 6.482,-5.283c-0.076,-3.392 -2.696,-4.328 -5.058,-4.944c-1.31,-0.341 -2.497,-0.531 -3.259,-0.878c-1.175,-0.534 -1.321,-1.295 -1.321,-1.811c0,-1.018 0.639,-2.054 2.862,-2.054c2.05,0 2.791,0.82 3.074,1.908c0.117,0.455 0.082,1.006 0.082,1.566l3.182,0c0,-0.303 0.108,-1.525 -0.271,-2.66c-0.566,-1.698 -2.188,-3.652 -6.067,-3.652c-4.218,-0 -6.041,2.36 -6.041,4.991c-0,3.48 2.768,4.451 5.626,5.113c2.748,0.636 4.011,1.012 4.011,2.517c0,1.456 -1.178,2.352 -3.302,2.352c-1.811,-0 -2.867,-0.654 -3.313,-1.754c-0.231,-0.563 -0.234,-1.265 -0.234,-2.018l-3.182,-0c-0,0.367 -0.12,1.765 0.423,3.025c0.77,1.785 2.654,3.582 6.306,3.582Zm29.477,-15.093l0.441,-0l2.949,14.824l5.303,-0l2.949,-14.824l0.443,-0l0,14.824l3.13,-0l0,-17.196l-5.994,0l-2.973,14.999l-0.414,0l-2.972,-14.999l-5.994,0l-0,17.196l3.132,-0l0,-14.824Zm-65.754,7.673l6.385,0l-0,7.144l3.241,-0l-0,-17.187l-3.241,0l-0,7.094l-6.385,0l-0,-7.094l-3.244,0l0,17.187l3.244,-0l-0,-7.144Z" style="fill:#fff;fill-rule:nonzero;"/></svg>