<?xml version="1.0" encoding="UTF-8" standalone="no"?><!DOCTYPE svg PUBLIC "-//W3C//DTD SVG 1.1//EN" "http://www.w3.org/Graphics/SVG/1.1/DTD/svg11.dtd"><svg width="100%" height="100%" viewBox="0 0 1676 296" version="1.1" xmlns="http://www.w3.org/2000/svg" xmlns:xlink="http://www.w3.org/1999/xlink" xml:space="preserve" xmlns:serif="http://www.serif.com/" style="fill-rule:evenodd;clip-rule:evenodd;stroke-linejoin:round;stroke-miterlimit:2;"><path d="M0,1.772c0,-0.978 0.794,-1.772 1.772,-1.772l31.889,0c0.978,0 1.772,0.794 1.772,1.772l0,31.889c0,0.978 -0.794,1.772 -1.772,1.772l-31.889,0c-0.978,0 -1.772,-0.794 -1.772,-1.772l-0,-31.889Z" style="fill:#323232;"/><path d="M0,159.47c0,-0.978 0.794,-1.772 1.772,-1.772l31.889,0c0.978,0 1.772,0.794 1.772,1.772l0,134.034c0,0.978 -0.794,1.772 -1.772,1.772l-31.889,-0c-0.978,-0 -1.772,-0.794 -1.772,-1.772l-0,-134.034Z" style="fill:#323232;"/><g><rect x="206.656" y="0" width="88.694" height="26.608" style="fill:#323232;"/><path d="M268.741,0l0,88.694l26.609,-0l-0,-88.694l-26.609,0Z" style="fill:#323232;"/></g><g><rect id="path966" x="412.583" y="76.855" width="28.758" height="100.394" style="fill:#323232;fill-rule:nonzero;"/><rect id="path968" x="412.583" y="0" width="28.758" height="28.761" style="fill:#323232;fill-rule:nonzero;"/><path id="path982" d="M412.392,295.276l42.188,-0l0,-7.576l-32.31,0l-0,-19.161l29.541,-0l-0,-7.575l-29.541,-0l-0,-17.023l32.31,0l0,-7.575l-42.188,-0l0,58.91Z" style="fill:#323232;fill-rule:nonzero;"/><path id="path984" d="M535.241,295.276l9.878,-0l-0,-52.315l28.248,52.315l16.525,-0l-0,-58.91l-9.878,-0l0,52.315l-28.433,-52.315l-16.34,-0l0,58.91Z" style="fill:#323232;fill-rule:nonzero;"/><path id="path986" d="M680.431,282.086l-0,-32.53c-0,-4.01 1.2,-5.615 4.892,-5.615l33.603,0l0,-7.575l-30.925,-0c-10.801,-0 -17.448,5.347 -17.448,15.151l-0,28.608c-0,9.803 6.647,15.151 17.448,15.151l30.925,-0l0,-31.282l-9.878,-0l0,23.706l-23.725,0c-3.692,0 -4.892,-1.604 -4.892,-5.614Z" style="fill:#323232;fill-rule:nonzero;"/><rect id="path988" x="799.587" y="236.366" width="9.878" height="58.91" style="fill:#323232;fill-rule:nonzero;"/><path id="path990" d="M890.126,295.276l9.878,-0l-0,-52.315l28.248,52.315l16.525,-0l-0,-58.91l-9.878,-0l-0,52.315l-28.433,-52.315l-16.34,-0l-0,58.91Z" style="fill:#323232;fill-rule:nonzero;"/><path id="path992" d="M1025.44,295.276l42.188,-0l-0,-7.576l-32.311,0l0,-19.161l29.541,-0l0,-7.575l-29.541,-0l0,-17.023l32.311,0l-0,-7.575l-42.188,-0l-0,58.91Z" style="fill:#323232;fill-rule:nonzero;"/><path id="path994" d="M1148.29,295.276l42.188,-0l-0,-7.576l-32.311,0l0,-19.161l29.541,-0l0,-7.575l-29.541,-0l0,-17.023l32.311,0l-0,-7.575l-42.188,-0l-0,58.91Z" style="fill:#323232;fill-rule:nonzero;"/><path id="path996" d="M1308.62,273.084c3.693,-0.713 8.031,-4.01 8.031,-10.694l0,-11.408c0,-11.853 -5.262,-14.616 -19.109,-14.616l-26.402,-0l-0,58.91l9.878,-0l-0,-21.39l18.37,0l10.34,21.39l10.708,-0l-11.816,-22.192Zm-27.602,-29.143l20.863,0c2.862,0 4.893,0.981 4.893,3.833l-0,14.705c-0,2.852 -2.031,3.832 -4.893,3.832l-20.863,-0l-0,-22.37Z" style="fill:#323232;fill-rule:nonzero;"/><rect id="path998" x="1401.09" y="236.366" width="9.878" height="58.91" style="fill:#323232;fill-rule:nonzero;"/><path id="path1000" d="M1491.63,295.276l9.878,-0l-0,-52.315l28.248,52.315l16.525,-0l-0,-58.91l-9.878,-0l0,52.315l-28.433,-52.315l-16.34,-0l0,58.91Z" style="fill:#323232;fill-rule:nonzero;"/><path id="path1002" d="M1636.82,282.086l-0,-32.53c-0,-4.01 1.2,-5.615 4.892,-5.615l33.603,0l-0,-7.575l-30.926,-0c-10.8,-0 -17.447,5.347 -17.447,15.151l-0,28.608c-0,9.803 6.647,15.151 17.447,15.151l30.926,-0l-0,-31.282l-9.878,-0l0,23.706l-23.725,0c-3.692,0 -4.892,-1.604 -4.892,-5.614Z" style="fill:#323232;fill-rule:nonzero;"/><rect id="path1006" x="412.583" y="203.229" width="1262.74" height="5.906" style="fill:#323232;fill-rule:nonzero;"/><g id="g1061"><path id="path958" d="M651.966,177.321l122.826,-0l0,-22.802l-94.068,-0l0,-131.717l94.068,0l0,-22.802l-122.826,0l0,177.321Z" style="fill:#323232;fill-rule:nonzero;"/><path id="path960" d="M1028.16,0l-64.235,177.319l28.755,0l13.983,-39.695l8.064,-22.808l31.98,-90.405l31.98,90.405l-42.407,0l-8.046,22.808l58.251,-0l13.974,39.695l29.029,0l-64.509,-177.319l-36.819,0Z" style="fill:#323232;fill-rule:nonzero;"/><path id="path974" d="M651.966,177.321l122.826,-0l0,-22.802l-94.068,-0l0,-131.717l94.068,0l0,-22.802l-122.826,0l0,177.321Z" style="fill:#323232;fill-rule:nonzero;"/><path id="path976" d="M797.594,0l0,177.319l28.764,0l-0,-154.511l60.734,-0c8.332,-0 14.249,2.943 14.249,11.527l0,44.268c0,8.584 -5.917,11.537 -14.249,11.537l-31.98,-0l0,22.798l24.723,0l30.101,64.381l31.183,0l-34.408,-66.791c10.751,-2.146 23.385,-12.071 23.385,-32.191l-0,-34.344c-0,-35.679 -15.316,-43.993 -55.631,-43.993l-76.871,0Z" style="fill:#323232;fill-rule:nonzero;"/><path id="path1008" d="M702.295,77.332l0,22.808l43.739,-0l0,-22.808l-43.739,0Z" style="fill:#323232;fill-rule:nonzero;"/><rect id="rect1016" x="847.929" y="90.139" width="51.308" height="22.799" style="fill:#323232;"/></g><g id="g1046"><path id="path1026" d="M532.276,0l0,177.328l28.755,0l-0,-154.521l68.77,0l0,-22.807l-97.525,0Z" style="fill:#323232;fill-rule:nonzero;"/><path id="path1042" d="M561.031,0l-0,177.328l-28.755,0l0,-154.521l-68.771,0l0,-22.807l97.526,0Z" style="fill:#323232;fill-rule:nonzero;"/></g><g id="g1100"><g id="g1068"><rect id="path962" x="1317.94" y="5.906" width="28.758" height="171.343" style="fill:#323232;fill-rule:nonzero;"/><rect id="path964" x="1317.94" y="0" width="28.758" height="28.761" style="fill:#323232;fill-rule:nonzero;"/><path id="path978" d="M1431.05,177.321l36.82,-0l61.816,-177.321l-29.026,0l-51.066,152.909l-51.334,-152.909l-28.758,0l61.548,177.321Z" style="fill:#323232;fill-rule:nonzero;"/><path id="path980" d="M1552.49,177.321l122.825,-0l0,-22.802l-94.068,-0l0,-131.717l94.068,0l0,-22.802l-122.825,0l-0,177.321Z" style="fill:#323232;fill-rule:nonzero;"/><path id="path1018" d="M1602.82,77.257l0,22.807l43.739,0l0,-22.807l-43.739,-0Z" style="fill:#323232;fill-rule:nonzero;"/></g><g id="g1074"><path id="path1070" d="M1198.26,0l0,177.328l28.755,0l-0,-154.521l68.77,0l0,-22.807l-97.525,0Z" style="fill:#323232;fill-rule:nonzero;"/><path id="path1072" d="M1227.01,0l-0,177.328l-28.755,0l0,-154.521l-68.771,0l0,-22.807l97.526,0Z" style="fill:#323232;fill-rule:nonzero;"/></g></g></g><g><path d="M116.189,205.7l-0,-205.7l-26.609,0l0,205.7l26.609,0Z" style="fill:url(#_Linear1);"/><rect x="0" y="89.546" width="205.769" height="26.608" style="fill:url(#_Linear2);"/></g><g><path d="M205.769,295.276l0,-205.769l-26.608,-0l-0,205.769l26.608,-0Z" style="fill:url(#_Linear3);"/><rect x="89.58" y="179.087" width="205.769" height="26.608" style="fill:url(#_Linear4);"/></g><defs><linearGradient id="_Linear1" x1="0" y1="0" x2="1" y2="0" gradientUnits="userSpaceOnUse" gradientTransform="matrix(117.075,117.036,-117.036,117.075,88.6935,89.5461)"><stop offset="0" style="stop-color:#5761b2;stop-opacity:1"/><stop offset="1" style="stop-color:#1fc5a8;stop-opacity:1"/></linearGradient><linearGradient id="_Linear2" x1="0" y1="0" x2="1" y2="0" gradientUnits="userSpaceOnUse" gradientTransform="matrix(117.075,117.036,-117.036,117.075,88.6935,89.5461)"><stop offset="0" style="stop-color:#5761b2;stop-opacity:1"/><stop offset="1" style="stop-color:#1fc5a8;stop-opacity:1"/></linearGradient><linearGradient id="_Linear3" x1="0" y1="0" x2="1" y2="0" gradientUnits="userSpaceOnUse" gradientTransform="matrix(117.075,117.036,-117.036,117.075,88.6935,89.5461)"><stop offset="0" style="stop-color:#5761b2;stop-opacity:1"/><stop offset="1" style="stop-color:#1fc5a8;stop-opacity:1"/></linearGradient><linearGradient id="_Linear4" x1="0" y1="0" x2="1" y2="0" gradientUnits="userSpaceOnUse" gradientTransform="matrix(117.075,117.036,-117.036,117.075,88.6935,89.5461)"><stop offset="0" style="stop-color:#5761b2;stop-opacity:1"/><stop offset="1" style="stop-color:#1fc5a8;stop-opacity:1"/></linearGradient></defs></svg>