<?xml version="1.0" encoding="UTF-8" standalone="no"?>
<!DOCTYPE svg PUBLIC "-//W3C//DTD SVG 1.1//EN" "http://www.w3.org/Graphics/SVG/1.1/DTD/svg11.dtd">
<svg width="100%" height="100%" viewBox="0 0 48 48" version="1.1" xmlns="http://www.w3.org/2000/svg" xmlns:xlink="http://www.w3.org/1999/xlink" xml:space="preserve" xmlns:serif="http://www.serif.com/" style="fill-rule:evenodd;clip-rule:evenodd;stroke-linejoin:round;stroke-miterlimit:2;">
    <g transform="matrix(6.12327e-17,1,-1,6.12327e-17,48,0)">
        <path d="M48,43L48,14L46,14L46,43C46,44.656 44.656,46 43,46L5,46C3.344,46 2,44.656 2,43L2,5C2,3.344 3.344,2 5,2L34,2L34,0L5,0C2.24,0 0,2.24 0,5L0,43C0,45.76 2.24,48 5,48L43,48C45.76,48 48,45.76 48,43ZM48,10L48,0L38,0L38,2L46,2L46,10L48,10Z" style="fill:rgb(87,97,178);"/>
    </g>
    <g transform="matrix(1.25,0,0,1.25,11.5,11.5)">
        <path d="M18,4L17,4L17,12C17,12.55 16.55,13 16,13L4,13L4,14C4,15.1 4.9,16 6,16L16,16L20,20L20,6C20,4.9 19.1,4 18,4ZM15,9L15,2C15,0.9 14.1,0 13,0L2,0C0.9,0 0,0.9 0,2L0,15L4,11L13,11C14.1,11 15,10.1 15,9Z" style="fill:rgb(86,97,178);fill-rule:nonzero;"/>
    </g>
</svg>
