<?xml version="1.0" encoding="UTF-8" standalone="no"?><!DOCTYPE svg PUBLIC "-//W3C//DTD SVG 1.1//EN" "http://www.w3.org/Graphics/SVG/1.1/DTD/svg11.dtd"><svg width="100%" height="100%" viewBox="0 0 48 48" version="1.1" xmlns="http://www.w3.org/2000/svg" xmlns:xlink="http://www.w3.org/1999/xlink" xml:space="preserve" xmlns:serif="http://www.serif.com/" style="fill-rule:evenodd;clip-rule:evenodd;stroke-linejoin:round;stroke-miterlimit:2;"><g><path d="M5,48l29,0l0,-2l-29,0c-1.656,0 -3,-1.344 -3,-3l0,-38c0,-1.656 1.344,-3 3,-3l38,0c1.656,0 3,1.344 3,3l0,29l2,0l0,-29c0,-2.76 -2.24,-5 -5,-5l-38,0c-2.76,0 -5,2.24 -5,5l0,38c0,2.76 2.24,5 5,5Zm33,0l10,0l0,-10l-2,0l0,8l-8,0l0,2Z" style="fill:#fff;"/></g><g><path d="M34,16.5l-1.25,0l0,10c0,0.688 -0.563,1.25 -1.25,1.25l-15,0l0,1.25c0,1.375 1.125,2.5 2.5,2.5l12.5,0l5,5l0,-17.5c0,-1.375 -1.125,-2.5 -2.5,-2.5Zm-3.75,6.25l0,-8.75c0,-1.375 -1.125,-2.5 -2.5,-2.5l-13.75,0c-1.375,0 -2.5,1.125 -2.5,2.5l0,16.25l5,-5l11.25,0c1.375,0 2.5,-1.125 2.5,-2.5Z" style="fill:#fff;fill-rule:nonzero;"/></g></svg>