<?xml version="1.0" encoding="UTF-8" standalone="no"?><!DOCTYPE svg PUBLIC "-//W3C//DTD SVG 1.1//EN" "http://www.w3.org/Graphics/SVG/1.1/DTD/svg11.dtd"><svg width="100%" height="100%" viewBox="0 0 30 30" version="1.1" xmlns="http://www.w3.org/2000/svg" xmlns:xlink="http://www.w3.org/1999/xlink" xml:space="preserve" xmlns:serif="http://www.serif.com/" style="fill-rule:evenodd;clip-rule:evenodd;stroke-linejoin:round;stroke-miterlimit:2;"><path d="M27,6l-2.5,0l0,8.5c-0,2.209 -1.791,4 -4,4c-5.439,0 -14.5,0 -14.5,0l0,2.5c0,1.65 1.35,3 3,3l15,0l6,6l0,-21c0,-1.65 -1.35,-3 -3,-3Zm-4.5,7.5l0,-10.5c0,-1.65 -1.35,-3 -3,-3l-16.5,0c-1.65,0 -3,1.35 -3,3l0,19.5l6,-6l13.5,0c1.65,0 3,-1.35 3,-3Z" style="fill:#fdfefe;fill-rule:nonzero;"/></svg>