<?xml version="1.0" encoding="UTF-8" standalone="no"?><!DOCTYPE svg PUBLIC "-//W3C//DTD SVG 1.1//EN" "http://www.w3.org/Graphics/SVG/1.1/DTD/svg11.dtd"><svg width="100%" height="100%" viewBox="0 0 30 30" version="1.1" xmlns="http://www.w3.org/2000/svg" xmlns:xlink="http://www.w3.org/1999/xlink" xml:space="preserve" xmlns:serif="http://www.serif.com/" style="fill-rule:evenodd;clip-rule:evenodd;stroke-linejoin:round;stroke-miterlimit:2;"><path d="M30,23.992l-6.008,6.008l-7.352,-7.352l2.502,-2.502l1.414,1.414l3.492,-3.506l2.008,2.007l-2.064,2.008l1.498,1.414l2.008,-1.98l2.502,2.489Zm-22.62,-10.646l-7.38,-7.338l6.008,-6.008l2.489,2.502l-3.492,3.506l1.512,1.499l3.478,-3.506l2.008,2.007l-2.008,1.994l1.414,1.414l-4.029,3.93Z" style="fill:#5f67aa;fill-rule:nonzero;"/><path d="M30,23.992l-6.008,6.008l-7.352,-7.352l2.502,-2.502l1.414,1.414l3.492,-3.506l2.008,2.007l-2.064,2.008l1.498,1.414l2.008,-1.98l2.502,2.489Zm-22.62,-10.646l-7.38,-7.338l6.008,-6.008l2.489,2.502l-3.492,3.506l1.512,1.499l3.478,-3.506l2.008,2.007l-2.008,1.994l1.414,1.414l-4.029,3.93Z" style="fill:#fdfefe;fill-rule:nonzero;"/><path d="M0,23.751l0,6.249l6.249,0l18.431,-18.447l-6.249,-6.25l-18.431,18.448Zm29.513,-17.081c0.649,-0.65 0.649,-1.667 -0,-2.35l-3.9,-3.833c-0.616,-0.649 -1.7,-0.649 -2.35,0l-3.066,3.05l6.249,6.249l3.067,-3.116Z" style="fill:#fdfefe;fill-rule:nonzero;"/></svg>