<?xml version="1.0" encoding="UTF-8" standalone="no"?>
<!DOCTYPE svg PUBLIC "-//W3C//DTD SVG 1.1//EN" "http://www.w3.org/Graphics/SVG/1.1/DTD/svg11.dtd">
<svg width="100%" height="100%" viewBox="0 0 48 48" version="1.1" xmlns="http://www.w3.org/2000/svg" xmlns:xlink="http://www.w3.org/1999/xlink" xml:space="preserve" xmlns:serif="http://www.serif.com/" style="fill-rule:evenodd;clip-rule:evenodd;stroke-linejoin:round;stroke-miterlimit:2;">
    <g transform="matrix(-1,1.22465e-16,-1.22465e-16,-1,48,48)">
        <g>
            <path d="M48,43L48,14L46,14L46,43C46,44.656 44.656,46 43,46L5,46C3.344,46 2,44.656 2,43L2,5C2,3.344 3.344,2 5,2L34,2L34,0L5,0C2.24,0 0,2.24 0,5L0,43C0,45.76 2.24,48 5,48L43,48C45.76,48 48,45.76 48,43ZM48,10L48,0L38,0L38,2L46,2L46,10L48,10Z" style="fill:rgb(87,97,178);"/>
        </g>
        <g>
            <g transform="matrix(-1,-1.22465e-16,1.22465e-16,-1,40.1915,35.5)">
                <path d="M8,0C7.764,0 7.53,0.01 7.299,0.03C6.556,0.095 6.01,0.645 5.841,1.291L5.552,2.397C5.534,2.463 5.473,2.555 5.34,2.621C5.108,2.735 4.885,2.865 4.672,3.007C4.549,3.089 4.439,3.097 4.373,3.078L3.27,2.776C2.626,2.599 1.878,2.796 1.45,3.405C1.182,3.788 0.945,4.195 0.746,4.623C0.431,5.298 0.635,6.045 1.109,6.514L1.924,7.32C1.974,7.368 2.022,7.467 2.012,7.614C2.004,7.742 2,7.87 2,8C2,8.13 2.004,8.258 2.012,8.386C2.022,8.533 1.974,8.632 1.924,8.68L1.109,9.486C0.635,9.955 0.431,10.702 0.746,11.377C0.945,11.805 1.182,12.212 1.45,12.595C1.878,13.204 2.626,13.401 3.27,13.224L4.373,12.922C4.439,12.903 4.549,12.911 4.672,12.993C4.885,13.136 5.108,13.265 5.34,13.379C5.473,13.445 5.534,13.537 5.552,13.603L5.841,14.709C6.01,15.355 6.556,15.905 7.299,15.97C7.53,15.99 7.764,16 8,16C8.236,16 8.47,15.99 8.701,15.97C9.444,15.905 9.99,15.355 10.159,14.709L10.448,13.603C10.466,13.537 10.527,13.445 10.66,13.379C10.892,13.265 11.115,13.136 11.328,12.993C11.451,12.911 11.561,12.903 11.627,12.922L12.73,13.224C13.374,13.401 14.122,13.204 14.55,12.595C14.818,12.212 15.055,11.805 15.254,11.377C15.569,10.702 15.365,9.955 14.891,9.486L14.076,8.68C14.027,8.632 13.978,8.533 13.988,8.386C13.996,8.258 14,8.13 14,8C14,7.87 13.996,7.742 13.988,7.614C13.978,7.467 14.027,7.368 14.076,7.32L14.891,6.514C15.365,6.045 15.569,5.298 15.254,4.623C15.055,4.195 14.818,3.788 14.55,3.405C14.122,2.796 13.374,2.599 12.73,2.776L11.627,3.078C11.561,3.097 11.451,3.089 11.328,3.007C11.115,2.865 10.892,2.735 10.66,2.621C10.527,2.555 10.466,2.463 10.448,2.397L10.159,1.291C9.99,0.645 9.444,0.095 8.701,0.03C8.47,0.01 8.236,0 8,0ZM11,8C11,9.657 9.657,11 8,11C6.343,11 5,9.657 5,8C5,6.343 6.343,5 8,5C9.657,5 11,6.343 11,8Z" style="fill:rgb(86,97,178);"/>
            </g>
            <g transform="matrix(-0.5625,-6.88866e-17,6.88866e-17,-0.5625,23.5,39)">
                <path d="M8,0C7.764,0 7.53,0.01 7.299,0.03C6.556,0.095 6.01,0.645 5.841,1.291L5.552,2.397C5.534,2.463 5.473,2.555 5.34,2.621C5.108,2.735 4.885,2.865 4.672,3.007C4.549,3.089 4.439,3.097 4.373,3.078L3.27,2.776C2.626,2.599 1.878,2.796 1.45,3.405C1.182,3.788 0.945,4.195 0.746,4.623C0.431,5.298 0.635,6.045 1.109,6.514L1.924,7.32C1.974,7.368 2.022,7.467 2.012,7.614C2.004,7.742 2,7.87 2,8C2,8.13 2.004,8.258 2.012,8.386C2.022,8.533 1.974,8.632 1.924,8.68L1.109,9.486C0.635,9.955 0.431,10.702 0.746,11.377C0.945,11.805 1.182,12.212 1.45,12.595C1.878,13.204 2.626,13.401 3.27,13.224L4.373,12.922C4.439,12.903 4.549,12.911 4.672,12.993C4.885,13.136 5.108,13.265 5.34,13.379C5.473,13.445 5.534,13.537 5.552,13.603L5.841,14.709C6.01,15.355 6.556,15.905 7.299,15.97C7.53,15.99 7.764,16 8,16C8.236,16 8.47,15.99 8.701,15.97C9.444,15.905 9.99,15.355 10.159,14.709L10.448,13.603C10.466,13.537 10.527,13.445 10.66,13.379C10.892,13.265 11.115,13.136 11.328,12.993C11.451,12.911 11.561,12.903 11.627,12.922L12.73,13.224C13.374,13.401 14.122,13.204 14.55,12.595C14.818,12.212 15.055,11.805 15.254,11.377C15.569,10.702 15.365,9.955 14.891,9.486L14.076,8.68C14.027,8.632 13.978,8.533 13.988,8.386C13.996,8.258 14,8.13 14,8C14,7.87 13.996,7.742 13.988,7.614C13.978,7.467 14.027,7.368 14.076,7.32L14.891,6.514C15.365,6.045 15.569,5.298 15.254,4.623C15.055,4.195 14.818,3.788 14.55,3.405C14.122,2.796 13.374,2.599 12.73,2.776L11.627,3.078C11.561,3.097 11.451,3.089 11.328,3.007C11.115,2.865 10.892,2.735 10.66,2.621C10.527,2.555 10.466,2.463 10.448,2.397L10.159,1.291C9.99,0.645 9.444,0.095 8.701,0.03C8.47,0.01 8.236,0 8,0ZM11,8C11,9.657 9.657,11 8,11C6.343,11 5,9.657 5,8C5,6.343 6.343,5 8,5C9.657,5 11,6.343 11,8Z" style="fill:rgb(86,97,178);"/>
            </g>
            <g transform="matrix(-1.11096,-1.36053e-16,1.36053e-16,-1.11096,28.9996,30.1083)">
                <path d="M0,15.46L0,18.5C0,18.78 0.22,19 0.5,19L3.54,19C3.67,19 3.8,18.95 3.89,18.85L14.81,7.94L11.06,4.19L0.15,15.1C0.05,15.2 0,15.32 0,15.46ZM17.71,5.04C18.1,4.65 18.1,4.02 17.71,3.63L15.37,1.29C14.98,0.9 14.35,0.9 13.96,1.29L12.13,3.12L15.88,6.87L17.71,5.04Z" style="fill:rgb(86,97,178);fill-rule:nonzero;"/>
            </g>
        </g>
    </g>
</svg>
