<?xml version="1.0" encoding="UTF-8" standalone="no"?><!DOCTYPE svg PUBLIC "-//W3C//DTD SVG 1.1//EN" "http://www.w3.org/Graphics/SVG/1.1/DTD/svg11.dtd"><svg width="100%" height="100%" viewBox="0 0 30 30" version="1.1" xmlns="http://www.w3.org/2000/svg" xmlns:xlink="http://www.w3.org/1999/xlink" xml:space="preserve" xmlns:serif="http://www.serif.com/" style="fill-rule:evenodd;clip-rule:evenodd;stroke-linejoin:round;stroke-miterlimit:2;"><path d="M7.163,23.551c0.59,-1.057 1.329,-2.039 2.207,-2.918l-0,0c0.477,-0.478 0.99,-0.919 1.533,-1.317c-1.047,-1.527 -1.66,-3.375 -1.66,-5.366c-0,-5.029 3.909,-9.146 8.858,-9.479c-1.191,-2.657 -3.892,-4.517 -6.971,-4.47c-4.091,0.064 -7.387,3.397 -7.387,7.5c-0,2.355 1.087,4.455 2.782,5.831c-1.205,0.559 -2.302,1.325 -3.24,2.265c-2.047,2.051 -3.21,4.759 -3.285,7.646c0,0.003 0,0.005 0,0.008c0,0.164 0.135,0.3 0.3,0.3l6.863,-0Zm11.528,-15.101l-0.03,-0c-3.001,0.047 -5.418,2.491 -5.418,5.5c-0,1.728 0.799,3.269 2.043,4.279l2.487,2.019l-2.907,1.348c-0.991,0.459 -1.894,1.09 -2.666,1.863c-0.03,0.031 -0.06,0.061 -0.089,0.092l10.089,-0c0.165,-0 0.3,-0.136 0.3,-0.3c0,-0.003 0,-0.005 -0,-0.008c-0.016,-0.607 -0.08,-1.207 -0.19,-1.794l-2.593,-1.203l1.753,-1.421c-0.549,-1.185 -1.31,-2.277 -2.263,-3.228c-0.938,-0.939 -2.035,-1.706 -3.24,-2.265c1.467,-1.188 2.476,-2.916 2.724,-4.882Z" style="fill:#fdfefe;fill-rule:nonzero;"/><path d="M26.707,22.046c-0.938,-0.939 -2.035,-1.706 -3.24,-2.265c1.699,-1.376 2.783,-3.476 2.783,-5.831c-0,-4.155 -3.465,-7.564 -7.62,-7.5c-4.091,0.064 -7.387,3.398 -7.387,7.5c-0,2.355 1.087,4.455 2.782,5.831c-1.205,0.559 -2.302,1.326 -3.24,2.265c-2.047,2.052 -3.21,4.759 -3.285,7.647c-0,0.002 -0,0.005 -0,0.007c-0,0.165 0.135,0.3 0.3,0.3l21.9,0c0.165,0 0.3,-0.135 0.3,-0.3c-0,-0.002 -0,-0.005 -0,-0.007c-0.075,-2.888 -1.238,-5.595 -3.293,-7.647" style="fill:#fdfefe;fill-rule:nonzero;"/></svg>