<?xml version="1.0" encoding="UTF-8" standalone="no"?><!DOCTYPE svg PUBLIC "-//W3C//DTD SVG 1.1//EN" "http://www.w3.org/Graphics/SVG/1.1/DTD/svg11.dtd"><svg width="100%" height="100%" viewBox="0 0 30 30" version="1.1" xmlns="http://www.w3.org/2000/svg" xmlns:xlink="http://www.w3.org/1999/xlink" xml:space="preserve" xmlns:serif="http://www.serif.com/" style="fill-rule:evenodd;clip-rule:evenodd;stroke-linejoin:round;stroke-miterlimit:2;"><path d="M26.37,0c-4.352,0 -8.523,1.729 -11.599,4.806l-0.861,0.858c-0.589,0.589 -1.155,1.202 -1.695,1.835l-6.007,0c-0.56,0 -1.111,0.144 -1.599,0.418c-0.489,0.272 -0.9,0.666 -1.194,1.144l-3.206,5.201c-0.112,0.184 -0.182,0.388 -0.202,0.601c-0.022,0.214 0.007,0.43 0.084,0.633c0.074,0.2 0.194,0.38 0.353,0.528c0.155,0.146 0.344,0.255 0.548,0.319l5.816,1.788c0.07,0.096 0.149,0.188 0.233,0.272l4.554,4.553c0.086,0.086 0.176,0.164 0.272,0.234l1.788,5.816c0.063,0.203 0.173,0.393 0.319,0.548c0.148,0.158 0.328,0.278 0.528,0.353c0.203,0.076 0.419,0.105 0.632,0.085c0.214,-0.022 0.418,-0.09 0.603,-0.203l5.2,-3.2c0.478,-0.295 0.871,-0.706 1.145,-1.193c0.272,-0.489 0.416,-1.04 0.416,-1.601l0,-6.012c0.634,-0.54 1.247,-1.107 1.836,-1.696l0.859,-0.86c3.077,-3.074 4.805,-7.248 4.807,-11.597l-0,-0.349c-0,-0.87 -0.346,-1.704 -0.962,-2.319c-0.615,-0.618 -1.45,-0.962 -2.32,-0.962l-0.348,0Zm-6.682,19.92c-0.164,0.113 -0.331,0.221 -0.498,0.327l-4.406,2.853l0.657,2.143l4.086,-2.25c0.067,-0.041 0.161,-3.073 0.161,-3.073Zm-12.79,-4.704l2.853,-4.406c0.11,-0.169 0.22,-0.334 0.33,-0.499c0,-0 -3.033,0.095 -3.074,0.162l-2.25,4.084l2.141,0.659Zm15.603,-5.842c-0,0.496 -0.197,0.975 -0.55,1.326c-0.35,0.352 -0.829,0.549 -1.326,0.549c-0.497,0 -0.974,-0.197 -1.325,-0.549c-0.352,-0.351 -0.549,-0.83 -0.549,-1.326c-0,-0.497 0.197,-0.975 0.549,-1.325c0.351,-0.353 0.828,-0.55 1.325,-0.55c0.497,0 0.976,0.197 1.326,0.55c0.353,0.35 0.55,0.828 0.55,1.325Zm-15.824,17.923c0.276,-0.257 0.498,-0.568 0.653,-0.913c0.154,-0.345 0.235,-0.715 0.241,-1.095c0.007,-0.376 -0.061,-0.752 -0.204,-1.102c-0.14,-0.351 -0.35,-0.67 -0.619,-0.935c-0.266,-0.269 -0.584,-0.479 -0.935,-0.619c-0.351,-0.143 -0.726,-0.213 -1.102,-0.204c-0.377,0.005 -0.75,0.09 -1.096,0.241c-0.344,0.154 -0.656,0.377 -0.913,0.653c-1.375,1.368 -1.962,4.372 -2.155,5.63c-0.012,0.067 -0.006,0.136 0.014,0.202c0.021,0.065 0.057,0.125 0.106,0.174c0.048,0.05 0.108,0.084 0.174,0.105c0.066,0.021 0.134,0.026 0.203,0.015c1.257,-0.193 4.261,-0.779 5.633,-2.152Z" style="fill:#fdfefe;"/></svg>