<?xml version="1.0" encoding="UTF-8" standalone="no"?><!DOCTYPE svg PUBLIC "-//W3C//DTD SVG 1.1//EN" "http://www.w3.org/Graphics/SVG/1.1/DTD/svg11.dtd"><svg width="100%" height="100%" viewBox="0 0 48 48" version="1.1" xmlns="http://www.w3.org/2000/svg" xmlns:xlink="http://www.w3.org/1999/xlink" xml:space="preserve" xmlns:serif="http://www.serif.com/" style="fill-rule:evenodd;clip-rule:evenodd;stroke-linejoin:round;stroke-miterlimit:2;"><g><path d="M14,2l29,0c1.656,0 3,1.344 3,3l0,38c0,1.656 -1.344,3 -3,3l-38,0c-1.656,0 -3,-1.344 -3,-3l0,-29l-2,0l0,29c0,2.76 2.24,5 5,5l38,0c2.76,0 5,-2.24 5,-5l0,-38c0,-2.76 -2.24,-5 -5,-5l-29,0l0,2Zm-4,0l0,-2l-10,0l0,10l2,0l0,-8l8,0Z" style="fill:#fff;"/><path d="M33.476,11.5c-3.627,0 -7.103,1.441 -9.667,4.005l-0.717,0.715c-0.491,0.491 -0.963,1.002 -1.413,1.53l-5.006,0c-0.467,0 -0.926,0.12 -1.333,0.348c-0.407,0.227 -0.75,0.555 -0.995,0.953l-2.672,4.335c-0.093,0.153 -0.151,0.323 -0.168,0.501c-0.018,0.178 0.006,0.358 0.07,0.527c0.062,0.167 0.162,0.317 0.294,0.44c0.129,0.122 0.287,0.213 0.457,0.266l4.847,1.49c0.058,0.08 0.124,0.157 0.194,0.227l3.795,3.794c0.072,0.072 0.147,0.137 0.227,0.195l1.49,4.847c0.053,0.17 0.144,0.328 0.266,0.457c0.123,0.132 0.273,0.232 0.44,0.294c0.169,0.064 0.349,0.088 0.527,0.071c0.178,-0.018 0.348,-0.075 0.502,-0.169l4.334,-2.667c0.398,-0.246 0.726,-0.588 0.954,-0.994c0.227,-0.408 0.347,-0.867 0.347,-1.334l0,-5.011c0.528,-0.45 1.039,-0.922 1.53,-1.413l0.716,-0.717c2.564,-2.562 4.004,-6.04 4.006,-9.665l0,-0.291c0,-0.725 -0.288,-1.42 -0.802,-1.932c-0.512,-0.515 -1.208,-0.802 -1.933,-0.802l-0.29,0Zm-5.569,16.601c-0.137,0.094 -0.276,0.184 -0.415,0.273l-3.672,2.377l0.548,1.786l3.405,-1.875c0.056,-0.034 0.134,-2.561 0.134,-2.561Zm-10.659,-3.92l2.378,-3.672c0.091,-0.141 0.183,-0.278 0.275,-0.416c-0,0 -2.528,0.079 -2.562,0.135l-1.875,3.404l1.784,0.549Zm13.003,-4.869c-0,0.414 -0.164,0.813 -0.458,1.105c-0.292,0.294 -0.691,0.458 -1.105,0.458c-0.414,0 -0.812,-0.164 -1.104,-0.458c-0.294,-0.292 -0.458,-0.691 -0.458,-1.105c-0,-0.414 0.164,-0.812 0.458,-1.104c0.292,-0.294 0.69,-0.458 1.104,-0.458c0.414,0 0.813,0.164 1.105,0.458c0.294,0.292 0.458,0.69 0.458,1.104Zm-13.187,14.937c0.23,-0.214 0.415,-0.473 0.544,-0.761c0.128,-0.287 0.196,-0.596 0.201,-0.912c0.006,-0.314 -0.051,-0.627 -0.17,-0.919c-0.117,-0.292 -0.292,-0.558 -0.516,-0.779c-0.222,-0.224 -0.487,-0.399 -0.779,-0.516c-0.293,-0.119 -0.605,-0.177 -0.919,-0.17c-0.314,0.004 -0.625,0.075 -0.913,0.201c-0.287,0.128 -0.547,0.314 -0.761,0.544c-1.146,1.14 -1.635,3.644 -1.796,4.692c-0.01,0.056 -0.005,0.114 0.012,0.169c0.017,0.054 0.047,0.104 0.088,0.145c0.04,0.041 0.09,0.07 0.145,0.087c0.055,0.018 0.112,0.022 0.169,0.013c1.048,-0.161 3.551,-0.65 4.695,-1.794Z" style="fill:#fff;"/></g></svg>