<svg width="35" height="30" viewBox="0 0 35 30" fill="none" xmlns="http://www.w3.org/2000/svg">
<path d="M22.7125 18L19.475 21.2375L21.25 23L26.25 18L21.25 13L19.475 14.7625L22.7125 18ZM12.2875 18L15.525 14.7625L13.75 13L8.75 18L13.75 23L15.525 21.2375L12.2875 18Z" fill="#FDFEFE"/>
<path d="M32.5 0C33.8788 0 35 1.1225 35 2.5V27.5C35 28.8788 33.8788 30 32.5 30H2.5C1.12125 30 0 28.8788 0 27.5V2.5C0 1.1225 1.12125 0 2.5 0H32.5ZM2.5 8V27.5H32.5V8H2.5ZM5 2.75C4.30964 2.75 3.75 3.30964 3.75 4C3.75 4.69036 4.30964 5.25 5 5.25C5.69036 5.25 6.25 4.69036 6.25 4C6.25 3.30964 5.69036 2.75 5 2.75ZM8.75 2.75C8.05964 2.75 7.5 3.30964 7.5 4C7.5 4.69036 8.05964 5.25 8.75 5.25C9.44036 5.25 10 4.69036 10 4C10 3.30964 9.44036 2.75 8.75 2.75Z" fill="#FDFEFE"/>
</svg>
