<svg width="30" height="30" viewBox="0 0 30 30" fill="none" xmlns="http://www.w3.org/2000/svg">
<path d="M29.8922 20.0702L24.7884 27.745C24.5351 28.1258 23.9746 28.1258 23.7213 27.745L18.6175 20.0702C18.3352 19.6456 18.6403 19.0784 19.1511 19.0784H22.2806V8.31847C22.2806 5.90355 20.3111 3.93884 17.8903 3.93884H16.1097C15.0193 3.93884 14.1354 3.05715 14.1354 1.96945C14.1354 0.881757 15.0193 0 16.1097 0H17.8903C22.4883 0 26.229 3.73167 26.229 8.31847V19.0784H29.3586C29.8694 19.0784 30.1745 19.6456 29.8922 20.0702ZM13.8903 26.0612H12.1097C9.68885 26.0612 7.71935 24.0965 7.71935 21.6815V10.9215H10.8489C11.3596 10.9215 11.6648 10.3543 11.3825 9.92973L6.27866 2.25497C6.02538 1.87416 5.46482 1.87416 5.2116 2.25497L0.107798 9.92973C-0.174521 10.3543 0.130598 10.9215 0.641356 10.9215H3.7709V22.474C3.7709 22.7316 3.82101 22.9774 3.91117 23.2029C4.62979 27.0657 8.03251 30 12.1097 30H13.8903C14.9807 30 15.8645 29.1182 15.8645 28.0306C15.8645 26.943 14.9807 26.0612 13.8903 26.0612Z" fill="#5F67AA"/>
</svg>
