<?xml version="1.0" encoding="UTF-8" standalone="no"?><!DOCTYPE svg PUBLIC "-//W3C//DTD SVG 1.1//EN" "http://www.w3.org/Graphics/SVG/1.1/DTD/svg11.dtd"><svg width="100%" height="100%" viewBox="0 0 30 30" version="1.1" xmlns="http://www.w3.org/2000/svg" xmlns:xlink="http://www.w3.org/1999/xlink" xml:space="preserve" xmlns:serif="http://www.serif.com/" style="fill-rule:evenodd;clip-rule:evenodd;stroke-linejoin:round;stroke-miterlimit:2;"><path d="M19.587,24.49c0.309,0 0.572,-0.108 0.789,-0.324c0.217,-0.217 0.325,-0.48 0.325,-0.79c0,-0.309 -0.108,-0.573 -0.325,-0.79c-0.216,-0.217 -0.479,-0.325 -0.789,-0.325c-0.31,0 -0.573,0.108 -0.79,0.325c-0.217,0.217 -0.325,0.481 -0.325,0.79c-0,0.31 0.108,0.573 0.325,0.79c0.216,0.216 0.479,0.324 0.79,0.324m3.598,0c0.309,0 0.573,-0.108 0.79,-0.324c0.217,-0.217 0.325,-0.48 0.325,-0.79c-0,-0.309 -0.108,-0.573 -0.325,-0.79c-0.216,-0.217 -0.48,-0.325 -0.79,-0.325c-0.309,0 -0.572,0.108 -0.79,0.325c-0.216,0.217 -0.324,0.481 -0.324,0.79c-0,0.31 0.108,0.573 0.324,0.79c0.217,0.216 0.48,0.324 0.79,0.324m3.599,0c0.309,0 0.572,-0.108 0.79,-0.324c0.216,-0.217 0.324,-0.48 0.324,-0.79c0,-0.309 -0.108,-0.573 -0.324,-0.79c-0.217,-0.217 -0.48,-0.325 -0.79,-0.325c-0.309,0 -0.573,0.108 -0.79,0.325c-0.216,0.217 -0.325,0.481 -0.325,0.79c0,0.31 0.109,0.573 0.325,0.79c0.216,0.216 0.48,0.324 0.79,0.324m-3.599,5.51c-1.845,-0 -3.41,-0.643 -4.696,-1.928c-1.287,-1.285 -1.929,-2.85 -1.928,-4.696c-0,-1.844 0.642,-3.409 1.928,-4.695c1.285,-1.287 2.85,-1.93 4.696,-1.93c1.845,0 3.411,0.643 4.697,1.93c1.286,1.286 1.929,2.851 1.928,4.695c-0,1.846 -0.643,3.411 -1.928,4.696c-1.287,1.285 -2.853,1.928 -4.697,1.928m-17.389,-22.165l14.905,-0l0,-1.656l-14.905,-0l0,1.656Zm6.659,18.662l-9.78,0c-0.74,0 -1.371,-0.26 -1.893,-0.781c-0.521,-0.521 -0.782,-1.152 -0.782,-1.893l0,-21.148c0,-0.74 0.261,-1.371 0.782,-1.893c0.521,-0.521 1.152,-0.782 1.893,-0.782l21.148,0c0.74,0 1.37,0.261 1.893,0.782c0.521,0.521 0.781,1.152 0.781,1.893l0,9.853c-0.545,-0.173 -1.092,-0.309 -1.641,-0.407c-0.549,-0.097 -1.106,-0.146 -1.671,-0.146c-0.558,0 -1.102,0.044 -1.629,0.133c-0.528,0.088 -1.047,0.213 -1.557,0.374l-0,-0.061l-14.203,-0l0,1.656l10.909,-0c-0.837,0.575 -1.572,1.25 -2.206,2.025c-0.634,0.775 -1.155,1.629 -1.565,2.56l-7.138,0l0,1.657l6.558,-0c-0.119,0.467 -0.212,0.937 -0.279,1.412c-0.067,0.475 -0.1,0.96 -0.1,1.454c0,0.508 0.03,1.065 0.09,1.671c0.058,0.606 0.188,1.153 0.39,1.641" style="fill:#5f67aa;fill-rule:nonzero;"/></svg>