<?xml version="1.0" encoding="UTF-8" standalone="no"?>
<!DOCTYPE svg PUBLIC "-//W3C//DTD SVG 1.1//EN" "http://www.w3.org/Graphics/SVG/1.1/DTD/svg11.dtd">
<svg width="100%" height="100%" viewBox="0 0 1320 214" version="1.1" xmlns="http://www.w3.org/2000/svg" xmlns:xlink="http://www.w3.org/1999/xlink" xml:space="preserve" xmlns:serif="http://www.serif.com/" style="fill-rule:evenodd;clip-rule:evenodd;stroke-linejoin:round;stroke-miterlimit:2;">
    <g id="g949">
        <g id="g904">
            <rect id="rect20" x="0" y="0.002" width="101.459" height="101.458" style="fill:rgb(152,152,152);"/>
            <rect id="rect22" x="112.022" y="0" width="101.457" height="101.457" style="fill:rgb(152,152,152);"/>
            <rect id="rect24" x="0" y="112.062" width="101.457" height="101.457" style="fill:rgb(152,152,152);"/>
            <rect id="rect26" x="112.022" y="112.062" width="101.457" height="101.457" style="fill:rgb(152,152,152);"/>
        </g>
        <g id="g927">
            <path id="path2" d="M352.969,123.027L346.974,139.802L346.633,139.802C345.563,135.872 343.768,130.296 340.958,123.21L308.878,42.738L277.514,42.738L277.514,170.68L298.2,170.68L298.2,92.03C298.2,87.175 298.095,81.308 297.891,74.595C297.785,71.197 297.398,68.476 297.305,66.401L297.759,66.401C298.811,71.223 299.903,74.894 300.692,77.351L339.159,170.68L353.629,170.68L391.81,76.509C392.677,74.361 393.594,70.171 394.438,66.401L394.893,66.401C394.393,75.721 393.969,84.239 393.912,89.379L393.912,170.68L415.979,170.68L415.979,42.738L385.859,42.738L352.969,123.027Z" style="fill:rgb(152,152,152);fill-rule:nonzero;"/>
            <rect id="rect4" x="436.754" y="78.993" width="21.568" height="91.687" style="fill:rgb(152,152,152);"/>
            <path id="path6" d="M447.76,40.028C444.206,40.028 441.116,41.242 438.571,43.63C436.018,46.03 434.723,49.059 434.723,52.627C434.723,56.137 436.003,59.104 438.528,61.444C441.043,63.775 444.15,64.956 447.76,64.956C451.37,64.956 454.49,63.775 457.033,61.447C459.592,59.104 460.889,56.137 460.889,52.627C460.889,49.181 459.624,46.19 457.136,43.73C454.648,41.273 451.494,40.028 447.76,40.028" style="fill:rgb(152,152,152);fill-rule:nonzero;"/>
            <path id="path8" d="M534.677,78.075C530.528,77.217 526.477,76.783 522.624,76.783C512.726,76.783 503.902,78.902 496.396,83.089C488.873,87.279 483.052,93.263 479.101,100.875C475.154,108.469 473.156,117.333 473.156,127.221C473.156,135.886 475.098,143.832 478.927,150.841C482.766,157.864 488.193,163.353 495.066,167.162C501.935,170.961 509.866,172.893 518.646,172.893C528.896,172.893 537.649,170.843 544.662,166.801L544.947,166.635L544.947,146.88L544.04,147.54C540.859,149.855 537.308,151.705 533.489,153.033C529.675,154.363 526.199,155.039 523.155,155.039C514.692,155.039 507.901,152.39 502.967,147.167C498.025,141.939 495.52,134.608 495.52,125.369C495.52,116.071 498.128,108.54 503.28,102.987C508.417,97.447 515.224,94.637 523.509,94.637C530.603,94.637 537.507,97.039 544.04,101.779L544.947,102.436L544.947,81.617L544.657,81.452C542.197,80.076 538.841,78.94 534.677,78.075" style="fill:rgb(152,152,152);fill-rule:nonzero;"/>
            <path id="path10" d="M605.74,77.401C600.323,77.401 595.473,79.143 591.316,82.573C587.67,85.584 585.037,89.714 583.02,94.87L582.791,94.87L582.791,78.992L561.225,78.992L561.225,170.679L582.791,170.679L582.791,123.776C582.791,115.8 584.601,109.249 588.165,104.304C591.689,99.414 596.381,96.935 602.115,96.935C604.06,96.935 606.24,97.256 608.601,97.887C610.937,98.518 612.631,99.202 613.629,99.922L614.537,100.576L614.537,78.833L614.188,78.686C612.182,77.832 609.338,77.401 605.74,77.401" style="fill:rgb(152,152,152);fill-rule:nonzero;"/>
            <path id="path12" d="M664.319,76.783C649.197,76.783 637.19,81.212 628.63,89.953C620.07,98.686 615.733,110.781 615.733,125.898C615.733,140.253 619.97,151.797 628.321,160.212C636.675,168.623 648.045,172.891 662.107,172.891C676.76,172.891 688.533,168.4 697.093,159.541C705.646,150.691 709.984,138.718 709.984,123.951C709.984,109.364 705.914,97.734 697.889,89.38C689.857,81.021 678.561,76.783 664.319,76.783M681.467,147.38C677.415,152.463 671.319,155.037 663.345,155.037C655.422,155.037 649.171,152.413 644.771,147.236C640.343,142.033 638.097,134.617 638.097,125.189C638.097,115.471 640.343,107.859 644.771,102.568C649.178,97.304 655.367,94.638 663.17,94.638C670.737,94.638 676.765,97.186 681.083,102.22C685.422,107.275 687.621,114.827 687.621,124.66C687.621,134.62 685.55,142.262 681.467,147.38" style="fill:rgb(152,152,152);fill-rule:nonzero;"/>
            <path id="path14" d="M757.816,116.878C751.017,114.146 746.66,111.881 744.87,110.148C743.139,108.466 742.257,106.093 742.257,103.084C742.257,100.418 743.345,98.28 745.576,96.552C747.817,94.813 750.943,93.929 754.863,93.929C758.504,93.929 762.227,94.503 765.926,95.629C769.62,96.754 772.872,98.263 775.585,100.108L776.48,100.716L776.48,80.778L776.132,80.63C773.632,79.559 770.335,78.64 766.329,77.896C762.333,77.157 758.716,76.783 755.569,76.783C745.283,76.783 736.777,79.413 730.276,84.601C723.741,89.819 720.425,96.661 720.425,104.942C720.425,109.246 721.142,113.07 722.55,116.307C723.964,119.564 726.16,122.434 729.077,124.836C731.962,127.216 736.431,129.715 742.346,132.26C747.315,134.302 751.024,136.035 753.384,137.401C755.686,138.736 757.32,140.082 758.239,141.39C759.139,142.671 759.597,144.421 759.597,146.586C759.597,152.751 754.982,155.745 745.492,155.745C741.968,155.745 737.953,155.011 733.555,153.561C729.151,152.113 725.038,150.029 721.332,147.363L720.425,146.711L720.425,167.734L720.755,167.888C723.847,169.312 727.739,170.517 732.333,171.463C736.923,172.412 741.082,172.892 744.692,172.892C755.857,172.892 764.841,170.247 771.398,165.031C777.995,159.781 781.343,152.776 781.343,144.203C781.343,138.022 779.544,132.722 775.992,128.45C772.469,124.211 766.353,120.316 757.816,116.878" style="fill:rgb(152,152,152);fill-rule:nonzero;"/>
            <path id="path16" d="M839.334,76.783C824.213,76.783 812.209,81.212 803.646,89.953C795.089,98.686 790.75,110.781 790.75,125.898C790.75,140.253 794.984,151.797 803.34,160.212C811.693,168.623 823.06,172.891 837.126,172.891C851.778,172.891 863.548,168.4 872.107,159.541C880.664,150.691 885.003,138.718 885.003,123.951C885.003,109.364 880.933,97.734 872.904,89.38C864.874,81.021 853.575,76.783 839.334,76.783M856.485,147.38C852.434,152.463 846.334,155.037 838.363,155.037C830.44,155.037 824.189,152.413 819.788,147.236C815.36,142.033 813.114,134.617 813.114,125.189C813.114,115.471 815.361,107.859 819.791,102.568C824.192,97.304 830.382,94.638 838.188,94.638C845.753,94.638 851.783,97.186 856.102,102.22C860.44,107.275 862.64,114.827 862.64,124.66C862.64,134.62 860.564,142.262 856.485,147.38" style="fill:rgb(152,152,152);fill-rule:nonzero;"/>
            <path id="path18" d="M1000,96.582L1000,78.992L978.157,78.992L978.157,51.646L977.421,51.871L956.907,58.149L956.503,58.274L956.503,78.992L924.142,78.992L924.142,67.45C924.142,62.077 925.345,57.964 927.716,55.224C930.07,52.508 933.432,51.131 937.717,51.131C940.802,51.131 943.997,51.86 947.212,53.295L948.015,53.653L948.015,35.126L947.639,34.992C944.643,33.913 940.563,33.366 935.508,33.366C929.136,33.366 923.347,34.758 918.302,37.501C913.249,40.254 909.275,44.183 906.493,49.177C903.716,54.164 902.31,59.924 902.31,66.299L902.31,78.992L887.1,78.992L887.1,96.582L902.31,96.582L902.31,170.681L924.142,170.681L924.142,96.582L956.503,96.582L956.503,143.671C956.503,163.061 965.65,172.891 983.69,172.891C986.655,172.891 989.778,172.544 992.962,171.861C996.206,171.163 998.413,170.465 999.713,169.72L1000,169.556L1000,151.796L999.111,152.387C997.932,153.18 996.453,153.825 994.722,154.304C992.981,154.792 991.532,155.036 990.411,155.036C986.183,155.036 983.055,153.898 981.115,151.652C979.153,149.383 978.157,145.42 978.157,139.868L978.157,96.582L1000,96.582Z" style="fill:rgb(152,152,152);fill-rule:nonzero;"/>
        </g>
    </g>
    <g id="g932">
        <path id="path876" d="M1052.01,165.943L1052.01,146.551C1060.52,153.134 1070.12,156.425 1080.81,156.425C1089.5,156.425 1096.43,154.498 1101.59,150.643C1106.82,146.788 1109.43,141.57 1109.43,134.987C1109.43,120.517 1098.1,113.282 1075.44,113.282L1065.32,113.282L1065.32,96.736L1074.98,96.736C1095.09,96.736 1105.15,89.917 1105.15,76.277C1105.15,63.705 1097.31,57.418 1081.63,57.418C1072.88,57.418 1064.65,60.473 1056.93,66.581L1056.93,48.256C1065.81,43.393 1076.29,40.962 1088.38,40.962C1099.98,40.962 1109.28,43.808 1116.27,49.501C1123.26,55.195 1126.75,62.489 1126.75,71.384C1126.75,88.167 1118,98.96 1100.5,103.764L1100.5,104.12C1109.92,105.009 1117.36,108.241 1122.83,113.816C1128.3,119.331 1131.03,126.24 1131.03,134.542C1131.03,145.988 1126.63,155.239 1117.82,162.296C1109.01,169.294 1097.4,172.793 1083,172.793C1070.06,172.793 1059.73,170.51 1052.01,165.943Z" style="fill:rgb(152,152,152);fill-rule:nonzero;"/>
        <path id="path878" d="M1231.4,129.65C1231.4,136.055 1230.31,141.896 1228.12,147.174C1226,152.452 1223.02,157.018 1219.19,160.873C1215.36,164.668 1210.81,167.634 1205.52,169.768C1200.3,171.844 1194.61,172.882 1188.48,172.882C1181.91,172.882 1175.87,171.637 1170.34,169.146C1164.87,166.655 1160.13,162.949 1156.12,158.026C1152.17,153.104 1149.1,146.996 1146.92,139.702C1144.73,132.348 1143.63,123.838 1143.63,114.172C1143.63,102.37 1145.06,91.903 1147.92,82.771C1150.84,73.638 1154.82,65.988 1159.86,59.82C1164.9,53.653 1170.83,48.968 1177.63,45.765C1184.44,42.563 1191.79,40.962 1199.69,40.962C1204.61,40.962 1209.08,41.288 1213.09,41.94C1217.16,42.593 1220.41,43.482 1222.84,44.609L1222.84,63.2C1219.74,61.659 1216.43,60.354 1212.9,59.286C1209.38,58.219 1205.34,57.685 1200.78,57.685C1195.68,57.685 1190.97,58.693 1186.65,60.71C1182.34,62.726 1178.6,65.691 1175.44,69.605C1172.35,73.46 1169.88,78.264 1168.06,84.016C1166.3,89.709 1165.39,96.292 1165.33,103.764L1165.87,103.764C1168.67,99.553 1172.44,96.232 1177.17,93.801C1181.98,91.37 1187.6,90.154 1194.04,90.154C1199.75,90.154 1204.88,91.073 1209.44,92.911C1214.06,94.691 1217.98,97.3 1221.2,100.739C1224.48,104.12 1227,108.271 1228.76,113.193C1230.52,118.056 1231.4,123.542 1231.4,129.65ZM1210.08,131.34C1210.08,127.663 1209.62,124.313 1208.71,121.288C1207.86,118.264 1206.52,115.684 1204.7,113.549C1202.94,111.355 1200.69,109.665 1197.95,108.479C1195.28,107.292 1192.12,106.699 1188.48,106.699C1184.83,106.699 1181.61,107.352 1178.82,108.656C1176.08,109.902 1173.77,111.562 1171.89,113.638C1170.01,115.714 1168.58,118.086 1167.61,120.754C1166.69,123.423 1166.24,126.151 1166.24,128.938C1166.24,131.963 1166.66,135.076 1167.51,138.278C1168.42,141.422 1169.79,144.298 1171.62,146.907C1173.44,149.516 1175.75,151.681 1178.54,153.401C1181.4,155.061 1184.77,155.892 1188.66,155.892C1192.12,155.892 1195.19,155.269 1197.86,154.023C1200.54,152.778 1202.76,151.058 1204.52,148.864C1206.34,146.67 1207.71,144.09 1208.62,141.125C1209.59,138.101 1210.08,134.839 1210.08,131.34Z" style="fill:rgb(152,152,152);fill-rule:nonzero;"/>
        <path id="path880" d="M1242.73,167.723L1242.73,147.886C1251.3,153.519 1259.99,156.336 1268.8,156.336C1277.67,156.336 1284.81,154.142 1290.22,149.754C1295.62,145.306 1298.33,139.405 1298.33,132.052C1298.33,124.817 1295.56,119.183 1290.03,115.15C1284.57,111.118 1276.7,109.101 1266.43,109.101C1262.9,109.101 1255.76,109.457 1245.01,110.169L1249.66,43.097L1314,43.097L1314,60.71L1267.25,60.71L1265.06,92.645C1269.25,92.407 1273.05,92.289 1276.45,92.289C1290.31,92.289 1301,95.758 1308.54,102.696C1316.13,109.635 1319.93,119.123 1319.93,131.162C1319.93,143.794 1315.58,153.935 1306.89,161.585C1298.27,169.175 1286.39,172.971 1271.26,172.971C1258.5,172.971 1248.99,171.221 1242.73,167.723Z" style="fill:rgb(152,152,152);fill-rule:nonzero;"/>
    </g>
</svg>
