<?xml version="1.0" encoding="UTF-8" standalone="no"?><!DOCTYPE svg PUBLIC "-//W3C//DTD SVG 1.1//EN" "http://www.w3.org/Graphics/SVG/1.1/DTD/svg11.dtd"><svg width="100%" height="100%" viewBox="0 0 1024 263" version="1.1" xmlns="http://www.w3.org/2000/svg" xmlns:xlink="http://www.w3.org/1999/xlink" xml:space="preserve" xmlns:serif="http://www.serif.com/" style="fill-rule:evenodd;clip-rule:evenodd;stroke-linejoin:round;stroke-miterlimit:2;"><path d="M161.98,6.62l13.02,0l113.74,197l0,0.01l-24.49,41.75l-99.54,-0.02l10.09,17.4l-4.39,0l-10.09,-17.4l-123.47,-0.01l-0.09,0l-6.32,-11.09l-7.84,0l-22.6,-39.14l0.02,-0.01l0,-0.01l29,-50.24l26.83,-15.48l44.39,-76.89l-8.93,-15.45l21.39,-37.04l45.46,-0l3.82,6.62Zm-22.51,61.39l-78.52,135.65l75.18,-0l-8.69,-14.99l81.91,0.07l-69.88,-120.73Zm391.72,14.25l-52.49,0l-0,43.63l30.04,-0l-0,10.18l-30.04,-0l-0,54.74l-10.94,-0l-0,-118.85l63.43,-0l0,10.3Zm273.61,108.55l-11.06,0l-0,-118.85l11.06,0l-0,118.85Zm-154.28,0l-11.07,0l0,-118.85l11.07,0l-0,118.85Zm-33.48,-108.55l-52.49,0l-0,43.63l30.03,-0l0,10.18l-30.03,-0l-0,54.74l-10.95,-0l0,-118.85l63.44,-0l-0,10.3Zm284.47,-0l-31.56,-0l0,108.55l-11.07,0l0,-108.55l-31.73,0l0,-10.3l74.36,-0l0,10.3Zm-217.6,108.55l-10.95,0l0,-118.85l11.77,0l75.45,100.21l0,-100.21l11.08,-0l0,118.85l-10.8,0l-76.55,-101.99l-0,101.99Zm288.82,0l-11.19,0l0,-29.07l-51.26,-89.78l12.62,-0l44.24,77.03l44.24,-77.03l12.62,-0l-51.27,89.78l0,29.07Zm-514.75,0l-11.79,0l-46.02,-103.73c-2.88,6.63 -30.9,70.35 -33.89,77.09c5.87,-0 56.09,0.5 58.97,0.52l4.58,9.99c-10.02,-0.06 -54.92,-0.2 -68.21,-0.2c-1.21,2.56 -6.31,13.88 -7.31,16.33l-11.79,-0l52.66,-118.85l10.13,-0l52.67,118.85Z" style="fill:#9ea5a7;"/></svg>