<?xml version="1.0" encoding="UTF-8" standalone="no"?><!DOCTYPE svg PUBLIC "-//W3C//DTD SVG 1.1//EN" "http://www.w3.org/Graphics/SVG/1.1/DTD/svg11.dtd"><svg width="100%" height="100%" viewBox="0 0 180 35" version="1.1" xmlns="http://www.w3.org/2000/svg" xmlns:xlink="http://www.w3.org/1999/xlink" xml:space="preserve" xmlns:serif="http://www.serif.com/" style="fill-rule:evenodd;clip-rule:evenodd;stroke-linejoin:round;stroke-miterlimit:2;"><path d="M67.8,20.4c0.008,-0.1 0.012,-0.201 0.012,-0.301c0,-2.106 -1.706,-3.851 -3.812,-3.899c-2.037,0.317 -3.554,2.089 -3.554,4.15c0,2.061 1.517,3.833 3.554,4.15c2.103,-0.051 3.805,-1.795 3.805,-3.899c0,-0.067 -0.002,-0.134 -0.005,-0.201Zm3,-0c0.001,0.034 0.001,0.067 0.001,0.101c-0,3.675 -3.025,6.7 -6.7,6.7c-0.034,0 -0.067,0 -0.101,-0.001c-0.033,-0 -0.066,0.001 -0.099,0.001c-3.786,0 -6.9,-3.115 -6.9,-6.9c-0,-3.786 3.114,-6.9 6.9,-6.9c3.785,0 6.9,3.114 6.9,6.9c-0,0.033 -0.001,0.066 -0.001,0.099Z" style="fill:#9ea5a7;fill-rule:nonzero;"/><path d="M82.6,20.4c-0.106,-2.061 -1.831,-3.699 -3.895,-3.699c-2.139,0 -3.9,1.761 -3.9,3.9c0,2.14 1.761,3.9 3.9,3.9c0.032,-0 0.063,-0 0.095,-0.001c2.156,-0.107 3.857,-1.942 3.8,-4.1Zm3,-0c0,3.785 -3.115,6.899 -6.9,6.899c-3.785,-0 -6.9,-3.114 -6.9,-6.9c0,-3.785 3.115,-6.9 6.9,-6.9c0.033,0 0.067,0.001 0.1,0.001c0.034,-0.001 0.069,-0.001 0.103,-0.001c3.676,0 6.7,3.025 6.7,6.7c0,0.067 -0.001,0.134 -0.003,0.201Z" style="fill:#9ea5a7;fill-rule:nonzero;"/><path d="M97.1,20.4c0,-2.4 -1.6,-4.2 -3.6,-4.2c-2.118,0.103 -3.805,1.874 -3.805,3.995c-0,0.069 0.002,0.137 0.005,0.205c-0.003,0.067 -0.005,0.134 -0.005,0.201c-0,2.104 1.702,3.848 3.805,3.899c2,-0 3.6,-1.7 3.6,-4.1Zm2.7,-6.4l0,12.2c0,5.1 -3,7.1 -6.5,7.1c-2.647,0.014 -5.057,-1.567 -6.1,-4l2.6,-1.1c0.568,1.435 1.957,2.387 3.5,2.4c2.2,0 3.6,-1.4 3.6,-4l-0,-1l-0.1,0c-0.87,1.083 -2.213,1.68 -3.6,1.6c-3.448,-0.417 -6.071,-3.377 -6.071,-6.85c0,-3.473 2.623,-6.433 6.071,-6.85c1.376,-0.02 2.693,0.566 3.6,1.6l0.1,0l-0,-1.1l2.9,0Z" style="fill:#9ea5a7;fill-rule:nonzero;"/><rect x="101.5" y="6.8" width="3" height="20" style="fill:#9ea5a7;"/><path d="M108.7,20.2l6.1,-2.6c-0.477,-0.923 -1.464,-1.476 -2.5,-1.4c-1.996,0.047 -3.612,1.702 -3.612,3.699c-0,0.1 0.004,0.201 0.012,0.301Zm7.2,2.4l2.3,1.6c-1.299,1.865 -3.427,2.985 -5.7,3c-0.034,0.001 -0.067,0.001 -0.101,0.001c-3.675,0 -6.7,-3.025 -6.7,-6.7c-0,-0.034 -0,-0.067 0.001,-0.101c0,-4.1 2.9,-6.9 6.5,-6.9c3.6,-0 5.2,2.9 5.8,4.4l0.3,0.8l-9.1,3.7c0.569,1.304 1.878,2.137 3.3,2.1c1.389,0.018 2.688,-0.707 3.4,-1.9Z" style="fill:#9ea5a7;fill-rule:nonzero;"/><path d="M46.1,18.6l0,-2.9l9.7,-0c0.122,0.559 0.189,1.128 0.2,1.7c0.006,0.138 0.009,0.276 0.009,0.414c0,5.156 -4.243,9.4 -9.4,9.4c-0.17,-0 -0.339,-0.005 -0.509,-0.014c-5.815,-0 -10.6,-4.785 -10.6,-10.6c-0,-5.815 4.785,-10.6 10.6,-10.6c2.687,-0.02 5.277,1.023 7.2,2.9l-2,2.1c-1.371,-1.383 -3.253,-2.143 -5.2,-2.1c-4.224,-0 -7.7,3.476 -7.7,7.7c-0,4.224 3.476,7.7 7.7,7.7c1.982,0.071 3.905,-0.691 5.3,-2.1c0.959,-0.961 1.529,-2.244 1.6,-3.6l-6.9,0Z" style="fill:#9ea5a7;fill-rule:nonzero;"/><path d="M125.4,26.8l-0,-18.5l5.7,0c2.525,-0.093 4.982,0.846 6.8,2.6c3.316,3.79 3.316,9.51 -0,13.3c-1.818,1.754 -4.275,2.693 -6.8,2.6l-5.7,0Zm2.4,-16.2l-0,13.9l3.3,-0c0.21,0.021 0.421,0.032 0.632,0.032c3.456,-0 6.3,-2.844 6.3,-6.3c0,-0.211 -0.011,-0.422 -0.032,-0.632c0.101,-1.901 -0.545,-3.768 -1.8,-5.2c-1.401,-1.24 -3.231,-1.886 -5.1,-1.8l-3.3,0Z" style="fill:#9ea5a7;fill-rule:nonzero;"/><path d="M141.7,20.5c-0.072,-1.825 0.616,-3.601 1.9,-4.9c1.207,-1.237 2.872,-1.925 4.6,-1.9c1.754,-0.007 3.443,0.676 4.7,1.9c1.218,1.334 1.865,3.095 1.8,4.9c0.049,1.773 -0.597,3.497 -1.8,4.8c-1.231,1.263 -2.937,1.953 -4.7,1.9c-1.737,0.076 -3.423,-0.62 -4.6,-1.9c-1.268,-1.269 -1.956,-3.007 -1.9,-4.8Zm2.4,0c-0.031,1.212 0.398,2.391 1.2,3.3c0.748,0.799 1.806,1.237 2.9,1.2c1.122,0.027 2.207,-0.407 3,-1.2c0.734,-0.941 1.123,-2.107 1.1,-3.3c0.049,-1.197 -0.342,-2.372 -1.1,-3.3c-0.761,-0.851 -1.859,-1.327 -3,-1.3c-1.112,-0.025 -2.179,0.453 -2.9,1.3c-0.83,0.892 -1.263,2.083 -1.2,3.3Z" style="fill:#9ea5a7;fill-rule:nonzero;"/><path d="M162.7,27.2c-1.767,0.078 -3.484,-0.616 -4.7,-1.9c-1.203,-1.303 -1.849,-3.027 -1.8,-4.8c-0.065,-1.805 0.582,-3.566 1.8,-4.9c1.244,-1.243 2.941,-1.929 4.7,-1.9c1.173,0.009 2.319,0.356 3.3,1c1.011,0.632 1.785,1.582 2.2,2.7l-2.2,0.9c-0.492,-1.492 -1.931,-2.479 -3.5,-2.4c-1.084,-0.024 -2.119,0.457 -2.8,1.3c-0.802,0.909 -1.231,2.088 -1.2,3.3c-0.036,1.183 0.395,2.333 1.2,3.2c0.681,0.843 1.716,1.324 2.8,1.3c1.59,0.086 3.074,-0.836 3.7,-2.3l2.1,0.9c-0.446,1.074 -1.215,1.983 -2.2,2.6c-0.998,0.686 -2.189,1.036 -3.4,1Z" style="fill:#9ea5a7;fill-rule:nonzero;"/><path d="M180,23.3c-0.029,1.094 -0.543,2.12 -1.4,2.8c-1.085,0.751 -2.381,1.136 -3.7,1.1c-1.181,0.052 -2.346,-0.301 -3.3,-1c-0.962,-0.617 -1.699,-1.53 -2.1,-2.6l2.1,-0.9c0.294,0.689 0.78,1.28 1.4,1.7c0.524,0.462 1.202,0.712 1.9,0.7c0.667,0.013 1.325,-0.16 1.9,-0.5c0.467,-0.221 0.776,-0.684 0.8,-1.2c0,-0.8 -0.6,-1.4 -1.9,-1.8l-2.1,-0.5c-2.5,-0.6 -3.7,-1.8 -3.7,-3.5c-0.073,-1.116 0.463,-2.189 1.4,-2.8c1.041,-0.764 2.31,-1.152 3.6,-1.1c1.052,0.003 2.086,0.279 3,0.8c0.837,0.529 1.499,1.295 1.9,2.2l-2.1,0.9c-0.26,-0.544 -0.678,-0.997 -1.2,-1.3c-0.544,-0.327 -1.166,-0.499 -1.8,-0.5c-0.601,0.013 -1.188,0.186 -1.7,0.5c-0.413,0.214 -0.681,0.635 -0.7,1.1c-0,0.8 0.7,1.3 2,1.6l1.9,0.5c2.5,0.6 3.8,1.9 3.8,3.8Z" style="fill:#9ea5a7;fill-rule:nonzero;"/><path d="M22.802,34.6l-20.602,0c-1.207,0 -2.2,-0.993 -2.2,-2.2l0,-30.2c0,-1.207 0.993,-2.2 2.2,-2.2l13.1,0l9.6,9.5l-0,22.9c0.002,0.033 0.002,0.067 0.002,0.1c-0,1.152 -0.948,2.1 -2.1,2.1Zm-7.302,-7.9l-9.6,-0l0,1.6l9.6,-0l0,-1.6Zm3.1,-3.1l-12.7,-0l0,1.6l12.7,-0l0,-1.6Zm0,-3.1l-12.7,-0l0,1.6l12.7,-0l0,-1.6Zm0,-3.1l-12.7,-0l0,1.6l12.7,-0l0,-1.6Z" style="fill:#9ea5a7;fill-rule:nonzero;"/><path d="M17.5,9.5l7.4,0l-9.6,-9.5l0,7.3c0,1.207 0.993,2.2 2.2,2.2Z" style="fill:#fff;fill-opacity:0.3;fill-rule:nonzero;"/></svg>