<?xml version="1.0" encoding="UTF-8" standalone="no"?>
<!DOCTYPE svg PUBLIC "-//W3C//DTD SVG 1.1//EN" "http://www.w3.org/Graphics/SVG/1.1/DTD/svg11.dtd">
<svg width="100%" height="100%" viewBox="0 0 180 35" version="1.1" xmlns="http://www.w3.org/2000/svg" xmlns:xlink="http://www.w3.org/1999/xlink" xml:space="preserve" xmlns:serif="http://www.serif.com/" style="fill-rule:evenodd;clip-rule:evenodd;stroke-linejoin:round;stroke-miterlimit:2;">
    <g transform="matrix(1,0,0,1,-409,-483)">
        <path d="M476.8,503.4C476.808,503.3 476.812,503.199 476.812,503.099C476.812,500.993 475.106,499.248 473,499.2C470.963,499.517 469.446,501.289 469.446,503.35C469.446,505.411 470.963,507.183 473,507.5C475.103,507.449 476.805,505.705 476.805,503.601C476.805,503.534 476.803,503.467 476.8,503.4ZM479.8,503.4C479.801,503.434 479.801,503.467 479.801,503.501C479.801,507.176 476.776,510.201 473.101,510.201C473.067,510.201 473.034,510.201 473,510.2C472.967,510.2 472.934,510.201 472.901,510.201C469.115,510.201 466.001,507.086 466.001,503.301C466.001,499.515 469.115,496.401 472.901,496.401C476.686,496.401 479.801,499.515 479.801,503.301C479.801,503.334 479.8,503.367 479.8,503.4Z" style="fill:rgb(152,152,152);fill-rule:nonzero;"/>
    </g>
    <g transform="matrix(1,0,0,1,-409,-483)">
        <path d="M491.6,503.4C491.494,501.339 489.769,499.701 487.705,499.701C485.566,499.701 483.805,501.462 483.805,503.601C483.805,505.741 485.566,507.501 487.705,507.501C487.737,507.501 487.768,507.501 487.8,507.5C489.956,507.393 491.657,505.558 491.6,503.4ZM494.6,503.4C494.6,507.185 491.485,510.299 487.7,510.299C483.915,510.299 480.8,507.185 480.8,503.399C480.8,499.614 483.915,496.499 487.7,496.499C487.733,496.499 487.767,496.5 487.8,496.5C487.834,496.499 487.869,496.499 487.903,496.499C491.579,496.499 494.603,499.524 494.603,503.199C494.603,503.266 494.602,503.333 494.6,503.4Z" style="fill:rgb(152,152,152);fill-rule:nonzero;"/>
    </g>
    <g transform="matrix(1,0,0,1,-409,-483)">
        <path d="M506.1,503.4C506.1,501 504.5,499.2 502.5,499.2C500.382,499.303 498.695,501.074 498.695,503.195C498.695,503.264 498.697,503.332 498.7,503.4C498.697,503.467 498.695,503.534 498.695,503.601C498.695,505.705 500.397,507.449 502.5,507.5C504.5,507.5 506.1,505.8 506.1,503.4ZM508.8,497L508.8,509.2C508.8,514.3 505.8,516.3 502.3,516.3C499.653,516.314 497.243,514.733 496.2,512.3L498.8,511.2C499.368,512.635 500.757,513.587 502.3,513.6C504.5,513.6 505.9,512.2 505.9,509.6L505.9,508.6L505.8,508.6C504.93,509.683 503.587,510.28 502.2,510.2C498.752,509.783 496.129,506.823 496.129,503.35C496.129,499.877 498.752,496.917 502.2,496.5C503.576,496.48 504.893,497.066 505.8,498.1L505.9,498.1L505.9,497L508.8,497Z" style="fill:rgb(152,152,152);fill-rule:nonzero;"/>
    </g>
    <rect x="101.5" y="6.8" width="3" height="20" style="fill:rgb(152,152,152);fill-rule:nonzero;"/>
    <g transform="matrix(1,0,0,1,-409,-483)">
        <path d="M517.7,503.2L523.8,500.6C523.323,499.677 522.336,499.124 521.3,499.2C519.304,499.247 517.688,500.902 517.688,502.899C517.688,502.999 517.692,503.1 517.7,503.2ZM524.9,505.6L527.2,507.2C525.901,509.065 523.773,510.185 521.5,510.2C521.466,510.201 521.433,510.201 521.399,510.201C517.724,510.201 514.699,507.176 514.699,503.501C514.699,503.467 514.699,503.434 514.7,503.4C514.7,499.3 517.6,496.5 521.2,496.5C524.8,496.5 526.4,499.4 527,500.9L527.3,501.7L518.2,505.4C518.769,506.704 520.078,507.537 521.5,507.5C522.889,507.518 524.188,506.793 524.9,505.6Z" style="fill:rgb(152,152,152);fill-rule:nonzero;"/>
    </g>
    <g transform="matrix(1,0,0,1,-409,-483)">
        <path d="M455.1,501.6L455.1,498.7L464.8,498.7C464.922,499.259 464.989,499.828 465,500.4C465.006,500.538 465.009,500.676 465.009,500.814C465.009,505.97 460.766,510.214 455.609,510.214C455.439,510.214 455.27,510.209 455.1,510.2C449.285,510.2 444.5,505.415 444.5,499.6C444.5,493.785 449.285,489 455.1,489C457.787,488.98 460.377,490.023 462.3,491.9L460.3,494C458.929,492.617 457.047,491.857 455.1,491.9C450.876,491.9 447.4,495.376 447.4,499.6C447.4,503.824 450.876,507.3 455.1,507.3C457.082,507.371 459.005,506.609 460.4,505.2C461.359,504.239 461.929,502.956 462,501.6L455.1,501.6Z" style="fill:rgb(152,152,152);fill-rule:nonzero;"/>
    </g>
    <g transform="matrix(1,0,0,1,-409,-483)">
        <path d="M534.4,509.8L534.4,491.3L540.1,491.3C542.625,491.207 545.082,492.146 546.9,493.9C550.216,497.69 550.216,503.41 546.9,507.2C545.082,508.954 542.625,509.893 540.1,509.8L534.4,509.8ZM536.8,493.6L536.8,507.5L540.1,507.5C540.31,507.521 540.521,507.532 540.732,507.532C544.188,507.532 547.032,504.688 547.032,501.232C547.032,501.021 547.021,500.81 547,500.6C547.101,498.699 546.455,496.832 545.2,495.4C543.799,494.16 541.969,493.514 540.1,493.6L536.8,493.6Z" style="fill:rgb(152,152,152);fill-rule:nonzero;"/>
    </g>
    <g transform="matrix(1,0,0,1,-409,-483)">
        <path d="M550.7,503.5C550.628,501.675 551.316,499.899 552.6,498.6C553.807,497.363 555.472,496.675 557.2,496.7C558.954,496.693 560.643,497.376 561.9,498.6C563.118,499.934 563.765,501.695 563.7,503.5C563.749,505.273 563.103,506.997 561.9,508.3C560.669,509.563 558.963,510.253 557.2,510.2C555.463,510.276 553.777,509.58 552.6,508.3C551.332,507.031 550.644,505.293 550.7,503.5ZM553.1,503.5C553.069,504.712 553.498,505.891 554.3,506.8C555.048,507.599 556.106,508.037 557.2,508C558.322,508.027 559.407,507.593 560.2,506.8C560.934,505.859 561.323,504.693 561.3,503.5C561.349,502.303 560.958,501.128 560.2,500.2C559.439,499.349 558.341,498.873 557.2,498.9C556.088,498.875 555.021,499.353 554.3,500.2C553.47,501.092 553.037,502.283 553.1,503.5Z" style="fill:rgb(152,152,152);fill-rule:nonzero;"/>
    </g>
    <g transform="matrix(1,0,0,1,-409,-483)">
        <path d="M571.7,510.2C569.933,510.278 568.216,509.584 567,508.3C565.797,506.997 565.151,505.273 565.2,503.5C565.135,501.695 565.782,499.934 567,498.6C568.244,497.357 569.941,496.671 571.7,496.7C572.873,496.709 574.019,497.056 575,497.7C576.011,498.332 576.785,499.282 577.2,500.4L575,501.3C574.508,499.808 573.069,498.821 571.5,498.9C570.416,498.876 569.381,499.357 568.7,500.2C567.898,501.109 567.469,502.288 567.5,503.5C567.464,504.683 567.895,505.833 568.7,506.7C569.381,507.543 570.416,508.024 571.5,508C573.09,508.086 574.574,507.164 575.2,505.7L577.3,506.6C576.854,507.674 576.085,508.583 575.1,509.2C574.102,509.886 572.911,510.236 571.7,510.2Z" style="fill:rgb(152,152,152);fill-rule:nonzero;"/>
    </g>
    <g transform="matrix(1,0,0,1,-409,-483)">
        <path d="M589,506.3C588.971,507.394 588.457,508.42 587.6,509.1C586.515,509.851 585.219,510.236 583.9,510.2C582.719,510.252 581.554,509.899 580.6,509.2C579.638,508.583 578.901,507.67 578.5,506.6L580.6,505.7C580.894,506.389 581.38,506.98 582,507.4C582.524,507.862 583.202,508.112 583.9,508.1C584.567,508.113 585.225,507.94 585.8,507.6C586.267,507.379 586.576,506.916 586.6,506.4C586.6,505.6 586,505 584.7,504.6L582.6,504.1C580.1,503.5 578.9,502.3 578.9,500.6C578.827,499.484 579.363,498.411 580.3,497.8C581.341,497.036 582.61,496.648 583.9,496.7C584.952,496.703 585.986,496.979 586.9,497.5C587.737,498.029 588.399,498.795 588.8,499.7L586.7,500.6C586.44,500.056 586.022,499.603 585.5,499.3C584.956,498.973 584.334,498.801 583.7,498.8C583.099,498.813 582.512,498.986 582,499.3C581.587,499.514 581.319,499.935 581.3,500.4C581.3,501.2 582,501.7 583.3,502L585.2,502.5C587.7,503.1 589,504.4 589,506.3Z" style="fill:rgb(152,152,152);fill-rule:nonzero;"/>
    </g>
    <g transform="matrix(1,0,0,1,-409,-483)">
        <path d="M431.8,517.6L411.2,517.6C409.993,517.6 409,516.607 409,515.4L409,485.2C409,483.993 409.993,483 411.2,483L424.3,483L433.9,492.5L433.9,515.4C433.902,515.433 433.902,515.467 433.902,515.5C433.902,516.652 432.954,517.6 431.802,517.6C431.802,517.6 431.801,517.6 431.8,517.6Z" style="fill:rgb(152,152,152);fill-rule:nonzero;"/>
    </g>
    <rect x="5.9" y="17.4" width="12.7" height="1.6" style="fill:rgb(241,241,241);fill-rule:nonzero;"/>
    <rect x="5.9" y="20.5" width="12.7" height="1.6" style="fill:rgb(241,241,241);fill-rule:nonzero;"/>
    <rect x="5.9" y="23.6" width="12.7" height="1.6" style="fill:rgb(241,241,241);fill-rule:nonzero;"/>
    <rect x="5.9" y="26.7" width="9.6" height="1.6" style="fill:rgb(241,241,241);fill-rule:nonzero;"/>
    <g transform="matrix(1,0,0,1,-409,-483)">
        <path d="M426.5,492.5L433.9,492.5L424.3,483L424.3,490.3C424.3,491.507 425.293,492.5 426.5,492.5Z" style="fill:white;fill-opacity:0.3;fill-rule:nonzero;"/>
    </g>
</svg>
