<?xml version="1.0" encoding="UTF-8" standalone="no"?><!DOCTYPE svg PUBLIC "-//W3C//DTD SVG 1.1//EN" "http://www.w3.org/Graphics/SVG/1.1/DTD/svg11.dtd"><svg width="100%" height="100%" viewBox="0 0 100 48" version="1.1" xmlns="http://www.w3.org/2000/svg" xmlns:xlink="http://www.w3.org/1999/xlink" xml:space="preserve" xmlns:serif="http://www.serif.com/" style="fill-rule:evenodd;clip-rule:evenodd;stroke-linejoin:round;stroke-miterlimit:2;"><g><path d="M7.95,47.666c4.384,0 7.942,-3.558 7.942,-7.941l-0,-7.942l-7.942,0c-4.383,0 -7.941,3.558 -7.941,7.942c-0,4.383 3.558,7.941 7.941,7.941Z" style="fill:#9ea5a7;fill-rule:nonzero;"/><path d="M-0,23.833c-0,-4.383 3.559,-7.942 7.942,-7.942l7.941,0l-0,15.892l-7.941,0c-4.383,0 -7.942,-3.558 -7.942,-7.942l-0,-0.008Z" style="fill:#9ea5a7;fill-rule:nonzero;"/><path d="M-0,7.941c-0,-4.383 3.559,-7.941 7.942,-7.941l7.941,0l-0,15.891l-7.941,0c-4.383,0 -7.942,-3.558 -7.942,-7.941l-0,-0.009Z" style="fill:#9ea5a7;fill-rule:nonzero;"/><path d="M15.817,0l7.942,0c4.383,0 7.941,3.558 7.941,7.941c-0,4.384 -3.558,7.942 -7.941,7.942l-7.942,0l-0,-15.883Z" style="fill:#9ea5a7;fill-rule:nonzero;"/><path d="M31.784,23.833c-0,4.383 -3.559,7.942 -7.942,7.942c-4.384,0 -8.025,-3.559 -8.025,-7.942c-0,-4.383 3.558,-7.942 7.942,-7.942c4.383,0 7.941,3.559 7.941,7.942l0.084,0Z" style="fill:#9ea5a7;fill-rule:nonzero;"/><path d="M40.467,13.166l-0,16.65l2.142,0l-0,-7.95l5.15,0l-0,-2.066l-5.15,0l-0,-4.55l6.691,0l-0,-2.084l-8.833,0Zm12.708,3.384c0.775,0 1.4,-0.625 1.4,-1.4c-0,-0.775 -0.633,-1.317 -1.4,-1.317c-0.766,0 -1.4,0.625 -1.4,1.4c-0,0.375 0.15,0.725 0.417,1c0.267,0.275 0.617,0.417 1,0.417l-0.017,-0.1Zm-1.083,2.1l-0,11.166l2.058,0l-0,-11.166l-2.125,0l0.067,0Zm10.1,-0.334c-2.85,0 -4.833,2.5 -4.833,5.267c-0,2.767 2,5.25 4.833,5.25c1.191,0.021 2.338,-0.46 3.158,-1.325l-0,1.483c-0.006,0.891 -0.352,1.747 -0.966,2.392c-0.628,0.64 -1.488,1.001 -2.384,1c-0.681,-0.022 -1.342,-0.242 -1.9,-0.633l-1.083,1.858c0.887,0.571 1.92,0.874 2.975,0.874c3.017,0 5.5,-2.483 5.5,-5.5l-0,-10.349l-2.142,0l-0,1c-0.82,-0.865 -1.967,-1.346 -3.158,-1.325l-0,0.008Zm-2.683,5.267c-0.1,-1.103 0.438,-2.172 1.383,-2.75c0.95,-0.583 2.142,-0.583 3.083,0c0.942,0.583 1.475,1.65 1.384,2.75c0.099,1.103 -0.439,2.172 -1.384,2.75c-0.95,0.583 -2.141,0.583 -3.083,0c-0.942,-0.583 -1.475,-1.65 -1.383,-2.75Z" style="fill:#9ea5a7;fill-rule:nonzero;"/><path d="M75.217,20.5c-1.274,0.004 -2.321,1.051 -2.325,2.325l-0,7.066l-2.142,0l-0,-11.166l2.142,0l-0,0.941c0.65,-0.866 1.683,-1.366 2.767,-1.35c1.366,-0.033 2.641,0.7 3.316,1.892c0.834,-1.167 2.034,-1.875 3.334,-1.892c2.441,0 3.958,1.967 3.966,4.4l-0,7.109l-2.141,0l-0,-7.084c0.015,-0.109 0.023,-0.218 0.023,-0.328c-0,-1.28 -1.054,-2.334 -2.334,-2.334c-0.442,0 -0.874,0.126 -1.248,0.362c-0.763,0.498 -1.168,1.399 -1.033,2.3l-0,7.067l-2.058,0l-0,-7.058c-0.005,-1.274 -1.052,-2.321 -2.325,-2.325l0.058,0.075Zm22.5,-0.584c-0.985,-1.027 -2.352,-1.604 -3.775,-1.591c-3.192,0 -5.417,2.7 -5.417,5.833c-0,3.133 2.25,5.833 5.417,5.833c1.423,0.013 2.79,-0.564 3.775,-1.591l-0,1.266l2.142,0l-0,-11.166l-2.142,0l-0,1.416Zm-7.083,4.334c-0.109,-1.334 0.541,-2.617 1.683,-3.317c1.142,-0.7 2.5,-0.7 3.717,0c1.134,0.704 1.784,1.986 1.683,3.317c0.108,1.333 -0.542,2.616 -1.683,3.316c-1.142,0.7 -2.5,0.7 -3.717,0c-1.134,-0.704 -1.785,-1.985 -1.683,-3.316Z" style="fill:#9ea5a7;fill-rule:nonzero;"/></g></svg>