<?xml version="1.0" encoding="UTF-8" standalone="no"?>
<!DOCTYPE svg PUBLIC "-//W3C//DTD SVG 1.1//EN" "http://www.w3.org/Graphics/SVG/1.1/DTD/svg11.dtd">
<svg width="100%" height="100%" viewBox="0 0 100 48" version="1.1" xmlns="http://www.w3.org/2000/svg" xmlns:xlink="http://www.w3.org/1999/xlink" xml:space="preserve" xmlns:serif="http://www.serif.com/" style="fill-rule:evenodd;clip-rule:evenodd;stroke-linejoin:round;stroke-miterlimit:2;">
    <g transform="matrix(1,0,0,1,-10.0292,-6.16667)">
        <path d="M17.979,53.833C22.363,53.833 25.921,50.275 25.921,45.892L25.921,37.95L17.979,37.95C13.596,37.95 10.038,41.508 10.038,45.892C10.038,50.275 13.596,53.833 17.979,53.833Z" style="fill:rgb(152,152,152);fill-rule:nonzero;"/>
        <path d="M10.029,30C10.029,25.617 13.588,22.058 17.971,22.058L25.912,22.058L25.912,37.95L17.971,37.95C13.588,37.95 10.029,34.392 10.029,30.008L10.029,30Z" style="fill:rgb(152,152,152);fill-rule:nonzero;"/>
        <path d="M10.029,14.108C10.029,9.725 13.588,6.167 17.971,6.167L25.912,6.167L25.912,22.058L17.971,22.058C13.588,22.058 10.029,18.5 10.029,14.117L10.029,14.108Z" style="fill:rgb(152,152,152);fill-rule:nonzero;"/>
        <path d="M25.846,6.167L33.788,6.167C38.171,6.167 41.729,9.725 41.729,14.108C41.729,18.492 38.171,22.05 33.788,22.05L25.846,22.05L25.846,6.167Z" style="fill:rgb(152,152,152);fill-rule:nonzero;"/>
        <path d="M41.813,30C41.813,34.383 38.254,37.942 33.871,37.942C29.487,37.942 25.846,34.383 25.846,30C25.846,25.617 29.404,22.058 33.788,22.058C38.171,22.058 41.729,25.617 41.729,30L41.813,30Z" style="fill:rgb(152,152,152);fill-rule:nonzero;"/>
        <path d="M50.496,19.333L50.496,35.983L52.638,35.983L52.638,28.033L57.788,28.033L57.788,25.967L52.638,25.967L52.638,21.417L59.329,21.417L59.329,19.333L50.496,19.333ZM63.204,22.717C63.979,22.717 64.604,22.092 64.604,21.317C64.604,20.542 63.971,20 63.204,20C62.438,20 61.804,20.625 61.804,21.4C61.804,21.775 61.954,22.125 62.221,22.4C62.488,22.675 62.838,22.817 63.221,22.817L63.204,22.717ZM62.121,24.817L62.121,35.983L64.179,35.983L64.179,24.817L62.054,24.817L62.121,24.817ZM72.221,24.483C69.371,24.483 67.388,26.983 67.388,29.75C67.388,32.517 69.388,35 72.221,35C73.412,35.021 74.559,34.54 75.379,33.675L75.379,35.158C75.373,36.049 75.027,36.905 74.413,37.55C73.785,38.19 72.925,38.551 72.029,38.55C71.348,38.528 70.687,38.308 70.129,37.917L69.046,39.775C69.933,40.346 70.966,40.649 72.021,40.649C75.038,40.649 77.521,38.166 77.521,35.149C77.521,35.144 77.521,35.139 77.521,35.133L77.521,24.8L75.379,24.8L75.379,25.8C74.559,24.935 73.412,24.454 72.221,24.475L72.221,24.483ZM69.538,29.75C69.438,28.647 69.976,27.578 70.921,27C71.871,26.417 73.063,26.417 74.004,27C74.946,27.583 75.479,28.65 75.388,29.75C75.487,30.853 74.949,31.922 74.004,32.5C73.054,33.083 71.863,33.083 70.921,32.5C69.979,31.917 69.446,30.85 69.538,29.75Z" style="fill:rgb(152,152,152);fill-rule:nonzero;"/>
        <path d="M85.246,26.667C83.972,26.671 82.925,27.718 82.921,28.992L82.921,36.058L80.779,36.058L80.779,24.892L82.921,24.892L82.921,25.833C83.571,24.967 84.604,24.467 85.688,24.483C87.054,24.45 88.329,25.183 89.004,26.375C89.838,25.208 91.038,24.5 92.338,24.483C94.779,24.483 96.296,26.45 96.304,28.883L96.304,35.992L94.163,35.992L94.163,28.908C94.178,28.799 94.186,28.69 94.186,28.58C94.186,27.3 93.132,26.246 91.852,26.246C91.41,26.246 90.978,26.372 90.604,26.608C89.841,27.106 89.436,28.007 89.571,28.908L89.571,35.975L87.513,35.975L87.513,28.917C87.508,27.643 86.461,26.596 85.188,26.592L85.246,26.667ZM107.746,26.083C106.761,25.056 105.394,24.479 103.971,24.492C100.779,24.492 98.554,27.192 98.554,30.325C98.554,33.458 100.804,36.158 103.971,36.158C105.394,36.171 106.761,35.594 107.746,34.567L107.746,35.833L109.888,35.833L109.888,24.667L107.746,24.667L107.746,26.083ZM100.663,30.417C100.554,29.083 101.204,27.8 102.346,27.1C103.488,26.4 104.846,26.4 106.063,27.1C107.197,27.804 107.847,29.086 107.746,30.417C107.854,31.75 107.204,33.033 106.063,33.733C104.921,34.433 103.563,34.433 102.346,33.733C101.212,33.029 100.561,31.748 100.663,30.417Z" style="fill:rgb(152,152,152);fill-rule:nonzero;"/>
    </g>
</svg>
