<?xml version="1.0" encoding="UTF-8" standalone="no"?><!DOCTYPE svg PUBLIC "-//W3C//DTD SVG 1.1//EN" "http://www.w3.org/Graphics/SVG/1.1/DTD/svg11.dtd"><svg width="100%" height="100%" viewBox="0 0 477 74" version="1.1" xmlns="http://www.w3.org/2000/svg" xmlns:xlink="http://www.w3.org/1999/xlink" xml:space="preserve" xmlns:serif="http://www.serif.com/" style="fill-rule:evenodd;clip-rule:evenodd;stroke-linejoin:round;stroke-miterlimit:2;"><path d="M61,45.976l0,-23.902l2.478,-5.157l12.392,-9.816c1.652,-1.386 4.13,-0.222 4.13,1.941l0,46.916c0,2.163 -2.533,3.328 -4.185,1.941l-14.815,-11.923Z" style="fill:#9ea5a7;fill-rule:nonzero;"/><path d="M20,0l-20,20l20,0l0,-20Z" style="fill:#9ea5a7;fill-rule:nonzero;"/><rect x="0" y="20" width="20" height="26" style="fill:#9ea5a7;"/><path d="M0,46l0,13.333c0,3.667 3,6.667 6.667,6.667l13.333,0l0,-20l-20,0Z" style="fill:#9ea5a7;fill-rule:nonzero;"/><path d="M63.5,6.59c0,-3.624 -2.936,-6.59 -6.525,-6.59l-36.975,0l0,20l24.5,0l0,13l19,-0.598l0,-25.812Z" style="fill:#9ea5a7;fill-rule:nonzero;"/><path d="M44.5,46l-24.5,0l0,20l36.975,0c3.589,0 6.525,-2.961 6.525,-6.581l0,-26.419l-19,0l0,13Z" style="fill:#9ea5a7;fill-rule:nonzero;"/><path d="M63.5,17l0,31l-19,-15l19,-16Z" style="fill:#9ea5a7;fill-rule:nonzero;"/><g><path d="M344.098,57.204l-5.888,-0l-0,-45.824l5.888,-0l15.936,27.904l0.256,-0l15.936,-27.904l5.888,-0l0,45.824l-5.888,-0l0,-27.2l0.256,-7.68l-0.256,-0l-14.336,25.152l-3.456,-0l-14.336,-25.152l-0.256,-0l0.256,7.68l0,27.2Z" style="fill:#9ea5a7;fill-rule:nonzero;"/><path d="M404.391,58.228c-4.608,-0 -8.405,-1.579 -11.392,-4.736c-2.987,-3.157 -4.48,-7.147 -4.48,-11.968c0,-4.779 1.451,-8.747 4.352,-11.904c2.901,-3.2 6.613,-4.8 11.136,-4.8c4.651,0 8.341,1.515 11.072,4.544c2.773,2.987 4.16,7.189 4.16,12.608l-0.064,0.64l-24.64,0c0.085,3.072 1.109,5.547 3.072,7.424c1.963,1.877 4.309,2.816 7.04,2.816c3.755,0 6.699,-1.877 8.832,-5.632l5.248,2.56c-1.408,2.645 -3.371,4.715 -5.888,6.208c-2.475,1.493 -5.291,2.24 -8.448,2.24Zm-9.408,-20.48l17.984,-0c-0.171,-2.176 -1.067,-3.968 -2.688,-5.376c-1.579,-1.451 -3.712,-2.176 -6.4,-2.176c-2.219,-0 -4.139,0.683 -5.76,2.048c-1.579,1.365 -2.624,3.2 -3.136,5.504Z" style="fill:#9ea5a7;fill-rule:nonzero;"/><path d="M439.016,58.228c-4.608,-0 -8.405,-1.579 -11.392,-4.736c-2.987,-3.157 -4.48,-7.147 -4.48,-11.968c0,-4.779 1.451,-8.747 4.352,-11.904c2.901,-3.2 6.613,-4.8 11.136,-4.8c4.651,0 8.341,1.515 11.072,4.544c2.773,2.987 4.16,7.189 4.16,12.608l-0.064,0.64l-24.64,0c0.085,3.072 1.109,5.547 3.072,7.424c1.963,1.877 4.309,2.816 7.04,2.816c3.755,0 6.699,-1.877 8.832,-5.632l5.248,2.56c-1.408,2.645 -3.371,4.715 -5.888,6.208c-2.475,1.493 -5.291,2.24 -8.448,2.24Zm-9.408,-20.48l17.984,-0c-0.171,-2.176 -1.067,-3.968 -2.688,-5.376c-1.579,-1.451 -3.712,-2.176 -6.4,-2.176c-2.219,-0 -4.139,0.683 -5.76,2.048c-1.579,1.365 -2.624,3.2 -3.136,5.504Z" style="fill:#9ea5a7;fill-rule:nonzero;"/><path d="M470.727,57.716c-2.56,-0 -4.693,-0.789 -6.4,-2.368c-1.664,-1.579 -2.517,-3.776 -2.56,-6.592l-0,-17.536l-5.504,0l-0,-5.376l5.504,0l-0,-9.6l5.888,0l-0,9.6l7.68,0l-0,5.376l-7.68,-0l-0,15.616c-0,2.091 0.405,3.52 1.216,4.288c0.811,0.725 1.728,1.088 2.752,1.088c0.469,0 0.917,-0.043 1.344,-0.128c0.469,-0.128 0.896,-0.277 1.28,-0.448l1.856,5.248c-1.536,0.555 -3.328,0.832 -5.376,0.832Z" style="fill:#9ea5a7;fill-rule:nonzero;"/><path d="M144.078,37.788l0,-6.996l23.415,0c0.239,1.233 0.38,2.7 0.38,4.289c0,5.247 -1.437,11.742 -6.057,16.365c-4.497,4.684 -10.241,7.182 -17.859,7.182c-14.113,-0 -25.977,-11.493 -25.977,-25.609c0,-14.116 11.864,-25.609 25.977,-25.609c7.805,-0 13.362,3.061 17.547,7.059l-4.934,4.935c-2.998,-2.812 -7.056,-4.997 -12.613,-4.997c-10.303,-0 -18.359,8.307 -18.359,18.613c0,10.307 8.056,18.614 18.359,18.614c6.682,0 10.491,-2.686 12.925,-5.122c1.985,-1.984 3.291,-4.831 3.799,-8.723l-16.603,-0.001Z" style="fill:#9ea5a7;fill-rule:nonzero;"/><path d="M203.554,42.14c0,9.494 -7.431,16.49 -16.548,16.49c-9.117,-0 -16.548,-6.996 -16.548,-16.49c0,-9.557 7.431,-16.49 16.548,-16.49c9.118,0 16.548,6.932 16.548,16.49Zm-7.243,0c0,-5.935 -4.308,-9.994 -9.304,-9.994c-4.995,0 -9.305,4.059 -9.305,9.994c0,5.871 4.308,9.993 9.305,9.993c4.996,-0 9.304,-4.122 9.304,-9.993Z" style="fill:#9ea5a7;fill-rule:nonzero;"/><path d="M239.653,42.14c0,9.494 -7.431,16.49 -16.548,16.49c-9.117,-0 -16.548,-6.996 -16.548,-16.49c0,-9.557 7.431,-16.49 16.548,-16.49c9.118,0 16.548,6.932 16.548,16.49Zm-7.243,0c0,-5.935 -4.308,-9.994 -9.304,-9.994c-4.995,0 -9.305,4.059 -9.305,9.994c0,5.871 4.309,9.993 9.305,9.993c4.996,-0 9.304,-4.122 9.304,-9.993Z" style="fill:#9ea5a7;fill-rule:nonzero;"/><path d="M274.255,26.648l0,29.606c0,12.181 -7.181,17.177 -15.674,17.177c-7.993,-0 -12.8,-5.372 -14.612,-9.743l6.307,-2.624c1.124,2.686 3.871,5.871 8.305,5.871c5.433,0 8.805,-3.373 8.805,-9.681l0,-2.374l-0.25,-0c-1.624,1.998 -4.746,3.747 -8.68,3.747c-8.243,-0 -15.799,-7.183 -15.799,-16.427c0,-9.307 7.556,-16.552 15.799,-16.552c3.934,0 7.056,1.749 8.68,3.686l0.25,0l0,-2.686l6.869,0Zm-6.37,15.553c0,-5.809 -3.872,-10.056 -8.805,-10.056c-4.995,-0 -9.18,4.247 -9.18,10.056c0,5.746 4.184,9.932 9.18,9.932c4.934,-0 8.805,-4.186 8.805,-9.932Z" style="fill:#9ea5a7;fill-rule:nonzero;"/><rect x="279.28" y="9.322" width="7.243" height="48.308" style="fill:#9ea5a7;"/><path d="M314.495,47.572l5.62,3.747c-1.812,2.686 -6.182,7.308 -13.738,7.308c-9.367,-0 -16.361,-7.246 -16.361,-16.49c0,-9.806 7.056,-16.49 15.548,-16.49c8.556,0 12.739,6.809 14.114,10.494l0.749,1.874l-22.044,9.119c1.687,3.31 4.31,4.997 7.994,4.997c3.684,0.002 6.245,-1.81 8.118,-4.559Zm-17.298,-5.933l14.736,-6.121c-0.812,-2.06 -3.247,-3.497 -6.12,-3.497c-3.682,-0.001 -8.803,3.247 -8.616,9.618Z" style="fill:#9ea5a7;fill-rule:nonzero;"/></g></svg>