<?xml version="1.0" encoding="UTF-8" standalone="no"?>
<!DOCTYPE svg PUBLIC "-//W3C//DTD SVG 1.1//EN" "http://www.w3.org/Graphics/SVG/1.1/DTD/svg11.dtd">
<svg width="100%" height="100%" viewBox="0 0 477 74" version="1.1" xmlns="http://www.w3.org/2000/svg" xmlns:xlink="http://www.w3.org/1999/xlink" xml:space="preserve" xmlns:serif="http://www.serif.com/" style="fill-rule:evenodd;clip-rule:evenodd;stroke-linejoin:round;stroke-miterlimit:2;">
    <g transform="matrix(1,0,0,1,-8,-15)">
        <path d="M69,60.976L69,37.074L71.478,31.917L83.87,22.101C85.522,20.715 88,21.879 88,24.042L88,70.958C88,73.121 85.467,74.286 83.815,72.899L69,60.976Z" style="fill:rgb(152,152,152);fill-rule:nonzero;"/>
        <path d="M28,15L8,35L28,35L28,15Z" style="fill:rgb(152,152,152);fill-rule:nonzero;"/>
        <rect x="8" y="35" width="20" height="26" style="fill:rgb(152,152,152);fill-rule:nonzero;"/>
        <path d="M8,61L8,74.333C8,78 11,81 14.667,81L28,81L28,61L8,61Z" style="fill:rgb(152,152,152);fill-rule:nonzero;"/>
        <path d="M71.5,21.59C71.5,17.966 68.564,15 64.975,15L28,15L28,35L52.5,35L52.5,48L71.5,47.402L71.5,21.59Z" style="fill:rgb(152,152,152);fill-rule:nonzero;"/>
        <path d="M52.5,61L28,61L28,81L64.975,81C68.564,81 71.5,78.039 71.5,74.419L71.5,48L52.5,48L52.5,61Z" style="fill:rgb(152,152,152);fill-rule:nonzero;"/>
        <path d="M71.5,32L71.5,63L52.5,48L71.5,32Z" style="fill:rgb(152,152,152);fill-rule:nonzero;"/>
        <g>
            <path d="M352.098,72.204L346.21,72.204L346.21,26.38L352.098,26.38L368.034,54.284L368.29,54.284L384.226,26.38L390.114,26.38L390.114,72.204L384.226,72.204L384.226,45.004L384.482,37.324L384.226,37.324L369.89,62.476L366.434,62.476L352.098,37.324L351.842,37.324L352.098,45.004L352.098,72.204Z" style="fill:rgb(152,152,152);fill-rule:nonzero;"/>
            <path d="M412.391,73.228C407.783,73.228 403.986,71.649 400.999,68.492C398.012,65.335 396.519,61.345 396.519,56.524C396.519,51.745 397.97,47.777 400.871,44.62C403.772,41.42 407.484,39.82 412.007,39.82C416.658,39.82 420.348,41.335 423.079,44.364C425.852,47.351 427.239,51.553 427.239,56.972L427.175,57.612L402.535,57.612C402.62,60.684 403.644,63.159 405.607,65.036C407.57,66.913 409.916,67.852 412.647,67.852C416.402,67.852 419.346,65.975 421.479,62.22L426.727,64.78C425.319,67.425 423.356,69.495 420.839,70.988C418.364,72.481 415.548,73.228 412.391,73.228ZM402.983,52.748L420.967,52.748C420.796,50.572 419.9,48.78 418.279,47.372C416.7,45.921 414.567,45.196 411.879,45.196C409.66,45.196 407.74,45.879 406.119,47.244C404.54,48.609 403.495,50.444 402.983,52.748Z" style="fill:rgb(152,152,152);fill-rule:nonzero;"/>
            <path d="M447.016,73.228C442.408,73.228 438.611,71.649 435.624,68.492C432.637,65.335 431.144,61.345 431.144,56.524C431.144,51.745 432.595,47.777 435.496,44.62C438.397,41.42 442.109,39.82 446.632,39.82C451.283,39.82 454.973,41.335 457.704,44.364C460.477,47.351 461.864,51.553 461.864,56.972L461.8,57.612L437.16,57.612C437.245,60.684 438.269,63.159 440.232,65.036C442.195,66.913 444.541,67.852 447.272,67.852C451.027,67.852 453.971,65.975 456.104,62.22L461.352,64.78C459.944,67.425 457.981,69.495 455.464,70.988C452.989,72.481 450.173,73.228 447.016,73.228ZM437.608,52.748L455.592,52.748C455.421,50.572 454.525,48.78 452.904,47.372C451.325,45.921 449.192,45.196 446.504,45.196C444.285,45.196 442.365,45.879 440.744,47.244C439.165,48.609 438.12,50.444 437.608,52.748Z" style="fill:rgb(152,152,152);fill-rule:nonzero;"/>
            <path d="M478.727,72.716C476.167,72.716 474.034,71.927 472.327,70.348C470.663,68.769 469.81,66.572 469.767,63.756L469.767,46.22L464.263,46.22L464.263,40.844L469.767,40.844L469.767,31.244L475.655,31.244L475.655,40.844L483.335,40.844L483.335,46.22L475.655,46.22L475.655,61.836C475.655,63.927 476.06,65.356 476.871,66.124C477.682,66.849 478.599,67.212 479.623,67.212C480.092,67.212 480.54,67.169 480.967,67.084C481.436,66.956 481.863,66.807 482.247,66.636L484.103,71.884C482.567,72.439 480.775,72.716 478.727,72.716Z" style="fill:rgb(152,152,152);fill-rule:nonzero;"/>
            <path d="M152.078,52.788L152.078,45.792L175.493,45.792C175.732,47.025 175.873,48.492 175.873,50.081C175.873,55.328 174.436,61.823 169.816,66.446C165.319,71.13 159.575,73.628 151.957,73.628C137.844,73.628 125.98,62.135 125.98,48.019C125.98,33.903 137.844,22.41 151.957,22.41C159.762,22.41 165.319,25.471 169.504,29.469L164.57,34.404C161.572,31.592 157.514,29.407 151.957,29.407C141.654,29.407 133.598,37.714 133.598,48.02C133.598,58.327 141.654,66.634 151.957,66.634C158.639,66.634 162.448,63.948 164.882,61.512C166.867,59.528 168.173,56.681 168.681,52.789L152.078,52.788Z" style="fill:rgb(152,152,152);fill-rule:nonzero;"/>
            <path d="M211.554,57.14C211.554,66.634 204.123,73.63 195.006,73.63C185.889,73.63 178.458,66.634 178.458,57.14C178.458,47.583 185.889,40.65 195.006,40.65C204.124,40.65 211.554,47.582 211.554,57.14ZM204.311,57.14C204.311,51.205 200.003,47.146 195.007,47.146C190.012,47.146 185.702,51.205 185.702,57.14C185.702,63.011 190.01,67.133 195.007,67.133C200.003,67.133 204.311,63.011 204.311,57.14Z" style="fill:rgb(152,152,152);fill-rule:nonzero;"/>
            <path d="M247.653,57.14C247.653,66.634 240.222,73.63 231.105,73.63C221.988,73.63 214.557,66.634 214.557,57.14C214.557,47.583 221.988,40.65 231.105,40.65C240.223,40.65 247.653,47.582 247.653,57.14ZM240.41,57.14C240.41,51.205 236.102,47.146 231.106,47.146C226.111,47.146 221.801,51.205 221.801,57.14C221.801,63.011 226.11,67.133 231.106,67.133C236.102,67.133 240.41,63.011 240.41,57.14Z" style="fill:rgb(152,152,152);fill-rule:nonzero;"/>
            <path d="M282.255,41.648L282.255,71.254C282.255,83.435 275.074,88.431 266.581,88.431C258.588,88.431 253.781,83.059 251.969,78.688L258.276,76.064C259.4,78.75 262.147,81.935 266.581,81.935C272.014,81.935 275.386,78.562 275.386,72.254L275.386,69.88L275.136,69.88C273.512,71.878 270.39,73.627 266.456,73.627C258.213,73.627 250.657,66.444 250.657,57.2C250.657,47.893 258.213,40.648 266.456,40.648C270.39,40.648 273.512,42.397 275.136,44.334L275.386,44.334L275.386,41.648L282.255,41.648ZM275.885,57.201C275.885,51.392 272.013,47.145 267.08,47.145C262.085,47.145 257.9,51.392 257.9,57.201C257.9,62.947 262.084,67.133 267.08,67.133C272.014,67.133 275.885,62.947 275.885,57.201Z" style="fill:rgb(152,152,152);fill-rule:nonzero;"/>
            <rect x="287.28" y="24.322" width="7.243" height="48.308" style="fill:rgb(152,152,152);fill-rule:nonzero;"/>
            <path d="M322.495,62.572L328.115,66.319C326.303,69.005 321.933,73.627 314.377,73.627C305.01,73.627 298.016,66.381 298.016,57.137C298.016,47.331 305.072,40.647 313.564,40.647C322.12,40.647 326.303,47.456 327.678,51.141L328.427,53.015L306.383,62.134C308.07,65.444 310.693,67.131 314.377,67.131C318.061,67.133 320.622,65.321 322.495,62.572ZM305.197,56.639L319.933,50.518C319.121,48.458 316.686,47.021 313.813,47.021C310.131,47.02 305.01,50.268 305.197,56.639Z" style="fill:rgb(152,152,152);fill-rule:nonzero;"/>
        </g>
    </g>
</svg>
