<?xml version="1.0" encoding="UTF-8" standalone="no"?>
<!DOCTYPE svg PUBLIC "-//W3C//DTD SVG 1.1//EN" "http://www.w3.org/Graphics/SVG/1.1/DTD/svg11.dtd">
<svg width="100%" height="100%" viewBox="0 0 1178 338" version="1.1" xmlns="http://www.w3.org/2000/svg" xmlns:xlink="http://www.w3.org/1999/xlink" xml:space="preserve" xmlns:serif="http://www.serif.com/" style="fill-rule:evenodd;clip-rule:evenodd;stroke-linejoin:round;stroke-miterlimit:2;">
    <g transform="matrix(1,0,0,1,181,-469.638)">
        <path d="M611.7,770.2L570.2,760.3L570.2,593.2L611.7,585.3L611.7,770.2ZM902,730.8C871.9,730.9 847.5,706.6 847.3,676.5L847.3,676.2C847.3,646.6 871.6,622.3 901.9,622.3C932.2,622.3 956.5,646.6 956.5,676.2C956.6,706.3 932.2,730.7 902.2,730.8L902,730.8ZM996.1,676.2C996.1,728.2 954,770.3 902,770.3C850,770.3 807.9,728.2 807.9,676.2C807.9,624.9 850.1,582.8 902.1,582.8C954.1,582.8 996.1,624.9 996.1,676.2ZM462.2,760.4L503,768.9L503,656.4C503,602.4 460.9,583.4 431.9,583.4C412.8,583.4 397,588 383.2,601.8C368.7,588 351.6,582.7 337.8,582.7C317.4,582.7 300.3,591.2 288.4,605.7L288.4,586.6L246.9,594.5L246.9,760.3L288.4,768.8L288.4,655.1C288.4,636.7 301.6,624.2 321.9,624.2C341,624.2 354.8,636.7 354.8,655.1L354.8,760.4L395.6,768.9L395.6,655.1C395.6,636.7 409.4,624.2 429.2,624.2C448.3,624.2 462.1,636.7 462.1,655.1L462.2,760.4ZM776.9,582.8L752.5,586.1C707.1,596.6 677.5,611.1 677.5,661.1L677.5,760.4L719,768.3L719,667C719,644 732.2,633.4 752.6,629.5L777,625.6L776.9,582.8ZM572.2,514.3C562.3,524.4 562.3,540.4 572.2,550.5C582.3,560.9 599,561 609.3,550.9C609.4,550.8 609.6,550.6 609.7,550.5C619.6,540.5 619.6,524.3 609.7,514.3C599.1,504.4 582.7,504.4 572.2,514.3Z" style="fill:rgb(152,152,152);"/>
    </g>
    <g>
        <path d="M73.2,0L264.7,0C305.1,0 337.9,32.8 337.9,73.2L337.9,264.7C337.9,305.1 305.1,337.9 264.7,337.9L73.2,337.9C32.8,337.9 0,305.1 0,264.7L0,73.2C0,32.8 32.8,0 73.2,0ZM234.8,42.2L197.7,42.2L228.6,96.5L160.6,42.2L123.5,42.2L157.5,108.6L86.4,42.2L49.3,42.2L86.4,126.7L49.3,295.7L86.4,295.7L157.5,114.6L123.5,295.7L160.6,295.7L228.6,102.6L197.7,295.7L234.8,295.7L302.8,84.4L234.8,42.2Z" style="fill:rgb(152,152,152);fill-rule:nonzero;"/>
    </g>
</svg>
