<svg width="287" height="64" viewBox="0 0 287 64" fill="none" xmlns="http://www.w3.org/2000/svg">
<path fill-rule="evenodd" clip-rule="evenodd" d="M54.7076 19.8885C56.8467 18.6534 59.582 19.3864 60.817 21.5256L62.7793 24.9243C64.0143 27.0634 63.2814 29.7988 61.1422 31.0339L34.1926 46.5933C33.5344 46.9734 32.7901 47.1793 32.0301 47.1918L23.3905 47.3344C22.6944 47.346 22.0469 46.9791 21.6988 46.3763C21.3507 45.7734 21.3568 45.0294 21.7148 44.4323L26.1582 37.0213C26.549 36.3696 27.0996 35.8278 27.7578 35.4478L54.7076 19.8885ZM57.4972 23.4424C57.3205 23.1368 56.9298 23.0321 56.6242 23.2085L52.6721 25.4902L55.2734 29.9956L59.2256 27.7139C59.5311 27.5375 59.6358 27.1467 59.4594 26.8411L57.4972 23.4424ZM51.9533 31.9124L49.3522 27.4071L29.6746 38.7679C29.5806 38.8221 29.502 38.8995 29.4461 38.9927L26.777 43.4445L31.9669 43.3587C32.0754 43.3571 32.1817 43.3276 32.2758 43.2732L51.9533 31.9124Z" fill="#989898"/>
<path fill-rule="evenodd" clip-rule="evenodd" d="M43.7335 6.4C44.0164 6.4 44.2877 6.51238 44.4878 6.71241C44.6878 6.91247 44.8002 7.18379 44.8002 7.46667L44.8002 19.8285L51.2002 16.1335L51.2002 7.46667C51.2002 3.34507 47.8551 -2.92435e-07 43.7335 -6.52757e-07L22.0333 -2.54985e-06C20.0535 -2.72293e-06 18.1549 0.785064 16.7554 2.1888L2.18899 16.7552C0.785258 18.1547 0.000188982 20.0533 0.000188809 22.0331L0.000185793 56.5333C0.000185619 58.5135 0.786959 60.4126 2.18728 61.8129C3.5876 63.2132 5.48669 64 7.46685 64L43.7335 64C45.7138 64 47.613 63.2132 49.0133 61.8129C50.4135 60.4126 51.2002 58.5135 51.2002 56.5333L51.2002 42.541L44.8002 46.236L44.8002 56.5333C44.8002 57.1221 44.3223 57.6 43.7335 57.6L7.46685 57.6C7.18397 57.6 6.91262 57.4878 6.71251 57.2877C6.5124 57.0876 6.40019 56.8162 6.40019 56.5333L6.40019 25.6L18.1335 25.6C20.1138 25.6 22.013 24.8134 23.4133 23.4131C24.8135 22.0128 25.6002 20.1136 25.6002 18.1333L25.6002 6.4L43.7335 6.4ZM47.575 24L51.2002 21.907L51.2002 24L47.575 24ZM45.6013 40L44.8002 40.4625L44.8002 40L45.6013 40ZM19.2002 8.78933L19.2002 18.1333C19.2002 18.7221 18.7223 19.2 18.1335 19.2L8.78953 19.2L19.2002 8.78933Z" fill="#989898"/>
<path d="M83.9086 20.8565C86.7886 20.8565 89.0179 21.4538 90.5966 22.6485C92.1966 23.8432 92.9966 25.6245 92.9966 27.9925C92.9966 30.4672 92.2073 32.3338 90.6286 33.5925C89.0499 34.8298 86.9379 35.4485 84.2926 35.4485H81.7646V43.0005H77.0606V20.8565H83.9086ZM83.9086 31.9925C85.2739 31.9925 86.3193 31.6832 87.0446 31.0645C87.7699 30.4458 88.1326 29.4218 88.1326 27.9925C88.1326 25.4965 86.7033 24.2485 83.8446 24.2485H81.7646V31.9925H83.9086ZM109.363 34.1365C109.363 34.3498 109.331 34.9365 109.267 35.8965H98.6751C98.8244 37.4325 99.2404 38.5205 99.9231 39.1605C100.606 39.8005 101.534 40.1205 102.707 40.1205C103.432 40.1205 104.115 40.0032 104.755 39.7685C105.395 39.5338 106.088 39.1605 106.835 38.6485L108.723 41.2085C106.824 42.7445 104.68 43.5125 102.291 43.5125C99.6244 43.5125 97.5764 42.7125 96.1471 41.1125C94.7178 39.5125 94.0031 37.3472 94.0031 34.6165C94.0031 32.8885 94.3018 31.3418 94.8991 29.9765C95.5178 28.5898 96.4031 27.5018 97.5551 26.7125C98.7284 25.9232 100.115 25.5285 101.715 25.5285C104.126 25.5285 106.003 26.2858 107.347 27.8005C108.691 29.3152 109.363 31.4272 109.363 34.1365ZM104.851 32.8565C104.851 30.0405 103.838 28.6325 101.811 28.6325C100.872 28.6325 100.136 28.9845 99.6031 29.6885C99.0911 30.3712 98.7818 31.4912 98.6751 33.0485H104.851V32.8565ZM122.124 25.5285C123.617 25.5285 124.78 25.9872 125.612 26.9045C126.444 27.8005 126.86 29.0485 126.86 30.6485V43.0005H122.316V31.4165C122.316 30.4992 122.156 29.8592 121.836 29.4965C121.537 29.1125 121.079 28.9205 120.46 28.9205C119.82 28.9205 119.233 29.1232 118.7 29.5285C118.188 29.9125 117.687 30.4992 117.196 31.2885V43.0005H112.652V26.0405H116.588L116.94 28.1845C117.644 27.3098 118.412 26.6485 119.244 26.2005C120.097 25.7525 121.057 25.5285 122.124 25.5285ZM138.255 25.5285C139.386 25.5285 140.399 25.6992 141.295 26.0405C142.213 26.3605 143.077 26.8725 143.887 27.5765L141.903 30.2645C141.349 29.8378 140.805 29.5285 140.271 29.3365C139.759 29.1445 139.194 29.0485 138.575 29.0485C136.165 29.0485 134.959 30.9045 134.959 34.6165C134.959 36.4938 135.269 37.8378 135.887 38.6485C136.506 39.4592 137.391 39.8645 138.543 39.8645C139.141 39.8645 139.685 39.7792 140.175 39.6085C140.666 39.4165 141.242 39.1072 141.903 38.6805L143.887 41.5285C142.266 42.8512 140.41 43.5125 138.319 43.5125C136.655 43.5125 135.205 43.1498 133.967 42.4245C132.751 41.6992 131.813 40.6752 131.151 39.3525C130.49 38.0085 130.159 36.4405 130.159 34.6485C130.159 32.8565 130.49 31.2778 131.151 29.9125C131.813 28.5258 132.751 27.4485 133.967 26.6805C135.205 25.9125 136.634 25.5285 138.255 25.5285ZM151.009 26.0405V43.0005H146.465V26.0405H151.009ZM148.705 17.3045C149.515 17.3045 150.177 17.5605 150.689 18.0725C151.222 18.5632 151.489 19.1925 151.489 19.9605C151.489 20.7285 151.222 21.3685 150.689 21.8805C150.177 22.3712 149.515 22.6165 148.705 22.6165C147.894 22.6165 147.233 22.3712 146.721 21.8805C146.209 21.3685 145.953 20.7285 145.953 19.9605C145.953 19.1925 146.209 18.5632 146.721 18.0725C147.233 17.5605 147.894 17.3045 148.705 17.3045ZM159.72 43.5125C158.333 43.5125 157.256 43.1178 156.488 42.3285C155.72 41.5178 155.336 40.3765 155.336 38.9045V19.2885L159.88 18.7765V38.7765C159.88 39.5232 160.189 39.8965 160.808 39.8965C161.149 39.8965 161.448 39.8325 161.704 39.7045L162.632 42.9365C161.757 43.3205 160.787 43.5125 159.72 43.5125ZM180.457 20.3445C181.801 20.3445 182.974 20.5685 183.977 21.0165C184.98 21.4432 185.748 22.0405 186.281 22.8085C186.814 23.5765 187.081 24.4405 187.081 25.4005C187.081 26.6378 186.708 27.7365 185.961 28.6965C185.214 29.6352 184.148 30.5418 182.761 31.4165L187.433 35.7685C188.116 34.3178 188.649 32.7178 189.033 30.9685L192.905 32.1205C192.116 34.4672 191.145 36.4832 189.993 38.1685L193.801 41.5605L190.025 43.5125L187.369 40.9525C185.449 42.6592 183.113 43.5125 180.361 43.5125C178.846 43.5125 177.502 43.2565 176.329 42.7445C175.156 42.2325 174.238 41.5178 173.577 40.6005C172.937 39.6618 172.617 38.5738 172.617 37.3365C172.617 36.0352 172.969 34.9045 173.673 33.9445C174.377 32.9845 175.476 32.0245 176.969 31.0645C175.838 29.9765 175.038 29.0485 174.569 28.2805C174.121 27.4912 173.897 26.5952 173.897 25.5925C173.897 24.6325 174.142 23.7578 174.633 22.9685C175.124 22.1792 175.86 21.5498 176.841 21.0805C177.844 20.5898 179.049 20.3445 180.457 20.3445ZM180.521 23.3525C179.817 23.3525 179.262 23.5552 178.857 23.9605C178.473 24.3658 178.281 24.8992 178.281 25.5605C178.281 26.1578 178.43 26.7125 178.729 27.2245C179.028 27.7152 179.54 28.3125 180.265 29.0165C181.097 28.4832 181.716 27.9498 182.121 27.4165C182.526 26.8618 182.729 26.2432 182.729 25.5605C182.729 24.8778 182.526 24.3445 182.121 23.9605C181.737 23.5552 181.204 23.3525 180.521 23.3525ZM179.561 33.5285C178.793 34.0618 178.228 34.6165 177.865 35.1925C177.524 35.7685 177.353 36.4085 177.353 37.1125C177.353 38.0725 177.694 38.8298 178.377 39.3845C179.06 39.9392 179.966 40.2165 181.097 40.2165C182.569 40.2165 183.881 39.7258 185.033 38.7445L179.561 33.5285ZM211.627 20.8565C214.507 20.8565 216.737 21.4538 218.315 22.6485C219.915 23.8432 220.715 25.6245 220.715 27.9925C220.715 30.4672 219.926 32.3338 218.347 33.5925C216.769 34.8298 214.657 35.4485 212.011 35.4485H209.483V43.0005H204.779V20.8565H211.627ZM211.627 31.9925C212.993 31.9925 214.038 31.6832 214.763 31.0645C215.489 30.4458 215.851 29.4218 215.851 27.9925C215.851 25.4965 214.422 24.2485 211.563 24.2485H209.483V31.9925H211.627ZM234.987 38.2965C234.987 38.9578 235.083 39.4485 235.275 39.7685C235.467 40.0672 235.787 40.2912 236.235 40.4405L235.275 43.4485C234.272 43.3632 233.451 43.1285 232.811 42.7445C232.192 42.3605 231.712 41.7632 231.371 40.9525C230.262 42.6592 228.566 43.5125 226.283 43.5125C224.598 43.5125 223.254 43.0325 222.251 42.0725C221.27 41.0912 220.779 39.8218 220.779 38.2645C220.779 36.4085 221.451 34.9898 222.795 34.0085C224.139 33.0272 226.07 32.5365 228.587 32.5365H230.539V31.7045C230.539 30.6592 230.304 29.9338 229.835 29.5285C229.366 29.1232 228.587 28.9205 227.499 28.9205C226.304 28.9205 224.811 29.2192 223.019 29.8165L221.995 26.7765C224.107 25.9445 226.198 25.5285 228.267 25.5285C230.571 25.5285 232.267 26.0298 233.355 27.0325C234.443 28.0138 234.987 29.4858 234.987 31.4485V38.2965ZM227.531 40.2485C228.811 40.2485 229.814 39.6192 230.539 38.3605V35.1285H229.035C226.582 35.1285 225.355 36.0458 225.355 37.8805C225.355 38.6272 225.536 39.2138 225.899 39.6405C226.283 40.0458 226.827 40.2485 227.531 40.2485ZM248.679 25.5285C250.812 25.5285 252.391 26.3178 253.415 27.8965C254.46 29.4538 254.983 31.6512 254.983 34.4885C254.983 36.2165 254.716 37.7632 254.183 39.1285C253.65 40.4938 252.871 41.5712 251.847 42.3605C250.844 43.1285 249.65 43.5125 248.263 43.5125C246.535 43.5125 245.138 42.9045 244.071 41.6885V49.5285L239.527 50.0405V26.0405H243.527L243.751 28.0245C244.391 27.1925 245.138 26.5738 245.991 26.1685C246.866 25.7418 247.762 25.5285 248.679 25.5285ZM246.919 40.1205C249.138 40.1205 250.247 38.2538 250.247 34.5205C250.247 32.4725 250.002 31.0218 249.511 30.1685C249.02 29.3152 248.274 28.8885 247.271 28.8885C246.631 28.8885 246.034 29.0912 245.479 29.4965C244.946 29.8805 244.476 30.4032 244.071 31.0645V38.4565C244.796 39.5658 245.746 40.1205 246.919 40.1205ZM272.926 34.1365C272.926 34.3498 272.894 34.9365 272.83 35.8965H262.238C262.387 37.4325 262.803 38.5205 263.486 39.1605C264.168 39.8005 265.096 40.1205 266.27 40.1205C266.995 40.1205 267.678 40.0032 268.318 39.7685C268.958 39.5338 269.651 39.1605 270.398 38.6485L272.286 41.2085C270.387 42.7445 268.243 43.5125 265.854 43.5125C263.187 43.5125 261.139 42.7125 259.71 41.1125C258.28 39.5125 257.566 37.3472 257.566 34.6165C257.566 32.8885 257.864 31.3418 258.462 29.9765C259.08 28.5898 259.966 27.5018 261.118 26.7125C262.291 25.9232 263.678 25.5285 265.278 25.5285C267.688 25.5285 269.566 26.2858 270.91 27.8005C272.254 29.3152 272.926 31.4272 272.926 34.1365ZM268.414 32.8565C268.414 30.0405 267.4 28.6325 265.374 28.6325C264.435 28.6325 263.699 28.9845 263.166 29.6885C262.654 30.3712 262.344 31.4912 262.238 33.0485H268.414V32.8565ZM284.983 25.5605C285.495 25.5605 286.06 25.6458 286.679 25.8165L285.911 30.2005C285.313 30.0512 284.812 29.9765 284.407 29.9765C283.404 29.9765 282.625 30.3285 282.071 31.0325C281.516 31.7365 281.079 32.8032 280.759 34.2325V43.0005H276.215V26.0405H280.151L280.567 29.3365C280.972 28.1418 281.559 27.2138 282.327 26.5525C283.116 25.8912 284.001 25.5605 284.983 25.5605Z" fill="#989898"/>
</svg>
