<?xml version="1.0" encoding="UTF-8" standalone="no"?><!DOCTYPE svg PUBLIC "-//W3C//DTD SVG 1.1//EN" "http://www.w3.org/Graphics/SVG/1.1/DTD/svg11.dtd"><svg width="100%" height="100%" viewBox="0 0 1427 350" version="1.1" xmlns="http://www.w3.org/2000/svg" xmlns:xlink="http://www.w3.org/1999/xlink" xml:space="preserve" xmlns:serif="http://www.serif.com/" style="fill-rule:evenodd;clip-rule:evenodd;stroke-linejoin:round;stroke-miterlimit:2;"><path d="M261.699,130.9l96.901,0c9.2,0 16.6,7.4 16.6,16.6l-0,88.3c-0,33.409 -27.491,60.9 -60.9,60.9l-0.3,0c-33.409,0 -60.9,-27.491 -60.9,-60.9l-0,-96.2c-0,-0.033 -0.001,-0.067 -0.001,-0.1c-0,-4.718 3.883,-8.6 8.6,-8.6Z" style="fill:#9ea5a7;fill-rule:nonzero;"/><circle cx="327.2" cy="74.2" r="39.3" style="fill:#9ea5a7;"/><circle cx="205" cy="56.7" r="56.7" style="fill:#9ea5a7;"/><path d="M280.7,130.9l-160,0c-9,0.2 -16.2,7.7 -16,16.8l0,100.7c-1.277,53.949 42.052,99.399 96,100.7c53.948,-1.301 97.277,-46.751 96,-100.7l0,-100.7c0.2,-9.1 -7,-16.6 -16,-16.8Z" style="fill:#9ea5a7;fill-rule:nonzero;"/><circle cx="205" cy="56.7" r="56.7" style="fill:#fff;fill-opacity:0.15;"/><path d="M280.7,130.9l-160,0c-9,0.2 -16.2,7.7 -16,16.8l0,100.7c-1.277,53.949 42.052,99.399 96,100.7c53.948,-1.301 97.277,-46.751 96,-100.7l0,-100.7c0.2,-9.1 -7,-16.6 -16,-16.8Z" style="fill:#fff;fill-opacity:0.15;fill-rule:nonzero;"/><path d="M209.4,130.9l-0,141.1c-0.054,8.702 -7.198,15.846 -15.9,15.9l-81.1,0c-5.122,-12.572 -7.737,-26.025 -7.7,-39.6l0,-100.6c-0.2,-9 6.9,-16.5 16,-16.8l88.7,0Z" style="fill-opacity:0.1;fill-rule:nonzero;"/><path d="M200.7,130.9l-0,149.8c-0.054,8.702 -7.198,15.846 -15.9,15.9l-68.2,0c-2.877,-5.591 -5.285,-11.411 -7.2,-17.4c-3.1,-10 -4.6,-20.4 -4.6,-30.9l-0,-100.6c-0.2,-9 6.9,-16.5 16,-16.8l79.9,-0Z" style="fill-opacity:0.1;fill-rule:nonzero;"/><path d="M200.7,130.9l-0,132.4c-0.107,8.736 -7.264,15.893 -16,16l-75.4,0c-3.1,-10 -4.6,-20.4 -4.6,-30.9l-0,-100.7c-0.2,-9 6.9,-16.5 16,-16.8l80,0Z" style="fill-opacity:0.1;fill-rule:nonzero;"/><path d="M191.9,130.9l-0,132.4c-0.107,8.736 -7.264,15.893 -16,16l-66.7,0c-3.1,-10 -4.6,-20.4 -4.6,-30.9l0,-100.7c-0.2,-9 6.9,-16.5 16,-16.8l71.3,0Z" style="fill:#656565;fill-opacity:0.2;fill-rule:nonzero;"/><path d="M209.4,85.8l-0,27.5l-4.4,0.2l-4.4,-0.2c-24.486,-1.919 -45.081,-19.514 -50.8,-43.4l43.6,0c8.74,0 15.946,7.16 16,15.9Z" style="fill-opacity:0.1;fill-rule:nonzero;"/><path d="M200.7,94.5l-0,18.8c-21.21,-1.646 -39.787,-15.076 -48,-34.7l32,0c8.74,0 15.945,7.16 16,15.9Z" style="fill-opacity:0.1;fill-rule:nonzero;"/><path d="M191.9,94.5l-0,17.4c-17.655,-4.177 -32.281,-16.57 -39.3,-33.3l23.3,-0c8.9,-0 16,7.1 16,15.9Z" style="fill-opacity:0.2;fill-rule:nonzero;"/><path d="M16,78.5l160,0c8.777,0 16,7.223 16,16l0,160c0,8.777 -7.223,16 -16,16l-160,0c-8.777,0 -16,-7.223 -16,-16l0,-160c0,-8.777 7.223,-16 16,-16Z" style="fill:#9ea5a7;fill-rule:nonzero;"/><path d="M138.1,139.4l-32.1,0l0,87.1l-20.3,0l0,-87.1l-31.8,0l0,-16.9l84.2,0l-0,16.9Z" style="fill:#fff;fill-rule:nonzero;"/><path d="M537,224.7l-16.4,-0l0,-64.2c0,-5.3 0.3,-11.7 1,-19.3l-0.3,0c-1,4.3 -1.9,7.4 -2.7,9.3l-29.6,74.1l-11.3,-0l-29.7,-73.6c-0.8,-2.2 -1.7,-5.5 -2.6,-9.9l-0.3,0c0.4,4 0.6,10.4 0.6,19.4l0,64l-15.2,0l0,-99.2l23.2,0l26.1,66.1c2,5.1 3.3,8.9 3.9,11.3l0.3,0c1.7,-5.2 3.1,-9.1 4.1,-11.6l26.6,-65.8l22.3,0l0,99.4Zm27.7,-85.7c-2.6,0 -4.9,-0.9 -6.7,-2.6c-1.855,-1.639 -2.883,-4.026 -2.8,-6.5c0.053,-5.065 4.235,-9.202 9.299,-9.202c0.067,-0 0.134,0.001 0.201,0.002c2.7,0 5,0.9 6.9,2.6c1.86,1.679 2.885,4.096 2.8,6.6c0,2.5 -0.9,4.6 -2.8,6.4c-1.851,1.777 -4.334,2.748 -6.9,2.7Zm7.9,85.7l-16,0l0,-70.8l16,0l0,70.8Zm68.7,-3.2c-6.143,3.394 -13.084,5.086 -20.1,4.9c-10.5,0 -19,-3.3 -25.5,-9.9c-6.592,-6.847 -10.1,-16.104 -9.7,-25.6c0,-11.7 3.5,-21 10.4,-28.1c7.372,-7.264 17.463,-11.112 27.8,-10.6c6.5,-0 12.1,1.1 17.1,3.4l0,14.9c-4.505,-3.544 -10.068,-5.48 -15.8,-5.5c-6.295,-0.198 -12.381,2.317 -16.7,6.9c-4.438,4.916 -6.774,11.383 -6.5,18c0,7.3 2,13.1 6.1,17.4c4.336,4.321 10.284,6.642 16.4,6.4c5.8,-0 11.2,-2.1 16.3,-6.2l0,14l0.2,-0Zm54,-52.3c-2.462,-1.687 -5.422,-2.498 -8.4,-2.3c-4.7,-0 -8.7,2.1 -11.9,6.4c-3.457,5.157 -5.142,11.301 -4.8,17.5l0,33.9l-16,-0l0,-70.8l16,-0l0,14.6l0.3,-0c1.6,-5 4,-8.9 7.2,-11.7c3.3,-2.8 6.9,-4.2 10.9,-4.2c2.9,-0 5.1,0.4 6.6,1.3l0,15.3l0.1,-0Zm38.5,57.2c-9.722,0.466 -19.215,-3.121 -26.2,-9.9c-6.687,-7.077 -10.226,-16.573 -9.8,-26.3c0,-11.9 3.4,-21.2 10.2,-27.9c6.8,-6.7 16,-10 27.5,-10c9.628,-0.556 19.052,3.01 25.9,9.8c6.537,7.418 9.882,17.129 9.3,27c0,11.3 -3.3,20.3 -10,27.1c-7.143,7.008 -16.906,10.711 -26.9,10.2Zm0.8,-61.4c-6.3,-0 -11.2,2.2 -14.9,6.6c-3.9,5.2 -5.847,11.61 -5.5,18.1c0,7.4 1.8,13.3 5.5,17.5c3.7,4.3 8.6,6.4 14.8,6.4c6.3,-0 11.2,-2.1 14.6,-6.3c3.698,-5.206 5.499,-11.527 5.1,-17.9c0,-7.8 -1.7,-13.8 -5.1,-18.1c-3.3,-4.2 -8.2,-6.3 -14.5,-6.3Zm45,57.5l0,-14.9c6,4.6 12.6,6.8 19.8,6.8c9.7,-0 14.5,-2.9 14.5,-8.6c0,-1.6 -0.4,-3 -1.2,-4.1c-0.8,-1.1 -1.9,-2.1 -3.4,-3c-1.4,-0.9 -3.1,-1.7 -5,-2.4l-6.4,-2.4c-2.672,-1.075 -5.277,-2.31 -7.8,-3.7c-2.142,-1.17 -4.097,-2.653 -5.8,-4.4c-1.521,-1.62 -2.711,-3.523 -3.5,-5.6c-1.901,-5.359 -1.465,-11.277 1.2,-16.3c1.6,-2.6 3.8,-4.8 6.5,-6.6c2.851,-1.851 5.996,-3.203 9.3,-4c9.393,-2.24 19.243,-1.648 28.3,1.7l0,14c-6.649,-4.495 -14.839,-6.119 -22.7,-4.5c-1.6,0.4 -3,1 -4.2,1.7c-1.133,0.632 -2.068,1.567 -2.7,2.7c-1.367,2.237 -1.367,5.063 0,7.3c0.6,1.1 1.6,2 2.9,2.8c1.3,0.8 2.8,1.5 4.6,2.2l6.1,2.2c3,1.2 5.8,2.5 8.2,3.8c2.4,1.3 4.5,2.8 6.2,4.4c1.7,1.6 3,3.5 3.9,5.7c0.9,2.1 1.4,4.7 1.4,7.6c0,3.6 -0.8,6.7 -2.5,9.4c-1.672,2.671 -3.929,4.928 -6.6,6.6c-2.8,1.8 -6,3.1 -9.6,3.9c-3.6,0.9 -7.4,1.3 -11.4,1.3c-7.7,0.3 -14.4,-1 -20.1,-3.6Zm94,3.9c-9.722,0.466 -19.215,-3.121 -26.2,-9.9c-6.687,-7.077 -10.226,-16.573 -9.8,-26.3c0,-11.9 3.4,-21.2 10.2,-27.9c6.8,-6.7 16,-10 27.5,-10c9.628,-0.556 19.052,3.01 25.9,9.8c6.537,7.418 9.882,17.129 9.3,27c0,11.3 -3.3,20.3 -10,27.1c-7.163,6.977 -16.912,10.674 -26.9,10.2Zm0.7,-61.4c-6.3,0 -11.2,2.2 -14.9,6.6c-3.9,5.2 -5.847,11.61 -5.5,18.1c0,7.4 1.8,13.3 5.5,17.5c3.7,4.3 8.6,6.4 14.8,6.4c6.3,0 11.2,-2.1 14.6,-6.3c3.698,-5.206 5.499,-11.527 5.1,-17.9c0,-7.8 -1.7,-13.8 -5.1,-18.1c-3.3,-4.2 -8.2,-6.3 -14.5,-6.3Zm87.2,-32.1c-2.261,-1.261 -4.811,-1.916 -7.4,-1.9c-7.8,0 -11.7,4.4 -11.7,13.2l0,9.6l16.5,0l0,12.6l-16.4,0l0,58.2l-16,0l0,-58.2l-12.1,0l0,-12.6l12.1,0l0,-11.5c0,-7.5 2.4,-13.4 7.3,-17.7c4.9,-4.3 11,-6.5 18.3,-6.5c4,0 7.1,0.4 9.4,1.3l0,13.5Zm45.7,91c-3.89,1.755 -8.14,2.577 -12.4,2.4c-13.7,0 -20.6,-6.6 -20.6,-19.8l0,-40l-11.8,0l0,-12.6l11.8,0l0,-16.4l16,-4.6l0,21l16.9,0l0,12.6l-16.9,0l0,35.4c0,4.2 0.8,7.2 2.3,9c1.5,1.8 4.1,2.7 7.6,2.7c2.57,0.056 5.09,-0.794 7.1,-2.4l0,12.7Zm112.3,-84.4l-28.5,0l0,85.2l-16.5,0l0,-85.2l-28.4,0l0,-14l73.4,0l0,14Zm56.1,54.1l-48.4,0c0.2,6.5 2.2,11.6 6.1,15.1c3.8,3.6 9.1,5.3 15.9,5.3c7.48,0.015 14.77,-2.369 20.8,-6.8l0,12.9c-6.5,4.1 -15,6.1 -25.6,6.1c-9.17,0.5 -18.11,-3.005 -24.5,-9.6c-6.32,-7.563 -9.5,-17.265 -8.9,-27.1c0,-11 3.3,-20 9.8,-26.9c6.22,-6.803 15.08,-10.597 24.3,-10.4c8.52,-0.493 16.81,2.935 22.5,9.3c5.3,6.2 8,14.9 8,25.9l0,6.2Zm-15.6,-11.3c0,-5.8 -1.4,-10.2 -4.1,-13.5c-2.76,-3.22 -6.86,-4.993 -11.1,-4.8c-4.6,0 -8.5,1.7 -11.7,5c-3.33,3.651 -5.4,8.281 -5.9,13.2l32.8,0l0,0.1Zm82.1,42.4l-15.6,0l0,-11.1l-0.3,0c-4.11,8.01 -12.5,12.963 -21.5,12.7c-7,0 -12.4,-1.9 -16.4,-5.7c-3.98,-3.949 -6.12,-9.396 -5.9,-15c0,-13.4 7.7,-21.2 23.1,-23.4l21,-3c0,-10.1 -4.8,-15.1 -14.4,-15.1c-8.4,0 -16,2.9 -22.8,8.7l0,-14c7.88,-4.504 16.83,-6.786 25.9,-6.6c17.9,0 26.8,8.8 26.8,26.4l0,46.1l0.1,0Zm-15.5,-34.8l-14.9,2.1c-4.6,0.6 -8.1,1.7 -10.4,3.4c-2.3,1.6 -3.5,4.5 -3.5,8.6c0,3 1.1,5.5 3.2,7.4c2.1,1.9 5,2.9 8.6,2.9c4.9,0 8.9,-1.7 12.1,-5.2c3.2,-3.4 4.8,-7.8 4.8,-13l0,-6.2l0.1,0Zm138,34.8l-16,0l0,-38.6c0,-7.4 -1,-12.8 -3.1,-16.1c-2.1,-3.3 -5.6,-5 -10.6,-5c-4.2,0 -7.8,2.1 -10.7,6.3c-3,4.455 -4.53,9.733 -4.4,15.1l0,38.3l-16.1,0l0,-39.9c0,-13.2 -4.7,-19.8 -14,-19.8c-4.3,0 -7.9,2 -10.7,5.9c-2.8,4 -4.2,9.1 -4.2,15.4l0,38.3l-16,0l0,-70.8l16,0l0,11.2l0.3,0c4.38,-8.164 13.04,-13.17 22.3,-12.9c9.24,-0.197 17.55,5.781 20.3,14.6c5.3,-9.8 13.1,-14.7 23.5,-14.7c15.6,0 23.4,9.6 23.4,28.8l0,43.9Zm12.2,-2.2l0,-14.9c6,4.6 12.6,6.8 19.8,6.8c9.7,0 14.5,-2.9 14.5,-8.6c0,-1.6 -0.4,-3 -1.2,-4.1c-0.8,-1.1 -1.9,-2.1 -3.4,-3c-1.4,-0.9 -3.1,-1.7 -5,-2.4l-6.4,-2.4c-2.67,-1.075 -5.28,-2.31 -7.8,-3.7c-2.14,-1.17 -4.1,-2.653 -5.8,-4.4c-1.52,-1.62 -2.71,-3.523 -3.5,-5.6c-1.9,-5.359 -1.46,-11.277 1.2,-16.3c1.6,-2.6 3.8,-4.8 6.5,-6.6c2.85,-1.851 6,-3.203 9.3,-4c9.39,-2.24 19.24,-1.648 28.3,1.7l0,14c-6.65,-4.495 -14.84,-6.119 -22.7,-4.5c-1.6,0.4 -3,1 -4.2,1.7c-1.13,0.632 -2.07,1.567 -2.7,2.7c-1.37,2.237 -1.37,5.063 0,7.3c0.6,1.1 1.6,2 2.9,2.8c1.3,0.8 2.8,1.5 4.6,2.2l6.1,2.2c3,1.2 5.8,2.5 8.2,3.8c2.4,1.3 4.5,2.8 6.2,4.4c1.7,1.6 3,3.5 3.9,5.7c0.9,2.1 1.4,4.7 1.4,7.6c0,3.6 -0.8,6.7 -2.5,9.4c-1.67,2.671 -3.93,4.928 -6.6,6.6c-2.8,1.8 -6,3.1 -9.6,3.9c-3.6,0.9 -7.4,1.3 -11.4,1.3c-7.7,0.3 -14.5,-1 -20.1,-3.6Z" style="fill:#9ea5a7;fill-rule:nonzero;"/></svg>