<?xml version="1.0" encoding="UTF-8" standalone="no"?>
<!DOCTYPE svg PUBLIC "-//W3C//DTD SVG 1.1//EN" "http://www.w3.org/Graphics/SVG/1.1/DTD/svg11.dtd">
<svg width="100%" height="100%" viewBox="0 0 1427 350" version="1.1" xmlns="http://www.w3.org/2000/svg" xmlns:xlink="http://www.w3.org/1999/xlink" xml:space="preserve" xmlns:serif="http://www.serif.com/" style="fill-rule:evenodd;clip-rule:evenodd;stroke-linejoin:round;stroke-miterlimit:2;">
    <g transform="matrix(1,0,0,1,-5.8,0)">
        <path d="M267.499,130.9L364.4,130.9C373.6,130.9 381,138.3 381,147.5L381,235.8C381,269.209 353.509,296.7 320.1,296.7L319.8,296.7C286.391,296.7 258.9,269.209 258.9,235.8L258.9,139.6C258.9,139.567 258.899,139.533 258.899,139.5C258.899,134.782 262.782,130.9 267.499,130.9Z" style="fill:rgb(152,152,152);fill-rule:nonzero;"/>
        <circle cx="333" cy="74.2" r="39.3" style="fill:rgb(152,152,152);"/>
        <circle cx="210.8" cy="56.7" r="56.7" style="fill:rgb(173,173,173);"/>
        <path d="M286.5,130.9L126.5,130.9C117.5,131.1 110.3,138.6 110.5,147.7L110.5,248.4C109.223,302.349 152.552,347.799 206.5,349.1C260.448,347.799 303.777,302.349 302.5,248.4L302.5,147.7C302.7,138.6 295.5,131.1 286.5,130.9Z" style="fill:rgb(173,173,173);fill-rule:nonzero;"/>
        <path d="M215.2,130.9L215.2,272C215.146,280.702 208.002,287.846 199.3,287.9L118.2,287.9C113.078,275.328 110.463,261.875 110.5,248.3L110.5,147.7C110.3,138.7 117.4,131.2 126.5,130.9L215.2,130.9Z" style="fill:rgb(101,101,101);fill-opacity:0.2;fill-rule:nonzero;"/>
        <path d="M206.5,130.9L206.5,280.7C206.446,289.402 199.302,296.546 190.6,296.6L122.4,296.6C119.523,291.009 117.115,285.189 115.2,279.2C112.1,269.2 110.6,258.8 110.6,248.3L110.6,147.7C110.4,138.7 117.5,131.2 126.6,130.9L206.5,130.9Z" style="fill:rgb(101,101,101);fill-opacity:0.2;fill-rule:nonzero;"/>
        <path d="M206.5,130.9L206.5,263.3C206.393,272.036 199.236,279.193 190.5,279.3L115.1,279.3C112,269.3 110.5,258.9 110.5,248.4L110.5,147.7C110.3,138.7 117.4,131.2 126.5,130.9L206.5,130.9Z" style="fill:rgb(101,101,101);fill-opacity:0.2;fill-rule:nonzero;"/>
        <path d="M197.7,130.9L197.7,263.3C197.593,272.036 190.436,279.193 181.7,279.3L115,279.3C111.9,269.3 110.4,258.9 110.4,248.4L110.4,147.7C110.2,138.7 117.3,131.2 126.4,130.9L197.7,130.9Z" style="fill:rgb(101,101,101);fill-opacity:0.2;fill-rule:nonzero;"/>
        <path d="M215.2,85.8L215.2,113.3L210.8,113.5L206.4,113.3C181.914,111.381 161.319,93.786 155.6,69.9L199.1,69.9C199.133,69.9 199.167,69.9 199.2,69.9C207.94,69.9 215.146,77.06 215.2,85.8Z" style="fill:rgb(101,101,101);fill-opacity:0.2;fill-rule:nonzero;"/>
        <path d="M206.5,94.5L206.5,113.3C185.29,111.654 166.713,98.224 158.5,78.6L190.5,78.6C199.24,78.6 206.445,85.76 206.5,94.5Z" style="fill:rgb(101,101,101);fill-opacity:0.2;fill-rule:nonzero;"/>
        <path d="M197.7,94.5L197.7,111.9C180.045,107.723 165.419,95.33 158.4,78.6L181.7,78.6C190.6,78.6 197.7,85.7 197.7,94.5Z" style="fill-opacity:0.2;fill-rule:nonzero;"/>
        <path d="M21.8,78.5L181.8,78.5C190.577,78.5 197.8,85.723 197.8,94.5L197.8,254.5C197.8,263.277 190.577,270.5 181.8,270.5L21.8,270.5C13.023,270.5 5.8,263.277 5.8,254.5L5.8,94.5C5.8,85.723 13.023,78.5 21.8,78.5Z" style="fill:rgb(152,152,152);fill-rule:nonzero;"/>
        <path d="M143.9,139.4L111.8,139.4L111.8,226.5L91.5,226.5L91.5,139.4L59.7,139.4L59.7,122.5L143.9,122.5L143.9,139.4Z" style="fill:white;fill-rule:nonzero;"/>
        <path d="M542.8,224.7L526.4,224.7L526.4,160.5C526.4,155.2 526.7,148.8 527.4,141.2L527.1,141.2C526.1,145.5 525.2,148.6 524.4,150.5L494.8,224.6L483.5,224.6L453.8,151C453,148.8 452.1,145.5 451.2,141.1L450.9,141.1C451.3,145.1 451.5,151.5 451.5,160.5L451.5,224.5L436.3,224.5L436.3,125.3L459.5,125.3L485.6,191.4C487.6,196.5 488.9,200.3 489.5,202.7L489.8,202.7C491.5,197.5 492.9,193.6 493.9,191.1L520.5,125.3L542.8,125.3L542.8,224.7ZM570.5,139C567.9,139 565.6,138.1 563.8,136.4C561.945,134.761 560.917,132.374 561,129.9C561.053,124.835 565.235,120.698 570.299,120.698C570.366,120.698 570.433,120.699 570.5,120.7C573.2,120.7 575.5,121.6 577.4,123.3C579.26,124.979 580.285,127.396 580.2,129.9C580.2,132.4 579.3,134.5 577.4,136.3C575.549,138.077 573.066,139.048 570.5,139ZM578.4,224.7L562.4,224.7L562.4,153.9L578.4,153.9L578.4,224.7ZM647.1,221.5C640.957,224.894 634.016,226.586 627,226.4C616.5,226.4 608,223.1 601.5,216.5C594.908,209.653 591.4,200.396 591.8,190.9C591.8,179.2 595.3,169.9 602.2,162.8C609.572,155.536 619.663,151.688 630,152.2C636.5,152.2 642.1,153.3 647.1,155.6L647.1,170.5C642.595,166.956 637.032,165.02 631.3,165C625.005,164.802 618.919,167.317 614.6,171.9C610.162,176.816 607.826,183.283 608.1,189.9C608.1,197.2 610.1,203 614.2,207.3C618.536,211.621 624.484,213.942 630.6,213.7C636.4,213.7 641.8,211.6 646.9,207.5L646.9,221.5L647.1,221.5ZM701.1,169.2C698.638,167.513 695.678,166.702 692.7,166.9C688,166.9 684,169 680.8,173.3C677.343,178.457 675.658,184.601 676,190.8L676,224.7L660,224.7L660,153.9L676,153.9L676,168.5L676.3,168.5C677.9,163.5 680.3,159.6 683.5,156.8C686.8,154 690.4,152.6 694.4,152.6C697.3,152.6 699.5,153 701,153.9L701,169.2L701.1,169.2ZM739.6,226.4C729.878,226.866 720.385,223.279 713.4,216.5C706.713,209.423 703.174,199.927 703.6,190.2C703.6,178.3 707,169 713.8,162.3C720.6,155.6 729.8,152.3 741.3,152.3C750.928,151.744 760.352,155.31 767.2,162.1C773.737,169.518 777.082,179.229 776.5,189.1C776.5,200.4 773.2,209.4 766.5,216.2C759.357,223.208 749.594,226.911 739.6,226.4ZM740.4,165C734.1,165 729.2,167.2 725.5,171.6C721.6,176.8 719.653,183.21 720,189.7C720,197.1 721.8,203 725.5,207.2C729.2,211.5 734.1,213.6 740.3,213.6C746.6,213.6 751.5,211.5 754.9,207.3C758.598,202.094 760.399,195.773 760,189.4C760,181.6 758.3,175.6 754.9,171.3C751.6,167.1 746.7,165 740.4,165ZM785.4,222.5L785.4,207.6C791.4,212.2 798,214.4 805.2,214.4C814.9,214.4 819.7,211.5 819.7,205.8C819.7,204.2 819.3,202.8 818.5,201.7C817.7,200.6 816.6,199.6 815.1,198.7C813.7,197.8 812,197 810.1,196.3L803.7,193.9C801.028,192.825 798.423,191.59 795.9,190.2C793.758,189.03 791.803,187.547 790.1,185.8C788.579,184.18 787.389,182.277 786.6,180.2C784.699,174.841 785.135,168.923 787.8,163.9C789.4,161.3 791.6,159.1 794.3,157.3C797.151,155.449 800.296,154.097 803.6,153.3C812.993,151.06 822.843,151.652 831.9,155L831.9,169C825.251,164.505 817.061,162.881 809.2,164.5C807.6,164.9 806.2,165.5 805,166.2C803.867,166.832 802.932,167.767 802.3,168.9C800.933,171.137 800.933,173.963 802.3,176.2C802.9,177.3 803.9,178.2 805.2,179C806.5,179.8 808,180.5 809.8,181.2L815.9,183.4C818.9,184.6 821.7,185.9 824.1,187.2C826.5,188.5 828.6,190 830.3,191.6C832,193.2 833.3,195.1 834.2,197.3C835.1,199.4 835.6,202 835.6,204.9C835.6,208.5 834.8,211.6 833.1,214.3C831.428,216.971 829.171,219.228 826.5,220.9C823.7,222.7 820.5,224 816.9,224.8C813.3,225.7 809.5,226.1 805.5,226.1C797.8,226.4 791.1,225.1 785.4,222.5ZM879.4,226.4C869.678,226.866 860.185,223.279 853.2,216.5C846.513,209.423 842.974,199.927 843.4,190.2C843.4,178.3 846.8,169 853.6,162.3C860.4,155.6 869.6,152.3 881.1,152.3C890.728,151.744 900.152,155.31 907,162.1C913.537,169.518 916.882,179.229 916.3,189.1C916.3,200.4 913,209.4 906.3,216.2C899.137,223.177 889.388,226.874 879.4,226.4ZM880.1,165C873.8,165 868.9,167.2 865.2,171.6C861.3,176.8 859.353,183.21 859.7,189.7C859.7,197.1 861.5,203 865.2,207.2C868.9,211.5 873.8,213.6 880,213.6C886.3,213.6 891.2,211.5 894.6,207.3C898.298,202.094 900.099,195.773 899.7,189.4C899.7,181.6 898,175.6 894.6,171.3C891.3,167.1 886.4,165 880.1,165ZM967.3,132.9C965.039,131.639 962.489,130.984 959.9,131C952.1,131 948.2,135.4 948.2,144.2L948.2,153.8L964.7,153.8L964.7,166.4L948.3,166.4L948.3,224.6L932.3,224.6L932.3,166.4L920.2,166.4L920.2,153.8L932.3,153.8L932.3,142.3C932.3,134.8 934.7,128.9 939.6,124.6C944.5,120.3 950.6,118.1 957.9,118.1C961.9,118.1 965,118.5 967.3,119.4L967.3,132.9ZM1013,223.9C1009.11,225.655 1004.86,226.477 1000.6,226.3C986.9,226.3 980,219.7 980,206.5L980,166.5L968.2,166.5L968.2,153.9L980,153.9L980,137.5L996,132.9L996,153.9L1012.9,153.9L1012.9,166.5L996,166.5L996,201.9C996,206.1 996.8,209.1 998.3,210.9C999.8,212.7 1002.4,213.6 1005.9,213.6C1008.47,213.656 1010.99,212.806 1013,211.2L1013,223.9ZM1125.3,139.5L1096.8,139.5L1096.8,224.7L1080.3,224.7L1080.3,139.5L1051.9,139.5L1051.9,125.5L1125.3,125.5L1125.3,139.5ZM1181.4,193.6L1133,193.6C1133.2,200.1 1135.2,205.2 1139.1,208.7C1142.9,212.3 1148.2,214 1155,214C1162.48,214.015 1169.77,211.631 1175.8,207.2L1175.8,220.1C1169.3,224.2 1160.8,226.2 1150.2,226.2C1141.03,226.7 1132.09,223.195 1125.7,216.6C1119.38,209.037 1116.2,199.335 1116.8,189.5C1116.8,178.5 1120.1,169.5 1126.6,162.6C1132.82,155.797 1141.68,152.003 1150.9,152.2C1159.42,151.707 1167.71,155.135 1173.4,161.5C1178.7,167.7 1181.4,176.4 1181.4,187.4L1181.4,193.6ZM1165.8,182.3C1165.8,176.5 1164.4,172.1 1161.7,168.8C1158.94,165.58 1154.84,163.807 1150.6,164C1146,164 1142.1,165.7 1138.9,169C1135.57,172.651 1133.5,177.281 1133,182.2L1165.8,182.2L1165.8,182.3ZM1247.9,224.7L1232.3,224.7L1232.3,213.6L1232,213.6C1227.89,221.61 1219.5,226.563 1210.5,226.3C1203.5,226.3 1198.1,224.4 1194.1,220.6C1190.12,216.651 1187.98,211.204 1188.2,205.6C1188.2,192.2 1195.9,184.4 1211.3,182.2L1232.3,179.2C1232.3,169.1 1227.5,164.1 1217.9,164.1C1209.5,164.1 1201.9,167 1195.1,172.8L1195.1,158.8C1202.98,154.296 1211.93,152.014 1221,152.2C1238.9,152.2 1247.8,161 1247.8,178.6L1247.8,224.7L1247.9,224.7ZM1232.4,189.9L1217.5,192C1212.9,192.6 1209.4,193.7 1207.1,195.4C1204.8,197 1203.6,199.9 1203.6,204C1203.6,207 1204.7,209.5 1206.8,211.4C1208.9,213.3 1211.8,214.3 1215.4,214.3C1220.3,214.3 1224.3,212.6 1227.5,209.1C1230.7,205.7 1232.3,201.3 1232.3,196.1L1232.3,189.9L1232.4,189.9ZM1370.4,224.7L1354.4,224.7L1354.4,186.1C1354.4,178.7 1353.4,173.3 1351.3,170C1349.2,166.7 1345.7,165 1340.7,165C1336.5,165 1332.9,167.1 1330,171.3C1327,175.755 1325.47,181.033 1325.6,186.4L1325.6,224.7L1309.5,224.7L1309.5,184.8C1309.5,171.6 1304.8,165 1295.5,165C1291.2,165 1287.6,167 1284.8,170.9C1282,174.9 1280.6,180 1280.6,186.3L1280.6,224.6L1264.6,224.6L1264.6,153.8L1280.6,153.8L1280.6,165L1280.9,165C1285.28,156.836 1293.94,151.83 1303.2,152.1C1312.44,151.903 1320.75,157.881 1323.5,166.7C1328.8,156.9 1336.6,152 1347,152C1362.6,152 1370.4,161.6 1370.4,180.8L1370.4,224.7ZM1382.6,222.5L1382.6,207.6C1388.6,212.2 1395.2,214.4 1402.4,214.4C1412.1,214.4 1416.9,211.5 1416.9,205.8C1416.9,204.2 1416.5,202.8 1415.7,201.7C1414.9,200.6 1413.8,199.6 1412.3,198.7C1410.9,197.8 1409.2,197 1407.3,196.3L1400.9,193.9C1398.23,192.825 1395.62,191.59 1393.1,190.2C1390.96,189.03 1389,187.547 1387.3,185.8C1385.78,184.18 1384.59,182.277 1383.8,180.2C1381.9,174.841 1382.34,168.923 1385,163.9C1386.6,161.3 1388.8,159.1 1391.5,157.3C1394.35,155.449 1397.5,154.097 1400.8,153.3C1410.19,151.06 1420.04,151.652 1429.1,155L1429.1,169C1422.45,164.505 1414.26,162.881 1406.4,164.5C1404.8,164.9 1403.4,165.5 1402.2,166.2C1401.07,166.832 1400.13,167.767 1399.5,168.9C1398.13,171.137 1398.13,173.963 1399.5,176.2C1400.1,177.3 1401.1,178.2 1402.4,179C1403.7,179.8 1405.2,180.5 1407,181.2L1413.1,183.4C1416.1,184.6 1418.9,185.9 1421.3,187.2C1423.7,188.5 1425.8,190 1427.5,191.6C1429.2,193.2 1430.5,195.1 1431.4,197.3C1432.3,199.4 1432.8,202 1432.8,204.9C1432.8,208.5 1432,211.6 1430.3,214.3C1428.63,216.971 1426.37,219.228 1423.7,220.9C1420.9,222.7 1417.7,224 1414.1,224.8C1410.5,225.7 1406.7,226.1 1402.7,226.1C1395,226.4 1388.2,225.1 1382.6,222.5Z" style="fill:rgb(152,152,152);fill-rule:nonzero;"/>
    </g>
</svg>
