<?xml version="1.0" encoding="UTF-8" standalone="no"?><!DOCTYPE svg PUBLIC "-//W3C//DTD SVG 1.1//EN" "http://www.w3.org/Graphics/SVG/1.1/DTD/svg11.dtd"><svg width="100%" height="100%" viewBox="0 0 1372 437" version="1.1" xmlns="http://www.w3.org/2000/svg" xmlns:xlink="http://www.w3.org/1999/xlink" xml:space="preserve" xmlns:serif="http://www.serif.com/" style="fill-rule:evenodd;clip-rule:evenodd;stroke-linejoin:round;stroke-miterlimit:2;"><g><g><path d="M841.901,258.4c-22.3,22.2 -58.3,22.1 -80.5,-0.1c-22.1,-22.2 -22.1,-58.2 0,-80.4c22.2,-22.3 58.2,-22.3 80.5,-0.1l0.1,0.1c22.3,22.2 22.2,58.3 -0.1,80.5Zm-40.1,-135.1l-0.1,0c-52.4,0 -94.8,42.5 -94.8,94.8c0,52.4 42.4,94.9 94.8,94.9c52.4,0 94.9,-42.4 94.9,-94.8c0,-52.4 -42.4,-94.9 -94.8,-94.9Z" style="fill:#9ea5a7;fill-rule:nonzero;"/><path d="M687.901,275.6l-9.5,-0.5l-85.4,-0l113.9,-113.9l-0.5,-9.5c-0.4,-15.3 -12.7,-27.6 -28,-28l-9.5,-0.5l-142.3,-0l0.5,9.5c0.7,15.1 12.8,27.3 28,28l9.5,0.5l85.4,-0l-113.9,113.9l0.5,9.5c0.5,15.2 12.8,27.5 28,28l9.5,0.5l142.3,-0l-0.5,-9.5c-1.3,-15.7 -12.4,-27.1 -28,-28Z" style="fill:#9ea5a7;fill-rule:nonzero;"/><path d="M1295.2,123.3c-21.8,0 -42.5,9.4 -56.9,25.7c-25.2,-28.6 -67.8,-34.1 -99.4,-12.7c-7.3,-8.3 -23.9,-13 -33.4,-13l0,189.8l9.5,-0.5c15.8,-1 27.4,-12.2 28,-28l0.5,-9.5l0,-66.4l0.5,-9.5c0,-6.6 1.7,-13.1 4.7,-19c10.4,-18.1 33.6,-24.3 51.8,-13.8c5.7,3.3 10.5,8.1 13.8,13.8l-0.1,-0c3.1,5.9 4.7,12.4 4.7,19l0.5,9.5l0,66.4l0.5,9.5c0.6,15.2 12.7,27.4 27.9,28l9.5,0.5l0,-104.4l0.5,-9.5c0,-6.7 1.6,-13.2 4.7,-19.1c10.5,-18.1 33.8,-24.3 51.9,-13.7c5.7,3.3 10.5,8.1 13.8,13.8c3,5.9 4.6,12.4 4.6,19l0.5,9.5l0,66.4l0.5,9.5c0.5,15.2 12.7,27.4 27.9,28l9.5,0.5l0,-113.9c-0.1,-41.9 -34.1,-75.9 -76,-75.9Z" style="fill:#9ea5a7;fill-rule:nonzero;"/><path d="M1041.2,258.4c-22.3,22.2 -58.3,22.1 -80.5,-0.1c-22.1,-22.2 -22.1,-58.2 0,-80.4c22.2,-22.3 58.2,-22.3 80.5,-0.1l0.1,0.1c22.3,22.2 22.2,58.3 -0.1,80.5Zm26.9,-107.3c-17.8,-17.8 -41.9,-27.8 -67.1,-27.8c-25.2,0 -49.3,10 -67.1,27.8c-37,37.1 -37,97.2 0.1,134.2c37.1,37 97.2,37 134.2,-0.1c37.1,-37 37,-97.1 -0.1,-134.1Z" style="fill:#9ea5a7;fill-rule:nonzero;"/></g><path d="M218.201,0c120.508,0 218.2,97.691 218.2,218.2c0,120.508 -97.692,218.2 -218.2,218.2c-120.509,-0 -218.201,-97.692 -218.201,-218.2c0,-120.509 97.692,-218.2 218.201,-218.2Zm66.4,189.9l61.7,-45.1c5.4,-4.4 9.5,-3.4 9.5,4.7l0,137.5c0,9.1 -5.1,8.1 -9.5,4.7l-61.7,-45.1l0,-56.7Zm-208.8,-40l0,102.4c0.099,23.2 19,41.9 42.2,41.8l149.5,0c4.2,0 7.6,-3.4 7.7,-7.6l0,-102.5c-0.1,-23.2 -19,-41.9 -42.201,-41.8l-149.499,0c-4.2,0.1 -7.601,3.4 -7.7,7.7Z" style="fill:#9ea5a7;"/></g></svg>