<?xml version="1.0" encoding="UTF-8" standalone="no"?>
<!DOCTYPE svg PUBLIC "-//W3C//DTD SVG 1.1//EN" "http://www.w3.org/Graphics/SVG/1.1/DTD/svg11.dtd">
<svg width="100%" height="100%" viewBox="0 0 1372 437" version="1.1" xmlns="http://www.w3.org/2000/svg" xmlns:xlink="http://www.w3.org/1999/xlink" xml:space="preserve" xmlns:serif="http://www.serif.com/" style="fill-rule:evenodd;clip-rule:evenodd;stroke-linejoin:round;stroke-miterlimit:2;">
    <g transform="matrix(1,0,0,1,-23.799,-23.8)">
        <g>
            <path d="M865.7,282.2C843.4,304.4 807.4,304.3 785.2,282.1C763.1,259.9 763.1,223.9 785.2,201.7C807.4,179.4 843.4,179.4 865.7,201.6L865.8,201.7C888.1,223.9 888,260 865.7,282.2ZM825.6,147.1L825.5,147.1C773.1,147.1 730.7,189.6 730.7,241.9C730.7,294.3 773.1,336.8 825.5,336.8C877.9,336.8 920.4,294.4 920.4,242C920.4,189.6 878,147.1 825.6,147.1Z" style="fill:rgb(152,152,152);fill-rule:nonzero;"/>
            <path d="M711.7,299.4L702.2,298.9L616.8,298.9L730.7,185L730.2,175.5C729.8,160.2 717.5,147.9 702.2,147.5L692.7,147L550.4,147L550.9,156.5C551.6,171.6 563.7,183.8 578.9,184.5L588.4,185L673.8,185L559.9,298.9L560.4,308.4C560.9,323.6 573.2,335.9 588.4,336.4L597.9,336.9L740.2,336.9L739.7,327.4C738.4,311.7 727.3,300.3 711.7,299.4Z" style="fill:rgb(152,152,152);fill-rule:nonzero;"/>
            <path d="M1319,147.1C1297.2,147.1 1276.5,156.5 1262.1,172.8C1236.9,144.2 1194.3,138.7 1162.7,160.1C1155.4,151.8 1138.8,147.1 1129.3,147.1L1129.3,336.9L1138.8,336.4C1154.6,335.4 1166.2,324.2 1166.8,308.4L1167.3,298.9L1167.3,232.5L1167.8,223C1167.8,216.4 1169.5,209.9 1172.5,204C1182.9,185.9 1206.1,179.7 1224.3,190.2C1230,193.5 1234.8,198.3 1238.1,204L1238,204C1241.1,209.9 1242.7,216.4 1242.7,223L1243.2,232.5L1243.2,298.9L1243.7,308.4C1244.3,323.6 1256.4,335.8 1271.6,336.4L1281.1,336.9L1281.1,232.5L1281.6,223C1281.6,216.3 1283.2,209.8 1286.3,203.9C1296.8,185.8 1320.1,179.6 1338.2,190.2C1343.9,193.5 1348.7,198.3 1352,204C1355,209.9 1356.6,216.4 1356.6,223L1357.1,232.5L1357.1,298.9L1357.6,308.4C1358.1,323.6 1370.3,335.8 1385.5,336.4L1395,336.9L1395,223C1394.9,181.1 1360.9,147.1 1319,147.1Z" style="fill:rgb(152,152,152);fill-rule:nonzero;"/>
            <path d="M1065,282.2C1042.7,304.4 1006.7,304.3 984.5,282.1C962.4,259.9 962.4,223.9 984.5,201.7C1006.7,179.4 1042.7,179.4 1065,201.6L1065.1,201.7C1087.4,223.9 1087.3,260 1065,282.2ZM1091.9,174.9C1074.1,157.1 1050,147.1 1024.8,147.1C999.6,147.1 975.5,157.1 957.7,174.9C920.7,212 920.7,272.1 957.8,309.1C994.9,346.1 1055,346.1 1092,309C1129.1,272 1129,211.9 1091.9,174.9Z" style="fill:rgb(152,152,152);fill-rule:nonzero;"/>
        </g>
        <path d="M242,23.8C362.508,23.8 460.2,121.491 460.2,242C460.2,362.508 362.508,460.2 242,460.2C121.491,460.2 23.799,362.508 23.799,242C23.799,121.491 121.491,23.8 242,23.8ZM308.4,213.7L370.1,168.6C375.5,164.2 379.6,165.2 379.6,173.3L379.6,310.8C379.6,319.9 374.5,318.9 370.1,315.5L308.4,270.4L308.4,213.7ZM99.6,173.7L99.6,276.1C99.699,299.3 118.6,318 141.8,317.9L291.3,317.9C295.5,317.9 298.9,314.5 299,310.3L299,207.8C298.9,184.6 280,165.9 256.799,166L107.3,166C103.1,166.1 99.699,169.4 99.6,173.7Z" style="fill:rgb(152,152,152);"/>
    </g>
</svg>
