<?xml version="1.0" encoding="UTF-8" standalone="no"?><!DOCTYPE svg PUBLIC "-//W3C//DTD SVG 1.1//EN" "http://www.w3.org/Graphics/SVG/1.1/DTD/svg11.dtd"><svg width="100%" height="100%" viewBox="0 0 12 9" version="1.1" xmlns="http://www.w3.org/2000/svg" xmlns:xlink="http://www.w3.org/1999/xlink" xml:space="preserve" xmlns:serif="http://www.serif.com/" style="fill-rule:evenodd;clip-rule:evenodd;stroke-linejoin:round;stroke-miterlimit:2;"><circle cx="6" cy="4.15" r="4.15" style="fill:#fdfefe;"/><path d="M2.27,4.868c-0.032,-0.024 -0.071,-0.037 -0.111,-0.037c-0.103,0 -0.188,0.085 -0.188,0.188c0,0.014 0.002,0.028 0.005,0.042c0.416,1.838 2.062,3.214 4.024,3.214c0.417,0 0.831,-0.063 1.228,-0.188c0.079,-0.024 0.133,-0.097 0.133,-0.179c0,-0.075 -0.045,-0.143 -0.114,-0.172c-0.879,-0.387 -1.735,-0.822 -2.566,-1.303c-0.832,-0.478 -1.636,-1 -2.411,-1.565Zm9.278,1.239c-0.098,-0.131 -0.213,-0.268 -0.344,-0.411c-0.071,-0.077 -0.171,-0.121 -0.275,-0.121c-0.155,0 -0.294,0.097 -0.348,0.242c0,0.003 -0.002,0.007 -0.004,0.011c-0.047,0.129 -0.019,0.274 0.074,0.376c0.533,0.586 0.619,0.903 0.597,0.969c-0.047,0.053 -0.399,0.162 -1.363,-0.082c-0.138,-0.035 -0.289,-0.078 -0.453,-0.128c-0.105,-0.033 -0.213,-0.068 -0.323,-0.105c0.173,-0.198 0.326,-0.412 0.458,-0.639c0.004,-0.007 0.008,-0.014 0.012,-0.021c0.358,-0.623 0.546,-1.329 0.546,-2.048c0,-0.149 -0.008,-0.297 -0.023,-0.445c-0.225,-2.067 -1.979,-3.68 -4.102,-3.68c-0.901,-0.001 -1.777,0.295 -2.494,0.841c-0.434,0.331 -0.799,0.744 -1.074,1.215c-0.004,0.007 -0.008,0.014 -0.012,0.021c-0.13,0.227 -0.239,0.467 -0.324,0.715c-0.087,-0.076 -0.172,-0.152 -0.253,-0.227c-0.126,-0.117 -0.238,-0.225 -0.338,-0.328c-0.693,-0.709 -0.775,-1.069 -0.754,-1.135c0.047,-0.053 0.365,-0.138 1.14,0.03c0.135,0.03 0.276,-0.018 0.364,-0.124l0.009,-0.01c0.055,-0.067 0.085,-0.15 0.085,-0.236c0,-0.173 -0.121,-0.323 -0.289,-0.361c-0.184,-0.041 -0.37,-0.074 -0.557,-0.096c-0.72,-0.083 -1.191,0.059 -1.401,0.422c-0.076,0.13 -0.149,0.353 -0.064,0.67c0.126,0.47 0.575,1.041 1.21,1.638c0.202,0.191 0.423,0.384 0.659,0.578c0.171,0.14 0.351,0.282 0.536,0.423c0.124,0.094 0.25,0.188 0.379,0.282c0.129,0.093 0.259,0.185 0.391,0.276c0.596,0.412 1.225,0.809 1.842,1.164c0.224,0.129 0.448,0.254 0.672,0.375c0.223,0.121 0.445,0.237 0.664,0.347c0.514,0.258 1.016,0.491 1.497,0.69c0.206,0.086 0.408,0.165 0.605,0.238c0.279,0.104 0.548,0.195 0.804,0.272l0.026,0.008c0.603,0.179 1.111,0.274 1.511,0.281l0.041,0c0.507,0 0.851,-0.15 1.021,-0.445c0.213,-0.366 0.096,-0.852 -0.348,-1.442Z" style="fill:#5f67aa;fill-rule:nonzero;"/></svg>