<svg width="68" height="75" viewBox="0 0 68 75" fill="none" xmlns="http://www.w3.org/2000/svg">
<mask id="path-1-inside-1_557_237" fill="white">
<path fill-rule="evenodd" clip-rule="evenodd" d="M48.6058 17.9877C51.6061 18.1616 54.4107 19.0171 57.0195 20.5693C59.8604 22.2581 62.1332 24.5585 63.8456 27.4783C66.0197 31.1084 67.1048 35.4448 67.1048 40.4678C67.1048 44.8554 66.2999 49.3852 64.6939 54.0688C63.1946 58.3973 61.2809 62.2049 58.9529 65.476C56.7788 68.5457 54.9677 70.7159 53.5196 71.9786C51.2508 74.0895 48.9741 75.0918 46.6974 74.9931C46.3959 74.9836 46.0758 74.9552 45.7371 74.908C44.0721 74.8719 42.0795 74.3867 39.7732 73.4384C37.5562 72.5334 35.5066 72.0536 33.6151 71.9835C31.6889 72.0366 29.5977 72.5174 27.3316 73.4424C24.9936 74.4038 22.978 74.8892 21.2992 74.9133C20.9858 74.9549 20.6885 74.9802 20.4074 74.9891C18.1307 75.0877 15.854 74.0855 13.5852 71.9745C12.1371 70.7119 10.326 68.5417 8.15193 65.4719C5.82393 62.2009 3.91024 58.3932 2.41086 54.0647C0.804934 49.3811 0 44.8514 0 40.4637C0 35.4408 1.08508 31.1044 3.25919 27.4743C4.97165 24.5544 7.24441 22.2541 10.0854 20.5653C12.7215 18.9967 15.5576 18.1397 18.5935 17.9784C19.1038 17.9073 19.6254 17.8503 20.1582 17.8073C22.4862 17.61 25.3272 18.1111 28.6929 19.3225C30.8473 20.1113 32.4648 20.6641 33.5454 20.9782C34.626 20.6648 36.2482 20.1107 38.4119 19.3184C41.7777 18.1071 44.6186 17.606 46.9466 17.8032C47.5123 17.8489 48.0654 17.9103 48.6058 17.9877ZM43.2652 11.9951C45.9917 8.75563 47.3648 5.2518 47.3648 1.50333C47.3648 1.00617 47.3412 0.505057 47.2899 0C45.388 0.0986439 43.3678 0.674724 41.2292 1.7164C39.0866 2.77387 37.319 4.10359 35.93 5.69767C33.1404 8.85033 31.5779 12.7014 31.5779 16.3039C31.5779 16.801 31.6055 17.2745 31.6607 17.7243C35.9813 18.0755 39.9665 15.8462 43.2652 11.9951Z"/>
</mask>
<path d="M57.0195 20.5693L53.9514 25.7256L53.9536 25.7269L57.0195 20.5693ZM48.6058 17.9877L47.7555 23.9271L48.006 23.963L48.2586 23.9777L48.6058 17.9877ZM63.8456 27.4783L58.6701 30.5137L58.684 30.5375L58.6982 30.5612L63.8456 27.4783ZM64.6939 54.0688L70.3634 56.0327L70.3665 56.0238L70.3696 56.0149L64.6939 54.0688ZM58.9529 65.476L54.0645 61.9969L54.0565 62.0082L58.9529 65.476ZM53.5196 71.9786L49.5764 67.4562L49.5034 67.5199L49.4325 67.5859L53.5196 71.9786ZM46.6974 74.9931L46.9571 68.9987L46.9217 68.9972L46.8863 68.9961L46.6974 74.9931ZM45.7371 74.908L46.5666 68.9656L46.2185 68.917L45.8672 68.9094L45.7371 74.908ZM39.7732 73.4384L42.055 67.8892L42.0479 67.8863L42.0408 67.8834L39.7732 73.4384ZM33.6151 71.9835L33.8372 65.9876L33.6435 65.9804L33.4497 65.9858L33.6151 71.9835ZM27.3316 73.4424L25.0641 67.8874L25.0569 67.8903L25.0499 67.8932L27.3316 73.4424ZM21.2992 74.9133L21.2131 68.9139L20.8591 68.919L20.5081 68.9656L21.2992 74.9133ZM20.4074 74.9891L20.2186 68.992L20.1832 68.9932L20.1477 68.9947L20.4074 74.9891ZM13.5852 71.9745L17.6723 67.5818L17.6014 67.5158L17.5284 67.4522L13.5852 71.9745ZM8.15193 65.4719L13.0483 62.0041L13.0403 61.9928L8.15193 65.4719ZM2.41086 54.0647L-3.26478 56.0108L-3.26172 56.0197L-3.25863 56.0286L2.41086 54.0647ZM3.25919 27.4743L8.40662 30.5571L8.42079 30.5335L8.43475 30.5097L3.25919 27.4743ZM10.0854 20.5653L13.1512 25.7228L13.1534 25.7216L10.0854 20.5653ZM18.5935 17.9784L18.9118 23.97L19.1678 23.9564L19.4217 23.921L18.5935 17.9784ZM20.1582 17.8073L20.6404 23.7879L20.6526 23.7869L20.6649 23.7859L20.1582 17.8073ZM28.6929 19.3225L30.7558 13.6883L30.7403 13.6826L30.7247 13.677L28.6929 19.3225ZM33.5454 20.9782L31.8707 26.7397L33.5435 27.226L35.2166 26.7407L33.5454 20.9782ZM38.4119 19.3184L36.3801 13.6729L36.3645 13.6785L36.349 13.6842L38.4119 19.3184ZM46.9466 17.8032L46.4399 23.7818L46.4522 23.7829L46.4644 23.7838L46.9466 17.8032ZM43.2652 11.9951L47.8221 15.8983L47.839 15.8786L47.8557 15.8587L43.2652 11.9951ZM47.2899 0L53.2592 -0.606228L52.6822 -6.28775L46.9791 -5.99195L47.2899 0ZM41.2292 1.7164L38.6018 -3.67773L38.5877 -3.67088L38.5737 -3.66396L41.2292 1.7164ZM35.93 5.69767L40.4235 9.67372L40.4387 9.65651L40.4538 9.63917L35.93 5.69767ZM31.6607 17.7243L25.7055 18.4557L26.3014 23.3085L31.1747 23.7046L31.6607 17.7243ZM60.0875 15.413C56.6516 13.3687 52.9138 12.2273 48.953 11.9978L48.2586 23.9777C50.2984 24.0959 52.1697 24.6655 53.9514 25.7256L60.0875 15.413ZM69.0212 24.4429C66.809 20.671 63.8192 17.6313 60.0853 15.4118L53.9536 25.7269C55.9016 26.8849 57.4573 28.446 58.6701 30.5137L69.0212 24.4429ZM73.1048 40.4678C73.1048 34.568 71.8235 29.1215 68.993 24.3955L58.6982 30.5612C60.216 33.0954 61.1048 36.3216 61.1048 40.4678H73.1048ZM70.3696 56.0149C72.1621 50.787 73.1048 45.5992 73.1048 40.4678H61.1048C61.1048 44.1117 60.4376 47.9833 59.0183 52.1227L70.3696 56.0149ZM63.8412 68.955C66.545 65.156 68.7041 60.8229 70.3634 56.0327L59.0245 52.1049C57.685 55.9716 56.0167 59.2539 54.0645 61.9969L63.8412 68.955ZM57.4627 76.5009C59.4676 74.7528 61.612 72.1027 63.8493 68.9437L54.0565 62.0082C51.9456 64.9888 50.4678 66.679 49.5764 67.4562L57.4627 76.5009ZM46.4376 80.9875C50.8214 81.1774 54.5893 79.1787 57.6067 76.3712L49.4325 67.5859C47.9122 69.0004 47.1267 69.0061 46.9571 68.9987L46.4376 80.9875ZM44.9077 80.8504C45.4314 80.9235 45.9666 80.9731 46.5084 80.9901L46.8863 68.9961C46.8251 68.9942 46.7203 68.987 46.5666 68.9656L44.9077 80.8504ZM45.8672 68.9094C45.199 68.8949 43.966 68.675 42.055 67.8892L37.4915 78.9876C40.1929 80.0984 42.9452 80.8488 45.6071 80.9066L45.8672 68.9094ZM42.0408 67.8834C39.3252 66.7749 36.5785 66.0892 33.8372 65.9876L33.3929 77.9794C34.4347 78.018 35.7872 78.2919 37.5057 78.9934L42.0408 67.8834ZM29.5991 78.9975C31.3561 78.2803 32.7299 78.0102 33.7804 77.9812L33.4497 65.9858C30.6479 66.063 27.8393 66.7546 25.0641 67.8874L29.5991 78.9975ZM21.3853 80.9126C24.0845 80.8739 26.8769 80.1168 29.6133 78.9916L25.0499 67.8932C23.1104 68.6907 21.8715 68.9044 21.2131 68.9139L21.3853 80.9126ZM20.5081 68.9656C20.3703 68.984 20.2753 68.9903 20.2186 68.992L20.5963 80.9861C21.1018 80.9702 21.6013 80.9259 22.0903 80.8609L20.5081 68.9656ZM20.1477 68.9947C19.9781 69.002 19.1926 68.9963 17.6723 67.5818L9.49813 76.3672C12.5155 79.1746 16.2834 81.1734 20.6672 80.9834L20.1477 68.9947ZM17.5284 67.4522C16.637 66.675 15.1592 64.9847 13.0483 62.0042L3.25553 68.9397C5.49284 72.0987 7.63723 74.7488 9.64206 76.4968L17.5284 67.4522ZM13.0403 61.9928C11.0881 59.2498 9.41979 55.9676 8.08034 52.1008L-3.25863 56.0286C-1.5993 60.8189 0.559768 65.1519 3.26356 68.951L13.0403 61.9928ZM8.08649 52.1187C6.66717 47.9793 6 44.1077 6 40.4637H-6C-6 45.5951 -5.0573 50.783 -3.26478 56.0108L8.08649 52.1187ZM6 40.4637C6 36.3176 6.88885 33.0914 8.40662 30.5571L-1.88823 24.3914C-4.71868 29.1174 -6 34.564 -6 40.4637H6ZM8.43475 30.5097C9.64746 28.4419 11.2032 26.8808 13.1512 25.7228L7.01947 15.4077C3.28559 17.6273 0.295841 20.6669 -1.91636 24.4389L8.43475 30.5097ZM13.1534 25.7216C14.953 24.6508 16.8452 24.0797 18.9118 23.97L18.2752 11.9869C14.2699 12.1996 10.49 13.3427 7.01733 15.409L13.1534 25.7216ZM19.676 11.8267C19.0319 11.8786 18.3948 11.9481 17.7653 12.0358L19.4217 23.921C19.8129 23.8665 20.219 23.8219 20.6404 23.7879L19.676 11.8267ZM30.7247 13.677C26.9286 12.3107 23.1688 11.5307 19.6516 11.8287L20.6649 23.7859C21.8036 23.6894 23.7257 23.9115 26.661 24.968L30.7247 13.677ZM35.2201 15.2166C34.3464 14.9627 32.8885 14.4691 30.7558 13.6883L26.6299 24.9567C28.8061 25.7535 30.5833 26.3655 31.8707 26.7397L35.2201 15.2166ZM35.2166 26.7407C36.5063 26.3667 38.2899 25.7527 40.4749 24.9526L36.349 13.6842C34.2065 14.4687 32.7458 14.9629 31.8743 15.2156L35.2166 26.7407ZM40.4438 24.9639C43.3791 23.9075 45.3012 23.6853 46.4399 23.7818L47.4533 11.8247C43.936 11.5266 40.1762 12.3067 36.3801 13.6729L40.4438 24.9639ZM46.4644 23.7838C46.9119 23.8199 47.3421 23.868 47.7555 23.9271L49.4561 12.0483C48.7887 11.9527 48.1127 11.8778 47.4288 11.8227L46.4644 23.7838ZM41.3648 1.50333C41.3648 3.64891 40.6206 5.81949 38.6747 8.13148L47.8557 15.8587C51.3628 11.6918 53.3648 6.85469 53.3648 1.50333H41.3648ZM41.3206 0.606228C41.3503 0.898559 41.3648 1.19695 41.3648 1.50333H53.3648C53.3648 0.815386 53.3321 0.111554 53.2592 -0.606228L41.3206 0.606228ZM43.8566 7.11054C45.4565 6.33123 46.6866 6.03935 47.6007 5.99195L46.9791 -5.99195C44.0894 -5.84207 41.279 -4.98179 38.6018 -3.67773L43.8566 7.11054ZM40.4538 9.63917C41.2599 8.71397 42.3651 7.84675 43.8847 7.09677L38.5737 -3.66396C35.8081 -2.29902 33.378 -0.506803 31.4063 1.75617L40.4538 9.63917ZM37.5779 16.3039C37.5779 14.3822 38.4512 11.9027 40.4235 9.67372L31.4366 1.72162C27.8296 5.798 25.5779 11.0206 25.5779 16.3039H37.5779ZM37.616 16.993C37.5933 16.8078 37.5779 16.5798 37.5779 16.3039H25.5779C25.5779 17.0223 25.6177 17.7412 25.7055 18.4557L37.616 16.993ZM38.7083 8.09188C36.1483 11.0806 33.8816 11.8851 32.1468 11.7441L31.1747 23.7046C38.0811 24.266 43.7848 20.6117 47.8221 15.8983L38.7083 8.09188Z" fill="white" mask="url(#path-1-inside-1_557_237)"/>
</svg>
