<svg width="250" height="385" viewBox="0 0 250 385" fill="none" xmlns="http://www.w3.org/2000/svg">
<path fill-rule="evenodd" clip-rule="evenodd" d="M6.76829e-06 73.0836L30.6156 11.3877C34.0855 4.39522 41.2254 -0.0198118 49.0314 6.68478e-05C56.8374 0.0199436 63.9547 4.47128 67.389 11.4813L117.807 114.396L232.439 131.005C240.158 132.123 246.573 137.525 248.99 144.94C251.407 152.356 249.407 160.5 243.83 165.952L160.765 247.159L180.601 359.955C181.959 367.676 178.794 375.495 172.449 380.099C166.103 384.703 157.687 385.284 150.769 381.597L48.9706 327.342L6.76829e-06 353.443V306.982L39.3275 286.02C45.3544 282.808 52.5852 282.808 58.6122 286.02L132.936 325.632L118.512 243.61C117.34 236.945 119.532 230.131 124.371 225.401L185.506 165.633L101.218 153.421C94.5168 152.45 88.7271 148.232 85.7481 142.151L48.8612 66.8568L11.451 142.245C9.07183 147.039 4.9415 150.663 6.76829e-06 152.432V73.0836Z" fill="#5F67AA"/>
</svg>
