<?xml version="1.0" encoding="UTF-8" standalone="no"?><!DOCTYPE svg PUBLIC "-//W3C//DTD SVG 1.1//EN" "http://www.w3.org/Graphics/SVG/1.1/DTD/svg11.dtd"><svg width="100%" height="100%" viewBox="0 0 30 30" version="1.1" xmlns="http://www.w3.org/2000/svg" xmlns:xlink="http://www.w3.org/1999/xlink" xml:space="preserve" xmlns:serif="http://www.serif.com/" style="fill-rule:evenodd;clip-rule:evenodd;stroke-linejoin:round;stroke-miterlimit:2;"><path d="M4.186,2.086l8.372,-0l0,2.79l-8.372,0l0,-2.79Zm-4.186,5.581l6.977,0l-0,2.791l-6.977,-0l0,-2.791Zm2.791,16.745l6.977,-0l-0,2.79l-6.977,0l-0,-2.79Zm14.972,-11.708c1.074,0.321 1.814,1.089 2.191,2.038l5.958,-9.921c0.907,-1.507 0.419,-3.433 -1.088,-4.368c-1.214,-0.725 -2.777,-0.572 -3.81,0.405l-4.786,4.479c-0.558,0.516 -0.879,1.256 -0.879,2.023l-0,5.484c0.502,-0.209 1.395,-0.46 2.414,-0.14m-4.354,2.317c0.224,-0.726 0.67,-1.34 1.242,-1.772l-11.47,-0c-1.786,-0 -3.181,1.395 -3.181,3.181c0,1.423 0.935,2.665 2.302,3.056l6.293,1.8c0.74,0.209 1.535,0.112 2.205,-0.293l3.754,-2.247c-1.107,-0.888 -1.561,-2.369 -1.145,-3.725m16.187,8.846l-3.182,-5.735c-0.385,-0.661 -1.018,-1.143 -1.758,-1.339l-4.423,-1.116c-0,0.446 -0,0.921 -0.154,1.381c-0.438,1.469 -1.802,2.479 -3.335,2.47c-0.851,-0 -1.395,-0.307 -1.395,-0.307l-0,7.981c-1.535,0 -2.791,1.256 -2.791,2.791l8.372,0c0,-1.535 -1.255,-2.791 -2.79,-2.791l-0,-5.972l6.432,6.433c1.242,1.242 3.252,1.242 4.493,-0c1.005,-1.005 1.228,-2.554 0.531,-3.796m-13.466,-5.832c1.103,0.335 2.275,-0.279 2.61,-1.396c0.335,-1.102 -0.279,-2.274 -1.396,-2.609c-1.102,-0.335 -2.274,0.279 -2.609,1.395c-0.335,1.103 0.293,2.275 1.395,2.61" style="fill:#5f67aa;fill-rule:nonzero;"/></svg>