<?xml version="1.0" encoding="UTF-8" standalone="no"?><!DOCTYPE svg PUBLIC "-//W3C//DTD SVG 1.1//EN" "http://www.w3.org/Graphics/SVG/1.1/DTD/svg11.dtd"><svg width="100%" height="100%" viewBox="0 0 21 34" version="1.1" xmlns="http://www.w3.org/2000/svg" xmlns:xlink="http://www.w3.org/1999/xlink" xml:space="preserve" xmlns:serif="http://www.serif.com/" style="fill-rule:evenodd;clip-rule:evenodd;stroke-linejoin:round;stroke-miterlimit:2;"><circle cx="10.402" cy="10.044" r="3.5" style="fill:#fdfefe;"/><path d="M8.262,1.005c-2.564,2.564 -4.003,6.041 -4.003,9.667l-0.002,1.013c-0,0.694 0.028,1.389 0.083,2.081l-3.54,3.54c-0.33,0.33 -0.57,0.739 -0.696,1.188c-0.127,0.449 -0.138,0.923 -0.03,1.378l1.176,4.955c0.042,0.173 0.122,0.335 0.235,0.473c0.114,0.138 0.258,0.248 0.423,0.323c0.162,0.074 0.338,0.109 0.519,0.103c0.177,-0.005 0.353,-0.052 0.511,-0.135l4.481,-2.374c0.097,0.016 0.199,0.023 0.298,0.023l5.366,0c0.102,0 0.201,-0.007 0.298,-0.023l4.481,2.374c0.158,0.083 0.334,0.13 0.511,0.135c0.181,0.006 0.357,-0.029 0.519,-0.103c0.165,-0.075 0.309,-0.185 0.423,-0.323c0.113,-0.138 0.193,-0.299 0.236,-0.474l1.178,-4.951c0.108,-0.455 0.098,-0.929 -0.028,-1.377c-0.128,-0.449 -0.368,-0.859 -0.698,-1.189l-3.543,-3.543c0.055,-0.692 0.083,-1.387 0.083,-2.081l-0.001,-1.013c0.001,-3.625 -1.44,-7.103 -4.002,-9.667l-0.205,-0.206c-0.513,-0.513 -1.208,-0.8 -1.934,-0.799c-0.726,-0.002 -1.421,0.287 -1.934,0.8l-0.205,0.205Zm7.801,15.676c-0.03,0.164 -0.065,0.326 -0.1,0.487l-0.916,4.277l1.65,0.876l1.082,-3.734c0.016,-0.064 -1.716,-1.906 -1.716,-1.906Zm-10.309,4.766l-0.915,-4.278c-0.035,-0.164 -0.067,-0.326 -0.099,-0.489c-0,0 -1.732,1.843 -1.717,1.907l1.082,3.733l1.649,-0.873Zm5.752,-12.638c0.293,0.293 0.459,0.691 0.457,1.105c0.002,0.415 -0.164,0.813 -0.457,1.106c-0.293,0.292 -0.69,0.458 -1.105,0.456c-0.414,0.002 -0.812,-0.164 -1.105,-0.457c-0.293,-0.293 -0.458,-0.69 -0.457,-1.105c-0.001,-0.414 0.164,-0.811 0.457,-1.104c0.293,-0.293 0.691,-0.459 1.105,-0.458c0.415,-0.001 0.812,0.164 1.105,0.457Zm1.237,19.887c0.012,-0.314 -0.041,-0.628 -0.153,-0.923c-0.113,-0.293 -0.283,-0.56 -0.503,-0.787c-0.218,-0.226 -0.479,-0.407 -0.77,-0.53c-0.289,-0.123 -0.601,-0.188 -0.916,-0.186c-0.315,-0.001 -0.626,0.063 -0.915,0.186c-0.292,0.123 -0.553,0.303 -0.77,0.53c-0.22,0.225 -0.389,0.495 -0.504,0.788c-0.112,0.293 -0.165,0.609 -0.153,0.923c-0.004,1.616 1.42,3.732 2.048,4.587c0.032,0.047 0.077,0.084 0.128,0.111c0.05,0.026 0.106,0.041 0.164,0.041c0.058,0 0.113,-0.015 0.164,-0.041c0.052,-0.027 0.095,-0.064 0.129,-0.111c0.627,-0.855 2.051,-2.97 2.051,-4.588Z" style="fill:#5f67aa;"/></svg>