<?xml version="1.0" encoding="UTF-8" standalone="no"?><!DOCTYPE svg PUBLIC "-//W3C//DTD SVG 1.1//EN" "http://www.w3.org/Graphics/SVG/1.1/DTD/svg11.dtd"><svg width="100%" height="100%" viewBox="0 0 12 12" version="1.1" xmlns="http://www.w3.org/2000/svg" xmlns:xlink="http://www.w3.org/1999/xlink" xml:space="preserve" xmlns:serif="http://www.serif.com/" style="fill-rule:evenodd;clip-rule:evenodd;stroke-linejoin:round;stroke-miterlimit:2;"><path d="M4.589,0.125c-0.08,-0.08 -0.189,-0.126 -0.303,-0.126c-0.114,0 -0.223,0.046 -0.304,0.126c-1.046,1.046 -1.634,2.467 -1.634,3.946c-0,3.062 2.519,5.581 5.581,5.581c1.479,0 2.9,-0.588 3.946,-1.634c0.08,-0.081 0.126,-0.19 0.126,-0.304c-0,-0.114 -0.046,-0.223 -0.126,-0.303l-3.038,-3.036l1.197,-1.198c0.154,-0.159 0.24,-0.373 0.24,-0.595c0,-0.47 -0.387,-0.857 -0.857,-0.857c-0.222,-0 -0.436,0.086 -0.595,0.24l-1.197,1.197l-3.036,-3.037Zm-2.22,7.598c0.846,1.288 2.114,2.243 3.586,2.701l0.308,1.024c0.012,0.04 0.018,0.082 0.018,0.123c0,0.236 -0.193,0.429 -0.428,0.429l-5.519,0c-0.183,-0 -0.334,-0.151 -0.334,-0.334c0,-0.062 0.017,-0.123 0.05,-0.175l2.319,-3.768Z" style="fill:#5f67aa;"/></svg>