<?xml version="1.0" encoding="UTF-8" standalone="no"?><!DOCTYPE svg PUBLIC "-//W3C//DTD SVG 1.1//EN" "http://www.w3.org/Graphics/SVG/1.1/DTD/svg11.dtd"><svg width="100%" height="100%" viewBox="0 0 238 148" version="1.1" xmlns="http://www.w3.org/2000/svg" xmlns:xlink="http://www.w3.org/1999/xlink" xml:space="preserve" xmlns:serif="http://www.serif.com/" style="fill-rule:evenodd;clip-rule:evenodd;stroke-miterlimit:2;"><g><path d="M96.307,12.252c-5.624,5.625 5.713,27.652 24.391,46.33c5.396,5.393 10.858,9.942 16.033,13.551c8.45,-4.428 15.017,-11.956 18.194,-21.075c-0.731,-1.039 -1.492,-2.088 -2.287,-3.145c-2.947,-3.721 -6.335,-7.535 -10.124,-11.324c-18.681,-18.683 -40.58,-29.963 -46.207,-24.337Z" style="fill:#f29d21;fill-rule:nonzero;"/><path d="M114.047,56.995c-14.122,-14.125 -23.835,-29.005 -26.421,-39.221c-3.952,5.975 -6.255,13.137 -6.255,20.837c0,20.891 16.935,37.827 37.826,37.827c5.136,0 10.032,-1.026 14.496,-2.88c-6.35,-4.387 -13.08,-9.999 -19.646,-16.563Z" style="fill:#f29d21;fill-rule:nonzero;"/><path d="M138.879,32.156c5.239,5.241 9.872,10.585 13.759,15.757c0.809,1.021 1.583,2.035 2.324,3.04c1.335,-3.868 2.061,-8.02 2.061,-12.342c-0,-20.89 -16.935,-37.826 -37.826,-37.826c-6.916,0 -13.398,1.858 -18.976,5.1c10.195,2.792 24.791,12.409 38.658,26.271Z" style="fill:#f29d21;fill-rule:nonzero;"/><path d="M7.141,99.94l-0,-3.017c-0,-1.354 -0.77,-1.847 -1.816,-1.847c-1.047,0 -1.817,0.493 -1.817,1.847l-0,1.478c-0,1.109 0.37,1.601 1.386,2.186l2.524,1.416c2.062,1.169 3.293,2.124 3.293,4.432l0,3.109c0,3.325 -2.062,4.495 -5.324,4.495l-0.062,0c-3.263,0 -5.325,-1.139 -5.325,-4.495l0,-3.755l3.508,0l-0,3.262c-0,1.325 0.77,1.91 1.847,1.91c1.078,-0 1.848,-0.585 1.848,-1.91l0,-1.692c0,-1.109 -0.34,-1.662 -1.417,-2.248l-2.494,-1.415c-2.093,-1.201 -3.292,-2.186 -3.292,-4.432l0,-2.833c0,-3.201 2.339,-4.433 5.293,-4.433l0.062,0c2.955,0 5.294,1.232 5.294,4.433l0,3.509l-3.508,-0Z" style="fill:#fff;fill-rule:nonzero;"/><path d="M25.335,97.355c-0,-1.54 -0.8,-1.971 -1.97,-1.971l-1.878,-0l-0,6.926l1.878,0c1.17,0 1.97,-0.431 1.97,-1.97l-0,-2.985Zm3.571,-0.555l0,4.094c0,3.263 -2.155,4.557 -5.418,4.557l-2.001,0l-0,8.342l-3.571,-0l0,-21.549l5.572,-0c3.263,-0 5.418,1.293 5.418,4.556Z" style="fill:#fff;fill-rule:nonzero;"/><path d="M41.436,106.035l-1.509,-9.573l-1.508,9.573l3.017,-0Zm0.462,2.956l-3.941,0l-0.769,4.802l-3.448,-0l4.002,-21.549l4.493,-0l4.064,21.549l-3.632,-0l-0.769,-4.802Z" style="fill:#fff;fill-rule:nonzero;"/><path d="M63.386,109.483c0,3.324 -2.155,4.556 -5.419,4.556l-0.061,0c-3.262,0 -5.418,-1.201 -5.418,-4.556l-0,-12.929c-0,-3.201 2.156,-4.556 5.418,-4.556l0.061,0c3.264,0 5.419,1.355 5.419,4.556l0,3.94l-3.571,-0l-0,-3.386c-0,-1.507 -0.739,-1.97 -1.877,-1.97c-1.14,0 -1.879,0.463 -1.879,1.97l-0,11.82c-0,1.509 0.739,1.971 1.879,1.971c1.138,-0 1.877,-0.462 1.877,-1.971l-0,-3.909l3.571,0l0,4.464Z" style="fill:#fff;fill-rule:nonzero;"/><path d="M70.836,113.793l-0,-21.549l9.45,-0l0,3.14l-5.879,-0l-0,5.911l4.926,-0l0,3.139l-4.926,-0l-0,6.219l5.972,-0l-0,3.14l-9.543,-0Z" style="fill:#fff;fill-rule:nonzero;"/><path d="M106.607,95.384l-3.602,-0l-0,18.409l-3.571,-0l-0,-18.409l-3.601,-0l0,-3.14l10.774,-0l0,3.14Z" style="fill:#fff;fill-rule:nonzero;"/><path d="M113.072,113.793l-0,-21.549l9.45,-0l0,3.14l-5.879,-0l-0,5.911l4.926,-0l0,3.139l-4.926,-0l-0,6.219l5.972,-0l-0,3.14l-9.543,-0Z" style="fill:#fff;fill-rule:nonzero;"/><path d="M140.533,109.483c0,3.324 -2.154,4.556 -5.418,4.556l-0.061,0c-3.263,0 -5.418,-1.201 -5.418,-4.556l0,-12.929c0,-3.201 2.155,-4.556 5.418,-4.556l0.061,0c3.264,0 5.418,1.355 5.418,4.556l0,3.94l-3.571,-0l0,-3.386c0,-1.507 -0.738,-1.97 -1.877,-1.97c-1.14,0 -1.878,0.463 -1.878,1.97l0,11.82c0,1.509 0.738,1.971 1.878,1.971c1.139,-0 1.877,-0.462 1.877,-1.971l0,-3.909l3.571,0l0,4.464Z" style="fill:#fff;fill-rule:nonzero;"/><path d="M151.554,92.244l0,8.989l4.094,0l-0,-8.989l3.572,-0l0,21.549l-3.572,-0l-0,-9.359l-4.094,-0l0,9.359l-3.571,-0l0,-21.549l3.571,-0Z" style="fill:#fff;fill-rule:nonzero;"/><path d="M176.459,113.793l-0,-21.549l9.45,-0l-0,3.14l-5.879,-0l-0,5.911l4.926,-0l-0,3.139l-4.926,-0l-0,6.219l5.973,-0l0,3.14l-9.544,-0Z" style="fill:#fff;fill-rule:nonzero;"/><path d="M200.164,102.803l4.217,10.99l-3.694,-0l-2.678,-7.881l-2.525,7.881l-3.632,-0l4.217,-10.99l-3.878,-10.559l3.694,-0l2.277,7.203l2.125,-7.203l3.632,-0l-3.755,10.559Z" style="fill:#fff;fill-rule:nonzero;"/><path d="M218.205,97.355c0,-1.54 -0.801,-1.971 -1.971,-1.971l-1.878,-0l0,6.926l1.878,0c1.17,0 1.971,-0.431 1.971,-1.97l0,-2.985Zm3.571,-0.555l0,4.094c0,3.263 -2.155,4.557 -5.419,4.557l-2.001,0l0,8.342l-3.57,-0l-0,-21.549l5.571,-0c3.264,-0 5.419,1.293 5.419,4.556Z" style="fill:#fff;fill-rule:nonzero;"/><path d="M232.402,110.899c1.169,-0 1.97,-0.432 1.97,-1.971l-0,-11.82c-0,-1.539 -0.801,-1.97 -1.97,-1.97c-1.17,0 -1.97,0.431 -1.97,1.97l0,11.82c0,1.539 0.8,1.971 1.97,1.971Zm-0.123,-18.901l0.246,0c3.263,0 5.418,1.293 5.418,4.556l-0,12.929c-0,3.263 -2.155,4.556 -5.418,4.556l-0.246,0c-3.262,0 -5.418,-1.293 -5.418,-4.556l-0,-12.929c-0,-3.294 2.156,-4.556 5.418,-4.556Z" style="fill:#fff;fill-rule:nonzero;"/><path d="M0,121.934l237.943,0" style="fill:none;stroke:#f29d21;stroke-width:0.5px;"/><path d="M76.265,147.784l-0,-18.906l7.211,0l-0,1.026l-6.131,-0l0,7.778l5.294,0l-0,1.027l-5.294,-0l0,8.048l6.212,-0l-0,1.027l-7.292,-0Z" style="fill:#fff;fill-rule:nonzero;"/><path d="M99.002,144.003c-0,2.646 -1.295,3.997 -4.159,3.997l-0.108,-0c-2.862,-0 -4.159,-1.324 -4.159,-3.997l-0,-15.125l1.081,0l-0,14.638c-0,2.431 0.756,3.457 3.133,3.457c2.377,0 3.132,-1.026 3.132,-3.457l-0,-14.638l1.08,0l-0,15.125Z" style="fill:#fff;fill-rule:nonzero;"/><path d="M114.26,135.008l0,-1.647c0,-2.43 -0.864,-3.457 -3.241,-3.457l-3.161,-0l0,8.561l3.161,0c2.377,0 3.241,-1.026 3.241,-3.457Zm0.54,12.776l-3.295,-8.292l-3.647,-0l0,8.292l-1.08,-0l-0,-18.906l4.349,0c2.862,0 4.213,1.405 4.213,3.998l-0,2.619c-0,2.08 -0.864,3.403 -2.7,3.835l3.348,8.454l-1.188,-0Z" style="fill:#fff;fill-rule:nonzero;"/><path d="M127.059,146.973c2.376,0 3.239,-1.026 3.239,-3.457l0,-10.371c0,-2.431 -0.863,-3.457 -3.239,-3.457c-2.377,-0 -3.242,1.026 -3.242,3.457l0,10.371c0,2.431 0.865,3.457 3.242,3.457Zm-0.109,-18.311l0.216,0c2.863,0 4.214,1.405 4.214,3.997l0,11.344c0,2.592 -1.351,3.997 -4.214,3.997l-0.216,-0c-2.863,-0 -4.213,-1.405 -4.213,-3.997l-0,-11.344c-0,-2.618 1.35,-3.997 4.213,-3.997Z" style="fill:#fff;fill-rule:nonzero;"/><path d="M146.581,133.361c-0,-2.43 -0.864,-3.457 -3.24,-3.457l-3.16,-0l-0,8.778l3.16,0c2.376,0 3.24,-1.026 3.24,-3.457l-0,-1.864Zm1.081,-0.485l0,2.835c0,2.592 -1.35,3.998 -4.214,3.998l-3.267,-0l-0,8.075l-1.08,-0l-0,-18.906l4.347,0c2.864,0 4.214,1.405 4.214,3.998Z" style="fill:#fff;fill-rule:nonzero;"/><path d="M154.789,147.784l0,-18.906l7.211,0l-0,1.026l-6.131,-0l0,7.778l5.294,0l-0,1.027l-5.294,-0l0,8.048l6.212,-0l-0,1.027l-7.292,-0Z" style="fill:#fff;fill-rule:nonzero;"/></g></svg>