<svg width="180" height="31" viewBox="0 0 180 31" fill="none" xmlns="http://www.w3.org/2000/svg">
<path d="M28.6918 6.7597C28.5121 6.1844 28.0806 5.71698 27.5412 5.42933L16.5747 0.179779C16.2871 0.0359558 15.9635 0 15.6758 0C15.3882 0 15.0646 0 14.7769 0.0719117L3.8104 5.35742C3.27106 5.60911 2.87554 6.07654 2.73172 6.68778L0.0350339 18.5173C-0.0728336 19.1285 0.0709897 19.7397 0.430548 20.2431L8.01723 29.6276C8.4487 30.0591 9.05995 30.3467 9.6712 30.3827H21.7524C22.3996 30.4546 23.0108 30.1669 23.4063 29.6276L30.993 20.2431C31.3526 19.7397 31.4964 19.1285 31.4245 18.5173L28.6918 6.7597Z" fill="#989898"/>
<path d="M27.0019 18.0503C26.966 18.0503 26.93 18.0503 26.93 18.0143C26.93 17.9784 26.8581 17.9784 26.7862 17.9784C26.6424 17.9424 26.4985 17.9424 26.3547 17.9424C26.2828 17.9424 26.2109 17.9424 26.139 17.9064H26.103C25.7075 17.8705 25.276 17.7986 24.8805 17.6907C24.7727 17.6547 24.6648 17.5469 24.6288 17.439C24.6648 17.439 24.6288 17.439 24.6288 17.439L24.3412 17.3671C24.485 16.3244 24.4131 15.2457 24.1974 14.203C23.9457 13.1603 23.5142 12.1535 22.9389 11.2546L23.1546 11.0389V11.0029C23.1546 10.8951 23.1906 10.7512 23.2625 10.6793C23.5861 10.3917 23.9097 10.1759 24.2693 9.9602C24.3412 9.92425 24.4131 9.88829 24.485 9.85233C24.6288 9.78042 24.7367 9.70851 24.8805 9.6366C24.9165 9.60064 24.9524 9.60064 24.9884 9.56469C25.0243 9.52873 24.9884 9.52873 24.9884 9.49277C25.312 9.24108 25.3839 8.80961 25.1322 8.48601C25.0243 8.34219 24.8086 8.23432 24.6288 8.23432C24.4491 8.23432 24.2693 8.30623 24.1255 8.4141L24.0895 8.45006C24.0535 8.48601 24.0176 8.52197 23.9816 8.52197C23.8738 8.62984 23.7659 8.7377 23.694 8.84557C23.658 8.91748 23.5861 8.95344 23.5502 8.98939C23.2985 9.27704 22.9749 9.56469 22.6513 9.78042C22.5793 9.81638 22.5074 9.85233 22.4355 9.85233C22.3996 9.85233 22.3277 9.85233 22.2917 9.81638H22.2557L21.9681 9.99616C21.6805 9.70851 21.3569 9.42086 21.0692 9.13322C19.7388 8.0905 18.0849 7.44329 16.3949 7.26351L16.359 6.97587V7.01182C16.2511 6.93991 16.2152 6.83204 16.1792 6.72418C16.1792 6.32866 16.1792 5.93315 16.2511 5.50168V5.46572C16.2511 5.39381 16.2871 5.3219 16.2871 5.24999C16.323 5.10616 16.323 4.96234 16.359 4.81852V4.60278C16.3949 4.24322 16.1073 3.88367 15.7477 3.84771C15.532 3.81175 15.3163 3.91962 15.1365 4.0994C14.9927 4.24322 14.9208 4.423 14.9208 4.60278V4.78256C14.9208 4.92638 14.9567 5.07021 14.9927 5.21403C15.0286 5.28594 15.0286 5.35785 15.0286 5.42977V5.46572C15.1005 5.86124 15.1005 6.25675 15.1005 6.68822C15.0646 6.79609 15.0286 6.90396 14.9208 6.97587V7.04778L14.8848 7.33543C14.4893 7.37138 14.0938 7.44329 13.6623 7.5152C11.9724 7.87476 10.4263 8.77366 9.23974 10.0321L9.024 9.88829H8.98805C8.95209 9.88829 8.91613 9.92425 8.84422 9.92425C8.77231 9.92425 8.7004 9.88829 8.62849 9.85233C8.30489 9.60064 7.98128 9.313 7.72959 9.02535C7.69364 8.95344 7.62173 8.91748 7.58577 8.88153C7.4779 8.77366 7.40599 8.66579 7.29812 8.55792C7.26217 8.52197 7.22621 8.52197 7.19026 8.48601C7.1543 8.45006 7.1543 8.45006 7.1543 8.45006C7.01048 8.34219 6.8307 8.27028 6.65092 8.27028C6.43518 8.27028 6.2554 8.34219 6.14754 8.52197C5.9318 8.84557 6.00371 9.27704 6.29136 9.52873C6.32732 9.52873 6.32732 9.56469 6.32732 9.56469C6.32732 9.56469 6.39923 9.6366 6.43518 9.6366C6.54305 9.70851 6.68687 9.78042 6.8307 9.85233C6.90261 9.88829 6.97452 9.92425 7.04643 9.9602C7.40599 10.1759 7.76555 10.3917 8.05319 10.6793C8.12511 10.7512 8.19702 10.8951 8.16106 11.0029V10.967L8.3768 11.1827C8.34084 11.2546 8.30489 11.2906 8.26893 11.3625C7.1543 13.1243 6.68687 15.2098 7.01048 17.2592L6.72283 17.3311C6.72283 17.3671 6.68687 17.3671 6.68687 17.3671C6.65092 17.475 6.54305 17.5469 6.43518 17.6188C6.03967 17.7267 5.64415 17.7986 5.21268 17.8345C5.14077 17.8345 5.06886 17.8345 4.99695 17.8705C4.85313 17.8705 4.7093 17.9064 4.56548 17.9064C4.52952 17.9064 4.49357 17.9424 4.42166 17.9424C4.3857 17.9424 4.3857 17.9424 4.34974 17.9784C3.95423 18.0503 3.70254 18.4098 3.77445 18.8053C3.84636 19.1289 4.16997 19.3447 4.49357 19.3087C4.56548 19.3087 4.60144 19.3087 4.67335 19.2728C4.7093 19.2728 4.7093 19.2728 4.7093 19.2368C4.7093 19.2008 4.81717 19.2368 4.85313 19.2368C4.99695 19.2008 5.14077 19.1289 5.24864 19.093C5.32055 19.057 5.39246 19.0211 5.46438 19.0211H5.50033C5.89584 18.8772 6.2554 18.7694 6.68687 18.6975H6.72283C6.8307 18.6975 6.93856 18.7334 7.01048 18.8053C7.04643 18.8053 7.04643 18.8413 7.04643 18.8413L7.37003 18.8053C7.90937 20.4593 8.91613 21.9335 10.3184 23.0122C10.642 23.2639 10.9297 23.4796 11.2892 23.6594L11.1094 23.9111C11.1094 23.947 11.1454 23.947 11.1454 23.947C11.2173 24.0549 11.2173 24.1987 11.1814 24.3066C11.0375 24.6661 10.8218 25.0257 10.6061 25.3493V25.3853C10.5701 25.4572 10.5341 25.4931 10.4622 25.565C10.3903 25.6369 10.3184 25.7808 10.2105 25.9246C10.1746 25.9605 10.1746 25.9965 10.1386 26.0325C10.1386 26.0325 10.1386 26.0684 10.1027 26.0684C9.9229 26.428 10.0667 26.8594 10.3903 27.0392C10.4622 27.0752 10.5701 27.1111 10.642 27.1111C10.9297 27.1111 11.1814 26.9314 11.3252 26.6797C11.3252 26.6797 11.3252 26.6437 11.3611 26.6437C11.3611 26.6077 11.3971 26.5718 11.433 26.5358C11.469 26.392 11.5409 26.2841 11.5769 26.1403L11.6488 25.9246C11.7566 25.5291 11.9364 25.1695 12.1162 24.81C12.1881 24.7021 12.296 24.6302 12.4039 24.5942C12.4398 24.5942 12.4398 24.5942 12.4398 24.5583L12.5836 24.2706C13.5904 24.6661 14.6331 24.8459 15.7118 24.8459C16.359 24.8459 17.0062 24.774 17.6534 24.5942C18.0489 24.5223 18.4444 24.3785 18.804 24.2706L18.9478 24.5223C18.9838 24.5223 18.9838 24.5223 18.9838 24.5583C19.0916 24.5942 19.1995 24.6661 19.2714 24.774C19.4512 25.1336 19.631 25.4931 19.7388 25.8886V25.9246L19.8108 26.1403C19.8467 26.2841 19.8827 26.428 19.9546 26.5358C19.9905 26.5718 19.9905 26.6077 20.0265 26.6437C20.0265 26.6437 20.0265 26.6797 20.0624 26.6797C20.2063 26.9314 20.458 27.1111 20.7456 27.1111C20.8535 27.1111 20.9254 27.0752 21.0332 27.0392C21.1771 26.9673 21.3209 26.8235 21.3569 26.6437C21.3928 26.4639 21.3928 26.2841 21.3209 26.1044C21.3209 26.0684 21.2849 26.0684 21.2849 26.0684C21.2849 26.0325 21.249 25.9965 21.213 25.9605C21.1411 25.8167 21.0692 25.7089 20.9613 25.601C20.9254 25.5291 20.8894 25.4931 20.8175 25.4212V25.3493C20.5658 25.0257 20.386 24.6661 20.2422 24.3066C20.2063 24.1987 20.2063 24.0549 20.2782 23.947C20.2782 23.9111 20.3141 23.9111 20.3141 23.9111L20.2063 23.6234C22.04 22.5088 23.4423 20.7829 24.0895 18.7334L24.3771 18.7694C24.4131 18.7694 24.4131 18.7334 24.4131 18.7334C24.485 18.6615 24.5929 18.6256 24.7007 18.6256H24.7367C25.1322 18.6975 25.5277 18.8053 25.8873 18.9492H25.9232C25.9952 18.9851 26.0671 19.0211 26.139 19.0211C26.2828 19.093 26.3907 19.1649 26.5345 19.2009C26.5704 19.2009 26.6064 19.2368 26.6783 19.2368C26.7143 19.2368 26.7143 19.2368 26.7502 19.2728C26.8221 19.3087 26.8581 19.3087 26.93 19.3087C27.2536 19.3087 27.5413 19.093 27.6491 18.8053C27.6132 18.4098 27.3255 18.1222 27.0019 18.0503ZM16.6107 16.9356L15.6399 17.4031L14.6691 16.9356L14.4174 15.8929L15.1005 15.03H16.1792L16.8624 15.8929L16.6107 16.9356ZM22.4715 14.5985C22.6513 15.3536 22.6872 16.1086 22.6153 16.8637L19.1995 15.8929C18.8759 15.821 18.6961 15.4974 18.768 15.1738C18.804 15.0659 18.8399 14.994 18.9119 14.9221L21.6085 12.4771C22.0041 13.1243 22.2917 13.8434 22.4715 14.5985ZM20.5299 11.1467L17.5815 13.2322C17.3298 13.376 16.9702 13.34 16.7905 13.0884C16.7185 13.0164 16.6826 12.9445 16.6826 12.8367L16.4669 9.20513C18.0489 9.38491 19.4512 10.0681 20.5299 11.1467ZM14.0219 9.313L14.741 9.16917L14.5612 12.7648C14.5612 13.0884 14.2736 13.34 13.95 13.34C13.8421 13.34 13.7702 13.3041 13.6623 13.2681L10.678 11.1467C11.6128 10.2478 12.7634 9.60064 14.0219 9.313ZM9.63525 12.4771L12.296 14.8502C12.5477 15.0659 12.5836 15.4255 12.3679 15.6772C12.296 15.785 12.2241 15.821 12.0802 15.857L8.59253 16.8637C8.48466 15.3536 8.84422 13.8075 9.63525 12.4771ZM9.024 18.5536L12.5836 17.9424C12.8713 17.9424 13.1589 18.1222 13.1949 18.4098C13.2308 18.5177 13.2308 18.6615 13.1589 18.7694L11.7926 22.0773C10.5341 21.2503 9.52738 19.9919 9.024 18.5536ZM17.186 23.0122C16.6826 23.12 16.1792 23.1919 15.6399 23.1919C14.8848 23.1919 14.0938 23.0481 13.3747 22.8324L15.1365 19.6323C15.3163 19.4166 15.6039 19.3447 15.8556 19.4885C15.9635 19.5604 16.0354 19.6323 16.1433 19.7402L17.8691 22.8683C17.6534 22.9043 17.4377 22.9403 17.186 23.0122ZM21.5726 19.884C21.0332 20.747 20.2782 21.502 19.4152 22.0414L18.013 18.6615C17.941 18.3739 18.0849 18.0862 18.3366 17.9784C18.4444 17.9424 18.5523 17.9064 18.6602 17.9064L22.2557 18.5177C22.076 19.0211 21.8602 19.4885 21.5726 19.884Z" fill="white"/>
<path d="M174.205 22.4728C174.708 22.5087 175.248 22.4368 175.715 22.257C176.003 22.1132 176.183 21.7896 176.147 21.466C176.111 21.1064 175.895 20.7828 175.571 20.675C175.032 20.3514 174.421 20.0637 173.81 19.8839C173.198 19.6682 172.659 19.4165 172.156 19.1648C171.688 18.9491 171.293 18.6614 170.897 18.3019C170.538 17.9423 170.286 17.5468 170.106 17.0794C169.89 16.54 169.818 15.9648 169.818 15.3895C169.783 14.2029 170.322 13.0523 171.257 12.3332C172.228 11.5781 173.522 11.2186 175.176 11.2186C175.967 11.2186 176.794 11.2905 177.585 11.4703C178.196 11.5781 178.807 11.722 179.419 11.9377L178.736 14.9939C178.232 14.8142 177.765 14.7063 177.261 14.5625C176.686 14.4187 176.075 14.3827 175.499 14.3827C174.277 14.3827 173.666 14.7063 173.666 15.3895C173.666 15.5333 173.702 15.6771 173.738 15.8209C173.81 15.9648 173.917 16.0726 174.061 16.1805C174.205 16.2884 174.421 16.3962 174.673 16.54C174.924 16.6839 175.284 16.8277 175.715 16.9715C176.434 17.2232 177.153 17.5468 177.801 17.9064C178.304 18.1581 178.736 18.4817 179.095 18.9131C179.419 19.2367 179.634 19.6322 179.778 20.0997C179.922 20.6031 179.994 21.1064 179.994 21.6098C180.066 22.8323 179.491 24.0189 178.448 24.702C177.441 25.3852 176.003 25.7447 174.133 25.7447C173.09 25.7807 172.084 25.6728 171.077 25.4211C170.502 25.2773 169.962 25.0975 169.423 24.9178L170.07 21.7536C170.717 22.0053 171.401 22.2211 172.084 22.3649C172.803 22.4008 173.486 22.4728 174.205 22.4728ZM154.393 18.5176C154.357 17.4389 154.573 16.3603 154.933 15.3535C155.256 14.4906 155.76 13.7355 156.407 13.0523C157.018 12.4411 157.701 11.9737 158.492 11.686C159.283 11.3624 160.11 11.2186 160.937 11.2186C162.879 11.2186 164.425 11.8298 165.54 13.0164C166.654 14.2029 167.23 15.9648 167.23 18.2659C167.23 18.4817 167.23 18.7334 167.194 19.021C167.194 19.3086 167.158 19.5244 167.158 19.7401H158.385C158.456 20.4952 158.852 21.2143 159.499 21.6458C160.29 22.1492 161.225 22.4008 162.16 22.3649C162.843 22.3649 163.562 22.293 164.245 22.1851C164.821 22.0772 165.396 21.8975 165.935 21.6458L166.475 24.8099C166.223 24.9537 165.935 25.0256 165.648 25.1335C165.252 25.2414 164.857 25.3492 164.461 25.3852C164.03 25.4571 163.598 25.529 163.095 25.6009C162.627 25.6369 162.124 25.6728 161.621 25.6728C160.506 25.7088 159.427 25.529 158.385 25.1335C157.522 24.8099 156.767 24.3065 156.119 23.6593C155.508 23.0121 155.077 22.2211 154.789 21.3941C154.537 20.4233 154.393 19.4525 154.393 18.5176ZM163.49 17.0434C163.49 16.7198 163.418 16.3962 163.31 16.0726C163.239 15.749 163.059 15.4973 162.879 15.2456C162.663 14.9939 162.412 14.7782 162.124 14.6344C161.764 14.4546 161.405 14.3827 161.009 14.3827C160.614 14.3827 160.254 14.4546 159.895 14.6344C159.607 14.7782 159.319 14.958 159.104 15.2097C158.888 15.4614 158.708 15.749 158.6 16.0726C158.492 16.3962 158.42 16.7198 158.385 17.0434H163.49ZM143.858 8.12638L147.742 7.51513V11.5422H152.416V14.7782H147.742V19.5963C147.706 20.2795 147.849 20.9626 148.173 21.5379C148.461 22.0053 149.036 22.257 149.935 22.257C150.366 22.257 150.798 22.2211 151.193 22.1492C151.625 22.0772 152.02 21.9694 152.416 21.8256L152.955 24.8458C152.452 25.0616 151.912 25.2054 151.373 25.3492C150.69 25.493 149.971 25.565 149.252 25.565C148.353 25.6009 147.454 25.4571 146.627 25.1335C145.98 24.8818 145.404 24.4503 144.973 23.9469C144.542 23.4076 144.254 22.7604 144.074 22.0772C143.894 21.2862 143.822 20.4592 143.858 19.6682V8.12638ZM128.146 18.5176C128.11 17.4389 128.325 16.3603 128.685 15.3535C129.009 14.4906 129.512 13.7355 130.159 13.0523C130.77 12.4411 131.454 11.9737 132.245 11.686C133.036 11.3624 133.863 11.2186 134.69 11.2186C136.631 11.2186 138.177 11.8298 139.292 13.0164C140.407 14.2029 140.982 15.9648 140.982 18.2659C140.982 18.4817 140.982 18.7334 140.946 19.021C140.91 19.3086 140.91 19.5244 140.91 19.7401H132.101C132.173 20.4952 132.568 21.2143 133.215 21.6458C134.006 22.1492 134.941 22.4008 135.876 22.3649C136.559 22.3649 137.278 22.293 137.962 22.1851C138.537 22.0772 139.112 21.8975 139.687 21.6458L140.227 24.8099C139.975 24.9537 139.687 25.0256 139.4 25.1335C139.004 25.2414 138.609 25.3492 138.213 25.3852C137.782 25.4571 137.35 25.529 136.847 25.6009C136.38 25.6369 135.876 25.6728 135.373 25.6728C134.258 25.7088 133.179 25.529 132.137 25.1335C131.274 24.8099 130.519 24.3065 129.872 23.6593C129.26 23.0121 128.829 22.2211 128.541 21.3941C128.254 20.4233 128.11 19.4525 128.146 18.5176ZM137.242 17.0434C137.242 16.7198 137.171 16.3962 137.063 16.0726C136.991 15.749 136.811 15.4973 136.631 15.2456C136.416 14.9939 136.164 14.7782 135.876 14.6344C135.517 14.4546 135.157 14.3827 134.762 14.3827C134.366 14.3827 134.006 14.4546 133.647 14.6344C133.359 14.7782 133.108 14.958 132.892 15.2097C132.676 15.4614 132.496 15.749 132.388 16.0726C132.281 16.3962 132.209 16.7198 132.173 17.0434H137.242ZM113.404 12.0096C114.231 11.7939 115.094 11.6141 115.957 11.4703C117.035 11.2905 118.15 11.2186 119.229 11.2186C120.199 11.1826 121.17 11.3624 122.105 11.686C122.824 11.9377 123.471 12.3692 123.939 12.9445C124.406 13.5198 124.73 14.2029 124.91 14.922C125.125 15.749 125.197 16.612 125.197 17.4749V25.2054H121.35V17.9783C121.35 16.7198 121.17 15.8569 120.847 15.3175C120.523 14.8142 119.912 14.5265 119.013 14.5265C118.725 14.5265 118.438 14.5265 118.114 14.5625C117.79 14.5625 117.539 14.5984 117.287 14.6344V25.2054H113.404V12.0096ZM110.671 14.9939C110.312 14.922 109.916 14.8142 109.449 14.7423C108.945 14.6344 108.442 14.5984 107.938 14.5984C107.651 14.5984 107.363 14.6344 107.04 14.6703C106.788 14.7063 106.536 14.7423 106.285 14.8142V25.2773H102.401V12.2613C103.192 11.9737 104.019 11.7579 104.846 11.5781C105.889 11.3264 106.968 11.2186 108.01 11.2545C108.262 11.2545 108.514 11.2905 108.765 11.2905C109.053 11.2905 109.341 11.3264 109.664 11.3984C109.952 11.4343 110.24 11.4703 110.563 11.5422C110.815 11.5781 111.067 11.6501 111.318 11.7579L110.671 14.9939ZM86.5448 18.5176C86.5088 17.4389 86.7245 16.3603 87.0841 15.3535C87.4077 14.4906 87.9111 13.7355 88.5583 13.0523C89.1695 12.4411 89.8527 11.9737 90.6437 11.686C91.4348 11.3624 92.2617 11.2186 93.0887 11.2186C95.0303 11.2186 96.5764 11.8298 97.6911 13.0164C98.8057 14.2029 99.381 15.9648 99.381 18.23C99.381 18.4457 99.381 18.6974 99.345 18.985C99.3091 19.2727 99.3091 19.4884 99.3091 19.7042H90.4999C90.5718 20.4592 90.9673 21.1783 91.6145 21.6098C92.4056 22.1132 93.3404 22.3649 94.2753 22.3289C94.9584 22.3289 95.6775 22.257 96.3607 22.1492C96.936 22.0413 97.5113 21.8615 98.0506 21.6458L98.59 24.8099C98.3383 24.9537 98.0506 25.0256 97.763 25.1335C97.3675 25.2414 96.972 25.3492 96.5764 25.3852C96.145 25.4571 95.7135 25.529 95.2101 25.6009C94.7427 25.6369 94.2393 25.6728 93.7359 25.6728C92.6213 25.7088 91.5426 25.529 90.4999 25.1335C89.637 24.8099 88.8819 24.3065 88.2347 23.6593C87.6234 23.0121 87.192 22.2211 86.9043 21.3941C86.6886 20.4233 86.5448 19.4884 86.5448 18.5176ZM95.6775 17.0434C95.6775 16.7198 95.6056 16.3962 95.4978 16.0726C95.4258 15.749 95.2461 15.4973 95.0663 15.2456C94.8506 14.9939 94.5989 14.7782 94.3112 14.6344C93.9517 14.4546 93.5921 14.3827 93.1966 14.3827C92.8011 14.3827 92.4415 14.4546 92.082 14.6344C91.7943 14.7782 91.5067 14.958 91.2909 15.2097C91.0752 15.4614 90.8954 15.749 90.7875 16.0726C90.6797 16.3962 90.6078 16.7198 90.5718 17.0434H95.6775ZM80.2525 18.3019C80.2525 15.785 79.3176 14.5625 77.4839 14.5625C77.0884 14.5625 76.6929 14.5984 76.2973 14.7063C75.9737 14.7782 75.6501 14.922 75.3625 15.1018V22.1492C75.5423 22.1851 75.794 22.2211 76.0816 22.257C76.3693 22.293 76.6929 22.293 77.0524 22.293C77.9873 22.3649 78.8862 21.9694 79.4615 21.2143C80.0008 20.3514 80.2884 19.3446 80.2525 18.3019ZM84.2076 18.4457C84.2076 19.4525 84.0638 20.4592 83.7042 21.43C83.4166 22.293 82.9492 23.048 82.3379 23.6953C81.6907 24.3425 80.9356 24.8458 80.1087 25.1694C79.1379 25.529 78.1311 25.6728 77.0884 25.6728C76.621 25.6728 76.1176 25.6369 75.6142 25.6009C75.1108 25.565 74.6074 25.493 74.104 25.4571C73.6366 25.3852 73.1692 25.3133 72.7018 25.2054C72.2343 25.1335 71.8388 25.0256 71.5152 24.8818V5.64543L75.3984 5.03418V11.8658C75.8299 11.686 76.2973 11.5422 76.7648 11.4343C77.2682 11.3264 77.7715 11.2905 78.2749 11.2905C79.1738 11.2905 80.0368 11.4343 80.8637 11.8298C81.5829 12.1534 82.2301 12.6568 82.7334 13.2681C83.2728 13.9512 83.6683 14.7063 83.884 15.5333C84.0998 16.4322 84.2076 17.4389 84.2076 18.4457ZM67.8118 24.7739C66.9848 24.9897 66.1218 25.1694 65.2589 25.2773C64.1802 25.4571 63.0656 25.529 61.9869 25.529C60.9802 25.565 60.0094 25.3852 59.0745 25.0616C58.3554 24.7739 57.7441 24.3425 57.2408 23.7672C56.7733 23.1559 56.4497 22.4728 56.2699 21.7177C56.0542 20.8907 55.9823 19.9918 55.9823 19.1289V11.5422H59.8655V18.6974C59.8655 19.9558 60.0453 20.8547 60.3689 21.3941C60.6925 21.9334 61.3038 22.2211 62.2027 22.2211C62.4903 22.2211 62.778 22.2211 63.1016 22.1851C63.4252 22.1492 63.6768 22.1492 63.9285 22.0772V11.5422H67.8118V24.7739ZM45.1596 16.5041C45.5551 16.0726 45.9147 15.6411 46.3461 15.2097C46.7417 14.7423 47.1372 14.3108 47.5327 13.8793C47.9282 13.4119 48.2878 13.0164 48.6114 12.6209C48.935 12.2253 49.2586 11.8658 49.5103 11.5781H54.1126C53.1777 12.6209 52.2789 13.6636 51.4159 14.6344C50.517 15.6052 49.5822 16.612 48.5394 17.6187C49.1147 18.1581 49.6541 18.6974 50.1575 19.3086C50.6968 19.9558 51.2361 20.6031 51.7755 21.3222C52.2789 22.0053 52.7822 22.7244 53.2137 23.4076C53.6452 24.0908 54.0047 24.738 54.2924 25.3133H49.8339C49.5462 24.8458 49.2226 24.3784 48.863 23.8391C48.5035 23.2997 48.108 22.7604 47.7484 22.1851C47.3529 21.6458 46.9214 21.1064 46.454 20.6031C46.0585 20.1356 45.627 19.7042 45.1596 19.3446V25.3492H41.2764V5.64543L45.1596 5.03418V16.5041Z" fill="#989898"/>
</svg>
