<svg width="91" height="38" viewBox="0 0 91 38" fill="none" xmlns="http://www.w3.org/2000/svg">
<path fill-rule="evenodd" clip-rule="evenodd" d="M30.9355 7.7587L18.9389 0.63749C17.507 -0.212497 15.7421 -0.212497 14.3103 0.63749L2.31369 7.7587C0.882243 8.60868 0 10.1792 0 11.8792V26.1216C0 27.8211 0.882243 29.3925 2.31411 30.2425L14.3107 37.3624C15.0266 37.7877 15.8251 37.9996 16.6248 37.9996C17.4241 37.9996 18.2226 37.7877 18.9385 37.3624L30.9351 30.2425C32.3669 29.3925 33.2496 27.8211 33.2496 26.1216V11.8792C33.2496 10.1792 32.3669 8.60868 30.9355 7.7587Z" fill="#FEFEFE"/>
<path fill-rule="evenodd" clip-rule="evenodd" d="M14.73 36.6332L2.73345 29.5133C1.56005 28.8166 0.831135 27.5171 0.831135 26.1213V11.8793C0.831135 10.4835 1.56005 9.18396 2.73303 8.48772L14.73 1.36651C15.3052 1.0251 15.9604 0.844541 16.6248 0.844541C17.2888 0.844541 17.944 1.0251 18.5196 1.36651L30.5162 8.48772C31.5048 9.07463 32.1717 10.0909 32.3594 11.2308C31.9614 10.3817 31.0641 10.1508 30.0185 10.7616L18.6691 17.7718C17.254 18.5992 16.2105 19.5275 16.2097 21.2338V35.2185C16.2088 36.2403 16.6215 36.9022 17.2553 37.094C17.0471 37.1301 16.8372 37.1552 16.6248 37.1552C15.9604 37.1552 15.3052 36.9746 14.73 36.6332ZM30.9355 7.75838L18.9389 0.637595C18.223 0.212392 17.4237 0 16.6248 0C15.8255 0 15.0262 0.212392 14.3103 0.637595L2.31369 7.75838C0.882243 8.60837 0 10.1793 0 11.8793V26.1213C0 27.8208 0.882244 29.3922 2.31411 30.2422L14.3107 37.3626C15.027 37.7873 15.8255 37.9997 16.6248 37.9997C17.4241 37.9997 18.2226 37.7873 18.9385 37.3626L30.9355 30.2422C32.3674 29.3922 33.2496 27.8208 33.2496 26.1213V11.8793C33.2496 10.1793 32.3674 8.60837 30.9355 7.75838Z" fill="#989898"/>
<path fill-rule="evenodd" clip-rule="evenodd" d="M27.7907 27.4987L24.8034 29.2866C24.7242 29.3327 24.6659 29.3846 24.6655 29.4797V30.2614C24.6655 30.357 24.7296 30.3968 24.8088 30.3503L27.8422 28.5066C27.9214 28.4605 27.9335 28.3721 27.9339 28.277V27.5875C27.9339 27.4924 27.8698 27.4526 27.7907 27.4987Z" fill="white"/>
<path fill-rule="evenodd" clip-rule="evenodd" d="M21.4296 20.9184C21.5264 20.8694 21.606 20.9297 21.6072 21.0562L21.6173 22.0897C22.05 21.9175 22.4258 21.8714 22.7664 21.9502C22.8401 21.9699 22.8728 22.0704 22.8426 22.1898L22.6152 23.1055C22.5976 23.1747 22.5586 23.2446 22.5117 23.2882C22.492 23.3075 22.4719 23.3225 22.4518 23.3326C22.4212 23.3481 22.391 23.3531 22.3621 23.3473C22.2067 23.3121 21.8372 23.2312 21.2558 23.5257C20.6458 23.8345 20.4326 24.3644 20.4368 24.7578C20.4418 25.2274 20.6827 25.3698 21.5147 25.384C22.6231 25.4025 23.1019 25.8867 23.1137 27.0032C23.125 28.0995 22.5397 29.2766 21.6445 29.998L21.6642 31.021C21.6655 31.1442 21.5855 31.2854 21.4887 31.3344L20.8829 31.6833C20.7857 31.7323 20.7061 31.672 20.7049 31.5489L20.6944 30.5426C20.1754 30.7584 19.6496 30.8103 19.3137 30.6754C19.2504 30.6507 19.2232 30.5573 19.2483 30.4509L19.4678 29.5259C19.4854 29.453 19.524 29.3801 19.5763 29.3336C19.5947 29.3156 19.614 29.3018 19.6333 29.2921C19.6681 29.2745 19.702 29.2708 19.7309 29.2817C20.0928 29.4036 20.5557 29.3466 21.0011 29.1212C21.5666 28.8351 21.9449 28.2582 21.939 27.6852C21.9336 27.1653 21.6521 26.9491 20.9675 26.9441C20.0962 26.9466 19.2839 26.7749 19.2705 25.4921C19.2596 24.436 19.8088 23.3372 20.6781 22.6422L20.6672 21.6096C20.6659 21.4827 20.7434 21.3432 20.8431 21.2929L21.4296 20.9184Z" fill="#FEFEFE"/>
<path fill-rule="evenodd" clip-rule="evenodd" d="M41.2763 20.07H43.9201C44.2934 20.0817 44.6427 20.142 44.959 20.2484C45.2602 20.349 45.525 20.4943 45.7466 20.6799C45.9632 20.8617 46.1295 21.0787 46.2535 21.3414C46.375 21.6007 46.434 21.9082 46.4277 22.2664C46.4277 22.6044 46.3611 22.9056 46.2292 23.162C46.093 23.4268 45.9142 23.6438 45.6842 23.8247C45.4441 24.0128 45.1622 24.1624 44.8467 24.2692C44.525 24.3777 44.1794 24.4364 43.83 24.4418H41.2763V20.07ZM45.8178 16.1744C45.68 16.4086 45.5049 16.6005 45.2824 16.7605C45.0516 16.926 44.7826 17.0554 44.4814 17.1438C44.1689 17.2364 43.8451 17.2863 43.5305 17.2921H41.2763V13.5637H43.4635C43.8149 13.57 44.1622 13.6136 44.4965 13.694C44.804 13.7673 45.0771 13.8825 45.3076 14.035C45.5233 14.1779 45.6909 14.3568 45.8203 14.5813C45.9439 14.7966 46.0067 15.0727 46.0067 15.4015C46.0067 15.7048 45.9447 15.9574 45.8178 16.1744ZM48.7649 19.5526C48.4658 19.1915 48.1051 18.879 47.6929 18.6239C47.6422 18.5929 47.5911 18.5627 47.5391 18.533C47.868 18.3134 48.1604 18.055 48.4097 17.7638C48.6761 17.4526 48.8876 17.0977 49.0397 16.7102C49.1926 16.3202 49.2743 15.8867 49.2831 15.4175C49.2915 14.6039 49.121 13.888 48.7758 13.2889C48.4365 12.6999 47.9752 12.209 47.4055 11.8282C46.8529 11.4599 46.2166 11.1847 45.5137 11.0096C44.8329 10.8404 44.127 10.7507 43.4086 10.7432H38.6065C38.2714 10.7432 37.9995 11.0016 37.9995 11.3204V26.6742C37.9995 26.993 38.2714 27.2515 38.6065 27.2515H43.781C44.5259 27.244 45.2594 27.1317 45.9611 26.9185C46.6737 26.7015 47.3138 26.3839 47.8638 25.9738C48.4268 25.5545 48.8818 25.027 49.2161 24.4066C49.5558 23.7774 49.7238 23.0481 49.7154 22.245C49.7154 21.7255 49.6312 21.2325 49.4657 20.7796C49.3003 20.3272 49.0644 19.9146 48.7649 19.5526Z" fill="#989898"/>
<path fill-rule="evenodd" clip-rule="evenodd" d="M58.6033 20.424H55.9524L57.2883 16.3072L58.6033 20.424ZM58.7361 11.1453C58.6561 10.9057 58.4224 10.7432 58.1576 10.7432H56.4388C56.1753 10.7432 55.9424 10.9044 55.8615 11.1428L50.6489 26.497C50.5894 26.6726 50.6217 26.8644 50.736 27.014C50.8504 27.1631 51.0326 27.2511 51.2266 27.2511H53.2784C53.544 27.2511 53.7791 27.0865 53.8578 26.8452L55.0228 23.2751H59.5157L60.6602 26.8426C60.7381 27.0856 60.974 27.2511 61.2408 27.2511H63.2814C63.4749 27.2511 63.6567 27.1635 63.7711 27.0148C63.8855 26.8665 63.9182 26.6751 63.8595 26.4995L58.7361 11.1453Z" fill="#989898"/>
<path fill-rule="evenodd" clip-rule="evenodd" d="M76.1896 20.1463C75.9152 19.7944 75.5914 19.4764 75.2256 19.2C74.8742 18.9335 74.4909 18.6922 74.0866 18.4811C73.6899 18.2741 73.2705 18.0881 72.8399 17.9273C72.426 17.774 72.0067 17.6332 71.5877 17.5075C71.2325 17.4041 70.8521 17.2826 70.4571 17.1468C70.0905 17.0216 69.7462 16.8628 69.4332 16.6747C69.1501 16.5046 68.9146 16.2956 68.7328 16.053C68.5753 15.8427 68.4957 15.5818 68.4907 15.2646C68.4907 14.95 68.5523 14.6874 68.6796 14.4603C68.8128 14.2236 68.9863 14.0297 69.21 13.8684C69.4416 13.7008 69.7122 13.5726 70.0139 13.4876C70.7193 13.2878 71.5107 13.3175 72.0825 13.5299C72.3921 13.6447 72.6619 13.8072 72.883 14.0116C73.1076 14.2194 73.2911 14.4737 73.4289 14.767C73.5738 15.0757 73.6735 15.4276 73.7251 15.8122C73.7632 16.1 74.0212 16.3161 74.3271 16.3161H76.4338C76.5972 16.3161 76.7534 16.2541 76.8674 16.1431C76.9818 16.0325 77.0442 15.8825 77.0408 15.7275C77.0241 14.9408 76.8418 14.2144 76.4987 13.5693C76.1594 12.9329 75.7015 12.3825 75.1385 11.933C74.583 11.4902 73.9383 11.1425 73.2224 10.8982C71.8638 10.4362 70.354 10.4115 68.9117 10.8383C68.218 11.044 67.5879 11.3503 67.0391 11.7474C66.4795 12.1521 66.0203 12.6556 65.6743 13.2425C65.3174 13.8474 65.1364 14.5382 65.1364 15.2965C65.1364 16.0597 65.3203 16.7392 65.6827 17.3165C66.0266 17.864 66.4757 18.3454 67.0173 18.7463C67.5389 19.1329 68.1233 19.4626 68.7538 19.7265C69.3591 19.98 69.9623 20.1995 70.548 20.3801C70.9326 20.4978 71.3335 20.6285 71.7507 20.7734C72.1298 20.9054 72.4817 21.0717 72.7959 21.2677C73.0841 21.4475 73.3129 21.6615 73.4938 21.9213C73.6534 22.1508 73.7309 22.4361 73.7309 22.7943C73.7309 23.1127 73.6648 23.3728 73.5286 23.5894C73.3799 23.8261 73.1939 24.0163 72.9605 24.1709C72.7176 24.3309 72.4348 24.4515 72.1181 24.5286C71.359 24.7146 70.5333 24.6853 69.8823 24.4855C69.5334 24.3786 69.2225 24.219 68.9586 24.0108C68.6955 23.8035 68.4769 23.5454 68.308 23.2446C68.1363 22.9388 68.0207 22.5769 67.9641 22.1701C67.9243 21.8831 67.6667 21.6687 67.3625 21.6687H65.2667C65.1025 21.6687 64.9454 21.7315 64.8314 21.8433C64.7171 21.9552 64.6551 22.1064 64.6597 22.2623C64.6848 23.0846 64.8938 23.8328 65.2813 24.4859C65.6596 25.1239 66.159 25.6714 66.7652 26.1142C67.3604 26.5499 68.0437 26.888 68.7952 27.1188C69.5396 27.3471 70.3113 27.4627 71.0888 27.4627C71.7842 27.4627 72.4888 27.3685 73.1826 27.1829C73.8889 26.9939 74.5332 26.7066 75.097 26.3295C75.6751 25.9429 76.1531 25.4527 76.5172 24.8717C76.8942 24.2706 77.0852 23.5638 77.0852 22.7729C77.0852 22.2547 77.0048 21.7704 76.8464 21.3344C76.6898 20.9041 76.469 20.5045 76.1896 20.1463Z" fill="#989898"/>
<path fill-rule="evenodd" clip-rule="evenodd" d="M89.6419 10.7432H87.7011C87.366 10.7432 87.0941 11.0012 87.0941 11.32V17.3445H81.6875V11.32C81.6875 11.0012 81.4161 10.7432 81.0809 10.7432H79.151C78.8158 10.7432 78.5439 11.0012 78.5439 11.32V26.6742C78.5439 26.993 78.8158 27.2511 79.151 27.2511H81.0809C81.4161 27.2511 81.6875 26.993 81.6875 26.6742V20.1542H87.0941V26.6742C87.0941 26.993 87.366 27.2511 87.7011 27.2511H89.6419C89.9771 27.2511 90.249 26.993 90.249 26.6742V11.32C90.249 11.0012 89.9771 10.7432 89.6419 10.7432Z" fill="#989898"/>
<path fill-rule="evenodd" clip-rule="evenodd" d="M39.8557 29.9131H39.1214V31.8778H38.7288V29.9131H37.9995V29.6035H39.8557V29.9131Z" fill="#989898"/>
<path fill-rule="evenodd" clip-rule="evenodd" d="M42.1165 31.8778H41.7324V30.8628H40.9193V31.8778H40.5364V29.6035H40.9193V30.5549H41.7324V29.6035H42.1165V31.8778Z" fill="#989898"/>
<path fill-rule="evenodd" clip-rule="evenodd" d="M44.3743 30.8578H43.3903V31.5716H44.5419V31.8774H42.9944V29.6035H44.5301V29.9127H43.3903V30.5545H44.3743V30.8578Z" fill="#989898"/>
<path fill-rule="evenodd" clip-rule="evenodd" d="M48.1781 30.8469V31.5716H48.6083C48.6708 31.5708 48.7277 31.5615 48.7793 31.5444C48.8308 31.5272 48.8748 31.5033 48.9125 31.4732C48.9493 31.443 48.9787 31.4061 49 31.3621C49.0214 31.3186 49.0323 31.27 49.0323 31.2155C49.0323 31.1581 49.0231 31.107 49.0042 31.0618C48.9854 31.0161 48.9586 30.978 48.9238 30.9466C48.8886 30.9156 48.8459 30.8913 48.7956 30.8741C48.7453 30.8569 48.6888 30.8481 48.6264 30.8469H48.1781ZM48.1781 30.5607H48.556C48.615 30.5599 48.6699 30.5524 48.721 30.5381C48.7717 30.5243 48.8157 30.5034 48.853 30.4757C48.8903 30.4485 48.92 30.4145 48.9418 30.3743C48.9636 30.3341 48.9745 30.288 48.9745 30.2365C48.9745 30.1791 48.9644 30.1301 48.9435 30.089C48.9225 30.0488 48.8932 30.0153 48.8555 29.9893C48.8178 29.9638 48.7734 29.9445 48.7219 29.9324C48.6703 29.9202 48.6138 29.9139 48.5526 29.9127H48.1781V30.5607ZM47.7822 31.8778V29.6035H48.5459C48.6611 29.6048 48.7684 29.6173 48.8685 29.6412C48.969 29.6651 49.0566 29.7024 49.1316 29.7522C49.2066 29.8021 49.2652 29.8658 49.3079 29.9433C49.3507 30.0208 49.3716 30.1129 49.3703 30.2193C49.3695 30.3316 49.3364 30.4275 49.2719 30.5071C49.2074 30.5871 49.1203 30.6487 49.0109 30.6923C49.0775 30.7099 49.137 30.7354 49.189 30.7681C49.2409 30.8008 49.2845 30.8402 49.3197 30.8858C49.3544 30.9319 49.3817 30.9826 49.4001 31.0379C49.4185 31.094 49.4282 31.1531 49.4282 31.2155C49.4282 31.3236 49.4072 31.4191 49.3653 31.5012C49.3239 31.5833 49.266 31.652 49.1923 31.7073C49.1182 31.7626 49.0306 31.8045 48.9296 31.833C48.8283 31.8619 48.7189 31.877 48.6016 31.8778H47.7822Z" fill="#989898"/>
<path fill-rule="evenodd" clip-rule="evenodd" d="M51.4147 30.594C51.4138 30.5086 51.4055 30.4235 51.39 30.3393C51.3749 30.2551 51.3489 30.1797 51.3129 30.1139C51.2764 30.0473 51.2287 29.9941 51.1692 29.9526C51.1093 29.9116 51.0347 29.8911 50.9451 29.8911C50.8563 29.8911 50.7825 29.9116 50.7239 29.9526C50.6656 29.9941 50.6187 30.0477 50.5844 30.1143C50.5496 30.181 50.5257 30.2559 50.5119 30.3401C50.4985 30.4239 50.491 30.5086 50.4897 30.594V30.8873C50.491 30.9727 50.4989 31.0573 50.5127 31.1415C50.5274 31.2253 50.5513 31.3007 50.586 31.3678C50.6204 31.4348 50.6673 31.4892 50.7255 31.5311C50.7842 31.5726 50.8579 31.5936 50.9467 31.5936C51.0364 31.5936 51.111 31.5726 51.1709 31.5311C51.2303 31.4892 51.2781 31.4352 51.3145 31.3686C51.3506 31.3016 51.3761 31.2266 51.3908 31.142C51.4055 31.0578 51.4138 30.9727 51.4147 30.8873V30.594ZM51.8105 30.8873C51.8105 31.0217 51.7925 31.1508 51.7561 31.2739C51.7201 31.3975 51.666 31.506 51.5944 31.6007C51.5228 31.6945 51.4331 31.7695 51.325 31.8252C51.2174 31.8809 51.0913 31.9086 50.9467 31.9086C50.803 31.9086 50.6782 31.8805 50.5722 31.8244C50.4658 31.7682 50.3774 31.6928 50.3066 31.599C50.2363 31.5047 50.183 31.3962 50.1474 31.2731C50.1118 31.1503 50.0942 31.0217 50.0942 30.8873V30.5969C50.0942 30.5073 50.1018 30.4202 50.1181 30.3347C50.1336 30.2492 50.1575 30.1688 50.1885 30.093C50.2199 30.0176 50.2589 29.948 50.305 29.8839C50.3515 29.8198 50.4063 29.765 50.4692 29.7193C50.5324 29.6732 50.6036 29.6372 50.6828 29.6112C50.7624 29.5857 50.8495 29.5723 50.9451 29.5723C51.0896 29.5723 51.2157 29.6003 51.3238 29.6569C51.4314 29.713 51.5215 29.7884 51.594 29.8823C51.666 29.9769 51.7201 30.0859 51.7561 30.2099C51.7925 30.3334 51.8105 30.4625 51.8105 30.5969V30.8873Z" fill="#989898"/>
<path fill-rule="evenodd" clip-rule="evenodd" d="M54.1504 29.6035L54.1538 31.1267C54.1525 31.2432 54.1328 31.35 54.0947 31.4459C54.0562 31.5423 54.0025 31.6248 53.9334 31.6935C53.8647 31.7622 53.7813 31.8154 53.6829 31.8527C53.5853 31.89 53.4755 31.9088 53.354 31.9088C53.2355 31.9088 53.1283 31.89 53.0319 31.8527C52.9355 31.8154 52.853 31.7626 52.7839 31.6943C52.7148 31.6261 52.6612 31.5435 52.623 31.4472C52.5845 31.3512 52.5648 31.244 52.564 31.1267L52.5673 29.6035H52.9548L52.9577 31.1267C52.959 31.1962 52.9682 31.2603 52.9858 31.3186C53.0034 31.3772 53.0285 31.4271 53.0616 31.469C53.0943 31.5113 53.135 31.5444 53.184 31.5678C53.2326 31.5913 53.2891 31.603 53.354 31.603C53.4194 31.603 53.4776 31.5913 53.5279 31.5678C53.5782 31.5444 53.6205 31.5113 53.6544 31.469C53.6883 31.4271 53.7139 31.3772 53.7319 31.3186C53.7491 31.2603 53.7583 31.1962 53.7596 31.1267L53.7629 29.6035H54.1504Z" fill="#989898"/>
<path fill-rule="evenodd" clip-rule="evenodd" d="M55.4013 30.6877H55.7641C55.8298 30.6877 55.8902 30.6789 55.945 30.6613C55.9995 30.6433 56.0468 30.6181 56.0871 30.5855C56.1269 30.5524 56.1578 30.5126 56.1796 30.4648C56.2014 30.4179 56.2127 30.363 56.2127 30.3019C56.2127 30.2382 56.2023 30.182 56.1813 30.1334C56.1604 30.084 56.1306 30.043 56.0917 30.0094C56.0531 29.9764 56.0058 29.9512 55.9496 29.934C55.8939 29.9169 55.8315 29.9077 55.7624 29.9068H55.4013V30.6877ZM55.8018 30.9906H55.4013V31.8774H55.0071V29.6035H55.7624C55.8851 29.6048 55.9982 29.6194 56.1017 29.6483C56.2052 29.6768 56.2948 29.7196 56.3702 29.7761C56.4461 29.8331 56.5043 29.9039 56.5458 29.9893C56.5877 30.0748 56.6082 30.1745 56.6082 30.2893C56.6082 30.3664 56.5977 30.4363 56.5764 30.4992C56.555 30.5624 56.5252 30.6194 56.4867 30.6705C56.4486 30.7212 56.4025 30.766 56.3489 30.8046C56.2953 30.8435 56.2362 30.8762 56.1717 30.903L56.6773 31.859V31.8774H56.2571L55.8018 30.9906Z" fill="#989898"/>
<path fill-rule="evenodd" clip-rule="evenodd" d="M58.953 31.8778H58.5555L57.7771 30.3132L57.7754 31.8778H57.3762V29.6035H57.7754L58.5509 31.1644L58.5542 29.6035H58.953V31.8778Z" fill="#989898"/>
<path fill-rule="evenodd" clip-rule="evenodd" d="M61.2124 30.8578H60.2284V31.5716H61.38V31.8774H59.8325V29.6035H61.3683V29.9127H60.2284V30.5545H61.2124V30.8578Z" fill="#989898"/>
<path fill-rule="evenodd" clip-rule="evenodd" d="M62.3813 31.0307H63.6968V30.7295H62.3813V31.0307Z" fill="#989898"/>
<path fill-rule="evenodd" clip-rule="evenodd" d="M65.1348 31.0295H65.6832L65.4126 30.1381L65.1348 31.0295ZM65.7821 31.35H65.0347L64.8705 31.8778H64.4629L65.24 29.6035H65.5864L66.3489 31.8778H65.9429L65.7821 31.35Z" fill="#989898"/>
<path fill-rule="evenodd" clip-rule="evenodd" d="M68.6324 31.5936C68.5922 31.6392 68.5444 31.6815 68.4895 31.7201C68.4346 31.7586 68.3735 31.7917 68.3056 31.8198C68.2378 31.8478 68.164 31.8696 68.0849 31.8855C68.0053 31.901 67.9206 31.9086 67.831 31.9086C67.6873 31.9086 67.5604 31.8822 67.4498 31.829C67.3392 31.7762 67.2458 31.7037 67.1699 31.6116C67.0937 31.519 67.0359 31.4105 66.9957 31.2856C66.9559 31.1608 66.9353 31.0263 66.9341 30.8826V30.602C66.9341 30.4579 66.9538 30.3238 66.9932 30.199C67.0325 30.0737 67.0891 29.9652 67.1632 29.8722C67.2374 29.7792 67.3279 29.7063 67.4351 29.6531C67.5424 29.5991 67.6651 29.5723 67.8029 29.5723C67.9265 29.5723 68.0371 29.5886 68.1347 29.6204C68.2323 29.6531 68.3161 29.6996 68.3861 29.7608C68.456 29.8215 68.5117 29.8957 68.5528 29.9832C68.5938 30.0704 68.6198 30.1684 68.6307 30.2769H68.2432C68.2336 30.2153 68.2181 30.16 68.1971 30.1114C68.1762 30.0624 68.1485 30.0205 68.1133 29.9862C68.0782 29.9518 68.0358 29.9258 67.986 29.9074C67.9361 29.889 67.8775 29.8802 67.8096 29.8802C67.7263 29.8802 67.655 29.8994 67.5951 29.9384C67.5357 29.9778 67.4862 30.0301 67.4468 30.0963C67.4075 30.1625 67.3781 30.2392 67.3593 30.3259C67.3409 30.413 67.3308 30.5039 67.33 30.5986V30.8826C67.3308 30.9773 67.3413 31.0682 67.3601 31.1545C67.3794 31.2408 67.4096 31.3175 67.4506 31.3833C67.4917 31.4494 67.5445 31.5022 67.609 31.542C67.6739 31.5814 67.7514 31.6019 67.8423 31.6028C67.8796 31.6028 67.9181 31.6007 67.9575 31.5961C67.9969 31.591 68.0346 31.5835 68.0698 31.5734C68.1054 31.5625 68.1381 31.5496 68.1678 31.5336C68.1971 31.5169 68.2214 31.4972 68.2399 31.4729L68.2432 31.0184H67.8113V30.7268H68.629L68.6324 31.5936Z" fill="#989898"/>
<path fill-rule="evenodd" clip-rule="evenodd" d="M69.9456 31.0295H70.494L70.2234 30.1381L69.9456 31.0295ZM70.5929 31.35H69.8455L69.6813 31.8778H69.2737L70.0508 29.6035H70.3972L71.1597 31.8778H70.7537L70.5929 31.35Z" fill="#989898"/>
<path fill-rule="evenodd" clip-rule="evenodd" d="M71.8914 29.6035H73.314V29.9144H72.7966V31.5687H73.314V31.8778H71.8914V31.5687H72.3974V29.9144H71.8914V29.6035Z" fill="#989898"/>
<path fill-rule="evenodd" clip-rule="evenodd" d="M75.7914 31.8778H75.3939L74.6155 30.3132L74.6138 31.8778H74.2146V29.6035H74.6138L75.3892 31.1644L75.3926 29.6035H75.7914V31.8778Z" fill="#989898"/>
<path fill-rule="evenodd" clip-rule="evenodd" d="M80.2967 31.2919C80.2967 31.2379 80.285 31.1901 80.2616 31.1491C80.2377 31.1076 80.2046 31.072 80.161 31.0402C80.1179 31.0092 80.0668 30.9819 80.0069 30.9585C79.9474 30.935 79.8824 30.9136 79.8121 30.8935C79.7182 30.8676 79.6252 30.8353 79.5339 30.7968C79.4422 30.7582 79.3609 30.7109 79.2892 30.6556C79.2172 30.5999 79.1594 30.5345 79.115 30.46C79.0706 30.3858 79.0484 30.2999 79.0484 30.2019C79.0484 30.1039 79.0706 30.0163 79.115 29.9384C79.1594 29.8609 79.2189 29.7955 79.293 29.7411C79.3676 29.687 79.4543 29.6452 79.5527 29.6158C79.6512 29.5869 79.7543 29.5723 79.8615 29.5723C79.9767 29.5723 80.0839 29.5894 80.1845 29.623C80.2846 29.6569 80.3722 29.7046 80.4471 29.7654C80.5221 29.8261 80.5816 29.899 80.6252 29.9836C80.6692 30.0687 80.6914 30.1629 80.6926 30.266H80.2984C80.293 30.2086 80.28 30.1562 80.2599 30.1089C80.2394 30.0616 80.2109 30.0205 80.1744 29.9862C80.1376 29.9518 80.0932 29.9254 80.0404 29.9066C79.988 29.8877 79.9273 29.8785 79.8581 29.8785C79.7991 29.8785 79.7442 29.886 79.6939 29.9003C79.6437 29.9145 79.6001 29.9363 79.5632 29.9644C79.5268 29.9924 79.4979 30.0264 79.4773 30.0657C79.4564 30.1055 79.4459 30.1504 79.4459 30.2002C79.4459 30.2534 79.4602 30.2995 79.4887 30.3385C79.5171 30.3774 79.5544 30.4118 79.6001 30.4407C79.6462 30.47 79.6994 30.4951 79.7589 30.5165C79.8188 30.5379 79.8808 30.5571 79.9453 30.5747C80.045 30.6032 80.1401 30.6376 80.231 30.679C80.3219 30.7201 80.4019 30.7695 80.471 30.8273C80.5397 30.8852 80.5946 30.9522 80.6352 31.028C80.6755 31.1038 80.696 31.191 80.696 31.289C80.696 31.39 80.6734 31.4788 80.6285 31.5558C80.5837 31.6329 80.5234 31.6979 80.448 31.7494C80.3722 31.8013 80.2846 31.8407 80.1853 31.8675C80.0856 31.8939 79.9813 31.9073 79.8728 31.9073C79.7995 31.9073 79.727 31.9006 79.6545 31.8868C79.5821 31.8738 79.513 31.8533 79.4468 31.826C79.3806 31.7992 79.319 31.7657 79.262 31.7255C79.205 31.6853 79.1556 31.6388 79.1133 31.5864C79.0714 31.5336 79.0379 31.475 79.014 31.4096C78.9897 31.3447 78.9772 31.2731 78.9763 31.1952H79.3718C79.3776 31.2639 79.3931 31.3233 79.4195 31.3745C79.4459 31.4256 79.4807 31.4683 79.5247 31.5018C79.5687 31.5357 79.6198 31.5617 79.6784 31.5789C79.7371 31.5956 79.8016 31.6044 79.8728 31.6044C79.9323 31.6044 79.9876 31.5973 80.0387 31.5843C80.0902 31.5705 80.1355 31.5504 80.1736 31.524C80.2117 31.4972 80.2419 31.4645 80.2641 31.4251C80.2859 31.3862 80.2967 31.3418 80.2967 31.2919Z" fill="#989898"/>
<path fill-rule="evenodd" clip-rule="evenodd" d="M83.0094 31.8778H82.6252V30.8628H81.8121V31.8778H81.4292V29.6035H81.8121V30.5549H82.6252V29.6035H83.0094V31.8778Z" fill="#989898"/>
<path fill-rule="evenodd" clip-rule="evenodd" d="M85.2671 30.8578H84.2831V31.5716H85.4347V31.8774H83.8872V29.6035H85.423V29.9127H84.2831V30.5545H85.2671V30.8578Z" fill="#989898"/>
<path fill-rule="evenodd" clip-rule="evenodd" d="M86.7035 31.5716H87.8434V31.8774H86.3093V29.6035H86.7035V31.5716Z" fill="#989898"/>
<path fill-rule="evenodd" clip-rule="evenodd" d="M89.109 31.5716H90.2489V31.8774H88.7148V29.6035H89.109V31.5716Z" fill="#989898"/>
</svg>
