<?xml version="1.0" encoding="UTF-8" standalone="no"?><!DOCTYPE svg PUBLIC "-//W3C//DTD SVG 1.1//EN" "http://www.w3.org/Graphics/SVG/1.1/DTD/svg11.dtd"><svg width="100%" height="100%" viewBox="0 0 142 35" version="1.1" xmlns="http://www.w3.org/2000/svg" xmlns:xlink="http://www.w3.org/1999/xlink" xml:space="preserve" xmlns:serif="http://www.serif.com/" style="fill-rule:evenodd;clip-rule:evenodd;stroke-linejoin:round;stroke-miterlimit:2;"><path d="M53.264,17.455c-0,-4.332 -1.236,-6.557 -3.707,-6.678c-0.983,-0.047 -1.943,0.11 -2.876,0.472c-0.746,0.267 -1.247,0.531 -1.511,0.798l-0,10.341c1.58,0.992 2.984,1.453 4.208,1.381c2.589,-0.171 3.886,-2.274 3.886,-6.314Zm3.047,0.18c-0,2.201 -0.516,4.028 -1.554,5.481c-1.157,1.645 -2.761,2.491 -4.811,2.538c-1.546,0.049 -3.138,-0.435 -4.776,-1.45l-0,9.399l-2.651,-0.946l-0,-20.862c0.435,-0.534 0.995,-0.992 1.673,-1.381c1.578,-0.919 3.495,-1.392 5.751,-1.415l0.038,0.038c2.062,-0.026 3.651,0.82 4.767,2.537c1.041,1.575 1.563,3.593 1.563,6.061Z" style="fill:#9ea5a7;fill-rule:nonzero;"/><path d="M72.511,23.804c-0,2.952 -0.296,4.996 -0.888,6.133c-0.594,1.137 -1.725,2.044 -3.395,2.72c-1.355,0.534 -2.819,0.824 -4.391,0.873l-0.438,-1.67c1.598,-0.218 2.723,-0.435 3.376,-0.653c1.284,-0.435 2.166,-1.102 2.65,-1.995c0.389,-0.728 0.58,-2.117 0.58,-4.173l-0,-0.69c-1.812,0.823 -3.712,1.232 -5.698,1.232c-1.305,-0 -2.457,-0.409 -3.448,-1.232c-1.114,-0.896 -1.671,-2.033 -1.671,-3.411l-0,-11.031l2.651,-0.908l-0,11.104c-0,1.186 0.383,2.1 1.148,2.741c0.766,0.64 1.758,0.948 2.973,0.925c1.215,-0.026 2.517,-0.496 3.9,-1.416l-0,-12.954l2.651,-0l-0,14.405Z" style="fill:#9ea5a7;fill-rule:nonzero;"/><path d="M82.858,25.509c-0.316,0.026 -0.606,0.037 -0.873,0.037c-1.499,0 -2.668,-0.356 -3.503,-1.073c-0.832,-0.716 -1.25,-1.705 -1.25,-2.966l-0,-10.44l-1.815,-0l-0,-1.668l1.815,-0l-0,-4.428l2.648,-0.943l-0,5.371l2.978,0l-0,1.668l-2.978,0l-0,10.367c-0,0.995 0.266,1.7 0.8,2.111c0.458,0.34 1.186,0.534 2.178,0.583l-0,1.381Z" style="fill:#9ea5a7;fill-rule:nonzero;"/><path d="M98.907,25.291l-2.651,0l-0,-10.231c-0,-1.041 -0.244,-1.938 -0.728,-2.686c-0.56,-0.847 -1.337,-1.27 -2.334,-1.27c-1.216,-0 -2.735,0.641 -4.559,1.923l-0,12.264l-2.651,-0l-0,-24.456l2.651,-0.835l-0,11.139c1.693,-1.233 3.544,-1.85 5.553,-1.85c1.404,-0 2.541,0.472 3.411,1.415c0.873,0.942 1.308,2.117 1.308,3.52l-0,11.067Z" style="fill:#9ea5a7;fill-rule:nonzero;"/><path d="M112.995,17.038c-0,-1.665 -0.316,-3.039 -0.946,-4.127c-0.748,-1.325 -1.911,-2.024 -3.483,-2.097c-2.905,0.169 -4.355,2.251 -4.355,6.241c-0,1.83 0.301,3.358 0.91,4.585c0.777,1.563 1.943,2.335 3.498,2.308c2.917,-0.023 4.376,-2.325 4.376,-6.91Zm2.903,0.017c-0,2.369 -0.606,4.341 -1.816,5.916c-1.331,1.763 -3.169,2.648 -5.516,2.648c-2.325,-0 -4.138,-0.885 -5.446,-2.648c-1.186,-1.575 -1.777,-3.547 -1.777,-5.916c-0,-2.227 0.64,-4.1 1.922,-5.626c1.355,-1.618 3.135,-2.43 5.336,-2.43c2.201,-0 3.994,0.812 5.374,2.43c1.282,1.526 1.923,3.399 1.923,5.626Z" style="fill:#9ea5a7;fill-rule:nonzero;"/><path d="M131.094,25.291l-2.651,0l-0,-10.811c-0,-1.186 -0.357,-2.111 -1.07,-2.778c-0.713,-0.664 -1.665,-0.986 -2.851,-0.96c-1.258,0.023 -2.456,0.435 -3.593,1.232l-0,13.317l-2.65,0l-0,-13.644c1.525,-1.111 2.929,-1.836 4.21,-2.175c1.21,-0.316 2.277,-0.473 3.196,-0.473c0.629,0 1.221,0.061 1.778,0.183c1.041,0.24 1.888,0.687 2.54,1.342c0.728,0.725 1.091,1.595 1.091,2.613l-0,12.154Z" style="fill:#9ea5a7;fill-rule:nonzero;"/><path d="M16.34,0.933c-1.364,0.006 -2.666,0.123 -3.812,0.325c-3.376,0.597 -3.989,1.845 -3.989,4.147l-0,3.04l7.977,0l-0,1.014l-10.971,0c-2.318,0 -4.348,1.393 -4.983,4.044c-0.733,3.039 -0.765,4.935 -0,8.108c0.567,2.361 1.921,4.044 4.239,4.044l2.743,0l-0,-3.644c-0,-2.633 2.278,-4.956 4.984,-4.956l7.968,0c2.218,0 3.988,-1.826 3.988,-4.054l-0,-7.596c-0,-2.162 -1.823,-3.786 -3.988,-4.147c-1.371,-0.228 -2.793,-0.331 -4.156,-0.325Zm-4.314,2.445c0.824,-0 1.497,0.684 1.497,1.525c-0,0.838 -0.673,1.515 -1.497,1.515c-0.827,-0 -1.497,-0.677 -1.497,-1.515c-0,-0.841 0.67,-1.525 1.497,-1.525Z" style="fill:#9ea5a7;fill-rule:nonzero;"/><path d="M25.479,9.459l-0,3.542c-0,2.747 -2.328,5.058 -4.983,5.058l-7.968,0c-2.183,0 -3.989,1.868 -3.989,4.054l-0,7.596c-0,2.162 1.88,3.434 3.989,4.054c2.525,0.742 4.947,0.877 7.968,0c2.008,-0.581 3.989,-1.752 3.989,-4.054l-0,-3.04l-7.969,0l-0,-1.013l11.957,0c2.319,0 3.183,-1.618 3.989,-4.045c0.833,-2.499 0.797,-4.902 -0,-8.107c-0.573,-2.309 -1.667,-4.045 -3.989,-4.045l-2.994,-0Zm-4.481,19.237c0.827,0 1.497,0.677 1.497,1.515c-0,0.841 -0.67,1.525 -1.497,1.525c-0.824,0 -1.497,-0.684 -1.497,-1.525c-0,-0.838 0.673,-1.515 1.497,-1.515Z" style="fill:#9ea5a7;fill-rule:nonzero;"/><path d="M136.255,7.035l0.465,-0l-0,-2.914l1.101,-0l-0,-0.348l-2.667,-0l-0,0.348l1.101,-0l-0,2.914Zm1.978,-0l0.397,-0l-0,-2.661l0.862,2.661l0.442,-0l0.898,-2.652l-0,2.652l0.433,-0l-0,-3.262l-0.573,-0l-0.981,2.795l-0.837,-2.795l-0.641,-0l-0,3.262Z" style="fill:#9ea5a7;fill-rule:nonzero;"/></svg>