<?xml version="1.0" encoding="UTF-8" standalone="no"?><!DOCTYPE svg PUBLIC "-//W3C//DTD SVG 1.1//EN" "http://www.w3.org/Graphics/SVG/1.1/DTD/svg11.dtd"><svg width="100%" height="100%" viewBox="0 0 114 39" version="1.1" xmlns="http://www.w3.org/2000/svg" xmlns:xlink="http://www.w3.org/1999/xlink" xml:space="preserve" xmlns:serif="http://www.serif.com/" style="fill-rule:evenodd;clip-rule:evenodd;stroke-linejoin:round;stroke-miterlimit:2;"><path d="M19.142,10.427c-1.725,0 -3.412,0.511 -4.846,1.47c-1.435,0.959 -2.553,2.321 -3.213,3.915c-0.661,1.594 -0.833,3.348 -0.497,5.04c0.337,1.692 1.168,3.247 2.388,4.467c1.22,1.22 2.774,2.05 4.466,2.387c1.692,0.337 3.446,0.164 5.04,-0.496c1.594,-0.661 2.957,-1.779 3.915,-3.213c0.959,-1.435 1.471,-3.121 1.471,-4.847c-0.003,-2.312 -0.923,-4.53 -2.559,-6.165c-1.635,-1.635 -3.852,-2.555 -6.165,-2.558Z" style="fill:#9ea5a7;fill-rule:nonzero;"/><path d="M31.667,11.2c2.195,0 3.974,-1.779 3.974,-3.973c-0,-2.195 -1.779,-3.974 -3.974,-3.974c-2.194,0 -3.973,1.779 -3.973,3.974c-0,2.194 1.779,3.973 3.973,3.973Z" style="fill:#9ea5a7;fill-rule:nonzero;"/><path d="M36.56,11.221l-0.166,-0.365l-0.261,0.302c-0.651,0.74 -1.475,1.307 -2.398,1.651l-0.26,0.094l0.104,0.26c1.403,3.375 1.581,7.135 0.502,10.627c-1.079,3.492 -3.347,6.497 -6.409,8.492c-3.062,1.995 -6.727,2.855 -10.357,2.431c-3.631,-0.424 -6.998,-2.106 -9.518,-4.753c-2.52,-2.647 -4.034,-6.093 -4.279,-9.74c-0.245,-3.647 0.795,-7.265 2.938,-10.225c2.144,-2.961 5.256,-5.077 8.797,-5.983c3.541,-0.906 7.287,-0.544 10.589,1.024l0.245,0.117l0.107,-0.26c0.389,-0.905 0.995,-1.7 1.765,-2.315l0.313,-0.26l-0.357,-0.185c-2.71,-1.409 -5.721,-2.141 -8.776,-2.133c-4.135,0.001 -8.159,1.34 -11.469,3.819c-3.311,2.479 -5.73,5.962 -6.895,9.93c-1.165,3.968 -1.013,8.207 0.432,12.082c1.444,3.874 4.105,7.177 7.584,9.413c3.479,2.236 7.588,3.286 11.713,2.992c4.125,-0.294 8.044,-1.916 11.17,-4.624c3.126,-2.707 5.291,-6.354 6.171,-10.395c0.881,-4.04 0.429,-8.257 -1.287,-12.02l0.002,0.024Z" style="fill:#9ea5a7;fill-rule:nonzero;"/><rect x="48.132" y="10.817" width="4.036" height="16.666" style="fill:#9ea5a7;"/><rect x="91.69" y="10.817" width="4.036" height="16.666" style="fill:#9ea5a7;"/><path d="M82.37,10.427c-2.838,0 -5.031,1.711 -5.533,2.182l-0.261,-1.792l-3.359,0l-0,16.666l4.036,0l-0,-10.09c-0,-1.969 2.688,-3.599 4.654,-3.599c1.966,0 3.442,1.88 3.442,4.119l-0,9.57l4.036,0l-0,-9.171c-0.013,-4.37 -1.898,-7.885 -7.015,-7.885Z" style="fill:#9ea5a7;fill-rule:nonzero;"/><path d="M106.322,24.455c-3.034,0 -5.039,-2.375 -5.039,-5.305c-0,-2.929 2.005,-5.304 5.039,-5.304c2.588,0 4.166,2.508 4.166,2.508l2.925,-1.956c-0.847,-1.302 -1.823,-2.083 -3.156,-2.891c-1.151,-0.698 -2.469,-1.071 -3.815,-1.08c-5.05,0 -8.906,3.791 -8.929,8.723c0.023,4.932 3.879,8.724 8.929,8.724c1.34,-0.012 2.653,-0.386 3.799,-1.081c1.333,-0.805 2.31,-1.588 3.156,-2.89l-2.924,-1.956c-0,0 -1.563,2.508 -4.151,2.508Z" style="fill:#9ea5a7;fill-rule:nonzero;"/><path d="M62.694,10.427c-1.145,-0.018 -2.282,0.192 -3.345,0.62c-1.062,0.427 -2.029,1.062 -2.842,1.868c-0.813,0.807 -1.458,1.767 -1.894,2.826c-0.437,1.059 -0.658,2.194 -0.65,3.339c-0,4.726 3.536,8.794 8.791,8.794c4.758,0 8.656,-3.646 8.656,-8.692c-0,-5.779 -4.534,-8.755 -8.716,-8.755Zm0.05,3.427c2.502,0 4.872,2.031 4.872,5.304c-0,3.203 -2.359,5.292 -4.883,5.292c-2.773,0 -4.947,-2.229 -4.947,-5.318c-0,-3.02 2.158,-5.278 4.971,-5.278l-0.013,0Z" style="fill:#9ea5a7;fill-rule:nonzero;"/></svg>