<?xml version="1.0" encoding="UTF-8" standalone="no"?><!DOCTYPE svg PUBLIC "-//W3C//DTD SVG 1.1//EN" "http://www.w3.org/Graphics/SVG/1.1/DTD/svg11.dtd"><svg width="100%" height="100%" viewBox="0 0 160 41" version="1.1" xmlns="http://www.w3.org/2000/svg" xmlns:xlink="http://www.w3.org/1999/xlink" xml:space="preserve" xmlns:serif="http://www.serif.com/" style="fill-rule:evenodd;clip-rule:evenodd;stroke-linejoin:round;stroke-miterlimit:2;"><path d="M74.768,11.953c-0.848,-0.027 -1.537,0.636 -1.563,1.458l0,7.632c-3.631,-2.915 -8.958,-2.332 -11.874,1.299c-1.192,1.511 -1.855,3.366 -1.855,5.301c-0.079,4.664 3.631,8.507 8.295,8.587c4.665,0.079 8.508,-3.631 8.587,-8.296l0,-14.417c0,-0.425 -0.159,-0.822 -0.45,-1.114c-0.318,-0.291 -0.716,-0.45 -1.14,-0.45Zm-1.987,17.73c-0.531,1.272 -1.538,2.28 -2.81,2.836c-1.325,0.557 -2.809,0.557 -4.134,-0c-1.272,-0.53 -2.253,-1.564 -2.783,-2.809c-0.557,-1.299 -0.557,-2.783 0,-4.108c0.53,-1.272 1.537,-2.279 2.783,-2.809c1.325,-0.557 2.809,-0.557 4.134,-0c1.272,0.556 2.279,1.563 2.81,2.835c0.556,1.273 0.556,2.757 0,4.055Z" style="fill:#9ea5a7;fill-rule:nonzero;"/><path d="M92.393,21.68c-3.287,-3.287 -8.64,-3.287 -11.927,0c-1.59,1.59 -2.464,3.736 -2.464,5.963c-0.08,4.664 3.63,8.507 8.295,8.587c4.665,0.079 8.507,-3.631 8.587,-8.296l0,-0.291c0,-1.113 -0.212,-2.2 -0.636,-3.234c-0.424,-1.033 -1.06,-1.961 -1.855,-2.729Zm-1.087,7.977c-0.265,0.636 -0.663,1.193 -1.14,1.67c-0.477,0.477 -1.06,0.874 -1.669,1.139c-1.325,0.557 -2.81,0.557 -4.135,-0c-1.272,-0.53 -2.279,-1.563 -2.809,-2.809c-0.557,-1.299 -0.557,-2.783 0,-4.108c0.53,-1.272 1.537,-2.253 2.809,-2.809c1.325,-0.557 2.81,-0.557 4.135,-0c0.636,0.265 1.192,0.662 1.669,1.139c0.477,0.477 0.875,1.06 1.14,1.67c0.557,1.352 0.557,2.836 0,4.108Z" style="fill:#9ea5a7;fill-rule:nonzero;"/><path d="M127.297,20.752c0,-0.212 -0.053,-0.424 -0.132,-0.61c-0.08,-0.185 -0.212,-0.344 -0.345,-0.503c-0.132,-0.133 -0.318,-0.265 -0.504,-0.345c-0.185,-0.079 -0.397,-0.132 -0.609,-0.132c-0.292,0 -0.583,0.079 -0.848,0.239l-9.011,5.857l0,-11.715c0,-0.424 -0.159,-0.821 -0.451,-1.113c-0.291,-0.291 -0.689,-0.477 -1.113,-0.477c-0.874,0 -1.564,0.689 -1.59,1.564l0,20.964c0,0.424 0.159,0.821 0.451,1.113c0.291,0.318 0.689,0.477 1.113,0.477c0.424,-0 0.821,-0.159 1.113,-0.477c0.291,-0.292 0.477,-0.689 0.45,-1.113l0,-5.434l1.829,-1.192l6.97,7.818c0.292,0.265 0.663,0.424 1.06,0.398c0.212,-0 0.424,-0.027 0.61,-0.133c0.185,-0.079 0.345,-0.185 0.504,-0.344c0.132,-0.159 0.265,-0.318 0.344,-0.504c0.08,-0.185 0.133,-0.397 0.133,-0.609c0,-0.398 -0.159,-0.796 -0.424,-1.087l-6.467,-7.288l6.308,-4.108c0.424,-0.265 0.636,-0.742 0.609,-1.246Z" style="fill:#9ea5a7;fill-rule:nonzero;"/><path d="M101.139,23.88c0.477,-0.478 1.06,-0.875 1.696,-1.14c0.662,-0.265 1.351,-0.424 2.067,-0.424c0.636,0 1.246,0.106 1.829,0.318c0.583,0.238 1.139,0.556 1.616,0.98c0.292,0.239 0.663,0.345 1.034,0.345c0.424,0.026 0.848,-0.133 1.14,-0.45c0.291,-0.292 0.45,-0.716 0.45,-1.14c0,-0.451 -0.185,-0.901 -0.556,-1.193c-1.511,-1.351 -3.472,-2.093 -5.513,-2.04c-4.664,0 -8.454,3.789 -8.454,8.454c0,4.664 3.763,8.428 8.401,8.454c2.041,0 4.002,-0.715 5.539,-2.04c0.318,-0.292 0.504,-0.716 0.504,-1.166c0.026,-0.849 -0.636,-1.538 -1.458,-1.564l-0.106,0c-0.371,0 -0.716,0.106 -1.007,0.318c-0.477,0.424 -1.007,0.742 -1.59,0.98c-0.583,0.212 -1.219,0.319 -1.829,0.319c-0.716,-0.001 -1.405,-0.133 -2.067,-0.425c-0.636,-0.265 -1.193,-0.662 -1.696,-1.139c-2.068,-2.067 -2.068,-5.407 -0.027,-7.474c0.027,0.053 0.027,0.053 0.027,0.026l0,0.001Z" style="fill:#9ea5a7;fill-rule:nonzero;"/><path d="M158.597,20.249c-0.318,-0.292 -0.663,-0.504 -1.06,-0.637c-0.451,-0.159 -0.928,-0.265 -1.405,-0.318c-0.477,-0.053 -0.954,-0.079 -1.431,-0.079c-0.954,0 -1.935,0.159 -2.836,0.503c-0.901,0.318 -1.722,0.796 -2.464,1.379l0,-0.318c-0.027,-0.875 -0.769,-1.538 -1.644,-1.511c-0.821,0.026 -1.484,0.689 -1.51,1.511l0,13.755c0.026,0.874 0.768,1.537 1.643,1.51c0.821,-0.026 1.484,-0.689 1.511,-1.51l0,-6.865c0,-0.715 0.132,-1.404 0.424,-2.067c0.265,-0.636 0.636,-1.193 1.139,-1.67c0.477,-0.477 1.06,-0.874 1.67,-1.139c0.662,-0.265 1.352,-0.424 2.067,-0.424c0.716,0 1.405,0.132 2.067,0.371c0.212,0.106 0.424,0.159 0.663,0.159c0.212,0 0.424,-0.027 0.61,-0.133c0.185,-0.079 0.344,-0.185 0.503,-0.344c0.133,-0.133 0.265,-0.318 0.345,-0.504c0.079,-0.185 0.132,-0.397 0.132,-0.609c0.027,-0.398 -0.132,-0.769 -0.424,-1.06Z" style="fill:#9ea5a7;fill-rule:nonzero;"/><path d="M143.967,24.409c-1.351,-3.127 -4.426,-5.168 -7.818,-5.194c-4.665,0 -8.428,3.763 -8.454,8.428c0,4.664 3.789,8.454 8.454,8.454c2.014,0 3.975,-0.715 5.513,-2.041c0.026,-0.026 0.053,-0.053 0.053,-0.053c0.132,-0.106 0.265,-0.238 0.344,-0.397c0.504,-0.742 0.318,-1.723 -0.397,-2.226c-0.61,-0.398 -1.405,-0.318 -1.935,0.185c-0.053,0.053 -0.212,0.186 -0.212,0.212l-0.027,0.027c-0.45,0.371 -0.954,0.689 -1.51,0.874c-0.583,0.212 -1.193,0.318 -1.829,0.292c-0.583,0 -1.14,-0.08 -1.696,-0.265c-0.53,-0.186 -1.034,-0.424 -1.484,-0.769c-0.451,-0.318 -0.848,-0.715 -1.166,-1.166c-0.345,-0.45 -0.584,-0.981 -0.743,-1.511l11.927,0c0.424,0 0.821,-0.159 1.113,-0.45c0.318,-0.292 0.477,-0.689 0.45,-1.113c0.027,-1.14 -0.185,-2.253 -0.583,-3.287Zm-12.907,1.697c0.159,-0.557 0.398,-1.061 0.743,-1.511c0.318,-0.451 0.715,-0.848 1.166,-1.166c0.45,-0.318 0.954,-0.583 1.484,-0.769c0.53,-0.185 1.113,-0.265 1.67,-0.265c0.556,-0 1.139,0.08 1.669,0.265c1.06,0.345 1.988,1.034 2.65,1.935c0.345,0.45 0.584,0.981 0.769,1.511l-10.151,-0Z" style="fill:#9ea5a7;fill-rule:nonzero;"/><path d="M153.217,33.791c-0.61,-0 -1.087,0.504 -1.087,1.113c0,0.61 0.504,1.087 1.113,1.087c0.61,-0 1.087,-0.504 1.087,-1.087c0,-0.636 -0.503,-1.113 -1.113,-1.113Zm0,1.961c-0.477,0.027 -0.875,-0.344 -0.901,-0.821c-0.027,-0.477 0.344,-0.875 0.821,-0.902c0.478,-0.026 0.875,0.345 0.902,0.822l0,0.053c0.026,0.451 -0.345,0.848 -0.796,0.848l-0.026,-0Z" style="fill:#9ea5a7;fill-rule:nonzero;"/><path d="M153.482,34.904c0.133,-0.026 0.212,-0.132 0.212,-0.265c0,-0.106 -0.026,-0.185 -0.106,-0.238c-0.106,-0.053 -0.238,-0.08 -0.371,-0.08c-0.133,0 -0.292,0 -0.424,0.027l0,1.086l0.238,0l0,-0.424l0.107,0c0.132,0 0.212,0.053 0.238,0.159c0.027,0.08 0.053,0.186 0.08,0.265l0.265,0c-0.053,-0.079 -0.08,-0.185 -0.08,-0.265c0.027,-0.106 -0.053,-0.212 -0.159,-0.265Zm-0.318,-0.079l-0.133,0l0,-0.318l0.133,0c0.159,0 0.239,0.079 0.239,0.159c0.026,0.106 -0.106,0.185 -0.239,0.159Z" style="fill:#9ea5a7;fill-rule:nonzero;"/><path d="M56.587,15.504c-0.159,-0.133 -1.59,-1.219 -4.664,-1.219c-0.795,0 -1.617,0.079 -2.412,0.212c-0.583,-4.055 -3.949,-6.016 -4.082,-6.122l-0.821,-0.478l-0.53,0.769c-0.663,1.034 -1.166,2.2 -1.458,3.392c-0.556,2.306 -0.212,4.479 0.954,6.335c-1.404,0.795 -3.684,0.98 -4.161,1.007l-37.634,0c-0.98,0 -1.776,0.795 -1.776,1.775c-0.053,3.287 0.504,6.573 1.644,9.674c1.298,3.392 3.233,5.91 5.724,7.447c2.81,1.723 7.395,2.704 12.563,2.704c2.332,0 4.664,-0.212 6.97,-0.636c3.207,-0.583 6.281,-1.697 9.117,-3.313c2.332,-1.352 4.426,-3.075 6.202,-5.089c2.994,-3.366 4.77,-7.129 6.069,-10.468l0.53,0c3.26,0 5.274,-1.299 6.387,-2.412c0.742,-0.689 1.299,-1.537 1.696,-2.492l0.239,-0.689l-0.557,-0.397Z" style="fill:#9ea5a7;fill-rule:nonzero;"/><path d="M5.278,18.314l5.035,0c0.239,0 0.451,-0.186 0.451,-0.451l0,-4.505c0,-0.239 -0.186,-0.451 -0.451,-0.451l-5.035,0c-0.239,0 -0.451,0.186 -0.451,0.451l0,4.505c0.027,0.265 0.212,0.451 0.451,0.451Z" style="fill:#9ea5a7;fill-rule:nonzero;"/><path d="M12.221,18.314l5.036,0c0.238,0 0.45,-0.186 0.45,-0.451l0,-4.505c0,-0.239 -0.185,-0.451 -0.45,-0.451l-5.036,0c-0.238,0 -0.45,0.186 -0.45,0.451l0,4.505c0.026,0.265 0.212,0.451 0.45,0.451Z" style="fill:#9ea5a7;fill-rule:nonzero;"/><path d="M19.298,18.314l5.035,0c0.239,0 0.451,-0.186 0.451,-0.451l0,-4.505c0,-0.239 -0.186,-0.451 -0.451,-0.451l-5.035,0c-0.239,0 -0.451,0.186 -0.451,0.451l0,4.505c0,0.265 0.186,0.451 0.451,0.451Z" style="fill:#9ea5a7;fill-rule:nonzero;"/><path d="M26.268,18.314l5.035,0c0.239,0 0.451,-0.186 0.451,-0.451l0,-4.505c0,-0.239 -0.186,-0.451 -0.451,-0.451l-5.035,0c-0.239,0 -0.451,0.186 -0.451,0.451l0,4.505c0,0.265 0.212,0.451 0.451,0.451Z" style="fill:#9ea5a7;fill-rule:nonzero;"/><path d="M12.221,11.873l5.036,-0c0.238,-0 0.45,-0.212 0.45,-0.45l0,-4.506c0,-0.238 -0.185,-0.45 -0.45,-0.45l-5.036,-0c-0.238,-0 -0.45,0.185 -0.45,0.45l0,4.506c0.026,0.238 0.212,0.45 0.45,0.45Z" style="fill:#9ea5a7;fill-rule:nonzero;"/><path d="M19.298,11.873l5.035,-0c0.239,-0 0.451,-0.212 0.451,-0.45l0,-4.506c0,-0.238 -0.186,-0.45 -0.451,-0.45l-5.035,-0c-0.239,-0 -0.451,0.185 -0.451,0.45l0,4.506c0,0.238 0.186,0.45 0.451,0.45Z" style="fill:#9ea5a7;fill-rule:nonzero;"/><path d="M26.268,11.873l5.035,-0c0.239,-0 0.451,-0.212 0.451,-0.45l0,-4.506c0,-0.238 -0.212,-0.45 -0.451,-0.45l-5.035,-0c-0.239,-0 -0.451,0.185 -0.451,0.45l0,4.506c0,0.238 0.212,0.45 0.451,0.45Z" style="fill:#9ea5a7;fill-rule:nonzero;"/><path d="M26.268,5.407l5.035,-0c0.239,-0 0.451,-0.186 0.451,-0.451l0,-4.505c0,-0.239 -0.212,-0.451 -0.451,-0.451l-5.035,-0c-0.239,-0 -0.451,0.186 -0.451,0.451l0,4.505c0,0.239 0.212,0.451 0.451,0.451Z" style="fill:#9ea5a7;fill-rule:nonzero;"/><path d="M33.291,18.314l5.036,0c0.238,0 0.45,-0.186 0.45,-0.451l0,-4.505c0,-0.239 -0.185,-0.451 -0.45,-0.451l-5.036,0c-0.238,0 -0.45,0.186 -0.45,0.451l0,4.505c0.026,0.265 0.212,0.451 0.45,0.451Z" style="fill:#9ea5a7;fill-rule:nonzero;"/></svg>