<svg width="138" height="50" viewBox="0 0 138 50" fill="none" xmlns="http://www.w3.org/2000/svg">
<path d="M29.1795 49.9002C28.7819 49.823 28.2057 49.6047 27.8991 49.4153C27.2916 49.0398 26.5587 48.1629 26.3136 47.5182C26.1716 47.1448 26.0403 47.101 24.7638 47.0013C20.828 46.6939 19.8691 46.6974 17.9991 47.0262C16.1594 47.3496 16.1414 47.3574 15.3188 48.1766C14.3738 49.1178 13.6095 49.411 12.1016 49.411C11.018 49.411 9.26394 48.9401 8.0382 48.32C7.00774 47.7988 6.22914 47.6071 3.90845 47.3031C2.81837 47.1603 1.61146 46.9044 1.22642 46.7343C0.450111 46.3913 0 45.714 0 44.8888C0 44.6037 0.122627 43.8823 0.272508 43.2856C0.496143 42.3953 0.514382 41.9608 0.374204 40.8627C0.275293 40.0879 0.26263 39.2608 0.34412 38.8978C0.528869 38.0748 1.36379 37.3226 2.61007 36.8563C3.15323 36.6531 3.69719 36.4042 3.81887 36.3032C3.94056 36.2022 4.36337 35.6945 4.75847 35.175C5.47657 34.2307 5.47685 34.2298 5.56627 32.4814C5.63525 31.1328 5.77673 30.3714 6.18436 29.1552C7.13118 26.3302 8.5692 23.8175 11.2522 20.2996C12.0057 19.3117 12.8421 18.0188 13.1109 17.4264C13.9675 15.539 14.1193 14.3906 13.998 10.7137C13.9124 8.11751 13.9441 7.14224 14.1527 5.96211C14.2971 5.14541 14.614 4.07121 14.857 3.57499C15.7119 1.82902 17.3392 0.612237 19.3988 0.179049C20.6529 -0.0847183 22.8751 -0.0525802 24.021 0.245896C24.5564 0.385354 25.3826 0.758962 25.857 1.07613C27.2953 2.03768 28.0832 3.27306 28.6734 5.4922C28.9436 6.50797 29.0417 7.58357 29.142 10.6299C29.2527 13.9937 29.315 14.603 29.633 15.4287C30.0863 16.6057 30.9316 17.9226 32.4052 19.7475C35.2337 23.2504 36.8871 26.1822 37.5178 28.8132C37.9103 30.4507 37.9565 32.4769 37.6326 33.8529L37.4107 34.7956L37.9692 35.2413C38.2764 35.4864 38.6308 35.8914 38.7568 36.1413C38.8827 36.3912 39.1183 37.1459 39.2804 37.8183C39.4909 38.6919 39.7401 39.2386 40.1533 39.7332C41.4285 41.2594 41.7007 42.4681 40.9659 43.3414C40.7394 43.6106 39.6293 44.3137 38.4991 44.9039C36.8052 45.7884 36.1758 46.2315 34.9159 47.4269C33.3299 48.9317 32.1974 49.6388 31.0659 49.8307C30.7024 49.8924 30.292 49.9649 30.1538 49.9918C30.0156 50.0187 29.5772 49.9775 29.1795 49.9002ZM32.1262 48.8096C32.6772 48.54 33.6813 47.7582 34.5972 46.8857C35.8586 45.684 36.4574 45.2575 37.8794 44.5477C38.836 44.0702 39.8637 43.4953 40.1632 43.2701C40.6118 42.9327 40.7076 42.7475 40.7076 42.2174C40.7076 41.5933 40.6523 41.4917 39.2766 39.587C39.1339 39.3894 38.8396 38.5626 38.6225 37.7497C38.3109 36.5831 38.1178 36.1732 37.7061 35.8054C37.2738 35.4191 37.0314 35.3393 36.2916 35.3393C35.5962 35.3393 35.3283 35.4173 35.0797 35.6924C34.6446 36.1739 33.3353 36.8179 32.5548 36.9343C32.0775 37.0055 31.7727 36.9424 31.3668 36.6887C30.7336 36.2929 30.1988 35.4886 30.0519 34.7111C29.9953 34.4116 29.8498 34.1666 29.7285 34.1666C29.3763 34.1666 28.8282 34.9857 28.5617 35.9101C28.4265 36.3793 28.2375 37.6672 28.1417 38.7722C28.0265 40.1005 27.7703 41.488 27.3854 42.8673C26.9902 44.2839 26.8034 45.3088 26.8034 46.0606C26.8034 46.9913 26.8798 47.2882 27.2833 47.9245C27.7079 48.594 28.0969 48.8816 29.1487 49.3036C29.6647 49.5107 31.2209 49.2525 32.1262 48.8096ZM14.0012 48.4233C14.8275 48.048 15.3484 47.4213 15.5948 46.506C15.924 45.2837 15.4474 44.2606 13.2388 41.4479C12.5903 40.6219 11.6648 39.1693 11.1822 38.2199C9.66691 35.2385 8.63347 34.1666 7.27432 34.1666C6.68732 34.1666 6.45621 34.2668 6.0008 34.7189C5.6948 35.0227 5.12628 35.656 4.73742 36.1263C4.16052 36.824 3.81385 37.0641 2.85372 37.431C1.66687 37.8845 1.08668 38.3902 0.90011 39.1335C0.846357 39.3477 0.891908 40.1536 1.00132 40.9244C1.17107 42.1202 1.16136 42.4568 0.93517 43.2185C0.789372 43.7095 0.670081 44.4236 0.670081 44.8054C0.670081 46.0258 1.3388 46.3743 4.35555 46.7261C6.31531 46.9546 6.89002 47.1043 8.33111 47.7618C9.92744 48.4902 10.7975 48.7093 12.1453 48.7223C12.9494 48.7301 13.5327 48.6361 14.0012 48.4233ZM22.8483 44.5576C24.3216 44.1808 26.3903 43.1563 26.7211 42.6397C27.0144 42.1817 27.41 40.0625 27.6306 37.7683C27.7687 36.3315 27.9093 35.7226 28.2688 35.0042C28.5483 34.4457 28.9608 33.9304 29.3162 33.6959C29.6387 33.483 29.9686 33.1061 30.0495 32.8583C30.1303 32.6104 30.3564 32.2309 30.552 32.0149C30.8663 31.6678 31.0262 31.6297 31.9291 31.6862C32.6477 31.7312 33.278 31.9114 34.0547 32.2937C35.2728 32.8934 36.017 33.6403 36.017 34.2632C36.017 34.7666 36.2797 34.7966 36.4075 34.3077C36.5213 33.8725 36.1828 33.0147 35.747 32.6338C35.573 32.4817 34.98 32.0935 34.4291 31.7711L33.4275 31.1849L33.4792 29.9456C33.5414 28.4559 33.2017 27.0171 32.4226 25.4699C31.8757 24.3839 30.5756 22.5247 30.0692 22.1044C29.927 21.9864 29.7655 21.935 29.7103 21.9902C29.6551 22.0454 29.9291 22.4519 30.3193 22.8935C31.8452 24.6209 32.6666 26.6629 32.6666 28.7289C32.6666 29.4042 32.5931 30.1501 32.5032 30.3865C32.3792 30.7126 32.2217 30.8162 31.8498 30.8162C31.3966 30.8162 31.3444 30.7502 31.1536 29.9367C30.8181 28.5066 30.1038 26.6996 28.8525 24.1154C27.566 21.4585 26.3764 18.5282 25.7912 16.5741C25.5847 15.8846 25.3937 15.2941 25.3668 15.2618C25.3399 15.2295 25.0302 15.4259 24.6786 15.6981C24.327 15.9704 23.7754 16.2953 23.4529 16.4201C23.1305 16.545 22.4163 16.914 21.8659 17.2402C20.9413 17.7882 20.7621 17.8333 19.5076 17.8333C18.2496 17.8333 18.1041 17.7964 17.5251 17.3308C17.1814 17.0543 16.6222 16.6273 16.2824 16.3817L15.6646 15.9352L15.3032 17.6381C14.8634 19.7097 14.3211 21.192 12.6662 24.8451C11.9681 26.3862 11.2439 28.1528 11.0569 28.7709C10.87 29.3891 10.6199 30.5716 10.5012 31.3987L10.2855 32.9025L9.87691 32.0687C9.57074 31.4439 9.45315 30.8893 9.40768 29.8555C9.36062 28.7855 9.42933 28.2049 9.7139 27.268C9.9157 26.6037 10.4181 25.3885 10.8303 24.5677C11.2426 23.7469 11.5442 23.0396 11.5006 22.996C11.3799 22.8753 10.1008 25.1364 9.52711 26.4846C8.21628 29.5651 8.30831 32.0385 9.7994 33.8028C10.0586 34.1094 10.9186 34.7984 11.7105 35.3339C14.2582 37.0564 15.747 38.8005 15.747 40.0626C15.747 40.7706 15.2907 41.37 14.7517 41.37C14.5729 41.37 14.3831 41.4404 14.3299 41.5265C14.2767 41.6126 14.552 42.1094 14.9417 42.6305C15.7065 43.6531 16.6102 44.2186 18.1366 44.6297C19.4111 44.9729 21.3397 44.9434 22.8483 44.5576ZM32.9489 35.664C33.2082 35.5662 33.6654 35.2499 33.9649 34.9611C34.9201 34.0398 34.603 33.2315 33.0016 32.5055C32.2271 32.1543 31.2387 32.0577 30.8627 32.2963C30.5516 32.4938 30.3206 33.4472 30.4363 34.0564C30.5731 34.7775 30.9314 35.4552 31.2845 35.6609C31.6684 35.8845 32.3607 35.8858 32.9489 35.664V35.664ZM22.4871 16.5297C24.3943 15.564 25.2732 14.8589 25.3155 14.2606C25.3791 13.3624 24.9313 12.8788 23.5631 12.3683C22.9958 12.1566 22.0549 11.7354 21.4724 11.4323C20.6894 11.0249 20.1959 10.8812 19.5795 10.8812C19.1209 10.8812 18.5131 11.0015 18.2287 11.1485C17.6613 11.442 15.2342 13.3257 15.0376 13.6253C14.8232 13.9518 14.9064 14.6372 15.2063 15.0159C15.4508 15.3247 16.178 15.9103 17.9518 17.2266C18.3972 17.5571 19.2554 17.7291 19.9289 17.6229C20.2481 17.5725 21.3993 17.0806 22.4871 16.5297ZM17.987 15.9406C17.1617 15.649 15.4119 14.3633 15.4119 14.0485C15.4119 13.7838 15.6049 13.8806 16.2636 14.4756C17.2711 15.3859 18.2065 15.7925 19.2649 15.7803C20.2851 15.7686 21.0861 15.4655 22.864 14.4182C23.5075 14.0392 24.0917 13.7291 24.1622 13.7291C24.2328 13.7291 24.2905 13.7964 24.2905 13.8788C24.2905 14.0443 23.315 14.6105 21.5265 15.483C20.0194 16.2183 19.1069 16.3362 17.987 15.9406ZM16.2152 12.179C16.3377 12.0314 16.3206 11.8449 16.1579 11.5508C15.6948 10.714 15.9604 9.20599 16.5709 9.20599C16.9849 9.20599 17.4222 9.81315 17.4222 10.388C17.4222 10.6285 17.4694 10.8726 17.5272 10.9304C17.5849 10.9881 17.8581 10.9185 18.1342 10.7757C18.6065 10.5315 18.6302 10.4722 18.5346 9.77441C18.3407 8.35946 17.5637 7.36325 16.6541 7.36325C16.2521 7.36325 15.99 7.50756 15.6138 7.93603C14.7886 8.87589 14.6971 10.6706 15.4143 11.8499C15.7689 12.433 15.9445 12.5052 16.2152 12.179ZM24.9651 11.6769C25.1572 11.2538 25.2898 10.5886 25.292 10.0372C25.3012 7.71683 23.3547 6.16937 21.7074 7.18746C21.0194 7.61265 20.4881 8.57684 20.3443 9.66134C20.2294 10.5271 20.2301 10.5289 20.7941 10.7609L21.3589 10.9933L21.5405 10.3081C21.8394 9.18045 22.0701 8.87094 22.6117 8.87094C23.5072 8.87094 24.0189 10.1717 23.5577 11.2755L23.3004 11.8915L23.8373 12.1265C24.1327 12.2558 24.4345 12.3677 24.5081 12.3752C24.5817 12.3827 24.7874 12.0685 24.9651 11.6769ZM114.047 35.8129L113.998 34.4439L113.053 35.2715C111.645 36.505 110.742 36.8977 109.119 36.9829C106.771 37.1061 105.512 36.4274 104.67 34.5854C104.303 33.7822 104.284 33.5229 104.201 28.2657C104.119 23.0652 104.097 22.767 103.779 22.4579C103.595 22.2788 103.105 22.0672 102.69 21.9877C102.04 21.863 101.937 21.7867 101.937 21.4297V21.0162L104.449 20.9702L106.962 20.9241V27.0009C106.962 32.8428 106.976 33.1075 107.318 33.847C107.768 34.8202 108.529 35.37 109.564 35.4694C110.174 35.5281 110.576 35.449 111.26 35.1352C111.752 34.9091 112.589 34.3272 113.119 33.8422L114.082 32.9603V28.1974C114.082 22.6241 114.04 22.4122 112.88 22.0966C112.482 21.9881 112.061 21.8726 111.946 21.84C111.831 21.8073 111.737 21.5878 111.737 21.3521V20.9237L114.257 20.97L116.778 21.0162L116.766 27.4707C116.757 32.6056 116.801 33.9877 116.979 34.2312C117.12 34.4248 117.599 34.6079 118.281 34.7296C119.194 34.8925 119.367 34.9785 119.411 35.2922C119.453 35.5819 119.362 35.6836 118.993 35.7598C117.489 36.0703 116.248 36.441 115.553 36.7878C115.119 37.0046 114.613 37.182 114.429 37.182C114.127 37.182 114.091 37.0524 114.047 35.8129ZM52.9366 36.3267C52.9366 35.9117 52.9901 35.8853 54.0246 35.7887C55.1015 35.6881 55.7531 35.4615 55.9913 35.1048C56.1401 34.882 56.1635 15.2111 56.0155 14.8254C55.8559 14.4097 55.1156 14.0998 53.973 13.9705C52.985 13.8588 52.9366 13.832 52.9366 13.3966V12.94L57.5854 12.9576L62.2341 12.9752L62.2849 13.4132C62.3337 13.8337 62.2939 13.856 61.2904 13.9695C60.0376 14.1113 59.34 14.4397 59.2153 14.9466C59.1647 15.1523 59.1448 19.6428 59.171 24.9257L59.2187 34.5308L59.6887 34.935C60.1478 35.3299 60.2287 35.3393 63.1666 35.3393C65.8788 35.3393 66.2485 35.3045 66.9275 34.9853C67.3417 34.7906 67.8811 34.3948 68.1262 34.1058C68.6125 33.5322 69.6887 31.3318 69.6887 30.9109C69.6887 30.7288 69.8489 30.6487 70.2126 30.6487H70.7365L70.6389 31.4444C70.5852 31.882 70.3888 33.2201 70.2025 34.4179C70.0162 35.6157 69.862 36.6334 69.86 36.6794C69.8579 36.7255 66.0493 36.7632 61.3964 36.7632H52.9366L52.9366 36.3267ZM72.9162 36.5538C72.7599 36.1465 73.0185 35.8879 73.6894 35.7807C74.8353 35.5974 75.2015 35.3486 75.3978 34.6196C75.5128 34.1926 75.5574 32.086 75.5226 28.7341C75.4587 22.5977 75.4862 22.7073 73.9649 22.5172C73.1465 22.415 73.0392 22.3572 73.0392 22.0192C73.0392 21.6781 73.1608 21.6161 74.1699 21.4433C74.7919 21.3368 75.9141 21.1029 76.6638 20.9235C77.4135 20.7442 78.0731 20.5974 78.1296 20.5974C78.1861 20.5974 78.2323 23.8273 78.2323 27.7748C78.2323 34.7186 78.2431 34.9621 78.5645 35.2529C78.7471 35.4182 79.2937 35.6429 79.779 35.7522C80.5449 35.9247 80.6614 36.0042 80.6614 36.3548V36.7587L76.8289 36.7609C73.9158 36.7626 72.9772 36.713 72.9162 36.5538ZM82.4649 36.5538C82.302 36.1294 82.5809 35.8809 83.3494 35.7657C83.8382 35.6924 84.2887 35.4964 84.5354 35.2497L84.9332 34.8519L84.9307 29.1905C84.9289 24.9847 84.8741 23.4214 84.7178 23.1102C84.5479 22.7721 84.3224 22.662 83.5476 22.5387C82.7031 22.4043 82.5879 22.3398 82.5879 22.0018C82.5879 21.6889 82.7044 21.5976 83.2161 21.5092C83.9533 21.3819 86.4915 20.8462 87.1465 20.6797L87.601 20.5642L87.6491 22.1708L87.6973 23.7774L88.7801 22.7686C89.3756 22.2137 90.2425 21.5742 90.7066 21.3476C92.3041 20.5672 94.5023 20.4204 95.6558 21.0169C95.9042 21.1453 96.3415 21.5171 96.6277 21.8431C97.608 22.9595 97.8245 24.5044 97.8289 30.4133C97.8321 34.724 97.849 34.9674 98.1644 35.2529C98.3471 35.4182 98.8936 35.6429 99.3789 35.7522C100.146 35.925 100.261 36.0038 100.261 36.3569V36.763L96.4921 36.758L92.7229 36.7531V36.3503C92.7229 36.0081 92.8466 35.9159 93.5453 35.7377C93.9976 35.6223 94.5253 35.3704 94.7179 35.1779C95.0511 34.8451 95.0708 34.6273 95.121 30.7132C95.1766 26.3803 95.0075 24.1322 94.5611 23.269C94.1844 22.5406 93.3132 22.207 92.1396 22.3418C91.6312 22.4001 90.831 22.6345 90.3615 22.8625C89.892 23.0906 89.0816 23.724 88.5607 24.2701L87.6135 25.2631V29.7736C87.6135 32.4912 87.6834 34.4847 87.7894 34.7886C87.9764 35.325 88.3912 35.585 89.346 35.7641C89.6703 35.825 89.9761 35.9804 90.0257 36.1096C90.2624 36.7264 90.0499 36.7632 86.2502 36.7632C83.4407 36.7632 82.5258 36.7126 82.4649 36.5538L82.4649 36.5538ZM120.827 36.5538C120.673 36.1508 120.932 35.8743 121.567 35.766C121.919 35.7059 122.559 35.4001 122.99 35.0864C123.788 34.5055 127.651 29.7501 127.651 29.3485C127.651 29.0035 124.15 23.9583 123.233 22.9823C122.602 22.31 122.253 22.0763 121.765 21.9982C121.05 21.8839 120.695 21.5697 120.844 21.1825C120.929 20.9611 121.422 20.9319 124.422 20.9709C127.871 21.0158 127.903 21.0195 127.955 21.3872C127.996 21.6771 127.905 21.7804 127.536 21.8595C126.694 22.0405 126.311 22.2596 126.309 22.5622C126.307 23.0112 129.166 27.1313 129.478 27.1276C129.627 27.1258 130.392 26.2108 131.206 25.0608C132.009 23.9258 132.719 22.8609 132.782 22.6944C132.922 22.3312 132.461 21.9376 131.897 21.9376C131.501 21.9376 131.078 21.3833 131.255 21.0965C131.315 20.9996 132.556 20.9325 134.289 20.9325H137.222L137.169 21.3894C137.123 21.7874 137.02 21.8626 136.371 21.9727C135.961 22.0421 135.358 22.2884 135.031 22.5198C134.316 23.0251 130.343 27.9374 130.336 28.3239C130.331 28.5997 134.01 33.849 134.827 34.7322C135.357 35.3043 136.431 35.833 137.074 35.8381C137.464 35.8413 137.535 35.9125 137.535 36.3025V36.7632L134.059 36.7607L130.583 36.7583V36.3569C130.583 36.0474 130.717 35.9103 131.169 35.7581C131.491 35.6496 131.78 35.4335 131.81 35.2779C131.841 35.1222 131.674 34.6766 131.441 34.2876C130.685 33.029 128.728 30.5649 128.485 30.5649C128.146 30.5649 125.281 34.8367 125.341 35.2529C125.375 35.4885 125.582 35.638 126.026 35.7477C126.577 35.8838 126.655 35.9622 126.612 36.332L126.562 36.7591L123.735 36.7611C121.626 36.7626 120.887 36.71 120.827 36.5538ZM75.4995 17.01C75.2594 16.7875 75.0141 16.4106 74.9543 16.1724C74.7987 15.5524 74.9962 14.935 75.4995 14.4686C75.8158 14.1755 76.1282 14.0641 76.634 14.0641C77.1881 14.0641 77.4295 14.1659 77.805 14.5578C78.1719 14.9407 78.278 15.2107 78.278 15.7612C78.278 16.3459 78.185 16.554 77.75 16.9427C77.057 17.5618 76.125 17.5897 75.4995 17.01Z" fill="#989898"/>
</svg>
