<?xml version="1.0" encoding="UTF-8" standalone="no"?><!DOCTYPE svg PUBLIC "-//W3C//DTD SVG 1.1//EN" "http://www.w3.org/Graphics/SVG/1.1/DTD/svg11.dtd"><svg width="100%" height="100%" viewBox="0 0 130 34" version="1.1" xmlns="http://www.w3.org/2000/svg" xmlns:xlink="http://www.w3.org/1999/xlink" xml:space="preserve" xmlns:serif="http://www.serif.com/" style="fill-rule:evenodd;clip-rule:evenodd;stroke-linejoin:round;stroke-miterlimit:2;"><path d="M42.728,23.181c-0.398,-0.215 -0.704,-0.674 -0.704,-1.287c0,-0.826 0.643,-1.496 1.503,-1.496c0.304,0 0.581,0.089 0.794,0.212c1.564,1.042 3.187,1.563 4.655,1.563c1.592,0 2.511,-0.674 2.511,-1.748l0,-0.06c0,-1.256 -1.714,-1.684 -3.614,-2.265c-2.387,-0.675 -5.052,-1.653 -5.052,-4.747l0,-0.062c0,-3.063 2.542,-4.93 5.757,-4.93c1.716,-0 3.522,0.491 5.084,1.316c0.522,0.277 0.887,0.767 0.887,1.408c0,0.859 -0.672,1.503 -1.53,1.503c-0.308,-0 -0.491,-0.061 -0.734,-0.184c-1.319,-0.675 -2.665,-1.104 -3.798,-1.104c-1.44,0 -2.267,0.675 -2.267,1.594l0,0.06c0,1.194 1.745,1.683 3.644,2.297c2.358,0.735 5.023,1.806 5.023,4.715l0,0.063c0,3.398 -2.635,5.081 -6.003,5.081c-2.05,0 -4.286,-0.641 -6.156,-1.929Z" style="fill:#9ea5a7;fill-rule:nonzero;"/><path d="M69.242,16.752l-0.001,-0.062c0.001,-3.122 -2.113,-5.174 -4.623,-5.174c-2.511,0 -4.715,2.082 -4.715,5.174l0,0.062c0,3.093 2.204,5.177 4.715,5.177c2.542,0 4.624,-1.992 4.624,-5.177Zm-12.954,-6.524c0,-1.039 0.795,-1.867 1.839,-1.867c1.04,0 1.867,0.828 1.867,1.867l0,1.104c1.194,-1.683 2.878,-3.031 5.512,-3.031c3.797,-0 7.503,2.999 7.503,8.389l0,0.062c0,5.359 -3.675,8.39 -7.503,8.39c-2.694,0 -4.379,-1.349 -5.512,-2.846l0,5.723c0,1.045 -0.827,1.842 -1.867,1.842c-1.01,0 -1.839,-0.797 -1.839,-1.842l0,-17.791Z" style="fill:#9ea5a7;fill-rule:nonzero;"/><path d="M74.412,10.23c0,-1.039 0.794,-1.867 1.836,-1.867c1.043,0 1.869,0.828 1.869,1.867l0,0.891c0.185,-1.387 2.449,-2.758 4.072,-2.758c1.163,0 1.838,0.765 1.838,1.836c0,0.979 -0.644,1.623 -1.471,1.776c-2.633,0.46 -4.439,2.764 -4.439,5.952l0,5.343c0,1.011 -0.826,1.838 -1.869,1.838c-1.01,0 -1.836,-0.797 -1.836,-1.838l0,-13.04Z" style="fill:#9ea5a7;fill-rule:nonzero;"/><path d="M85.429,10.238c0,-1.041 0.799,-1.869 1.838,-1.869c1.041,0 1.868,0.828 1.868,1.869l0,13.035c0,1.04 -0.827,1.835 -1.868,1.835c-1.011,0 -1.838,-0.795 -1.838,-1.835l0,-13.035Z" style="fill:#9ea5a7;fill-rule:nonzero;"/><path d="M91.003,10.244c0,-1.041 0.797,-1.867 1.836,-1.867c1.042,0 1.869,0.826 1.869,1.867l0,0.761c1.043,-1.501 2.541,-2.637 5.052,-2.637c3.644,0 5.758,2.451 5.758,6.186l-0,8.716c-0,1.041 -0.797,1.838 -1.838,1.838c-1.041,0 -1.867,-0.797 -1.867,-1.838l-0,-7.582c-0,-2.51 -1.256,-3.95 -3.461,-3.95c-2.143,0 -3.644,1.5 -3.644,4.013l-0,7.519c-0,1.041 -0.827,1.838 -1.869,1.838c-1.01,0 -1.836,-0.797 -1.836,-1.838l-0,-13.026Z" style="fill:#9ea5a7;fill-rule:nonzero;"/><path d="M115.312,21.895c-2.544,0 -4.624,-1.991 -4.624,-5.176l0,-0.06c0,-3.123 2.111,-5.175 4.624,-5.175c2.512,0 4.716,2.083 4.716,5.175l0,0.06c0,3.093 -2.204,5.176 -4.716,5.176Zm6.489,-13.566c-1.04,-0 -1.867,0.828 -1.867,1.868l0,1.102c-1.195,-1.683 -2.877,-3.031 -5.51,-3.031c-3.799,-0 -7.503,3 -7.503,8.391l0,0.06c0,5.359 3.674,8.389 7.503,8.389c2.679,-0 4.359,-1.332 5.493,-2.822c-0.185,2.911 -1.968,4.449 -5.095,4.449c-1.866,0 -3.49,-0.461 -4.962,-1.289c-0.183,-0.09 -0.394,-0.151 -0.671,-0.151c-0.857,0 -1.564,0.705 -1.564,1.53c0,0.704 0.399,1.225 1.044,1.47c1.957,0.95 3.976,1.44 6.244,1.44c2.911,0 5.177,-0.704 6.647,-2.175c1.345,-1.348 2.08,-3.367 2.08,-6.094l0,-11.269c0,-1.04 -0.796,-1.868 -1.839,-1.868Z" style="fill:#9ea5a7;fill-rule:nonzero;"/><path d="M89.15,3.907c0,1.03 -0.837,1.868 -1.869,1.868c-1.032,-0 -1.867,-0.838 -1.867,-1.868c0,-1.034 0.835,-1.868 1.867,-1.868c1.032,-0 1.869,0.834 1.869,1.868Z" style="fill:#9ea5a7;fill-rule:nonzero;"/><path d="M30.296,24.001c-4.107,5.473 -12.882,3.626 -18.508,3.891c0,0 -0.996,0.056 -1.999,0.221c0,0 0.379,-0.162 0.863,-0.329c3.951,-1.366 5.818,-1.641 8.219,-2.874c4.511,-2.311 9.001,-7.344 9.915,-12.573c-1.718,5.029 -6.94,9.357 -11.695,11.115c-3.255,1.201 -9.14,2.37 -9.141,2.37c0.002,0.004 -0.235,-0.123 -0.238,-0.126c-4.003,-1.947 -4.119,-10.617 3.151,-13.411c3.188,-1.226 6.237,-0.553 9.682,-1.373c3.675,-0.874 7.932,-3.629 9.662,-7.23c1.939,5.753 4.269,14.753 0.089,20.319Zm0.072,-22.102c-0.489,1.162 -1.086,2.209 -1.774,3.146c-3.028,-3.109 -7.255,-5.045 -11.927,-5.045c-9.191,-0 -16.667,7.477 -16.667,16.666c0,4.817 2.056,9.161 5.334,12.206l0.365,0.324c-0.609,-0.497 -0.703,-1.392 -0.209,-2.002c0.497,-0.611 1.393,-0.705 2.003,-0.211c0.611,0.495 0.704,1.393 0.209,2.004c-0.493,0.611 -1.391,0.704 -2.001,0.21l0.248,0.22c2.9,2.442 6.638,3.916 10.718,3.916c8.784,0 15.998,-6.836 16.615,-15.465c0.457,-4.224 -0.79,-9.589 -2.914,-15.969Z" style="fill:#9ea5a7;fill-rule:nonzero;"/><path d="M127.979,9.496l-0.582,-0l0,0.771l0.582,-0c0.189,-0 0.395,-0.152 0.395,-0.377c0,-0.242 -0.206,-0.394 -0.395,-0.394Zm0.359,1.908l-0.565,-0.86l-0.376,0l0,0.86l-0.304,0l0,-2.177l0.886,0c0.368,0 0.709,0.26 0.709,0.663c0,0.484 -0.431,0.646 -0.556,0.646l0.583,0.868l-0.377,-0Zm-0.52,-2.705c-0.896,-0 -1.613,0.716 -1.613,1.613c0,0.886 0.717,1.612 1.613,1.612c0.887,-0 1.613,-0.726 1.613,-1.612c0,-0.897 -0.726,-1.613 -1.613,-1.613Zm0,3.512c-1.048,-0 -1.899,-0.851 -1.899,-1.899c0,-1.058 0.851,-1.9 1.899,-1.9c1.058,-0 1.9,0.842 1.9,1.9c0,1.048 -0.842,1.899 -1.9,1.899Z" style="fill:#9ea5a7;fill-rule:nonzero;"/></svg>