<svg width="140" height="54" viewBox="0 0 140 54" fill="none" xmlns="http://www.w3.org/2000/svg">
<path d="M49.5155 17.7212C48.8969 17.5357 48.2784 17.2882 47.598 17.1027C47.7217 16.6697 47.7835 16.2367 47.9073 15.8037C49.3299 8.81402 48.4021 3.1233 45.1856 1.26763C42.0928 -0.526188 37.0207 1.32947 31.9485 5.78308C31.4536 6.21607 30.9588 6.64907 30.464 7.14391C30.1547 6.83464 29.8454 6.52536 29.4743 6.21608C24.1547 1.45319 18.7732 -0.526184 15.5567 1.32949C12.4639 3.1233 11.5361 8.44288 12.8351 15.0614C12.9588 15.7418 13.0825 16.3604 13.2681 17.0408C12.5258 17.2264 11.7835 17.4738 11.1031 17.7212C4.8557 19.8862 0.835083 23.3501 0.835083 26.8759C0.835083 30.5254 5.16498 34.2367 11.6598 36.4635C12.2165 36.6491 12.7114 36.8346 13.2681 36.9584C13.0825 37.6388 12.9588 38.381 12.7732 39.0614C11.5361 45.6181 12.5258 50.7522 15.5567 52.546C18.7114 54.4016 24.0928 52.4841 29.2887 47.9687C29.7217 47.5975 30.0928 47.2264 30.5258 46.8553C31.0207 47.3501 31.5774 47.8449 32.1341 48.3398C37.1444 52.6697 42.1547 54.4016 45.2475 52.6697C48.4021 50.814 49.4536 45.247 48.0928 38.5047C47.9691 38.0099 47.8454 37.4532 47.7217 36.8965L48.8351 36.5254C55.6392 34.2986 60.031 30.6491 60.031 26.9377C60.031 23.412 55.8866 19.948 49.5155 17.7212Z" fill="#989898"/>
<path d="M48.0309 34.1751C47.7217 34.2988 47.3505 34.3607 47.0413 34.4844C46.2371 31.8864 45.1856 29.4122 44.0722 26.9998C45.1856 24.5875 46.1753 22.1132 46.9794 19.5772C47.598 19.7627 48.1547 19.9483 48.7114 20.1339C54.2165 21.9895 57.5567 24.8349 57.5567 26.938C57.4949 29.2266 53.9072 32.1957 48.0309 34.1751ZM45.6186 38.9998C46.1753 41.5978 46.299 44.1957 45.9279 46.7937C45.5567 48.7112 44.8763 49.9483 44.0103 50.4431C42.1547 51.4947 38.134 50.1339 33.866 46.4225C33.3712 45.9895 32.8763 45.5565 32.3815 45.0617C34.1753 43.0823 35.8454 40.9792 37.3299 38.7524C40.0516 38.505 42.7114 38.1339 45.3712 37.5153C45.3712 38.072 45.4949 38.505 45.6186 38.9998ZM21 50.3194C19.2062 50.938 17.7217 50.9998 16.8557 50.505C15 49.4535 14.1959 45.2473 15.2475 39.6803C15.3712 38.9998 15.4949 38.3813 15.6804 37.7009C18.3402 38.2576 21 38.6287 23.6598 38.8761C25.2062 41.1029 26.9382 43.206 28.732 45.1854C28.3609 45.5565 27.9897 45.8658 27.6186 46.237C25.7011 47.9071 23.4124 49.3297 21 50.3194ZM12.464 34.1751C9.92788 33.371 7.63921 32.1339 5.53612 30.5256C4.05159 29.2885 3.30933 27.9895 3.30933 26.9998C3.30933 24.8349 6.52582 22.1132 11.9073 20.1957C12.5877 19.9483 13.2681 19.7627 13.9485 19.5772C14.7526 22.1132 15.6805 24.6493 16.8557 27.0617C15.7423 29.5359 14.7526 32.072 13.9485 34.6699C13.3918 34.4844 12.8969 34.2988 12.464 34.1751ZM15.3093 14.6287C14.1959 8.93799 14.9382 4.66996 16.7939 3.55655C18.7732 2.3813 23.165 4.0514 27.8042 8.13387C28.1134 8.38129 28.4227 8.69056 28.6701 8.93799C26.8763 10.9174 25.1444 13.0205 23.598 15.1854C20.9382 15.4328 18.2784 15.804 15.6804 16.4225C15.5567 15.8658 15.433 15.2473 15.3093 14.6287ZM40.8557 20.938C40.299 19.9483 39.6804 18.9586 39.0619 17.9689C40.9794 18.2163 42.7732 18.5256 44.4433 18.8968C43.8866 20.6287 43.2681 22.3607 42.5258 23.9689C42.031 22.9792 41.4743 21.9895 40.8557 20.938ZM30.4639 10.7937C31.7011 12.1545 32.8763 13.5153 33.9279 14.9999C31.5773 14.8761 29.2887 14.8761 26.9382 14.9999C28.0516 13.5772 29.2268 12.1545 30.4639 10.7937ZM19.9485 20.9998C19.3918 21.9895 18.8351 23.0411 18.2784 24.0926C17.598 22.4225 16.9176 20.6906 16.4227 18.9586C18.2165 18.5875 20.0103 18.2782 21.8042 18.0308C21.1141 18.974 20.4939 19.9663 19.9485 20.9998ZM21.8042 36.0926C19.9485 35.9071 18.1547 35.5978 16.3609 35.2266C16.9176 33.4328 17.5361 31.7009 18.2784 29.9689C18.8351 31.0205 19.3918 32.0101 19.9485 33.0617C20.567 34.1132 21.1856 35.1029 21.8042 36.0926ZM30.5258 43.2679C29.2887 41.9071 28.0516 40.4844 26.9382 38.9998C28.0516 39.0617 29.2268 39.0617 30.4021 39.0617C31.6392 39.0617 32.8145 39.0617 33.9897 38.9998C32.8763 40.4844 31.7629 41.9071 30.5258 43.2679ZM42.5877 29.9071C43.3299 31.639 44.0103 33.371 44.567 35.1029C42.7114 35.5359 40.9176 35.8452 39.0619 36.0308C39.6804 35.0411 40.299 34.0514 40.8557 32.9998C41.4743 32.0101 42.031 30.9586 42.5877 29.9071ZM38.6908 31.7627C37.7629 33.3091 36.8351 34.8555 35.8454 36.3401C34.1134 36.4638 32.2578 36.5256 30.4021 36.5256C28.5464 36.5256 26.7526 36.4638 25.0206 36.3401C23.9691 34.8555 23.0413 33.3091 22.1134 31.7627C21.1856 30.2163 20.3815 28.6081 19.5774 26.9998C20.3815 25.3916 21.1856 23.7833 22.1134 22.237C23.0413 20.6906 23.9691 19.1442 24.9588 17.6596C28.5464 17.4122 32.134 17.4122 35.7835 17.6596C36.7732 19.1442 37.7629 20.6906 38.6289 22.237C39.5567 23.7833 40.3609 25.3916 41.165 26.9998C40.4227 28.6081 39.5567 30.2163 38.6908 31.7627ZM43.8866 3.49469C45.866 4.66995 46.6701 9.24727 45.3712 15.3091C45.3093 15.6803 45.1856 16.1132 45.1237 16.4844C42.5258 15.8658 39.866 15.4947 37.2062 15.2473C35.6598 13.0823 33.9897 10.9792 32.1959 8.99984C32.6289 8.56685 33.1237 8.13387 33.5567 7.76273C37.9485 3.92768 42.0309 2.44315 43.8866 3.49469Z" fill="white"/>
<path d="M30.4021 21.742C33.3093 21.742 35.7217 24.0925 35.7217 27.0615C35.7217 29.9688 33.3712 32.3811 30.4021 32.3811C27.4949 32.3811 25.0825 30.0306 25.0825 27.0615C25.1444 24.0925 27.4949 21.742 30.4021 21.742ZM77.9691 27.1234H72.464V35.1646H69.9897V15.0615H77.4124C81.3093 15.0615 84.0928 16.9172 84.0928 20.7523V21.4327C84.0928 24.1543 82.6701 25.8863 80.5052 26.6285L85.2681 35.1646H82.4846L77.9691 27.1234ZM77.2887 24.8966C79.8248 24.8966 81.6186 23.7213 81.6186 21.4327V20.8141C81.6186 18.4636 79.8248 17.2883 77.2887 17.2883H72.464V24.8966H77.2887ZM89.6598 29.4121C89.6598 31.7007 91.0825 33.4945 93.5567 33.4945C95.598 33.4945 96.8351 32.443 97.0207 30.8966H99.3712C99.1238 33.5564 96.8351 35.4739 93.6186 35.4739C89.7835 35.4739 87.3712 32.9997 87.3712 28.8554V27.9275C87.3712 23.845 89.7217 21.309 93.5567 21.309C97.2681 21.309 99.433 23.7213 99.433 27.6182V29.1646H89.6598V29.4121ZM89.6598 27.0615V27.1852H97.0207V26.876C97.0207 24.8966 95.9691 23.2265 93.4949 23.2265C91.5155 23.1028 89.7835 24.6492 89.6598 26.6285V27.0615ZM113.227 26.876V35.2265H110.876V33.8038C109.763 34.9172 108.217 35.5358 106.608 35.4739C104.134 35.4739 102.278 34.0512 102.278 31.5151C102.278 28.5461 104.629 27.4327 107.66 27.4327C108.711 27.4327 109.763 27.4945 110.814 27.6182V26.5667C110.814 24.5873 109.948 23.2883 107.969 23.2883C106.361 23.2265 105 24.4017 104.938 26.01V26.2574H102.588C102.588 23.7832 104.505 21.3708 107.907 21.3708C111.495 21.2471 113.227 23.3502 113.227 26.876ZM104.629 31.3914C104.629 32.7523 105.619 33.4945 107.289 33.4945C108.711 33.4327 110.01 32.8141 110.938 31.7626V29.5358C109.948 29.4121 108.897 29.3502 107.907 29.3502C105.866 29.2883 104.629 29.9688 104.629 31.3914ZM128.938 26.5667H126.773C126.711 24.711 125.165 23.2265 123.309 23.2265H123.186C120.65 23.2265 119.227 25.0203 119.227 27.8038V28.9172C119.227 31.7007 120.65 33.4945 123.186 33.4945C124.979 33.6182 126.588 32.2574 126.711 30.4636V30.4018H128.938C128.629 33.5564 126.278 35.4739 123.186 35.4739C119.351 35.4739 116.876 33.1234 116.876 28.8554V27.9275C116.876 23.6595 119.351 21.309 123.186 21.309C126.402 21.2471 128.753 23.2883 128.938 26.5667ZM139.392 35.1028C138.526 35.4121 137.66 35.5358 136.732 35.4739C134.381 35.4739 132.835 34.1131 132.835 31.2059V23.4739H130.361V21.4945H132.835V16.7316H135.186V21.4945H139.206V23.4739H135.186L135.124 30.7729C135.124 32.6904 135.99 33.309 137.412 33.309C138.031 33.309 138.711 33.1853 139.268 32.9378L139.392 35.1028Z" fill="#989898"/>
</svg>
