<?xml version="1.0" encoding="UTF-8" standalone="no"?><!DOCTYPE svg PUBLIC "-//W3C//DTD SVG 1.1//EN" "http://www.w3.org/Graphics/SVG/1.1/DTD/svg11.dtd"><svg width="100%" height="100%" viewBox="0 0 139 53" version="1.1" xmlns="http://www.w3.org/2000/svg" xmlns:xlink="http://www.w3.org/1999/xlink" xml:space="preserve" xmlns:serif="http://www.serif.com/" style="fill-rule:evenodd;clip-rule:evenodd;stroke-linejoin:round;stroke-miterlimit:2;"><path d="M48.68,17.131c-0.618,-0.185 -1.237,-0.433 -1.917,-0.618c0.124,-0.433 0.185,-0.866 0.309,-1.299c1.423,-6.99 0.495,-12.681 -2.721,-14.536c-3.093,-1.794 -8.165,0.062 -13.238,4.515c-0.494,0.433 -0.989,0.866 -1.484,1.361c-0.309,-0.309 -0.619,-0.618 -0.99,-0.928c-5.319,-4.763 -10.701,-6.742 -13.917,-4.886c-3.093,1.793 -4.021,7.113 -2.722,13.732c0.124,0.68 0.247,1.299 0.433,1.979c-0.742,0.186 -1.485,0.433 -2.165,0.68c-6.247,2.165 -10.268,5.629 -10.268,9.155c0,3.65 4.33,7.361 10.825,9.588c0.556,0.185 1.051,0.371 1.608,0.495c-0.186,0.68 -0.309,1.422 -0.495,2.103c-1.237,6.556 -0.247,11.69 2.784,13.484c3.154,1.856 8.536,-0.062 13.732,-4.577c0.433,-0.371 0.804,-0.742 1.237,-1.114c0.495,0.495 1.051,0.99 1.608,1.485c5.01,4.33 10.021,6.062 13.113,4.33c3.155,-1.856 4.207,-7.423 2.846,-14.165c-0.124,-0.495 -0.248,-1.052 -0.371,-1.608l1.113,-0.371c6.804,-2.227 11.196,-5.877 11.196,-9.588c0,-3.526 -4.144,-6.99 -10.516,-9.217Zm-28.515,32.599c-1.794,0.618 -3.278,0.68 -4.144,0.185c-1.856,-1.051 -2.66,-5.258 -1.609,-10.825c0.124,-0.68 0.248,-1.299 0.433,-1.979c2.66,0.557 5.32,0.928 7.98,1.175c1.546,2.227 3.278,4.33 5.072,6.31c-0.371,0.371 -0.742,0.68 -1.113,1.051c-1.918,1.67 -4.207,3.093 -6.619,4.083Zm24.619,-11.32c0.556,2.598 0.68,5.196 0.309,7.794c-0.371,1.917 -1.052,3.154 -1.918,3.649c-1.855,1.052 -5.876,-0.309 -10.144,-4.02c-0.495,-0.433 -0.99,-0.866 -1.485,-1.361c1.794,-1.98 3.464,-4.083 4.949,-6.309c2.722,-0.248 5.381,-0.619 8.041,-1.238c0,0.557 0.124,0.99 0.248,1.485Zm-15.093,4.268c-1.237,-1.361 -2.474,-2.783 -3.588,-4.268c1.114,0.062 2.289,0.062 3.464,0.062c1.237,-0 2.412,-0 3.588,-0.062c-1.114,1.485 -2.227,2.907 -3.464,4.268Zm8.165,-11.505c-0.928,1.546 -1.856,3.093 -2.846,4.577c-1.732,0.124 -3.587,0.186 -5.443,0.186c-1.856,-0 -3.649,-0.062 -5.381,-0.186c-1.052,-1.484 -1.98,-3.031 -2.908,-4.577c-0.927,-1.547 -1.732,-3.155 -2.536,-4.763c0.804,-1.608 1.609,-3.217 2.536,-4.763c0.928,-1.546 1.856,-3.093 2.846,-4.577c3.587,-0.248 7.175,-0.248 10.824,-0c0.99,1.484 1.98,3.031 2.846,4.577c0.928,1.546 1.732,3.155 2.536,4.763c-0.742,1.608 -1.608,3.216 -2.474,4.763Zm-16.887,4.33c-1.856,-0.186 -3.649,-0.495 -5.443,-0.866c0.557,-1.794 1.175,-3.526 1.917,-5.258c0.557,1.052 1.114,2.041 1.67,3.093c0.619,1.051 1.238,2.041 1.856,3.031Zm20.784,-6.186c0.742,1.732 1.422,3.464 1.979,5.196c-1.856,0.433 -3.649,0.742 -5.505,0.928c0.618,-0.99 1.237,-1.979 1.794,-3.031c0.618,-0.99 1.175,-2.041 1.732,-3.093Zm-30.124,4.268c-2.536,-0.804 -4.825,-2.041 -6.928,-3.649c-1.484,-1.237 -2.227,-2.536 -2.227,-3.526c0,-2.165 3.217,-4.887 8.598,-6.804c0.681,-0.248 1.361,-0.433 2.041,-0.619c0.805,2.536 1.732,5.072 2.908,7.485c-1.114,2.474 -2.103,5.01 -2.908,7.608c-0.556,-0.185 -1.051,-0.371 -1.484,-0.495Zm35.567,-0c-0.309,0.124 -0.681,0.186 -0.99,0.31c-0.804,-2.598 -1.855,-5.073 -2.969,-7.485c1.114,-2.412 2.103,-4.887 2.907,-7.423c0.619,0.186 1.176,0.371 1.732,0.557c5.505,1.856 8.846,4.701 8.846,6.804c-0.062,2.289 -3.65,5.258 -9.526,7.237Zm-28.083,-13.175c-0.556,0.99 -1.113,2.041 -1.67,3.093c-0.68,-1.67 -1.36,-3.402 -1.855,-5.134c1.793,-0.371 3.587,-0.681 5.381,-0.928c-0.69,0.943 -1.31,1.935 -1.856,2.969Zm20.908,-0.062c-0.557,-0.99 -1.176,-1.979 -1.794,-2.969c1.917,0.247 3.711,0.557 5.381,0.928c-0.556,1.732 -1.175,3.464 -1.917,5.072c-0.495,-0.99 -1.052,-1.979 -1.67,-3.031Zm3.031,-17.443c1.979,1.175 2.783,5.752 1.484,11.814c-0.062,0.371 -0.185,0.804 -0.247,1.176c-2.598,-0.619 -5.258,-0.99 -7.918,-1.238c-1.546,-2.165 -3.216,-4.268 -5.01,-6.247c0.433,-0.433 0.928,-0.866 1.361,-1.237c4.391,-3.835 8.474,-5.32 10.33,-4.268Zm-28.578,11.134c-1.113,-5.691 -0.371,-9.959 1.485,-11.072c1.979,-1.176 6.371,0.495 11.01,4.577c0.309,0.247 0.619,0.557 0.866,0.804c-1.794,1.98 -3.526,4.083 -5.072,6.248c-2.66,0.247 -5.32,0.618 -7.918,1.237c-0.123,-0.557 -0.247,-1.176 -0.371,-1.794Zm15.155,-3.835c1.237,1.361 2.412,2.721 3.464,4.206c-2.351,-0.124 -4.639,-0.124 -6.99,-0c1.114,-1.423 2.289,-2.845 3.526,-4.206Z" style="fill:#9ea5a7;fill-rule:nonzero;"/><path d="M29.567,21.152c2.907,-0 5.32,2.351 5.32,5.32c0,2.907 -2.351,5.319 -5.32,5.319c-2.907,-0 -5.32,-2.35 -5.32,-5.319c0.062,-2.969 2.413,-5.32 5.32,-5.32Zm47.567,5.382l-5.505,-0l0,8.041l-2.474,-0l0,-20.103l7.422,-0c3.897,-0 6.681,1.855 6.681,5.69l0,0.681c0,2.721 -1.423,4.453 -3.588,5.196l4.763,8.536l-2.783,-0l-4.516,-8.041Zm-0.68,-2.227c2.536,-0 4.33,-1.176 4.33,-3.464l0,-0.619c0,-2.35 -1.794,-3.526 -4.33,-3.526l-4.825,-0l0,7.609l4.825,-0Zm12.371,4.515c0,2.289 1.422,4.083 3.897,4.083c2.041,-0 3.278,-1.052 3.464,-2.598l2.35,-0c-0.247,2.66 -2.536,4.577 -5.752,4.577c-3.836,-0 -6.248,-2.474 -6.248,-6.618l0,-0.928c0,-4.083 2.351,-6.619 6.186,-6.619c3.711,-0 5.876,2.412 5.876,6.309l0,1.547l-9.773,-0l0,0.247Zm0,-2.783l0,0.556l7.361,-0l0,-0.309c0,-1.979 -1.052,-3.649 -3.526,-3.649c-1.98,-0.124 -3.712,1.422 -3.835,3.402Zm23.567,0.247l0,8.351l-2.351,-0l0,-1.423c-1.113,1.113 -2.659,1.732 -4.268,1.67c-2.474,-0 -4.33,-1.423 -4.33,-3.959c0,-2.969 2.351,-4.082 5.382,-4.082c1.051,-0 2.103,0.062 3.154,0.185l0,-1.051c0,-1.98 -0.866,-3.279 -2.845,-3.279c-1.608,-0.061 -2.969,1.114 -3.031,2.722l0,0.248l-2.35,-0c0,-2.475 1.917,-4.887 5.319,-4.887c3.588,-0.124 5.32,1.979 5.32,5.505Zm-8.598,4.516c0,1.36 0.99,2.103 2.66,2.103c1.422,-0.062 2.721,-0.681 3.649,-1.732l0,-2.227c-0.99,-0.124 -2.041,-0.186 -3.031,-0.186c-2.041,-0.062 -3.278,0.619 -3.278,2.042Zm24.309,-4.825l-2.165,-0c-0.062,-1.856 -1.608,-3.34 -3.464,-3.34l-0.123,-0c-2.536,-0 -3.959,1.793 -3.959,4.577l0,1.113c0,2.784 1.423,4.578 3.959,4.578c1.793,0.123 3.402,-1.237 3.525,-3.031l0,-0.062l2.227,-0c-0.309,3.155 -2.66,5.072 -5.752,5.072c-3.835,-0 -6.31,-2.35 -6.31,-6.618l0,-0.928c0,-4.268 2.475,-6.619 6.31,-6.619c3.216,-0.062 5.567,1.979 5.752,5.258Zm10.454,8.536c-0.866,0.309 -1.732,0.433 -2.66,0.371c-2.351,-0 -3.897,-1.361 -3.897,-4.268l0,-7.732l-2.474,-0l0,-1.979l2.474,-0l0,-4.763l2.351,-0l0,4.763l4.02,-0l0,1.979l-4.02,-0l-0.062,7.299c0,1.918 0.866,2.536 2.288,2.536c0.619,-0 1.299,-0.124 1.856,-0.371l0.124,2.165Z" style="fill:#9ea5a7;fill-rule:nonzero;"/></svg>