<svg width="89" height="75" viewBox="0 0 89 75" fill="none" xmlns="http://www.w3.org/2000/svg">
<path fill-rule="evenodd" clip-rule="evenodd" d="M4.41429 4.39096e-05L35.3143 0.000137653C37.5781 0.00014452 39.4439 1.80971 39.6989 4.14099L39.7286 4.68765L39.7286 42.1877C39.7286 42.5235 39.6946 42.858 39.6275 43.1852L39.5021 43.67L30.6735 71.7949C30.1273 73.535 28.6835 74.7602 26.998 74.9686L26.4857 75.0001L8.82857 75.0001C5.9928 75 3.94138 72.2234 4.5042 69.3662L4.64081 68.8302L11.5326 46.8751L4.41429 46.875C2.15048 46.875 0.284689 45.0655 0.0296977 42.7342L-4.25122e-07 42.1875L-4.72371e-08 4.68753C-2.3013e-08 2.28361 1.70409 0.302346 3.89949 0.0315786L4.41429 4.39096e-05L35.3143 0.000137653L4.41429 4.39096e-05ZM52.9713 3.8632e-05L83.8713 0.000132375C86.1351 0.000139243 88.0009 1.80971 88.2559 4.14098L88.2856 4.68765L88.2856 42.1876C88.2856 42.5235 88.2516 42.8579 88.1845 43.1852L88.0591 43.67L79.2305 71.7949C78.6843 73.535 77.2405 74.7602 75.555 74.9686L75.0427 75.0001L57.3856 75.0001C54.5498 75 52.4984 72.2234 53.0612 69.3662L53.1978 68.8302L60.0897 46.8751L52.9713 46.875C50.7075 46.875 48.8417 45.0655 48.5867 42.7342L48.557 42.1875L48.557 4.68753C48.557 2.28361 50.2611 0.302341 52.4565 0.0315733L52.9713 3.8632e-05L83.8713 0.000132375L52.9713 3.8632e-05ZM30.9 9.37509L8.82861 9.37503L8.82861 37.5L17.6572 37.5001C20.493 37.5001 22.5444 40.2767 21.9816 43.1339L21.8449 43.6699L14.9531 65.6251L23.3041 65.6251L30.9 41.4269L30.9 9.37509ZM79.457 9.3751L57.3856 9.37504L57.3856 37.5L66.2142 37.5001C69.05 37.5001 71.1014 40.2767 70.5386 43.1339L70.4019 43.6699L63.5101 65.6251L71.8611 65.6251L79.457 41.4269L79.457 9.3751Z" fill="white"/>
</svg>
