<svg width="206" height="175" viewBox="0 0 206 175" fill="none" xmlns="http://www.w3.org/2000/svg">
<path opacity="0.5" fill-rule="evenodd" clip-rule="evenodd" d="M10.3 0H82.4C87.6822 0 92.0357 4.22231 92.6307 9.66196L92.7 10.9375V98.4375C92.7 99.2212 92.6207 100.002 92.4641 100.765L92.1715 101.896L71.5714 167.521C70.2969 171.581 66.9281 174.44 62.9953 174.926L61.8 175H20.6C13.9832 175 9.19656 168.521 10.5098 161.854L10.8286 160.604L26.9095 109.375H10.3C5.01779 109.375 0.664276 105.153 0.0692956 99.713L0 98.4375V10.9375C0 5.32836 3.97621 0.70539 9.0988 0.0735846L10.3 0H82.4H10.3ZM123.6 0H195.7C200.982 0 205.336 4.22231 205.931 9.66196L206 10.9375V98.4375C206 99.2212 205.921 100.002 205.764 100.765L205.471 101.896L184.871 167.521C183.597 171.581 180.228 174.44 176.295 174.926L175.1 175H133.9C127.283 175 122.497 168.521 123.81 161.854L124.129 160.604L140.21 109.375H123.6C118.318 109.375 113.964 105.153 113.369 99.713L113.3 98.4375V10.9375C113.3 5.32836 117.276 0.70539 122.399 0.0735846L123.6 0H195.7H123.6ZM72.0999 21.875H20.5999V87.5H41.1999C47.8167 87.5 52.6034 93.9787 51.2901 100.646L50.9714 101.896L34.8904 153.125H54.3761L72.0999 96.6626V21.875ZM185.4 21.875H133.9V87.5H154.5C161.117 87.5 165.903 93.9787 164.59 100.646L164.271 101.896L148.191 153.125H167.676L185.4 96.6626V21.875Z" fill="#E1E3E4"/>
</svg>
