<?xml version="1.0" encoding="UTF-8" standalone="no"?>
<!DOCTYPE svg PUBLIC "-//W3C//DTD SVG 1.1//EN" "http://www.w3.org/Graphics/SVG/1.1/DTD/svg11.dtd">
<svg width="100%" height="100%" viewBox="0 0 57 57" version="1.1" xmlns="http://www.w3.org/2000/svg" xmlns:xlink="http://www.w3.org/1999/xlink" xml:space="preserve" xmlns:serif="http://www.serif.com/" style="fill-rule:evenodd;clip-rule:evenodd;stroke-linejoin:round;stroke-miterlimit:2;">
    <g transform="matrix(1,0,0,1,-16.0624,-12.861)">
        <g transform="matrix(1,0,0,1,-206.656,0)">
            <g id="rect6" transform="matrix(0.3189,-0.3189,0.3189,0.3189,156.816,126.878)">
                <path d="M206.656,0L206.656,26.607L268.74,26.607L268.74,88.693L295.35,88.693L295.35,0L206.656,0Z" style="fill:rgb(50,50,50);"/>
            </g>
        </g>
        <g transform="matrix(1,0,0,1,-206.656,0)">
            <g id="rect61" serif:id="rect6" transform="matrix(-0.3189,0.3189,-0.3189,-0.3189,345.19,-44.5559)">
                <path d="M206.656,0L206.656,26.607L268.74,26.607L268.74,88.693L295.35,88.693L295.35,0L206.656,0Z" style="fill:rgb(50,50,50);"/>
            </g>
        </g>
    </g>
</svg>
