<svg width="254" height="254" viewBox="0 0 254 254" fill="none" xmlns="http://www.w3.org/2000/svg">
<mask id="mask0" mask-type="alpha" maskUnits="userSpaceOnUse" x="0" y="0" width="254" height="254">
<rect width="254" height="254" fill="#CCCCCC"/>
</mask>
<g mask="url(#mask0)">
<path d="M176.648 256.311C183.086 252.679 191.249 254.954 194.881 261.392C203.452 276.587 209.779 298.057 213.045 320.496C216.156 341.864 216.092 361.187 212.18 371.946C209.654 378.893 201.975 382.476 195.028 379.95C188.151 377.449 184.57 369.898 186.95 363.007L187.024 362.799C189.025 357.295 189.077 341.66 186.557 324.351C183.728 304.911 178.292 286.464 171.567 274.543C167.935 268.106 170.21 259.943 176.648 256.311Z" fill="#EBBAAA"/>
<rect x="110.421" y="186.219" width="28.9375" height="74.1523" rx="14.4687" fill="#EBBAAA"/>
<path d="M109.834 242.895C110.861 242.895 111.694 242.062 111.694 241.035C111.694 240.007 110.861 239.175 109.834 239.175C108.806 239.175 107.974 240.007 107.974 241.035C107.974 242.062 108.806 242.895 109.834 242.895Z" fill="#E5EBF9"/>
<path d="M122.817 236.86C121.535 234.509 122.094 227.998 122.094 227.998L114.091 227.336L102.742 212.263C91.468 214.252 90.9858 214.976 82.8471 218.593C73.1382 222.908 75.0702 237.402 73.6233 257.116L77.9639 368.706L100.21 372.024L118.612 372.385L123.721 245.36C123.721 245.36 124.099 239.211 122.817 236.86Z" fill="#DEDEE2"/>
<path d="M123.179 242.286C123.54 239.392 124.083 235.956 126.434 233.604C128.785 231.253 131.317 228.54 131.317 228.54H139.207L150.421 213.348C150.421 213.348 166.517 215.518 171.943 218.412C177.368 221.306 180.624 252.956 180.624 252.956L179.064 368.706L169.411 372.504H120.036C117.866 333.077 122.568 258.263 122.568 252.956C122.568 250.667 122.817 245.179 123.179 242.286Z" fill="#DEDEE2"/>
<mask id="mask1" mask-type="alpha" maskUnits="userSpaceOnUse" x="119" y="215" width="65" height="160">
<path fill-rule="evenodd" clip-rule="evenodd" d="M123.247 237.284C123.608 234.39 123.789 233.124 124.513 231.496L130.707 230.711H139.207L150.421 215.519C150.421 215.519 166.517 217.689 171.943 220.583C177.368 223.476 180.624 255.127 180.624 255.127L183.156 370.877L169.411 374.675H120.036C117.866 335.247 122.568 260.433 122.568 255.127C122.568 252.837 122.885 240.177 123.247 237.284Z" fill="white"/>
</mask>
<g mask="url(#mask1)">
<path d="M131.498 302.874C131.643 289.128 134.67 238.488 131.234 225.647C131.234 225.647 128.803 228.266 126.351 230.53C123.898 232.794 123.457 236.679 123.457 236.679V236.86L115.583 372.324H131.498C131.136 354.72 131.353 316.619 131.498 302.874Z" fill="#CDCBD6"/>
<path d="M131.498 302.874C131.643 289.128 134.67 238.488 131.234 225.647C131.234 225.647 128.803 228.266 126.351 230.53C123.898 232.794 123.457 236.679 123.457 236.679V236.86L115.583 372.324H131.498C131.136 354.72 131.353 316.619 131.498 302.874Z" fill="#CDCBD6"/>
<path fill-rule="evenodd" clip-rule="evenodd" d="M143.921 232.659L143.56 232.658L143.051 374.966L143.413 374.967L143.921 232.659ZM140.849 232.755L141.21 232.757L140.701 375.064L140.34 375.062L140.849 232.755ZM138.138 232.867L137.776 232.866L137.267 375.173L137.629 375.174L138.138 232.867ZM135.065 232.977L134.703 232.976L134.194 375.283L134.556 375.284L135.065 232.977Z" fill="black" fill-opacity="0.32"/>
<path fill-rule="evenodd" clip-rule="evenodd" d="M121.219 379.123L121.728 236.816L122.09 236.817L121.581 379.124L121.219 379.123ZM124.292 379.013L124.801 236.706L125.163 236.707L124.654 379.014L124.292 379.013ZM127.365 378.902L127.873 236.595L128.235 236.597L127.726 378.904L127.365 378.902ZM130.076 378.805L130.585 236.498L130.946 236.499L130.438 378.806L130.076 378.805Z" fill="black" fill-opacity="0.13"/>
</g>
<path d="M128.062 243.733C129.16 243.733 130.051 242.842 130.051 241.743C130.051 240.644 129.16 239.754 128.062 239.754C126.963 239.754 126.072 240.644 126.072 241.743C126.072 242.842 126.963 243.733 128.062 243.733Z" fill="#BAB8C6"/>
<path d="M127.7 254.584C128.799 254.584 129.69 253.693 129.69 252.595C129.69 251.496 128.799 250.605 127.7 250.605C126.601 250.605 125.711 251.496 125.711 252.595C125.711 253.693 126.601 254.584 127.7 254.584Z" fill="#BAB8C6"/>
<mask id="mask2" mask-type="alpha" maskUnits="userSpaceOnUse" x="73" y="212" width="51" height="161">
<path fill-rule="evenodd" clip-rule="evenodd" d="M122.817 236.86C121.534 234.509 122.093 227.998 122.093 227.998L114.09 227.336L102.741 212.263C91.4675 214.252 90.9853 214.976 82.8466 218.593C73.1377 222.908 75.0697 237.402 73.6228 257.116L77.9634 368.706L100.209 372.024L118.612 372.385L123.721 245.36C123.721 245.36 124.099 239.211 122.817 236.86Z" fill="white"/>
</mask>
<g mask="url(#mask2)">
<path fill-rule="evenodd" clip-rule="evenodd" d="M114.678 231.788L115.04 231.803L109.433 372.692L109.072 372.678L114.678 231.788ZM118.114 231.803L117.753 231.788L112.146 372.678L112.508 372.692L118.114 231.803ZM120.827 231.803L120.466 231.788L114.859 372.678L115.22 372.692L120.827 231.803ZM111.965 231.803L111.603 231.788L105.997 372.678L106.358 372.692L111.965 231.803Z" fill="black" fill-opacity="0.32"/>
</g>
<path d="M122.507 234.87C121.928 233.424 121.912 229.927 122.093 227.998C119.682 228.661 115.401 230.24 117.571 231.253C119.741 232.266 122.628 237.644 123.773 240.296C123.532 239.271 123.085 236.317 122.507 234.87Z" fill="#CDCBD6"/>
<path d="M112.147 218.955C109.951 215.112 110.7 211.178 110.42 206.837L102.146 210.935C102.146 210.935 99.253 215.276 101.061 225.766C102.308 233 99.1246 238.669 108.529 244.275C109.614 234.69 120.281 229.68 122.094 227.998C118.657 226.189 115.04 224.019 112.147 218.955Z" fill="#CDCBD6"/>
<mask id="mask3" mask-type="alpha" maskUnits="userSpaceOnUse" x="100" y="206" width="23" height="39">
<path fill-rule="evenodd" clip-rule="evenodd" d="M112.146 218.955C109.95 215.112 110.699 211.178 110.421 206.837L102.146 210.935C102.146 210.935 99.2528 215.276 101.061 225.766C102.308 233 99.1244 238.669 108.529 244.275C109.614 234.69 120.281 229.68 122.094 227.998C118.657 226.189 115.04 224.019 112.146 218.955Z" fill="white"/>
</mask>
<g mask="url(#mask3)">
<path d="M110.597 206.837C107.112 210.205 105.085 212.899 106.795 220.683C108.506 228.466 112.84 233.214 114.135 234.328" stroke="black" stroke-opacity="0.12"/>
<path d="M105.778 208.646C102.349 211.988 102.335 216.32 104.018 224.044C105.702 231.767 109.967 236.478 111.242 237.584" stroke="black" stroke-opacity="0.12"/>
<path d="M114.114 205.391C110.708 208.67 108.727 211.293 110.399 218.872C112.071 226.451 116.306 231.073 117.572 232.158" stroke="black" stroke-opacity="0.12"/>
<path d="M117.731 205.029C114.326 208.308 112.344 210.931 114.016 218.51C115.688 226.089 119.923 230.711 121.189 231.796" stroke="black" stroke-opacity="0.12"/>
</g>
<path d="M129.689 235.052C133.668 232.881 137.105 231.977 139.275 230.349C138.552 227.021 133.307 227.817 131.317 228.541C130.714 229.325 129.002 231.29 126.977 232.881C124.951 234.473 123.782 238.006 123.54 239.573C124.384 239.091 127.249 236.383 129.689 235.052Z" fill="#CDCBD6"/>
<path d="M138.009 218.593C139.253 214.478 139.177 207.742 139.177 205.752L149.712 210.935C149.712 210.935 151.882 215.818 149.712 225.766C147.334 236.663 145.01 232.519 142.53 235.413C139.998 231.072 136.381 228.54 131.136 228.54C136.2 224.2 136.915 222.21 138.009 218.593Z" fill="#CDCBD6"/>
<mask id="mask4" mask-type="alpha" maskUnits="userSpaceOnUse" x="131" y="205" width="20" height="31">
<path fill-rule="evenodd" clip-rule="evenodd" d="M138.009 218.593C139.253 214.478 139.177 207.742 139.177 205.752L149.712 210.935C149.712 210.935 151.882 215.818 149.712 225.766C147.334 236.663 145.01 232.519 142.53 235.413C139.998 231.072 136.381 228.54 131.136 228.54C136.2 224.2 136.915 222.21 138.009 218.593Z" fill="white"/>
</mask>
<g mask="url(#mask4)">
<path d="M140.36 206.295C143.012 209.551 144.556 212.155 143.254 219.679C141.951 227.203 138.973 231.073 138.37 231.073" stroke="black" stroke-opacity="0.12"/>
<path d="M137.466 203.944C140.118 207.2 141.662 209.804 140.36 217.328C139.058 224.851 136.08 228.722 135.477 228.722" stroke="black" stroke-opacity="0.12"/>
<path d="M142.892 208.284C145.544 211.54 147.088 214.144 145.786 221.668C144.483 229.192 141.505 233.062 140.902 233.062" stroke="black" stroke-opacity="0.12"/>
</g>
<path d="M137.405 229.998L137.528 230.338L137.12 230.488C131.805 232.462 126.209 235.514 124.303 238.129L124.231 238.229L123.934 238.023C125.825 235.304 131.541 232.174 136.991 230.15L137.405 229.998Z" fill="black" fill-opacity="0.12"/>
<path d="M136.673 228.735L136.813 229.069C132.798 230.749 128.01 233.205 125.593 235.088L125.462 235.192L125.236 234.91C127.596 233.021 132.376 230.551 136.447 228.83L136.673 228.735Z" fill="black" fill-opacity="0.12"/>
<path d="M135.037 227.654L135.193 227.98L134.893 228.129C134.487 228.339 134.015 228.614 132.979 229.24L131.388 230.204C130.271 230.875 129.561 231.274 128.992 231.539L128.858 231.6L128.711 231.269L128.842 231.21C129.418 230.942 130.155 230.525 131.34 229.811L133.482 228.516C134.124 228.132 134.475 227.935 134.807 227.767L135.037 227.654Z" fill="black" fill-opacity="0.12"/>
<path d="M143.434 242.828C145.456 231.38 151.935 209.845 140.986 206.294C140.986 206.294 150.295 208.983 165.04 214.614C179.785 220.245 182.495 230.287 182.495 230.287C185.767 236.986 189.534 267.971 190.457 306.31C191.381 344.648 188.65 358.216 184.308 376.121C176.531 379.196 157.361 381.366 137.828 382.451C137.828 377.99 137.104 367.017 136.923 360.567C136.743 354.118 136.16 342.984 136.381 315.172C136.576 290.632 140.464 259.649 143.434 242.828Z" fill="#5E82AE"/>
<path d="M49.9302 258.744C56.8482 229.425 60.1417 225.104 84.7384 216.061C84.7384 216.061 73.2086 254.884 73.2086 272.246C73.2086 289.609 75.9215 316.738 75.9215 316.738C73.3895 331.93 79.3593 358.759 75.923 366.898C66.6993 369.791 40.2924 369.068 35.9532 363.823C31.614 358.578 30.9414 345.556 33.472 326.928C36.0027 308.299 46.1322 274.84 49.9302 258.744Z" fill="#5E82AE"/>
<path d="M110.519 248.616C108.692 237.168 95.1455 217.87 109.336 206.837C109.336 206.837 104.633 209.189 89.9837 213.891C75.3341 218.593 72.9088 230.649 72.9088 230.649C69.9536 237.348 69.0319 269.057 68.1974 307.395C67.363 345.734 65.2125 356.227 68.1967 372.866C75.222 375.941 90.5972 379.316 108.078 381.667C108.078 377.205 109.424 370.612 109.549 365.57C109.957 349.108 114.419 336.977 114.219 309.165C114.043 284.625 113.202 265.437 110.519 248.616Z" fill="#5E82AE"/>
<path d="M220.842 324.757C218.129 309.746 214.693 294.373 210.172 280.266C202.036 254.884 196.346 234.702 190.541 225.647C185.818 218.278 170.285 216.423 166.487 215.157L182.862 316.981C182.862 333.62 182.5 352.248 181.777 365.813C191 368.706 214.874 371.419 219.215 365.813C223.555 360.206 223.555 339.769 220.842 324.757Z" fill="#5E82AE"/>
<path d="M92.7961 214.433C93.9644 210.093 109.698 206.656 109.698 206.656C105.817 210.635 104.081 213.42 105.817 223.838C107.553 234.255 117.211 262.723 114.22 317.704C114.22 317.704 84.6563 233.966 85.5606 232.338C85.9509 231.636 89.117 232.045 92.5913 232.737C92.319 227.368 91.9612 217.533 92.7961 214.433Z" fill="#4A6A90"/>
<path d="M157.327 213.891C156.185 209.55 140.814 206.114 140.814 206.114C144.606 210.093 146.302 212.878 144.606 223.295C142.91 233.713 133.474 262.18 136.397 317.161C136.397 317.161 165.278 233.424 164.395 231.796C164.014 231.094 160.921 231.502 157.526 232.194C157.793 226.826 158.142 216.991 157.327 213.891Z" fill="#4A6A90"/>
<path d="M76.5736 164.218C86.9931 164.218 95.4397 156.206 95.4397 146.323C95.4397 136.44 86.9931 128.428 76.5736 128.428C66.1542 128.428 57.7075 136.44 57.7075 146.323C57.7075 156.206 66.1542 164.218 76.5736 164.218Z" fill="#EBBAAA"/>
<path d="M176.994 165.606C187.413 165.606 195.86 157.594 195.86 147.71C195.86 137.827 187.413 129.815 176.994 129.815C166.575 129.815 158.128 137.827 158.128 147.71C158.128 157.594 166.575 165.606 176.994 165.606Z" fill="#EBBAAA"/>
<path d="M72.1335 131.904C68.7612 100.203 93.1678 72.3745 125.037 71.5825C157.092 70.7858 182.921 97.6676 180.844 129.664L180.279 138.378L177.463 161.198C174.259 187.158 152.206 206.657 126.049 206.657C98.9806 206.657 76.4756 185.818 74.3972 158.83L72.8226 138.378L72.1335 131.904Z" fill="#EED4CC"/>
<path d="M138.801 120.175L157.176 117.069C157.387 117.033 157.603 117.093 157.766 117.231L164.103 122.631C164.61 123.063 164.314 123.892 163.648 123.905L154.816 124.073L139.144 125.925C138.27 126.029 137.508 125.334 137.528 124.455L137.596 121.568C137.612 120.874 138.117 120.29 138.801 120.175Z" fill="#393939"/>
<path d="M111.85 120.177L93.6334 117.069C93.4214 117.033 93.2044 117.092 93.0413 117.232L86.7459 122.624C86.2413 123.056 86.5379 123.883 87.2024 123.896L95.9603 124.068L111.498 125.923C112.372 126.027 113.135 125.334 113.116 124.455L113.053 121.572C113.038 120.878 112.534 120.293 111.85 120.177Z" fill="#393939"/>
<path d="M121.738 141.672L127.83 142.508C127.715 143.347 127.447 144.277 126.981 145.599L126.872 145.904C126.587 146.693 125.749 148.936 125.566 149.441C125.049 150.865 124.66 152.039 124.352 153.139L124.296 153.345C123.537 156.13 123.413 158.179 123.896 159.362C124.331 160.426 125.478 161.057 128.217 161.079L128.371 161.08V167.229C123.221 167.229 119.694 165.337 118.203 161.686C117.084 158.944 117.279 155.706 118.363 151.728C118.708 150.459 119.131 149.164 119.68 147.634L119.831 147.218C120.106 146.47 120.934 144.252 121.126 143.711L121.256 143.34C121.515 142.593 121.667 142.07 121.723 141.762L121.738 141.672Z" fill="#EBBAAA"/>
<path d="M93.0286 88.6588C85.8879 90.9043 87.6191 96.4256 87.1865 101.68C86.5151 109.827 73.1656 99.6619 73.1656 138.47C71.6055 138.62 71.1237 130.591 68.2024 130.91C66.4173 131.549 66.6901 131.391 65.4254 132.103C64.2842 128.259 62.181 121.469 61.4496 108.87C59.0196 67.0125 92.5019 41.2142 122.338 45.1896C132.355 46.5244 145.967 56.2732 145.967 84.3876C131.361 92.3747 106.211 84.5138 93.0286 88.6588Z" fill="#2A2A2A"/>
<path d="M160.607 91.5688C164.846 93.8592 167.216 94.9364 169.291 99.8037C174.016 110.885 176.48 105.367 180.381 138.832C181.948 138.982 181.838 131.25 184.772 131.57C185.828 132.095 186.405 132.282 187.311 132.816C188.458 128.969 193.714 118.584 193.714 107.641C193.714 58.2264 156.774 42.7881 125.324 44.9896C103.773 46.4982 113.373 59.1471 113.373 87.2864C135.041 90.4847 148.433 84.9891 160.607 91.5688Z" fill="#2C2929"/>
<path d="M149.517 94.2863C153.966 83.3718 149.517 54.4138 146.319 47.3791C143.121 40.3444 133.109 41.623 139.227 58.2508C141.591 64.6752 145.707 71.1694 145.484 81.9134C145.262 92.6575 139.691 104.226 137.837 106.642C139.042 106.144 145.067 105.201 149.517 94.2863Z" fill="#2A2A2A"/>
<path d="M149.599 91.2573C152.739 79.8447 142.619 52.9264 137.756 46.8248C132.895 40.7232 121.754 44.0219 131.61 58.742C135.418 64.4294 141.227 69.8217 142.855 80.1963C144.483 90.5707 140.184 102.843 138.503 105.549C139.784 104.822 146.458 102.67 149.599 91.2573Z" fill="#2A2A2A"/>
<path d="M105.755 101.691C102.051 89.0298 107.222 55.9181 110.432 47.937C113.641 39.9559 122.831 41.7197 116.574 60.6272C114.157 67.9324 110.121 75.266 109.931 87.6064C109.74 99.9468 114.455 113.392 116.076 116.22C114.983 115.613 109.458 114.352 105.755 101.691Z" fill="#2A2A2A"/>
<path d="M85.9338 98.7834C85.9338 92.6266 82.602 76.5051 82.2026 68.9995C82.7358 68.1765 84.5657 66.841 87.6226 68.0831C91.4435 69.6357 91.3093 83.0363 90.1919 98.7834C89.6497 106.429 90.9157 111.313 90.9157 111.313C90.9157 111.313 85.9338 107.153 85.9338 98.7834Z" fill="#2A2A2A"/>
<path d="M128.297 39.006C134.254 39.3979 137.523 43.4968 138.009 46.5995C138.009 48.3957 136.908 56.7892 135.743 67.1748C134.286 80.1571 128.297 91.9144 125.707 100.732C123.635 107.787 120.893 114.605 120.893 120.748C114.497 111.77 111.381 107.238 108.791 89.7976C105.554 67.9975 120.851 38.5161 128.297 39.006Z" fill="#2A2A2A"/>
<path d="M105.649 118.129C104.83 117.558 103.07 113.864 102.414 105.26C102.076 100.813 105.926 98.8959 112.198 86.1797C118.058 74.2978 124.71 53.0684 128.243 46.0238C126.769 43.8239 124.313 39.9131 112.198 43.0905C99.4578 46.4316 88.7853 67.0441 88.4579 90.5088C88.196 109.281 99.9732 119.269 105.649 118.129Z" fill="#2A2A2A"/>
<path d="M169.091 85.535L173.477 72.6127L131.297 77.3308L84.8686 63.9109L84.4587 69.323L87.6831 71.2057L87.3608 75.4582L91.6327 75.6402L91.1346 82.2122L96.6266 82.4463L97.4665 87.5237L102.348 87.7317L104.866 92.8811L110.018 91.5493L111.309 94.7067L116.496 94.9281L116.232 98.4071L123.513 95.2272L125.08 98.7844L128.395 95.4352L131.183 99.0444L137.244 95.8125L140.642 99.4478L144.872 96.1373L147.618 96.2545L150.903 93.292L151.889 96.4364L157.574 90.0858L160.813 91.775L165.808 84.4252L169.091 85.535Z" fill="#2A2A2A"/>
<path d="M154.064 83.5015C155.274 81.7989 164.809 89.1078 169.425 92.9749L172.662 100.567L169.149 106.997L165.43 98.5996L164.279 105.627L159.649 94.5686L158.969 99.9539C158.452 98.8781 157.574 96.8467 156.997 95.495C156.421 94.1432 156.911 90.3108 156.55 88.1145L156.246 86.2198C155.418 84.6821 152.855 85.2041 154.064 83.5015Z" fill="#2C2929"/>
<path d="M79.2724 98.7278C78.9302 96.4066 88.7733 89.8964 93.7371 86.9314L100.17 87.6277L102.062 95.214L94.8675 94.5995L98.4644 99.8824L89.1426 98.7737L92.0132 102.597C91.0687 102.563 89.3404 102.391 88.1949 102.267C87.0493 102.143 85.0099 99.4154 83.4763 98.5697L82.1574 97.8325C80.7561 97.8853 79.6146 101.049 79.2724 98.7278Z" fill="#2C2929"/>
<path d="M109.072 135.217C110.87 135.217 112.327 136.675 112.327 138.473C112.327 140.238 110.921 141.676 109.168 141.727L109.072 141.728H95.3263C93.5283 141.728 92.0708 140.27 92.0708 138.473C92.0708 136.707 93.4767 135.269 95.2303 135.218L95.3263 135.217H109.072Z" fill="black"/>
<path d="M155.191 135.217C156.989 135.217 158.446 136.675 158.446 138.473C158.446 140.238 157.04 141.676 155.287 141.727L155.191 141.728H141.445C139.647 141.728 138.19 140.27 138.19 138.473C138.19 136.707 139.596 135.269 141.349 135.218L141.445 135.217H155.191Z" fill="black"/>
<path fill-rule="evenodd" clip-rule="evenodd" d="M106.901 170.31V176.743C106.901 186.645 114.929 194.669 124.828 194.669C134.73 194.669 142.754 186.645 142.754 176.743V170.31H106.901Z" fill="#393939"/>
<mask id="mask5" mask-type="alpha" maskUnits="userSpaceOnUse" x="106" y="170" width="37" height="25">
<path fill-rule="evenodd" clip-rule="evenodd" d="M106.93 170.304C106.911 170.635 106.901 170.97 106.901 171.305V177.57C106.901 187.015 114.929 194.669 124.828 194.669C134.73 194.669 142.754 187.015 142.754 177.57V171.305C142.754 170.97 142.744 170.635 142.725 170.304H106.93Z" fill="white"/>
</mask>
<g mask="url(#mask5)">
<path d="M124.828 200.417C130.798 200.417 135.638 197.783 135.638 194.533C135.638 191.283 130.798 188.648 124.828 188.648C118.857 188.648 114.017 191.283 114.017 194.533C114.017 197.783 118.857 200.417 124.828 200.417Z" fill="#FF6C6C"/>
</g>
<rect x="106.901" y="170.31" width="35.8539" height="7.38977" fill="white"/>
<path d="M118.416 131.157C122.299 129.666 126.037 129.496 130.355 131.07L130.579 131.153L129.304 134.538C125.833 133.23 122.982 133.316 119.889 134.468L119.713 134.534L118.416 131.157Z" fill="#CFAE8F"/>
<path fill-rule="evenodd" clip-rule="evenodd" d="M134.89 125.548C138.549 123.195 143.327 121.494 149.365 120.718C156.945 119.745 163.069 120.939 167.821 123.531C169.086 124.221 170.154 124.961 171.03 125.703C171.338 125.964 171.601 126.207 171.819 126.426L171.867 126.475C171.974 126.584 172.048 126.664 172.089 126.713L172.188 126.828L170.787 143.51C170.165 150.925 163.89 156.527 156.453 156.309L143.965 155.944C136.691 155.731 130.723 150.014 130.187 142.747L129.321 131.009L129.385 130.885C129.423 130.812 129.484 130.708 129.567 130.576L129.658 130.434C129.902 130.064 130.21 129.654 130.588 129.213C131.661 127.961 133.08 126.712 134.89 125.548ZM170.563 126.256C169.723 125.545 168.695 124.832 167.474 124.166C162.855 121.646 156.884 120.482 149.457 121.436C143.524 122.198 138.849 123.863 135.281 126.157C133.532 127.282 132.165 128.484 131.137 129.684C130.779 130.101 130.49 130.487 130.263 130.832C130.184 130.952 130.12 131.057 130.068 131.146L130.058 131.163L130.909 142.694C131.412 149.523 136.97 154.91 143.779 155.213L143.986 155.221L156.474 155.587C163.527 155.793 169.476 150.482 170.066 143.45L171.441 127.075L171.35 126.98L171.217 126.848C171.031 126.666 170.813 126.468 170.563 126.256Z" fill="#CFAE8F"/>
<path fill-rule="evenodd" clip-rule="evenodd" d="M78.4406 125.737C79.3542 124.991 80.4601 124.246 81.7622 123.552C86.5619 120.992 92.6394 119.785 100.043 120.67C106.048 121.389 110.758 123.059 114.327 125.397C116.044 126.522 117.385 127.73 118.394 128.941C118.749 129.368 119.037 129.765 119.264 130.124C119.403 130.342 119.492 130.502 119.536 130.593L119.577 130.678L118.94 141.779C118.519 149.103 112.572 154.943 105.254 155.221L93.3815 155.672C86.0308 155.952 79.7591 150.529 78.976 143.216L77.2251 126.871L77.3536 126.728C77.3764 126.704 77.4054 126.673 77.4408 126.637L77.616 126.464C77.8446 126.244 78.1193 125.999 78.4406 125.737ZM113.931 126.002C110.457 123.727 105.853 122.094 99.9566 121.388C92.7031 120.521 86.774 121.699 82.1026 124.19C80.8432 124.861 79.7763 125.58 78.8982 126.297C78.5924 126.547 78.3324 126.778 78.1178 126.985L78.0724 127.029L77.9792 127.121L79.6953 143.139C80.4305 150.004 86.2649 155.111 93.1452 154.956L93.354 154.949L105.226 154.498C112.172 154.234 117.818 148.689 118.217 141.737L118.844 130.829L118.79 130.735C118.763 130.688 118.731 130.634 118.693 130.574L118.653 130.511C118.443 130.178 118.172 129.806 117.838 129.404C116.874 128.247 115.587 127.087 113.931 126.002Z" fill="#CFAE8F"/>
<path fill-rule="evenodd" clip-rule="evenodd" d="M134.89 125.548C138.549 123.195 143.327 121.494 149.365 120.718C156.945 119.745 163.069 120.939 167.821 123.531C169.086 124.221 170.154 124.961 171.03 125.703C171.338 125.964 171.601 126.207 171.819 126.426L171.867 126.475C171.974 126.584 172.048 126.664 172.089 126.713L172.188 126.828L170.787 143.51C170.165 150.925 163.89 156.527 156.453 156.309L143.965 155.944C136.691 155.731 130.723 150.014 130.187 142.747L129.321 131.009L129.385 130.885C129.423 130.812 129.484 130.708 129.567 130.576L129.658 130.434C129.902 130.064 130.21 129.654 130.588 129.213C131.661 127.961 133.08 126.712 134.89 125.548ZM170.563 126.256C169.723 125.545 168.695 124.832 167.474 124.166C162.855 121.646 156.884 120.482 149.457 121.436C143.524 122.198 138.849 123.863 135.281 126.157C133.532 127.282 132.165 128.484 131.137 129.684C130.779 130.101 130.49 130.487 130.263 130.832C130.184 130.952 130.12 131.057 130.068 131.146L130.058 131.163L130.909 142.694C131.412 149.523 136.97 154.91 143.779 155.213L143.986 155.221L156.474 155.587C163.527 155.793 169.476 150.482 170.066 143.45L171.441 127.075L171.35 126.98L171.217 126.848C171.031 126.666 170.813 126.468 170.563 126.256Z" fill="#CFAE8F"/>
<path d="M148.834 119.708C153.974 118.984 158.792 119.412 163.228 120.738C166.48 121.711 169.253 123.076 171.5 124.584C172.809 125.462 173.52 126.959 173.478 128.555L173.473 128.682L173.052 136.919L170.162 136.772L170.583 128.534C170.617 127.872 170.354 127.3 169.888 126.987C167.87 125.633 165.356 124.395 162.398 123.511C158.35 122.3 153.951 121.909 149.237 122.573C144.496 123.241 140.48 124.493 137.134 126.173C134.703 127.393 132.836 128.727 131.48 130.017C131.204 130.28 131.059 130.691 131.086 131.181L131.093 131.274L131.955 140.225L129.074 140.503L128.212 131.552C128.079 130.177 128.512 128.848 129.485 127.921C131.042 126.438 133.143 124.939 135.835 123.587C139.463 121.766 143.781 120.419 148.834 119.708Z" fill="black"/>
<path fill-rule="evenodd" clip-rule="evenodd" d="M78.4659 126.363C79.3796 125.617 80.4855 124.872 81.7876 124.178C86.5873 121.618 92.6648 120.411 100.068 121.297C106.073 122.015 110.784 123.686 114.353 126.024C116.07 127.149 117.411 128.357 118.419 129.568C118.774 129.994 119.063 130.392 119.29 130.75C119.429 130.969 119.517 131.129 119.562 131.22L119.603 131.304L118.965 142.406C118.544 149.729 112.598 155.569 105.279 155.847L93.4069 156.299C86.0562 156.578 79.7845 151.155 79.0014 143.842L77.2505 127.497L77.379 127.355C77.4018 127.33 77.4308 127.299 77.4662 127.263L77.6414 127.09C77.87 126.87 78.1446 126.626 78.4659 126.363ZM113.956 126.629C110.483 124.353 105.879 122.72 99.982 122.015C92.7285 121.147 86.7994 122.325 82.128 124.816C80.8686 125.488 79.8017 126.206 78.9236 126.923C78.6178 127.173 78.3578 127.405 78.1432 127.611L78.0978 127.655L78.0046 127.747L79.7207 143.765C80.4559 150.63 86.2903 155.738 93.1706 155.582L93.3794 155.576L105.251 155.124C112.198 154.86 117.843 149.315 118.243 142.364L118.869 131.456L118.816 131.362C118.789 131.315 118.756 131.261 118.718 131.2L118.679 131.137C118.468 130.805 118.198 130.433 117.863 130.03C116.9 128.874 115.612 127.714 113.956 126.629Z" fill="#CFAE8F"/>
<path d="M86.4477 121.306C90.7857 119.973 95.5026 119.516 100.542 120.181C109.398 121.35 115.617 124.383 119.543 128.025C120.53 128.94 120.978 130.265 120.859 131.636L120.846 131.769L119.81 140.903L116.934 140.576L117.97 131.443C118.032 130.897 117.882 130.431 117.575 130.147C116.222 128.891 114.373 127.605 111.98 126.438C108.701 124.839 104.78 123.659 100.164 123.05C95.5497 122.441 91.2498 122.858 87.2976 124.072C84.4056 124.961 81.9479 126.193 79.9726 127.537C79.53 127.839 79.2742 128.376 79.2857 129L79.2892 129.089L79.7594 137.138L76.8706 137.306L76.4004 129.259C76.3039 127.616 77.0062 126.056 78.344 125.145C80.5471 123.646 83.2618 122.285 86.4477 121.306Z" fill="black"/>
</g>
</svg>
