<svg width="254" height="254" fill="none" xmlns="http://www.w3.org/2000/svg"><mask id="a" maskUnits="userSpaceOnUse" x="0" y="0" width="254" height="254"><path fill="#CCC" d="M0 0h254v254H0z"/></mask><g mask="url(#a)"><path d="M62.023 229.031c-8.505 16.648-15.94 37.722-18.537 56.177-1.51 10.734 2.523 20.612 10.4 29.815 5.3 6.191 12.063 11.869 21.233 18.374l.92.648 1.28.885c4.206 2.894 12.753 8.681 15.541 10.667l.45.325c6.259 4.578 15.045 3.217 19.624-3.04 4.579-6.257 3.218-15.041-3.04-19.62l-.411-.297c-3.633-2.604-15.364-10.524-17.738-12.202l-.669-.474-.666-.476c-6.935-4.978-11.857-9.156-15.187-13.046-3.123-3.649-4.14-6.139-3.928-7.647 2.112-15.005 8.544-33.236 15.738-47.317 3.527-6.905.788-15.361-6.118-18.888-6.906-3.527-15.364-.789-18.892 6.116zM166.601 246.444c7.38 13.081 12.434 28.745 15.235 47.19.88 5.801-7.624 14.671-26.007 25.287l-1.816 1.039c-3.147 1.788-5.558 3.085-11.639 6.283l-5.08 2.671-2.041 1.084c-4.49 2.396-7.149 3.92-9.654 5.559-6.488 4.248-8.304 12.949-4.056 19.436 4.206 6.421 12.778 8.265 19.244 4.18l.612-.395.476-.299c1.9-1.178 4.531-2.626 9.073-5.022l7.063-3.715 1.99-1.054c3.692-1.96 5.783-3.113 8.671-4.764l.564-.323c11.697-6.704 20.661-13.048 27.512-20.139 9.777-10.12 14.757-21.5 12.853-34.041-3.287-21.648-9.383-40.541-18.541-56.772-3.81-6.753-12.374-9.139-19.129-5.329-6.754 3.809-9.141 12.372-5.33 19.124zM94.392 209.93c0-5.646 4.577-10.222 10.223-10.222h42.17c5.647 0 10.224 4.576 10.224 10.222 0 14.89-12.074 26.961-26.967 26.961h-8.683c-14.894 0-26.967-12.071-26.967-26.961z" fill="#fff"/><path d="M197.236 220.007c-2.125-2.58-3.795-4.11-4.364-4.363l-15.37.379-9.108 62.604 50.094-11.762c-5.123-16.884-19.127-44.278-21.252-46.858zM58.908 219.628c1.367-1.518 3.985-3.415 5.124-3.795l17.077 17.074v44.962L35 265.727c8.349-14.354 22.542-44.582 23.908-46.099z" fill="#fff"/><path d="M63.652 215.833c2.125-2.276 20.62-10.181 29.601-13.849l26.945 6.261 37.001-6.261c10.752 2.846 31.498 10.434 35.293 13.09 2.574 1.801-5.882 3.415-6.641 11.573-.945 10.155-10.056 44.961-10.056 53.688 0 29.784 4.743 72.469 2.846 77.971-.361 1.045-25.361 3.577-52.561 3.794-18.416.147-38.403-4.214-52.371-3.984-2.657-32.82 5.112-79.019 2.277-101.305-4.175-32.82-14.99-38.132-12.334-40.978z" fill="#fff"/><path d="M87.94 212.016c0-6.798 5.512-12.308 12.31-12.308h50.9c6.799 0 12.311 5.51 12.311 12.308 0 17.929-14.538 32.464-32.471 32.464h-10.579c-17.933 0-32.47-14.535-32.47-32.464z" fill="#fff"/><path d="M97.048 209.095c0-5.184 4.204-9.387 9.389-9.387h38.526c5.186 0 9.39 4.203 9.39 9.387 0 13.675-11.089 24.761-24.766 24.761h-7.773c-13.678 0-24.766-11.086-24.766-24.761z" fill="#fff"/><path d="M105.438 167.977c0-7.94 6.434-14.377 14.372-14.377h11.818c7.937 0 14.371 6.437 14.371 14.377v36.252c0 11.205-9.08 20.289-20.28 20.289-11.201 0-20.281-9.084-20.281-20.289v-36.252zM176.805 150.767c12.408 0 22.466-10.063 22.466-22.476 0-12.413-10.058-22.477-22.466-22.477-12.407 0-22.466 10.064-22.466 22.477s10.059 22.476 22.466 22.476zM74.077 151.905c-12.408 0-22.467-10.062-22.467-22.476 0-12.413 10.059-22.476 22.467-22.476 12.407 0 22.466 10.063 22.466 22.476 0 12.414-10.059 22.476-22.466 22.476z" fill="#fff"/><path d="M67.152 95.989c0-31.856 25.812-57.68 57.653-57.68 32.256 0 58.236 26.475 57.644 58.739l-.539 29.385a66.456 66.456 0 01-.864 9.52l-3.556 21.673c-3.508 21.382-20.56 37.967-42.024 40.871l-1.133.153a66.197 66.197 0 01-17.983-.03l-1.775-.246c-20.602-2.858-37.193-18.349-41.462-38.715l-4.55-21.704a66.316 66.316 0 01-1.41-13.608V95.989z" fill="#fff"/><path d="M143.493 107.895l21.686 1.326M109.16 108.357l-21.696 1.137" stroke="#fff" stroke-width="24" stroke-linecap="round"/><path d="M124.814 130.845c-3.875 6.841-5.053 15.636 2.344 15.636" stroke="#fff" stroke-width="17"/><path d="M105.438 167.977c0-7.94 6.434-14.377 14.372-14.377h11.818c7.937 0 14.371 6.437 14.371 14.377v36.252c0 11.205-9.08 20.289-20.28 20.289-11.201 0-20.281-9.084-20.281-20.289v-36.252zM176.805 150.767c12.408 0 22.466-10.063 22.466-22.476 0-12.413-10.058-22.477-22.466-22.477-12.407 0-22.466 10.064-22.466 22.477s10.059 22.476 22.466 22.476zM74.076 151.905c-12.407 0-22.466-10.062-22.466-22.476 0-12.413 10.059-22.476 22.466-22.476 12.408 0 22.467 10.063 22.467 22.476 0 12.414-10.059 22.476-22.467 22.476z" fill="#fff"/><path d="M67.152 95.989c0-31.856 25.812-57.68 57.653-57.68 32.256 0 58.236 26.475 57.644 58.739l-.539 29.385a66.456 66.456 0 01-.864 9.52l-3.556 21.673c-3.508 21.382-20.56 37.967-42.024 40.871l-1.133.153a66.197 66.197 0 01-17.983-.03l-1.775-.246c-20.602-2.858-37.193-18.349-41.462-38.715l-4.55-21.704a66.323 66.323 0 01-1.41-13.608V95.989z" fill="#fff"/><path d="M143.216 112.438l21.685 1.326a4.55 4.55 0 004.818-4.265 4.55 4.55 0 00-4.263-4.82l-21.685-1.326a4.551 4.551 0 00-.555 9.085zM108.922 103.812l-21.696 1.137a4.55 4.55 0 00-4.305 4.782 4.55 4.55 0 004.78 4.307l21.697-1.137a4.549 4.549 0 004.304-4.782 4.55 4.55 0 00-4.78-4.307zM122.011 129.255c-2.301 4.063-3.643 8.504-3.47 12.127.237 4.976 3.36 8.322 8.618 8.322v-6.447c-1.643 0-2.101-.49-2.181-2.183-.108-2.249.89-5.551 2.64-8.64l-5.607-3.179z" fill="#fff"/><path d="M177.462 52.343c3.947 5.847 11.956 39.398 4.555 62.574-1.329-.773-3.289-14.95-6.64-17.446-3.785-2.819-3.419-20.372-7.024-24.65-3.606-4.279-31.694-3.364-43.46-3.364-11.766 0-41.428-2.034-45.983 4.918-4.554 6.953-3.036 21.393-5.693 24.424-2.125 2.424-5.448 13.206-6.207 16.118 0-13.371-6.504-34.407 0-55.087 2.355-7.487 17.08-28.358 54.087-26.741 15.356.67 32.263 2.317 39.474 7.666 5.694 3.387 5.125 4.813 7.782 7.844 1.328 0 6.718.202 9.109 3.744z" fill="#fff"/><path d="M69.806 94.058V63.725L104.68 48.17l3.222 28.777L89.18 83.25l4.128-6.303-12.653 6.303v-6.303l-10.85 17.111zM181.253 96.334l-2.085-35.46-32.79-15.359-4.928 20.1 2.654 17.256 12.13-4.128 3.98 6.403 12.126-6.403 8.913 17.59z" fill="#fff"/><path d="M98.327 85.128L97.156 73.3l-1.953-27.785h64.822L138.157 88.37v-6.272l-8.2 3.03-1.562-6.734-7.419 6.734-1.953-3.03-11.324 3.03 1.562-3.03-10.934 3.03zM160.025 36.792c.948.696 3.146 2.466 4.359 3.983.624.78 1.301 1.746 1.896 3.792.277.957-.477-1.083-1.517-2.655-1.063-1.608-3.98-3.602-2.843-2.275 1.896 3.792 7.961 17.71 7.203 8.912s-6.381-11.504-9.098-11.757z" fill="#fff"/><path d="M171.207 45.136c-2.122 0-4.801 2.907-5.875 4.361l5.875 2.465 5.307-.758-4.169-1.707 5.686.758-3.791-2.465 3.791 1.138c-.316-.253-1.062-.834-1.517-1.138-.454-.303-2.969-1.137-4.169-1.517h2.653c-.379-.379-1.668-1.137-3.791-1.137zM143.859 129.668l17.437-2.654a3.414 3.414 0 00-1.026-6.749l-17.438 2.655a3.412 3.412 0 00-2.859 3.887 3.41 3.41 0 003.886 2.861zM107.847 122.92l-17.438-2.655a3.414 3.414 0 00-1.026 6.749l17.437 2.654a3.41 3.41 0 003.886-2.861 3.411 3.411 0 00-2.859-3.887z" fill="#fff"/><mask id="b" maskUnits="userSpaceOnUse" x="108" y="144" width="35" height="26"><path fill-rule="evenodd" clip-rule="evenodd" d="M108.471 156.823c0-6.807 5.516-12.325 12.32-12.325h9.098c6.804 0 12.319 5.518 12.319 12.325 0 6.807-5.515 12.325-12.319 12.325h-9.098c-6.804 0-12.32-5.518-12.32-12.325z" fill="#fff"/></mask><g mask="url(#b)"><path fill="#fff" d="M109.608 160.805h76.952v15.928h-76.952z"/></g></g></svg>