<svg width="254" height="254" viewBox="0 0 254 254" fill="none" xmlns="http://www.w3.org/2000/svg">
<mask id="mask0" mask-type="alpha" maskUnits="userSpaceOnUse" x="0" y="0" width="254" height="254">
<rect width="254" height="254" fill="#CCCCCC"/>
</mask>
<g mask="url(#mask0)">
<path d="M74.4426 217.317C73.998 208.376 80.2305 200.484 89.0306 198.844L127.327 191.707L165.624 198.844C174.424 200.484 180.657 208.376 180.212 217.317L177.411 273.63L180.825 351.46C180.914 353.496 179.288 355.195 177.251 355.195H77.404C75.3667 355.195 73.7407 353.496 73.8302 351.46L77.2437 273.63L74.4426 217.317Z" fill="#373434"/>
<path d="M74.3007 222.767C77.8924 216.4 85.9656 214.15 92.3326 217.741C98.6361 221.297 100.904 229.245 97.4639 235.582L97.3579 235.773C90.7739 247.445 83.8831 269.112 79.3098 291.887L79.0934 292.974C77.0957 303.106 75.7139 312.729 75.1161 320.658L75.0849 321.081C74.7918 325.129 74.7153 328.619 74.8496 331.388L74.8745 331.852C74.937 332.913 75.0306 333.824 75.148 334.564L75.1948 334.844C75.2664 335.25 75.3314 335.518 75.3664 335.626L75.3734 335.646C77.8716 342.516 74.3275 350.111 67.4573 352.609C60.5872 355.107 52.9926 351.563 50.4944 344.693C46.6095 334.01 48.1657 312.518 53.3551 286.675C58.4296 261.404 66.0867 237.328 74.3007 222.767Z" fill="#EBBAAA"/>
<path d="M162.322 217.741C168.689 214.15 176.762 216.4 180.354 222.767C188.568 237.328 196.225 261.404 201.299 286.675C206.489 312.518 208.045 334.01 204.16 344.693C201.662 351.563 194.067 355.107 187.197 352.609C180.396 350.136 176.854 342.668 179.208 335.853L179.281 335.646C179.32 335.538 179.412 335.16 179.507 334.564C179.641 333.718 179.744 332.65 179.805 331.388L179.827 330.877C179.929 328.194 179.845 324.883 179.57 321.081C178.969 312.792 177.496 302.598 175.345 291.887C170.771 269.112 163.881 247.445 157.297 235.773C153.705 229.406 155.955 221.333 162.322 217.741Z" fill="#EBBAAA"/>
<path d="M111.958 242.352L80.901 306.804C80.901 306.804 53.5863 291.837 43.1094 282.109C43.1094 282.109 47.4208 257.413 53.5863 234.869C57.1614 221.796 65.775 211.586 72.3818 205.314C77.6749 200.289 84.5961 197.598 91.7681 196.246L105.222 193.71L111.958 242.352Z" fill="#5788A8"/>
<path d="M73.6073 223.684C74.765 207.222 88.5541 194.458 105.057 194.458C108.352 194.458 111.375 196.339 112.815 199.302L123.557 221.399C123.557 221.399 115.699 264.803 115.699 286.131C115.699 304.076 111.991 347.449 110.814 360.758C110.625 362.905 108.663 364.433 106.532 364.108L69.6121 358.476C67.73 358.189 66.3638 356.535 66.4371 354.633L68.9274 290.247L73.6073 223.684Z" fill="#5991B6"/>
<path d="M118.898 221.48L123.727 222.066C116.974 277.695 111.874 340.285 111.773 360.37L111.771 360.966H106.907C106.907 341.509 111.953 279.114 118.693 223.173L118.898 221.48Z" fill="#5383A2"/>
<path d="M77.624 268.927L78.5008 248.843L106.699 246.348C104.769 255.207 104.217 267.853 103.941 274.175C82.8606 283.316 84.8389 280.421 77.624 268.927Z" fill="#5383A2"/>
<path d="M105.834 246.394L77.1346 242.52L74.9363 250.663L86.209 259.769L102.136 253.723L105.834 246.394Z" fill="#6EA5C9"/>
<path d="M123.557 223.269L109.151 188.845L93.4358 193.522L95.1193 231.875L123.557 223.269Z" fill="#5383A3"/>
<path d="M141.891 242.259L172.948 306.711C172.948 306.711 200.263 291.744 210.739 282.015C210.739 282.015 206.428 257.32 200.263 234.775C196.2 219.921 185.632 208.762 178.895 202.878C175.13 199.59 170.417 197.723 165.505 196.797L148.626 193.616L141.891 242.259Z" fill="#5788A8"/>
<path d="M177.214 220.717C175.639 205.789 163.051 194.458 148.04 194.458C144.965 194.458 142.16 196.213 140.816 198.979L129.917 221.399C129.917 221.399 137.775 264.803 137.775 286.131C137.775 304.076 141.484 347.449 142.66 360.758C142.85 362.905 144.812 364.433 146.942 364.108L183.862 358.476C185.744 358.189 187.111 356.535 187.037 354.633L184.547 290.247L177.214 220.717Z" fill="#5991B6"/>
<path d="M134.576 221.479C141.35 277.283 146.465 340.042 146.566 360.362L146.568 360.965H141.703C141.703 341.743 136.67 279.516 129.952 223.753L129.748 222.066L134.576 221.479Z" fill="#5383A2"/>
<path d="M175.851 268.927L174.973 248.843L146.775 246.348C148.705 255.207 149.257 267.853 149.533 274.175C170.614 283.316 168.635 280.421 175.851 268.927Z" fill="#5383A2"/>
<path d="M147.64 246.394L176.34 242.52L178.538 250.663L167.265 259.769L151.338 253.723L147.64 246.394Z" fill="#6EA5C9"/>
<path d="M130.292 223.269L143.201 188.845L160.039 193.522L158.355 231.875L130.292 223.269Z" fill="#5383A3"/>
<rect x="112.257" y="171.674" width="27.9038" height="34.3431" rx="13.9519" fill="#EBBAAA"/>
<path d="M177.461 151.473C189.171 151.473 198.663 141.981 198.663 130.272C198.663 118.562 189.171 109.069 177.461 109.069C165.752 109.069 156.259 118.562 156.259 130.272C156.259 141.981 165.752 151.473 177.461 151.473Z" fill="#EBBAAA"/>
<path d="M77.6516 152.547C65.942 152.547 56.4495 143.054 56.4495 131.345C56.4495 119.635 65.942 110.143 77.6516 110.143C89.3612 110.143 98.8535 119.635 98.8535 131.345C98.8535 143.054 89.3612 152.547 77.6516 152.547Z" fill="#EBBAAA"/>
<path d="M68.2549 93.0248C68.2549 61.7783 93.5854 36.4478 124.832 36.4478C156.864 36.4478 182.507 63.015 181.374 95.0264L179.559 146.307C178.535 175.229 154.792 198.147 125.851 198.147C98.6772 198.147 75.7628 177.896 72.4215 150.928L68.2549 117.297V93.0248Z" fill="#F4D4C9"/>
<path d="M67.669 86.624C67.5749 83.7385 69.4165 81.3384 71.7215 81.3384C74.113 81.3384 75.985 83.913 75.7589 86.8927L71.94 137.375C71.876 138.22 71.3108 138.861 70.6368 138.861C69.9324 138.861 69.3561 138.168 69.326 137.29L67.669 86.624Z" fill="#7A6A64" fill-opacity="0.75"/>
<path d="M182.684 86.3878C182.779 83.6318 180.937 81.3394 178.632 81.3394C176.24 81.3394 174.368 83.7985 174.594 86.6443L178.413 134.862C178.477 135.668 179.042 136.28 179.716 136.28C180.421 136.28 180.997 135.618 181.027 134.781L182.684 86.3878Z" fill="#7A6A64" fill-opacity="0.75"/>
<path d="M148.594 115.836C150.928 115.836 152.827 117.699 152.885 120.02L152.887 120.129V130.413C152.887 132.784 150.965 134.706 148.594 134.706C146.259 134.706 144.36 132.842 144.302 130.522L144.301 130.413V120.129C144.301 117.758 146.223 115.836 148.594 115.836Z" fill="black"/>
<path d="M102.474 115.836C104.808 115.836 106.707 117.699 106.765 120.02L106.767 120.129V130.413C106.767 132.784 104.845 134.706 102.474 134.706C100.139 134.706 98.2402 132.842 98.1823 130.522L98.1809 130.413V120.129C98.1809 117.758 100.103 115.836 102.474 115.836Z" fill="black"/>
<path d="M161.368 98.8411C163.343 98.7721 165 100.317 165.069 102.291C165.136 104.232 163.645 105.866 161.718 105.987L161.618 105.992L141.128 106.708C139.153 106.777 137.497 105.232 137.428 103.257C137.36 101.316 138.851 99.6826 140.778 99.5622L140.878 99.5573L161.368 98.8411Z" fill="#393939"/>
<path d="M89.9457 99.4541L110.448 99.6337C112.423 99.651 114.011 101.267 113.994 103.242C113.977 105.184 112.415 106.752 110.485 106.788L110.385 106.788L89.883 106.609C87.9073 106.591 86.3197 104.976 86.3371 103C86.3541 101.058 87.9157 99.4907 89.8455 99.4546L89.9457 99.4541Z" fill="#393939"/>
<path d="M122.889 127L128.18 129.999C126.528 132.912 125.587 136.027 125.688 138.149C125.763 139.713 126.179 140.189 127.655 140.207L127.746 140.208V146.289C122.785 146.289 119.838 143.133 119.614 138.439C119.454 135.087 120.668 130.993 122.764 127.222L122.889 127Z" fill="#EBBAAA"/>
<mask id="mask1" mask-type="alpha" maskUnits="userSpaceOnUse" x="68" y="36" width="114" height="163">
<path d="M68.2549 93.0248C68.2549 61.7783 93.5854 36.4478 124.832 36.4478C156.864 36.4478 182.507 63.015 181.374 95.0264L179.559 146.307C178.535 175.229 154.792 198.147 125.851 198.147C98.6772 198.147 75.7628 177.896 72.4215 150.928L68.2549 117.297V93.0248Z" fill="#F4D4C9"/>
</mask>
<g mask="url(#mask1)">
<path d="M89.8119 155.051C77.7862 155.252 73.1832 136.946 68.7736 131C67.6222 142.487 65.2568 165.892 65.0056 167.615C64.7544 169.338 73.0651 190.59 77.2517 201H151.043L177.419 165.462C178.361 150.504 183.385 124.179 179.617 134.231C175.849 144.282 164.335 155.051 155.753 155.051C155.753 155.051 136.599 150.385 121.526 150.385C106.454 150.385 89.8119 155.051 89.8119 155.051Z" fill="#7A6A64" fill-opacity="0.75"/>
<ellipse cx="125.5" cy="37.5" rx="12.5" ry="3.5" fill="#CBB1A9"/>
</g>
<path d="M136.971 166.206C138.379 165.63 139.988 166.304 140.564 167.712C141.14 169.12 140.465 170.729 139.057 171.305C130.133 174.955 121.862 175.056 114.854 171.163C113.524 170.424 113.045 168.747 113.784 167.418C114.523 166.088 116.2 165.609 117.53 166.347C122.932 169.349 129.484 169.269 136.971 166.206Z" fill="#C99584"/>
</g>
</svg>
