<svg width="254" height="254" viewBox="0 0 254 254" fill="none" xmlns="http://www.w3.org/2000/svg">
<mask id="mask0" mask-type="alpha" maskUnits="userSpaceOnUse" x="0" y="0" width="254" height="254">
<rect width="254" height="254" fill="#CCCCCC"/>
</mask>
<g mask="url(#mask0)">
<path d="M72.2546 209.607C79.3572 200.729 92.3121 199.289 101.19 206.392C109.979 213.423 111.478 226.191 104.615 235.06L104.405 235.327C103.463 236.505 97.0157 244.431 95.1791 246.766L95.0725 246.902C90.419 252.851 87.3748 257.527 84.3073 263.722C82.6149 267.14 80.9383 271.007 79.2213 275.497C75.1608 286.117 63.2601 291.434 52.6404 287.374C42.0207 283.313 36.7033 271.413 40.7638 260.793C42.9292 255.13 45.1198 250.078 47.4094 245.454C51.7509 236.685 56.2135 229.794 62.321 221.947L62.9029 221.204C65.1525 218.353 71.5401 210.5 72.2546 209.607Z" fill="#E0C1A1"/>
<path d="M186.141 218.709C181.348 208.038 169.208 202.783 158.148 206.592C147.197 210.363 140.864 221.798 143.479 233.081L162.319 314.381C166.138 330.864 183.23 340.563 199.34 335.387C214.628 330.475 222.989 314.048 217.961 298.797L206.499 264.028L186.141 218.709Z" fill="#E0C1A1"/>
<path d="M72.7375 234.168C72.7571 214.317 88.8687 198.267 108.719 198.267H147.64C166.374 198.267 181.995 212.618 183.151 231.317C184.06 246.022 184.884 262.807 184.884 275.35C184.884 291.351 183.543 314.158 182.395 330.757C181.557 342.856 171.458 352.137 159.33 352.137H98.4352C86.3764 352.137 76.3089 342.956 75.4001 330.931C74.2397 315.579 72.9115 295.003 72.811 280.154C72.7293 268.066 72.7214 250.158 72.7375 234.168Z" fill="#E3C7AB"/>
<path d="M129.145 228.247C141.513 228.247 151.54 218.059 151.54 205.491C151.54 192.924 141.513 182.736 129.145 182.736C116.777 182.736 106.751 192.924 106.751 205.491C106.751 218.059 116.777 228.247 129.145 228.247Z" fill="#DBB793"/>
<rect x="115.35" y="175.517" width="27.7606" height="41.6408" rx="13.8803" fill="#EED1C9"/>
<rect x="95.1917" y="241.611" width="32.5079" height="32.5079" rx="16.254" fill="#FF6C75"/>
<path fill-rule="evenodd" clip-rule="evenodd" d="M129.867 257.865C129.867 248.888 137.144 241.611 146.121 241.611C155.097 241.611 162.375 248.888 162.375 257.865C162.375 266.842 155.097 274.119 146.121 274.119C137.144 274.119 129.867 266.842 129.867 257.865ZM158.257 257.865C158.257 251.162 152.824 245.728 146.121 245.728C139.418 245.728 133.984 251.162 133.984 257.865C133.984 264.568 139.418 270.001 146.121 270.001C152.824 270.001 158.257 264.568 158.257 257.865Z" fill="#FF6C75"/>
<path d="M96.9979 212.715C101.911 220.517 111.085 226.441 123.366 226.441C123.366 217.17 116.864 207.658 109.279 196.822C106.131 192.325 103.5 187.431 96.9979 187.431C94.9513 192.608 92.0857 204.913 96.9979 212.715Z" fill="#C09F7B"/>
<path d="M159.847 212.715C154.934 220.517 145.76 226.441 133.479 226.441C133.479 217.17 139.981 207.658 147.566 196.822C150.714 192.325 153.345 187.431 159.847 187.431C161.894 192.608 164.759 204.913 159.847 212.715Z" fill="#C09F7B"/>
<path d="M115.419 218.621C116.718 218.621 117.776 219.652 117.819 220.94L117.821 221.022V271.435C117.821 272.762 116.745 273.837 115.419 273.837C114.12 273.837 113.062 272.806 113.018 271.518L113.017 271.435V221.022C113.017 219.696 114.092 218.621 115.419 218.621Z" fill="#FFF0E0"/>
<path d="M140.704 217.898C142.002 217.898 143.06 218.929 143.104 220.218L143.105 220.3V285.316C143.105 286.643 142.03 287.718 140.704 287.718C139.405 287.718 138.347 286.687 138.303 285.399L138.302 285.316V220.3C138.302 218.974 139.377 217.898 140.704 217.898Z" fill="#FFF0E0"/>
<path d="M40.2796 261.584C44.6613 252.023 55.9638 247.825 65.5243 252.207C75.0849 256.589 79.2831 267.891 74.9013 277.452C73.9456 279.537 73.1269 281.699 72.433 283.954C70.9821 288.669 70.0751 293.775 69.5865 299.609L69.5487 300.071C69.1755 304.768 69.0887 308.652 69.0849 316.882L69.0848 317.463C69.0848 327.98 60.5592 336.505 50.0424 336.505C39.5256 336.505 31 327.98 31 317.463L31.0042 314.367C31.0267 306.865 31.1488 302.595 31.5672 297.262L31.5837 297.053C32.2698 288.42 33.6557 280.477 36.0326 272.753C37.2087 268.931 38.6174 265.211 40.2796 261.584Z" fill="#E0C1A1"/>
<path d="M72.6377 94.4133C72.6377 65.1937 97.5417 41.5063 128.262 41.5063C158.983 41.5063 183.887 65.1937 183.887 94.4133V147.036C179.401 181.169 152.486 199.943 128.262 199.943C104.039 199.943 75.9274 177.187 72.6377 147.036V94.4133Z" fill="#F6DDD6"/>
<path fill-rule="evenodd" clip-rule="evenodd" d="M113.308 159.807C113.271 160.24 113.252 160.678 113.252 161.12V163.329C113.252 171.715 120.051 178.514 128.437 178.514C136.824 178.514 143.622 171.715 143.622 163.329V161.12C143.622 160.678 143.603 160.24 143.566 159.807H113.308Z" fill="#393939"/>
<mask id="mask1" mask-type="alpha" maskUnits="userSpaceOnUse" x="113" y="157" width="31" height="22">
<path fill-rule="evenodd" clip-rule="evenodd" d="M113.698 157.452C113.407 158.626 113.252 159.854 113.252 161.119V163.328C113.252 171.714 120.051 178.513 128.437 178.513C136.824 178.513 143.622 171.714 143.622 163.328V161.119C143.622 159.854 143.468 158.626 143.176 157.452H113.698Z" fill="white"/>
</mask>
<g mask="url(#mask1)">
<path d="M128.437 182.927C133.494 182.927 137.594 180.904 137.594 178.408C137.594 175.912 133.494 173.889 128.437 173.889C123.379 173.889 119.279 175.912 119.279 178.408C119.279 180.904 123.379 182.927 128.437 182.927Z" fill="#FF6C6C"/>
<rect x="113.252" y="159.807" width="30.37" height="5.67498" fill="white"/>
</g>
<path d="M97.1769 108.304C102.528 106.672 108.527 106.458 114.701 108.576C115.956 109.007 116.624 110.373 116.194 111.627C115.763 112.882 114.397 113.55 113.143 113.12C108.021 111.363 103.03 111.541 98.5779 112.898C97.8386 113.124 97.1844 113.364 96.6253 113.6L96.3651 113.713C96.1948 113.789 96.0808 113.844 96.0262 113.873C94.852 114.49 93.4 114.038 92.783 112.864C92.166 111.69 92.6177 110.237 93.7919 109.62L93.8905 109.57C94.0879 109.471 94.377 109.336 94.7525 109.177C95.4616 108.877 96.2726 108.58 97.1769 108.304Z" fill="#583311"/>
<path d="M142.455 108.56C148.629 106.441 154.628 106.655 159.98 108.287C160.884 108.563 161.695 108.86 162.404 109.16L162.692 109.285C162.99 109.416 163.215 109.526 163.364 109.604C164.539 110.221 164.99 111.673 164.373 112.847C163.77 113.996 162.367 114.453 161.207 113.895L161.085 113.833C160.986 113.784 160.8 113.697 160.531 113.584C159.972 113.347 159.318 113.107 158.578 112.882C154.126 111.524 149.135 111.346 144.014 113.103C142.759 113.534 141.393 112.865 140.963 111.611C140.532 110.356 141.2 108.99 142.455 108.56Z" fill="#583311"/>
<path d="M86.8849 166.842C94.2658 166.842 100.249 160.859 100.249 153.478C100.249 146.097 94.2658 140.113 86.8849 140.113C79.5039 140.113 73.5205 146.097 73.5205 153.478C73.5205 160.859 79.5039 166.842 86.8849 166.842Z" fill="#F2CACA"/>
<path d="M154.397 119.126C155.116 118.51 156.199 118.593 156.816 119.313C157.432 120.032 157.349 121.115 156.629 121.732C156.462 121.875 156.189 122.069 155.803 122.293C155.219 122.633 154.502 122.963 153.646 123.265C152.957 123.509 152.199 123.725 151.37 123.909C150.445 124.115 149.529 123.532 149.323 122.607C149.118 121.682 149.701 120.765 150.626 120.56C151.321 120.406 151.946 120.227 152.504 120.03C153.109 119.817 153.6 119.595 153.986 119.38L154.08 119.326C154.285 119.208 154.387 119.135 154.397 119.126Z" fill="black"/>
<path d="M148.834 119.323C151.073 119.323 152.894 121.111 152.95 123.336L152.951 123.441L152.951 130.684C152.951 132.958 151.107 134.801 148.833 134.801C146.594 134.801 144.773 133.014 144.718 130.788L144.716 130.684L144.717 123.44C144.717 121.166 146.56 119.323 148.834 119.323Z" fill="black"/>
<path d="M100.364 119.254C100.801 118.443 101.796 118.125 102.618 118.521L102.726 118.575L102.835 118.626C102.875 118.644 102.919 118.663 102.968 118.683C103.261 118.807 103.615 118.933 104.025 119.053C105.228 119.404 106.625 119.616 108.195 119.616C109.143 119.616 109.911 120.384 109.911 121.332C109.911 122.279 109.143 123.047 108.195 123.047C106.289 123.047 104.57 122.786 103.065 122.346C102.527 122.19 102.05 122.02 101.639 121.847L101.474 121.776C101.293 121.696 101.155 121.629 101.061 121.578C100.227 121.129 99.9146 120.088 100.364 119.254Z" fill="black"/>
<path d="M108.147 118.845C110.386 118.845 112.207 120.632 112.263 122.858L112.264 122.962V130.704C112.264 132.978 110.421 134.821 108.147 134.821C105.908 134.821 104.086 133.034 104.031 130.809L104.03 130.704V122.962C104.03 120.689 105.873 118.845 108.147 118.845Z" fill="black"/>
<path d="M124.006 134.42L129.785 135.208L129.749 135.462C129.612 136.407 129.456 137.103 128.927 139.248L128.589 140.622C128.542 140.815 128.5 140.993 128.46 141.167L128.357 141.616C127.85 143.884 127.709 145.367 127.92 146.25L127.941 146.334C128.06 146.771 128.247 146.875 129.281 146.88L129.377 146.881V152.713C125.579 152.713 123.019 150.845 122.246 147.603C121.772 145.616 121.967 143.465 122.654 140.39L122.753 139.955C122.822 139.655 122.894 139.356 122.979 139.007L123.531 136.756C123.785 135.702 123.89 135.198 123.97 134.666L124.006 134.42Z" fill="#EBBAAA"/>
<path d="M167.453 166.12C174.734 166.12 180.636 160.136 180.636 152.755C180.636 145.375 174.734 139.391 167.453 139.391C160.171 139.391 154.269 145.375 154.269 152.755C154.269 160.136 160.171 166.12 167.453 166.12Z" fill="#F2CACA"/>
<path d="M173.391 176.415C176.642 162.689 177.906 132.89 177.906 121.331C177.906 111.542 173.406 74.4825 154.067 67.8739C139.799 62.9977 108.375 67.6931 105.486 63.5395C95.5527 83.7666 99.1549 91.9363 89.4124 97.3118C78.9377 103.091 79.66 157.993 82.3664 171.177C82.658 171.651 82.96 172.133 83.2719 172.622C88.8542 181.372 98.6231 190.501 104.944 193.21C104.583 196.882 104.641 223.164 105.486 234C106.027 239.147 109.12 247.038 109.12 254.243C103.196 254.532 89.0165 247.724 83.8699 239.833C83.8699 245.666 87.6118 257.497 80.0957 252.185C72.5542 246.854 60.4275 197 57.4999 171.177C55.7162 155.444 59.7314 104.462 59.7941 97.3118C59.9595 78.4639 78.7075 36.0911 117.225 29.2254C123.726 28.0663 128.602 31.6885 130.047 33.0183C131.131 31.6883 135.104 29.4417 138.535 29.882C163.994 33.1488 181.371 48.9637 190.909 85.2114C195.328 102 191.054 159.062 188.742 171.177C181.88 167.384 170.14 190.14 173.391 176.415Z" fill="#D8CF7D"/>
<path d="M98.082 93.6398C98.0817 82.4429 100.61 66.9112 106.028 57.5198C109.64 55.8342 118.67 53.4744 115.781 57.5198C112.891 61.5652 112.049 83.2852 113.252 93.6398C109.641 95.566 103.138 95.8072 98.082 93.6398Z" fill="#D8CF7D"/>
<path d="M162.375 93.5542C162.375 76.1814 157.68 64.2039 154.429 54.1482C139.094 52.4693 107.579 45.0548 110.723 57.5777C113.974 70.5232 113.974 80.6366 117.392 93.5542C132.726 95.4732 140.909 95.7131 162.375 93.5542Z" fill="#D8CF7D"/>
<path d="M151.152 54.6398C152.077 53.8271 153.487 53.9187 154.299 54.8442C156.757 57.6435 160.177 63.5195 163.107 70.0788L163.222 70.3381C166.717 78.2178 169.184 86.2524 170.008 93.2587C170.152 94.482 169.277 95.5903 168.054 95.7342C166.831 95.8781 165.722 95.0031 165.578 93.7798C164.813 87.2714 162.472 79.6486 159.145 72.1463L158.932 71.6701C156.192 65.5764 153.033 60.1625 150.947 57.7871C150.135 56.8615 150.226 55.4524 151.152 54.6398Z" fill="#D8CF7D"/>
<path d="M193.71 201.156C194.935 188.688 190.761 170.093 189.858 152.394C189.858 152.394 186.033 152.033 185.221 152.394C184.409 152.756 183.144 153.298 183.144 153.298C181.158 158.896 181.068 164.856 172.399 177.137C166.962 184.839 158.493 190.501 153.978 193.029C152.894 205.912 159.836 239.403 156.748 250.383C159.638 251.828 168.071 246.265 172.399 241.805C172.399 247.295 167.649 254.5 172.399 254.5C181.61 254.5 191.745 221.14 193.71 201.156Z" fill="#D8CF7D"/>
<path d="M99.1615 190.13C71.3723 156.985 82.2728 100.132 86.9977 89.3256C91.8269 78.2824 101.049 67.9515 101.049 67.9515C112.473 62.7268 146.138 44.2666 131.208 34.4653C119.486 26.77 98.99 36.0612 86.9977 43.9248C77.5911 50.0929 67.2999 71.2784 63.4235 81.8381C54.0509 107.37 53.9881 190.13 66.6831 207.587C71.8122 227.476 73.9686 193.743 98.1957 192.453C99.3447 192.392 99.9009 191.011 99.1615 190.13Z" fill="#D8CF7D"/>
<path d="M155.005 192.537C183.628 154.901 174.872 119.918 167.11 101.052C167.11 101.052 161.265 88.24 153.358 79.3426C145.45 70.4452 111.337 52.0848 124.822 40.1937C143.387 23.8224 181.265 67.4054 189.172 82.353C201.9 106.413 200.856 175.295 191.917 209.817C186.932 229.068 169.314 197.407 155.96 195.185C154.729 194.98 154.25 193.53 155.005 192.537Z" fill="#D8CF7D"/>
</g>
</svg>
