<svg width="254" height="254" viewBox="0 0 254 254" fill="none" xmlns="http://www.w3.org/2000/svg">
<mask id="mask0" mask-type="alpha" maskUnits="userSpaceOnUse" x="0" y="0" width="254" height="254">
<rect width="254" height="254" fill="#CCCCCC"/>
</mask>
<g mask="url(#mask0)">
<path d="M93.0948 205.753C105.002 203.368 117.097 207.899 125.059 217.074C138.807 232.915 135.938 257.159 118.872 269.35L72.4321 302.526L27.2954 299.944L33.6538 259.166C33.6538 259.166 36.1498 229.134 50.0859 219.319C58.2111 213.596 78.0027 208.777 93.0948 205.753Z" fill="#030303"/>
<path d="M162.115 205.657C150.448 203.34 138.599 207.762 130.772 216.723C117.14 232.33 119.976 256.305 136.872 268.297L182.773 300.877L227.454 298.337L221.16 258.231C221.16 258.231 218.689 228.693 204.894 219.04C196.814 213.385 177.079 208.628 162.115 205.657Z" fill="#030303"/>
<path d="M69.2979 246.612C71.0772 222.808 90.9007 204.403 114.76 204.403H145.769C170.947 204.403 191.358 224.823 191.358 250.013V311.038L191.358 399.463L64.4828 395.296L64.4824 311.038L69.2979 246.612Z" fill="black"/>
<mask id="mask1" mask-type="alpha" maskUnits="userSpaceOnUse" x="64" y="204" width="128" height="199">
<path fill-rule="evenodd" clip-rule="evenodd" d="M69.2664 246.651C70.4875 230.1 79.5434 211.37 93.508 204.397C103.805 204.397 107.444 204.397 114.731 204.397H145.924C153.081 204.397 160.924 204.397 166.51 205.504C181.687 212.908 191.513 231.979 191.513 250.008V312.652V402.42L64.3984 398.189L64.3979 312.652L69.2664 246.651Z" fill="white"/>
</mask>
<g mask="url(#mask1)">
<path d="M162.875 207.339C162.875 224.698 143.319 233.363 124.874 233.363C123 231.696 116.999 229.553 111.755 226.488C100.59 219.961 93.2839 210.87 96.0786 207.339C96.0786 189.98 111.032 175.907 129.477 175.907C147.922 175.907 162.875 189.98 162.875 207.339Z" fill="#EED4CC"/>
</g>
<path fill-rule="evenodd" clip-rule="evenodd" d="M129.508 231.675C145.437 231.675 158.351 221.325 158.351 208.558C158.351 206.244 157.927 204.01 157.137 201.903L145.282 200.444H113.253C111.981 200.444 110.714 200.602 109.481 200.914L101.527 202.927C100.965 204.729 100.666 206.616 100.666 208.558C100.666 221.325 113.579 231.675 129.508 231.675Z" fill="#EED4CC"/>
<path d="M146.116 227.14C140.118 227.807 129.456 231.585 124.874 233.391C128.901 234.294 138.869 235.558 146.532 233.391C156.111 230.683 171.313 219.431 175.895 215.681C180.476 211.931 192.037 217.983 189.431 210.681C184.225 196.096 175.062 194.082 168.815 191.721C168.815 189.221 167.107 188.596 164.441 188.596C161.776 188.596 154.237 191.304 146.532 192.554V200.888C148.406 200.75 152.738 201.388 155.07 205.055C157.986 209.639 153.612 226.307 146.116 227.14Z" fill="#FCF6EF"/>
<path d="M102.8 218.598C107.465 219.265 119.599 228.529 124.874 233.391C122.375 231.932 102.592 224.432 96.3443 224.849C90.0973 225.265 99.8845 219.667 96.3443 218.598C92.8045 217.529 72.3688 210.942 66.5645 212.556C62.8166 213.598 62.5994 212.996 63.8577 209.847C64.2738 208.806 61.5671 209.014 62.608 207.139C64.0164 204.602 67.1888 202.347 76.9769 201.513C79.8924 200.472 79.6837 198.273 83.8491 195.263C86.8478 193.096 89.8887 194.221 91.9711 194.221H91.9715C93.4289 194.221 96.3447 194.221 99.2602 193.388C103.492 192.178 106.756 192.346 110.713 192.346V200.68C108.77 201.097 104.466 202.472 102.8 204.639C100.718 207.347 96.9691 217.765 102.8 218.598Z" fill="#FCF6EF"/>
<path d="M142.217 229.272C142.536 228.793 143.182 228.663 143.661 228.982C144.14 229.301 144.269 229.948 143.951 230.426C143.777 230.687 143.551 231.116 143.447 231.429C143.372 231.653 143.403 257.575 143.5 280.265C143.503 280.84 143.039 281.309 142.464 281.311C141.889 281.314 141.42 280.849 141.418 280.274L141.378 270.394C141.293 247.191 141.295 231.298 141.471 230.77C141.642 230.258 141.95 229.673 142.217 229.272Z" fill="#D1C9C1"/>
<path d="M113.804 226.98C114.122 226.501 114.769 226.371 115.247 226.69C115.824 227.074 116.694 228.444 116.75 229.344L116.752 229.491L116.634 246.727L116.571 258.251C116.554 262.226 116.544 265.638 116.544 268.393C116.544 268.969 116.078 269.435 115.503 269.435C114.928 269.435 114.462 268.969 114.462 268.393L114.472 262.805C114.476 261.272 114.483 259.624 114.49 257.868L114.551 246.714L114.67 229.432C114.67 229.402 114.564 229.148 114.387 228.866C114.298 228.724 114.199 228.584 114.11 228.474L114.06 228.414L114.023 228.373L113.981 228.338C113.613 228.014 113.52 227.471 113.766 227.04L113.804 226.98Z" fill="#D1C9C1"/>
<rect x="110.663" y="189.846" width="35.9293" height="28.1904" fill="#EED4CC"/>
<path d="M110.01 134.007C110.01 145.282 105.538 156.587 93.6567 156.587C81.7749 156.587 66.9814 145.282 66.9814 134.007C66.9814 122.73 76.6137 113.59 88.4955 113.59C100.378 113.59 110.01 122.73 110.01 134.007Z" fill="#FFD6C8"/>
<path d="M149.448 132.34C149.448 143.616 153.919 154.921 165.8 154.921C177.683 154.921 192.476 143.616 192.476 132.34C192.476 121.064 182.844 111.923 170.962 111.923C159.08 111.923 149.448 121.064 149.448 132.34Z" fill="#FFD6C8"/>
<path d="M77.9306 102.081C76.5045 72.2783 100.271 47.3347 130.093 47.3347C160.676 47.3347 184.713 73.51 182.129 103.998L178.896 142.134L174.615 161.614C172.558 173.162 164.968 182.965 154.307 187.843L142.506 193.243C138.397 195.123 133.932 196.096 129.414 196.096C124.841 196.096 120.323 195.099 116.174 193.175L105.704 188.319C94.4663 183.107 86.2818 172.972 83.5491 160.885L81.0539 148.248C80.2501 144.177 79.747 140.053 79.5487 135.908L77.9306 102.081Z" fill="#EED4CC"/>
<mask id="mask2" mask-type="alpha" maskUnits="userSpaceOnUse" x="77" y="47" width="106" height="150">
<path fill-rule="evenodd" clip-rule="evenodd" d="M77.9306 102.081C76.5045 72.2783 100.271 47.3347 130.093 47.3347C160.676 47.3347 184.713 73.51 182.129 103.998L178.896 142.134L174.615 161.614C172.558 173.162 164.968 182.965 154.307 187.843L142.506 193.243C138.397 195.123 133.932 196.096 129.414 196.096C124.841 196.096 120.323 195.099 116.174 193.175L105.704 188.319C94.4663 183.107 86.2818 172.972 83.5491 160.885L81.0539 148.248C80.2501 144.177 79.747 140.053 79.5487 135.908L77.9306 102.081Z" fill="white"/>
</mask>
<g mask="url(#mask2)">
<path d="M120.709 190.054C118.876 190.387 114.253 189.637 112.796 191.095C110.505 195.054 119.626 198.388 129.456 198.388C139.285 198.388 147.781 192.716 145.698 191.095C143.824 189.637 139.243 190.679 137.369 190.054C135.505 189.432 134.662 185.887 129.456 185.887C124.249 185.887 122.999 189.637 120.709 190.054Z" fill="#CDBA75"/>
</g>
<path d="M137.316 167.729C138.483 167.469 139.64 168.206 139.9 169.374C140.159 170.542 139.423 171.699 138.255 171.959C131.934 173.364 127.499 173.411 121.451 171.95C120.288 171.669 119.573 170.499 119.854 169.336C120.134 168.172 121.304 167.457 122.467 167.738C127.843 169.036 131.614 168.997 137.316 167.729Z" fill="#CD9E8E"/>
<path d="M151.113 124.007C153.874 124.007 156.111 126.246 156.111 129.007C156.111 131.727 153.942 133.939 151.24 134.006L151.113 134.008H150.28C147.52 134.008 145.282 131.769 145.282 129.007C145.282 126.288 147.452 124.076 150.153 124.009L150.28 124.007H151.113Z" fill="black"/>
<path d="M109.464 124.007C112.224 124.007 114.462 126.246 114.462 129.007C114.462 131.727 112.293 133.939 109.591 134.006L109.464 134.008H108.631C105.871 134.008 103.633 131.769 103.633 129.007C103.633 126.288 105.802 124.076 108.504 124.009L108.631 124.007H109.464Z" fill="black"/>
<path d="M140.27 61.7709C165.71 61.1235 162.801 95.669 176.103 100.672C183.296 99.2139 177.473 118.174 182.046 118.174C182.825 116.417 183.601 115.882 185.266 117.132C191.097 114.423 190.264 74.0036 170.407 53.8109C165.005 48.3168 157.729 45.8509 152.325 48.5802C146.208 51.6692 134.242 56.3126 140.27 61.7709Z" fill="#DCCB8E"/>
<path d="M179.527 130.036C180.944 125.795 180.381 118.013 180.476 114.215L182.213 113.37C182.379 116.788 182.053 125.366 181.632 128.468C181.104 132.347 178.171 134.094 179.527 130.036Z" fill="#DCCB8E"/>
<path d="M79.4376 131.715C78.3451 127.391 79.4876 119.693 79.6762 115.907L78.0123 114.936C77.5917 118.324 77.2739 126.881 77.4613 129.999C77.6954 133.896 80.483 135.853 79.4376 131.715Z" fill="#CDBA75"/>
<path d="M119.878 61.6816C85.807 52.185 96.3809 100.154 83.8494 105.464C76.769 104.006 82.3746 118.59 77.7653 118.59C77.0431 116.96 75.936 117.132 73.4371 119.424C72.1876 120.465 70.966 109.208 70.9377 104.006C70.8739 92.3359 73.4371 61.6817 89.8886 52.127C96.595 48.2321 102.279 45.6188 107.726 48.3725C113.892 51.4893 125.954 56.1743 119.878 61.6816Z" fill="#CDBA75"/>
<path d="M131.217 29C104.161 29.0001 87.1083 55.9973 85.7439 65.945C84.3799 75.8927 86.4265 81.464 88.9276 87.6261C91.4286 93.7882 96.8851 101.696 103.251 101.696C106.322 101.696 119.622 102.206 123.032 101.696C126.443 101.185 132.744 95.5334 134.628 95.5334C136.51 95.5334 138.038 101.696 143.722 101.696C148.465 101.696 157.818 100.125 161.002 97.0639C164.185 94.0028 176.69 67.9858 173.507 58.293C170.324 48.6002 158.273 28.9999 131.217 29Z" fill="#CDBA75"/>
<path d="M126.413 134.345L132.573 137.838C130.651 141.232 129.555 144.859 129.673 147.331C129.76 149.154 130.244 149.708 131.962 149.729L132.069 149.73V156.814C126.292 156.814 122.861 153.137 122.6 147.669C122.414 143.765 123.828 138.997 126.269 134.603L126.413 134.345Z" fill="#EBBAAA"/>
<path d="M147.543 111.662L142.354 115.15L143.271 116.34L150.665 114.581L156.69 114.168L163.754 113.685L159.795 107.69L147.543 111.662Z" fill="#393939"/>
<path d="M111.945 111.813L117.089 115.447L116.132 116.61L108.717 114.643L102.647 114.06L95.53 113.376L99.685 107.496L111.945 111.813Z" fill="#393939"/>
</g>
</svg>
