<svg width="254" height="558" viewBox="0 0 254 558" fill="none" xmlns="http://www.w3.org/2000/svg">
<mask id="mask0" mask-type="alpha" maskUnits="userSpaceOnUse" x="0" y="0" width="254" height="558">
<rect width="254" height="558" fill="#1FC5A8"/>
</mask>
<g mask="url(#mask0)">
<path d="M98.8896 491.144C105.194 491.144 110.317 496.203 110.418 502.483L110.42 502.674V600.04C110.42 606.408 105.258 611.571 98.8896 611.571C92.5853 611.571 87.4627 606.511 87.3609 600.231L87.3594 600.04V502.674C87.3594 496.306 92.5216 491.144 98.8896 491.144Z" fill="#EBBAAA"/>
<path d="M156.968 492.425C163.272 492.425 168.395 497.484 168.497 503.764L168.498 503.955V601.322C168.498 607.69 163.336 612.852 156.968 612.852C150.664 612.852 145.541 607.792 145.439 601.512L145.438 601.322V503.955C145.438 497.587 150.6 492.425 156.968 492.425Z" fill="#EBBAAA"/>
<path d="M130.064 418.545H68.1421L78.8182 561.179L83.394 584.667H112.433L115.117 565.45L130.064 418.545Z" fill="#35383E"/>
<path d="M127.929 463.484C155.052 463.484 177.039 453.446 177.039 441.064C177.039 428.682 155.052 418.644 127.929 418.644C100.806 418.644 78.8184 428.682 78.8184 441.064C78.8184 453.446 100.806 463.484 127.929 463.484Z" fill="#35383E"/>
<path d="M125.793 418.545H187.715L177.039 561.179L172.463 584.667H143.424L140.74 565.449L125.793 418.545Z" fill="#35383E"/>
</g>
<path d="M203.161 252.935C196.853 239.175 187.784 235.441 187.784 235.441L182.164 311.052V425.05C243.556 405.964 235.19 322.791 203.161 252.935Z" fill="#454B5E"/>
<path d="M52.696 252.935C59.0046 239.175 68.0738 235.441 68.0738 235.441L73.6939 311.052V425.05C12.3012 405.964 20.6673 322.791 52.696 252.935Z" fill="#454B5E"/>
<path d="M127.929 252.523C155.052 252.523 177.039 242.485 177.039 230.103C177.039 217.721 155.052 207.683 127.929 207.683C100.806 207.683 78.8186 217.721 78.8186 230.103C78.8186 242.485 100.806 252.523 127.929 252.523Z" fill="#35383E"/>
<path d="M127.929 279C155.052 279 177.039 268.962 177.039 256.58C177.039 244.198 155.052 234.16 127.929 234.16C100.806 234.16 78.8186 244.198 78.8186 256.58C78.8186 268.962 100.806 279 127.929 279Z" fill="white"/>
<path d="M127.929 444.267C155.052 444.267 177.039 433.082 177.039 419.284C177.039 405.487 155.052 394.302 127.929 394.302C100.806 394.302 78.8186 405.487 78.8186 419.284C78.8186 433.082 100.806 444.267 127.929 444.267Z" fill="#6686B7"/>
<path d="M68.8021 389.079H192.645L194.279 404.428C194.547 406.95 192.569 409.15 190.032 409.15H71.4156C68.8785 409.15 66.9008 406.95 67.1692 404.428L68.8021 389.079Z" fill="#B2BDC0"/>
<rect x="112.982" y="197.007" width="29.8932" height="49.1103" rx="14.9466" fill="#EBBAAA"/>
<path d="M55.5834 311.547C55.5834 305.596 43.2393 260.249 67.9274 235.454L109.419 223.057C106.041 229.869 110.919 249.989 126.242 255.546C141.566 261.104 124.54 342.069 128.797 369.685C133.771 401.96 136.023 422.052 126.242 431.67C116.462 441.288 74.9341 423.917 55.5834 409.868C45.407 402.48 55.5834 331.982 55.5834 311.547Z" fill="#343844"/>
<path d="M200.274 311.547C200.274 305.596 212.619 260.249 187.93 235.454L146.438 223.057C149.817 229.869 144.939 249.989 129.615 255.546C114.292 261.104 131.318 342.069 127.061 369.685C122.087 401.96 119.835 422.052 129.615 431.67C139.396 441.288 180.924 423.917 200.274 409.868C210.451 402.48 200.274 331.982 200.274 311.547Z" fill="#343844"/>
<path d="M130.866 288.718C128.536 288.718 126.648 286.829 126.648 284.5C126.648 282.17 128.536 280.281 130.866 280.281C133.196 280.281 135.084 282.17 135.084 284.5C135.084 286.829 133.196 288.718 130.866 288.718Z" fill="#454B5D"/>
<path d="M133.001 349.359C130.672 349.359 128.783 347.47 128.783 345.14C128.783 342.811 130.672 340.922 133.001 340.922C135.331 340.922 137.22 342.811 137.22 345.14C137.22 347.47 135.331 349.359 133.001 349.359Z" fill="#454B5D"/>
<path d="M133.735 319.038C131.406 319.038 129.517 317.149 129.517 314.819C129.517 312.489 131.406 310.601 133.735 310.601C136.065 310.601 137.954 312.489 137.954 314.819C137.954 317.149 136.065 319.038 133.735 319.038Z" fill="#454B5D"/>
<path d="M134.282 379.678C131.953 379.678 130.064 377.79 130.064 375.46C130.064 373.13 131.953 371.242 134.282 371.242C136.612 371.242 138.501 373.13 138.501 375.46C138.501 377.79 136.612 379.678 134.282 379.678Z" fill="#454B5D"/>
<path d="M132.147 409.145C129.817 409.145 127.929 407.256 127.929 404.927C127.929 402.597 129.817 400.708 132.147 400.708C134.477 400.708 136.365 402.597 136.365 404.927C136.365 407.256 134.477 409.145 132.147 409.145Z" fill="#454B5D"/>
<path d="M127.929 246.118C111.915 236.723 112.982 223.057 112.982 223.057C98.7308 236.552 98.0881 251.266 107.769 268.157C109.566 247.612 127.929 246.118 127.929 246.118Z" fill="#6686B7"/>
<path d="M127.929 246.118C143.943 236.723 142.876 223.057 142.876 223.057C157.127 236.552 157.77 251.266 148.089 268.157C146.292 247.612 127.929 246.118 127.929 246.118Z" fill="#6686B7"/>
<path d="M191.986 170.103C201.42 170.103 209.068 162.455 209.068 153.021C209.068 143.587 201.42 135.939 191.986 135.939C182.552 135.939 174.904 143.587 174.904 153.021C174.904 162.455 182.552 170.103 191.986 170.103Z" fill="#EBBAAA"/>
<path d="M63.8719 170.103C54.4378 170.103 46.79 162.455 46.79 153.021C46.79 143.587 54.4378 135.939 63.8719 135.939C73.3058 135.939 80.9537 143.587 80.9537 153.021C80.9537 162.455 73.3058 170.103 63.8719 170.103Z" fill="#EBBAAA"/>
<path d="M63.8718 113.306C63.8718 77.9283 92.551 49.249 127.929 49.249C163.307 49.249 191.986 77.9283 191.986 113.306V145.924L188.759 176.306C186.007 202.221 161.669 220.294 136.038 215.58C130.691 214.597 125.189 214.609 119.848 215.622C94.9356 220.348 71.1905 203.108 67.9714 177.956L63.8718 145.924V113.306Z" fill="#F4D5CC"/>
<path fill-rule="evenodd" clip-rule="evenodd" d="M144.214 172.923V178.844C144.214 187.94 136.84 195.315 127.744 195.315C118.648 195.315 111.274 187.94 111.274 178.844V172.923H144.214Z" fill="#393939"/>
<mask id="mask1" mask-type="alpha" maskUnits="userSpaceOnUse" x="111" y="170" width="34" height="26">
<path fill-rule="evenodd" clip-rule="evenodd" d="M143.996 170.103C144.139 170.977 144.214 171.874 144.214 172.788V178.845C144.214 187.941 136.84 195.315 127.744 195.315C118.648 195.315 111.274 187.941 111.274 178.845V172.788C111.274 171.874 111.348 170.977 111.492 170.103H143.996Z" fill="white"/>
</mask>
<g mask="url(#mask1)">
<path d="M126.865 201.111C121.38 201.111 116.933 198.689 116.933 195.701C116.933 192.714 121.38 190.292 126.865 190.292C132.351 190.292 136.798 192.714 136.798 195.701C136.798 198.689 132.351 201.111 126.865 201.111Z" fill="#FF6C6C"/>
<rect width="32.9401" height="6.79302" transform="matrix(-1 0 0 1 144.214 172.069)" fill="white"/>
</g>
<path d="M142.456 113.386C142.591 111.071 144.545 109.295 146.848 109.366L146.968 109.371L172.59 110.866C174.945 111.003 176.742 113.023 176.605 115.378C176.47 117.692 174.515 119.468 172.212 119.398L172.093 119.392L146.47 117.898C144.116 117.76 142.318 115.74 142.456 113.386Z" fill="#393939"/>
<path d="M108.89 109.371C111.245 109.234 113.265 111.031 113.402 113.386C113.537 115.7 111.802 117.692 109.507 117.889L109.387 117.898L83.7646 119.392C81.4101 119.53 79.3901 117.732 79.2527 115.378C79.1177 113.063 80.8524 111.072 83.148 110.874L83.2673 110.866L108.89 109.371Z" fill="#393939"/>
<path d="M154.833 128.68C157.619 128.68 159.887 130.904 159.956 133.674L159.957 133.804V139.356C159.957 142.186 157.663 144.48 154.833 144.48C152.046 144.48 149.779 142.256 149.71 139.486L149.708 139.356V133.804C149.708 130.974 152.003 128.68 154.833 128.68Z" fill="black"/>
<path d="M101.239 128.68C104.025 128.68 106.292 130.904 106.361 133.674L106.363 133.804V139.356C106.363 142.186 104.069 144.48 101.239 144.48C98.4519 144.48 96.1847 142.256 96.1156 139.486L96.114 139.356V133.804C96.114 130.974 98.4084 128.68 101.239 128.68Z" fill="black"/>
<path fill-rule="evenodd" clip-rule="evenodd" d="M137.751 126.972H177.893C179.544 126.972 180.882 128.31 180.882 129.961V141.918C180.882 146.399 177.25 150.032 172.769 150.032H142.875C138.394 150.032 134.761 146.399 134.761 141.918V129.961C134.761 128.31 136.1 126.972 137.751 126.972ZM177.466 130.388H138.178V141.918C138.178 144.471 140.215 146.549 142.752 146.614L142.875 146.616H172.769C175.363 146.616 177.466 144.513 177.466 141.918V130.388Z" fill="#393939"/>
<rect x="119.388" y="132.096" width="17.0818" height="3.41637" fill="#393939"/>
<path fill-rule="evenodd" clip-rule="evenodd" d="M77.9644 126.972H118.107C119.758 126.972 121.096 128.31 121.096 129.961V141.491C121.096 145.972 117.463 149.605 112.982 149.605H83.089C78.6079 149.605 74.9751 145.972 74.9751 141.491V129.961C74.9751 128.31 76.3134 126.972 77.9644 126.972ZM117.68 130.388H78.3915V141.491C78.3915 144.044 80.4285 146.122 82.9658 146.187L83.089 146.189H112.982C115.576 146.189 117.68 144.086 117.68 141.491V130.388Z" fill="#393939"/>
<path d="M194.118 96.2384C194.383 72.1798 173.225 64.2971 176.971 68.8319C180.716 73.3666 171.846 84.6053 176.971 88.1544C182.096 91.7036 176.38 103.14 179.139 107.477C181.898 111.815 186.303 110.829 188.797 119.308C191.29 127.786 189.191 144.292 189.191 144.292C188.994 144.743 189.191 145.334 189.585 145.334C189.979 145.334 190.57 145.137 190.731 144.292C190.731 144.292 193.724 132.124 194.118 96.2384Z" fill="#323232"/>
<path d="M61.739 96.2384C61.4749 72.1798 82.632 64.2971 78.8868 68.8319C75.1416 73.3666 84.0117 84.6053 78.8868 88.1544C73.7618 91.7036 79.4778 103.14 76.7182 107.477C73.9591 111.815 69.5541 110.829 67.0607 119.308C64.5675 127.786 66.6666 144.292 66.6666 144.292C66.8637 144.743 66.6666 145.334 66.2724 145.334C65.8782 145.334 65.2869 145.137 65.1267 144.292C65.1267 144.292 62.1331 132.124 61.739 96.2384Z" fill="#323232"/>
<path fill-rule="evenodd" clip-rule="evenodd" d="M127.964 39.0003L127.965 39C127.994 39 128.024 39 128.053 39.0001C128.083 39 128.113 39 128.142 39L128.143 39.0003C154.833 39.0003 197.537 52.2384 194.121 104.338C189.086 97.7141 181.311 94.8247 174.404 90.5022C159.865 81.4023 147.994 78.071 132.242 78.071C118.706 78.071 102.104 81.4246 90.8902 87.3015C80.8597 92.5588 71.9669 96.5022 62.1636 104.338C59.3878 50.9573 100.811 39 127.964 39.0003Z" fill="#323232"/>
<path d="M127.884 89.5601C143.695 79.8975 150.956 77.9166 158.569 73.5246C153.298 71.1822 139.616 64.6384 132.589 70.2601C129.581 74.1832 124.218 80.7758 127.884 89.5601Z" fill="#323232"/>
<path d="M97.9305 93.9764C121.427 80.3612 131.603 84.7535 139.215 80.3613C133.945 78.0189 145.364 61.2813 107.812 69.3812C96.613 71.797 94.2647 85.1925 97.9305 93.9764Z" fill="#323232"/>
<path d="M125.282 141.85L131.323 145.877C129.27 148.956 127.662 153.579 127.662 156.941C127.662 160.184 128.833 161.547 132.418 161.585L132.573 161.586V168.845C124.654 168.845 120.402 164.062 120.402 156.941C120.402 152.118 122.409 146.263 125.133 142.076L125.282 141.85Z" fill="#EBBAAA"/>
</svg>
