<svg width="130" height="155" viewBox="0 0 130 155" fill="none" xmlns="http://www.w3.org/2000/svg">
<mask id="mask0" mask-type="alpha" maskUnits="userSpaceOnUse" x="0" y="0" width="130" height="155">
<rect width="130" height="155" fill="#1FC5A8"/>
</mask>
<g mask="url(#mask0)">
<path d="M100.261 121.692C97.2625 115.151 92.9516 113.376 92.9516 113.376L90.28 149.317V203.505C119.462 194.433 115.486 154.897 100.261 121.692Z" fill="#454B5E"/>
<path d="M28.739 121.692C31.7377 115.151 36.0486 113.376 36.0486 113.376L38.7201 149.317V203.505C9.53776 194.433 13.5145 154.897 28.739 121.692Z" fill="#454B5E"/>
<path d="M64.5001 121.496C77.3927 121.496 87.8441 116.724 87.8441 110.839C87.8441 104.953 77.3927 100.182 64.5001 100.182C51.6074 100.182 41.156 104.953 41.156 110.839C41.156 116.724 51.6074 121.496 64.5001 121.496Z" fill="#35383E"/>
<path d="M64.5001 134.081C77.3927 134.081 87.8441 129.31 87.8441 123.424C87.8441 117.538 77.3927 112.767 64.5001 112.767C51.6074 112.767 41.156 117.538 41.156 123.424C41.156 129.31 51.6074 134.081 64.5001 134.081Z" fill="white"/>
<rect x="57.3955" y="95.1069" width="14.2094" height="23.3441" rx="7.10471" fill="#EBBAAA"/>
<path d="M30.1115 149.552C30.1115 146.724 24.2439 125.168 35.9792 113.383L55.7019 107.49C54.0961 110.727 56.4146 120.291 63.6986 122.933C70.9825 125.575 62.8892 164.061 64.9127 177.188C67.2773 192.529 68.3477 202.08 63.6986 206.652C59.0495 211.224 39.3097 202.967 30.1115 196.288C25.2743 192.777 30.1115 159.266 30.1115 149.552Z" fill="#343844"/>
<path d="M98.8887 149.552C98.8887 146.724 104.756 125.168 93.021 113.383L73.2984 107.49C74.9042 110.727 72.5856 120.291 65.3017 122.933C58.0177 125.575 66.111 164.061 64.0876 177.188C61.723 192.529 60.6526 202.08 65.3017 206.652C69.9508 211.224 89.6905 202.967 98.8887 196.288C103.726 192.777 98.8887 159.266 98.8887 149.552Z" fill="#343844"/>
<path d="M65.8964 138.701C64.789 138.701 63.8913 137.803 63.8913 136.696C63.8913 135.588 64.789 134.69 65.8964 134.69C67.0039 134.69 67.9016 135.588 67.9016 136.696C67.9016 137.803 67.0039 138.701 65.8964 138.701Z" fill="#454B5D"/>
<path d="M67.2602 153.113C66.1528 153.113 65.255 152.215 65.255 151.108C65.255 150 66.1528 149.103 67.2602 149.103C68.3676 149.103 69.2654 150 69.2654 151.108C69.2654 152.215 68.3676 153.113 67.2602 153.113Z" fill="#454B5D"/>
<path d="M64.5001 118.451C56.8879 113.985 57.3954 107.49 57.3954 107.49C50.6212 113.904 50.3157 120.899 54.9173 128.927C55.7715 119.162 64.5001 118.451 64.5001 118.451Z" fill="#6686B7"/>
<path d="M64.5002 118.451C72.1124 113.985 71.605 107.49 71.605 107.49C78.3792 113.904 78.6847 120.899 74.0831 128.927C73.2289 119.162 64.5002 118.451 64.5002 118.451Z" fill="#6686B7"/>
<path d="M94.9488 82.3184C99.4331 82.3184 103.068 78.6831 103.068 74.1988C103.068 69.7145 99.4331 66.0791 94.9488 66.0791C90.4645 66.0791 86.8291 69.7145 86.8291 74.1988C86.8291 78.6831 90.4645 82.3184 94.9488 82.3184Z" fill="#EBBAAA"/>
<path d="M34.0516 82.3184C29.5672 82.3184 25.9319 78.6831 25.9319 74.1988C25.9319 69.7145 29.5672 66.0791 34.0516 66.0791C38.5358 66.0791 42.1712 69.7145 42.1712 74.1988C42.1712 78.6831 38.5358 82.3184 34.0516 82.3184Z" fill="#EBBAAA"/>
<path d="M34.0513 55.3203C34.0513 38.5039 47.6836 24.8716 64.5 24.8716C81.3165 24.8716 94.9488 38.504 94.9488 55.3203V70.8249L93.4152 85.2667C92.1069 97.5853 80.538 106.176 68.3544 103.935C65.813 103.468 63.1976 103.473 60.659 103.955C48.8171 106.202 37.5301 98.0067 35.9999 86.0511L34.0513 70.8249V55.3203Z" fill="#F4D5CC"/>
<path fill-rule="evenodd" clip-rule="evenodd" d="M72.2413 83.6587V86.4734C72.2413 90.7971 68.7362 94.3024 64.4123 94.3024C60.0886 94.3024 56.5835 90.7971 56.5835 86.4734V83.6587H72.2413Z" fill="#393939"/>
<mask id="mask1" mask-type="alpha" maskUnits="userSpaceOnUse" x="56" y="82" width="17" height="13">
<path fill-rule="evenodd" clip-rule="evenodd" d="M72.1377 82.3184C72.2057 82.7337 72.2413 83.16 72.2413 83.5946V86.4736C72.2413 90.7973 68.7362 94.3024 64.4123 94.3024C60.0886 94.3024 56.5835 90.7973 56.5835 86.4736V83.5946C56.5835 83.16 56.6188 82.7337 56.687 82.3184H72.1377Z" fill="white"/>
</mask>
<g mask="url(#mask1)">
<path d="M63.9946 97.057C61.3871 97.057 59.2734 95.9058 59.2734 94.4858C59.2734 93.0657 61.3871 91.9146 63.9946 91.9146C66.6021 91.9146 68.7158 93.0657 68.7158 94.4858C68.7158 95.9058 66.6021 97.057 63.9946 97.057Z" fill="#FF6C6C"/>
<rect width="15.6577" height="3.22899" transform="matrix(-1 0 0 1 72.2412 83.2524)" fill="white"/>
</g>
<path d="M71.4054 55.3585C71.4695 54.2583 72.3986 53.414 73.4933 53.4478L73.55 53.4503L85.7295 54.1608C86.8487 54.226 87.7031 55.1862 87.6378 56.3054C87.5736 57.4057 86.6446 58.2499 85.5499 58.2162L85.4931 58.2137L73.3136 57.5032C72.1944 57.4379 71.3401 56.4777 71.4054 55.3585Z" fill="#393939"/>
<path d="M55.4502 53.4503C56.5693 53.385 57.5296 54.2394 57.5948 55.3585C57.659 56.4588 56.8345 57.4053 55.7433 57.4991L55.6866 57.5032L43.5071 58.2137C42.3879 58.279 41.4277 57.4246 41.3624 56.3054C41.2982 55.2052 42.1228 54.2586 43.214 54.1648L43.2707 54.1608L55.4502 53.4503Z" fill="#393939"/>
<path d="M77.2887 62.6279C78.6133 62.6279 79.691 63.6852 79.7238 65.0019L79.7246 65.0638V67.7027C79.7246 69.048 78.634 70.1386 77.2887 70.1386C75.9641 70.1386 74.8864 69.0813 74.8536 67.7646L74.8528 67.7027V65.0638C74.8528 63.7185 75.9434 62.6279 77.2887 62.6279Z" fill="black"/>
<path d="M51.8133 62.6279C53.138 62.6279 54.2156 63.6852 54.2485 65.0019L54.2492 65.0638V67.7027C54.2492 69.048 53.1587 70.1386 51.8133 70.1386C50.4887 70.1386 49.4111 69.0813 49.3782 67.7646L49.3774 67.7027V65.0638C49.3774 63.7185 50.468 62.6279 51.8133 62.6279Z" fill="black"/>
<path fill-rule="evenodd" clip-rule="evenodd" d="M69.169 61.8164H88.2502C89.035 61.8164 89.6712 62.4526 89.6712 63.2373V68.9211C89.6712 71.0511 87.9443 72.778 85.8143 72.778H71.6049C69.4749 72.778 67.748 71.0511 67.748 68.9211V63.2373C67.748 62.4526 68.3842 61.8164 69.169 61.8164ZM88.0472 63.4403H69.372V68.9211C69.372 70.1347 70.3403 71.1222 71.5463 71.1533L71.6049 71.154H85.8143C87.0475 71.154 88.0472 70.1543 88.0472 68.9211V63.4403Z" fill="#393939"/>
<rect x="60.4404" y="64.2524" width="8.11967" height="1.62393" fill="#393939"/>
<path fill-rule="evenodd" clip-rule="evenodd" d="M40.75 61.8164H59.8313C60.6161 61.8164 61.2522 62.4526 61.2522 63.2373V68.7181C61.2522 70.8481 59.5254 72.575 57.3954 72.575H43.1859C41.0559 72.575 39.3291 70.8481 39.3291 68.7181V63.2373C39.3291 62.4526 39.9652 61.8164 40.75 61.8164ZM59.6284 63.4403H40.9531V68.7181C40.9531 69.9317 41.9214 70.9192 43.1275 70.9503L43.186 70.951H57.3955C58.6286 70.951 59.6284 69.9513 59.6284 68.7181V63.4403Z" fill="#393939"/>
<path d="M95.9626 47.2074C96.0883 35.7714 86.0315 32.0245 87.8117 34.18C89.5919 36.3356 85.3756 41.6777 87.8117 43.3648C90.2478 45.0519 87.5308 50.488 88.8425 52.5498C90.154 54.6118 92.2479 54.1431 93.4332 58.1733C94.6182 62.2033 93.6205 70.0493 93.6205 70.0493C93.5267 70.2635 93.6205 70.5446 93.8079 70.5446C93.9952 70.5446 94.2762 70.4508 94.3523 70.0493C94.3523 70.0493 95.7753 64.265 95.9626 47.2074Z" fill="#323232"/>
<path d="M33.0375 47.2074C32.912 35.7714 42.9688 32.0245 41.1885 34.18C39.4083 36.3356 43.6246 41.6777 41.1885 43.3648C38.7524 45.0519 41.4695 50.488 40.1577 52.5498C38.8462 54.6118 36.7523 54.1431 35.5672 58.1733C34.382 62.2033 35.3798 70.0493 35.3798 70.0493C35.4735 70.2635 35.3798 70.5446 35.1924 70.5446C35.0051 70.5446 34.724 70.4508 34.6479 70.0493C34.6479 70.0493 33.2249 64.265 33.0375 47.2074Z" fill="#323232"/>
<path fill-rule="evenodd" clip-rule="evenodd" d="M64.5169 20.0002L64.5171 20C64.5311 20 64.5451 20 64.5593 20C64.5733 20 64.5875 20 64.6015 20L64.6017 20.0002C77.2885 20.0002 97.5877 26.2927 95.9638 51.0577C93.5707 47.9091 89.8746 46.5357 86.5916 44.481C79.6808 40.1555 74.0378 38.572 66.5503 38.572C60.116 38.572 52.2243 40.1661 46.8942 42.9596C42.1263 45.4586 37.8992 47.333 33.2393 51.0577C31.9199 25.6838 51.6101 20 64.5169 20.0002Z" fill="#323232"/>
<path d="M64.479 44.033C71.9946 39.44 75.4458 38.4984 79.0646 36.4107C76.5592 35.2973 70.0554 32.1867 66.7152 34.859C65.2857 36.7238 62.7363 39.8575 64.479 44.033Z" fill="#323232"/>
<path d="M50.241 46.1326C61.41 39.6607 66.2467 41.7485 69.8652 39.6608C67.3601 38.5473 72.7881 30.5913 54.9382 34.4415C49.6148 35.5898 48.4985 41.9572 50.241 46.1326Z" fill="#323232"/>
<path d="M63.2421 68.8882L66.1134 70.8024C65.1375 72.2662 64.3732 74.4634 64.3732 76.0619C64.3732 77.6032 64.9298 78.2511 66.6339 78.2691L66.7076 78.2694V81.7203C62.9435 81.7203 60.9224 79.4465 60.9224 76.0619C60.9224 73.7691 61.8762 70.9858 63.1711 68.9959L63.2421 68.8882Z" fill="#EBBAAA"/>
</g>
</svg>
