<svg width="254" height="254" viewBox="0 0 254 254" fill="none" xmlns="http://www.w3.org/2000/svg">
<mask id="mask0" mask-type="alpha" maskUnits="userSpaceOnUse" x="0" y="0" width="254" height="254">
<rect width="254" height="254" fill="#CCCCCC"/>
</mask>
<g mask="url(#mask0)">
<path d="M61.6932 220.77C66.4109 213.206 76.3678 210.899 83.9327 215.616C91.4219 220.285 93.7591 230.09 89.2275 237.625L88.9608 238.06C87.8875 239.849 85.8325 244.027 83.7231 248.956L83.6364 249.159C80.7381 255.955 78.0197 263.433 75.8292 270.909C70.412 289.399 68.9128 305.497 72.1082 315.993C74.7044 324.521 69.8949 333.539 61.366 336.135C52.837 338.73 43.8182 333.922 41.222 325.394C38.2572 315.655 37.545 304.705 38.6599 292.734C39.5767 282.89 41.7226 272.494 44.8459 261.834C49.6162 245.553 56.9241 228.417 61.6932 220.77Z" fill="#F5D0C3"/>
<path d="M165.642 214.6C173.206 209.883 183.163 212.191 187.881 219.754C194.163 229.826 200.029 240.51 204.842 252.154C208.345 260.631 210.788 268.592 211.914 276.027C213.443 286.115 212.576 295.209 208.281 303.057C204.001 310.877 194.192 313.747 186.371 309.468C178.628 305.231 175.737 295.576 179.833 287.795L179.959 287.56C179.971 287.538 180.006 287.453 180.053 287.287C180.139 286.981 180.213 286.574 180.261 286.067C180.389 284.724 180.312 282.966 179.993 280.862C179.307 276.335 177.592 270.747 175.004 264.484C171.013 254.828 165.904 245.522 160.487 236.837C155.769 229.273 158.077 219.317 165.642 214.6Z" fill="#F5D0C3"/>
<path d="M58.6023 222.203C68.0103 204.357 83.3859 205.704 89.9192 206.38L77.724 268.233L41.9753 256.556C43.9125 253.679 45.4015 254.031 46.011 251.987C48.0628 245.109 51.3497 235.961 58.6023 222.203Z" fill="#D13227"/>
<path d="M192.587 222.451C183.179 204.605 167.803 205.952 161.27 206.628L173.465 268.481L209.214 256.804C207.276 253.928 205.787 254.279 205.178 252.235C203.126 245.357 199.839 236.209 192.587 222.451Z" fill="#D13227"/>
<path d="M77.4924 217.495C79.0711 207.8 87.3833 200.724 97.2088 200.632L127.623 200.347L156.074 202.879C165.253 203.696 172.76 210.581 174.188 219.691C177.426 240.35 182.599 277.384 182.599 303.17C182.599 340.705 189.665 344.295 178.725 349.214C167.785 354.132 80.2586 353.44 68.3085 345.815C56.3587 338.19 63.7888 330.246 63.7888 314.677C63.7888 303.149 72.8097 246.253 77.4924 217.495Z" fill="#E23D32"/>
<path d="M123.98 235.064C134.589 235.064 143.19 225.442 143.19 213.573C143.19 201.703 134.589 192.081 123.98 192.081C113.371 192.081 104.77 201.703 104.77 213.573C104.77 225.442 113.371 235.064 123.98 235.064Z" fill="#CC2217"/>
<path d="M112.519 234.388C102.187 232.221 79.9105 208.665 91.5333 196.481C98.9589 186.328 110.905 199.866 112.519 206.635C113.81 212.05 117.362 225.362 119.622 228.972C122.204 231.567 122.85 236.554 112.519 234.388Z" fill="#F06057"/>
<path d="M137.056 234.315C147.387 232.149 169.664 208.593 158.041 196.409C150.616 186.255 138.67 199.793 137.056 206.562C135.765 211.978 132.213 225.29 129.953 228.9C127.37 231.495 126.725 236.482 137.056 234.315Z" fill="#F06057"/>
<path fill-rule="evenodd" clip-rule="evenodd" d="M158.368 247.251L146.453 248.124L148.721 282.125L160.636 281.251L158.368 247.251ZM130.331 249.307L142.246 248.433L143.668 269.745C144.171 277.293 138.836 283.094 131.497 283.632C124.229 284.165 118.268 279.287 117.66 271.845L117.643 271.618L116.224 250.341L128.139 249.467L129.55 270.617C129.599 271.349 129.775 271.793 129.979 271.997C130.106 272.123 130.303 272.189 130.698 272.16C131.113 272.13 131.339 272.017 131.474 271.844C131.657 271.61 131.774 271.181 131.745 270.527L131.739 270.422L130.331 249.307ZM112.035 250.648L100.12 251.521L100.86 262.622L98.8238 262.771L98.0832 251.67L86.1682 252.543L88.4359 286.544L100.351 285.671L99.589 274.245L101.626 274.096L102.388 285.522L114.303 284.648L112.035 250.648ZM109.631 253.413L111.555 282.26L104.792 282.756L104.03 271.331L96.8412 271.857L97.6033 283.283L90.8399 283.779L88.9157 254.932L95.6791 254.436L96.4197 265.537L103.608 265.01L102.868 253.909L109.631 253.413ZM139.842 251.199L133.078 251.695L134.316 270.251C134.404 271.563 134.121 272.653 133.509 273.435C132.908 274.203 132.005 274.654 130.887 274.736C129.771 274.818 128.835 274.503 128.157 273.827C127.495 273.169 127.091 272.181 126.984 270.929L126.973 270.789L125.735 252.233L118.972 252.729L120.22 271.447C120.628 277.559 125.37 281.492 131.308 281.057C137.203 280.625 141.412 276.108 141.101 270.1L141.09 269.917L139.842 251.199ZM149.201 250.513L155.964 250.017L157.888 278.864L151.125 279.36L149.201 250.513Z" fill="#F06057"/>
<path d="M108.644 225.02C109.867 225.02 110.862 225.99 110.903 227.202L110.904 227.28V273.145C110.904 274.393 109.893 275.405 108.644 275.405C107.422 275.405 106.427 274.435 106.386 273.223L106.385 273.145V227.28C106.385 226.032 107.396 225.02 108.644 225.02Z" fill="#CC2217"/>
<path d="M140.284 225.02C141.506 225.02 142.502 225.99 142.543 227.202L142.544 227.28V280.078C142.544 281.326 141.532 282.338 140.284 282.338C139.062 282.338 138.066 281.368 138.025 280.156L138.024 280.078V227.28C138.024 226.032 139.036 225.02 140.284 225.02Z" fill="#CC2217"/>
<rect x="111.779" y="189.379" width="25.8283" height="39.0186" rx="12.9142" fill="#EBBAAA"/>
<path d="M76.4118 161.921C86.766 161.921 95.1598 153.575 95.1598 143.279C95.1598 132.983 86.766 124.637 76.4118 124.637C66.0576 124.637 57.6638 132.983 57.6638 143.279C57.6638 153.575 66.0576 161.921 76.4118 161.921Z" fill="#EBBAAA"/>
<path d="M173.914 163.367C184.268 163.367 192.662 155.02 192.662 144.725C192.662 134.429 184.268 126.083 173.914 126.083C163.56 126.083 155.166 134.429 155.166 144.725C155.166 155.02 163.56 163.367 173.914 163.367Z" fill="#EBBAAA"/>
<path d="M69.6162 104.12C70.4695 89.0344 81.5121 76.48 96.3672 73.7073L116.505 69.9486C124.128 68.5256 131.958 68.6205 139.545 70.2279L178.257 78.4294L183.099 127.683V149.545C183.099 180.879 157.695 206.279 126.358 206.279C95.0203 206.279 69.6162 180.879 69.6162 149.545V104.12Z" fill="#F4D4CA"/>
<path d="M103.847 131.125C106.007 131.126 107.763 132.85 107.815 134.997L107.816 135.095L107.816 144.612C107.816 146.804 106.039 148.581 103.846 148.581C101.687 148.581 99.93 146.857 99.8781 144.71L99.877 144.612L99.8773 135.094C99.8774 132.902 101.655 131.125 103.847 131.125Z" fill="black"/>
<path d="M144.444 131.125C146.603 131.126 148.36 132.85 148.412 134.997L148.413 135.095L148.413 144.612C148.413 146.804 146.636 148.581 144.443 148.581C142.284 148.581 140.527 146.857 140.475 144.71L140.474 144.612L140.474 135.094C140.474 132.902 142.252 131.125 144.444 131.125Z" fill="black"/>
<path d="M114.771 170.771C115.305 169.545 116.732 168.985 117.958 169.52L118.22 169.632C122.486 171.433 126.138 171.457 134.487 169.389C135.786 169.067 137.099 169.859 137.42 171.157C137.742 172.455 136.95 173.767 135.652 174.089C126.18 176.435 121.498 176.347 116.022 173.958C114.796 173.423 114.236 171.996 114.771 170.771Z" fill="#C99584"/>
<path d="M88.3138 119.027C88.4592 116.925 90.255 115.332 92.3478 115.424L92.4462 115.43L111.044 116.716C113.179 116.863 114.789 118.713 114.642 120.847C114.497 122.949 112.701 124.543 110.608 124.45L110.51 124.445L91.9115 123.159C89.777 123.011 88.1662 121.161 88.3138 119.027Z" fill="#272727"/>
<path d="M157.095 114.775C159.228 114.609 161.092 116.203 161.258 118.336C161.421 120.437 159.878 122.276 157.794 122.49L157.696 122.499L139.387 123.923C137.254 124.089 135.39 122.495 135.224 120.362C135.061 118.261 136.604 116.422 138.688 116.208L138.786 116.199L157.095 114.775Z" fill="#272727"/>
<path d="M148.063 82.4227C170.017 89.53 173.458 90.7148 175.183 99.6838C177.984 114.251 185.226 110.17 185.998 94.0991C179.415 47.2182 142.575 43.162 134.503 47.9004C124.818 53.5865 121.874 73.9444 148.063 82.4227Z" fill="#7D6C6C"/>
<path d="M185.998 94.8206C185.998 91.148 180.642 96.3137 178.198 99.0553L177.314 100.048C176.378 101.098 175.987 102.525 176.256 103.905L181.571 131.152C181.687 131.746 182.208 132.175 182.813 132.175C183.493 132.175 184.051 131.637 184.077 130.958L185.998 94.8206Z" fill="#7D6C6C"/>
<path d="M161.915 86.1456C132.859 75.3152 78.488 91.3916 72.9995 98.1606C70.1981 112.728 66.0278 107.468 65.3821 92.4123C72.162 50.9465 110.943 29.9417 154.813 46.8851C179.35 56.3618 185.807 78.0226 161.915 86.1456Z" fill="#7D6C6C"/>
<path d="M65.7051 68.7151C74.745 69.7304 76.5207 67.3049 81.6864 64.146V72.2688L78.135 79.7147C72.3236 79.7147 68.2879 78.1916 65.7051 68.7151Z" fill="#7D6C6C"/>
<path d="M58.6021 77.8535C67.642 78.8687 69.4177 76.4431 74.5833 73.2844V81.4073L71.0319 88.853C65.2206 88.853 61.1849 87.33 58.6021 77.8535Z" fill="#7D6C6C"/>
<path d="M90.8967 69.5613C90.0147 81.4572 89.9495 95.0262 89.9495 95.0262L107.715 82.3865C107.715 82.3865 98.4786 79.9703 90.8967 69.5613Z" fill="#7D6C6C"/>
<path d="M80.8882 73.3782C80.0061 85.2744 79.9409 98.8432 79.9409 98.8432L92.2094 87.9318C92.2094 87.9318 88.4701 83.7872 80.8882 73.3782Z" fill="#7D6C6C"/>
<path d="M102.167 65.8384C101.284 77.7345 101.219 91.3032 101.219 91.3032L118.984 78.6639C118.984 78.6639 109.748 76.2473 102.167 65.8384Z" fill="#7D6C6C"/>
<path d="M64.7697 85.0774C65.1052 81.07 70.1627 79.5272 72.6784 82.6647C73.3838 83.545 73.7289 84.66 73.6437 85.785L70.1359 132.077C70.0881 132.705 69.5644 133.191 68.9346 133.191C68.3644 133.191 67.8727 132.791 67.7555 132.233L63.1929 110.488C62.9321 109.244 62.8533 107.969 62.9592 106.703L64.7697 85.0774Z" fill="#7D6C6C"/>
<path d="M120.838 142.544L125.831 144.821L125.185 146.218C124.902 146.836 124.663 147.378 124.436 147.924C123.791 149.475 123.325 150.877 123.062 152.156C122.669 154.06 122.779 155.456 123.322 156.276C123.947 157.219 125.42 157.838 128.213 157.861L128.369 157.861V163.349C123.795 163.349 120.535 162.007 118.746 159.307C117.247 157.044 117.026 154.246 117.686 151.047C118.03 149.38 118.6 147.666 119.367 145.819C119.558 145.359 119.755 144.906 119.972 144.425L120.348 143.601L120.838 142.544Z" fill="#EBBAAA"/>
</g>
</svg>
