<svg width="254" height="254" viewBox="0 0 254 254" fill="none" xmlns="http://www.w3.org/2000/svg">
<mask id="mask0" mask-type="alpha" maskUnits="userSpaceOnUse" x="0" y="0" width="254" height="254">
<rect width="254" height="254" fill="#CCCCCC"/>
</mask>
<g mask="url(#mask0)">
<path d="M74.1966 233.558C77.7493 227.26 85.7349 225.035 92.0328 228.587C98.3308 232.14 100.556 240.126 97.0036 246.423C90.4911 257.968 83.6751 279.4 79.1514 301.928L78.9337 303.022C76.9603 313.034 75.595 322.543 75.0038 330.379L74.9723 330.805C74.6824 334.809 74.6067 338.261 74.7396 341.001L74.7642 341.459C74.8216 342.434 74.9056 343.28 75.0102 343.982L75.0675 344.341C75.1488 344.816 75.2234 345.118 75.2577 345.212C77.7288 352.008 74.2232 359.52 67.4276 361.991C60.632 364.462 53.1199 360.956 50.6488 354.161C46.8061 343.593 48.3454 322.335 53.4784 296.773C58.4978 271.776 66.0719 247.961 74.1966 233.558Z" fill="#EBBAAA"/>
<path d="M161.262 228.587C167.56 225.035 175.546 227.26 179.099 233.558C187.223 247.961 194.797 271.776 199.817 296.773C204.95 322.335 206.489 343.593 202.646 354.161C200.175 360.956 192.663 364.462 185.868 361.991C179.14 359.544 175.637 352.157 177.965 345.416L178.038 345.212C178.076 345.105 178.167 344.732 178.26 344.142C178.393 343.305 178.495 342.248 178.556 341.001L178.578 340.495C178.679 337.841 178.595 334.566 178.323 330.805L178.258 329.95C177.639 322.054 176.249 312.505 174.253 302.475L174.144 301.928C169.62 279.4 162.804 257.968 156.292 246.423C152.739 240.126 154.964 232.14 161.262 228.587Z" fill="#EBBAAA"/>
<rect width="56.6171" height="127.389" rx="28.3086" transform="matrix(-0.939693 0.34202 0.34202 0.939693 179.726 199.297)" fill="#373434"/>
<rect x="73.5693" y="199.297" width="56.6171" height="127.389" rx="28.3086" transform="rotate(20 73.5693 199.297)" fill="#373434"/>
<path d="M74.3374 228.167C73.8976 219.324 80.0624 211.517 88.767 209.895L126.648 202.836L164.529 209.895C173.233 211.517 179.398 219.324 178.958 228.167L176.188 283.869L179.564 360.855C179.653 362.868 178.044 364.549 176.029 364.549H77.2663C75.2514 364.549 73.6431 362.868 73.7312 360.855L77.1077 283.869L74.3374 228.167Z" fill="#373434"/>
<path d="M112.493 207.082C112.493 199.265 118.831 192.928 126.648 192.928C134.465 192.928 140.802 199.265 140.802 207.082V208.851C140.802 216.668 134.465 223.006 126.648 223.006C118.831 223.006 112.493 216.668 112.493 208.851V207.082Z" fill="#EBBAAA"/>
<rect x="112.493" y="154.003" width="28.3086" height="69.0021" rx="14.1543" fill="#EBBAAA"/>
<path opacity="0.5" d="M179.019 148.696C186.836 148.696 193.173 142.359 193.173 134.542C193.173 126.725 186.836 120.387 179.019 120.387C171.201 120.387 164.864 126.725 164.864 134.542C164.864 142.359 171.201 148.696 179.019 148.696Z" fill="#DE8E7C"/>
<path opacity="0.5" d="M72.8613 148.696C65.0441 148.696 58.707 142.359 58.707 134.542C58.707 126.725 65.0441 120.387 72.8613 120.387C80.6784 120.387 87.0156 126.725 87.0156 134.542C87.0156 142.359 80.6784 148.696 72.8613 148.696Z" fill="#DE8E7C"/>
<path d="M73.5691 99.8635C73.5691 70.549 97.3331 46.7849 126.648 46.7849C155.962 46.7849 179.726 70.549 179.726 99.8635V142.326C179.726 171.641 155.962 195.405 126.648 195.405C97.3331 195.405 73.5691 171.641 73.5691 142.326V99.8635Z" fill="#F4D5CC"/>
<path d="M161.127 101.816C162.882 101.706 164.394 103.04 164.504 104.796C164.612 106.519 163.328 108.008 161.62 108.166L161.524 108.173L141.708 109.411C139.953 109.521 138.441 108.187 138.331 106.432C138.223 104.708 139.507 103.219 141.216 103.062L141.311 103.054L161.127 101.816Z" fill="#393939"/>
<path d="M87.3757 104.796C87.4834 103.072 88.9429 101.755 90.6574 101.811L90.7529 101.816L110.569 103.054C112.324 103.164 113.658 104.676 113.549 106.432C113.441 108.155 111.982 109.472 110.267 109.416L110.172 109.411L90.3555 108.173C88.6001 108.063 87.266 106.551 87.3757 104.796Z" fill="#393939"/>
<path d="M148.941 119.325C151.25 119.325 153.128 121.169 153.186 123.464L153.187 123.572V127.818C153.187 130.163 151.286 132.064 148.941 132.064C146.632 132.064 144.753 130.221 144.696 127.926L144.694 127.818V123.572C144.694 121.227 146.595 119.325 148.941 119.325Z" fill="black"/>
<path d="M103.116 119.325C105.425 119.325 107.304 121.169 107.361 123.464L107.362 123.572V127.818C107.362 130.163 105.461 132.064 103.116 132.064C100.807 132.064 98.9285 130.221 98.8712 127.926L98.8699 127.818V123.572C98.8699 121.227 100.771 119.325 103.116 119.325Z" fill="black"/>
<path d="M138.728 164.739C140.03 163.985 141.697 164.428 142.451 165.73C143.206 167.032 142.762 168.699 141.46 169.454L141.286 169.551C141.232 169.58 141.171 169.612 141.103 169.647C140.861 169.772 140.58 169.907 140.261 170.051C139.379 170.448 138.353 170.84 137.188 171.202C133.911 172.221 130.145 172.829 125.94 172.829C121.735 172.829 117.969 172.221 114.692 171.202C113.527 170.84 112.5 170.448 111.619 170.051C111.353 169.931 111.114 169.817 110.901 169.71L110.777 169.647C110.617 169.565 110.498 169.499 110.419 169.454C109.118 168.699 108.674 167.032 109.428 165.73C110.167 164.455 111.781 164.003 113.07 164.693L113.226 164.78C113.333 164.836 113.516 164.928 113.775 165.046L113.855 165.082C114.539 165.39 115.36 165.703 116.31 165.999C119.078 166.859 122.301 167.38 125.94 167.38C129.578 167.38 132.801 166.859 135.57 165.999C136.441 165.728 137.203 165.442 137.851 165.159L138.025 165.082C138.326 164.946 138.537 164.842 138.653 164.78L138.728 164.739Z" fill="#C99584"/>
<path d="M180.785 87.2971C180.867 85.078 179.26 83.2327 177.249 83.2327C175.163 83.2327 173.529 85.2121 173.727 87.5037L177.058 140.477C177.114 141.126 177.607 141.619 178.195 141.619C178.81 141.619 179.313 141.086 179.339 140.412L180.785 87.2971Z" fill="#6E6C6C"/>
<path d="M78.1659 87.2971C78.2484 85.078 76.6415 83.2327 74.6305 83.2327C72.5442 83.2327 70.9108 85.2121 71.1082 87.5037L74.4398 140.477C74.4957 141.126 74.9886 141.619 75.5767 141.619C76.1914 141.619 76.6939 141.086 76.7204 140.412L78.1659 87.2971Z" fill="#6E6C6C"/>
<path d="M126.801 40.9375C136.267 36.6489 156.079 39.0644 162.703 52.3808C174.175 52.3808 185.108 63.8179 182.241 77.8942C187.741 82.2494 189.553 91.2605 184.681 97.338L184.531 97.5213C179.473 103.6 180.034 109.953 175.429 103.584C172.845 98.9708 170.217 95.2677 167.403 92.2974L167.326 93.017C167.16 94.5966 166.998 96.3096 166.857 98.177L166.386 97.5441C158.788 87.391 156.158 86.1722 145.682 85.384C142.206 88.2608 143.396 94.1642 150.724 97.4073C142.907 97.4073 126.426 94.1642 126.891 86.1883L126.699 86.2895C123.561 87.9074 120.087 87.8892 120.087 96.1564C113.862 89.2562 102.159 80.4565 89.5397 89.9873C81.4529 96.0947 79.2131 101.15 77.3411 112.783L77.2845 113.138L73.0668 104.547C72.1264 102.907 71.0191 100.291 68.9126 97.7019L68.764 97.5213C63.7057 91.4431 65.4983 82.2934 71.0545 77.8942C68.1869 63.8179 79.1203 52.3808 90.5917 52.3808C97.2528 38.9915 117.245 36.6228 126.648 41.0085L126.801 40.9375Z" fill="#393939"/>
<path d="M123.437 129.334L128.443 132.671C126.741 135.223 125.409 139.053 125.409 141.84C125.409 144.526 126.379 145.656 129.348 145.687L129.478 145.688V151.704C122.917 151.704 119.394 147.74 119.394 141.84C119.394 137.843 121.056 132.991 123.314 129.522L123.437 129.334Z" fill="#EBBAAA"/>
</g>
</svg>
