<svg width="254" height="254" viewBox="0 0 254 254" fill="none" xmlns="http://www.w3.org/2000/svg">
<mask id="mask0" mask-type="alpha" maskUnits="userSpaceOnUse" x="0" y="0" width="254" height="254">
<rect width="254" height="254" fill="#CCCCCC"/>
</mask>
<g mask="url(#mask0)">
<path d="M166.505 229.286C172.688 224.922 181.238 226.396 185.603 232.579C188.765 237.059 191.383 241.554 193.568 246.214L193.817 246.749C197.559 254.852 199.724 262.446 202.23 274.688L202.966 278.363C203.521 281.161 204.36 285.399 204.688 287.009C208.188 304.213 209.411 317.326 209.453 333.257L209.452 335.848C209.447 337.278 209.433 338.725 209.408 340.686L209.263 351.145C209.237 353.39 209.224 355.196 209.223 357.142L209.222 357.704C209.222 365.272 203.087 371.408 195.519 371.408C187.95 371.408 181.815 365.272 181.815 357.704L181.82 355.195C181.827 353.795 181.839 352.381 181.858 350.747L182.018 339.107C182.038 337.375 182.046 336.062 182.047 334.647L182.047 333.886C182.036 319.819 181.048 308.629 178.082 293.724L175.613 281.331L175.401 280.29C173.233 269.687 171.536 263.783 168.754 257.851C167.255 254.655 165.449 251.554 163.212 248.384C158.847 242.201 160.322 233.651 166.505 229.286Z" fill="#F8CCBE"/>
<path d="M56.4732 245.607C58.9607 238.459 66.7717 234.681 73.9196 237.169C81.0675 239.656 84.8455 247.467 82.3581 254.615L81.7491 256.368C75.3464 274.839 74.0508 279.896 71.8756 295.354C68.6763 318.088 68.1541 341.265 71.4363 353.942L71.5369 354.323C73.5064 361.63 69.1791 369.151 61.8715 371.121C54.5639 373.09 47.0433 368.763 45.0738 361.455C42.5197 351.979 41.5683 339.965 41.8665 326.006C42.1054 314.821 43.1625 302.713 44.7356 291.535L44.8864 290.471C47.3359 273.301 49.1531 266.642 56.4732 245.607Z" fill="#F8CCBE"/>
<path d="M195.333 226.778C193.259 224.259 191.63 222.766 191.074 222.519L176.074 222.889L167.185 284L216.074 272.519C211.074 256.037 197.407 229.296 195.333 226.778Z" fill="#E6E0DD"/>
<path d="M60.3333 226.407C61.6667 224.926 64.2222 223.074 65.3333 222.704L82 239.37V283.259L37 271.407C45.1481 257.395 59 227.889 60.3333 226.407Z" fill="#E6E0DD"/>
<path d="M64.8121 222.704C66.8862 220.481 88.6049 212.025 97.3704 208.444L119.997 215.296L152.926 208.444C163.42 211.222 186.849 219.37 190.553 221.963C193.064 223.721 183.204 230.98 180.333 238.444C176.63 248.074 173.667 275.852 173.667 284.37C173.667 313.444 178.886 356.407 177.035 361.778C176.682 362.798 152.283 365.27 125.738 365.481C107.765 365.625 88.259 361.368 74.6271 361.592C72.0344 329.555 79.6156 284.459 76.8493 262.704C72.7751 230.667 62.2195 225.481 64.8121 222.704Z" fill="#EDE9E6"/>
<path d="M91.4443 218.162C91.4443 211.977 96.4584 206.963 102.644 206.963H147.652C153.838 206.963 158.852 211.977 158.852 218.162C158.852 234.478 145.626 247.704 129.31 247.704H120.986C104.67 247.704 91.4443 234.478 91.4443 218.162Z" fill="#ECF5F9"/>
<path d="M124.53 258.498C127.049 258.35 127.061 256.955 126.752 256.276C126.617 255.72 126.382 254.609 129.16 253.313C131.938 252.017 135.456 256.276 136.382 259.424C137.308 262.572 140.827 258.869 142.493 259.424C144.16 259.98 143.234 270.35 143.419 272.572C143.604 274.794 143.234 276.646 145.827 276.646C148.419 276.646 148.419 277.572 148.419 281.091C148.419 284.609 151.012 281.461 150.456 282.202C149.901 282.943 146.197 285.165 147.308 287.017C147.817 287.864 147.743 288.363 147.426 288.92C147.499 289.096 147.541 289.829 147.54 290.731C147.746 291.027 148.053 291.392 148.487 291.91C148.894 291.514 149.274 291.13 149.594 290.751C149.106 289.703 148.636 288.746 148.419 288.313C147.679 286.831 149.716 285.72 150.456 288.313C150.693 289.141 150.287 289.932 149.594 290.751C150.773 293.286 152.051 296.357 150.086 293.869C149.424 293.03 148.898 292.401 148.487 291.91C148.155 292.235 147.805 292.567 147.457 292.912C147.349 294.309 147.126 295.428 146.753 294.98C146.52 294.701 146.288 294.539 146.085 294.408C145.456 295.196 144.944 296.056 144.716 297.017C143.79 300.906 141.567 302.757 139.716 303.498C137.864 304.239 138.604 303.498 137.493 306.646C136.604 309.165 134.283 310.041 133.234 310.165C132.864 309.918 132.419 309.424 133.604 309.424C135.086 309.424 133.604 305.535 134.345 303.498C135.086 301.461 131.938 298.683 129.16 298.313C126.382 297.943 129.53 300.906 130.271 303.498C131.012 306.091 126.382 304.794 124.53 306.091C122.678 307.387 121.938 306.091 121.012 308.128C120.737 308.731 120.967 309.091 121.397 309.264C123.369 308.668 122.96 307.16 123.79 308.128C124.572 309.04 122.419 309.677 121.397 309.264C120.727 309.467 119.782 309.565 118.419 309.424C113.049 308.869 117.123 307.572 118.049 306.091C118.974 304.609 114.53 303.498 114.345 306.091C114.16 308.683 111.753 306.646 110.827 308.498C109.901 310.35 110.642 309.424 108.049 308.128C105.457 306.831 104.716 304.794 107.309 303.498C109.901 302.202 107.309 297.757 106.753 293.869C106.197 289.98 105.457 287.202 107.309 291.276C109.16 295.35 108.049 291.461 109.901 289.794C111.752 288.128 109.901 287.202 109.16 285.72C108.419 284.239 110.271 284.98 109.901 283.683C109.53 282.387 105.827 282.387 108.049 282.202C110.272 282.017 110.271 280.72 109.16 280.165C108.049 279.609 108.975 278.128 109.16 277.202C109.345 276.276 108.79 274.98 107.309 273.683C107.11 273.51 106.956 273.376 106.837 273.279C106.751 273.361 106.659 273.435 106.559 273.497C106.645 273.836 106.77 274.356 106.753 274.98C106.714 276.313 107.601 276.029 108.049 275.72L105.457 278.128L105.827 274.239C105.703 274.547 105.086 274.98 103.605 274.239C101.753 273.313 102.494 272.017 104.716 273.313C105.554 273.802 106.129 273.764 106.559 273.497C106.446 273.052 106.401 272.92 106.837 273.279C107.362 272.772 107.653 271.944 108.049 271.646C108.46 271.338 108.643 270.745 108.599 270.278C107.84 270.556 107.309 270.474 107.309 269.609C107.309 269.29 107.331 268.979 107.37 268.677C107.132 267.857 107.084 266.725 107.309 266.276C107.679 265.535 107.309 265.535 105.457 267.017C103.605 268.498 105.086 265.535 107.309 264.794C109.305 264.129 107.713 266.005 107.37 268.677C107.524 269.208 107.758 269.609 108.049 269.609C108.379 269.609 108.562 269.903 108.599 270.278C110.602 269.544 114.193 266.298 113.79 268.313C113.234 271.091 116.012 267.757 116.012 265.535C116.012 263.757 116.753 262.325 117.123 261.831C117.184 262.51 117.456 263.869 118.049 263.869C118.789 263.869 118.974 262.202 118.049 260.165C117.123 258.128 117.123 261.276 116.012 260.165C114.9 259.054 116.012 258.498 118.049 258.498C119.678 258.498 118.727 255.906 118.049 254.609C118.357 255.165 118.974 256.498 118.974 257.387C118.974 258.498 121.382 258.683 124.53 258.498Z" fill="#454A4D"/>
<path d="M140.333 261.536C140.58 261.289 141.704 260.758 144.222 260.61C147.17 260.437 151.254 262.536 147.05 258.092C142.75 257.902 140.754 251.772 146.074 257.092C146.44 257.458 146.764 257.79 147.05 258.092C147.39 258.108 147.745 258.085 148.111 258.018C152.301 257.242 155.97 262.836 151.93 264.78C151.976 264.962 152 265.176 152 265.425C152 266.037 139.963 265.61 148.667 265.425C150.077 265.395 151.148 265.156 151.93 264.78C151.33 262.398 147.088 265.416 146.63 264.499L152 262.277L151.259 260.61L149.778 262.277L142.556 261.222L140.333 262.277L138.111 266.536L140.333 261.536Z" fill="#454A4D"/>
<path d="M100.333 215.311C100.333 210.701 104.071 206.963 108.682 206.963H142.355C146.966 206.963 150.704 210.701 150.704 215.311C150.704 227.474 140.844 237.333 128.682 237.333H122.355C110.193 237.333 100.333 227.474 100.333 215.311Z" fill="#EBBAAA"/>
<path d="M106.63 169.337C106.63 161.583 112.916 155.296 120.671 155.296H128.144C135.899 155.296 142.185 161.583 142.185 169.337V206.778C142.185 216.596 134.226 224.556 124.407 224.556C114.589 224.556 106.63 216.596 106.63 206.778V169.337Z" fill="#EBBAAA"/>
<path d="M172.84 159.012C184.963 159.012 194.791 149.185 194.791 137.062C194.791 124.939 184.963 115.111 172.84 115.111C160.717 115.111 150.89 124.939 150.89 137.062C150.89 149.185 160.717 159.012 172.84 159.012Z" fill="#EBBAAA"/>
<path d="M77.2837 160.123C65.1608 160.123 55.3333 150.296 55.3333 138.173C55.3333 126.05 65.1608 116.222 77.2837 116.222C89.4066 116.222 99.2344 126.05 99.2344 138.173C99.2344 150.296 89.4066 160.123 77.2837 160.123Z" fill="#EBBAAA"/>
<path d="M68.5919 106.599C67.821 75.1203 93.1285 49.1853 124.617 49.1853C156.509 49.1853 181.973 75.7633 180.607 107.627L179.51 133.218C179.319 137.678 178.667 142.107 177.565 146.433L171.292 171.048C168.554 181.795 161.497 190.933 151.792 196.3C135.251 205.449 114.947 205.187 98.5485 195.785C89.7522 190.741 83.0626 182.535 79.9682 172.879L72.2493 148.792C70.3648 142.912 69.3313 136.792 69.1801 130.619L68.5919 106.599Z" fill="#F4D4C9"/>
<path d="M164.223 117.148C166.678 117.148 168.667 119.138 168.667 121.593C168.667 124.009 166.738 125.976 164.336 126.036L164.223 126.037H141.542C139.087 126.037 137.097 124.047 137.097 121.593C137.097 119.176 139.027 117.21 141.429 117.15L141.542 117.148H164.223Z" fill="#2C2929"/>
<path d="M108.69 118.444C111.145 118.444 113.135 120.434 113.135 122.889C113.135 125.305 111.206 127.272 108.803 127.332L108.69 127.333H86.2599C83.8053 127.333 81.8154 125.343 81.8154 122.889C81.8154 120.472 83.7445 118.505 86.1469 118.445L86.2599 118.444H108.69Z" fill="#2C2929"/>
<path d="M121.896 138.003L127.374 141.108C125.664 144.124 124.69 147.348 124.795 149.546C124.872 151.166 125.303 151.658 126.831 151.677L126.926 151.677V157.974C121.789 157.974 118.738 154.706 118.506 149.846C118.34 146.376 119.598 142.138 121.768 138.232L121.896 138.003Z" fill="#EBBAAA"/>
<path d="M176.075 62.89C179.932 68.6006 187.01 101.367 179.779 124C178.481 123.246 177.312 109.4 174.038 106.963C170.34 104.21 170.698 87.0674 167.175 82.8888C163.651 78.7103 136.209 79.604 124.713 79.604C113.217 79.604 84.2359 77.617 79.7859 84.4074C75.3359 91.1974 76.8193 105.3 74.2234 108.259C72.1465 110.627 69.7798 121.156 69.0381 124C69.0381 110.942 62.6831 92.344 69.038 72.1481C71.3389 64.8358 88.5208 41.2225 124.713 41.2222C149.409 41.2219 152.526 46.3501 159.572 51.5732C165.135 54.8811 164.579 56.2742 167.175 59.2339C168.473 59.2339 173.739 59.431 176.075 62.89Z" fill="#2C2929"/>
<path d="M73.4814 61.037C79.7037 55.4074 90.2103 49.8025 94.9637 47.7037L94.2229 44.1852L101.075 43.6296L100.519 42.1481H110.334L113.667 39L117.556 41.2222L120.334 39L128.667 43.2593L133.112 39L135.149 41.2222L137.186 39.7407L143.667 42.1481L146.816 41.2222L150.334 44.9259L153.853 44.1852L155.89 50.1111C152.186 51.4074 140.667 54.2222 124.223 55.1111C103.667 56.2222 75.1481 84.5556 68.1111 82.3333C61.074 80.1111 65.7037 68.0741 73.4814 61.037Z" fill="#2C2929"/>
<path d="M74.1807 99.6715L70.7954 79.0997L101.843 59.8447L108.084 78.5574L91.1877 87.5052L94.3648 82.2004L83.174 89.633L82.4707 85.3585L74.1807 99.6715Z" fill="#2C2929"/>
<path d="M174.805 98.1937L177.375 74.0694L147.608 60.7412L140.234 73.8644L140.571 85.7518L152.853 84.0607L155.879 88.7425L168.451 85.5148L174.805 98.1937Z" fill="#2C2929"/>
<path d="M98.8149 93.853L97.0968 85.9375L93.8264 67.2126L155.968 56.5625L137.161 89.5312L136.846 85.2319L129.137 88.6564L127.3 84.2967L120.527 90.1319L118.503 88.3756L107.799 92.3134L109.144 89.9797L98.8149 93.853Z" fill="#2C2929"/>
<path d="M177.17 54.8532L176.426 58.2139L174.36 66.0227L148.482 59.0886L160.959 46.4407L162.556 49.9592L164.779 48.2925L165.519 54.5124L168.128 52.4305L168.597 53.4681L173.429 53.8507L172.495 54.5124L177.17 54.8532Z" fill="#2C2929"/>
<path d="M99.2229 131.963C99.5989 131.963 99.9811 131.975 100.369 132C102.075 132.107 103.845 132.434 105.62 132.91C106.372 133.112 107.076 133.329 107.717 133.546L108.107 133.682C108.311 133.754 108.472 133.814 108.586 133.859C110.3 134.53 111.146 136.463 110.475 138.178C109.816 139.861 107.941 140.707 106.25 140.102L105.968 139.997C105.884 139.966 105.777 139.929 105.651 139.885L105.573 139.859C105.063 139.686 104.496 139.511 103.89 139.349C102.512 138.979 101.162 138.729 99.9526 138.653C99.7002 138.638 99.4566 138.63 99.2229 138.63C98.9891 138.63 98.7456 138.638 98.4931 138.653C97.2833 138.729 95.9332 138.979 94.5553 139.349C94.0365 139.488 93.5455 139.636 93.0948 139.785L92.8729 139.859C92.6047 139.95 92.4143 140.019 92.3161 140.057L92.2894 140.067C90.575 140.738 88.6414 139.892 87.9706 138.178C87.2997 136.463 88.1457 134.53 89.86 133.859L90.0318 133.793C90.2071 133.728 90.4417 133.644 90.729 133.546C91.3695 133.329 92.0738 133.112 92.8256 132.91C94.6004 132.434 96.3703 132.107 98.0765 132C98.4646 131.975 98.8468 131.963 99.2229 131.963Z" fill="black"/>
<path d="M149.593 131.963C151.791 131.963 154.005 132.322 156.154 132.917C156.899 133.123 157.586 133.345 158.203 133.569L158.496 133.677C158.737 133.768 158.925 133.844 159.055 133.899C160.747 134.624 161.531 136.584 160.805 138.276C160.093 139.937 158.191 140.723 156.521 140.065L156.301 139.975C156.213 139.94 156.088 139.893 155.932 139.836C155.471 139.669 154.947 139.5 154.375 139.342C152.763 138.895 151.123 138.63 149.593 138.63C148.064 138.63 146.424 138.895 144.812 139.342C144.312 139.481 143.848 139.627 143.431 139.774L143.255 139.836C142.994 139.931 142.823 139.999 142.758 140.027C141.066 140.752 139.107 139.968 138.381 138.276C137.656 136.584 138.44 134.624 140.132 133.899L140.302 133.828C140.475 133.758 140.703 133.67 140.984 133.569C141.601 133.345 142.288 133.123 143.033 132.917C145.182 132.322 147.396 131.963 149.593 131.963Z" fill="black"/>
<mask id="mask1" mask-type="alpha" maskUnits="userSpaceOnUse" x="108" y="152" width="34" height="25">
<path fill-rule="evenodd" clip-rule="evenodd" d="M108.667 164.926C108.667 158.278 114.056 152.889 120.705 152.889H129.593C136.241 152.889 141.63 158.278 141.63 164.926C141.63 171.574 136.241 176.963 129.593 176.963H120.705C114.056 176.963 108.667 171.574 108.667 164.926Z" fill="white"/>
</mask>
<g mask="url(#mask1)">
<rect x="109.779" y="168.815" width="75.1852" height="15.5556" fill="white"/>
</g>
</g>
</svg>
