<svg width="254" height="558" viewBox="0 0 254 558" fill="none" xmlns="http://www.w3.org/2000/svg">
<mask id="mask0" mask-type="alpha" maskUnits="userSpaceOnUse" x="0" y="0" width="254" height="558">
<rect width="254" height="558" fill="#C4C4C4"/>
</mask>
<g mask="url(#mask0)">
<path d="M156.236 501.109C161.485 501.109 165.75 505.322 165.835 510.55L165.836 510.709V597.982C165.836 603.284 161.538 607.582 156.236 607.582C150.987 607.582 146.722 603.369 146.638 598.141L146.636 597.982V510.709C146.636 505.407 150.934 501.109 156.236 501.109Z" fill="#EBBAAA"/>
<path d="M93.3998 501.109C98.6487 501.109 102.914 505.322 102.999 510.55L103 510.709V597.982C103 603.284 98.7017 607.582 93.3998 607.582C88.1509 607.582 83.8859 603.369 83.8011 598.141L83.7998 597.982V510.709C83.7998 505.407 88.0979 501.109 93.3998 501.109Z" fill="#EBBAAA"/>
<path d="M124.818 450.055C152.532 450.055 174.999 439.798 174.999 427.145C174.999 414.493 152.532 404.236 124.818 404.236C97.1033 404.236 74.6362 414.493 74.6362 427.145C74.6362 439.798 97.1033 450.055 124.818 450.055Z" fill="#252424"/>
<path d="M124.382 396.382H181.109V586.636H140.016L124.382 396.382Z" fill="#252424"/>
<path d="M125.254 396.382H68.5271V586.636H109.62L125.254 396.382Z" fill="#252424"/>
<rect x="51.9453" y="221.837" width="74.1818" height="139.636" rx="37.0909" transform="rotate(15 51.9453 221.837)" fill="#503868"/>
<rect x="74.6365" y="203.073" width="100.364" height="207.273" rx="50.1818" fill="#503868"/>
<path d="M60.3104 251.329C59.768 240.424 67.3708 230.797 78.1045 228.797L124.818 220.091L171.532 228.797C182.265 230.797 189.868 240.424 189.326 251.329L185.909 320.018L190.073 414.954C190.182 417.437 188.199 419.509 185.713 419.509H63.9226C61.4376 419.509 59.4543 417.437 59.5634 414.954L63.7272 320.018L60.3104 251.329Z" fill="#503868"/>
<rect width="39.2727" height="126.545" rx="19.6364" transform="matrix(-0.965926 0.258819 0.258819 0.965926 203.364 224.455)" fill="#503868"/>
<rect x="7" y="335.728" width="45.8182" height="89.4545" rx="22.9091" transform="rotate(-45 7 335.728)" fill="#503868"/>
<rect width="45.8182" height="89.4546" rx="22.9091" transform="matrix(0.707107 0.707107 0.707107 -0.707107 151 371.946)" fill="#503868"/>
<rect x="133.545" y="227.946" width="8.72727" height="58.9091" rx="4.36364" fill="#F7F7F7"/>
<rect x="107.364" y="250.636" width="8.72727" height="58.9091" rx="4.36364" fill="#F7F7F7"/>
<path d="M74.6365 363.655C74.6365 349.918 85.7725 338.782 99.5092 338.782H124.818H150.127C163.864 338.782 175 349.918 175 363.655V366.055V393.327H74.6365V366.055V363.655Z" fill="#664C81"/>
<path d="M178.273 390.273C187.31 390.273 194.636 384.412 194.636 377.182C194.636 369.952 187.31 364.091 178.273 364.091C169.235 364.091 161.909 369.952 161.909 377.182C161.909 384.412 169.235 390.273 178.273 390.273Z" fill="#EBBAAA"/>
<path d="M124.818 267.218C141.688 267.218 155.364 253.543 155.364 236.673C155.364 219.803 141.688 206.127 124.818 206.127C107.948 206.127 94.2727 219.803 94.2727 236.673C94.2727 253.543 107.948 267.218 124.818 267.218Z" fill="#503868"/>
<rect x="107.8" y="183.873" width="33.1636" height="62.4" rx="16.5818" fill="#EBBAAA"/>
<path opacity="0.5" d="M190.273 173.401C199.912 173.401 207.727 165.586 207.727 155.946C207.727 146.306 199.912 138.491 190.273 138.491C180.633 138.491 172.818 146.306 172.818 155.946C172.818 165.586 180.633 173.401 190.273 173.401Z" fill="#C99584"/>
<path opacity="0.5" d="M59.3635 173.401C49.7234 173.401 41.9087 165.586 41.9087 155.946C41.9087 146.306 49.7234 138.491 59.3635 138.491C69.0032 138.491 76.818 146.306 76.818 155.946C76.818 165.586 69.0032 173.401 59.3635 173.401Z" fill="#C99584"/>
<rect x="59.3635" y="39" width="130.909" height="178.909" rx="65.4545" fill="#F4D5CC"/>
<path d="M140.568 187.927C141.702 189.396 141.432 191.506 139.963 192.64L139.865 192.715C139.809 192.756 139.744 192.803 139.669 192.855L139.591 192.909C139.35 193.075 139.072 193.254 138.758 193.442C137.896 193.96 136.895 194.469 135.76 194.94C132.571 196.262 128.906 197.051 124.818 197.051C120.73 197.051 117.065 196.262 113.877 194.94C112.741 194.469 111.74 193.96 110.878 193.442C110.616 193.285 110.38 193.135 110.169 192.993L110.046 192.909C109.883 192.797 109.759 192.707 109.673 192.64C108.205 191.506 107.934 189.396 109.069 187.927C110.18 186.49 112.226 186.2 113.689 187.254L113.807 187.34L113.854 187.373C113.982 187.461 114.142 187.564 114.335 187.68C114.922 188.032 115.629 188.392 116.45 188.733C118.853 189.729 121.651 190.331 124.818 190.331C127.985 190.331 130.783 189.729 133.186 188.733C134.007 188.392 134.714 188.032 135.301 187.68L135.517 187.547C135.584 187.505 135.645 187.465 135.702 187.427L135.855 187.323C137.323 186.188 139.433 186.459 140.568 187.927Z" fill="#C99584"/>
<path d="M192.451 97.6852C192.552 94.9487 190.571 92.6731 188.091 92.6731C185.518 92.6731 183.504 95.1141 183.747 97.94L187.856 145.81C187.925 146.611 188.532 147.219 189.258 147.219C190.016 147.219 190.635 146.561 190.668 145.73L192.451 97.6852Z" fill="#6E6C6C"/>
<path d="M57.1856 97.6852C57.084 94.9487 59.0655 92.6731 61.5453 92.6731C64.1181 92.6731 66.1324 95.1141 65.8889 97.94L61.7805 145.81C61.7116 146.611 61.1037 147.219 60.3785 147.219C59.6205 147.219 59.0009 146.561 58.9682 145.73L57.1856 97.6852Z" fill="#6E6C6C"/>
<path d="M156.632 130C157.94 130 159 134.253 159 139.5C159 144.653 157.977 148.848 156.701 148.996L156.632 149H151.368C150.06 149 149 144.747 149 139.5C149 134.347 150.023 130.152 151.299 130.004L151.368 130H156.632Z" fill="black"/>
<path d="M99.6316 130C100.94 130 102 134.253 102 139.5C102 144.653 100.977 148.848 99.7014 148.996L99.6316 149H94.3684C93.0604 149 92 144.747 92 139.5C92 134.347 93.0228 130.152 94.2986 130.004L94.3684 130H99.6316Z" fill="black"/>
<path d="M140.097 112.081C140.221 109.954 142.016 108.322 144.131 108.384L144.247 108.389L170.428 109.916C172.594 110.042 174.247 111.9 174.12 114.065C173.996 116.192 172.202 117.824 170.087 117.762L169.971 117.757L143.789 116.23C141.624 116.104 139.971 114.246 140.097 112.081Z" fill="#393939"/>
<path d="M104.516 108.389C106.682 108.262 108.539 109.915 108.666 112.081C108.79 114.207 107.198 116.037 105.089 116.221L104.974 116.23L78.7921 117.757C76.6268 117.883 74.7691 116.23 74.6428 114.065C74.5187 111.939 76.1109 110.109 78.2192 109.924L78.3347 109.916L104.516 108.389Z" fill="#393939"/>
<path d="M121.732 149.524L127.904 153.639C125.806 156.786 124.164 161.509 124.164 164.945C124.164 168.259 125.36 169.652 129.023 169.69L129.182 169.691V177.109C121.09 177.109 116.745 172.221 116.745 164.945C116.745 160.017 118.796 154.034 121.579 149.756L121.732 149.524Z" fill="#EBBAAA"/>
<path d="M126.425 83.1614C121.189 83.1614 103.556 80.8783 98.9348 80.0117C94.3133 79.1455 75.5881 78.2724 78.2076 92.4542C80.8271 106.636 56.1708 106.2 57.2612 95.5092C58.3517 84.8183 60.4598 73.6908 69.9162 61.909C79.3727 50.1272 92.1695 39 129.262 39C166.353 39 190.352 58.2 193.625 89.6183C195.16 104.36 166.828 101.4 170.279 88.0906C173.729 74.7816 149.334 80.0117 149.334 80.0117C149.334 80.0117 131.661 83.1614 126.425 83.1614Z" fill="#6E6C6C"/>
<path d="M65.5 103.5C68.0486 75.4655 91.554 54 119.704 54H129.377C157.88 54 181.729 75.6324 184.5 104L65.5 103.5Z" fill="#F4D5CC"/>
</g>
</svg>
