<svg width="130" height="155" viewBox="0 0 130 155" fill="none" xmlns="http://www.w3.org/2000/svg">
<mask id="mask0" mask-type="alpha" maskUnits="userSpaceOnUse" x="0" y="0" width="130" height="155">
<rect width="130" height="155" fill="#C4C4C4"/>
</mask>
<g mask="url(#mask0)">
<rect x="30.6299" y="103.922" width="34.0493" height="64.0929" rx="17.0247" transform="rotate(15 30.6299 103.922)" fill="#503868"/>
<rect x="41.0449" y="95.3091" width="46.0667" height="95.1378" rx="23.0334" fill="#503868"/>
<path d="M34.4691 117.459C34.2202 112.453 37.7098 108.035 42.6366 107.116L64.078 103.121L85.5195 107.116C90.4462 108.035 93.9359 112.453 93.6869 117.459L92.1187 148.987L94.0298 192.563C94.0799 193.702 93.1696 194.653 92.0289 194.653H36.1271C34.9865 194.653 34.0762 193.702 34.1262 192.563L36.0374 148.987L34.4691 117.459Z" fill="#503868"/>
<rect width="18.0261" height="58.0842" rx="9.01306" transform="matrix(-0.965926 0.258819 0.258819 0.965926 100.13 105.123)" fill="#503868"/>
<rect x="10" y="156.197" width="21.0305" height="41.0595" rx="10.5152" transform="rotate(-45 10 156.197)" fill="#503868"/>
<rect width="21.0305" height="41.0595" rx="10.5152" transform="matrix(0.707107 0.707107 0.707107 -0.707107 76.0957 172.821)" fill="#503868"/>
<rect x="68.084" y="106.726" width="4.0058" height="27.0392" rx="2.0029" fill="#F7F7F7"/>
<rect x="56.0669" y="117.141" width="4.0058" height="27.0392" rx="2.0029" fill="#F7F7F7"/>
<path d="M64.0784 124.752C71.8214 124.752 78.0987 118.474 78.0987 110.731C78.0987 102.988 71.8214 96.7109 64.0784 96.7109C56.3352 96.7109 50.0581 102.988 50.0581 110.731C50.0581 118.474 56.3352 124.752 64.0784 124.752Z" fill="#503868"/>
<rect x="56.2671" y="86.4961" width="15.2221" height="28.6415" rx="7.61103" fill="#EBBAAA"/>
<path opacity="0.5" d="M94.1222 81.6897C98.5468 81.6897 102.134 78.1027 102.134 73.6781C102.134 69.2535 98.5468 65.6665 94.1222 65.6665C89.6976 65.6665 86.1106 69.2535 86.1106 73.6781C86.1106 78.1027 89.6976 81.6897 94.1222 81.6897Z" fill="#C99584"/>
<path opacity="0.5" d="M34.0349 81.6897C29.6101 81.6897 26.0232 78.1027 26.0232 73.6781C26.0232 69.2535 29.6101 65.6665 34.0349 65.6665C38.4595 65.6665 42.0465 69.2535 42.0465 73.6781C42.0465 78.1027 38.4595 81.6897 34.0349 81.6897Z" fill="#C99584"/>
<rect x="34.0352" y="20" width="60.0871" height="82.119" rx="30.0435" fill="#F4D5CC"/>
<path d="M71.3075 88.3576C71.8283 89.0315 71.7041 90.0001 71.0302 90.5208L70.9849 90.555C70.9593 90.5739 70.9293 90.5954 70.8949 90.6195L70.8591 90.6443C70.7486 90.7203 70.6211 90.8024 70.477 90.8889C70.0812 91.1264 69.6218 91.3603 69.1006 91.5763C67.6371 92.1832 65.9548 92.5452 64.0785 92.5452C62.2022 92.5452 60.52 92.1832 59.0564 91.5763C58.5353 91.3603 58.0759 91.1264 57.6801 90.8889C57.56 90.8169 57.4514 90.7478 57.3546 90.6828L57.2979 90.6443C57.2234 90.593 57.1663 90.5513 57.1269 90.5208C56.4529 90.0001 56.3288 89.0315 56.8495 88.3576C57.3595 87.6977 58.2987 87.5649 58.9703 88.0485L59.0242 88.0881L59.0459 88.1031C59.1046 88.1434 59.1784 88.191 59.267 88.2442C59.5362 88.4057 59.8607 88.5709 60.2378 88.7272C61.3405 89.1844 62.625 89.4608 64.0785 89.4608C65.5321 89.4608 66.8166 89.1844 67.9193 88.7272C68.2963 88.5709 68.6209 88.4057 68.8901 88.2442L68.9893 88.1832C69.02 88.1638 69.0483 88.1454 69.0741 88.1282L69.1443 88.0802C69.8182 87.5595 70.7868 87.6836 71.3075 88.3576Z" fill="#C99584"/>
<path d="M95.1216 46.9363C95.1683 45.6803 94.2588 44.6357 93.1205 44.6357C91.9396 44.6357 91.0151 45.7562 91.1268 47.0532L93.0126 69.0257C93.0442 69.393 93.3232 69.672 93.6561 69.672C94.004 69.672 94.2884 69.3704 94.3034 68.9886L95.1216 46.9363Z" fill="#6E6C6C"/>
<path d="M33.0352 46.9363C32.9885 45.6803 33.898 44.6357 35.0363 44.6357C36.2172 44.6357 37.1417 45.7562 37.03 47.0532L35.1442 69.0257C35.1126 69.393 34.8336 69.672 34.5007 69.672C34.1528 69.672 33.8684 69.3704 33.8534 68.9886L33.0352 46.9363Z" fill="#6E6C6C"/>
<path d="M78.6809 61.7686C79.2812 61.7686 79.768 63.7208 79.768 66.129C79.768 68.4943 79.2985 70.4197 78.7129 70.4877L78.6809 70.4895H76.2651C75.6647 70.4895 75.178 68.5373 75.178 66.129C75.178 63.7638 75.6475 61.8384 76.233 61.7704L76.2651 61.7686H78.6809Z" fill="black"/>
<path d="M52.5178 61.7686C53.1182 61.7686 53.6049 63.7208 53.6049 66.129C53.6049 68.4943 53.1354 70.4197 52.5498 70.4877L52.5178 70.4895H50.102C49.5016 70.4895 49.0149 68.5373 49.0149 66.129C49.0149 63.7638 49.4844 61.8384 50.0699 61.7704L50.102 61.7686H52.5178Z" fill="black"/>
<path d="M71.0917 53.5439C71.1487 52.5678 71.9722 51.8185 72.9432 51.847L72.9963 51.8493L85.0137 52.5503C86.0075 52.6083 86.7662 53.461 86.7083 54.4548C86.6513 55.431 85.8278 56.1802 84.8568 56.1518L84.8037 56.1494L72.7863 55.4484C71.7924 55.3904 71.0338 54.5377 71.0917 53.5439Z" fill="#393939"/>
<path d="M54.76 51.8493C55.7539 51.7913 56.6066 52.55 56.6645 53.5439C56.7215 54.52 55.9907 55.3599 55.023 55.4445L54.97 55.4484L42.9526 56.1494C41.9587 56.2074 41.106 55.4487 41.048 54.4548C40.9911 53.4787 41.7219 52.6388 42.6896 52.5542L42.7426 52.5503L54.76 51.8493Z" fill="#393939"/>
<path d="M62.6619 70.7305L65.495 72.6192C64.5321 74.0635 63.778 76.2315 63.778 77.8087C63.778 79.3295 64.3272 79.9688 66.0086 79.9865L66.0813 79.9869V83.3918C62.3673 83.3918 60.373 81.1483 60.373 77.8087C60.373 75.5464 61.3142 72.8002 62.5919 70.8368L62.6619 70.7305Z" fill="#EBBAAA"/>
<path d="M64.8158 40.27C62.4124 40.27 54.3192 39.2221 52.198 38.8243C50.0767 38.4267 41.4818 38.026 42.6842 44.5354C43.8865 51.0448 32.5693 50.8447 33.0698 45.9376C33.5704 41.0305 34.538 35.923 38.8785 30.5152C43.219 25.1074 49.0927 20 66.1179 20C83.143 20 94.1584 28.8128 95.6605 43.2337C96.3654 50.0001 83.3609 48.6413 84.9448 42.5325C86.5285 36.4237 75.3311 38.8243 75.3311 38.8243C75.3311 38.8243 67.2193 40.27 64.8158 40.27Z" fill="#6E6C6C"/>
<path d="M36.8516 49.6057C38.0214 36.7379 48.8103 26.8853 61.7312 26.8853H66.1712C79.2538 26.8853 90.2004 36.8145 91.4724 49.8352L36.8516 49.6057Z" fill="#F4D5CC"/>
</g>
</svg>
