<svg width="254" height="254" viewBox="0 0 254 254" fill="none" xmlns="http://www.w3.org/2000/svg">
<mask id="mask0" mask-type="alpha" maskUnits="userSpaceOnUse" x="0" y="0" width="254" height="254">
<rect width="254" height="254" fill="#CCCCCC"/>
</mask>
<g mask="url(#mask0)">
<path d="M84.4886 256.565C85.3604 255.255 86.2807 253.882 87.3044 252.364C88.5587 250.504 92.9035 244.097 93.6602 242.977C96.1223 239.332 97.9573 236.575 99.6137 234.015C103.572 227.897 101.822 219.728 95.704 215.769C89.586 211.811 81.4171 213.561 77.4584 219.679C75.9146 222.065 74.1658 224.692 71.7928 228.205C71.0566 229.295 66.703 235.715 65.4242 237.612C64.3723 239.172 63.4229 240.588 62.519 241.946C57.4413 249.577 53.6629 255.603 50.6132 261.092L49.9401 262.492C43.7806 277.506 40.7322 288.989 39.809 300.99C39.0158 311.301 39.6263 320.458 41.9131 339.668C42.7745 346.904 49.3388 352.072 56.5748 351.21C63.8108 350.349 68.9784 343.784 68.117 336.548C66.0274 318.995 65.4997 311.08 66.1202 303.014C66.798 294.202 69.0786 285.49 74.0572 273.236C76.6456 268.64 79.989 263.327 84.4886 256.565Z" fill="#EBBAAA"/>
<path d="M63.5342 245.795C65.1768 226.411 81.3902 211.513 100.844 211.513H138.922C158.255 211.513 174.41 226.232 176.204 245.482L180.897 295.842L177.688 368.063L62.8603 370.203L59.2942 295.842L63.5342 245.795Z" fill="#D04040"/>
<path d="M121.709 241.738C135.501 241.738 146.681 230.422 146.681 216.462C146.681 202.503 135.501 191.187 121.709 191.187C107.918 191.187 96.738 202.503 96.738 216.462C96.738 230.422 107.918 241.738 121.709 241.738Z" fill="#993030"/>
<rect x="108.438" y="189.052" width="27.4076" height="41.1114" rx="13.7038" fill="#EBBAAA"/>
<path d="M156.589 235.698C157.509 239.955 158.948 244.107 161.129 249.26C162.057 251.452 165.804 259.813 166.662 261.814C170.243 270.168 172.52 277.065 173.991 284.91C176.792 299.85 187.066 312.346 200.909 319.713C214.377 326.879 229.82 328.399 241.715 322.451C248.233 319.192 250.875 311.267 247.616 304.749C244.357 298.231 236.431 295.589 229.914 298.848C226.52 300.545 219.827 299.886 213.306 296.416C206.135 292.601 201.143 286.529 199.928 280.046C198.055 270.058 195.199 261.409 190.917 251.418C189.936 249.131 186.222 240.842 185.431 238.973C183.837 235.209 182.892 232.482 182.382 230.121C180.842 222.999 173.82 218.473 166.697 220.013C159.575 221.553 155.049 228.576 156.589 235.698Z" fill="#EBBAAA"/>
<path d="M30.0111 260.655C28.6491 259.256 28.6651 257.022 30.047 255.643L75.339 210.443L96.4883 258.131L57.5086 288.896L30.0111 260.655Z" fill="#2B2D2F"/>
<path d="M61.8579 233.532C63.0251 217.897 76.0512 205.807 91.7294 205.807H101.545C104.707 205.807 107.587 207.624 108.948 210.478L117.775 228.987L113.496 299.595V359.354C113.496 361.241 112.026 362.801 110.142 362.914L57.5765 366.043C55.4504 366.169 53.6879 364.415 53.804 362.289L58.0436 284.617L61.8579 233.532Z" fill="#2B2D2F"/>
<path d="M118.488 229.343L109.217 201.528L96.0222 205.451L104.224 239.328L118.488 229.343Z" fill="#494C50"/>
<path d="M214.1 260.655C215.462 259.256 215.446 257.022 214.064 255.643L168.772 210.443L147.623 258.131L186.603 288.896L214.1 260.655Z" fill="#2B2D2F"/>
<path d="M182.254 233.532C181.086 217.897 168.06 205.807 152.382 205.807H142.566C139.404 205.807 136.524 207.624 135.163 210.478L126.336 228.987L130.615 299.595V359.354C130.615 361.241 132.086 362.801 133.97 362.914L186.535 366.043C188.661 366.169 190.424 364.415 190.307 362.289L186.068 284.617L182.254 233.532Z" fill="#2B2D2F"/>
<path d="M125.623 229.343L134.895 201.528L148.089 205.451L139.887 239.328L125.623 229.343Z" fill="#494C50"/>
<path d="M133.468 252.166C134.847 252.166 135.964 251.048 135.964 249.67C135.964 248.291 134.847 247.173 133.468 247.173C132.09 247.173 130.972 248.291 130.972 249.67C130.972 251.048 132.09 252.166 133.468 252.166Z" fill="#5F6368"/>
<path d="M63.872 160.122C75.3087 160.122 84.58 151.328 84.58 140.48C84.58 129.632 75.3087 120.838 63.872 120.838C52.4353 120.838 43.1641 129.632 43.1641 140.48C43.1641 151.328 52.4353 160.122 63.872 160.122Z" fill="#EBBAAA"/>
<path d="M180.506 161.645C191.943 161.645 201.214 152.851 201.214 142.003C201.214 131.155 191.943 122.361 180.506 122.361C169.07 122.361 159.798 131.155 159.798 142.003C159.798 152.851 169.07 161.645 180.506 161.645Z" fill="#EBBAAA"/>
<path d="M59.8615 104.232C59.2777 69.5114 87.2632 41.0513 121.989 41.0513C156.714 41.0513 184.7 69.5114 184.116 104.232L183.34 150.346C182.777 183.827 155.475 210.674 121.989 210.674C88.5027 210.674 61.2002 183.827 60.6371 150.346L59.8615 104.232Z" fill="#EED4CC"/>
<path fill-rule="evenodd" clip-rule="evenodd" d="M109.093 167.357L110.076 173.567C111.59 183.126 120.567 189.648 130.126 188.134C139.685 186.62 146.207 177.643 144.693 168.084L143.709 161.874L109.093 167.357Z" fill="#393939"/>
<mask id="mask1" mask-type="alpha" maskUnits="userSpaceOnUse" x="108" y="160" width="37" height="29">
<path fill-rule="evenodd" clip-rule="evenodd" d="M108.941 166.207C108.975 166.546 109.018 166.885 109.072 167.225L110.076 173.567C111.59 183.126 120.567 189.648 130.126 188.134C139.686 186.62 146.207 177.643 144.693 168.084L143.689 161.742C143.635 161.402 143.572 161.066 143.499 160.734L108.941 166.207Z" fill="white"/>
</mask>
<g mask="url(#mask1)">
<path d="M131.005 192.613C136.77 191.7 141.04 188.416 140.543 185.279C140.046 182.141 134.97 180.337 129.205 181.25C123.441 182.163 119.17 185.447 119.667 188.585C120.164 191.723 125.24 193.526 131.005 192.613Z" fill="#FF6C6C"/>
<rect x="109.093" y="167.357" width="35.0484" height="7.22371" transform="rotate(-9 109.093 167.357)" fill="white"/>
</g>
<path d="M87.2631 116.448L107.252 114.346C109.602 114.099 111.308 111.994 111.06 109.643C110.813 107.293 108.708 105.588 106.357 105.835L86.3684 107.936C84.018 108.183 82.3129 110.289 82.5599 112.639C82.807 114.99 84.9127 116.695 87.2631 116.448Z" fill="#393939"/>
<path d="M97.5408 127.97V138.05C97.5408 140.413 99.4567 142.329 101.82 142.329C104.183 142.329 106.099 140.413 106.099 138.05V127.97C106.099 125.606 104.183 123.69 101.82 123.69C99.4567 123.69 97.5408 125.606 97.5408 127.97Z" fill="black"/>
<path d="M139.565 127.97V138.05C139.565 140.413 141.481 142.329 143.845 142.329C146.208 142.329 148.124 140.413 148.124 138.05V127.97C148.124 125.606 146.208 123.69 143.845 123.69C141.481 123.69 139.565 125.606 139.565 127.97Z" fill="black"/>
<path d="M135.874 110.213L155.862 112.314C158.213 112.561 160.319 110.856 160.566 108.506C160.813 106.155 159.108 104.05 156.757 103.803L136.768 101.702C134.418 101.454 132.312 103.16 132.065 105.51C131.818 107.86 133.523 109.966 135.874 110.213Z" fill="#393939"/>
<path d="M55.4536 68.1711C55.4536 56.1225 64.1826 45.6879 76.073 43.7409L132.297 34.5345C146.295 32.2426 159.437 41.9145 161.411 55.9598C163.355 69.7951 153.706 82.5834 139.869 84.5108L83.1866 92.4061C68.5561 94.5161 55.4536 82.9532 55.4536 68.1711Z" fill="#765C43"/>
<rect x="57.1543" y="80.9949" width="8.20195" height="43.8626" rx="4.10098" fill="#765C43"/>
<path d="M80.6903 82.0645C75.2699 85.4879 69.2789 85.9872 64.9996 103.817L62.1467 85.9872C70.5865 83.2534 86.1107 78.6411 80.6903 82.0645Z" fill="#765C43"/>
<rect x="176.974" y="86.3438" width="8.20195" height="43.506" rx="4.10098" fill="#765C43"/>
<rect x="139.174" y="48.8513" width="36.4905" height="54.2648" rx="18.2452" transform="rotate(-20.5 139.174 48.8513)" fill="#765C43"/>
<path d="M148.066 30C147.091 42.5341 147.019 56.8308 147.019 56.8308L166.642 43.5133C166.642 43.5133 156.44 40.9673 148.066 30Z" fill="#765C43"/>
<path d="M71.062 101.411C72.7274 91.1536 74.9355 86.0185 72.7274 77.7852H183.036V108.453L176.804 104.991C176.804 93.7454 164.219 98.034 157.438 91.1536C146.635 80.1915 134.392 91.9399 127.28 99.0172C127.28 90.367 123.149 90.5638 119.51 88.7947C120.039 96.9727 106.874 102.399 97.943 102.399C97.943 93.5522 98.0104 94.1024 94.041 91.1536C85.5852 94.0179 80.7453 91.1536 71.062 101.411Z" fill="#765C43"/>
<path d="M116.721 137.283C116.606 138.125 116.475 138.694 115.855 141.183C115.704 141.787 115.597 142.225 115.495 142.665C114.736 145.923 114.501 148.151 114.998 150.22C115.778 153.47 118.361 155.344 122.16 155.344V149.282C121.77 149.282 121.465 149.245 121.241 149.185C121.11 149.15 121.037 149.116 121 149.089C120.976 149.071 120.945 149.021 120.893 148.806C120.685 147.941 120.846 146.414 121.399 144.04C121.493 143.637 121.594 143.225 121.737 142.649C122.427 139.88 122.568 139.265 122.727 138.107L116.721 137.283Z" fill="#EBBAAA"/>
</g>
</svg>
