<svg width="254" height="254" viewBox="0 0 254 254" fill="none" xmlns="http://www.w3.org/2000/svg">
<mask id="mask0" mask-type="alpha" maskUnits="userSpaceOnUse" x="0" y="0" width="254" height="254">
<rect width="254" height="254" fill="#CCCCCC"/>
</mask>
<g mask="url(#mask0)">
<path d="M89.9361 24C89.9361 34.1695 101.314 34.5866 107.886 34.1695L115.883 37.9842C119.672 39.7911 106.371 57.1216 93.7884 53.1692C83.7226 50.0073 82.0714 43.0077 81.5943 39.4624C80.6815 32.6785 81.5943 29.1176 89.9361 24Z" fill="#393939"/>
<path d="M101.746 24C101.746 34.1695 113.124 34.5866 119.695 34.1695L127.693 37.9842C131.482 39.7911 118.18 57.1216 105.598 53.1692C95.5326 50.0073 93.8811 43.0077 93.4043 39.4624C92.4915 32.6785 93.4043 29.1176 101.746 24Z" fill="#393939"/>
<path d="M167.883 43.4094C167.883 49.2516 159.88 49.4563 156.104 49.2167L151.51 51.4081C149.333 52.4462 156.975 62.4023 164.203 60.1316C169.986 58.3154 170.934 54.2941 171.208 52.2574C171.733 48.3601 171.208 45.7714 167.883 43.4094Z" fill="#393939"/>
<path d="M153.588 256.798C160.161 268.45 166.503 286.833 170.5 305.341L170.708 306.314C172.488 314.733 173.656 322.645 174.091 329.192C174.309 332.478 174.336 335.335 174.181 337.647C174.116 338.618 174.021 339.464 173.902 340.169L173.875 340.33C173.782 340.85 173.687 341.229 173.613 341.446L173.598 341.49C171.166 348.178 174.616 355.571 181.304 358.004C187.993 360.436 195.386 356.985 197.818 350.297C201.596 339.909 200.381 321.615 195.692 299.9C191.19 279.057 184.035 258.317 176.035 244.135C172.539 237.937 164.679 235.746 158.48 239.243C152.282 242.74 150.092 250.599 153.588 256.798Z" fill="#EBBAAA"/>
<path d="M74.4641 244.135C66.4638 258.317 59.3088 279.057 54.8074 299.9C50.1177 321.615 48.9034 339.909 52.6808 350.297C55.1129 356.985 62.5065 360.436 69.1948 358.004C75.8162 355.596 79.2641 348.325 76.9725 341.69L76.9013 341.49C76.8309 341.296 76.7375 340.939 76.6444 340.439L76.6245 340.33C76.4931 339.593 76.3879 338.693 76.3179 337.647C76.1631 335.335 76.19 332.478 76.4081 329.192C76.851 322.52 78.0565 314.428 79.8941 305.828L79.9988 305.341C83.9957 286.833 90.3378 268.45 96.911 256.798C100.408 250.599 98.2174 242.74 92.0188 239.243C85.8202 235.746 77.9607 237.937 74.4641 244.135Z" fill="#EBBAAA"/>
<rect x="65.9033" y="208.492" width="51.4441" height="125.254" rx="25.722" transform="rotate(10 65.9033 208.492)" fill="#216F74"/>
<rect width="51.4441" height="125.254" rx="25.722" transform="matrix(-0.984808 0.173648 0.173648 0.984808 184.696 208.492)" fill="#216F74"/>
<path d="M184.787 232.38C185.455 222.761 179.455 213.933 170.264 211.016L149.059 204.284C145.092 203.025 140.822 205.013 139.232 208.859L131.247 228.177L126.719 252.556V355.297L135.775 362.611H181.88C184.01 362.611 185.641 360.716 185.324 358.61L178.96 316.29L184.787 232.38Z" fill="#2F7F84"/>
<path d="M69.4685 236.63C68.409 219.784 81.7863 205.539 98.6657 205.539H106.341C109.429 205.539 112.242 207.314 113.571 210.101L122.192 228.177L126.719 252.556V355.296L117.664 362.61H71.5586C69.4289 362.61 67.7979 360.716 68.1146 358.61L74.4785 316.29L69.4685 236.63Z" fill="#2F7F84"/>
<rect x="113.485" y="187.081" width="26.4687" height="40.0514" rx="13.2344" fill="#EBBAAA"/>
<path d="M130.202 225.391L139.606 197.877L152.492 205.191L144.481 234.794L130.202 225.391Z" fill="#216F74"/>
<path d="M123.237 225.391L113.833 197.877L100.947 205.191L108.958 234.794L123.237 225.391Z" fill="#216F74"/>
<path d="M176.348 157.478C187.408 157.478 196.374 148.512 196.374 137.452C196.374 126.392 187.408 117.426 176.348 117.426C165.288 117.426 156.323 126.392 156.323 137.452C156.323 148.512 165.288 157.478 176.348 157.478Z" fill="#EBBAAA"/>
<path d="M77.0904 157.478C66.0305 157.478 57.0647 148.512 57.0647 137.452C57.0647 126.392 66.0305 117.426 77.0904 117.426C88.1501 117.426 97.1161 126.392 97.1161 137.452C97.1161 148.512 88.1501 157.478 77.0904 157.478Z" fill="#EBBAAA"/>
<rect x="74.4783" y="41.8511" width="104.482" height="163.688" rx="52.2409" fill="#F4D5CC"/>
<path d="M125.95 70.9735C100.202 70.9735 81.1681 70.9735 79.8032 89.7385C78.6633 105.411 71.2541 99.316 70.6475 83.8248C72.1064 43.9942 111.009 35.582 127.063 35.582C140.221 46.2886 151.701 70.9735 125.95 70.9735Z" fill="#393939"/>
<path d="M72.5489 88.5929C72.4618 86.4614 74.1648 84.6887 76.2963 84.6887C78.5078 84.6887 80.2387 86.5903 80.0298 88.7914L76.4983 126.081C76.4391 126.704 75.9166 127.178 75.2932 127.178C74.642 127.178 74.1091 126.666 74.0813 126.018L72.5489 88.5929Z" fill="#393939"/>
<path d="M180.346 88.5929C180.433 86.4614 178.73 84.6887 176.599 84.6887C174.387 84.6887 172.657 86.5903 172.866 88.7914L176.397 126.081C176.456 126.704 176.979 127.178 177.602 127.178C178.253 127.178 178.786 126.666 178.814 126.018L180.346 88.5929Z" fill="#393939"/>
<path d="M126.501 70.9735C153.033 70.9735 176.021 70.9735 177.115 90.0867C179.828 105.076 182.741 100.361 183.488 83.8248C181.988 43.9942 142.053 35.582 125.51 35.582C111.952 46.2886 99.966 70.9735 126.501 70.9735Z" fill="#393939"/>
<path d="M88.7115 84.0686C87.798 71.994 86.0218 66.4809 87.7304 61.7026L172.848 59.6082L182.791 91.1386L179.086 115.103C177.232 103.405 172.848 82.08 164.809 76.0082C152.389 66.6279 140.871 75.2887 134.743 82.08C134.743 73.7772 131.184 73.9653 128.047 72.2692C128.504 80.1192 112.284 83.3112 104.59 83.3112C111.802 80.1192 112.973 74.309 109.552 71.4775C99.0308 72.2692 96.5511 73.502 88.7115 84.0686Z" fill="#393939"/>
<path d="M144.32 118.961V128.674C144.32 130.982 146.191 132.853 148.5 132.853C150.808 132.853 152.679 130.982 152.679 128.674V118.961C152.679 116.653 150.808 114.781 148.5 114.781C146.191 114.781 144.32 116.653 144.32 118.961Z" fill="black"/>
<path d="M100.759 118.961V128.674C100.759 130.982 102.63 132.853 104.938 132.853C107.246 132.853 109.118 130.982 109.118 128.674V118.961C109.118 116.653 107.246 114.781 104.938 114.781C102.63 114.781 100.759 116.653 100.759 118.961Z" fill="black"/>
<path d="M144.688 105.366L163.948 107.389C166.243 107.631 168.299 105.965 168.541 103.67C168.782 101.374 167.116 99.3177 164.821 99.0766L145.561 97.0535C143.266 96.8123 141.209 98.4778 140.968 100.773C140.727 103.069 142.393 105.125 144.688 105.366Z" fill="#393939"/>
<path d="M109.269 97.0535L90.0094 99.0766C87.7138 99.3177 86.0484 101.374 86.2896 103.67C86.5307 105.965 88.5871 107.631 90.8826 107.389L110.142 105.366C112.438 105.125 114.103 103.069 113.862 100.773C113.621 98.4778 111.564 96.8123 109.269 97.0535Z" fill="#393939"/>
<path d="M124.439 135.121C122.38 138.755 121.179 142.726 121.334 145.973C121.548 150.452 124.368 153.472 129.104 153.472V147.552L128.936 147.55C127.66 147.517 127.315 147.094 127.248 145.691C127.154 143.705 128.038 140.779 129.59 138.041L124.439 135.121Z" fill="#EBBAAA"/>
<mask id="mask1" mask-type="alpha" maskUnits="userSpaceOnUse" x="74" y="41" width="105" height="165">
<rect x="74.4785" y="41.8511" width="104.482" height="163.688" rx="52.2409" fill="#F4D5CC"/>
</mask>
<g mask="url(#mask1)">
<path d="M94.8993 160.218C83.4178 160.425 79.0231 141.571 74.8131 135.447C73.7137 147.278 71.4554 171.383 71.2155 173.157C70.9757 174.932 78.9104 196.818 82.9075 207.54H153.359L178.542 170.939C179.441 155.534 184.238 128.423 180.641 138.775C177.043 149.126 166.051 160.218 157.856 160.218C157.856 160.218 139.569 155.411 125.179 155.411C110.788 155.411 94.8993 160.218 94.8993 160.218Z" fill="#393939" fill-opacity="0.4"/>
</g>
<path fill-rule="evenodd" clip-rule="evenodd" d="M107.564 163.753V170.649C107.564 181.265 116.17 189.867 126.782 189.867C137.398 189.867 146 181.265 146 170.649V163.753H107.564Z" fill="#393939"/>
<rect x="107.564" y="163.753" width="38.4364" height="7.92202" fill="white"/>
<mask id="mask2" mask-type="alpha" maskUnits="userSpaceOnUse" x="107" y="163" width="39" height="27">
<path fill-rule="evenodd" clip-rule="evenodd" d="M107.596 163.747C107.575 164.102 107.564 164.461 107.564 164.82V171.536C107.564 181.662 116.17 189.867 126.782 189.867C137.398 189.867 146 181.662 146 171.536V164.82C146 164.461 145.989 164.102 145.969 163.747H107.596Z" fill="white"/>
</mask>
<g mask="url(#mask2)">
<path d="M126.782 196.029C133.183 196.029 138.372 193.204 138.372 189.721C138.372 186.236 133.183 183.412 126.782 183.412C120.381 183.412 115.193 186.236 115.193 189.721C115.193 193.204 120.381 196.029 126.782 196.029Z" fill="#FF6C6C"/>
</g>
</g>
</svg>
