<svg xmlns="http://www.w3.org/2000/svg" width="720" height="518" fill="none">
  <g filter="url(#filter0_d)">
    <path fill="#fff" d="M695 503H15c-5.523 0-10-4.477-10-10V185c0-5.523 4.477-10 10-10h150c5.523 0 10-4.477 10-10V15c0-5.523 4.477-10 10-10h510c5.523 0 10 4.477 10 10v478c0 5.523-4.477 10-10 10z"/>
  </g>
  <mask id="a" width="700" height="498" x="5" y="5" maskUnits="userSpaceOnUse">
    <path fill="#fff" d="M695 503H15c-5.523 0-10-4.477-10-10V185c0-5.523 4.477-10 10-10h150c5.523 0 10-4.477 10-10V15c0-5.523 4.477-10 10-10h510c5.523 0 10 4.477 10 10v478c0 5.523-4.477 10-10 10z"/>
  </mask>
  <g mask="url(#a)">
    <path fill="#032336" fill-opacity=".15" fill-rule="evenodd" d="M561.687 363.562s-71.283 125.191-157.504 91.462c0 0 34.259-10.424 45.591-34.426 0 0-50.35 38.6-168.243 36.505 0 0 42.517-18.298 59.767-50.042 0 0-62.642 39.295-133.599 11.749 0 0 81.734-21.789 148.039-83.711 0 0-102.707 85.118-234.085 9.723 0 0 77.294-7.828 130.88-55.314 0 0-124.995 44.829-222.034-73.77 0 0 176.532-2.05 235.282-29.123 26.75-12.327 51.529-20.846 63.862-39.686 20.155-30.793-37.397-117.658-37.399-115.28 108.074-2.125 171.199 199.528 282.114 267.25 69.857 42.652 65.801 121.119 16.886 168.75-.883-31.719 7.75-86.869-29.557-104.087z" clip-rule="evenodd"/>
  </g>
  <path d="M264 78h315.455v200H264z"/>
  <path d="M342 228h315.455v200H342z"/>
  <path fill="#191926" d="M147.909 438.902c-.755-.997-.484-5.106 0-7.04h5.951c1.384 1.934 3.755 6.694 2.761 7.503-.993.809-7.577 1.033-8.712-.463zM182.086 431.762s-.611 1.065-.846 3.193c-.227 2.052-.091 2.486.591 3.242.683.757 16.174.704 16.174.704s.821-1.574-1.67-3.265c-2.491-1.69-8.779-3.758-8.779-3.758l-5.47-.116z"/>
  <path fill="#032336" d="M152.093 310.368s-10.926 9.145-12.523 16.554c-3.305 15.34 6.901 104.94 6.901 104.94h8.662l7.091-81.285s7.944 18.152 11.091 29.342c2.189 7.787 6.166 45.125 8.092 51.943l8.625-.1s1.819-43.106 1.125-53.195c-.819-11.891-17.683-67.353-17.683-67.353l-21.381-.846z"/>
  <path fill="#592200" d="M165.793 232.955s3.316-.066 0-1.269c-3.315-1.204-10.647-2.882-15.078-.418-4.431 2.464-4.855 6.571-4.341 8.469.514 1.897 3.257 7.389 3.798 9.354.541 1.964 1.234 4.967 1.234 4.967l9.747-3.362 5.202-13.585-.562-4.156z"/>
  <path fill="#962431" d="M176.56 317.919c.197 2.895 4.036 12.74 4.243 16.128-4.281 1.481-12.326 2.208-17.363 2.836-9.347 1.163-13.297.567-19.858.682.24-3.636-3.057-13.767-2.989-18.465.087-5.939-6.067-50.829-6.067-50.829s.433-.202 2.774-1.511c2.34-1.308 11.244-5.219 11.244-5.219h14.327l13.094 6.645s.335 45.908.595 49.733z"/>
  <path fill="#962431" d="M146.879 262.167s5.105 20.737 6.656 40.622c1.55 19.884-2.455 32.131-4.355 33.776-1.9 1.642-11.595.986-12.417 0-.822-.988 2.301-18.242 2.301-23.336 0-5.095-3.123-25.162-3.123-25.162l-1.436-20.812 12.374-5.088z"/>
  <path fill="#F9CBBB" d="M163.838 261.963c.347 1.011.076 4.271-6.389 5.025-5.346.623-10.545-4.82-10.545-4.82 1.171-.447 4.148-2.311 4.384-5.49.395-5.357.012-9.01.012-9.01l11.036 5.205s-.002 4.708 1.502 9.09z"/>
  <path fill="#F9CBBC" d="M162.293 258.194c-4.856 1.21-9.701-5.202-10.472-7.674-.77-2.473-3.331-11.942 5.997-14.562 2.313-.65 8.356-.123 8.748 1.703.299 1.398 1.104 7.608 1.213 9.315.11 1.707.548 9.714-5.486 11.218z"/>
  <path fill="#F9CBBB" d="M150.946 244.071s-2.684-1.843-3.32.687c-.635 2.53 3.899 4.022 3.899 4.022l-.579-4.709z"/>
  <path fill="#592200" d="M152.275 244.372s.121-.248 0 .721c-.146 1.156-1.127 1.036-1.127 1.036s-.871-3.883-.848-5.057c.022-1.173 1.262-4.946 4.962-6.615 3.701-1.669 7.341-2.333 9.298-1.964 1.957.369 4.001.996 4.125 1.964.131 1.024-2.034.97-2.034.97s4.669.768 1.147 1.921c-3.523 1.153-7.311-1.023-11.383.632-4.072 1.654-4.163 5.194-4.14 6.392z"/>
  <path fill="#F9CBBC" d="M175.944 267.264c2.246 4.719 2.286-1.97 7.686 18.519.003-.496.009-.987.017-1.471.136-8.359.882-14.843.446-15.94-.551-1.387 6.201.113 6.191 1.375-.032 3.753 4.517 31.084-5.247 31.139-7.27.041-8.217-12.645-8.217-12.645l-.876-20.977z"/>
  <path fill="#962431" d="M163.801 261.962s7.92 17.641 7.92 28.36c0 10.719 1.84 40.409 3.155 42.709 1.314 2.301 5.927 1.023 5.927 1.023s-3.277-24.851-3.123-28.795c.154-3.944-.376-20.668-.716-25.753-.34-5.084-1.032-12.241-1.032-12.241l-12.131-5.303zM134.514 267.255s-8.517 8.255-13.493 18.725c-.532 1.12 9.042 8.596 9.042 8.596l5.887-6.508s1.978-3.098 1.27-9.622c-.707-6.524-2.706-11.191-2.706-11.191z"/>
  <path fill="#F9CBBB" d="M184.079 268.372s-1.52-1.005-1.902-3.357c-.381-2.353-.24-3.823-.937-5.096-1.106-2.019.386-3.067 1.96 0 1.118 2.178.866 2.449.866 2.449s1.218-5.13 5.402-3.67c4.184 1.461 3.889 3.456 3.311 5.28-.596 1.879-2.528 5.589-2.528 5.589l-6.172-1.195z"/>
  <path fill="#032336" d="M183.754 255.881l-.055-.005.055.005-.055-.005.055.005a6.08 6.08 0 00-.015.471c0 .361.023.9.123 1.507.148.912.472 1.971 1.116 2.832.323.431.723.816 1.23 1.124.507.307 1.123.54 1.889.654.321.048.628.07.922.07a5.505 5.505 0 002.762-.734c1.169-.663 2.043-1.685 2.615-2.546a10.037 10.037 0 00.789-1.42l.036-.084.008-.02.002-.004.052.021-.052-.02v-.001l.052.021-.052-.02 1.006.395c-.014.033-.536 1.366-1.688 2.727-.577.68-1.314 1.368-2.234 1.891a6.597 6.597 0 01-3.296.876c-.349 0-.709-.027-1.081-.082-1.194-.176-2.15-.62-2.884-1.216a5.654 5.654 0 01-1.303-1.527c-.49-.83-.759-1.715-.911-2.503a10.556 10.556 0 01-.183-1.941c0-.344.019-.554.02-.567l1.077.096z"/>
  <path fill="#F9CBBC" d="M190.894 265.401c-.61-.087-.331-1.621-.331-1.621s-.496 1.897-1.544 1.842c-1.048-.055-.552-1.842-.552-1.842s-.38 1.787-1.459 1.566c-1.078-.221-.637-2.041-.637-2.041s-.661 1.363-1.544.902c-.882-.461-.938-5.363 1.048-5.863 1.986-.499 5.126-.155 6.354 1.113 1.228 1.269.865 2.057.357 3.624-.507 1.566-.92 2.43-1.692 2.32z"/>
  <path fill="#962431" fill-rule="evenodd" d="M175.959 267.264c1.091.715 5.482 5.15 7.358 11.524.425 1.445.721 2.989.819 4.612-2.366 2.313-4.853 4.488-6.717 5.762l-1.46-21.898z" clip-rule="evenodd"/>
  <path fill="#F9CBBB" fill-rule="evenodd" d="M183.613 285.784l.158-6.236 2.312.417.463 3.4-1.854 2.317-1.079.102z" clip-rule="evenodd"/>
  <path fill="#032336" d="M181.499 253.303c.172 1.457-.574 2.744-1.667 2.873-1.093.13-2.119-.946-2.292-2.403-.173-1.458.573-2.744 1.666-2.874 1.094-.129 2.12.947 2.293 2.404z"/>
  <path fill="#032336" fill-rule="evenodd" d="M211.063 237.372l-31.824 13.527.625 5.277 34.106 5.711-2.907-24.515z" clip-rule="evenodd"/>
  <path fill="#A5A5A5" d="M214.492 249.394c.803 6.77.642 12.354-.36 12.473-1.002.119-2.465-5.273-3.267-12.043-.803-6.769-.641-12.353.36-12.472 1.002-.119 2.465 5.273 3.267 12.042z"/>
  <path fill="#323232" d="M218.563 240.328l5.746-2.318a.747.747 0 01.559 1.386l-5.746 2.318a.747.747 0 11-.559-1.386zM221.325 250.021l9.169-.564a.747.747 0 11.092 1.492l-9.169.564a.747.747 0 01-.092-1.492zM221.556 260.161l5.597 1.987a.747.747 0 11-.5 1.409l-5.597-1.988a.747.747 0 11.5-1.408z"/>
  <path fill="#F9CBBB" fill-rule="evenodd" d="M127.177 279.908c-1.759 2.371-4.845 3.219-7.163 7.289l-12.247-24.567-3.598 3.226 5.655 22.141 8.452 13.903c3.859-1.002 13.086-8.763 15.303-13.903l-6.402-8.089z" clip-rule="evenodd"/>
  <path fill="#F9CBBB" d="M122.035 298.23s-2.032-.333-2.752-8.77c-.722-8.438-11.61-25.546-11.515-26.829.095-1.283.405-2.901-.623-3.7-1.029-.799-4.39-.152-5.214-.507-.494-.213-.983-.555-1.106-1.155-.26-1.262.181-3.116-.314-3.257-.732-.206-1.41 2.268-1.37 3.936.03 1.199 1.024 1.992 1.024 1.992s-.41.283-1.184-.841c-.774-1.123-1.156-5.167-2.012-4.783-1.078.482-.543 4.802-.543 4.802s-.545-3.896-1.3-3.421c-.94.592-.67 4.455.153 5.78.535.862 2.1 1.904 2.1 1.904s-2.033-.196-2.615-.71c-.684-.604-.377-2.561-1.215-2.148-1.048.515-.433 3.083.493 3.928.826.754 10.129 1.404 10.129 1.404s5.918 24.768 8.112 30.413c1.956 5.031 5.735 5.718 5.995 5.632 1.786-1.316 3.037-2.636 3.757-3.67z"/>
  <path fill="#962431" d="M134.481 267.406s-9.074 7.873-14.102 18.453c-.538 1.132 9.293 8.998 9.293 8.998 2.293-1.726 4.331-3.964 6.26-6.42 0 0 1.999-3.13 1.284-9.722-.715-6.593-2.735-11.309-2.735-11.309z"/>
  <rect width="150" height="150" x="5" y="5" fill="#3B93AD" rx="10"/>
  <path fill="#fff" d="M58.1 131l-.776-2.549H53.42L52.644 131h-2.446l3.78-10.752h2.775L60.547 131H58.1zm-1.318-4.453l-1.216-3.919a12.277 12.277 0 01-.19-.717c-.161.625-.623 2.17-1.384 4.636h2.79zm14.004-1.004c0 1.763-.503 3.113-1.509 4.051-1 .937-2.448 1.406-4.343 1.406h-3.032v-10.708h3.362c1.748 0 3.105.461 4.072 1.384.967.923 1.45 2.212 1.45 3.867zm-2.358.059c0-2.3-1.016-3.45-3.047-3.45h-1.209v6.973h.975c2.187 0 3.28-1.174 3.28-3.523zM77.136 131h-2.27v-8.818h-2.908v-1.89h8.086v1.89h-2.908V131zm10.723 0h-6.167v-10.708h6.167v1.86h-3.897v2.351h3.626v1.861h-3.626v2.761h3.897V131zm6.79-8.972c-.855 0-1.517.322-1.985.967-.47.639-.704 1.533-.704 2.68 0 2.388.896 3.582 2.688 3.582.752 0 1.663-.188 2.732-.564v1.904c-.879.366-1.86.549-2.944.549-1.558 0-2.749-.471-3.574-1.413-.825-.947-1.238-2.305-1.238-4.072 0-1.114.203-2.088.608-2.923.405-.84.986-1.482 1.743-1.926.762-.449 1.653-.674 2.673-.674 1.04 0 2.085.252 3.135.755l-.732 1.845c-.4-.19-.803-.356-1.209-.498a3.62 3.62 0 00-1.194-.212zM108.44 131h-2.263v-4.622h-4.241V131h-2.27v-10.708h2.27v4.197h4.241v-4.197h2.263V131z"/>
  <path stroke="#fff" stroke-width="2" d="M68 60h24M68 66h24"/>
  <circle cx="38.5" cy="28.5" r="3.5" fill="#fff"/>
  <circle cx="38.5" cy="96.5" r="3.5" fill="#fff"/>
  <circle cx="54.5" cy="28.5" r="3.5" fill="#fff" transform="rotate(90 54.5 28.5)"/>
  <circle cx="54.5" cy="96.5" r="3.5" fill="#fff" transform="rotate(90 54.5 96.5)"/>
  <circle cx="38.5" cy="45.5" r="3.5" fill="#fff"/>
  <circle cx="105.5" cy="28.5" r="3.5" fill="#fff" transform="rotate(90 105.5 28.5)"/>
  <circle cx="105.5" cy="96.5" r="3.5" fill="#fff" transform="rotate(90 105.5 96.5)"/>
  <circle cx="38.5" cy="62.5" r="3.5" fill="#fff"/>
  <circle cx="88.5" cy="28.5" r="3.5" fill="#fff" transform="rotate(90 88.5 28.5)"/>
  <circle cx="88.5" cy="96.5" r="3.5" fill="#fff" transform="rotate(90 88.5 96.5)"/>
  <circle cx="38.5" cy="79.5" r="3.5" fill="#fff"/>
  <circle cx="71.5" cy="28.5" r="3.5" fill="#fff" transform="rotate(90 71.5 28.5)"/>
  <circle cx="71.5" cy="96.5" r="3.5" fill="#fff" transform="rotate(90 71.5 96.5)"/>
  <circle cx="121.5" cy="28.5" r="3.5" fill="#fff"/>
  <circle cx="121.5" cy="96.5" r="3.5" fill="#fff"/>
  <circle cx="121.5" cy="45.5" r="3.5" fill="#fff"/>
  <circle cx="121.5" cy="62.5" r="3.5" fill="#fff"/>
  <circle cx="121.5" cy="79.5" r="3.5" fill="#fff"/>
  <rect width="34" height="24" x="63" y="51" stroke="#fff" stroke-width="4" rx="3"/>
  <path fill="#CCC" fill-rule="evenodd" d="M73.777 424.726c-.087-.071-.86-.669-2.108-1.338-.04-.023-.087-.047-.134-.071-.032-.023-.071-.039-.103-.055a13.638 13.638 0 00-.766-.369c-.931.44-2.21.653-3.718.243-1.263-.338-2.148-1.384-2.55-1.928-1.413-.173-3.671-.605-3.671-.605h4.99c2.036-.056 2.644.109 4.01.653.465.181 1.073.598 1.697 1.117.04.031.071.063.103.087l.134.11c.79.669 1.57 1.463 2.116 2.156" clip-rule="evenodd"/>
  <mask id="b" width="81" height="75" x="32" y="402" maskUnits="userSpaceOnUse">
    <path fill="#fff" d="M32.008 402h80.618v75H32.008v-75z"/>
  </mask>
  <g mask="url(#b)">
    <path fill="#CCC" fill-rule="evenodd" d="M96.616 447.224c-4.216 6.649-11.171 13.29-16.579 17.934l-2.124-2.141a19.668 19.668 0 01-.963-1.031c-.094-.11-.19-.22-.292-.33l-.032-.039a7.876 7.876 0 00-.244-.284l-.032-.039c-.11-.134-.221-.268-.331-.417l-.032-.047c-.094-.119-.187-.24-.276-.362l-.024-.032c-.095-.134-.197-.267-.284-.393l-.197-.284a8.782 8.782 0 01-.34-.535l-.04-.063c-.039-.063-.078-.125-.126-.212l-.047-.087c-.032-.055-.063-.11-.103-.173l-.04-.071c-.039-.07-.078-.133-.126-.22l-.031-.055a3.512 3.512 0 01-.134-.244l-.103-.197c-.122-.23-.238-.463-.348-.7l-.189-.433-.158-.377a4.325 4.325 0 01-.079-.205l-.015-.047c-.087-.229-.169-.46-.245-.693l-.016-.055c-.024-.079-.055-.165-.087-.275-.031-.095-.055-.189-.087-.284a10.22 10.22 0 01-.15-.582l-.023-.094-.016-.063-.016-.071-.016-.079c-.081-.381-.15-.764-.205-1.149l-.008-.039c-.008-.023-.008-.055-.016-.094l-.007-.063c-.008-.095-.024-.189-.032-.291l-.008-.071c-.008-.087-.016-.166-.023-.26l-.008-.04c-.008-.062-.008-.125-.016-.212l-.008-.047c0-.04 0-.079-.008-.126l-.008-.268c-.008-.157-.008-.322-.008-.487 0-.26.008-.512.016-.803.008-.259.024-.511.04-.795.007-.126.015-.26.031-.386.008-.125.024-.259.04-.393.26-2.636.907-5.115 1.886-7.184l.024-.048c.032-.071.063-.133.11-.22l.048-.102.102-.205.048-.094c.024-.055.055-.11.087-.158l.047-.086c.04-.071.071-.134.11-.197l.072-.11.615-.937.048-.07c.04-.055.079-.111.126-.174l.095-.125.253-.307c.07-.087.142-.165.228-.26.427-.464.869-.881 1.358-1.18 1.54-.929 3.498-1.629 5.219-1.598 1.72.032 3.663.378 5.202 1.629 1.769 1.472 2.89 2.715 3.474 3.62l.49.85.686-7.129s.016-.15.04-.41c.055-.708.134-2.093.063-3.47-.025-.435-.07-.868-.134-1.298l-.008-.071c-.04-.22-.08-.425-.127-.622l-.008-.039a7.489 7.489 0 00-.268-.89 8.955 8.955 0 00-.79-1.612 16 16 0 00-.394-.606 7.254 7.254 0 00-.316-.425c-.079-.095-.15-.189-.229-.284a6.324 6.324 0 00-.285-.33 12.194 12.194 0 00-1.507-1.401 11.16 11.16 0 00-.64-.464c-.07-.055-.15-.102-.229-.15l-.165-.11c-.087-.055-.182-.11-.284-.173a12.245 12.245 0 00-.569-.315c-.11-.063-.229-.118-.308-.157l-.047-.024c-.103-.054-.213-.102-.3-.141a9.54 9.54 0 00-.813-.331l-.08-.031-.3-.103c-.118-.039-.236-.079-.362-.118a22.373 22.373 0 01-.372-.11 4.1 4.1 0 00-.394-.094 5.152 5.152 0 00-.426-.087l-.135-.023c-.102-.016-.205-.032-.292-.048-.26-.04-.52-.071-.781-.094l-.095-.008a5.742 5.742 0 00-.371-.015l-1.097-.032h-.15c-.119-.008-.237-.008-.34-.008-.265-.392-.528-.786-.79-1.18l-.812-1.11-.048-.055a14.05 14.05 0 00-.758-.795 10.218 10.218 0 00-1.13-.96 6.57 6.57 0 01-.165-.126c-.138-.1-.28-.194-.426-.283l-.087-.079-.394-.212c-.103-.055-.197-.102-.316-.165l-.04-.016a7.385 7.385 0 00-1.642-.598c-.173-.039-.347-.079-.505-.11a3.32 3.32 0 00-.221-.04l-.103-.016s-.252-.039-.316-.054l-.268-.04a46.51 46.51 0 00-1.192-.141 62.577 62.577 0 00-1.618-.126s-.41-.024-.482-.024a60.819 60.819 0 00-1.784-.055c-.316-.008-.64-.008-.963-.008-1.177 0-2.392.04-3.434.079l-1.153.047a42.82 42.82 0 01-1.066.039c-.979.04-2.123.079-3.229.079-.379 0-.766-.008-1.16-.016l-.743-.023c-1.325-.055-2.486-.189-3.528-.402l-.095-.015-.079-.024-.15-.032c-.047-.007-.095-.023-.158-.039l-.094-.023c-.174-.04-.34-.087-.514-.134l-.095-.031-.11-.025-.213-.07-.166-.055-.292-.102c-.063-.024-.134-.048-.221-.087-.174-.063-.347-.142-.545-.228l-.102-.047c-.048-.024-.095-.04-.15-.071l-.064-.032-.142-.07-.087-.048-.11-.055c-.032-.016-.055-.031-.087-.047l-.126-.071c-.063-.031-.127-.071-.206-.118l-.047-.031c-.07-.04-.134-.087-.205-.126l-.04-.024c-.07-.047-.134-.086-.22-.15l-.04-.031c-.071-.047-.142-.094-.205-.149l-.506-.378c7.43-2.597 17.558-4.73 25.477-4.855 14.289.228 35.778 6.987 35.581 11.221-.182 4.273-1.406 13.802-11.258 29.32zm-57.49-17.761c-1.878-5.438-2.28-9.246-2.391-11.52-.063-1.267 1.808-2.754 4.84-4.218v1.519c0 .071.007.149.007.197l.008.157c0 .118.008.236.016.307.11 1.511.529 4.438 2.068 7.003-1.35 1.306-3.102 3.376-4.382 6.178l-.165.377zm71.471-16.305c-5.431-5.767-25.546-10.952-38.194-11.157h-.158c-12.663.204-32.77 5.39-38.202 11.158-1.785 1.897-2.085 3.769-2.029 5.005.434 9.097 4.468 19.727 12 31.586 6.11 9.624 17.1 18.902 23.107 23.575a22.804 22.804 0 002.337 1.598l.134.079 2.724 1.999 2.708-1.984.11-.07c.458-.276 1.24-.74 2.226-1.511 4.863-3.777 16.88-13.645 23.25-23.686 7.531-11.858 11.573-22.49 12.008-31.586.063-1.244-.237-3.116-2.021-5.005v-.001z" clip-rule="evenodd"/>
  </g>
  <path fill="#fff" fill-rule="evenodd" d="M89.282 430.691a18.487 18.487 0 00-.095-.992c-.032-.165-.063-.315-.087-.456a4.865 4.865 0 00-.134-.441 6.04 6.04 0 00-.498-1.015 5.196 5.196 0 00-.284-.433c-.055-.079-.11-.149-.166-.228-.063-.071-.118-.15-.181-.221-.063-.071-.118-.141-.19-.212a8.203 8.203 0 00-1.05-.983c-.157-.119-.307-.237-.473-.339-.079-.055-.166-.11-.245-.165a6.513 6.513 0 00-.623-.362c-.072-.04-.143-.071-.214-.11-.087-.04-.173-.087-.268-.126a16.08 16.08 0 00-.593-.244c-.07-.024-.15-.055-.228-.079-.095-.031-.182-.063-.276-.086-.095-.032-.19-.055-.277-.079a4.407 4.407 0 00-.276-.063c-.095-.024-.182-.039-.276-.063a25.306 25.306 0 01-.277-.047 5.938 5.938 0 00-.544-.063c-.103-.008-.198-.016-.293-.016l-.829-.024c-.07 0-.142 0-.205-.008h-.158c-.134-.007-.26-.007-.37-.007-.42-.008-.743 0-.995 0-.68.015-4.295.204-4.295.204l2.755-1.259-.948-1.416-.228-.346c-.095-.134-.182-.268-.269-.394-.007-.008-.007-.015-.015-.023 0-.008-.008-.008-.016-.024-.016-.024-.032-.039-.055-.071l-.008-.008c-.024-.031-.048-.063-.08-.094a8.94 8.94 0 00-.662-.717 6.295 6.295 0 00-.411-.369c-.118-.095-.245-.197-.371-.283a4.958 4.958 0 00-.6-.394c-.008-.008-.016-.008-.016-.016-.087-.047-.166-.086-.252-.133a3.674 3.674 0 00-.837-.307 5.736 5.736 0 00-.427-.087l-.118-.024c-.032-.007-.064-.015-.095-.015a2.704 2.704 0 00-.237-.04 2.533 2.533 0 01-.245-.039 24.909 24.909 0 00-1.018-.126 48 48 0 00-1.468-.11l-.45-.024a53.906 53.906 0 00-1.698-.055c-1.35-.031-2.747.016-4.168.071-.355.016-.71.024-1.066.04-.387.015-.773.031-1.168.039-1.54.063-3.08.102-4.603.063-.268-.008-.544-.016-.813-.032a25.773 25.773 0 01-4.129-.48 2.07 2.07 0 01-.245-.055 7.254 7.254 0 01-.386-.086 9.02 9.02 0 01-.758-.205 5.46 5.46 0 01-.332-.102l-.079-.024a4.422 4.422 0 01-.3-.102c-.07-.024-.15-.047-.22-.079-.127-.047-.261-.094-.38-.142-.252-.094-.497-.204-.75-.314a5.196 5.196 0 01-.37-.173 3.113 3.113 0 01-.364-.189 6.599 6.599 0 01-.332-.181c-.134-.071-.26-.15-.386-.228-.119-.071-.237-.142-.348-.221-.118-.079-.237-.149-.347-.236a5.257 5.257 0 01-.348-.252v.339c0 .023 0 .047.008.071 0 .07.008.141.008.228 0 .047.008.094.008.142.087 1.188.403 3.54 1.587 5.5l.174.283a6.805 6.805 0 001.342 1.48c.008.008.016.015.024.015l.047.024a.318.318 0 00.071.039c.008 0 .016.008.024.016.51.285 1.037.537 1.578.755.064.024.119.048.182.071.048.016.103.04.15.055a7.264 7.264 0 001.618.394c.016 0 .024.008.032.008h.008s-.987.024-1.216.024c-1.042.007-2.432.07-3.6.298a3.313 3.313 0 01-.173.142c-1.169 1.015-2.432 2.573-4.216 5.335-.095.149-.19.291-.285.449-.142.22-.291.456-.441.692 0 0 1.342-1.464 1.46-1.589 1.705-1.881 3.805-3.14 4.91-3.55 0 0-1.697 1.574-3.41 5.28-.31.671-.587 1.357-.829 2.055 4.642-5.564 10.082-7.578 10.5-7.72l-.008.008c-.024.016-.04.039-.063.063-5.676 5.24-7.729 11.103-8.416 15.313 1.453-2.66 3.774-4.808 4.99-5.469 0 0-1.445 1.787-2.598 5.697a21.048 21.048 0 00-.686 3.155c-.008.04.718.985.718.985 2.984-6.343 7.468-10.034 9.395-11.403 0 0 .007 0 .007-.008.845-.684 1.374-1.007 1.374-1.007-4.382 4.698-6.19 9.632-6.86 13.582 1.476-3.258 3.347-5.445 4.302-6.437.53-.622.885-.944.924-.983-3.908 6.161-3.616 11.921-2.976 15.116l.994 1.094c.048-.174.182-.598.23-.763 2.052-6.965 6.142-11.245 7.286-12.339l1.184-1.228c-.268.378-3.134 4.588-3.466 12.41-.086 2.085-.236 4.477.38 6.94l.955.976c-.269-3.738.687-7.491 1.5-8.994 0 0-.293 2.824 1.144 7.68.727 2.447 1.595 4.218 2.29 5.39.49.826 2.802 3.478 4.097 4.942.174.197.324.37.458.512.04.023.26.275.331.33.072-.055.261-.181.404-.267.26-.158.639-.379 1.105-.701.11-.078.228-.157.339-.244.118-.086.245-.181.379-.283.094-.079.197-.15.3-.236.008-.008.024-.016.032-.024-4.603-3.966-7.374-10.741-7.461-10.953 1.966 2.919 5.992 5.696 7.879 6.901a24.586 24.586 0 01-.948-1.024c-.126-.141-.252-.283-.37-.425-.11-.133-.23-.267-.332-.393-.134-.173-.276-.338-.41-.519a10.055 10.055 0 01-.364-.48c-.118-.165-.245-.331-.363-.504l-.221-.322c-.142-.213-.284-.425-.418-.646-.072-.11-.135-.22-.197-.322-.072-.111-.135-.221-.198-.323a6.197 6.197 0 01-.181-.315c-.064-.118-.127-.228-.19-.338a2.934 2.934 0 01-.11-.22c-.15-.284-.293-.583-.435-.874-.031-.079-.071-.157-.103-.236-.047-.11-.102-.22-.15-.338l-.142-.331c-.047-.11-.086-.22-.134-.338-.12-.3-.227-.605-.323-.913a8.47 8.47 0 01-.11-.346 6.122 6.122 0 01-.104-.354 10.876 10.876 0 01-.19-.716c-.015-.071-.039-.15-.054-.221-.016-.055-.024-.118-.04-.181a15.7 15.7 0 01-.245-1.384 2.78 2.78 0 01-.031-.252c-.016-.15-.04-.3-.048-.457-.008-.118-.023-.228-.031-.346l-.024-.299c-.008-.103-.008-.197-.016-.299 0-.094-.008-.189-.008-.276-.007-.197-.007-.393-.007-.598 0-.298.007-.606.015-.905.008-.299.024-.605.048-.913.007-.149.023-.298.031-.448.016-.149.032-.299.04-.456a27.592 27.592 0 011.042-5.281c-1.721 1.433-3.268 2.912-4.097 4.147.086-.204 2.534-6.185 6.639-10.198.331-.322 2.258-1.991 2.581-2.25 1.303-1.039 2.819-1.755 4.54-2.022a7.372 7.372 0 01.624-.071c.079-.008.157-.016.245-.016 1.72-.11 3.023-.142 4.057-.103.095 0 .182.008.269.016.852.04 1.515.134 2.084.307l.158.047c.734.244 1.263.59 1.823 1.055.119.102.245.204.372.314 0 0 .015-.133.031-.346.024-.574.095-1.81.032-2.958z" clip-rule="evenodd"/>
  <path fill="#CCC" fill-rule="evenodd" d="M73.777 424.726c-.087-.071-.86-.669-2.108-1.338-.04-.023-.087-.047-.134-.071-.032-.023-.071-.039-.103-.055a13.638 13.638 0 00-.766-.369c-.931.44-2.21.653-3.718.243-1.263-.338-2.148-1.384-2.55-1.928-1.413-.173-3.671-.605-3.671-.605h4.99c2.036-.056 2.644.109 4.01.653.465.181 1.073.598 1.697 1.117.04.031.071.063.103.087l.134.11c.79.669 1.57 1.463 2.116 2.156" clip-rule="evenodd"/>
  <path fill="#CCC" d="M146.951 449.71a9.255 9.255 0 00-1.419-.579 4.98 4.98 0 00-1.508-.245c-.678 0-1.221.158-1.63.473-.397.316-.596.736-.596 1.262 0 .398.129.736.386 1.017.257.269.596.502 1.016.701.421.199.859.386 1.315.561.397.152.789.321 1.174.508.386.187.731.421 1.034.701.316.281.561.625.737 1.034.187.409.28.918.28 1.525 0 .666-.169 1.274-.508 1.823-.327.549-.801.982-1.42 1.297-.619.316-1.356.473-2.209.473-.56 0-1.098-.064-1.612-.192a8.228 8.228 0 01-1.402-.491c-.433-.21-.818-.427-1.157-.649l.754-1.332c.28.199.601.392.964.579.362.175.742.321 1.139.438a4.52 4.52 0 001.157.158c.397 0 .788-.07 1.174-.211.397-.152.725-.379.982-.683.257-.304.385-.707.385-1.21 0-.432-.117-.788-.35-1.069a2.682 2.682 0 00-.894-.736 9.396 9.396 0 00-1.192-.561 32.063 32.063 0 01-1.21-.491 6.522 6.522 0 01-1.139-.666 3.085 3.085 0 01-.841-.981c-.21-.386-.316-.853-.316-1.402 0-.667.158-1.245.474-1.736a3.33 3.33 0 011.332-1.174c.561-.292 1.203-.45 1.928-.473.818 0 1.536.099 2.156.298a7.507 7.507 0 011.665.736l-.649 1.297zM159.905 459.175a7.51 7.51 0 01-.859.473 6.31 6.31 0 01-1.28.438 6.644 6.644 0 01-1.577.176c-.982-.012-1.87-.187-2.664-.526a5.948 5.948 0 01-1.998-1.385 6.35 6.35 0 01-1.28-2.016 6.87 6.87 0 01-.438-2.454c0-.946.152-1.817.456-2.611a6.265 6.265 0 011.314-2.086 5.9 5.9 0 011.981-1.385 6.396 6.396 0 012.524-.49c.759 0 1.449.105 2.068.315a6.964 6.964 0 011.595.719l-.684 1.577a7.636 7.636 0 00-1.279-.666 4.15 4.15 0 00-1.648-.315c-.619 0-1.203.122-1.752.368-.55.245-1.035.59-1.455 1.034a5.012 5.012 0 00-.999 1.56 5.042 5.042 0 00-.351 1.893c0 .689.105 1.332.316 1.928.222.584.531 1.092.929 1.525.409.432.899.771 1.472 1.016.572.246 1.215.368 1.928.368.643 0 1.215-.099 1.718-.298.502-.198.917-.42 1.244-.666l.719 1.508zM161.962 453.794c0-.877.163-1.7.491-2.472a6.604 6.604 0 011.402-2.068 6.532 6.532 0 012.051-1.42 6.11 6.11 0 012.524-.525c.888 0 1.717.175 2.488.525a6.485 6.485 0 012.069 1.42 6.473 6.473 0 011.419 2.068c.339.772.509 1.595.509 2.472 0 .9-.17 1.741-.509 2.524a6.462 6.462 0 01-1.419 2.068 6.775 6.775 0 01-2.069 1.385c-.771.327-1.6.491-2.488.491-.9 0-1.742-.164-2.524-.491a6.56 6.56 0 01-2.051-1.367 6.396 6.396 0 01-1.402-2.051 6.556 6.556 0 01-.491-2.559zm1.753.017c0 .666.122 1.292.368 1.876a4.982 4.982 0 001.016 1.525c.433.444.935.794 1.508 1.051a4.654 4.654 0 001.858.368c.654 0 1.267-.122 1.84-.368a4.654 4.654 0 001.49-1.051c.42-.444.754-.953.999-1.525a4.844 4.844 0 00.368-1.893c0-.666-.123-1.291-.368-1.876a4.851 4.851 0 00-1.017-1.56 4.637 4.637 0 00-1.507-1.034 4.443 4.443 0 00-1.84-.385 4.48 4.48 0 00-1.858.385 4.87 4.87 0 00-1.508 1.052 4.645 4.645 0 00-.999 1.56 4.993 4.993 0 00-.35 1.875zM181.144 447.449c.643 0 1.233.087 1.771.263a3.834 3.834 0 011.419.753c.409.328.725.736.947 1.227.234.479.35 1.04.35 1.683 0 .502-.076.993-.227 1.472-.141.479-.38.918-.719 1.315-.339.385-.783.701-1.332.946-.538.234-1.204.351-1.998.351h-1.876v4.662h-1.7v-12.672h3.365zm.176 6.38c.502 0 .917-.076 1.244-.228.339-.152.602-.345.789-.578a2.42 2.42 0 00.403-.789c.082-.281.123-.544.123-.789 0-.257-.047-.52-.141-.789a2.083 2.083 0 00-.42-.771 2.12 2.12 0 00-.754-.578c-.304-.152-.678-.228-1.122-.228h-1.963v4.75h1.841zm2.085.964l3.313 5.328h-1.963l-3.365-5.276 2.015-.052zM189.316 447.449h8.238v1.63h-6.538v3.856h5.837v1.63h-5.837v3.926h6.783v1.63h-8.483v-12.672zM113.293 460.49l5.819-13.409h.14l5.82 13.409h-2.945l-3.716-9.43 1.84-1.262-4.452 10.692h-2.506zm3.979-4.663h3.873l.894 2.139h-5.556l.789-2.139z"/>
  <path fill="#CCC" d="M118.824 446.642l-6.199 14.285h3.467l1.051-2.524h3.691l.994 2.524h3.911l-4.923-11.345-.236-.542-1.04-2.398h-.716zm.358 1.377l.662 1.526-1.885 1.294 1.223-2.82zm1.166 2.687l4.055 9.345h-1.978l-.65-1.648h.922l-1.26-3.014h-.849l-1.065-2.703.825-1.98zm-2.445.261l.675 1.711-1.13 2.711h-.482l-.105.287-1.007 2.727h.339l-.686 1.648h-1.546l3.942-9.084zm1.375.03l-.217.519-.114-.292.331-.227zm-.239 2.852l.607 1.54h-1.248l.641-1.54zm-1.006 2.416h1.958l.497 1.262h-2.981l.526-1.262zM126.935 460.49v-12.901h3.856c1.297 0 2.401.193 3.313.579.911.385 1.642.9 2.191 1.542.561.643.97 1.362 1.227 2.156.257.795.385 1.595.385 2.401 0 .959-.175 1.823-.526 2.594a5.908 5.908 0 01-1.402 1.964 6.394 6.394 0 01-2.068 1.244 7.338 7.338 0 01-2.489.421h-4.487zm2.541-2.454h1.508a5.87 5.87 0 001.753-.246 3.892 3.892 0 001.349-.753 3.11 3.11 0 00.877-1.227c.21-.503.315-1.075.315-1.718 0-.841-.14-1.525-.421-2.051-.268-.537-.607-.952-1.016-1.244a3.5 3.5 0 00-1.227-.596c-.421-.117-.777-.175-1.069-.175h-2.069v8.01z"/>
  <path fill="#CCC" d="M126.497 447.151v13.777h4.925c.923 0 1.805-.148 2.637-.446l.003-.001.002-.001a6.836 6.836 0 002.209-1.33l.001-.002.002-.002a6.355 6.355 0 001.505-2.103v-.003c.379-.833.564-1.762.564-2.773 0-.853-.136-1.7-.406-2.536a6.568 6.568 0 00-1.311-2.305c-.599-.701-1.39-1.255-2.353-1.662-.98-.415-2.144-.613-3.484-.613h-4.294zm.876.876h3.418c1.253 0 2.3.188 3.142.545.86.364 1.529.838 2.029 1.423l.001.002.001.002c.524.6.902 1.264 1.141 2.002.244.754.364 1.507.364 2.266 0 .905-.164 1.704-.486 2.413l-.001.002-.001.001a5.46 5.46 0 01-1.297 1.818l-.001.001a5.94 5.94 0 01-1.923 1.156 6.88 6.88 0 01-2.338.393h-4.049v-12.024zm1.665 1.561v8.886h1.946c.68 0 1.309-.087 1.883-.265l.004-.001.005-.002a4.336 4.336 0 001.496-.838c.438-.372.773-.843.996-1.392.235-.563.348-1.195.348-1.884 0-.888-.145-1.641-.47-2.252-.293-.584-.674-1.058-1.146-1.397h-.001a3.927 3.927 0 00-1.376-.665c-.442-.123-.83-.19-1.178-.19h-2.507zm.876.876h1.631c.233 0 .556.049.951.159l.006.002.006.001c.359.09.716.26 1.074.524l.001.002.003.002c.342.245.637.597.88 1.084l.002.005.003.005c.235.44.369 1.051.369 1.844 0 .595-.097 1.108-.282 1.549l-.001.002v.003c-.175.43-.423.775-.754 1.057l-.003.002-.003.003a3.444 3.444 0 01-1.195.666 5.473 5.473 0 01-1.618.224h-1.07v-7.134z"/>
  <path fill="#962431" fill-opacity=".75" d="M42.905 304.83a3.015 3.015 0 115.647 2.115 3.015 3.015 0 01-5.647-2.115zm6.463 2.421a3.886 3.886 0 10-5.522 2.037l-.383 1.023a.904.904 0 00-.56.541l-1.845 4.926a.904.904 0 101.694.634l1.845-4.926a.9.9 0 00-.067-.775l.383-1.023c1.854.4 3.77-.608 4.455-2.437z"/>
  <path fill="#032336" fill-opacity=".5" d="M45 295.422c-7.487 0-13.578 6.091-13.578 13.578 0 7.487 6.091 13.578 13.578 13.578 7.487 0 13.578-6.091 13.578-13.578 0-7.487-6.091-13.578-13.578-13.578zM45 324a14.945 14.945 0 01-10.607-4.393A14.963 14.963 0 0130 309a14.963 14.963 0 014.393-10.607A14.961 14.961 0 0145 294a14.966 14.966 0 0110.607 4.393A14.964 14.964 0 0160 309a14.964 14.964 0 01-4.393 10.607A14.95 14.95 0 0145 324zM45 248.422c-7.487 0-13.578 6.091-13.578 13.578 0 7.487 6.091 13.578 13.578 13.578 7.487 0 13.578-6.091 13.578-13.578 0-7.487-6.091-13.578-13.578-13.578zM45 277a14.949 14.949 0 01-10.607-4.394A14.947 14.947 0 0130 262a14.947 14.947 0 014.393-10.606A14.949 14.949 0 0145 247a14.945 14.945 0 0110.607 4.394A14.942 14.942 0 0160 262c0 2.025-.397 3.989-1.18 5.839a14.942 14.942 0 01-3.214 4.767A14.945 14.945 0 0145 277z"/>
  <path fill="#962431" fill-opacity=".75" d="M48.641 257H40.36a4.36 4.36 0 00-2.409 7.992l-.215 2.955 1.687-2.331c.302.066.615.102.937.102h8.282a4.36 4.36 0 000-8.718z"/>
  <path fill="#fff" d="M42.262 261.631a.63.63 0 11-1.261 0 .63.63 0 011.26 0zM45.812 261.631a.63.63 0 11-1.261 0 .63.63 0 011.261 0zM49.362 261.631a.63.63 0 11-1.261 0 .63.63 0 011.261 0z"/>
  <path fill="#032336" fill-opacity=".5" d="M72 342.422c-7.487 0-13.578 6.091-13.578 13.578 0 7.487 6.091 13.578 13.578 13.578 7.487 0 13.578-6.091 13.578-13.578 0-7.487-6.091-13.578-13.578-13.578zM72 371a14.948 14.948 0 01-10.607-4.394A14.947 14.947 0 0157 356a14.963 14.963 0 014.393-10.607A14.945 14.945 0 0172 341a14.945 14.945 0 0110.606 4.393A14.96 14.96 0 0187 356a14.944 14.944 0 01-4.394 10.606A14.948 14.948 0 0172 371z"/>
  <path fill="#962431" fill-opacity=".75" d="M79.918 358.633A3.368 3.368 0 0176.551 362h-9.183A3.368 3.368 0 0164 358.633v-5.266A3.367 3.367 0 0167.368 350h9.183a3.367 3.367 0 013.367 3.367v5.266z"/>
  <path fill="#fff" d="M70 353l4.517 2.608L70 358.216V353z"/>
  <path fill="#032336" fill-opacity=".5" d="M72 201.422c-7.487 0-13.578 6.091-13.578 13.578 0 7.487 6.091 13.578 13.578 13.578 7.487 0 13.578-6.091 13.578-13.578 0-7.487-6.091-13.578-13.578-13.578zM72 230a14.961 14.961 0 01-10.607-4.393A14.963 14.963 0 0157 215a14.963 14.963 0 014.393-10.607A14.961 14.961 0 0172 200a14.966 14.966 0 0110.607 4.393A14.964 14.964 0 0187 215a14.964 14.964 0 01-4.393 10.607A14.966 14.966 0 0172 230z"/>
  <path fill="#962431" fill-opacity=".75" d="M79.076 221.419H64.922v1.557h14.154v-1.557zM67.39 212.573h-2.468v8.21h2.467v-8.21zM71.3 207.024h-2.467v13.758H71.3v-13.758zM75.18 214.66h-2.468v6.122h2.468v-6.122zM79.091 213.705h-2.467v7.078h2.467v-7.078z"/>
  <defs>
    <filter id="filter0_d" width="720" height="518" x="0" y="0" color-interpolation-filters="sRGB" filterUnits="userSpaceOnUse">
      <feFlood flood-opacity="0" result="BackgroundImageFix"/>
      <feColorMatrix in="SourceAlpha" values="0 0 0 0 0 0 0 0 0 0 0 0 0 0 0 0 0 0 127 0"/>
      <feOffset dx="5" dy="5"/>
      <feGaussianBlur stdDeviation="5"/>
      <feColorMatrix values="0 0 0 0 0 0 0 0 0 0 0 0 0 0 0 0 0 0 0.15 0"/>
      <feBlend in2="BackgroundImageFix" result="effect1_dropShadow"/>
      <feBlend in="SourceGraphic" in2="effect1_dropShadow" result="shape"/>
    </filter>
  </defs>
</svg>
