<svg xmlns="http://www.w3.org/2000/svg" width="720" height="518" fill="none">
  <rect width="150" height="150" x="5" y="5" fill="#3B93AD" rx="10"/>
  <g filter="url(#filter0_d)">
    <path fill="#fff" d="M695 503H15c-5.523 0-10-4.477-10-10V185c0-5.523 4.477-10 10-10h150c5.523 0 10-4.477 10-10V15c0-5.523 4.477-10 10-10h510c5.523 0 10 4.477 10 10v478c0 5.523-4.477 10-10 10z"/>
  </g>
  <mask id="a" width="700" height="498" x="5" y="5" maskUnits="userSpaceOnUse">
    <path fill="#fff" d="M695 503H15c-5.523 0-10-4.477-10-10V185c0-5.523 4.477-10 10-10h150c5.523 0 10-4.477 10-10V15c0-5.523 4.477-10 10-10h510c5.523 0 10 4.477 10 10v478c0 5.523-4.477 10-10 10z"/>
  </mask>
  <g mask="url(#a)">
    <path fill="#D2F7F2" d="M84.297 167.422S225.446 41.419 290.032 88.556c64.586 47.138 11.586 97.676 39.653 98.644 28.067.969 84.494-50.466 109.292 4.854 24.799 55.319-76.804 122.003-58.673 124.846 18.131 2.843 48.626-7.16 48.626 13.626s-86.49 103.197-144.92 97.515c-58.43-5.682 25.93-61.987-8.261-56.855-34.19 5.133-92.598 84.277-138.917 36.148C90.514 359.206 177.65 270.427 139 282.937 75.382 303.527.436 248.774 84.297 167.422z"/>
    <path fill="#D41FEB" d="M264.05 155.192l-14.726-8.678v17.356l14.726-8.678zm3.69 0a3.66 3.66 0 01-1.816 3.179l-14.725 8.678c-2.461 1.448-5.564-.325-5.564-3.179v-17.356c0-2.854 3.103-4.629 5.564-3.179l14.725 8.678a3.66 3.66 0 011.816 3.179z"/>
    <path fill="#DD83BE" d="M278.214 242.238l-13.917 9.923 15.856 7.058-1.939-16.981zm1.502-3.371a3.653 3.653 0 012.164 2.952l1.939 16.982c.323 2.837-2.559 4.951-5.168 3.789l-15.854-7.059c-2.609-1.162-2.967-4.717-.642-6.375l13.917-9.924a3.659 3.659 0 013.644-.365z"/>
    <path fill="#7CE3D4" d="M165.856 208.802l-11.983 12.189 16.84 4.199-4.857-16.388zm.892-3.579a3.649 3.649 0 012.644 2.532l4.858 16.387c.811 2.738-1.659 5.319-4.43 4.629l-16.84-4.199c-2.771-.69-3.739-4.13-1.739-6.167l11.984-12.189a3.655 3.655 0 013.523-.993z"/>
    <path fill="#D41FEB" d="M283.218 337.523l-6.544-15.797-10.447 13.866 16.989 1.931h.002zm2.948 2.221a3.658 3.658 0 01-3.367 1.447l-16.989-1.932c-2.838-.321-4.251-3.606-2.531-5.889l10.447-13.865c1.719-2.282 5.267-1.83 6.359.808l6.542 15.799a3.654 3.654 0 01-.461 3.632z"/>
    <path fill="#7CE3D4" d="M366.246 248.253l.746 17.085 14.561-9.458-15.307-7.627zm-2.01-3.096a3.658 3.658 0 013.656-.208l15.307 7.626c2.557 1.273 2.76 4.843.365 6.4l-14.561 9.459c-2.397 1.555-5.575-.081-5.699-2.935l-.745-17.086a3.658 3.658 0 011.677-3.256z"/>
    <path fill="#D2F7F2" fill-opacity=".26" d="M225.1 393.764c-16.788-35.222-33.929-71.844-34.121-110.7-.132-27.009 9.778-56.002 33.023-70.606 9.962-6.259 23.614-9.239 33.419-2.749 7.411 4.902 11.254 14.283 19.46 17.785 10.056 4.296 21.463-2.264 29.322-9.752 11.56-11.016 20.313-24.537 31.338-36.056 13.794-14.423 31.484-25.737 51.224-29.94 19.74-4.202 41.548-.751 57.574 11.268 16.026 12.02 25.223 32.988 20.865 52.265-2.299 10.169-7.748 21.843-1.129 30.01 7.103 8.772 21.092 5.118 32.515 5.865 22.912 1.496 39.368 24.879 39.877 47.311.509 22.431-10.986 43.411-24.009 61.891-13.023 18.479-27.167 33.899-49.505 39.184"/>
    <path fill="#DD83BE" d="M188.362 325.654a44.524 44.524 0 0126.417 15.865l-3.904 8.71s-21.954-5.046-21.954-9.239c.006-1.618-.559-15.336-.559-15.336z"/>
    <path fill="#DCAB9E" d="M192.69 313.482c.369-.649.997-3.01 4.808-1.597 3.811 1.413 4.072-4.308 4.848-3.751a3.732 3.732 0 01-.666 4.764c-1.64 1.267-7.6 1.45-6.999 4.595.601 3.146 29.781 23.273 27.32 28.837-2.461 5.564-8.278 6.486-13.214 2.668-4.937-3.819-21.039-26.819-16.097-35.516zM176.582 302.677s-.185-5.269-2.633-4.769-4.225 5.678-2.907 7.586c1.317 1.907 5.586 1.588 5.54-2.817z"/>
    <path fill="#383A45" d="M245.093 445.525l1.052 8.728c1.426 0 16.653-.952 16.812-1.904.159-.952-11.737-2.457-11.737-2.457a30.098 30.098 0 00-.159-4.203c-.197-.463-5.968-.164-5.968-.164zM222.084 460.341l-2.305 8.487c1.323.536 15.79 5.374 16.296 4.553.505-.821-9.962-6.688-9.962-6.688a29.964 29.964 0 001.433-3.955c-.002-.506-5.462-2.397-5.462-2.397z"/>
    <path fill="#DD83BE" d="M178.403 324.76s-11.237-.701-16.855 3.505c-5.617 4.206-3.863 85.339-3.863 85.339l36.168-8.428s2.46-74.804-2.106-77.965c-4.566-3.16-13.344-2.451-13.344-2.451z"/>
    <path fill="#7CE3D4" d="M157.696 402.644s59.345-48.106 79.36-27.038 14.749 73.039 14.749 73.039h-8.427s-3.16-58.993-16.856-62.153c-13.696-3.16-27.994 13.811-27.994 13.811s20.971-4.33 32.56 6.556c8.091 7.601-2.459 58.642-2.459 58.642h-8.428s6.692-52.303-5.082-51.961c-11.774.341-57.423 0-57.423 0v-10.896z"/>
    <path fill="#DCAB9E" d="M148.843 357.265s-2.522 28.84 4.157 29.084c6.678.243 29.582-12.248 31.832-12.669 3.723-.693 7.544 2.076 7.933 1.747.389-.328-.468-5.18-8.468-6.368-6.586-.978-23.89 6.051-25.204 3.234-1.313-2.817 4.123-44.114 4.123-44.114s-14.84 4.894-14.373 29.086z"/>
    <path fill="#DD83BE" d="M147.023 353.355s.369 18.524 2.004 27.282c1.389 7.46 4.024 5.152 5.927 5.892.554.216 24.116-6.197 25.256-10.283a5.257 5.257 0 00.229-1.535c0-2.887-2.374-5.261-5.261-5.261h-.096c-2.71-.203-14.252 3.472-14.115 2.724 1.431-7.868-.635-14.098 0-14.806 1.97-2.194 8.547-32.075 8.547-32.075s-16.57.364-22.491 28.062z"/>
    <path fill="#DCAB9E" d="M191.741 290.483s6.224 20.616-2.556 23.075c-8.779 2.459-7.178-6.844-6.825-5.088.352 1.756 2.582 16.224 2.582 16.224s-4.446 5.667-12.827.762c-1.334-.783 3.572-23.365 4.586-34.831.447-5.007 11.878-6.047 15.04-.142z"/>
    <path fill="#F7F8D7" d="M147.637 309.906c5.073-8.139 13.94-4.322 14.133-12.03.194-7.708 8.933-19.371 24.613-14.875 7.506 2.153 7.211 7.04.238 6.874-6.974-.166-7.212 5.248-7.793 8.001-.581 2.752-2.376 5.828-2.86 4.363-1.832-5.555-4.071-2.703-4.071-2.703s-2.67 4.363 0 5.634c2.669 1.271 3.73-.252 4.071 1.574.342 1.826 2.279 12.833-5.364 13.154-7.644.321-5.031 4.944-13.416 6.687-8.385 1.744-14.168-9.272-9.551-16.679z"/>
    <path fill="#DD83BE" d="M198.33 321.805a32.301 32.301 0 013.941 2.998c.728.585-.035-.142 5.791 4.638 3.267 2.738 6.534 4.865 8.102 7.564.467.799.081-.037 2.044 2.216 1.45 1.548 4.533 5.09 3.851 6.959l-.548 1.221-1.55 2.197c-1.011 1.474-1.579 1.723-2.634 1.871-1.013.077-2.03.077-3.041 0l-3.601-1.105-1.347-.766s-13.105-11.735-11.008-15.368c.808-1.396 0-12.425 0-12.425z"/>
  </g>
  <path fill="#CCC" d="M54.552 477.734c-1.634-.459-1.658-.485-1.333-1.467.154-.464.34-.91.413-.992.074-.081.522.059.997.311 1.073.572 2.515.637 2.97.135.38-.42.37-1.26-.021-1.741-.169-.208-1.047-.756-1.952-1.218-1.746-.892-2.197-1.343-2.512-2.512-.407-1.51.403-2.882 1.978-3.35 1.136-.337 1.461-.337 2.943.001 1.728.395 1.734.402 1.375 1.484-.166.5-.339.91-.384.91-.045 0-.395-.16-.778-.356-1.303-.664-3.02-.328-3.02.593 0 .697.532 1.186 2.05 1.888 1.633.754 2.027 1.06 2.458 1.908.381.75.37 2.287-.022 3.072-.65 1.299-3.066 1.924-5.162 1.334zm9.516.013c-.98-.349-1.51-.746-1.863-1.392-.277-.507-.315-1.103-.315-5.017v-4.442h1.954l.09 4.086c.091 4.231.182 4.751.869 4.969 1.162.369 2.549.025 3.346-.829.382-.408.398-.569.444-4.325l.048-3.901h1.955v10.838l-1.022.053-1.022.053v-.542c0-.63-.107-.666-.61-.204-.46.423-1.885.908-2.638.898-.314-.004-.87-.114-1.236-.245zm18.023-.125c-1.123-.556-1.688-1.391-1.777-2.629-.088-1.217.31-2.143 1.293-3.006 1.016-.893 1.775-1.144 3.512-1.164 1.43-.017 1.554-.047 1.554-.374 0-.644-.65-1.462-1.34-1.69-.808-.267-2.05-.118-2.954.354l-.667.347-.442-.741c-.517-.868-.439-1.036.723-1.55 1.187-.525 2.635-.629 3.976-.285 1.262.323 1.796.728 2.362 1.789.336.629.39 1.088.471 4.028.086 3.084.12 3.355.492 3.857.466.629.519 1.23.12 1.383-.451.173-1.732-.283-2.13-.759l-.368-.439-.485.382c-1.124.884-3.1 1.111-4.34.497zm3.749-1.928l.834-.529v-2.71l-1.42.064c-1.355.062-1.448.094-2.056.701-.877.877-1.026 1.893-.373 2.546.67.67 1.892.641 3.015-.072zm19.561 1.994c-2.347-.843-3.646-3.09-3.388-5.858.134-1.438.568-2.395 1.603-3.541.893-.988 1.778-1.403 3.403-1.594 1.037-.122 2.873.322 3.556.859l.431.339-.464.701c-.255.385-.496.701-.536.701-.04 0-.386-.16-.769-.356-.843-.43-2.452-.474-3.198-.089-1.201.622-1.867 2.16-1.735 4.009.1 1.389.498 2.198 1.371 2.786.802.541 2.641.564 3.608.045.365-.195.742-.355.838-.355.178 0 .893 1.265.893 1.579 0 .321-2.002.923-3.359 1.011-1.029.067-1.564.01-2.254-.237zm10.263.06c-1.556-.509-2.575-1.477-3.1-2.946-1.073-3.004-.006-6.295 2.447-7.551.876-.448 1.243-.531 2.307-.526.77.005 1.59.131 2.096.325 1.545.59 2.792 2.513 2.792 4.305 0 1.39.229 1.315-4.016 1.315h-3.801v.496c0 .748.724 2.027 1.403 2.479.824.547 2.846.571 3.709.045.32-.195.658-.355.752-.355.093 0 .336.327.54.727.357.699.359.736.048.97-1.013.764-3.837 1.154-5.177.716zm4.329-7.165c-.308-1.253-1.305-1.997-2.675-1.998-1.449-.001-2.424.717-2.833 2.086l-.12.4h5.748l-.12-.488zm11.452 7.303c-1.344-.436-1.777-.659-1.777-.916 0-.444.56-1.813.742-1.813.088 0 .459.153.824.339 2.106 1.074 4.222.386 4.422-1.438.136-1.243-.392-1.834-2.61-2.921-1.29-.632-2.059-1.135-2.509-1.642-1.804-2.033-1.149-5.364 1.258-6.399 1.4-.603 4.589-.437 5.175.268.243.293-.114 1.824-.456 1.956-.113.043-.561-.082-.994-.279-.468-.212-1.174-.359-1.735-.362-.812-.003-1.02.07-1.466.516-.435.435-.519.662-.519 1.407 0 1.251.554 1.85 2.592 2.802 1.925.9 2.675 1.492 3.115 2.459.395.871.444 2.865.09 3.711-.34.815-1.62 1.852-2.668 2.164-.835.248-2.904.336-3.484.148zm11.193-.171c-1.445-.526-2.239-1.214-2.862-2.479-.514-1.044-.572-1.321-.567-2.708.005-1.766.297-2.732 1.166-3.868 1.45-1.893 3.993-2.503 6.276-1.505 1.575.689 2.612 2.458 2.524 4.307l-.053 1.119-3.864.048-3.864.048v.492c0 .745.725 2.025 1.403 2.476.832.553 2.845.571 3.726.034.33-.201.705-.325.835-.275.318.122.834 1.15.723 1.44-.149.388-2.079 1.005-3.401 1.086-.872.054-1.482-.011-2.042-.215zm4.441-7.008c0-1.18-1.171-2.121-2.638-2.122-1.553-.001-2.526.687-2.95 2.086l-.121.4h2.854c2.76 0 2.855-.012 2.855-.364zm14.934 6.893c-.439-1.11-2.908-7.017-3.58-8.564l-.767-1.768-.328.752-.328.751-.877-.116c-1.13-.15-1.829.14-2.346.971-.374.603-.407.896-.49 4.377l-.089 3.731-1.021.053-1.022.053V466.807h.853c.959 0 1.277.218 1.284.88.005.394.029.413.188.141.287-.494 1.584-1.064 2.465-1.085.444-.01 1.489 0 2.324.023l1.517.041.995 2.532a169.514 169.514 0 011.31 3.42c.174.489.369.951.434 1.027.101.118 1.45-3.094 2.578-6.135l.313-.844h1.061c1.297 0 1.324-.244-.414 3.759l-2.244 5.169c-.764 1.763-1.057 2.265-1.32 2.265-.186 0-.409-.18-.496-.4zm15.535.151c-2.581-.816-3.769-2.685-3.606-5.674.13-2.387 1.069-3.94 2.935-4.853 1.401-.685 3.411-.692 4.89-.015.562.257 1.022.564 1.022.682 0 .118-.204.482-.453.809l-.452.593-.732-.373c-.969-.494-2.896-.425-3.642.132-1.776 1.326-1.876 5.209-.166 6.482.813.606 2.788.696 3.811.174.402-.205.799-.373.881-.373.082 0 .323.359.537.798l.387.797-.663.336c-1.379.697-3.419.906-4.749.485zm10.274.09c-.729-.188-1.997-.937-2.485-1.467-1.42-1.544-1.803-4.623-.83-6.673.446-.941 1.997-2.445 2.814-2.73.39-.136 1.308-.242 2.041-.237 1.697.012 2.788.5 3.653 1.634.743.973 1.001 1.858.931 3.199l-.053 1.014-3.864.048-3.865.048v.458c0 .955 1.013 2.408 1.92 2.753.822.314 2.462.225 3.228-.175.4-.208.789-.378.866-.378.076 0 .313.309.524.686.365.648.369.7.078.958-.779.69-3.674 1.193-4.958.862zm4.028-7.134c0-1.176-1.171-2.121-2.63-2.122-1.437-.001-2.242.527-2.785 1.826l-.275.66h2.845c2.749 0 2.845-.012 2.845-.364zm4.974 7.043l-1.199-.376c-.226-.071-.4-.27-.4-.457 0-.353.519-1.76.649-1.76.043 0 .454.2.912.445 1.045.556 2.493.615 2.942.119.384-.424.375-1.315-.017-1.785-.171-.205-.95-.69-1.732-1.078-.782-.389-1.551-.811-1.71-.939-.616-.497-1.043-1.46-1.043-2.358 0-2.229 1.955-3.324 4.797-2.688 1.833.41 1.839.415 1.586 1.419-.115.457-.277.873-.359.924-.082.05-.469-.071-.859-.27-1.5-.765-3.227-.266-2.946.852.182.724.388.888 2.151 1.712 2.049.958 2.641 1.692 2.641 3.276 0 1.257-.461 2.092-1.463 2.646-.939.521-2.814.671-3.95.318zm-159.455-.141c-.05-.127-.068-3.469-.042-7.426l.046-7.195h2.132v14.746l-1.024.053c-.717.037-1.05-.016-1.112-.178zm5.287-5.236l.047-5.468.575-.046c.46-.038.635.05.879.439.167.268.323.515.346.549.023.034.312-.144.642-.395.886-.676 2.2-.933 3.4-.665 1.121.251 1.763.777 2.246 1.841.308.678.343 1.19.347 4.984l.004 4.228-1.022-.053-1.021-.053-.09-4.006c-.096-4.371-.202-4.832-1.167-5.074-.863-.217-2.026.037-2.573.562l-.517.494-.047 4.012-.048 4.012-1.024.053-1.024.053.047-5.467zm30.558 0l.047-5.468.621-.053c1.089-.094 1.422.07 1.422.703v.562l.513-.491c.282-.27.821-.599 1.199-.73.64-.222 2.474-.226 2.694-.005.055.054-.059.477-.252.94l-.352.842-1.06-.058c-.874-.048-1.147.009-1.55.326-1.003.789-1.096 1.19-1.192 5.15l-.09 3.643-1.023.053-1.024.053.047-5.467zm18.476.007l.047-5.461.568-.064c.465-.053.624.025.879.432.171.274.33.526.353.56.023.034.312-.144.642-.395 1.371-1.046 3.825-1.013 4.904.066 1.117 1.117 1.182 1.448 1.182 6.04v4.176l-.96.054c-.648.037-1.009-.021-1.108-.177-.08-.128-.148-1.854-.15-3.836-.004-4.684-.195-5.191-1.963-5.191-.748 0-1.845.409-2.084.777-.072.11-.17 2.039-.22 4.286l-.088 4.087-1.024.053-1.025.053.047-5.46zm78.07 5.324c-.065-.065-.118-2.099-.118-4.52v-4.401l-.666-.055-.667-.055V466.896l1.733-.051 1.732-.051v11.028h-.948c-.521 0-1.001-.053-1.066-.118zm.35-12.509c-.926-.728-.455-2.296.69-2.296 1.215 0 1.761 1.361.893 2.229-.533.532-.968.551-1.583.067zm-5.907-12.25c-2.414-.324-3.544-.818-4.674-2.044-.764-.829-.769-.844-.675-1.887.088-.97.49-1.937.799-1.92.071.004.311.397.535.874.454.969 1.432 1.705 3.234 2.433 2.126.858 7.881 1.337 11.55.96 3.325-.341 7.03-1.003 9.925-1.775 2.688-.716 3.634-.877 3.302-.563-.153.145-3.385 1.192-6.565 2.126-1.858.545-5.167 1.228-7.513 1.55-2.34.32-8.264.467-9.918.246zm-98.588-2.438a913.533 913.533 0 00-3.91-5.73 717.368 717.368 0 01-4.167-6.129l-1.784-2.665.048 7.701.048 7.701.488.389c.269.214.489.447.489.516 0 .07-.76.127-1.688.127-.928 0-1.688-.056-1.688-.124s.22-.353.489-.633l.489-.51.05-8.39.051-8.39-.685-1.059c-.377-.582-1.167-1.564-1.756-2.182l-1.07-1.123-1.518.754-1.519.753-.896-.386c-.755-.324-1.234-.385-3.04-.385h-2.143v20.404l.444.528c.245.29.445.576.445.635 0 .059-1 .108-2.221.108-1.222 0-2.22-.057-2.22-.127 0-.069.219-.302.488-.516l.488-.389.049-10.349.049-10.348-2.585.122c-1.421.067-3.437.276-4.48.464-1.813.327-2.36.288-2.36-.166 0-.069.854-.549 1.897-1.067l1.897-.943.99.326c1.963.646 11.865.516 15.372-.202.975-.199 1.263-.206 1.375-.032a.57.57 0 01.059.442c-.061.166.277.222 1.338.222h1.42l.977 1.465a201.4 201.4 0 001.906 2.801c.51.734 1.213 1.773 1.561 2.309.348.537 2.016 3.014 3.705 5.506a522.932 522.932 0 014.076 6.079c.551.852 1.055 1.552 1.119 1.555.146.007 1.31-2.004 3.083-5.325.757-1.417 1.511-2.776 1.677-3.02.166-.244 1.008-1.763 1.872-3.375.863-1.613 1.945-3.571 2.405-4.353a74.287 74.287 0 001.417-2.532l.583-1.11h1.752c.963 0 1.752.044 1.752.097 0 .054-.22.287-.49.518l-.488.42-.053 9.653c-.029 5.31-.004 9.918.055 10.241.059.323.302.757.541.965.239.208.434.443.434.523 0 .08-.999.146-2.22.146-1.222 0-2.221-.056-2.221-.124s.2-.333.446-.589l.445-.465-.046-9.308-.046-9.308-1.42 2.611a486.833 486.833 0 01-2.546 4.611 320.662 320.662 0 00-1.844 3.333c-.396.733-.899 1.653-1.117 2.043-3.264 5.863-4.242 7.551-4.37 7.551-.083 0-.838-1.019-1.678-2.265zm25.412 1.988c-.587-.132-1.666-.247-2.399-.254l-1.332-.014-.889-1.371c-1.047-1.617-1.09-1.733-.685-1.889.202-.077.56.07 1.03.425 1.138.856 2.275 1.392 4.015 1.891 1.406.403 1.845.452 3.424.377 2.97-.139 4.847-.997 5.889-2.69.437-.711.534-1.055.522-1.866-.023-1.56-.69-2.626-2.212-3.535-.86-.513-4.169-1.822-6.12-2.42-3.602-1.104-5.474-2.502-6.068-4.531-.648-2.214.324-4.617 2.35-5.803 1.978-1.16 2.307-1.221 6.597-1.224l3.945-.004 1.074 1.086c.591.598 1.074 1.169 1.074 1.269 0 .421-.597.346-1.849-.232-2.036-.941-4.142-1.387-5.918-1.254-2.376.178-4.062.94-5.026 2.27-1.044 1.442-.852 3.098.513 4.42.946.917 1.933 1.363 5.618 2.539 5.902 1.885 8.261 3.847 8.256 6.869-.003 1.459-.412 2.391-1.54 3.509-2.256 2.236-6.59 3.262-10.27 2.432zm26.827.015c-2.874-.531-5.63-1.604-7.716-3.002-1.88-1.261-3.651-3.571-4.297-5.606-.524-1.65-.527-4.158-.006-5.602 1.483-4.118 5.886-7.325 11.752-8.562 2.25-.475 6.338-.432 9.289.097 2.155.387 3.573.427 4.253.122.247-.111.386.045.729.822.234.528.678 1.247.987 1.599.515.588.538.664.277.925-.311.311-.352.296-1.449-.539-.865-.659-3.167-1.589-4.843-1.956-1.892-.415-6.179-.505-8.332-.174-1.992.306-4.166 1.122-5.856 2.199-2.582 1.646-4.445 4.487-4.608 7.03-.181 2.82.97 5.496 3.323 7.727.928.881 3.385 2.437 4.773 3.025 2.273.961 6.506 1.468 9.333 1.117 3.125-.387 4.792-.984 6.63-2.371.672-.507 1.035-.672 1.297-.589.522.166.452.47-.269 1.167-.348.337-.874 1.032-1.168 1.545-.49.856-.574.922-1.01.8-.722-.203-1.87-.151-4.079.184-2.393.363-7.155.385-9.01.042zm50.354-2.593c-3.982-.423-6.563-1.699-7.106-3.513-.281-.937.14-2.338 1.029-3.423.872-1.063 3.518-3.168 4.909-3.904l1.092-.578-1.256 1.33c-1.564 1.654-2.111 2.704-1.94 3.719.25 1.475 1.916 2.665 4.617 3.296 1.199.28 2.158.332 6.129.332 4.878 0 5.676-.072 10.127-.915 5.404-1.022 13.093-3.453 16.275-5.145 1.949-1.036 2.89-1.581 3.862-2.237 1.145-.773 1.429-.779.833-.018-1.046 1.334-4.549 3.693-7.478 5.036-6.825 3.128-14.589 5.201-22.286 5.95-2.833.275-6.591.305-8.807.07zm-15.977-7.351c0-.35 1.984-2.106 3.553-3.145 1.628-1.078 6.101-3.286 8.408-4.15 3.058-1.146 8.993-2.812 11.402-3.201.39-.063.95-.182 1.243-.266.293-.083.813-.189 1.155-.236.342-.046 1.461-.206 2.487-.355 6.347-.922 12.972-.37 15.94 1.328 1.21.692 1.692 1.385 1.791 2.571.168 2.027-1.536 4.046-5.576 6.605-1.35.855-1.451.696-.286-.448 1.505-1.477 2.05-2.374 2.065-3.401.027-1.827-1.503-3.013-4.873-3.779-1.449-.329-2.253-.384-5.685-.392-3.851-.009-4.941.078-8.883.711-2.535.407-5.421 1.075-8.794 2.036-2.487.708-3.971 1.244-6.887 2.486-2.83 1.206-4.314 1.983-5.95 3.114-.693.479-1.11.675-1.11.522zm47.077-9.346c-.486-1.475-2.594-2.704-5.504-3.209-5.615-.974-11.689-.515-20.414 1.544-1.016.24-1.874.409-1.907.377-.117-.117 1.835-.885 3.755-1.477 5.386-1.662 10.533-2.443 16.167-2.455 5.011-.01 6.348.242 7.889 1.487.855.691 1.263 1.456 1.257 2.36-.004.636-.594 2.093-.847 2.093-.087 0-.265-.324-.396-.72z"/>
  <path fill="#fff" fill-rule="evenodd" d="M82.166 25.4a8.402 8.402 0 00-5.12 0L51.84 33.465A8.401 8.401 0 0046 41.467v16.899c0 7.518 1.533 15.278 6.256 22.478 4.72 7.194 12.411 13.503 24.157 18.506a8.158 8.158 0 006.385 0c11.746-5.003 19.437-11.312 24.157-18.506 4.724-7.2 6.256-14.96 6.256-22.478v-16.9a8.402 8.402 0 00-5.84-8L82.166 25.4zm-2.926 6.858a1.2 1.2 0 01.732 0l25.204 8.066a1.2 1.2 0 01.834 1.143v16.899c0 6.521-1.319 12.8-5.076 18.528-3.762 5.733-10.183 11.241-20.958 15.83a.961.961 0 01-.74 0c-10.776-4.589-17.197-10.097-20.959-15.83-3.757-5.728-5.076-12.007-5.076-18.528v-16.9a1.2 1.2 0 01.835-1.142l25.204-8.066zm16.114 22.653a3.6 3.6 0 10-5.092-5.092L76.005 64.076 71.35 59.42a3.6 3.6 0 10-5.092 5.092l7.201 7.2a3.6 3.6 0 005.092 0l16.803-16.802z" clip-rule="evenodd"/>
  <path fill="#fff" d="M37.747 131v-10.708h2.27V131h-2.27zm14.465 0h-2.886l-4.658-8.101h-.066c.093 1.431.14 2.452.14 3.062V131h-2.03v-10.708h2.864l4.651 8.02h.051c-.073-1.392-.11-2.375-.11-2.952v-5.068h2.044V131zm9.023-2.974c0 .967-.349 1.729-1.047 2.286-.693.556-1.66.834-2.9.834-1.143 0-2.154-.214-3.033-.644v-2.109c.723.322 1.333.549 1.831.681a5.46 5.46 0 001.377.197c.498 0 .88-.095 1.143-.285.268-.191.403-.474.403-.85a.92.92 0 00-.176-.556 1.912 1.912 0 00-.52-.476c-.225-.152-.686-.394-1.384-.726-.655-.307-1.145-.603-1.473-.886a3.325 3.325 0 01-.783-.989c-.196-.376-.293-.815-.293-1.318 0-.947.32-1.692.96-2.234.644-.542 1.533-.813 2.665-.813.557 0 1.087.066 1.59.198.508.132 1.037.317 1.59.557l-.733 1.765a10.573 10.573 0 00-1.421-.491 4.506 4.506 0 00-1.099-.139c-.43 0-.76.1-.989.3a.991.991 0 00-.344.784c0 .2.047.376.14.527.092.147.239.291.439.432.205.137.686.386 1.443.747 1 .479 1.687.96 2.058 1.443.37.479.556 1.067.556 1.765zm10.657-7.734v6.929c0 .791-.178 1.484-.535 2.08-.351.595-.861 1.052-1.53 1.369-.67.318-1.46.476-2.373.476-1.377 0-2.447-.351-3.208-1.054-.762-.708-1.143-1.675-1.143-2.901v-6.899h2.263v6.555c0 .825.166 1.431.498 1.817.332.385.882.578 1.648.578.742 0 1.28-.193 1.612-.578.336-.391.505-1.001.505-1.831v-6.541h2.263zm4.893 4.753h.732c.718 0 1.248-.119 1.59-.358.341-.24.512-.616.512-1.128 0-.508-.176-.87-.527-1.084-.347-.215-.886-.323-1.619-.323h-.688v2.893zm0 1.846V131h-2.27v-10.708h3.12c1.454 0 2.531.266 3.23.798.698.528 1.047 1.331 1.047 2.41a2.86 2.86 0 01-.52 1.685c-.347.488-.838.871-1.473 1.149A427.288 427.288 0 0083.07 131h-2.52l-2.556-4.109h-1.208zM90.972 131l-.777-2.549h-3.903L85.514 131H83.07l3.78-10.752h2.775L93.418 131h-2.446zm-1.319-4.453a2118.75 2118.75 0 01-1.216-3.919 12.277 12.277 0 01-.19-.717c-.161.625-.623 2.17-1.384 4.636h2.79zM104.272 131h-2.885l-4.659-8.101h-.065c.092 1.431.139 2.452.139 3.062V131h-2.03v-10.708h2.865l4.651 8.02h.051c-.073-1.392-.11-2.375-.11-2.952v-5.068h2.043V131zm7.251-8.972c-.854 0-1.516.322-1.984.967-.469.639-.704 1.533-.704 2.68 0 2.388.896 3.582 2.688 3.582.752 0 1.663-.188 2.732-.564v1.904c-.879.366-1.86.549-2.944.549-1.558 0-2.749-.471-3.574-1.413-.825-.947-1.238-2.305-1.238-4.072 0-1.114.203-2.088.608-2.923.405-.84.986-1.482 1.743-1.926.762-.449 1.653-.674 2.673-.674 1.04 0 2.085.252 3.135.755l-.732 1.845a12.32 12.32 0 00-1.209-.498 3.618 3.618 0 00-1.194-.212zM122.708 131h-6.167v-10.708h6.167v1.86h-3.897v2.351h3.626v1.861h-3.626v2.761h3.897V131z"/>
  <path d="M321 42h166.667v350H321z"/>
  <path d="M463 116h166.667v350H463z"/>
  <defs>
    <filter id="filter0_d" width="720" height="518" x="0" y="0" color-interpolation-filters="sRGB" filterUnits="userSpaceOnUse">
      <feFlood flood-opacity="0" result="BackgroundImageFix"/>
      <feColorMatrix in="SourceAlpha" values="0 0 0 0 0 0 0 0 0 0 0 0 0 0 0 0 0 0 127 0"/>
      <feOffset dx="5" dy="5"/>
      <feGaussianBlur stdDeviation="5"/>
      <feColorMatrix values="0 0 0 0 0 0 0 0 0 0 0 0 0 0 0 0 0 0 0.15 0"/>
      <feBlend in2="BackgroundImageFix" result="effect1_dropShadow"/>
      <feBlend in="SourceGraphic" in2="effect1_dropShadow" result="shape"/>
    </filter>
  </defs>
</svg>
