<svg xmlns="http://www.w3.org/2000/svg" width="720" height="518" fill="none">
  <rect width="150" height="150" x="5" y="5" fill="#3B93AD" rx="10"/>
  <g filter="url(#filter0_d)">
    <path fill="#fff" d="M695 503H15c-5.523 0-10-4.477-10-10V185c0-5.523 4.477-10 10-10h150c5.523 0 10-4.477 10-10V15c0-5.523 4.477-10 10-10h510c5.523 0 10 4.477 10 10v478c0 5.523-4.477 10-10 10z"/>
  </g>
  <mask id="a" width="700" height="498" x="5" y="5" maskUnits="userSpaceOnUse">
    <path fill="#fff" d="M695 503H15c-5.523 0-10-4.477-10-10V185c0-5.523 4.477-10 10-10h150c5.523 0 10-4.477 10-10V15c0-5.523 4.477-10 10-10h510c5.523 0 10 4.477 10 10v478c0 5.523-4.477 10-10 10z"/>
  </mask>
  <g fill-rule="evenodd" clip-rule="evenodd" mask="url(#a)">
    <path fill="#674280" d="M379.438 389.311c-13.866 22.924-14.006 19.249-22.074 17.043-75.717-20.707-147.021 70.54-76.953 62.276 29.39-3.467 33.566-9.238 58.5-4.63 17.783 3.282 30-13.196 47.109-15.211 44.891-5.289 36.391 11.211 74.858 20.057C486.411 474.718 583.411 445 488.411 433c1.588-45.727-84.093-84.82-108.973-43.689z" opacity=".1"/>
    <path fill="#674280" d="M338.508 448.281c13.867-22.924 32.835-18.448 40.903-16.242 75.717 20.707 95.569-31.974 25.5-23.71-29.39 3.467-8.333-38.643-33.267-43.251-17.783-3.281-13.677 7.05-26.109 12.211-10.583 4.393-3.908 34.661-11.027 26.211-20.597 16.5-53.597-9.5-83.597 43.742-1.588 45.727 62.718 42.17 87.597 1.039z" opacity=".1"/>
    <path fill="#674280" d="M70.911 201.5c-14.154 83.439 23.44 157.893 109.804 142.362 129.544-23.296 88.76 59.825 156.623 51.557 67.863-8.268 101.529-108.704-13.28-122.772-76.54-9.378-161.915-60.094-253.147-71.147z" opacity=".1"/>
    <path fill="#674280" d="M288.804 261.597c-53.213 2.268-83.955 13.683-92.226 34.244-12.406 30.841 77.731-23.764 98.204 36.93 20.473 60.695 119.86 35.408 95.032-20.937-16.553-37.563-50.222-54.308-101.01-50.237z" opacity=".1"/>
    <path fill="#fff" d="M256.119 285.222C11.222 390.423 19.743 71.512 208.872 133.82 400.647 196.998 363.553 28.16 468.803 28v432.63s-63.854-84.839-145.401-18.442c-90.291 73.515-92.127-21.709-35.639-43.788 99.37-38.837 62.755-153.73-31.644-113.178z"/>
    <path fill="#FA812C" d="M256.119 285.222C11.222 390.423 19.743 71.512 208.872 133.82 400.647 196.998 363.553 44.16 468.803 44v416.63s-63.854-84.839-145.401-18.442c-90.291 73.515-92.127-21.709-35.639-43.788 99.37-38.837 62.755-153.73-31.644-113.178z" opacity=".15"/>
    <path fill="#AE865E" d="M209.446 282.402h4.544c-.608-5.837-1.375-11.672-2.132-17.507h-1.546c-.782-5.836-1.715-11.672-2.669-17.507h-1.645c-.979-5.835-2.127-11.671-3.306-17.506h-1.763c-1.222-5.835-2.662-11.672-4.145-17.53h-1.881c-1.572-5.835-3.437-11.672-5.31-17.507h-1.976c-2.233-5.835-4.673-11.671-7.488-17.506h-1.888c-3.221-5.836-7.227-11.672-12.016-17.532h-6.14c4.178 5.86 8.434 11.696 12.295 17.532h-1.462a405.925 405.925 0 0110.564 17.506h-1.53c3.241 5.835 6.191 11.672 9.098 17.507h-1.462a781.897 781.897 0 017.88 17.53h-1.364c2.302 5.835 4.595 11.671 6.767 17.506h-1.273c2.026 5.835 4.043 11.671 5.911 17.507h-1.201c1.781 5.835 3.548 11.67 5.138 17.507zm15.183 105.085a508 508 0 00.995-17.505h-1.323c.222-5.835.282-11.672.333-17.507h-1.32c.011-5.835-.103-11.671-.225-17.53h-1.331c-.165-5.835-.444-11.671-.72-17.507h-1.355c-.315-5.835-.756-11.671-1.187-17.506h-1.395c-.457-5.835-1.062-11.672-1.649-17.507h-7.13c1.552 5.835 3.088 11.672 4.435 17.507h-1.078c1.339 5.835 2.659 11.671 3.801 17.506h-1.048c1.139 5.836 2.238 11.672 3.19 17.507h-1.029a607.003 607.003 0 012.614 17.53h-1.024c.773 5.835 1.423 11.672 2.011 17.507h-1.025c.577 5.835.983 11.671 1.378 17.505h-1.018c.3 5.837.49 11.673.653 17.508h3.912c.683-5.835 1.387-11.671 1.851-17.508h-1.316zM247.099 313.635a732.578 732.578 0 001.598-22.834h-1.38c.164-7.611.073-15.222-.364-22.85h-1.419a169.76 169.76 0 00-4.045-22.848h-6.141a271.17 271.17 0 015.774 22.848h-1.101a351.794 351.794 0 013.007 22.85h-1.071c.562 7.612.943 15.222 1.165 22.834h-.992c.117 7.627.146 15.238.106 22.848h-.972a436.857 436.857 0 01-.998 22.834h-.962c-.782 7.628-1.85 15.238-3.155 22.848h-.969A496.097 496.097 0 01229.889 405h3.91a490.441 490.441 0 007.48-22.835h-1.247a373.712 373.712 0 005.325-22.848h-1.24a484.1 484.1 0 003.267-22.834h-1.255c.797-7.61 1.534-15.221 2.25-22.848h-1.28z"/>
    <path fill="#81A865" d="M155.671 141.366c-2.66-5.168 2.737-6.891 4.255-9.995 6.417-13.126 14.044-26.503 28.098-26.232 6.983.135 8.549-.871 10.556 1.1 2.007 1.971-.86 1.719-.86 1.719-1.944 1.84 7.069 1.917 4.965 2.987-2.102 1.067-7.264-.179-10.378 1.366-3.112 1.544-.432 2.31-1.405 3.021-.974.711-4.49.087-5.435.979-.945.893 4.154-.036-1.93 5.031-1.398 1.163-3.843-.345-5.039 1.019-1.461 1.671 1.957 3.415-6.02 9.588-.984.76-4.156-.277-5.194.385-1.682 1.074-5.083 7.314-6.007 9.202-.248.506-3.057 9.182-.235 5.665 1.486-1.852 5.095-9.53 6.83-11.098 1.827-1.648 3.532-.853 3.881-.979 1.873-.669 3.394-3.487 5.322-3.865.673-.133.886.486 1.265 1.093 0 0 8.741-6.446 21.182-2.025 12.44 4.421 11.85 3.895 14.177 4.725 2.328.827-2.187.241-2.525.99-.752 1.669 8.877 1.741 8.975 3.751.096 2.011-2.758 1.699-1.293 2.267 3.039 1.176 6.187 2.205 8.921 4.052.803.544-1.976.887-3.732.219-.461-.174-.956-.173 1.134 1.197 2.572 1.684 1.931 3.9 1.448 3.242 0 0-4.394-4.919-3.516-1.643 1.363 5.094.311 6.282-.069 5.502-.381-.78-1.195-4.695-2.536-3.434-1.339 1.26 1.41 4.109-2.598 1.414-4.007-2.695-5.454-5.315-6.349-2.108-.897 3.207-1.28 1.044-4.282-.354-3.003-1.397-2.296.516-9.117-.178-4.26-.435-4.028-9.216-4.722-7.4-2.269 5.925-2.531 6.156-3.572 6.349-1.91.351-2.294.298-3.545.294-2.291-.007-3.055-5.268-4.204-5.05-1.308.248 2.644 6.75.458 5.254-.263-.179-2.129-.358-3.287-.7-3.087-.915-3.653-.889-4.211.385-.558 1.272-1.954-.681-4.679.447-2.678 1.107-10.805 4.099-9.106 4.117 2.738.029 2.078.41 5.461-1.092 2.034-.903 1.818-.359 4.509-.385 2.693-.027 5.289-2.115 7.254-2.063 4.25.112-.436 3.048 3.174 4.178 3.609 1.131 6.927-3.467 15.355 3.002 3.284 2.521 12.116.8 8.051 3.902-1.308.998-3.227 4.028-2.457 3.807 1.257-.362 2.848-1.545 4.054-1.098 4.99 1.847 18.853 6.917 13.824 7.715-1.323.21-3.249 1.301-.597 2.139 2.652.837 5.996.925 5.873 2.273-.124 1.349-3.003-1.397-3.211.436-.208 1.831 8.575 4.74 8.757 6.267.181 1.526-1.732.943-1.732.943-1.46-1.148-.195 1.391 2.359 3.154 1.759 1.214 6.528 3.011 5.623 4.348-.906 1.337-3.091-1.538-3.911-.683-.821.852 5.589 6.459 4.375 6.994-1.213.536-2.72-1.72-4.616-3.203-1.893-1.484-3.404-2.269-6.462-3.485-.834-.334 1.633 1.796 1.072 2.445-.561.65-.416-1.025-2.4-2.289-2.139-1.36-2.599-1.292-5.794-4.004-3.195-2.713-4.453-5.266-5.104-4.757-2.099 1.651-.323 5.812-3.953-.441-2.496-4.3-3.229-3.307-3.229-3.307s1.053 2.303-.073 2.977c-.589.355-7.653-7.173-15.746-11.856-.805-.466.908 4.949-1.271 4.163-3.229-1.165-5.513-5.788-6.553-6.332-5.619-2.932-4.078 2.517-12.378-3.232-8.036-5.564-9.098-.159-8.266 1.483.834 1.641 4.933 9.896 4.112 10.749-.821.854-1.687 1.324-2.433-.176-.745-1.502-2.36-6.138-2.662-2.709-.151 1.728-1.797.682 2.001 5.209 3.8 4.529 3.267 6.928 3.267 6.928 0-.001 3.456 5.215 1.46 5.114-1.999-.1-3.33-5.94-5.541-5.456-2.213.485-3.592-1.873.038 3.621 3.631 5.494 8.091 4.764 8.675 9.101.586 4.34 3.907 1.27 4.409 6.091.501 4.823 1 3.618 2.441 9.837.565 2.444-1.408 4.303-.652 6.313.76 2.01 3.005 4.004 1.928 5.684-2.155 3.36-2.817 4.235-2.529 5.594.4 1.876.656 9.768-3.341-.028-.89-2.18-2.041-3.028-3.141-5.196-1.322-2.603-2.114-6.576-2.584-8.094-1.929-6.23-1.6-9.517-2.231-8.747-1.011 1.234 1.473 6.878-4.146-1.088-5.974-8.469-9.499-33.743-7.791-36.736 1.224-2.144-.884-3.269-2.696-.595-1.811 2.672-1.543 4.34-2.735 9.24-.445 1.837-1.36 4.181-2.299 6.638-.457 1.196-2.271-5.466-2.741-4.46-.407.871 1.668 6.824 1.249 8.191-.889 2.9-2.107 5.446-2.421 7.234-.718 4.109.64 6.591-.311 7.546-.951.954-1.404-2.862-2.398-2.29-.997.573-1.295 1.643-.843 5.461.454 3.816.2 5.267.2 5.267s-.782-.012-2.176-1.004c-1.395-.991-.336 2.559-.022 4.607.313 2.049 2.35 1.285-.409 5.535-.947 1.462-3.098-3.761-4.186-1.758-1.09 2.002-.293 6.594-1.345 7.145-1.602.841-1.225-1.96-2.2 2.979-.975 4.938-1.587 6.51-1.758 4.926 0 0 .339-1.935-1.085-9.16-1.423-7.228-2.287-6.132-1.741-9.901.548-3.767 1.959-5.983 1.662-6.327-.838-.975-1.413-.543-2.769 1.773-2.09 3.571-2.852 4.601-2.701 2.82.105-1.221-.8-10.065 3.422-13.249 3.566-2.688 2.373-8.633 2.702-9.157.776-1.236-.666-1.441-1.701-1.794-2.055-.696 4.047-1.42 4.288-2.115.88-2.544-2.484-1.805-2.484-1.805s1.026-3.309 4.444-6.2c3.416-2.891-1.347.014-1.483-1.132-.135-1.145 2.155-3.361 3.878-6.173 1.725-2.814 7.339-9.308 10.027-9.958 2.688-.651 6.277-2.936 5.103-3.267-1.174-.33-8.463.061-10.149 1.387-1.687 1.324-4.686 9.52-5.595 10.234-.909.714-1.655-.788-1.655-.788s1.766-3.054-.099-2.633c-1.865.421-2.886 4.977-5.171 8.44-2.284 3.462-1.477 4.289-2.95 5.029-1.472.738-1.577 1.654-1.202-1.769.373-3.423 1.055-6.045.061-5.472-.997.573-.787-.635-1.769 2.432-.984 3.068-.33 3.805-.972 5.561-.643 1.756-1.198 3.652-1.465 2.61-.265-1.044.937-4.072-.28-4.161-1.216-.088-1.284-.66-1.139 2.355.145 3.015-.7 1.689-1.865 5.218-1.593 4.834-.559.961-3.583 4.17-3.025 3.21-3.243 2.859-3.243 2.859s1.202-3.028.371-4.047c-.829-1.017-1.327 2.794-3.145 5.182-.945 1.241-1.119 1.922-1.427 1.12-.309-.802.16-2.838.671-5.115.509-2.279 1.269-7.113 2.031-10.983.256-1.297-1.99 1.77-3.072 2.203-1.084.433-1.823.179-1.09-.814.733-.993 4.364-4.47 5.01-5.603.647-1.132.299-1.069-1.18-1.577-1.479-.508-.702-1.743.64-2.38 1.342-.636 2.125-.625 2.988-1.72.864-1.095-4.257-.62-3.524-1.613.732-.993 4.007-6.276 5.003-6.85.997-.573 2.724 1.841 4.24.859 1.515-.98 2.618-1.652 1.314-1.88l-4.564-.8s3.537-4.863 14.686-7.147c11.149-2.286 16.123-5.25 18.869-3.025 2.747 2.225 3.056 5.494 4.284 3.79.846-1.178 5.699.188.244-2.652-6.308-3.282-1.667-3.282-9.095-3.71-7.426-.426-7.627 1.231-8.52-1.865-.433-1.503-2.332-2.027.445-2.539 2.776-.51 4.189-.262 3.405-.899-.787-.635-3.263-1.194-5.999-.924-2.734.268-6.252-.098-6.252-.098s-6.432-1.001-.313-2.049c6.117-1.046 5.857-.844 5.857-.844s-.441-1.323-2.914-1.257c-2.476.066-4.86.894-5.949.08-1.09-.813-5.137-2.644-5.574-3.342-.437-.7-5.556-8.573-5.215-9.884.82-3.151 3.317.212 4.086.964 2.487 2.429 3.604 4.369 3.604 4.369 1.861 3.439.791-2.605.089-3.723-.7-1.119-.747-2.124.469-2.036 1.216.088 2.285 1.023 2.73 3.592.447 2.57 2.094 1.488 3.784 1.099 2.665-.614.249 1.787 3.247 2.562 3 .774 2.354-2.579 6.54 1.02 4.186 3.598 5.038 4.807 7.006 7.642 1.967 2.837 4.848 6.208 7.071 7.593 2.221 1.386.274-2.284-.758-3.995-2.516-4.178-2.909-4.497-5.535-8.694-2.625-4.198-.615-6.088-.59-10.071.023-3.984.097-7.446 1.957-8.628 1.702-1.087 2.853-2.554 6.055-4.86 3.201-2.305 3.109-3.693 4.585-3.808 1.476-.115 6.208-4.77 4.659-1.677-1.548 3.094-1.969 1.338-4.766 6.455-2.799 5.118-4.226 6.238-2.403 6.06 1.822-.18.3-2.276 2.898-2.172 2.485.098 6.115-2.659 4.537-.328-2.814 4.153.144 3.015-2.014 5.754-2.157 2.736-6.101 3.34-5.298 4.367 1.125 1.438.877 2.023 2.221 1.385 1.342-.635 4.987-1.306 3.303.641-1.683 1.949-3.854 2.503-4.842 4.324-.991 1.821-1.941 2.775-2.412 4.188-.471 1.413 1.895 5.814 1.895 5.814s.242 5.026 1.243 5.7c1.002.674 1.774-1.184 1.81-2.673.037-1.49.418-5.09.32-5.279z"/>
    <path fill="#81A865" d="M236.831 226.894c-.833-5.039 4.168-5.249 6.285-7.546 8.952-9.717 18.989-19.366 30.721-15.841 5.828 1.751 7.418 1.258 8.568 3.412 1.151 2.155-1.188 1.268-1.188 1.268-2.134 1.117 5.418 3.295 3.36 3.717-2.057.42-6.053-1.855-9.088-1.264-3.034.592-.989 1.873-2 2.253-1.011.381-3.796-.976-4.832-.436-1.036.542 3.5.943-2.987 3.849-1.49.667-3.135-1.196-4.507-.309-1.682 1.085.716 3.377-7.66 6.785-1.033.42-3.416-1.21-4.467-.887-1.704.523-6.254 5.061-7.543 6.458-.346.376-5.058 7.132-1.736 4.789 1.753-1.237 6.867-6.955 8.75-7.887 1.981-.982 3.198.096 3.526.071 1.755-.133 3.797-2.185 5.52-2.057.6.044.611.624.766 1.231 0 0 9.09-3.461 18.34 3.23 9.25 6.692 8.896 6.106 10.628 7.359 1.73 1.254-1.904-.305-2.389.256-1.087 1.251 6.983 3.567 6.519 5.308-.465 1.741-2.776.807-1.7 1.636 2.233 1.716 4.598 3.334 6.393 5.553.528.653-1.9.295-3.196-.686-.338-.258-.755-.373.63 1.287 1.703 2.043.564 3.787.336 3.112 0 0-2.356-5.235-2.507-2.229-.238 4.674-1.443 5.443-1.552 4.688-.107-.757.27-4.294-1.198-3.531-1.465.765.071 3.843-2.566.601-2.635-3.242-3.138-5.821-4.761-3.289-1.624 2.532-1.358.593-3.501-1.305-2.143-1.899-2.067-.097-7.608-2.288-3.463-1.37-.884-8.821-1.959-7.434-3.514 4.534-3.797 4.672-4.725 4.591-1.697-.146-2.007-.282-3.056-.578-1.923-.542-1.137-5.217-2.161-5.301-1.166-.095.389 6.389-1.041 4.598-.172-.214-1.693-.804-2.572-1.368-2.345-1.506-2.826-1.616-3.64-.659-.816.959-1.458-1.038-4.053-.712-2.549.319-10.188.972-8.766 1.385 2.293.667 1.633.839 4.884.347 1.953-.296 1.623.119 3.892.727 2.269.606 5.017-.568 6.653-.065 3.54 1.091-1.193 2.503 1.532 4.316 2.724 1.811 6.759-1.341 12.083 6.163 2.075 2.923 9.961 3.521 5.704 5.221-1.37.546-3.804 2.687-3.097 2.677 1.155-.013 2.811-.651 3.705.013 3.689 2.746 13.959 10.328 9.518 9.833-1.169-.131-3.084.349-1.084 1.687 2.001 1.338 4.787 2.195 4.317 3.32-.47 1.124-2.144-1.898-2.815-.381-.672 1.518 5.918 6.062 5.657 7.408-.264 1.348-1.713.4-1.713.4-.914-1.322-.54 1.143 1.127 3.25 1.148 1.448 4.666 4.103 3.542 5.033-1.123.932-2.178-2.038-3.1-1.501-.921.537 2.942 6.832 1.777 7.005-1.164.173-1.818-2.108-3.007-3.82-1.19-1.711-2.245-2.735-4.482-4.492-.612-.481.883 1.917.236 2.341-.649.424-.07-.974-1.394-2.518-1.428-1.664-1.835-1.714-3.781-4.78-1.947-3.069-2.313-5.544-2.996-5.26-2.213.917-1.85 4.891-3.2-1.306-.931-4.259-1.816-3.582-1.816-3.582s.259 2.215-.869 2.528c-.591.165-4.483-7.925-10.009-13.823-.55-.587-.579 4.443-2.197 3.261-2.398-1.752-3.062-6.241-3.788-6.948-3.925-3.823-4.106 1.197-9.521-5.662-5.238-6.638-7.598-2.266-7.343-.67.254 1.599 1.458 9.616.536 10.154-.921.536-1.777.736-1.995-.722-.219-1.456-.318-5.8-1.501-2.938-.597 1.44-1.695.161.266 4.922 1.964 4.76.866 6.685.866 6.685s1.487 5.269-.163 4.714c-1.651-.554-1.185-5.858-3.175-5.961-1.989-.103-2.508-2.444-.948 3.104 1.558 5.547 5.502 5.967 4.817 9.812-.686 3.847 2.937 2 2.049 6.238-.887 4.24-.14 3.327-.619 8.982-.187 2.221-2.35 3.349-2.261 5.243.092 1.896 1.439 4.126.077 5.31-2.721 2.369-3.516 2.96-3.64 4.189-.173 1.697-2.101 8.505-2.801-.806-.157-2.072-.893-3.066-1.228-5.177-.403-2.535.009-6.116.026-7.524.071-5.778 1.24-8.51.5-8-1.185.817-.629 6.224-3.189-1.9-2.719-8.64 1.179-31.07 3.426-33.227 1.61-1.548.144-3.003-2.103-1.142-2.245 1.862-2.472 3.349-4.803 7.259-.875 1.466-2.278 3.255-3.734 5.136-.709.914-.424-5.205-1.092-4.456-.579.649-.451 6.225-1.173 7.296-1.535 2.27-3.248 4.161-3.995 5.615-1.719 3.346-1.255 5.784-2.31 6.378-1.06.594-.402-2.775-1.395-2.519-.992.257-1.533 1.101-2.19 4.469-.654 3.37-1.262 4.551-1.262 4.551s-.652-.194-1.554-1.368c-.904-1.175-.977 2.108-1.268 3.933-.293 1.823 1.626 1.649-1.846 4.636-1.192 1.027-1.581-3.94-3.04-2.484-1.461 1.456-2.037 5.567-3.068 5.793-1.575.343-.498-1.962-2.657 2.031-2.158 3.993-3.098 5.192-2.813 3.798 0 0 .81-1.573 1.574-8.085.766-6.51-.256-5.777 1.225-8.869 1.481-3.093 3.267-4.656 3.114-5.019-.442-1.03-1.04-.796-2.809.866-2.724 2.564-3.644 3.265-3.032 1.778.417-1.019 2.059-8.792 6.469-10.523 3.724-1.463 4.336-6.825 4.754-7.195.988-.874-.167-1.388-.943-1.931-1.535-1.077 3.786-.267 4.176-.804 1.431-1.969-1.596-2.125-1.596-2.125s1.761-2.588 5.415-4.259c3.655-1.671-1.134-.304-.938-1.315.197-1.011 2.722-2.368 4.933-4.369s8.689-6.237 11.125-6.164c2.434.074 6.069-1.038 5.173-1.595-.898-.559-7.125-1.931-8.902-1.193-1.776.738-6.521 7.042-7.478 7.438-.957.396-1.174-1.061-1.174-1.061s2.311-2.199.631-2.276c-1.682-.077-3.775 3.58-6.633 6.005-2.859 2.424-2.405 3.32-3.844 3.607-1.437.286-1.774 1.045-.531-1.793 1.244-2.839 2.528-4.921 1.536-4.664-.991.257-.486-.726-2.145 1.664-1.658 2.393-1.309 3.175-2.327 4.527-1.016 1.351-1.997 2.841-1.938 1.889.061-.955 1.893-3.262.896-3.624-.999-.359-.901-.865-1.598 1.747-.695 2.611-1.044 1.278-2.982 4.023-2.65 3.759-.73.691-4.141 2.726-3.411 2.034-3.499 1.683-3.499 1.683s1.83-2.307 1.409-3.372c-.421-1.063-1.873 2.078-4.047 3.693-1.132.84-1.463 1.381-1.503.624-.042-.758.903-2.388 1.951-4.216 1.047-1.828 2.997-5.783 4.687-8.913.565-1.048-2.151 1.048-3.178 1.163-1.029.117-1.582-.272-.695-.95.885-.677 4.878-2.797 5.728-3.616.85-.817.541-.843-.562-1.624-1.104-.781-.119-1.654 1.183-1.884 1.3-.229 1.953-.037 2.975-.77 1.022-.734-3.406-1.529-2.522-2.206.886-.678 5.071-4.425 6.062-4.682.992-.258 1.789 2.211 3.327 1.727 1.539-.483 2.649-.799 1.614-1.3l-3.615-1.752s4.291-3.328 14.276-2.67c9.984.658 14.968-.711 16.671 1.834 1.702 2.546 1.075 5.412 2.569 4.243 1.03-.807 4.737 1.496.924-2.209-4.408-4.284-.509-3.196-6.632-5.301-6.122-2.106-6.741-.736-6.65-3.59.042-1.387-1.41-2.28 1.062-2.067 2.469.215 3.59.757 3.103.029-.486-.726-2.417-1.785-4.785-2.195-2.371-.411-5.226-1.548-5.226-1.548s-5.132-2.363.291-1.825 5.15.65 5.15.65-.012-1.233-2.108-1.757c-2.097-.524-4.325-.374-5.018-1.324-.694-.951-3.598-3.463-3.775-4.163-.177-.702-2.341-8.63-1.698-9.671 1.544-2.502 2.728.959 3.171 1.781 1.43 2.66 1.84 4.578 1.84 4.578.631 3.378 1.371-2.039 1.086-3.159-.283-1.121-.052-1.992.947-1.632.997.36 1.642 1.409 1.32 3.712-.323 2.302 1.352 1.76 2.88 1.824 2.403.101-.28 1.586 2.031 2.95 2.31 1.366 2.676-1.651 5.216 2.404 2.54 4.057 2.928 5.289 3.812 8.175.882 2.885 2.389 6.441 3.878 8.146 1.49 1.704.85-1.889.448-3.593-.98-4.162-1.223-4.525-2.289-8.727-1.066-4.204 1.134-5.35 2.236-8.748 1.101-3.4 2.103-6.341 3.984-6.918 1.726-.529 3.091-1.515 6.407-2.735 3.315-1.22 3.613-2.427 4.882-2.181 1.272.246 6.511-2.622 4.371-.341-2.14 2.28-2.018.681-5.756 4.401-3.739 3.718-5.243 4.343-3.662 4.615 1.579.275.869-1.873 3.024-1.177 2.06.667 5.859-.84 3.899.782-3.489 2.891-.697 2.613-3.252 4.448-2.557 1.833-6.033 1.425-5.636 2.493.554 1.491.188 1.934 1.489 1.704 1.301-.231 4.544.051 2.601 1.322-1.945 1.27-3.915 1.236-5.241 2.56-1.326 1.325-2.382 1.919-3.163 3.016-.778 1.096.015 5.413.015 5.413s-1.162 4.353-.502 5.164c.657.81 1.811-.597 2.246-1.862.434-1.264 1.731-4.252 1.701-4.438z"/>
  </g>
  <path fill="#fff" d="M53.552 131h-2.27v-8.818h-2.908v-1.89h8.086v1.89h-2.908V131zm6.826-5.955h.733c.718 0 1.247-.119 1.59-.358.341-.24.512-.616.512-1.128 0-.508-.176-.87-.528-1.084-.346-.215-.886-.323-1.618-.323h-.689v2.893zm0 1.846V131h-2.27v-10.708h3.12c1.455 0 2.532.266 3.23.798.698.528 1.047 1.331 1.047 2.41 0 .63-.173 1.191-.52 1.685-.346.488-.837.871-1.472 1.149a424.22 424.22 0 003.15 4.666h-2.52l-2.556-4.109h-1.209zM74.565 131l-.776-2.549h-3.904L69.11 131h-2.446l3.779-10.752h2.776L77.012 131h-2.447zm-1.318-4.453c-.718-2.31-1.123-3.616-1.216-3.919a12.44 12.44 0 01-.19-.717c-.161.625-.623 2.17-1.384 4.636h2.79zm11.228-6.255h2.293L83.128 131h-2.476l-3.633-10.708h2.292l2.015 6.372c.112.376.227.815.344 1.318.122.498.198.845.227 1.04.054-.449.237-1.235.55-2.358l2.028-6.372zM94.29 131h-6.167v-10.708h6.167v1.86h-3.897v2.351h3.626v1.861h-3.626v2.761h3.897V131zm2.24 0v-10.708h2.271v8.833h4.344V131h-6.614zm14.803-2.974c0 .967-.349 1.729-1.047 2.286-.694.556-1.661.834-2.901.834-1.142 0-2.153-.214-3.032-.644v-2.109c.723.322 1.333.549 1.831.681a5.46 5.46 0 001.377.197c.498 0 .879-.095 1.143-.285.268-.191.402-.474.402-.85a.92.92 0 00-.175-.556 1.931 1.931 0 00-.52-.476c-.225-.152-.686-.394-1.385-.726-.654-.307-1.145-.603-1.472-.886a3.32 3.32 0 01-.783-.989c-.196-.376-.293-.815-.293-1.318 0-.947.319-1.692.959-2.234.645-.542 1.533-.813 2.666-.813.557 0 1.086.066 1.589.198.508.132 1.038.317 1.59.557l-.733 1.765a10.555 10.555 0 00-1.421-.491 4.503 4.503 0 00-1.098-.139c-.43 0-.759.1-.989.3a.993.993 0 00-.344.784c0 .2.046.376.139.527.093.147.239.291.439.432.205.137.686.386 1.443.747 1.001.479 1.687.96 2.058 1.443.371.479.557 1.067.557 1.765z"/>
  <path stroke="#fff" stroke-linejoin="round" stroke-width="5" d="M55.106 30.825a2.5 2.5 0 00-2.374.657l-3.311 3.312a5.75 5.75 0 001.494 9.209l1.118-2.236-1.118 2.236L76.28 56.685 66.464 66.5H53.26a5.75 5.75 0 00-5.143 3.178l-2.352 4.704a2.5 2.5 0 001.118 3.354l12.255 6.127 6.127 12.255a2.5 2.5 0 003.354 1.118l4.704-2.352a5.75 5.75 0 003.178-5.143V76.535l9.815-9.815 12.682 25.365a5.75 5.75 0 009.209 1.494l3.312-3.311a2.5 2.5 0 00.657-2.374l-9.303-37.215a.75.75 0 01.197-.712l9.401-9.401a10.347 10.347 0 003.03-7.316 5.75 5.75 0 00-5.75-5.75c-2.744 0-5.376 1.09-7.316 3.03l1.711 1.711-1.711-1.71-9.4 9.4a.75.75 0 01-.713.197l-37.215-9.303z"/>
  <mask id="b" width="230" height="34" x="30" y="384" maskUnits="userSpaceOnUse">
    <ellipse cx="144.906" cy="401.27" fill="#C4C4C4" rx="114.906" ry="16.73"/>
  </mask>
  <g mask="url(#b)">
    <path fill="#C8C98F" fill-rule="evenodd" d="M53.467 394.875c.355 4.672 59.848 4.646 67.227 4.061 19.859-1.577 89.292-3.582 89.292-3.582 6.662-1.026 5.692-1.084 11.57-.283 1.792.243 2.295-.022 8.162-.175.174-.004.35-.003.526-.003.725.003 1.463.006 2.067-.355 3.99-2.39 4.883-3.249 7.239-2.332 1.178.458 2.911.416 4.89.746.517.086.87.453 1.47.316 2.837-.656 3.686-.71 5.553.307 1.858 1.011-.708.776 13.295.468v60.055H9.748c.143-57.583 0-48.531 0-57.902.853.031 2.746.09 4.75.139.896.022 1.903.176 2.847-.106 1.962-.586 3.99-1.299 5.69-1.289 1.827.012 4.62.981 7.176.529.897-.158 1.189-1.35 3.193-2.257 2.21-.999 3.982-.313 5.632.373 1.327.552 2.576 1.105 3.91.781 2.451-.596 4.348-.223 6.105.149 1.488.316 2.876.632 4.416.36z" clip-rule="evenodd"/>
    <path fill="#E4E4C5" fill-rule="evenodd" d="M198.568 394.696c7.65-4.097 14.64-5.331 29.284-6.552.079-.092 4.934-8.439 9.428-8.546.105-.002 2.309.354 4.761-.688 1.741-.742 5.909-3.353 7.367-4.743 2.778-2.653 12.579-6.106 15.337-5.155v32.167s-28.985-.825-32.608-1.651c0 0 1.087-1.855 2.777-2.267-10.386 1.322-27.703 1.419-33.22-.27-2.967-.907-5.862-.83-3.126-2.295z" clip-rule="evenodd"/>
    <path fill="#C5BE8B" d="M221.129 391.797s-.019-.023-.042-.037a.097.097 0 00-.073-.019c-.023.004-.041.023-.052.046-.013.022-.017.05-.017.05s.019.023.042.038c.022.015.049.024.072.019a.08.08 0 00.053-.046c.013-.022.017-.051.017-.051zM222.437 391.247s-.026-.019-.053-.028a.106.106 0 00-.08-.003.089.089 0 00-.046.057c-.007.024-.005.053-.005.053s.026.018.052.028c.028.01.058.014.081.003.023-.009.038-.032.046-.058.007-.024.005-.052.005-.052zM222.81 391.522s-.019-.023-.042-.037a.095.095 0 00-.072-.019c-.024.005-.042.023-.053.046-.013.022-.017.05-.017.05s.019.023.042.038c.022.015.05.024.072.019a.08.08 0 00.053-.046c.012-.022.017-.051.017-.051zM221.999 391.644s-.019-.023-.04-.038c-.023-.015-.05-.025-.073-.019-.023.004-.042.023-.054.046-.011.022-.015.05-.015.05s.018.023.041.038c.023.015.05.024.073.018.022-.004.042-.023.053-.046.012-.022.015-.049.015-.049zM223.618 390.892s-.019-.023-.041-.037c-.023-.016-.05-.024-.072-.019a.082.082 0 00-.054.046.155.155 0 00-.015.05s.019.024.04.038c.023.015.05.024.073.019a.084.084 0 00.054-.046.193.193 0 00.015-.051zM225.615 390.147s.032.017.066.022a.186.186 0 00.112-.011.151.151 0 00.077-.07c.017-.027.02-.059.02-.059s-.031-.015-.066-.022a.194.194 0 00-.112.011.157.157 0 00-.077.071.18.18 0 00-.02.058zM224.163 388.963s-.02-.023-.045-.038a.126.126 0 00-.087-.019.118.118 0 00-.072.046c-.016.022-.025.051-.025.051s.02.023.047.038a.132.132 0 00.086.019.114.114 0 00.071-.046.17.17 0 00.025-.051zM223.206 389.199s-.025-.017-.049-.026c-.026-.009-.053-.011-.069-.001-.018.01-.026.032-.026.055-.001.023.008.051.008.051s.025.017.05.025c.026.009.052.011.068.001.018-.01.026-.032.026-.055.001-.023-.008-.05-.008-.05zM217.02 390.497s-.026-.019-.052-.029c-.028-.01-.058-.013-.081-.002-.023.009-.038.032-.046.057-.007.023-.005.053-.005.053s.026.018.052.027a.115.115 0 00.081.004c.023-.01.038-.032.046-.058.006-.024.005-.052.005-.052zM217.331 390.578s-.019-.024-.042-.038a.094.094 0 00-.072-.019.08.08 0 00-.053.046c-.013.022-.017.05-.017.05s.019.024.042.038c.023.015.05.024.072.019a.08.08 0 00.053-.046c.013-.022.017-.05.017-.05zM216.335 390.892s-.02-.023-.042-.037a.095.095 0 00-.072-.019.08.08 0 00-.053.046c-.013.022-.017.05-.017.05s.019.024.042.038c.023.015.05.024.071.019a.082.082 0 00.054-.046c.013-.022.017-.051.017-.051zM226.919 388.566s-.019-.023-.042-.037c-.023-.015-.049-.024-.072-.019-.023.005-.041.023-.053.047-.012.022-.016.049-.016.049s.019.023.041.038c.022.016.049.025.072.019.023-.004.042-.023.054-.046.011-.022.016-.051.016-.051zM214.075 391.329s-.02-.023-.046-.038a.118.118 0 00-.085-.019.108.108 0 00-.071.046c-.018.022-.026.051-.026.051s.021.023.046.038a.133.133 0 00.087.019.115.115 0 00.07-.046c.018-.022.025-.051.025-.051zM212.876 391.524s-.022-.023-.051-.039a.178.178 0 00-.101-.019.152.152 0 00-.088.047c-.023.022-.034.05-.034.05s.022.024.051.039a.166.166 0 00.101.02.16.16 0 00.088-.048c.021-.022.034-.05.034-.05zM213.579 391.644s-.021-.023-.046-.038a.145.145 0 00-.087-.02.119.119 0 00-.071.047.186.186 0 00-.026.051s.021.023.047.038a.122.122 0 00.086.019.108.108 0 00.071-.046c.017-.022.026-.051.026-.051zM212.129 391.678s-.022-.024-.051-.038a.166.166 0 00-.101-.02.157.157 0 00-.088.046c-.023.023-.034.052-.034.052s.022.023.051.038a.16.16 0 00.101.019.15.15 0 00.088-.046c.023-.022.034-.051.034-.051zM236.382 389.237s-.019-.023-.041-.037a.1.1 0 00-.072-.02c-.023.004-.043.023-.054.046a.193.193 0 00-.015.051s.019.023.041.037a.09.09 0 00.072.02.089.089 0 00.054-.047c.011-.021.015-.05.015-.05zM237.752 388.687s-.024-.019-.051-.028c-.028-.01-.059-.014-.08-.003a.079.079 0 00-.046.057c-.008.025-.005.053-.005.053s.025.019.052.028a.106.106 0 00.08.003.082.082 0 00.045-.057c.008-.024.005-.053.005-.053zM238.063 388.963s-.019-.024-.041-.038a.105.105 0 00-.072-.02c-.023.005-.042.023-.054.047-.011.022-.015.05-.015.05s.019.023.041.037c.022.016.049.026.072.02.023-.005.042-.024.054-.047.011-.021.015-.049.015-.049zM237.255 389.084s-.019-.023-.042-.039c-.023-.015-.05-.024-.073-.018-.023.004-.041.023-.052.046a.157.157 0 00-.017.05s.019.023.042.038c.022.015.049.024.072.018.023-.004.042-.023.053-.046a.155.155 0 00.017-.049zM238.936 388.332s-.019-.023-.042-.038c-.022-.015-.048-.024-.071-.018-.023.003-.042.023-.054.045a.143.143 0 00-.016.05s.019.023.042.038c.023.016.049.025.071.019.024-.004.042-.024.054-.046a.172.172 0 00.016-.05zM240.87 387.587s.03.016.066.022a.187.187 0 00.112-.011.165.165 0 00.077-.07c.016-.029.019-.059.019-.059s-.031-.017-.067-.022a.185.185 0 00-.111.011.151.151 0 00-.077.07c-.016.028-.019.059-.019.059zM239.416 386.403s-.02-.023-.045-.038a.134.134 0 00-.086-.02.106.106 0 00-.071.047c-.018.022-.026.051-.026.051s.021.023.046.037a.124.124 0 00.087.02.11.11 0 00.07-.046c.018-.023.025-.051.025-.051zM238.524 386.638s-.025-.016-.051-.025c-.025-.009-.051-.011-.068-.001-.017.01-.026.031-.026.055 0 .023.008.05.008.05s.026.017.051.026c.025.008.052.01.069 0 .017-.009.025-.031.025-.055.001-.023-.008-.05-.008-.05zM232.273 387.937s-.024-.019-.051-.029c-.028-.01-.059-.013-.082-.003a.08.08 0 00-.044.057c-.008.024-.005.053-.005.053s.025.018.052.028c.027.01.057.013.08.003.023-.009.038-.032.045-.058.008-.024.005-.051.005-.051zM232.584 388.017s-.018-.023-.041-.038c-.023-.015-.05-.024-.073-.018-.023.004-.042.023-.053.046-.012.021-.015.049-.015.049s.019.023.04.038c.023.016.05.025.073.019.023-.004.042-.023.054-.046.011-.022.015-.05.015-.05zM231.588 388.332s-.018-.023-.041-.038c-.023-.015-.05-.024-.073-.018-.023.003-.042.023-.053.045-.012.022-.016.05-.016.05s.02.023.041.038c.023.016.05.025.073.019.023-.004.042-.024.053-.046a.172.172 0 00.016-.05zM242.235 386.007s-.02-.023-.041-.038c-.023-.015-.05-.024-.073-.019-.023.004-.042.023-.053.046a.172.172 0 00-.016.05s.018.023.041.038c.023.016.05.025.073.019.023-.005.042-.024.053-.047.012-.021.016-.049.016-.049zM229.33 388.77s-.02-.025-.046-.039a.135.135 0 00-.087-.02.115.115 0 00-.071.048c-.017.022-.024.05-.024.05s.019.023.046.037a.114.114 0 00.085.02.106.106 0 00.071-.047c.017-.022.026-.049.026-.049zM228.132 388.964s-.023-.023-.052-.038a.162.162 0 00-.101-.02.144.144 0 00-.088.047c-.022.022-.035.051-.035.051s.023.023.053.038a.172.172 0 00.1.02.155.155 0 00.088-.047c.022-.022.035-.051.035-.051zM228.832 389.085s-.021-.025-.046-.039a.131.131 0 00-.085-.02.11.11 0 00-.072.048.145.145 0 00-.025.05s.02.023.046.038a.12.12 0 00.086.019.106.106 0 00.07-.047c.018-.022.026-.049.026-.049zM227.385 389.118s-.023-.024-.053-.038a.152.152 0 00-.188.026c-.022.022-.035.051-.035.051s.023.024.053.038a.15.15 0 00.188-.026c.022-.023.035-.051.035-.051zM247.781 393.402s.01.026.025.046c.017.02.038.036.063.037.023.002.048-.011.067-.03.019-.017.033-.043.033-.043s-.01-.027-.026-.047a.087.087 0 00-.062-.037.092.092 0 00-.067.03c-.019.017-.033.044-.033.044zM246.349 393.574s.016.024.039.04c.022.017.05.028.075.025a.093.093 0 00.064-.042c.015-.022.023-.05.023-.05s-.017-.024-.039-.04a.1.1 0 00-.076-.024c-.025.003-.047.021-.063.043a.144.144 0 00-.023.048zM246.1 393.214s.01.026.026.046a.087.087 0 00.062.037c.024.003.048-.011.067-.029a.209.209 0 00.033-.043s-.01-.028-.025-.047c-.017-.021-.038-.037-.063-.038a.094.094 0 00-.067.03c-.019.018-.033.044-.033.044zM246.909 393.321s.009.026.026.046a.084.084 0 00.061.037c.024.003.048-.011.067-.029.019-.018.033-.043.033-.043s-.008-.028-.025-.047c-.017-.021-.038-.037-.062-.038a.098.098 0 00-.068.03c-.018.018-.032.044-.032.044zM245.103 393.595s.01.027.026.047c.016.021.038.036.062.037.023.003.049-.011.068-.029.019-.018.033-.044.033-.044s-.01-.026-.027-.046c-.015-.021-.038-.038-.061-.038-.024-.002-.048.011-.068.03-.019.018-.033.043-.033.043zM242.916 393.783s-.024-.023-.055-.039a.196.196 0 00-.111-.019.174.174 0 00-.098.047c-.025.022-.039.05-.039.05s.023.025.055.039a.196.196 0 00.111.02.193.193 0 00.098-.048c.025-.022.039-.05.039-.05zM243.92 395.299s.012.027.031.048a.119.119 0 00.075.042.13.13 0 00.084-.025c.024-.017.042-.042.042-.042s-.011-.028-.03-.048a.114.114 0 00-.075-.042.133.133 0 00-.085.025c-.024.017-.042.042-.042.042zM244.854 395.315s.018.023.039.037c.021.016.046.025.066.019.019-.004.034-.022.043-.045.009-.022.01-.049.01-.049s-.017-.023-.038-.039c-.021-.015-.046-.024-.065-.018-.02.004-.036.023-.044.046-.009.021-.011.049-.011.049zM251.267 395.732s.017.024.04.04c.022.018.05.028.075.025a.093.093 0 00.064-.042.184.184 0 00.023-.05s-.017-.024-.04-.04a.1.1 0 00-.075-.024c-.025.003-.047.021-.064.043a.171.171 0 00-.023.048zM250.956 395.572s.01.027.026.047a.09.09 0 00.062.038c.023.002.049-.011.068-.03a.209.209 0 00.033-.043s-.01-.027-.027-.047a.084.084 0 00-.061-.037c-.024-.003-.049.01-.068.029-.019.018-.033.043-.033.043zM252.015 395.545s.01.028.025.048c.017.02.04.036.063.037.023.002.048-.011.067-.03.019-.017.033-.044.033-.044s-.01-.026-.025-.046c-.017-.021-.04-.037-.063-.037-.024-.002-.048.011-.067.03-.019.017-.033.042-.033.042zM241.119 394.929s.008.027.025.047a.084.084 0 00.061.037c.024.002.049-.011.068-.029.019-.018.033-.043.033-.043s-.009-.028-.026-.047c-.016-.021-.038-.037-.062-.038-.023-.002-.047.011-.068.03a.151.151 0 00-.031.043zM254.318 395.728s.011.027.03.048a.113.113 0 00.075.041.123.123 0 00.084-.025c.024-.017.042-.041.042-.041s-.01-.028-.029-.048a.117.117 0 00-.075-.042.13.13 0 00-.085.025c-.024.017-.042.042-.042.042zM255.564 395.869s.012.029.035.051c.022.023.054.04.088.045a.167.167 0 00.101-.021c.029-.016.051-.04.051-.04s-.013-.028-.036-.049a.145.145 0 00-.089-.046.158.158 0 00-.099.022c-.03.014-.051.038-.051.038zM254.941 395.559s.011.029.03.05a.114.114 0 00.16.015c.024-.017.042-.041.042-.041s-.012-.028-.031-.048a.112.112 0 00-.074-.042.124.124 0 00-.084.026c-.024.016-.043.04-.043.04zM256.311 395.909s.012.029.035.05a.15.15 0 00.088.046.167.167 0 00.101-.021c.029-.015.051-.039.051-.039s-.013-.029-.036-.051a.144.144 0 00-.088-.045.165.165 0 00-.1.021c-.03.015-.051.039-.051.039zM254.319 391.212s-.008-.027-.023-.048c-.014-.022-.034-.039-.059-.041-.023-.003-.048.008-.068.026-.021.016-.037.04-.037.04s.007.029.021.048c.014.022.036.04.059.042.023.003.05-.009.07-.026.02-.017.037-.041.037-.041zM255.768 391.135s-.016-.026-.036-.043c-.022-.018-.049-.032-.073-.029a.093.093 0 00-.067.038.167.167 0 00-.028.047s.015.026.035.043a.106.106 0 00.074.029.093.093 0 00.067-.039c.017-.02.028-.046.028-.046zM256 391.507s-.008-.027-.023-.048c-.014-.022-.034-.039-.059-.041-.023-.003-.048.008-.068.025-.021.017-.037.041-.037.041s.007.029.021.048c.014.022.036.04.059.042.024.003.05-.009.07-.026.02-.016.037-.041.037-.041zM255.191 391.346s-.008-.027-.022-.048a.09.09 0 00-.059-.041c-.023-.003-.049.008-.07.026-.02.016-.037.04-.037.04s.008.029.023.049c.014.022.035.039.059.041.023.004.048-.007.069-.025.02-.016.037-.042.037-.042zM257.059 391.186s-.008-.028-.023-.049a.08.08 0 00-.059-.04c-.023-.005-.049.007-.069.025-.02.016-.037.041-.037.041s.008.027.022.048c.014.022.035.039.058.042a.1.1 0 00.071-.027c.02-.016.037-.04.037-.04zM259.175 391.132s.021.025.051.042a.182.182 0 00.21-.015c.028-.021.045-.048.045-.048s-.022-.025-.052-.042a.182.182 0 00-.211.015c-.027.02-.043.048-.043.048zM258.346 389.565s-.009-.028-.027-.05a.11.11 0 00-.071-.046.122.122 0 00-.086.02c-.025.015-.046.038-.046.038s.009.029.026.051a.12.12 0 00.071.046.135.135 0 00.087-.02c.025-.016.046-.039.046-.039zM257.406 389.484s-.016-.024-.035-.04c-.021-.016-.044-.026-.064-.023-.02.003-.037.021-.047.043-.012.021-.015.048-.015.048s.016.024.035.041c.021.016.044.026.064.023.02-.004.037-.021.047-.043.012-.021.015-.049.015-.049zM251.098 388.681s-.015-.025-.036-.043c-.021-.018-.048-.031-.074-.028a.091.091 0 00-.066.038c-.018.02-.028.047-.028.047s.015.026.036.043a.102.102 0 00.074.029c.025-.001.049-.018.066-.039a.167.167 0 00.028-.047zM251.33 388.853s-.007-.027-.021-.048c-.016-.022-.036-.038-.059-.041-.024-.004-.05.008-.07.026-.021.016-.037.04-.037.04s.007.028.021.049c.016.022.036.039.059.041.024.004.05-.008.07-.026.021-.016.037-.041.037-.041zM250.272 388.819s-.008-.027-.022-.048c-.015-.021-.036-.038-.06-.04-.023-.004-.048.007-.069.025-.02.016-.037.042-.037.042s.008.027.022.048c.015.022.036.038.059.04.024.004.049-.007.07-.025.02-.016.037-.042.037-.042zM248.01 388.499s-.009-.028-.027-.05a.112.112 0 00-.071-.046.13.13 0 00-.085.02c-.026.015-.046.038-.046.038s.009.029.026.051a.11.11 0 00.072.046.125.125 0 00.085-.021.18.18 0 00.046-.038zM246.807 388.28s-.01-.03-.031-.053a.148.148 0 00-.085-.05.163.163 0 00-.102.014c-.029.013-.054.036-.054.036s.01.03.031.053c.02.024.051.044.085.05a.171.171 0 00.102-.015.22.22 0 00.054-.035zM247.386 388.626s-.007-.028-.025-.05c-.018-.022-.044-.042-.072-.045a.122.122 0 00-.086.019c-.026.015-.045.039-.045.039s.008.028.026.05a.108.108 0 00.071.045.125.125 0 00.087-.019c.025-.015.044-.039.044-.039zM246.06 388.192s-.011-.028-.031-.051a.146.146 0 00-.084-.052.17.17 0 00-.102.015c-.031.014-.055.036-.055.036s.01.029.032.052c.02.024.05.045.084.051.035.006.072 0 .102-.016a.199.199 0 00.054-.035zM256 385.731s-.008-.028-.023-.049a.083.083 0 00-.059-.041c-.023-.004-.048.007-.068.025-.021.016-.037.042-.037.042s.007.027.021.048a.087.087 0 00.059.041.092.092 0 00.07-.026c.02-.016.037-.04.037-.04zM257.449 385.652s-.016-.026-.036-.043a.104.104 0 00-.073-.029c-.025.001-.05.018-.067.039-.018.019-.028.047-.028.047s.015.025.035.043a.11.11 0 00.074.028.09.09 0 00.066-.038c.018-.02.029-.047.029-.047zM257.681 386.026s-.008-.028-.022-.049c-.015-.022-.035-.038-.058-.041-.024-.004-.05.007-.07.026-.021.015-.037.041-.037.041s.007.027.021.048c.016.022.036.038.059.041a.092.092 0 00.07-.026c.021-.016.037-.04.037-.04zM256.87 385.865s-.007-.028-.021-.049a.09.09 0 00-.059-.041c-.023-.004-.05.009-.07.026-.02.017-.036.041-.036.041s.007.027.022.048a.083.083 0 00.059.041c.023.003.048-.008.069-.026.02-.016.036-.04.036-.04zM258.74 385.704s-.008-.027-.023-.048c-.014-.022-.035-.04-.059-.042-.023-.003-.048.008-.069.025-.02.017-.037.042-.037.042s.008.027.022.048c.015.022.036.039.058.041a.097.097 0 00.071-.025c.02-.017.037-.041.037-.041z"/>
    <path fill="#E4E4C5" d="M246.506 400.491c-1.565-.49-2.386.692-7.94 1.278-1.009.106-1.957-.304-2.908-.492-.878-.173-1.501-.751-2.199-1.113-1.977-1.024-3.085-1.154-5.036.317-1.204.91-1.983 2.073-1.754 3.538.453 2.694 8.342.855 11.637 2.511-2.912.071-4.662-.746-7.74-.511-2.38.184-4.887 1.479-7.103 1.049-2.267-.442-4.405-1.101-6.71-1.261-2.586-.178-5.084.062-7.635-.031a21.852 21.852 0 01-2.947-.294 27.3 27.3 0 00-2.321-.298c-3.572-.316-6.979-.039-10.739-.666-3.701-.617-8.017-.509-11.798-1.043-7.188-1.014-16.66-1.912-23.928-1.751-2.488.032-4.401.324-5.988-.08-1.732-.444-3.656-.568-5.699-.517-5.071.14-14.317-2.702-16.795 2.64 3.187.574 6.076 1.888 9.188 2.539 1.323.278 2.709-.08 3.55.833-4.026.383-8.565-1.508-12.502-2.397-3.682-.831-7.333-.59-10.238-2.559-3.121-2.117-4.221-2.908-8.161-2.072-8.243 1.748-17.025 6.451-29.273 2.153-2.823-.991-4.888-2.688-7.902-2.6-5.325.154-9.904 2.073-15.38.772-2.752-1.373-5.565-3.792-8.728-2.966-3.05.796-4.123 4.109-6.71 4.603-3.43.655-4.858.395-6.957 1.594-4.825 2.754-5.086 2.257-14.637-.801-2.585-.828-5.976 1.462-8.863 1.533-1.257.03-2.21.117-2.542.303v48.943c108.064-.215 133.626 0 229.888 0 0 0-.353-.434-.986-1.206-.633-.771-1.963-1.78-2.133-3.39-.169-1.586-.911-3.37-2.944-4.677-4.414-2.835-3.483-.977-4.422-3.946-.682-2.156-1.434-1.95-2.278-2.856-3.602-3.879-1.731-3.272-2.637-5.04-.551-1.068-2.068-1.769-3.568-2.255-.776-.253-1.389-.756-1.939-1.3-.691-.683-1.604-3.511-2.797-4.11-2.667-1.332-1.516.021-5.84-2.884-.649-.435-.657-1.213-1.14-1.533-5.344-3.542-5.383-6.735-9.694-7.596-5.855-1.163-3.116-2.781-7.954-3.648-.58-.105-.926-.569-1.335-.821-.836-.514-2.388-1.096-3.32-1.138-8.699-.384-7.128-.7-12.497-.55-3.935.108-5.641 1.85-12.21.335-1.377-.319-3.214-2.098-5.91-2.198-1.965-.061-3.969 1.06-5.929 1.21-1.045.081-2.016-.636-3.039-.822a27.752 27.752 0 01-3.064-.721c4.798.184 3.28.116 5.874.686 1.362.299 2.921-.849 5.684-1.067 2.27-.16 4.409 1.025 6.37 1.489 8.664 2.04 8.546-.988 19.492.648 4.206.63 5.183-.724 11.448 2.283 9.163 4.398 9.283 3.779 11.917 6.119 1.279 1.135 2.355 2.605 3.988 3.376 2.733 1.289 2.468 2.792 3.532 3.466 2.104 1.331 4.847 2.804 4.847 2.804.789.555 1.106 1.582 2.022 2.079 1.03.56 1.673 1.414 2.609 1.978 2.444 1.475 3.519 1.323 4.434 4.093.727 2.201.204 2.711 2.748 3.579 1.075.367 1.813 1.184 2.693 1.804.362.256.371.441 1.094 2.711.866 2.711 2.771 2.444 3.394 3.492 1.403 2.353 1.933 2.558 2.248 3.749.55 2.078 2.687 4.646 7.265 5.871l19.099-.014v-50.719c-16.69-.075-13.615-.986-18.252-2.435z"/>
    <path fill="#C5BE8B" fill-rule="evenodd" d="M86.777 403.66h-.32l.137-.406c.186.089.247.224.183.406zM99.88 404.434c-.297.204-.259.545-.686.731-.18-.697.359-.506.685-.731zM104.072 404.759c-.335.094-.441-.015-.32-.325.335-.096.442.013.32.325zM90.442 405.043c-.164.563-.412.487-.685 0h.685zM102.62 405.655c-.43-.236-.97.306-.822-.488.989-.252.515.319.822.488zM96.497 406.102a.677.677 0 01-.502.284c-.142-.331-.082-.63.182-.893.216.153.32.358.32.609zM100.977 405.893c-.324.097-.391.429-.822.488.007-1.056.455-.431.822-.488zM58.983 401.308c-.551.142-1.04-.005-1.416-.406a2.44 2.44 0 001.416.406zM64.926 402.2l.457-.366c-.785.776-1.483.823-1.964-.121.428.356.936.53 1.507.487zM141.838 402.525c.149.175.476-.437.365.285-.768.242-.625-.324-1.141-.772.367-.032.628.16.776.487zM72.703 402.608c-.192-.275-.445.071-.365-.406.71-.131.18.141.365.406zM237.881 403.134c-.197-.218-.582.02-.685-.528l.365-.203c.312.283.095.481.32.731zM245.954 402.929c-.351.053-.431.372-.913.325.13-.706.432-.251.913-.325zM71.991 403.257c-.604.191-1.16.082-1.598-.325.549.003 1.275.151 1.598.325zM241.742 403.131a4.476 4.476 0 01-.686.122c.023-.5.329-.387.686-.122zM145.603 403.133c-.173.677-.502.532-.868 0h.868zM67.86 403.538h-.456c.197-.381.362-.429.457 0zM249.823 403.66c-.403.088-.555-.048-.457-.406.25.042.398.18.457.406zM127.945 406.264c-.341.542-.744.443-1.142-.081.31.031.748.063 1.142.081zM46.677 414.925l-.256-.013.075-.324c.135.091.257.201.181.337zM56.766 417.014c-.263.129-.328.398-.69.5-.048-.571.4-.357.69-.5zM59.915 417.648c-.278.038.058.025.197-.209.277-.038-.058-.025-.197.209zM49.545 416.427c-.206.428-.857.305-1.007-.11l1.007.11zM58.696 418.209c-.308-.232-.867.183-.641-.429.816-.093.42.262.641.429zM53.912 417.885c-.116.119-.021.225-.196.221-.067-.277-.155-.502.09-.683.149.146.14.263.106.462zM57.722 418.248c-.27.041-.492.296-.84.296.149-.833.542-.29.84-.296zM56.962 415.286l-.13-.024-.013-.239c.158.056.176.114.143.263zM67.928 414.782c-.215.187-.281.431-.601.612-.216-.539.365-.406.601-.612zM70.785 414.762c-.256.104-.378.018-.313-.239.257-.103.378-.018.314.239zM60.043 416.089c-.072.461-.092.436-.36.072l.36-.072zM70.25 415.541c-.367-.153-1.137.364-1.101-.279.76-.281.838.169 1.1.279zM65.462 416.344a.742.742 0 01-.442.318c-.147-.252-.554-.408-.372-.64.187.106.788.122.814.322zM68.636 415.855c-.247.103-.06.37-.396.452-.103-.839.11-.377.396-.452zM76.822 416.907l-.328-.134.452-.195c.11.116-.016.21-.124.329zM84.967 417.496l-.192-.07.301-.244c.122.105-.015.187-.11.314zM97.209 417.397l-.27-.068-.084-.375c.123.103.446.315.354.443zM132.914 417.26l-.32-.116.317-.318c.118.108.101.309.003.434zM142.852 417.764l-.179-.018-.117-.383c.143.08.359.26.296.401zM158.62 409.251l.014-.011.141-.416c.047.145-.004.358-.155.427zM165.459 416.365c-.299-.036-.504.134-.862.021.347-.483.534-.061.862-.021zM159.804 411.835c-.453.233-.596.075-.436-.337l.436.337zM166.152 418.407c-.09-.35-.712-.333-.119-.703.715.362.055.453.119.703zM162.686 415.81c-.172.033-.317-.035-.455-.132.134-.257.164-.588.482-.601.021.195.134.593-.027.733zM165.152 417.753c-.244-.111-.402.095-.68-.092.681-.587.438-.063.68.092zM256.943 416.91l.4-.017-.201.335c-.154-.062-.239-.17-.199-.318zM246.598 416.898c.225-.177.16-.44.491-.608.184.549-.244.413-.491.608zM243.067 416.861c.262-.092.45 0 .371.255-.262.091-.45-.001-.371-.255zM254.318 415.968c.097-.457-.025-.393.222-.018l-.222.018zM244.576 416.096c.357.168.333-.34.261.301-.775.247-.006-.18-.261-.301zM249.368 415.447c.085-.138-.186-.26-.014-.29.133.26.189.484-.006.706-.181-.113.035-.216.02-.416zM245.601 415.832c.253-.092.236-.401.577-.467.056.842-.287.403-.577.467zM229.662 416.176c.274-.11.576-.282.946-.355-.005.572-.645.234-.946.355zM226.925 415.323c.28-.018.037.007-.123.23-.28.018-.038-.008.123-.23zM237.32 417.375c.245-.41.643-.275.754.149l-.754-.149zM228.292 414.849c.286.255.852-.009.569.585-.821.032-.365-.403-.569-.585zM232.998 415.504c.128-.109-.008-.208.165-.19.041.281-.158.472-.418.633-.135-.156.201-.248.253-.443zM229.6 414.978c.273-.022.353-.282.701-.254-.228.819-.404.27-.701.254zM77.93 408.73l-.252-.009.158-.366c.102.119.21.262.094.375zM86.848 413.053c-.293.061-.385.396-.765.405.13-.561.443-.338.765-.405zM90.114 414.682c-.28-.031-.478-.233-.273-.423.28.03.478.232.273.423zM79.763 410.737c-.33.36-.182.398-.199-.037l.199.037zM88.58 414.884c-.226-.3-1.048-.184-.643-.719.814.11.482.504.642.719zM83.89 413.301c-.147.084-.38.163-.546.116a.717.717 0 01.467-.639c.098.176.173.339.08.523zM87.301 414.52c-.272-.027-.323.308-.658.223.4-.765.37-.29.658-.223zM85.328 412.799l-.358.186-.07-.318c.17-.006.39-.016.428.132zM94.519 408.649c-.111.248.224.415.015.698-.444-.415-.137-.424-.015-.698zM97.653 407.362c-.187.186-.615.231-.674-.027.187-.186.615-.232.674.027zM88.584 412.409c.145.447-.346.598-.758.362l.758-.362zM96.902 408.565c-.404-.007-.408.437-.67-.164.565-.531.381.159.67.164zM92.847 411.076c-.005.157.242.116.104.211-.25-.177-.442-.289-.381-.566.219.028.162.183.278.355zM96.081 409.179c-.179.183-.085.457-.355.652-.478-.728.129-.48.355-.652zM107.722 410.55l-.08.008-.016-.374c.127.1.183.234.096.366zM118.06 413.321c-.273.112-.724.225-1.094.3 0-.572.794-.177 1.094-.3zM121.028 414.215c-.28.02-.078-.112.08-.336.28-.02.078.112-.08.336zM110.422 412.209c-.241.412-.44.276-.554-.148l.554.148zM119.726 414.607c-.287-.254-.913.07-.637-.526.822-.037.432.345.637.526zM114.712 413.946c-.125.11.029.273-.144.257-.044-.281-.21-.625.05-.788.136.155.145.335.094.531zM118.159 414.524c-.272.023-.036.379-.384.353.22-.82.087-.367.384-.353zM36.476 417.845c-.079.258.136.403-.036.704-.494-.367-.05-.419.036-.704zM39.086 416.387c-.163.204-.232.084-.323-.168.163-.204.232-.083.323.168zM38.883 417.396c-.403.034-.78.885-1.116.314.494-.585.828-.29 1.116-.314zM240.218 413.495l-.255.071-.401-.065c.168-.013.612-.153.656-.006zM249.298 409.011c-.099.252-.172.621-.368.911-.462-.399.26-.634.368-.911zM252.046 407.709c-.178.193-.21.109-.28-.146.177-.194.21-.11.28.146zM243.195 413.073c.166.44-.036.527-.458.306l.458-.306zM251.856 408.703c-.404.009-.611.622-.9.031.539-.552.611-.025.9-.031zM247.776 411.365c.002.157-.007.359-.141.459-.257-.168-.645-.321-.598-.601.221.02.615-.026.739.142zM250.732 409.494c-.17.19-.14.557-.402.762-.511-.71.184-.582.402-.762zM207.994 408.576c-.288.077-.243.394-.622.424.089-.567.305-.34.622-.424zM210.761 409.787c-.282-.014-.263-.071-.073-.273.282.014.264.071.073.273zM200.805 406.69c-.303.379-.795.113-.842-.319l.842.319zM209.585 410.169c-.245-.286-.698.063-.333-.494.82.063.157.29.333.494zM205.177 408.987c-.142.093-.749.036-.918-.001.001-.283.145-.501.427-.631.111.17.571.444.491.632zM208.284 409.94c-.273-.009-.26.256-.601.189.344-.786.307-.239.601-.189zM34.947 408.649c-.048.264-.082.727-.218 1.042-.534-.319.165-.752.218-1.042zM37.481 406.902c-.137.218-.341.262-.461.022.137-.219.341-.264.461-.022zM37.185 408.236c-.397.071-.324.515-.726-.02.423-.629.442.071.726.02zM33.955 411.28c.033.155.075.291-.037.409-.286-.124-.377-.444-.385-.726.22-.015.268.171.422.317zM36.254 409.152c-.13.214.274.277.057.519-.643-.62-.237-.307-.057-.519zM62.975 410.541c-.294.056-.484.253-.863.254.142-.559.54-.193.863-.254zM65.632 411.913c-.279-.035-.145-.054.065-.241.278.035.144.054-.065.241zM55.662 407.91c-.338.355-.266.269-.272-.165l.272.165zM64.461 412.231c-.217-.303-.584.015-.166-.512.811.125.01.295.166.512zM59.979 410.659a.951.951 0 01-.607.062c.028-.282.044-.549.338-.657.094.178.367.414.269.595zM63.227 411.841c-.271-.03-.658.184-.99.091.417-.757.703-.163.99-.091zM174.31 408.634l-.185-.046-.188-.321c.137.088.446.229.373.367zM184.469 410.539c-.261.134-.266.35-.627.455-.058-.571.34-.307.627-.455zM187.794 411.126c-.277.043-.431-.024-.297-.259.276-.043.431.024.297.259zM177.099 410.078c-.197.431-.577.35-.734-.061l.734.061zM186.577 411.769c-.312-.228-.784.119-.57-.496.815-.105.346.332.57.496zM181.902 411.518c-.113.119-.51.205-.684.203-.073-.276-.12-.548.122-.732.152.142.593.33.562.529zM185.304 411.733c-.268.045-.31.35-.658.355.134-.836.361-.345.658-.355zM184.622 412.536l-.039.042.029-.376c.123.103.102.204.01.334zM194.466 415.479c-.277.105-.42.386-.792.452.019-.573.488-.336.792-.452zM197.92 416.55c-.281.013-.229-.079-.064-.299.281-.013.229.079.064.299zM186.923 414.225c-.255.405-.246.34-.347-.086l.347.086zM196.401 416.956c-.279-.26-.677.051-.381-.538.822-.016.182.352.381.538zM191.812 416.281c-.129.108-.7-.018-.873-.039-.033-.282.12-.505.385-.662.131.158.544.507.488.701zM195.239 416.876c-.273.017-.658.158-1.005.126.245-.815.708-.146 1.005-.126zM253.298 411.374c-.299-.027-.547.13-.91.03.326-.494.581-.059.91-.03zM255.237 413.305c-.254-.109-.216-.123.048-.245.254.108.214.123-.048.245zM247.247 407.002c-.442.247-.464.053-.323-.363l.323.363zM254.218 413.439c-.105-.348-1.108-.62-.532-1.009.731.337.458.759.532 1.009z" clip-rule="evenodd"/>
    <path fill="#C5BE8B" fill-rule="evenodd" d="M250.426 410.712c-.171.038-.512-.034-.653-.126.122-.263.326-.411.644-.435.029.195.164.415.009.561zM253.002 412.717c-.248-.102-.577-.051-.863-.228.655-.61.615.082.863.228zM32.12 399.237l-.393.028.395-.347c.156.058.034.17-.002.319zM42.79 398.931c-.217.184-.026.368-.349.546-.207-.542.11-.344.35-.546zM45.98 398.909c-.258.099-.026-.021.043-.278.258-.1.026.022-.043.278zM35.112 400.05c-.079.459-.321.455-.583.087l.583-.087zM44.881 399.693c-.364-.157-.617.287-.571-.356.764-.271.311.244.571.356zM40.038 400.471c-.08.14-.327.272-.497.307-.143-.254.25-.58.436-.808.186.107.038.301.06.501zM43.656 399.959c-.25.1-.181.415-.52.492-.089-.84.232-.42.52-.492zM33.79 403.389l-.501-.004-.005-.305c.148.073.56.166.505.309zM44.103 404.132c-.24.161-.04.454-.384.597-.135-.558.12-.42.384-.597zM47.654 404.451c-.269.072-.5-.029-.399-.276.27-.072.501.028.4.276zM36.416 404.563c-.138.448-.18.349-.392-.042l.392.042zM45.953 405.131c-.341-.193-.757.239-.628-.396.794-.191.384.258.628.396zM41.382 405.432c-.097.131.046.209-.128.226-.109-.267-.597-.526-.382-.735.17.125.513.309.51.509zM45.043 405.324c-.26.075-.58.374-.925.415.02-.843.63-.372.925-.415zM198.298 404.599l-.079-.051.181-.282c.111.114.005.213-.102.333zM54.003 405.971l-.546-.275.531-.089c.1.121.132.253.015.364zM245.975 404.249l.005.024.1-.315c.053.144.044.217-.105.291zM31.938 398.581l-.21.08.252-.373c.157.055-.01.143-.042.293zM42.537 398.06c-.213.189-.294.483-.613.666-.22-.538.378-.459.613-.666zM35.29 399.327c-.069.46-.553.527-.823.163l.823-.163zM44.994 398.865c-.367-.152-1.218.336-1.187-.308.758-.285.924.199 1.187.308zM40.008 399.673c-.076.142-.128.233-.297.271-.149-.252-.063-.445.118-.678.187.104.151.209.179.407z" clip-rule="evenodd"/>
    <path fill="#C5BE8B" fill-rule="evenodd" d="M43.375 399.164c-.247.105-.338.412-.674.494-.109-.837.389-.417.674-.494z" clip-rule="evenodd"/>
  </g>
  <path fill="#C5BE8B" fill-rule="evenodd" d="M50.103 396.181l-1.005.204c.129-.56.498-.56 1.005-.204zM41.83 396.183c-.547.473-1.03.56-1.324 0 .458.217.905.235 1.325 0zM47.041 396.182c-.295.183.2.459-.456.325-.151-.651.163-.145.456-.325zM45.864 397.952c-.256.105-.36.082-.297-.176.256-.105.36-.081.297.176z" clip-rule="evenodd"/>
  <path fill="#EEDEC4" d="M209.061 406.223l-51.058-31.039-1.438 1.786 47.229 28.662c.764.068 1.536.162 2.32.298.996.174 1.976.257 2.947.293z"/>
  <path fill="#EC8888" fill-rule="evenodd" d="M232.353 394.007c-.406 1.327-1.056 2.207-1.839 2.976-.223.218-.456.428-.697.635-1.116.961-2.455 1.868-3.633 3.555-.52.744-.484 1.827-1.634 2.36-.187.087-1.574.44-2.705-.202-6.913.743-17.657 2.808-23.403 1.693l-.007.002c-3.474-.003-8.664-2.908-17.623-2.35-7.61.474-15.096-.792-22.374-1.382l-6.17-.121 1.593-4.185 6.954-4.16 5.075.736 2.878.419 3.151.458c0 .022 5.121.904 7.943.739 1.419-.084 3.138.085 4.668.49 6.589 1.746 16.088 4.178 30.898 4.284 5.307-.287 11.011-2.525 14.78-5.77 1.014-.874.874-1.521 2.215-1.658.481-.05.153.752-.07 1.481z" clip-rule="evenodd"/>
  <path fill="#F29998" fill-rule="evenodd" d="M232.331 394.007c-.405 1.327-1.056 2.207-1.839 2.976-2.056 1.391-4.543 3.542-7.047 4.216-3.748 1.01-7.636.164-11.563.203-4.522.633.034 1.118-17.213-1.359-14.035-.116-19.764-1.018-22.696-1.906-2.837-.861-6.984-.383-8.507-1.493-2.218-.041-1.222-2.291 2.402-3.08l2.878.419 3.152.458c0 .022 5.12.904 7.942.739 1.419-.084 3.138.085 4.668.49 6.589 1.746 16.088 4.178 30.898 4.284 5.307-.287 11.011-2.525 14.78-5.77 1.014-.874.874-1.521 2.215-1.658.481-.05.153.752-.07 1.481z" clip-rule="evenodd"/>
  <path fill="#F29998" fill-rule="evenodd" d="M222.66 405.24a8.694 8.694 0 01-.575.122l-.141.023a10.074 10.074 0 01-1.849.111l-.225-.008a12.555 12.555 0 01-.274-.013c-.127-.007-.256-.017-.383-.025l-.008-.001a30.502 30.502 0 01-.406-.036c-.337-.032-.678-.071-1.022-.11-.093-.011-.188-.024-.281-.033a19.019 19.019 0 00-.344-.04 16.905 16.905 0 00-4.413.048c-.946.132-1.646.288-2.222.265-.509-.021-.918-.178-1.314-.61a4.318 4.318 0 01-.133-.156c-.426-.545-.489-1.876-.713-2.489a13.092 13.092 0 00-.42-.583c-4.47-5.861-12.888-6.691-16.455-9.189-2.168-1.517-6.359-5.665-6.823-8.119-.072-.371-.056-.703.062-.98-1.09.241-3.087 1.429-4.006 1.985l-.321.196a90.57 90.57 0 00-.926.582c-.982.626-2.485 1.642-2.485 1.642a344.24 344.24 0 00-2.396 1.618c-7.33 4.996-12.319 8.784-16.766 10.856l-.237.108a24.417 24.417 0 01-1.667.682c-2.41.877-4.779 1.234-7.491 1.041-.081-.005-.162-.012-.244-.019l-.349-.031a21.993 21.993 0 01-1.033-.126l-.018-.002c-.348-.05-.702-.109-1.063-.174a34.75 34.75 0 01-1.509-.318 44.55 44.55 0 01-1.146-.286c-1.752-6.459 2.75-12.485 8.19-14.198 2.119-1.266 6.245-3.062 11.219-4.872 6.607-2.406 14.71-4.836 21.588-6.078 4.159-.753 5.665.482 7.737 3.534 4.16 6.245 9.653 10.67 15.249 15.881 5.127 4.776 9.928 7.048 10.76 7.291 1.27.369 3.715 1.087 4.793 1.687.146.082.266.16.355.235l.037.032.051.052.027.033.023.032c.114.179.002.331-.433.44z" clip-rule="evenodd"/>
  <path fill="#EC8888" fill-rule="evenodd" d="M222.687 405.243a10.069 10.069 0 01-.575.122l-.142.023-.196.029a10.707 10.707 0 01-1.877.074 8.114 8.114 0 01-.274-.013c-.128-.006-.257-.016-.384-.025l-.008-.001-.405-.035c-.346-.032-.686-.072-1.023-.111l-.28-.033c-.115-.013-.23-.028-.345-.04-.438-.05-.868-.095-1.286-.121-1.236-.095-2.26.029-3.127.17-.886.143-1.607.305-2.222.264-.502-.033-.928-.197-1.313-.61a3.02 3.02 0 01-.134-.156c-.412-.548-.27-1.97-.713-2.488-.135-.2-.275-.395-.419-.583-4.471-5.862-12.889-6.692-16.456-9.19-2.168-1.517-6.359-5.665-6.823-8.119-.047-.36-.031-.69.063-.98-1.091.241-3.087 1.429-4.007 1.985l-.321.197c-.317.196-.629.393-.926.582-.981.625-2.485 1.641-2.485 1.641-.823.551-1.622 1.092-2.396 1.619-7.135 4.872-12.259 8.763-16.765 10.855l-.237.108a23.247 23.247 0 01-1.668.682c-2.412.873-4.783 1.231-7.491 1.041l-.244-.018-.349-.032a27.075 27.075 0 01-1.033-.125l-.018-.003a28.25 28.25 0 01-2.571-.492l.032-.016c.763-.37 2.024-.324 2.885-.511 5.197-1.128 9.92-3.828 14.159-6.276 28.767-16.6 21.536-13.185 28.428-6.882 4.836 4.422 10.101 6.078 14.79 9.338 2.163 1.505 3.624 3.645 5.707 5.23 3.225 2.458 4.686 2.149 8.957 2.541 1.935.18 2.004-.056 3.432-.464.145.081.265.159.354.235.013.011.026.02.037.031a1.213 1.213 0 01.078.085.319.319 0 01.023.032c.115.179.002.331-.432.44z" clip-rule="evenodd"/>
  <path fill="#682585" fill-rule="evenodd" d="M151.486 386.914c-6.322 1.816-9.611 8.902-8.397 14.26-2.168.092-9.499-.543-9.499-1.961 0-1.115 4.396-2.611 5.652-3.639 2.916-2.391 6.703-6.697 12.244-8.66z" clip-rule="evenodd"/>
  <path fill="#C5BE8B" fill-rule="evenodd" d="M53.76 395.293c-.097.242-.082.418-.365.487v-.609c.124.034.246.075.365.122z" clip-rule="evenodd"/>
  <path fill="#C18BD9" fill-rule="evenodd" d="M72.235 399.744c4.462.219 8.032 2.984 12.24 4.192 7.59 1.961 15.016.152 25.907-3.128 1.965-.593 2.136-.75 3.008-.75.791 0 1.698.006 2.94 1.076 1.306 1.125 4.696 3.216 7.425 3.216 4.621 0 8.368-2.88 11.807-5.759 4.986-4.189 13.771-11.072 19.167-15.97.978.36 1.211.191 1.49-.13.257-.291.056-1.059-.27-1.329 6.814-9.798 20.797-23.363 27.118-51.977.974.419 1.44-.558 1.395-.901-.044-.328-.447-.913-1.128-.792-.696-2.466-.646-5.254-1.013-7.778-1.543-10.614-5.771-22.167-12.139-31.327-.347-.499.221-1.056-.093-1.295-.13-.099-.417-.092-.716-.084-.301.007-.615.015-.801-.084-7.191-3.813-22.129-8.924-39.681-8.924-26.691 0-51.371 13.81-60.632 27.243-1.123 1.628-1.943 3.907-2.945 5.542-1.28 2.086-3.1 3.677-4.87 5.77-3.68 4.35-5.55 8.815-7.047 13.98-1.523 5.254-5.369 3.374-7.357 15.735-2.392 14.877 1.233 26.469 2.234 33.56.893 6.324 1.055 14.139 8.391 19.855 5.454 4.251 14.503.058 15.57.058v.001z" clip-rule="evenodd"/>
  <path fill="#A47DB5" fill-rule="evenodd" d="M166.757 286.588c-14.708-1.133-29.045-1.109-44.088 4.168-25.89 9.083-41.983 29.852-41.983 29.852-2.091-.754 5.97-22.143 17.408-31.994 6.459-5.561 14.906-9.655 25.609-10.147 8.329-.383 27.838.567 43.055 8.121h-.001z" clip-rule="evenodd"/>
  <path fill="#FFC7A0" fill-rule="evenodd" d="M109.225 280.855c-27.024 12.591-28.649 37.068-31.09 38.981-3.424-8.044-2.574-20.146 4.39-26.761 4.085-3.882 20.346-11.369 26.7-12.22zM167.858 287.819c10.009 10.172 13.926 28.855 14.295 39.409-40.409-14.249-84.603-10.295-99.308-5.404.204-2.277 31.741-42.743 85.013-34.005z" clip-rule="evenodd"/>
  <path fill="#A47DB5" fill-rule="evenodd" d="M77.105 319.549c.15.511-.268 1.753-.627 2.205-2.113.224-3.216-1.111-4.616-2.388-2.537-2.314-6.063-4.941-5.364-8.995.97-5.631 9.686-13.258 14.007-16.406-4.123 6.243-4.978 11.089-4.978 16.035 0 3.134.501 6.305 1.578 9.549z" clip-rule="evenodd"/>
  <path fill="#FFC7A0" fill-rule="evenodd" d="M74.1 323.23c-.623.356-1.768.607-2.127.716-6.198 1.891-11.77 3.684-17.458 6.699.297-6.085 6.214-15.062 11.235-19.18 0 4.584 6.995 8.18 8.35 11.765z" clip-rule="evenodd"/>
  <path fill="#A47DB5" fill-rule="evenodd" d="M178.835 327.56c4.13 1.326 3.034 2.442 2.056 5.885-5.733 20.182-12.056 28.984-25.9 47.046-25.588-16.726-62.017-46.083-67.392-50.54-1.586-1.314-6.217-3.94-5.072-5.748 2.281-3.602 59.904-8.328 96.308 3.357z" clip-rule="evenodd"/>
  <path fill="#FFC7A0" fill-rule="evenodd" d="M123.932 403.608c-11.619-.775-46.816-40.388-45.667-71.463.12-3.229.612-2.863 2.642-4.916 33.923 28.279 44.267 37.478 72.982 54.947-12.7 10.905-24.046 21.826-29.956 21.432h-.001z" clip-rule="evenodd"/>
  <path fill="#A47DB5" fill-rule="evenodd" d="M70.521 330.108c-.89.8-1.734 1.639-2.57 2.482-10.812 10.904-18.132 24.413-20.07 38.723-2.112-10.062-3.297-21.457.609-31.3 2.601-6.556 7.88-9.733 14.123-12.046 2.409-.891 4.968-1.637 7.558-2.434 1.093-.336 3.65-1.514 4.076.041.436 1.587-2.058 3.033-3.726 4.533v.001zM76.517 332.468c0 39.026 34.705 67.127 34.769 67.238-7.246 2.305-18.148 6.348-27.645 3.189-2.257-.75-4.207-2.021-6.393-2.864-4.147-1.601-5.688.566-10.412-11.083-7.944-19.595-.743-45.843 6.237-57.8.538-.922 1.683-3.683 3.255-2.62 1.098.741-.202 2.861.189 3.94z" clip-rule="evenodd"/>
  <path fill="#FFC7A0" fill-rule="evenodd" d="M70.684 399.709c-2.928.656-8.404 2.019-11.323.731-17.77-7.844-12.304-53.072 14.097-71.556-12.243 20.447-17.64 48.91-2.774 70.825z" clip-rule="evenodd"/>
  <path fill="#A47DB5" d="M77.58 328.1c-2.379 0-3.438-2.498-2.106-3.59a.298.298 0 01.194-.069c.291 0 .668.372 1.02.745.351.373.678.745.87.745.112 0 .179-.125.179-.448 0-.988-4.027-1.688-3.007-2.973a.907.907 0 01.749-.362c.541 0 1.195.366 1.844.733.65.366 1.295.733 1.82.733.21 0 .4-.059.563-.2 1.456-1.254-3.16-.587-2.322-1.91.249-.393.889-.582 1.613-.582 1.188 0 2.604.509 2.896 1.468.678 2.23-.748 4.895-3.322 5.575-.35.093-.682.135-.99.135z"/>
  <path fill="#CCC" d="M116.728 437.161l-5.443 15.198h-3.181l-3.18-9.029-3.245 9.029h-3.18l-5.422-15.198h4.077l3.116 9.584 3.394-9.584h2.733l3.265 9.755 3.266-9.755h3.8zM128.24 441.515v10.844h-3.799v-1.473c-.313.512-.769.918-1.367 1.217a4.513 4.513 0 01-1.963.427c-.925 0-1.751-.228-2.477-.683-.725-.456-1.295-1.103-1.707-1.943-.399-.854-.598-1.836-.598-2.946 0-1.124.206-2.12.619-2.988.413-.868.982-1.544 1.708-2.028a4.325 4.325 0 012.455-.726c.711 0 1.359.157 1.942.47.598.299 1.06.704 1.388 1.217v-1.388h3.799zm-5.934 8.133c.683 0 1.21-.235 1.58-.704.37-.47.555-1.146.555-2.028 0-.897-.185-1.58-.555-2.05-.37-.483-.897-.725-1.58-.725-.669 0-1.195.249-1.58.747-.384.484-.576 1.174-.576 2.07 0 .868.185 1.537.555 2.007.37.455.904.683 1.601.683zM138.093 452.359l-3.693-4.675v4.675h-3.863v-15.711h3.863v9.393l3.629-4.505h4.568l-4.269 5.188 4.44 5.635h-4.675zM154.631 441.515v10.844h-3.8v-1.473c-.313.512-.768.918-1.366 1.217a4.514 4.514 0 01-1.964.427c-.925 0-1.75-.228-2.476-.683-.725-.456-1.295-1.103-1.707-1.943-.399-.854-.598-1.836-.598-2.946 0-1.124.206-2.12.619-2.988.413-.868.982-1.544 1.708-2.028.725-.484 1.544-.726 2.454-.726.712 0 1.359.157 1.943.47.598.299 1.06.704 1.387 1.217v-1.388h3.8zm-5.934 8.133c.683 0 1.209-.235 1.579-.704.37-.47.555-1.146.555-2.028 0-.897-.185-1.58-.555-2.05-.37-.483-.896-.725-1.579-.725-.669 0-1.196.249-1.58.747-.384.484-.576 1.174-.576 2.07 0 .868.185 1.537.555 2.007.37.455.904.683 1.601.683zM162.307 452.53c-1.836 0-3.273-.498-4.312-1.495-1.039-.996-1.559-2.355-1.559-4.077 0-1.138.249-2.141.748-3.009a5.184 5.184 0 012.134-2.007c.911-.484 1.964-.726 3.159-.726.797 0 1.58.121 2.348.363.769.228 1.381.541 1.836.939l-.982 2.669a4.55 4.55 0 00-1.345-.747 4.33 4.33 0 00-1.472-.278c-.797 0-1.409.228-1.836.683-.427.456-.641 1.131-.641 2.028 0 .911.214 1.601.641 2.071.427.455 1.046.683 1.857.683.47 0 .953-.093 1.451-.278a4.55 4.55 0 001.345-.747l.982 2.626c-.469.412-1.096.732-1.878.96a8.67 8.67 0 01-2.476.342z"/>
  <path fill="#CCC" d="M165.288 453.896c.412.099.761.149 1.046.149.455 0 .832-.135 1.131-.405.299-.256.448-.655.448-1.196v-10.929h3.864v10.972c0 1.466-.384 2.611-1.153 3.437-.754.825-1.864 1.238-3.33 1.238-.825 0-1.494-.1-2.006-.299v-2.967zm6.531-17.696v3.479h-4.034V436.2h4.034zM184.095 447.321h-6.81c.072.84.313 1.445.726 1.815.413.37 1.018.555 1.815.555.54 0 1.081-.086 1.622-.256a5.736 5.736 0 001.473-.748l.982 2.562c-.541.398-1.196.711-1.964.939a8.074 8.074 0 01-2.306.342c-1.238 0-2.312-.228-3.223-.683-.911-.456-1.608-1.103-2.092-1.943-.484-.854-.725-1.857-.725-3.01 0-1.095.227-2.07.683-2.924a5.172 5.172 0 011.921-2.028c.825-.484 1.764-.726 2.817-.726 1.025 0 1.922.228 2.69.683.769.456 1.359 1.11 1.772 1.964.412.84.619 1.822.619 2.946v.512zm-4.974-3.458c-.953 0-1.551.555-1.793 1.665h3.458c-.142-1.11-.697-1.665-1.665-1.665zM188.294 450.16v2.199h-2.198v-2.199h2.198zM191.122 441.579h2.646v10.78h-2.646v-10.78zm2.796-4.888v2.625h-2.967v-2.625h2.967zM202.856 441.302c2.576 0 3.864 1.48 3.864 4.44v6.617h-2.668v-6.489c0-.854-.164-1.473-.491-1.857-.328-.399-.833-.598-1.516-.598-.811 0-1.466.263-1.964.79-.498.512-.747 1.195-.747 2.049v6.105h-2.647v-7.727c0-1.139-.057-2.156-.17-3.053h2.497l.192 1.772c.37-.655.868-1.16 1.494-1.516.641-.355 1.359-.533 2.156-.533zM99.601 462.699c.561.156.997.441 1.309.855.313.404.469.909.469 1.516 0 .854-.285 1.516-.854 1.984-.57.46-1.374.689-2.412.689h-4.08v-9.812h3.942c1.001 0 1.778.225 2.329.675.56.441.841 1.07.841 1.888 0 .524-.138.979-.414 1.365-.266.376-.643.656-1.13.84zm-4.451-.413h2.646c.735 0 1.29-.147 1.667-.441.377-.294.565-.726.565-1.296 0-1.121-.744-1.681-2.232-1.681h-2.647v3.418zm2.866 4.52c.772 0 1.337-.142 1.695-.427.368-.294.552-.74.552-1.337 0-1.203-.75-1.805-2.247-1.805H95.15v3.569h2.867zM103.276 460.811h1.117v6.932h-1.117v-6.932zm1.254-2.935v1.267h-1.364v-1.267h1.364zM112.363 460.811v6.932h-1.089v-1.199a2.286 2.286 0 01-.924.965c-.395.221-.84.331-1.336.331-.818 0-1.438-.23-1.861-.689-.423-.46-.634-1.139-.634-2.04v-4.3h1.116v4.273c0 .624.129 1.084.386 1.378.257.294.648.441 1.172.441.615 0 1.111-.198 1.488-.593.377-.404.565-.932.565-1.585v-3.914h1.117zM117.74 460.646c.229 0 .441.027.634.082l-.028 1.02a2.232 2.232 0 00-.73-.11c-.671 0-1.172.211-1.503.634-.321.413-.482.919-.482 1.516v3.955h-1.116v-4.989c0-.716-.037-1.364-.111-1.943h1.062l.11 1.282c.174-.469.455-.827.84-1.075a2.395 2.395 0 011.324-.372zM122.24 467.84c-.652 0-1.227-.147-1.723-.441a3.005 3.005 0 01-1.158-1.254c-.266-.542-.399-1.176-.399-1.902s.133-1.36.399-1.902c.276-.542.662-.96 1.158-1.254.496-.294 1.071-.441 1.723-.441.652 0 1.227.147 1.723.441.496.294.877.712 1.144 1.254.275.542.413 1.176.413 1.902s-.138 1.36-.413 1.902c-.267.542-.648.96-1.144 1.254-.496.294-1.071.441-1.723.441zm0-.923c.689 0 1.217-.226 1.585-.676.367-.459.551-1.125.551-1.998 0-.845-.188-1.498-.565-1.957-.377-.469-.9-.703-1.571-.703-.68 0-1.208.234-1.585.703-.377.459-.565 1.112-.565 1.957 0 .873.184 1.539.551 1.998.377.45.91.676 1.599.676zM134.313 460.646c.607 0 1.144.151 1.613.455.468.303.831.73 1.088 1.281.258.542.386 1.172.386 1.888 0 .717-.128 1.346-.386 1.889-.257.532-.62.946-1.088 1.24-.46.294-.997.441-1.613.441-.542 0-1.015-.119-1.419-.358a2.312 2.312 0 01-.924-1.02v4.258h-1.116v-7.966c0-.716-.037-1.364-.11-1.943h1.061l.11 1.337c.193-.478.496-.845.91-1.103.422-.266.918-.399 1.488-.399zm-.207 6.271c.68 0 1.204-.23 1.572-.69.376-.459.565-1.111.565-1.957 0-.845-.189-1.502-.565-1.97-.377-.478-.901-.717-1.572-.717-.689 0-1.217.23-1.585.689-.367.459-.551 1.116-.551 1.971 0 .854.184 1.516.551 1.984.368.46.896.69 1.585.69zM141.984 467.84c-.652 0-1.226-.147-1.722-.441a2.993 2.993 0 01-1.158-1.254c-.267-.542-.4-1.176-.4-1.902s.133-1.36.4-1.902c.275-.542.661-.96 1.158-1.254.496-.294 1.07-.441 1.722-.441.653 0 1.227.147 1.723.441.496.294.878.712 1.144 1.254.276.542.413 1.176.413 1.902s-.137 1.36-.413 1.902c-.266.542-.648.96-1.144 1.254-.496.294-1.07.441-1.723.441zm0-.923c.689 0 1.218-.226 1.585-.676.368-.459.552-1.125.552-1.998 0-.845-.189-1.498-.566-1.957-.376-.469-.9-.703-1.571-.703-.68 0-1.208.234-1.585.703-.376.459-.565 1.112-.565 1.957 0 .873.184 1.539.552 1.998.376.45.909.676 1.598.676zM153.11 457.6v10.143h-1.103v-1.254a2.216 2.216 0 01-.923 1.006c-.404.23-.877.345-1.419.345a2.905 2.905 0 01-1.613-.455 3.04 3.04 0 01-1.075-1.268c-.257-.551-.386-1.185-.386-1.902 0-.716.124-1.341.372-1.874.258-.542.62-.96 1.089-1.254.469-.294 1.006-.441 1.613-.441.542 0 1.015.119 1.419.358.404.23.708.556.91.979V457.6h1.116zm-3.225 9.317c.68 0 1.204-.23 1.571-.69.368-.468.551-1.13.551-1.984 0-.845-.183-1.498-.551-1.957-.367-.469-.891-.703-1.571-.703-.68 0-1.213.23-1.599.689-.376.459-.565 1.107-.565 1.943 0 .855.189 1.521.565 1.999.386.468.919.703 1.599.703zM158.493 460.646c.23 0 .441.027.634.082l-.027 1.02a2.234 2.234 0 00-.731-.11c-.67 0-1.171.211-1.502.634-.321.413-.482.919-.482 1.516v3.955h-1.117v-4.989c0-.716-.036-1.364-.11-1.943h1.061l.111 1.282c.174-.469.454-.827.84-1.075a2.394 2.394 0 011.323-.372zM162.994 467.84c-.653 0-1.227-.147-1.723-.441a3.005 3.005 0 01-1.158-1.254c-.266-.542-.399-1.176-.399-1.902s.133-1.36.399-1.902c.276-.542.662-.96 1.158-1.254.496-.294 1.07-.441 1.723-.441.652 0 1.226.147 1.723.441a2.91 2.91 0 011.143 1.254c.276.542.414 1.176.414 1.902s-.138 1.36-.414 1.902a2.91 2.91 0 01-1.143 1.254c-.497.294-1.071.441-1.723.441zm0-.923c.689 0 1.217-.226 1.585-.676.367-.459.551-1.125.551-1.998 0-.845-.188-1.498-.565-1.957-.377-.469-.9-.703-1.571-.703-.68 0-1.208.234-1.585.703-.377.459-.565 1.112-.565 1.957 0 .873.184 1.539.551 1.998.377.45.91.676 1.599.676zm-.4-7.002l1.378-2.811h1.296l-1.888 2.811h-.786zM173.338 466.861v.882h-5.858v-.771l4.369-5.279h-4.217v-.882h5.554v.813l-4.328 5.237h4.48zm-2.233-8.985v1.267h-1.365v-1.267h1.365zM181.01 460.811l-3.239 7.566c-.339.791-.767 1.369-1.281 1.737-.515.368-1.149.62-1.902.758l-.234-.868c.652-.147 1.143-.345 1.474-.593.34-.239.62-.611.841-1.116l.276-.62-2.936-6.864h1.171l2.343 5.72 2.371-5.72h1.116z"/>
  <path fill="url(#paint0_linear)" fill-rule="evenodd" d="M80 438c0-5.519-4.48-10-10-10H40c-5.52 0-10 4.481-10 10v30c0 5.519 4.48 10 10 10h30c5.52 0 10-4.481 10-10v-30z" clip-rule="evenodd"/>
  <path fill="#fff" d="M58.402 446.799c-1.287 0-2.244.695-2.873 2.087l-5.339 11.592c.019 1.608.086 7.458.086 7.56 0 .068.016.294.031.534.31-.296.582-.684.81-1.176l5.715-12.213-.408 11.255c0 .901.215 1.592.644 2.073.429.492 1.036.737 1.82.737 1.026 0 1.9-.617 2.622-1.852l9.67-16.624 1.759-.002c.91 0 1.623-.194 2.135-.581.513-.398.77-.942.77-1.633 0-1.025-.728-1.537-2.183-1.537H70.6c-1.193 0-2.078.502-2.653 1.506l-.33.612-7.065 12.167.284-11.947.016-.173c0-.722-.226-1.297-.676-1.726-.45-.44-1.041-.659-1.774-.659zM42.809 446.799c-2.23 0-4.23.858-5.997 2.574-1.759 1.706-2.637 3.643-2.637 5.809 0 1.78.553 3.249 1.664 4.411 1.109 1.162 2.512 1.743 4.206 1.743 1.1 0 2.01-.23 2.733-.691.722-.471 1.083-1.057 1.083-1.758 0-1.057-.639-1.585-1.916-1.585-.053 0-.177.005-.376.016-.2.01-.41.015-.629.015-.764 0-1.38-.236-1.852-.707-.47-.471-.707-1.087-.707-1.852 0-.91.42-1.81 1.256-2.7.837-.9 1.68-1.35 2.527-1.35.952 0 1.593.334 1.916 1.004.336.66.502 1.947.502 3.862l.33 10.848c0 .88.22 1.565.66 2.057.347.388.804.609 1.352.695.132.037.27.056.406.057.833 0 1.519-.685 1.519-1.517v-.027l-.117-6.656-.004.007-.094-5.464-.006-.5-.027-1.41c-.073-2.291-.526-3.987-1.365-5.075-.91-1.204-2.386-1.806-4.427-1.806zM41.5 443.848a3.542 3.542 0 100-7.084 3.542 3.542 0 000 7.084z"/>
  <path d="M321 42h166.667v350H321z"/>
  <path d="M463 116h166.667v350H463z"/>
  <defs>
    <linearGradient id="paint0_linear" x1="55" x2="55" y1="428" y2="478" gradientUnits="userSpaceOnUse">
      <stop stop-color="#CCC"/>
      <stop offset="1" stop-color="#CCC"/>
    </linearGradient>
    <filter id="filter0_d" width="720" height="518" x="0" y="0" color-interpolation-filters="sRGB" filterUnits="userSpaceOnUse">
      <feFlood flood-opacity="0" result="BackgroundImageFix"/>
      <feColorMatrix in="SourceAlpha" values="0 0 0 0 0 0 0 0 0 0 0 0 0 0 0 0 0 0 127 0"/>
      <feOffset dx="5" dy="5"/>
      <feGaussianBlur stdDeviation="5"/>
      <feColorMatrix values="0 0 0 0 0 0 0 0 0 0 0 0 0 0 0 0 0 0 0.15 0"/>
      <feBlend in2="BackgroundImageFix" result="effect1_dropShadow"/>
      <feBlend in="SourceGraphic" in2="effect1_dropShadow" result="shape"/>
    </filter>
  </defs>
</svg>
